%FSLAX45Y45*%
G04 Gerber Fmt 4.5, Leading zero omitted, Abs format (unit mm)*
G04 Created by KiCad (PCBNEW (5.1.10-1-10_14)) date 2021-07-05 16:18:35*
%MOMM*%
%LPD*%
G01*
G04 APERTURE LIST*
%TA.AperFunction,Profile*%
%ADD10C,0.100000*%
%TD*%
%ADD11C,0.200000*%
%ADD12C,0.300000*%
G04 APERTURE END LIST*
D10*
X11715000Y-9270000D02*
G75*
G02*
X11785000Y-9200000I70000J0D01*
G01*
X11715000Y-11295000D02*
X11715000Y-9270000D01*
X11785000Y-11365000D02*
G75*
G02*
X11715000Y-11295000I0J70000D01*
G01*
X19715000Y-9270000D02*
X19715000Y-11295000D01*
X19715000Y-11295000D02*
G75*
G02*
X19645000Y-11365000I-70000J0D01*
G01*
X19645000Y-9200000D02*
G75*
G02*
X19715000Y-9270000I0J-70000D01*
G01*
X19645000Y-11365000D02*
X11785000Y-11365000D01*
X11785000Y-9200000D02*
X19645000Y-9200000D01*
D11*
X17835000Y-9367500D02*
X17935000Y-9467500D01*
X17935000Y-9367500D02*
X17835000Y-9467500D01*
X18089000Y-9367500D02*
X18189000Y-9467500D01*
X18189000Y-9367500D02*
X18089000Y-9467500D01*
X18343000Y-9367500D02*
X18443000Y-9467500D01*
X18443000Y-9367500D02*
X18343000Y-9467500D01*
X14275000Y-10765000D02*
G75*
G03*
X14275000Y-10765000I-60000J0D01*
G01*
X14287500Y-9710500D02*
G75*
G03*
X14287500Y-9710500I-60000J0D01*
G01*
X14625000Y-10765000D02*
G75*
G03*
X14625000Y-10765000I-60000J0D01*
G01*
X14637500Y-9710500D02*
G75*
G03*
X14637500Y-9710500I-60000J0D01*
G01*
X19217000Y-9490000D02*
G75*
G03*
X19217000Y-9490000I-60000J0D01*
G01*
X19217000Y-9840000D02*
G75*
G03*
X19217000Y-9840000I-60000J0D01*
G01*
X12072500Y-9799000D02*
X12072500Y-9931000D01*
X12006500Y-9865000D02*
X12138500Y-9865000D01*
X12572500Y-9799000D02*
X12572500Y-9931000D01*
X12506500Y-9865000D02*
X12638500Y-9865000D01*
X13078000Y-9799000D02*
X13078000Y-9931000D01*
X13012000Y-9865000D02*
X13144000Y-9865000D01*
X13578000Y-9799000D02*
X13578000Y-9931000D01*
X13512000Y-9865000D02*
X13644000Y-9865000D01*
X15702500Y-10636500D02*
X15702500Y-10768500D01*
X15636500Y-10702500D02*
X15768500Y-10702500D01*
X16202500Y-10636500D02*
X16202500Y-10768500D01*
X16136500Y-10702500D02*
X16268500Y-10702500D01*
X16702500Y-10636500D02*
X16702500Y-10768500D01*
X16636500Y-10702500D02*
X16768500Y-10702500D01*
X17202500Y-10636500D02*
X17202500Y-10768500D01*
X17136500Y-10702500D02*
X17268500Y-10702500D01*
D12*
X11996428Y-11835714D02*
X11996428Y-11535714D01*
X12067857Y-11535714D01*
X12110714Y-11550000D01*
X12139286Y-11578571D01*
X12153571Y-11607143D01*
X12167857Y-11664286D01*
X12167857Y-11707143D01*
X12153571Y-11764286D01*
X12139286Y-11792857D01*
X12110714Y-11821429D01*
X12067857Y-11835714D01*
X11996428Y-11835714D01*
X12296428Y-11835714D02*
X12296428Y-11635714D01*
X12296428Y-11692857D02*
X12310714Y-11664286D01*
X12325000Y-11650000D01*
X12353571Y-11635714D01*
X12382143Y-11635714D01*
X12482143Y-11835714D02*
X12482143Y-11635714D01*
X12482143Y-11535714D02*
X12467857Y-11550000D01*
X12482143Y-11564286D01*
X12496428Y-11550000D01*
X12482143Y-11535714D01*
X12482143Y-11564286D01*
X12667857Y-11835714D02*
X12639286Y-11821429D01*
X12625000Y-11792857D01*
X12625000Y-11535714D01*
X12825000Y-11835714D02*
X12796428Y-11821429D01*
X12782143Y-11792857D01*
X12782143Y-11535714D01*
X13167857Y-11835714D02*
X13167857Y-11535714D01*
X13267857Y-11750000D01*
X13367857Y-11535714D01*
X13367857Y-11835714D01*
X13639286Y-11835714D02*
X13639286Y-11678571D01*
X13625000Y-11650000D01*
X13596428Y-11635714D01*
X13539286Y-11635714D01*
X13510714Y-11650000D01*
X13639286Y-11821429D02*
X13610714Y-11835714D01*
X13539286Y-11835714D01*
X13510714Y-11821429D01*
X13496428Y-11792857D01*
X13496428Y-11764286D01*
X13510714Y-11735714D01*
X13539286Y-11721429D01*
X13610714Y-11721429D01*
X13639286Y-11707143D01*
X13782143Y-11635714D02*
X13782143Y-11935714D01*
X13782143Y-11650000D02*
X13810714Y-11635714D01*
X13867857Y-11635714D01*
X13896428Y-11650000D01*
X13910714Y-11664286D01*
X13925000Y-11692857D01*
X13925000Y-11778571D01*
X13910714Y-11807143D01*
X13896428Y-11821429D01*
X13867857Y-11835714D01*
X13810714Y-11835714D01*
X13782143Y-11821429D01*
X14053571Y-11807143D02*
X14067857Y-11821429D01*
X14053571Y-11835714D01*
X14039286Y-11821429D01*
X14053571Y-11807143D01*
X14053571Y-11835714D01*
X14053571Y-11650000D02*
X14067857Y-11664286D01*
X14053571Y-11678571D01*
X14039286Y-11664286D01*
X14053571Y-11650000D01*
X14053571Y-11678571D01*
X11610000Y-12280000D02*
X11710000Y-12380000D01*
X11710000Y-12280000D02*
X11610000Y-12380000D01*
X12153571Y-12465714D02*
X11982143Y-12465714D01*
X12067857Y-12465714D02*
X12067857Y-12165714D01*
X12039286Y-12208571D01*
X12010714Y-12237143D01*
X11982143Y-12251429D01*
X12282143Y-12437143D02*
X12296428Y-12451429D01*
X12282143Y-12465714D01*
X12267857Y-12451429D01*
X12282143Y-12437143D01*
X12282143Y-12465714D01*
X12482143Y-12165714D02*
X12510714Y-12165714D01*
X12539286Y-12180000D01*
X12553571Y-12194286D01*
X12567857Y-12222857D01*
X12582143Y-12280000D01*
X12582143Y-12351429D01*
X12567857Y-12408571D01*
X12553571Y-12437143D01*
X12539286Y-12451429D01*
X12510714Y-12465714D01*
X12482143Y-12465714D01*
X12453571Y-12451429D01*
X12439286Y-12437143D01*
X12425000Y-12408571D01*
X12410714Y-12351429D01*
X12410714Y-12280000D01*
X12425000Y-12222857D01*
X12439286Y-12194286D01*
X12453571Y-12180000D01*
X12482143Y-12165714D01*
X12767857Y-12165714D02*
X12796428Y-12165714D01*
X12825000Y-12180000D01*
X12839286Y-12194286D01*
X12853571Y-12222857D01*
X12867857Y-12280000D01*
X12867857Y-12351429D01*
X12853571Y-12408571D01*
X12839286Y-12437143D01*
X12825000Y-12451429D01*
X12796428Y-12465714D01*
X12767857Y-12465714D01*
X12739286Y-12451429D01*
X12725000Y-12437143D01*
X12710714Y-12408571D01*
X12696428Y-12351429D01*
X12696428Y-12280000D01*
X12710714Y-12222857D01*
X12725000Y-12194286D01*
X12739286Y-12180000D01*
X12767857Y-12165714D01*
X13053571Y-12165714D02*
X13082143Y-12165714D01*
X13110714Y-12180000D01*
X13125000Y-12194286D01*
X13139286Y-12222857D01*
X13153571Y-12280000D01*
X13153571Y-12351429D01*
X13139286Y-12408571D01*
X13125000Y-12437143D01*
X13110714Y-12451429D01*
X13082143Y-12465714D01*
X13053571Y-12465714D01*
X13025000Y-12451429D01*
X13010714Y-12437143D01*
X12996428Y-12408571D01*
X12982143Y-12351429D01*
X12982143Y-12280000D01*
X12996428Y-12222857D01*
X13010714Y-12194286D01*
X13025000Y-12180000D01*
X13053571Y-12165714D01*
X13282143Y-12465714D02*
X13282143Y-12265714D01*
X13282143Y-12294286D02*
X13296428Y-12280000D01*
X13325000Y-12265714D01*
X13367857Y-12265714D01*
X13396428Y-12280000D01*
X13410714Y-12308571D01*
X13410714Y-12465714D01*
X13410714Y-12308571D02*
X13425000Y-12280000D01*
X13453571Y-12265714D01*
X13496428Y-12265714D01*
X13525000Y-12280000D01*
X13539286Y-12308571D01*
X13539286Y-12465714D01*
X13682143Y-12465714D02*
X13682143Y-12265714D01*
X13682143Y-12294286D02*
X13696428Y-12280000D01*
X13725000Y-12265714D01*
X13767857Y-12265714D01*
X13796428Y-12280000D01*
X13810714Y-12308571D01*
X13810714Y-12465714D01*
X13810714Y-12308571D02*
X13825000Y-12280000D01*
X13853571Y-12265714D01*
X13896428Y-12265714D01*
X13925000Y-12280000D01*
X13939286Y-12308571D01*
X13939286Y-12465714D01*
X14525000Y-12151429D02*
X14267857Y-12537143D01*
X14910714Y-12165714D02*
X14939286Y-12165714D01*
X14967857Y-12180000D01*
X14982143Y-12194286D01*
X14996428Y-12222857D01*
X15010714Y-12280000D01*
X15010714Y-12351429D01*
X14996428Y-12408571D01*
X14982143Y-12437143D01*
X14967857Y-12451429D01*
X14939286Y-12465714D01*
X14910714Y-12465714D01*
X14882143Y-12451429D01*
X14867857Y-12437143D01*
X14853571Y-12408571D01*
X14839286Y-12351429D01*
X14839286Y-12280000D01*
X14853571Y-12222857D01*
X14867857Y-12194286D01*
X14882143Y-12180000D01*
X14910714Y-12165714D01*
X15139286Y-12437143D02*
X15153571Y-12451429D01*
X15139286Y-12465714D01*
X15125000Y-12451429D01*
X15139286Y-12437143D01*
X15139286Y-12465714D01*
X15339286Y-12165714D02*
X15367857Y-12165714D01*
X15396428Y-12180000D01*
X15410714Y-12194286D01*
X15425000Y-12222857D01*
X15439286Y-12280000D01*
X15439286Y-12351429D01*
X15425000Y-12408571D01*
X15410714Y-12437143D01*
X15396428Y-12451429D01*
X15367857Y-12465714D01*
X15339286Y-12465714D01*
X15310714Y-12451429D01*
X15296428Y-12437143D01*
X15282143Y-12408571D01*
X15267857Y-12351429D01*
X15267857Y-12280000D01*
X15282143Y-12222857D01*
X15296428Y-12194286D01*
X15310714Y-12180000D01*
X15339286Y-12165714D01*
X15539286Y-12165714D02*
X15725000Y-12165714D01*
X15625000Y-12280000D01*
X15667857Y-12280000D01*
X15696428Y-12294286D01*
X15710714Y-12308571D01*
X15725000Y-12337143D01*
X15725000Y-12408571D01*
X15710714Y-12437143D01*
X15696428Y-12451429D01*
X15667857Y-12465714D01*
X15582143Y-12465714D01*
X15553571Y-12451429D01*
X15539286Y-12437143D01*
X15867857Y-12465714D02*
X15925000Y-12465714D01*
X15953571Y-12451429D01*
X15967857Y-12437143D01*
X15996428Y-12394286D01*
X16010714Y-12337143D01*
X16010714Y-12222857D01*
X15996428Y-12194286D01*
X15982143Y-12180000D01*
X15953571Y-12165714D01*
X15896428Y-12165714D01*
X15867857Y-12180000D01*
X15853571Y-12194286D01*
X15839286Y-12222857D01*
X15839286Y-12294286D01*
X15853571Y-12322857D01*
X15867857Y-12337143D01*
X15896428Y-12351429D01*
X15953571Y-12351429D01*
X15982143Y-12337143D01*
X15996428Y-12322857D01*
X16010714Y-12294286D01*
X16267857Y-12265714D02*
X16267857Y-12465714D01*
X16196428Y-12151429D02*
X16125000Y-12365714D01*
X16310714Y-12365714D01*
X16410714Y-12165714D02*
X16410714Y-12222857D01*
X16525000Y-12165714D02*
X16525000Y-12222857D01*
X16967857Y-12580000D02*
X16953571Y-12565714D01*
X16925000Y-12522857D01*
X16910714Y-12494286D01*
X16896428Y-12451429D01*
X16882143Y-12380000D01*
X16882143Y-12322857D01*
X16896428Y-12251429D01*
X16910714Y-12208571D01*
X16925000Y-12180000D01*
X16953571Y-12137143D01*
X16967857Y-12122857D01*
X17053571Y-12165714D02*
X17239286Y-12165714D01*
X17139286Y-12280000D01*
X17182143Y-12280000D01*
X17210714Y-12294286D01*
X17225000Y-12308571D01*
X17239286Y-12337143D01*
X17239286Y-12408571D01*
X17225000Y-12437143D01*
X17210714Y-12451429D01*
X17182143Y-12465714D01*
X17096428Y-12465714D01*
X17067857Y-12451429D01*
X17053571Y-12437143D01*
X17596428Y-12465714D02*
X17596428Y-12165714D01*
X17725000Y-12465714D02*
X17725000Y-12308571D01*
X17710714Y-12280000D01*
X17682143Y-12265714D01*
X17639286Y-12265714D01*
X17610714Y-12280000D01*
X17596428Y-12294286D01*
X17910714Y-12465714D02*
X17882143Y-12451429D01*
X17867857Y-12437143D01*
X17853571Y-12408571D01*
X17853571Y-12322857D01*
X17867857Y-12294286D01*
X17882143Y-12280000D01*
X17910714Y-12265714D01*
X17953571Y-12265714D01*
X17982143Y-12280000D01*
X17996428Y-12294286D01*
X18010714Y-12322857D01*
X18010714Y-12408571D01*
X17996428Y-12437143D01*
X17982143Y-12451429D01*
X17953571Y-12465714D01*
X17910714Y-12465714D01*
X18182143Y-12465714D02*
X18153571Y-12451429D01*
X18139286Y-12422857D01*
X18139286Y-12165714D01*
X18410714Y-12451429D02*
X18382143Y-12465714D01*
X18325000Y-12465714D01*
X18296428Y-12451429D01*
X18282143Y-12422857D01*
X18282143Y-12308571D01*
X18296428Y-12280000D01*
X18325000Y-12265714D01*
X18382143Y-12265714D01*
X18410714Y-12280000D01*
X18425000Y-12308571D01*
X18425000Y-12337143D01*
X18282143Y-12365714D01*
X18539286Y-12451429D02*
X18567857Y-12465714D01*
X18625000Y-12465714D01*
X18653571Y-12451429D01*
X18667857Y-12422857D01*
X18667857Y-12408571D01*
X18653571Y-12380000D01*
X18625000Y-12365714D01*
X18582143Y-12365714D01*
X18553571Y-12351429D01*
X18539286Y-12322857D01*
X18539286Y-12308571D01*
X18553571Y-12280000D01*
X18582143Y-12265714D01*
X18625000Y-12265714D01*
X18653571Y-12280000D01*
X18767857Y-12580000D02*
X18782143Y-12565714D01*
X18810714Y-12522857D01*
X18825000Y-12494286D01*
X18839286Y-12451429D01*
X18853571Y-12380000D01*
X18853571Y-12322857D01*
X18839286Y-12251429D01*
X18825000Y-12208571D01*
X18810714Y-12180000D01*
X18782143Y-12137143D01*
X18767857Y-12122857D01*
X11710000Y-12726000D02*
G75*
G03*
X11710000Y-12726000I-60000J0D01*
G01*
X12153571Y-12861714D02*
X11982143Y-12861714D01*
X12067857Y-12861714D02*
X12067857Y-12561714D01*
X12039286Y-12604571D01*
X12010714Y-12633143D01*
X11982143Y-12647429D01*
X12282143Y-12833143D02*
X12296428Y-12847429D01*
X12282143Y-12861714D01*
X12267857Y-12847429D01*
X12282143Y-12833143D01*
X12282143Y-12861714D01*
X12410714Y-12590286D02*
X12425000Y-12576000D01*
X12453571Y-12561714D01*
X12525000Y-12561714D01*
X12553571Y-12576000D01*
X12567857Y-12590286D01*
X12582143Y-12618857D01*
X12582143Y-12647429D01*
X12567857Y-12690286D01*
X12396428Y-12861714D01*
X12582143Y-12861714D01*
X12767857Y-12561714D02*
X12796428Y-12561714D01*
X12825000Y-12576000D01*
X12839286Y-12590286D01*
X12853571Y-12618857D01*
X12867857Y-12676000D01*
X12867857Y-12747429D01*
X12853571Y-12804571D01*
X12839286Y-12833143D01*
X12825000Y-12847429D01*
X12796428Y-12861714D01*
X12767857Y-12861714D01*
X12739286Y-12847429D01*
X12725000Y-12833143D01*
X12710714Y-12804571D01*
X12696428Y-12747429D01*
X12696428Y-12676000D01*
X12710714Y-12618857D01*
X12725000Y-12590286D01*
X12739286Y-12576000D01*
X12767857Y-12561714D01*
X13053571Y-12561714D02*
X13082143Y-12561714D01*
X13110714Y-12576000D01*
X13125000Y-12590286D01*
X13139286Y-12618857D01*
X13153571Y-12676000D01*
X13153571Y-12747429D01*
X13139286Y-12804571D01*
X13125000Y-12833143D01*
X13110714Y-12847429D01*
X13082143Y-12861714D01*
X13053571Y-12861714D01*
X13025000Y-12847429D01*
X13010714Y-12833143D01*
X12996428Y-12804571D01*
X12982143Y-12747429D01*
X12982143Y-12676000D01*
X12996428Y-12618857D01*
X13010714Y-12590286D01*
X13025000Y-12576000D01*
X13053571Y-12561714D01*
X13282143Y-12861714D02*
X13282143Y-12661714D01*
X13282143Y-12690286D02*
X13296428Y-12676000D01*
X13325000Y-12661714D01*
X13367857Y-12661714D01*
X13396428Y-12676000D01*
X13410714Y-12704571D01*
X13410714Y-12861714D01*
X13410714Y-12704571D02*
X13425000Y-12676000D01*
X13453571Y-12661714D01*
X13496428Y-12661714D01*
X13525000Y-12676000D01*
X13539286Y-12704571D01*
X13539286Y-12861714D01*
X13682143Y-12861714D02*
X13682143Y-12661714D01*
X13682143Y-12690286D02*
X13696428Y-12676000D01*
X13725000Y-12661714D01*
X13767857Y-12661714D01*
X13796428Y-12676000D01*
X13810714Y-12704571D01*
X13810714Y-12861714D01*
X13810714Y-12704571D02*
X13825000Y-12676000D01*
X13853571Y-12661714D01*
X13896428Y-12661714D01*
X13925000Y-12676000D01*
X13939286Y-12704571D01*
X13939286Y-12861714D01*
X14525000Y-12547429D02*
X14267857Y-12933143D01*
X14910714Y-12561714D02*
X14939286Y-12561714D01*
X14967857Y-12576000D01*
X14982143Y-12590286D01*
X14996428Y-12618857D01*
X15010714Y-12676000D01*
X15010714Y-12747429D01*
X14996428Y-12804571D01*
X14982143Y-12833143D01*
X14967857Y-12847429D01*
X14939286Y-12861714D01*
X14910714Y-12861714D01*
X14882143Y-12847429D01*
X14867857Y-12833143D01*
X14853571Y-12804571D01*
X14839286Y-12747429D01*
X14839286Y-12676000D01*
X14853571Y-12618857D01*
X14867857Y-12590286D01*
X14882143Y-12576000D01*
X14910714Y-12561714D01*
X15139286Y-12833143D02*
X15153571Y-12847429D01*
X15139286Y-12861714D01*
X15125000Y-12847429D01*
X15139286Y-12833143D01*
X15139286Y-12861714D01*
X15339286Y-12561714D02*
X15367857Y-12561714D01*
X15396428Y-12576000D01*
X15410714Y-12590286D01*
X15425000Y-12618857D01*
X15439286Y-12676000D01*
X15439286Y-12747429D01*
X15425000Y-12804571D01*
X15410714Y-12833143D01*
X15396428Y-12847429D01*
X15367857Y-12861714D01*
X15339286Y-12861714D01*
X15310714Y-12847429D01*
X15296428Y-12833143D01*
X15282143Y-12804571D01*
X15267857Y-12747429D01*
X15267857Y-12676000D01*
X15282143Y-12618857D01*
X15296428Y-12590286D01*
X15310714Y-12576000D01*
X15339286Y-12561714D01*
X15696428Y-12661714D02*
X15696428Y-12861714D01*
X15625000Y-12547429D02*
X15553571Y-12761714D01*
X15739286Y-12761714D01*
X15825000Y-12561714D02*
X16025000Y-12561714D01*
X15896428Y-12861714D01*
X16125000Y-12590286D02*
X16139286Y-12576000D01*
X16167857Y-12561714D01*
X16239286Y-12561714D01*
X16267857Y-12576000D01*
X16282143Y-12590286D01*
X16296428Y-12618857D01*
X16296428Y-12647429D01*
X16282143Y-12690286D01*
X16110714Y-12861714D01*
X16296428Y-12861714D01*
X16410714Y-12561714D02*
X16410714Y-12618857D01*
X16525000Y-12561714D02*
X16525000Y-12618857D01*
X16967857Y-12976000D02*
X16953571Y-12961714D01*
X16925000Y-12918857D01*
X16910714Y-12890286D01*
X16896428Y-12847429D01*
X16882143Y-12776000D01*
X16882143Y-12718857D01*
X16896428Y-12647429D01*
X16910714Y-12604571D01*
X16925000Y-12576000D01*
X16953571Y-12533143D01*
X16967857Y-12518857D01*
X17210714Y-12561714D02*
X17153571Y-12561714D01*
X17125000Y-12576000D01*
X17110714Y-12590286D01*
X17082143Y-12633143D01*
X17067857Y-12690286D01*
X17067857Y-12804571D01*
X17082143Y-12833143D01*
X17096428Y-12847429D01*
X17125000Y-12861714D01*
X17182143Y-12861714D01*
X17210714Y-12847429D01*
X17225000Y-12833143D01*
X17239286Y-12804571D01*
X17239286Y-12733143D01*
X17225000Y-12704571D01*
X17210714Y-12690286D01*
X17182143Y-12676000D01*
X17125000Y-12676000D01*
X17096428Y-12690286D01*
X17082143Y-12704571D01*
X17067857Y-12733143D01*
X17596428Y-12861714D02*
X17596428Y-12561714D01*
X17725000Y-12861714D02*
X17725000Y-12704571D01*
X17710714Y-12676000D01*
X17682143Y-12661714D01*
X17639286Y-12661714D01*
X17610714Y-12676000D01*
X17596428Y-12690286D01*
X17910714Y-12861714D02*
X17882143Y-12847429D01*
X17867857Y-12833143D01*
X17853571Y-12804571D01*
X17853571Y-12718857D01*
X17867857Y-12690286D01*
X17882143Y-12676000D01*
X17910714Y-12661714D01*
X17953571Y-12661714D01*
X17982143Y-12676000D01*
X17996428Y-12690286D01*
X18010714Y-12718857D01*
X18010714Y-12804571D01*
X17996428Y-12833143D01*
X17982143Y-12847429D01*
X17953571Y-12861714D01*
X17910714Y-12861714D01*
X18182143Y-12861714D02*
X18153571Y-12847429D01*
X18139286Y-12818857D01*
X18139286Y-12561714D01*
X18410714Y-12847429D02*
X18382143Y-12861714D01*
X18325000Y-12861714D01*
X18296428Y-12847429D01*
X18282143Y-12818857D01*
X18282143Y-12704571D01*
X18296428Y-12676000D01*
X18325000Y-12661714D01*
X18382143Y-12661714D01*
X18410714Y-12676000D01*
X18425000Y-12704571D01*
X18425000Y-12733143D01*
X18282143Y-12761714D01*
X18539286Y-12847429D02*
X18567857Y-12861714D01*
X18625000Y-12861714D01*
X18653571Y-12847429D01*
X18667857Y-12818857D01*
X18667857Y-12804571D01*
X18653571Y-12776000D01*
X18625000Y-12761714D01*
X18582143Y-12761714D01*
X18553571Y-12747429D01*
X18539286Y-12718857D01*
X18539286Y-12704571D01*
X18553571Y-12676000D01*
X18582143Y-12661714D01*
X18625000Y-12661714D01*
X18653571Y-12676000D01*
X18767857Y-12976000D02*
X18782143Y-12961714D01*
X18810714Y-12918857D01*
X18825000Y-12890286D01*
X18839286Y-12847429D01*
X18853571Y-12776000D01*
X18853571Y-12718857D01*
X18839286Y-12647429D01*
X18825000Y-12604571D01*
X18810714Y-12576000D01*
X18782143Y-12533143D01*
X18767857Y-12518857D01*
X11644000Y-13056000D02*
X11644000Y-13188000D01*
X11578000Y-13122000D02*
X11710000Y-13122000D01*
X12153571Y-13257714D02*
X11982143Y-13257714D01*
X12067857Y-13257714D02*
X12067857Y-12957714D01*
X12039286Y-13000571D01*
X12010714Y-13029143D01*
X11982143Y-13043429D01*
X12282143Y-13229143D02*
X12296428Y-13243429D01*
X12282143Y-13257714D01*
X12267857Y-13243429D01*
X12282143Y-13229143D01*
X12282143Y-13257714D01*
X12396428Y-12957714D02*
X12582143Y-12957714D01*
X12482143Y-13072000D01*
X12525000Y-13072000D01*
X12553571Y-13086286D01*
X12567857Y-13100571D01*
X12582143Y-13129143D01*
X12582143Y-13200571D01*
X12567857Y-13229143D01*
X12553571Y-13243429D01*
X12525000Y-13257714D01*
X12439286Y-13257714D01*
X12410714Y-13243429D01*
X12396428Y-13229143D01*
X12696428Y-12986286D02*
X12710714Y-12972000D01*
X12739286Y-12957714D01*
X12810714Y-12957714D01*
X12839286Y-12972000D01*
X12853571Y-12986286D01*
X12867857Y-13014857D01*
X12867857Y-13043429D01*
X12853571Y-13086286D01*
X12682143Y-13257714D01*
X12867857Y-13257714D01*
X13053571Y-12957714D02*
X13082143Y-12957714D01*
X13110714Y-12972000D01*
X13125000Y-12986286D01*
X13139286Y-13014857D01*
X13153571Y-13072000D01*
X13153571Y-13143429D01*
X13139286Y-13200571D01*
X13125000Y-13229143D01*
X13110714Y-13243429D01*
X13082143Y-13257714D01*
X13053571Y-13257714D01*
X13025000Y-13243429D01*
X13010714Y-13229143D01*
X12996428Y-13200571D01*
X12982143Y-13143429D01*
X12982143Y-13072000D01*
X12996428Y-13014857D01*
X13010714Y-12986286D01*
X13025000Y-12972000D01*
X13053571Y-12957714D01*
X13282143Y-13257714D02*
X13282143Y-13057714D01*
X13282143Y-13086286D02*
X13296428Y-13072000D01*
X13325000Y-13057714D01*
X13367857Y-13057714D01*
X13396428Y-13072000D01*
X13410714Y-13100571D01*
X13410714Y-13257714D01*
X13410714Y-13100571D02*
X13425000Y-13072000D01*
X13453571Y-13057714D01*
X13496428Y-13057714D01*
X13525000Y-13072000D01*
X13539286Y-13100571D01*
X13539286Y-13257714D01*
X13682143Y-13257714D02*
X13682143Y-13057714D01*
X13682143Y-13086286D02*
X13696428Y-13072000D01*
X13725000Y-13057714D01*
X13767857Y-13057714D01*
X13796428Y-13072000D01*
X13810714Y-13100571D01*
X13810714Y-13257714D01*
X13810714Y-13100571D02*
X13825000Y-13072000D01*
X13853571Y-13057714D01*
X13896428Y-13057714D01*
X13925000Y-13072000D01*
X13939286Y-13100571D01*
X13939286Y-13257714D01*
X14525000Y-12943429D02*
X14267857Y-13329143D01*
X14910714Y-12957714D02*
X14939286Y-12957714D01*
X14967857Y-12972000D01*
X14982143Y-12986286D01*
X14996428Y-13014857D01*
X15010714Y-13072000D01*
X15010714Y-13143429D01*
X14996428Y-13200571D01*
X14982143Y-13229143D01*
X14967857Y-13243429D01*
X14939286Y-13257714D01*
X14910714Y-13257714D01*
X14882143Y-13243429D01*
X14867857Y-13229143D01*
X14853571Y-13200571D01*
X14839286Y-13143429D01*
X14839286Y-13072000D01*
X14853571Y-13014857D01*
X14867857Y-12986286D01*
X14882143Y-12972000D01*
X14910714Y-12957714D01*
X15139286Y-13229143D02*
X15153571Y-13243429D01*
X15139286Y-13257714D01*
X15125000Y-13243429D01*
X15139286Y-13229143D01*
X15139286Y-13257714D01*
X15339286Y-12957714D02*
X15367857Y-12957714D01*
X15396428Y-12972000D01*
X15410714Y-12986286D01*
X15425000Y-13014857D01*
X15439286Y-13072000D01*
X15439286Y-13143429D01*
X15425000Y-13200571D01*
X15410714Y-13229143D01*
X15396428Y-13243429D01*
X15367857Y-13257714D01*
X15339286Y-13257714D01*
X15310714Y-13243429D01*
X15296428Y-13229143D01*
X15282143Y-13200571D01*
X15267857Y-13143429D01*
X15267857Y-13072000D01*
X15282143Y-13014857D01*
X15296428Y-12986286D01*
X15310714Y-12972000D01*
X15339286Y-12957714D01*
X15710714Y-12957714D02*
X15567857Y-12957714D01*
X15553571Y-13100571D01*
X15567857Y-13086286D01*
X15596428Y-13072000D01*
X15667857Y-13072000D01*
X15696428Y-13086286D01*
X15710714Y-13100571D01*
X15725000Y-13129143D01*
X15725000Y-13200571D01*
X15710714Y-13229143D01*
X15696428Y-13243429D01*
X15667857Y-13257714D01*
X15596428Y-13257714D01*
X15567857Y-13243429D01*
X15553571Y-13229143D01*
X15839286Y-12986286D02*
X15853571Y-12972000D01*
X15882143Y-12957714D01*
X15953571Y-12957714D01*
X15982143Y-12972000D01*
X15996428Y-12986286D01*
X16010714Y-13014857D01*
X16010714Y-13043429D01*
X15996428Y-13086286D01*
X15825000Y-13257714D01*
X16010714Y-13257714D01*
X16196428Y-12957714D02*
X16225000Y-12957714D01*
X16253571Y-12972000D01*
X16267857Y-12986286D01*
X16282143Y-13014857D01*
X16296428Y-13072000D01*
X16296428Y-13143429D01*
X16282143Y-13200571D01*
X16267857Y-13229143D01*
X16253571Y-13243429D01*
X16225000Y-13257714D01*
X16196428Y-13257714D01*
X16167857Y-13243429D01*
X16153571Y-13229143D01*
X16139286Y-13200571D01*
X16125000Y-13143429D01*
X16125000Y-13072000D01*
X16139286Y-13014857D01*
X16153571Y-12986286D01*
X16167857Y-12972000D01*
X16196428Y-12957714D01*
X16410714Y-12957714D02*
X16410714Y-13014857D01*
X16525000Y-12957714D02*
X16525000Y-13014857D01*
X16967857Y-13372000D02*
X16953571Y-13357714D01*
X16925000Y-13314857D01*
X16910714Y-13286286D01*
X16896428Y-13243429D01*
X16882143Y-13172000D01*
X16882143Y-13114857D01*
X16896428Y-13043429D01*
X16910714Y-13000571D01*
X16925000Y-12972000D01*
X16953571Y-12929143D01*
X16967857Y-12914857D01*
X17125000Y-13086286D02*
X17096428Y-13072000D01*
X17082143Y-13057714D01*
X17067857Y-13029143D01*
X17067857Y-13014857D01*
X17082143Y-12986286D01*
X17096428Y-12972000D01*
X17125000Y-12957714D01*
X17182143Y-12957714D01*
X17210714Y-12972000D01*
X17225000Y-12986286D01*
X17239286Y-13014857D01*
X17239286Y-13029143D01*
X17225000Y-13057714D01*
X17210714Y-13072000D01*
X17182143Y-13086286D01*
X17125000Y-13086286D01*
X17096428Y-13100571D01*
X17082143Y-13114857D01*
X17067857Y-13143429D01*
X17067857Y-13200571D01*
X17082143Y-13229143D01*
X17096428Y-13243429D01*
X17125000Y-13257714D01*
X17182143Y-13257714D01*
X17210714Y-13243429D01*
X17225000Y-13229143D01*
X17239286Y-13200571D01*
X17239286Y-13143429D01*
X17225000Y-13114857D01*
X17210714Y-13100571D01*
X17182143Y-13086286D01*
X17596428Y-13257714D02*
X17596428Y-12957714D01*
X17725000Y-13257714D02*
X17725000Y-13100571D01*
X17710714Y-13072000D01*
X17682143Y-13057714D01*
X17639286Y-13057714D01*
X17610714Y-13072000D01*
X17596428Y-13086286D01*
X17910714Y-13257714D02*
X17882143Y-13243429D01*
X17867857Y-13229143D01*
X17853571Y-13200571D01*
X17853571Y-13114857D01*
X17867857Y-13086286D01*
X17882143Y-13072000D01*
X17910714Y-13057714D01*
X17953571Y-13057714D01*
X17982143Y-13072000D01*
X17996428Y-13086286D01*
X18010714Y-13114857D01*
X18010714Y-13200571D01*
X17996428Y-13229143D01*
X17982143Y-13243429D01*
X17953571Y-13257714D01*
X17910714Y-13257714D01*
X18182143Y-13257714D02*
X18153571Y-13243429D01*
X18139286Y-13214857D01*
X18139286Y-12957714D01*
X18410714Y-13243429D02*
X18382143Y-13257714D01*
X18325000Y-13257714D01*
X18296428Y-13243429D01*
X18282143Y-13214857D01*
X18282143Y-13100571D01*
X18296428Y-13072000D01*
X18325000Y-13057714D01*
X18382143Y-13057714D01*
X18410714Y-13072000D01*
X18425000Y-13100571D01*
X18425000Y-13129143D01*
X18282143Y-13157714D01*
X18539286Y-13243429D02*
X18567857Y-13257714D01*
X18625000Y-13257714D01*
X18653571Y-13243429D01*
X18667857Y-13214857D01*
X18667857Y-13200571D01*
X18653571Y-13172000D01*
X18625000Y-13157714D01*
X18582143Y-13157714D01*
X18553571Y-13143429D01*
X18539286Y-13114857D01*
X18539286Y-13100571D01*
X18553571Y-13072000D01*
X18582143Y-13057714D01*
X18625000Y-13057714D01*
X18653571Y-13072000D01*
X18767857Y-13372000D02*
X18782143Y-13357714D01*
X18810714Y-13314857D01*
X18825000Y-13286286D01*
X18839286Y-13243429D01*
X18853571Y-13172000D01*
X18853571Y-13114857D01*
X18839286Y-13043429D01*
X18825000Y-13000571D01*
X18810714Y-12972000D01*
X18782143Y-12929143D01*
X18767857Y-12914857D01*
M02*
