%TF.GenerationSoftware,KiCad,Pcbnew,(5.1.10-1-10_14)*%
%TF.CreationDate,2021-07-05T16:18:31+02:00*%
%TF.ProjectId,cablebot_power,6361626c-6562-46f7-945f-706f7765722e,rev?*%
%TF.SameCoordinates,Original*%
%TF.FileFunction,Copper,L1,Top*%
%TF.FilePolarity,Positive*%
%FSLAX46Y46*%
G04 Gerber Fmt 4.6, Leading zero omitted, Abs format (unit mm)*
G04 Created by KiCad (PCBNEW (5.1.10-1-10_14)) date 2021-07-05 16:18:31*
%MOMM*%
%LPD*%
G01*
G04 APERTURE LIST*
%TA.AperFunction,ComponentPad*%
%ADD10C,2.400000*%
%TD*%
%TA.AperFunction,ComponentPad*%
%ADD11R,2.400000X2.400000*%
%TD*%
%TA.AperFunction,ComponentPad*%
%ADD12O,1.980000X3.960000*%
%TD*%
%TA.AperFunction,ComponentPad*%
%ADD13R,1.980000X3.960000*%
%TD*%
%TA.AperFunction,SMDPad,CuDef*%
%ADD14R,3.302000X4.368800*%
%TD*%
%TA.AperFunction,SMDPad,CuDef*%
%ADD15R,4.240000X3.810000*%
%TD*%
%TA.AperFunction,ComponentPad*%
%ADD16C,1.800000*%
%TD*%
%TA.AperFunction,ComponentPad*%
%ADD17R,1.800000X1.800000*%
%TD*%
%TA.AperFunction,SMDPad,CuDef*%
%ADD18R,1.905000X1.270000*%
%TD*%
%TA.AperFunction,Conductor*%
%ADD19C,0.787400*%
%TD*%
%TA.AperFunction,Conductor*%
%ADD20C,3.000000*%
%TD*%
%TA.AperFunction,Conductor*%
%ADD21C,0.400000*%
%TD*%
G04 APERTURE END LIST*
D10*
%TO.P,J6,2*%
%TO.N,GND*%
X145650000Y-107650000D03*
D11*
%TO.P,J6,1*%
%TO.N,VIN*%
X142150000Y-107650000D03*
%TD*%
D12*
%TO.P,SW1,2*%
%TO.N,Net-(F1-Pad2)*%
X120725000Y-98650000D03*
D13*
%TO.P,SW1,1*%
%TO.N,VBATT*%
X125725000Y-98650000D03*
%TD*%
D14*
%TO.P,F2,2*%
%TO.N,Net-(F1-Pad2)*%
X128609100Y-108925000D03*
%TO.P,F2,1*%
%TO.N,VIN*%
X135390900Y-108925000D03*
%TD*%
D15*
%TO.P,F1,2*%
%TO.N,Net-(F1-Pad2)*%
X128815000Y-108925000D03*
%TO.P,F1,1*%
%TO.N,VIN*%
X135185000Y-108925000D03*
%TD*%
D16*
%TO.P,U1,3*%
%TO.N,VOUT*%
X183930000Y-94175000D03*
%TO.P,U1,2*%
%TO.N,GND*%
X181390000Y-94175000D03*
D17*
%TO.P,U1,1*%
%TO.N,VIN*%
X178850000Y-94175000D03*
%TD*%
D18*
%TO.P,R1,2*%
%TO.N,GND*%
X151850000Y-94249000D03*
%TO.P,R1,1*%
%TO.N,Net-(D1-Pad1)*%
X151850000Y-97551000D03*
%TD*%
%TO.P,D1,2*%
%TO.N,VOUT*%
X154850000Y-94249000D03*
%TO.P,D1,1*%
%TO.N,Net-(D1-Pad1)*%
X154850000Y-97551000D03*
%TD*%
D10*
%TO.P,J5,2*%
%TO.N,GND*%
X142275000Y-97105000D03*
D11*
%TO.P,J5,1*%
%TO.N,VOUT*%
X145775000Y-97105000D03*
%TD*%
D10*
%TO.P,J4,2*%
%TO.N,GND*%
X191570000Y-94900000D03*
D11*
%TO.P,J4,1*%
%TO.N,VOUT*%
X191570000Y-98400000D03*
%TD*%
D12*
%TO.P,J3,2*%
%TO.N,GND*%
X130780000Y-98650000D03*
D13*
%TO.P,J3,1*%
%TO.N,VIN*%
X135780000Y-98650000D03*
%TD*%
D12*
%TO.P,J2,2*%
%TO.N,GND*%
X172025000Y-107025000D03*
D13*
%TO.P,J2,1*%
%TO.N,VIN*%
X167025000Y-107025000D03*
%TD*%
D12*
%TO.P,J1,2*%
%TO.N,GND*%
X162025000Y-107025000D03*
D13*
%TO.P,J1,1*%
%TO.N,VBATT*%
X157025000Y-107025000D03*
%TD*%
D19*
%TO.N,GND*%
X151850000Y-94249000D02*
X143201000Y-94249000D01*
X143201000Y-94249000D02*
X142275000Y-95175000D01*
X142275000Y-95175000D02*
X142275000Y-97105000D01*
D20*
%TO.N,VIN*%
X163950000Y-101900000D02*
X158725000Y-101900000D01*
X167025000Y-104975000D02*
X163950000Y-101900000D01*
X167025000Y-107025000D02*
X167025000Y-104975000D01*
X145300000Y-101900000D02*
X158725000Y-101900000D01*
X142150000Y-105050000D02*
X145300000Y-101900000D01*
X142150000Y-107650000D02*
X142150000Y-105050000D01*
D19*
X178589999Y-97135001D02*
X178589999Y-94175000D01*
X173825000Y-101900000D02*
X178589999Y-97135001D01*
X172150000Y-101900000D02*
X173825000Y-101900000D01*
X167025000Y-107025000D02*
X172150000Y-101900000D01*
D20*
X140875000Y-108925000D02*
X142150000Y-107650000D01*
X135390900Y-108925000D02*
X140875000Y-108925000D01*
X135780000Y-98680000D02*
X142150000Y-105050000D01*
X135780000Y-98650000D02*
X135780000Y-98680000D01*
D21*
%TO.N,VOUT*%
X145775000Y-97105000D02*
X147870000Y-97105000D01*
X147870000Y-97105000D02*
X149150000Y-95825000D01*
X153274000Y-95825000D02*
X154850000Y-94249000D01*
X149150000Y-95825000D02*
X153274000Y-95825000D01*
%TO.N,Net-(D1-Pad1)*%
X154850000Y-97551000D02*
X151850000Y-97551000D01*
D20*
%TO.N,Net-(F1-Pad2)*%
X120725000Y-100475000D02*
X120725000Y-98650000D01*
X128815000Y-108565000D02*
X120725000Y-100475000D01*
X128815000Y-108925000D02*
X128815000Y-108565000D01*
%TD*%
M02*
