%TF.GenerationSoftware,KiCad,Pcbnew,(5.1.10-1-10_14)*%
%TF.CreationDate,2021-07-05T16:18:31+02:00*%
%TF.ProjectId,cablebot_power,6361626c-6562-46f7-945f-706f7765722e,rev?*%
%TF.SameCoordinates,Original*%
%TF.FileFunction,Copper,L2,Bot*%
%TF.FilePolarity,Positive*%
%FSLAX46Y46*%
G04 Gerber Fmt 4.6, Leading zero omitted, Abs format (unit mm)*
G04 Created by KiCad (PCBNEW (5.1.10-1-10_14)) date 2021-07-05 16:18:31*
%MOMM*%
%LPD*%
G01*
G04 APERTURE LIST*
%TA.AperFunction,ComponentPad*%
%ADD10C,2.400000*%
%TD*%
%TA.AperFunction,ComponentPad*%
%ADD11R,2.400000X2.400000*%
%TD*%
%TA.AperFunction,ComponentPad*%
%ADD12O,1.980000X3.960000*%
%TD*%
%TA.AperFunction,ComponentPad*%
%ADD13R,1.980000X3.960000*%
%TD*%
%TA.AperFunction,ComponentPad*%
%ADD14C,1.800000*%
%TD*%
%TA.AperFunction,ComponentPad*%
%ADD15R,1.800000X1.800000*%
%TD*%
%TA.AperFunction,Conductor*%
%ADD16C,3.000000*%
%TD*%
%TA.AperFunction,Conductor*%
%ADD17C,0.787400*%
%TD*%
%TA.AperFunction,Conductor*%
%ADD18C,0.254000*%
%TD*%
%TA.AperFunction,Conductor*%
%ADD19C,0.150000*%
%TD*%
G04 APERTURE END LIST*
D10*
%TO.P,J6,2*%
%TO.N,GND*%
X145650000Y-107650000D03*
D11*
%TO.P,J6,1*%
%TO.N,VIN*%
X142150000Y-107650000D03*
%TD*%
D12*
%TO.P,SW1,2*%
%TO.N,Net-(F1-Pad2)*%
X120725000Y-98650000D03*
D13*
%TO.P,SW1,1*%
%TO.N,VBATT*%
X125725000Y-98650000D03*
%TD*%
D14*
%TO.P,U1,3*%
%TO.N,VOUT*%
X183930000Y-94175000D03*
%TO.P,U1,2*%
%TO.N,GND*%
X181390000Y-94175000D03*
D15*
%TO.P,U1,1*%
%TO.N,VIN*%
X178850000Y-94175000D03*
%TD*%
D10*
%TO.P,J5,2*%
%TO.N,GND*%
X142275000Y-97105000D03*
D11*
%TO.P,J5,1*%
%TO.N,VOUT*%
X145775000Y-97105000D03*
%TD*%
D10*
%TO.P,J4,2*%
%TO.N,GND*%
X191570000Y-94900000D03*
D11*
%TO.P,J4,1*%
%TO.N,VOUT*%
X191570000Y-98400000D03*
%TD*%
D12*
%TO.P,J3,2*%
%TO.N,GND*%
X130780000Y-98650000D03*
D13*
%TO.P,J3,1*%
%TO.N,VIN*%
X135780000Y-98650000D03*
%TD*%
D12*
%TO.P,J2,2*%
%TO.N,GND*%
X172025000Y-107025000D03*
D13*
%TO.P,J2,1*%
%TO.N,VIN*%
X167025000Y-107025000D03*
%TD*%
D12*
%TO.P,J1,2*%
%TO.N,GND*%
X162025000Y-107025000D03*
D13*
%TO.P,J1,1*%
%TO.N,VBATT*%
X157025000Y-107025000D03*
%TD*%
D16*
%TO.N,VBATT*%
X125800000Y-102000000D02*
X127450000Y-103650000D01*
X137975000Y-103650000D02*
X139075000Y-102550000D01*
X127450000Y-103650000D02*
X137975000Y-103650000D01*
X125800000Y-98725000D02*
X125800000Y-102000000D01*
X152550000Y-102550000D02*
X157025000Y-107025000D01*
X139075000Y-102550000D02*
X152550000Y-102550000D01*
X125725000Y-98650000D02*
X125800000Y-98725000D01*
D17*
%TO.N,VOUT*%
X183930000Y-94175000D02*
X183930000Y-95820000D01*
X183930000Y-95820000D02*
X182645000Y-97105000D01*
X182645000Y-97105000D02*
X145775000Y-97105000D01*
X183930000Y-95705000D02*
X186625000Y-98400000D01*
X186625000Y-98400000D02*
X191570000Y-98400000D01*
X183930000Y-94175000D02*
X183930000Y-95705000D01*
%TD*%
D18*
%TO.N,GND*%
X177705820Y-92685498D02*
X177595506Y-92744463D01*
X177498815Y-92823815D01*
X177419463Y-92920506D01*
X177360498Y-93030820D01*
X177324188Y-93150518D01*
X177311928Y-93275000D01*
X177311928Y-95075000D01*
X177324188Y-95199482D01*
X177360498Y-95319180D01*
X177419463Y-95429494D01*
X177498815Y-95526185D01*
X177595506Y-95605537D01*
X177705820Y-95664502D01*
X177825518Y-95700812D01*
X177950000Y-95713072D01*
X179750000Y-95713072D01*
X179874482Y-95700812D01*
X179994180Y-95664502D01*
X180104494Y-95605537D01*
X180201185Y-95526185D01*
X180280537Y-95429494D01*
X180339502Y-95319180D01*
X180342813Y-95308265D01*
X180389578Y-95355030D01*
X180505526Y-95239082D01*
X180589208Y-95493261D01*
X180861775Y-95624158D01*
X181154642Y-95699365D01*
X181456553Y-95715991D01*
X181755907Y-95673397D01*
X182041199Y-95573222D01*
X182190792Y-95493261D01*
X182274475Y-95239080D01*
X181390000Y-94354605D01*
X181375858Y-94368748D01*
X181196253Y-94189143D01*
X181210395Y-94175000D01*
X181196253Y-94160858D01*
X181375858Y-93981253D01*
X181390000Y-93995395D01*
X182274475Y-93110920D01*
X182190792Y-92856739D01*
X181918225Y-92725842D01*
X181759180Y-92685000D01*
X183552585Y-92685000D01*
X183482257Y-92698989D01*
X183202905Y-92814701D01*
X182951495Y-92982688D01*
X182737688Y-93196495D01*
X182635049Y-93350105D01*
X182454080Y-93290525D01*
X181569605Y-94175000D01*
X182454080Y-95059475D01*
X182635049Y-94999895D01*
X182737688Y-95153505D01*
X182901301Y-95317118D01*
X182901301Y-95393898D01*
X182218899Y-96076300D01*
X147613072Y-96076300D01*
X147613072Y-95905000D01*
X147600812Y-95780518D01*
X147564502Y-95660820D01*
X147505537Y-95550506D01*
X147426185Y-95453815D01*
X147329494Y-95374463D01*
X147219180Y-95315498D01*
X147099482Y-95279188D01*
X146975000Y-95266928D01*
X144575000Y-95266928D01*
X144450518Y-95279188D01*
X144330820Y-95315498D01*
X144220506Y-95374463D01*
X144123815Y-95453815D01*
X144044463Y-95550506D01*
X143985498Y-95660820D01*
X143949188Y-95780518D01*
X143936928Y-95905000D01*
X143936928Y-96311903D01*
X143837836Y-96126514D01*
X143552980Y-96006626D01*
X142454605Y-97105000D01*
X143552980Y-98203374D01*
X143837836Y-98083486D01*
X143936928Y-97884088D01*
X143936928Y-98305000D01*
X143949188Y-98429482D01*
X143985498Y-98549180D01*
X144044463Y-98659494D01*
X144123815Y-98756185D01*
X144220506Y-98835537D01*
X144330820Y-98894502D01*
X144450518Y-98930812D01*
X144575000Y-98943072D01*
X146975000Y-98943072D01*
X147099482Y-98930812D01*
X147219180Y-98894502D01*
X147329494Y-98835537D01*
X147426185Y-98756185D01*
X147505537Y-98659494D01*
X147564502Y-98549180D01*
X147600812Y-98429482D01*
X147613072Y-98305000D01*
X147613072Y-98133700D01*
X182594476Y-98133700D01*
X182645000Y-98138676D01*
X182695524Y-98133700D01*
X182695532Y-98133700D01*
X182846660Y-98118815D01*
X183040571Y-98059993D01*
X183219280Y-97964471D01*
X183375920Y-97835920D01*
X183408134Y-97796667D01*
X183987500Y-97217301D01*
X185861866Y-99091667D01*
X185894080Y-99130920D01*
X186050720Y-99259471D01*
X186229429Y-99354993D01*
X186423339Y-99413815D01*
X186625000Y-99433677D01*
X186675532Y-99428700D01*
X189731928Y-99428700D01*
X189731928Y-99600000D01*
X189744188Y-99724482D01*
X189780498Y-99844180D01*
X189839463Y-99954494D01*
X189918815Y-100051185D01*
X190015506Y-100130537D01*
X190125820Y-100189502D01*
X190245518Y-100225812D01*
X190370000Y-100238072D01*
X192770000Y-100238072D01*
X192894482Y-100225812D01*
X193014180Y-100189502D01*
X193124494Y-100130537D01*
X193221185Y-100051185D01*
X193300537Y-99954494D01*
X193359502Y-99844180D01*
X193395812Y-99724482D01*
X193408072Y-99600000D01*
X193408072Y-97200000D01*
X193395812Y-97075518D01*
X193359502Y-96955820D01*
X193300537Y-96845506D01*
X193221185Y-96748815D01*
X193124494Y-96669463D01*
X193014180Y-96610498D01*
X192894482Y-96574188D01*
X192770000Y-96561928D01*
X192363097Y-96561928D01*
X192548486Y-96462836D01*
X192668374Y-96177980D01*
X191570000Y-95079605D01*
X190471626Y-96177980D01*
X190591514Y-96462836D01*
X190790912Y-96561928D01*
X190370000Y-96561928D01*
X190245518Y-96574188D01*
X190125820Y-96610498D01*
X190015506Y-96669463D01*
X189918815Y-96748815D01*
X189839463Y-96845506D01*
X189780498Y-96955820D01*
X189744188Y-97075518D01*
X189731928Y-97200000D01*
X189731928Y-97371300D01*
X187051101Y-97371300D01*
X184977809Y-95298008D01*
X185122312Y-95153505D01*
X185255160Y-94954684D01*
X189726933Y-94954684D01*
X189773015Y-95313198D01*
X189888154Y-95655833D01*
X190007164Y-95878486D01*
X190292020Y-95998374D01*
X191390395Y-94900000D01*
X191749605Y-94900000D01*
X192847980Y-95998374D01*
X193132836Y-95878486D01*
X193293699Y-95554790D01*
X193388322Y-95205931D01*
X193413067Y-94845316D01*
X193366985Y-94486802D01*
X193251846Y-94144167D01*
X193132836Y-93921514D01*
X192847980Y-93801626D01*
X191749605Y-94900000D01*
X191390395Y-94900000D01*
X190292020Y-93801626D01*
X190007164Y-93921514D01*
X189846301Y-94245210D01*
X189751678Y-94594069D01*
X189726933Y-94954684D01*
X185255160Y-94954684D01*
X185290299Y-94902095D01*
X185406011Y-94622743D01*
X185465000Y-94326184D01*
X185465000Y-94023816D01*
X185406011Y-93727257D01*
X185362421Y-93622020D01*
X190471626Y-93622020D01*
X191570000Y-94720395D01*
X192668374Y-93622020D01*
X192548486Y-93337164D01*
X192224790Y-93176301D01*
X191875931Y-93081678D01*
X191515316Y-93056933D01*
X191156802Y-93103015D01*
X190814167Y-93218154D01*
X190591514Y-93337164D01*
X190471626Y-93622020D01*
X185362421Y-93622020D01*
X185290299Y-93447905D01*
X185122312Y-93196495D01*
X184908505Y-92982688D01*
X184657095Y-92814701D01*
X184377743Y-92698989D01*
X184307415Y-92685000D01*
X196416499Y-92685000D01*
X196452274Y-92688508D01*
X196454465Y-92689169D01*
X196456483Y-92690242D01*
X196458255Y-92691687D01*
X196459711Y-92693448D01*
X196460800Y-92695461D01*
X196461476Y-92697644D01*
X196465000Y-92731176D01*
X196465001Y-112916489D01*
X196461492Y-112952274D01*
X196460831Y-112954465D01*
X196459758Y-112956483D01*
X196458312Y-112958256D01*
X196456554Y-112959710D01*
X196454539Y-112960800D01*
X196452356Y-112961476D01*
X196418824Y-112965000D01*
X117883501Y-112965000D01*
X117847726Y-112961492D01*
X117845535Y-112960831D01*
X117843517Y-112959758D01*
X117841744Y-112958312D01*
X117840290Y-112956554D01*
X117839200Y-112954539D01*
X117838524Y-112952356D01*
X117835000Y-112918824D01*
X117835000Y-109400000D01*
X118423000Y-109400000D01*
X118423000Y-110150000D01*
X118423720Y-110163504D01*
X118428781Y-110187881D01*
X118678781Y-110987881D01*
X118694330Y-111020447D01*
X119094330Y-111620447D01*
X119114183Y-111643619D01*
X119714183Y-112193619D01*
X119725306Y-112202712D01*
X119746780Y-112215311D01*
X120396780Y-112515311D01*
X120426595Y-112524825D01*
X121226595Y-112674825D01*
X121261498Y-112676478D01*
X121811498Y-112626478D01*
X121834890Y-112622114D01*
X122534890Y-112422114D01*
X122563010Y-112410267D01*
X123263010Y-112010267D01*
X123278448Y-111999874D01*
X123296426Y-111982651D01*
X123896426Y-111282651D01*
X123915085Y-111253706D01*
X124265085Y-110503706D01*
X124274560Y-110474776D01*
X124277000Y-110450000D01*
X124277000Y-109000000D01*
X124274047Y-108972773D01*
X124266352Y-108949096D01*
X123916352Y-108149096D01*
X123908136Y-108133399D01*
X123893065Y-108113583D01*
X123243065Y-107413583D01*
X123217310Y-107392304D01*
X122417310Y-106892304D01*
X122398724Y-106882718D01*
X122374907Y-106875466D01*
X121374907Y-106675466D01*
X121348128Y-106673014D01*
X121323390Y-106675819D01*
X120623390Y-106825819D01*
X120604410Y-106831465D01*
X119954410Y-107081465D01*
X119925302Y-107097291D01*
X119375302Y-107497291D01*
X119354423Y-107516370D01*
X119004423Y-107916370D01*
X118994330Y-107929553D01*
X118594330Y-108529553D01*
X118582140Y-108552693D01*
X118575175Y-108576595D01*
X118425175Y-109376595D01*
X118423000Y-109400000D01*
X117835000Y-109400000D01*
X117835000Y-106450000D01*
X140311928Y-106450000D01*
X140311928Y-108850000D01*
X140324188Y-108974482D01*
X140360498Y-109094180D01*
X140419463Y-109204494D01*
X140498815Y-109301185D01*
X140595506Y-109380537D01*
X140705820Y-109439502D01*
X140825518Y-109475812D01*
X140950000Y-109488072D01*
X143350000Y-109488072D01*
X143474482Y-109475812D01*
X143594180Y-109439502D01*
X143704494Y-109380537D01*
X143801185Y-109301185D01*
X143880537Y-109204494D01*
X143939502Y-109094180D01*
X143975812Y-108974482D01*
X143980391Y-108927980D01*
X144551626Y-108927980D01*
X144671514Y-109212836D01*
X144995210Y-109373699D01*
X145344069Y-109468322D01*
X145704684Y-109493067D01*
X146063198Y-109446985D01*
X146405833Y-109331846D01*
X146628486Y-109212836D01*
X146748374Y-108927980D01*
X145650000Y-107829605D01*
X144551626Y-108927980D01*
X143980391Y-108927980D01*
X143988072Y-108850000D01*
X143988072Y-108443097D01*
X144087164Y-108628486D01*
X144372020Y-108748374D01*
X145470395Y-107650000D01*
X145829605Y-107650000D01*
X146927980Y-108748374D01*
X147212836Y-108628486D01*
X147373699Y-108304790D01*
X147468322Y-107955931D01*
X147493067Y-107595316D01*
X147446985Y-107236802D01*
X147331846Y-106894167D01*
X147212836Y-106671514D01*
X146927980Y-106551626D01*
X145829605Y-107650000D01*
X145470395Y-107650000D01*
X144372020Y-106551626D01*
X144087164Y-106671514D01*
X143988072Y-106870912D01*
X143988072Y-106450000D01*
X143980392Y-106372020D01*
X144551626Y-106372020D01*
X145650000Y-107470395D01*
X146748374Y-106372020D01*
X146628486Y-106087164D01*
X146304790Y-105926301D01*
X145955931Y-105831678D01*
X145595316Y-105806933D01*
X145236802Y-105853015D01*
X144894167Y-105968154D01*
X144671514Y-106087164D01*
X144551626Y-106372020D01*
X143980392Y-106372020D01*
X143975812Y-106325518D01*
X143939502Y-106205820D01*
X143880537Y-106095506D01*
X143801185Y-105998815D01*
X143704494Y-105919463D01*
X143594180Y-105860498D01*
X143474482Y-105824188D01*
X143350000Y-105811928D01*
X140950000Y-105811928D01*
X140825518Y-105824188D01*
X140705820Y-105860498D01*
X140595506Y-105919463D01*
X140498815Y-105998815D01*
X140419463Y-106095506D01*
X140360498Y-106205820D01*
X140324188Y-106325518D01*
X140311928Y-106450000D01*
X117835000Y-106450000D01*
X117835000Y-99719823D01*
X119100000Y-99719823D01*
X119123513Y-99958555D01*
X119216432Y-100264868D01*
X119367325Y-100547169D01*
X119570392Y-100794608D01*
X119817830Y-100997675D01*
X120100131Y-101148568D01*
X120406444Y-101241487D01*
X120725000Y-101272862D01*
X121043555Y-101241487D01*
X121349868Y-101148568D01*
X121632169Y-100997675D01*
X121879608Y-100794608D01*
X122082675Y-100547170D01*
X122233568Y-100264869D01*
X122326487Y-99958556D01*
X122350000Y-99719824D01*
X122350000Y-98650000D01*
X123579671Y-98650000D01*
X123620893Y-99068533D01*
X123665000Y-99213934D01*
X123665000Y-101895128D01*
X123654671Y-102000000D01*
X123665000Y-102104872D01*
X123665000Y-102104882D01*
X123695892Y-102418533D01*
X123735773Y-102550000D01*
X123817975Y-102820982D01*
X124016224Y-103191881D01*
X124216165Y-103435510D01*
X124216168Y-103435513D01*
X124283024Y-103516977D01*
X124364487Y-103583832D01*
X125866167Y-105085513D01*
X125933023Y-105166977D01*
X126014487Y-105233833D01*
X126014489Y-105233835D01*
X126090001Y-105295806D01*
X126258119Y-105433777D01*
X126629018Y-105632026D01*
X127031467Y-105754108D01*
X127345118Y-105785000D01*
X127345127Y-105785000D01*
X127449999Y-105795329D01*
X127554871Y-105785000D01*
X137870128Y-105785000D01*
X137975000Y-105795329D01*
X138079872Y-105785000D01*
X138079882Y-105785000D01*
X138393533Y-105754108D01*
X138795982Y-105632026D01*
X139166881Y-105433777D01*
X139491977Y-105166977D01*
X139558837Y-105085508D01*
X139959345Y-104685000D01*
X151665655Y-104685000D01*
X155396928Y-108416273D01*
X155396928Y-109005000D01*
X155409188Y-109129482D01*
X155445498Y-109249180D01*
X155504463Y-109359494D01*
X155583815Y-109456185D01*
X155680506Y-109535537D01*
X155790820Y-109594502D01*
X155910518Y-109630812D01*
X156035000Y-109643072D01*
X158015000Y-109643072D01*
X158139482Y-109630812D01*
X158259180Y-109594502D01*
X158369494Y-109535537D01*
X158466185Y-109456185D01*
X158545537Y-109359494D01*
X158604502Y-109249180D01*
X158640812Y-109129482D01*
X158653072Y-109005000D01*
X158653072Y-108406607D01*
X158808776Y-108216881D01*
X159007026Y-107845982D01*
X159129108Y-107443533D01*
X159157820Y-107152000D01*
X160400000Y-107152000D01*
X160400000Y-108142000D01*
X160456000Y-108456582D01*
X160572296Y-108754194D01*
X160744419Y-109023399D01*
X160965754Y-109253852D01*
X161227795Y-109436696D01*
X161520472Y-109564905D01*
X161646135Y-109595218D01*
X161898000Y-109475740D01*
X161898000Y-107152000D01*
X162152000Y-107152000D01*
X162152000Y-109475740D01*
X162403865Y-109595218D01*
X162529528Y-109564905D01*
X162822205Y-109436696D01*
X163084246Y-109253852D01*
X163305581Y-109023399D01*
X163477704Y-108754194D01*
X163594000Y-108456582D01*
X163650000Y-108142000D01*
X163650000Y-107152000D01*
X162152000Y-107152000D01*
X161898000Y-107152000D01*
X160400000Y-107152000D01*
X159157820Y-107152000D01*
X159170329Y-107025000D01*
X159129108Y-106606466D01*
X159007026Y-106204018D01*
X158848802Y-105908000D01*
X160400000Y-105908000D01*
X160400000Y-106898000D01*
X161898000Y-106898000D01*
X161898000Y-104574260D01*
X162152000Y-104574260D01*
X162152000Y-106898000D01*
X163650000Y-106898000D01*
X163650000Y-105908000D01*
X163594000Y-105593418D01*
X163477704Y-105295806D01*
X163317345Y-105045000D01*
X165396928Y-105045000D01*
X165396928Y-109005000D01*
X165409188Y-109129482D01*
X165445498Y-109249180D01*
X165504463Y-109359494D01*
X165583815Y-109456185D01*
X165680506Y-109535537D01*
X165790820Y-109594502D01*
X165910518Y-109630812D01*
X166035000Y-109643072D01*
X168015000Y-109643072D01*
X168139482Y-109630812D01*
X168259180Y-109594502D01*
X168369494Y-109535537D01*
X168466185Y-109456185D01*
X168545537Y-109359494D01*
X168604502Y-109249180D01*
X168640812Y-109129482D01*
X168653072Y-109005000D01*
X168653072Y-107152000D01*
X170400000Y-107152000D01*
X170400000Y-108142000D01*
X170456000Y-108456582D01*
X170572296Y-108754194D01*
X170744419Y-109023399D01*
X170965754Y-109253852D01*
X171227795Y-109436696D01*
X171520472Y-109564905D01*
X171646135Y-109595218D01*
X171898000Y-109475740D01*
X171898000Y-107152000D01*
X172152000Y-107152000D01*
X172152000Y-109475740D01*
X172403865Y-109595218D01*
X172529528Y-109564905D01*
X172822205Y-109436696D01*
X172946452Y-109350000D01*
X190198000Y-109350000D01*
X190198000Y-110100000D01*
X190198720Y-110113504D01*
X190203781Y-110137881D01*
X190453781Y-110937881D01*
X190469330Y-110970447D01*
X190869330Y-111570447D01*
X190889183Y-111593619D01*
X191489183Y-112143619D01*
X191500306Y-112152712D01*
X191521780Y-112165311D01*
X192171780Y-112465311D01*
X192201595Y-112474825D01*
X193001595Y-112624825D01*
X193036498Y-112626478D01*
X193586498Y-112576478D01*
X193609890Y-112572114D01*
X194309890Y-112372114D01*
X194338010Y-112360267D01*
X195038010Y-111960267D01*
X195053448Y-111949874D01*
X195071426Y-111932651D01*
X195671426Y-111232651D01*
X195690085Y-111203706D01*
X196040085Y-110453706D01*
X196049560Y-110424776D01*
X196052000Y-110400000D01*
X196052000Y-108950000D01*
X196049047Y-108922773D01*
X196041352Y-108899096D01*
X195691352Y-108099096D01*
X195683136Y-108083399D01*
X195668065Y-108063583D01*
X195018065Y-107363583D01*
X194992310Y-107342304D01*
X194192310Y-106842304D01*
X194173724Y-106832718D01*
X194149907Y-106825466D01*
X193149907Y-106625466D01*
X193123128Y-106623014D01*
X193098390Y-106625819D01*
X192398390Y-106775819D01*
X192379410Y-106781465D01*
X191729410Y-107031465D01*
X191700302Y-107047291D01*
X191150302Y-107447291D01*
X191129423Y-107466370D01*
X190779423Y-107866370D01*
X190769330Y-107879553D01*
X190369330Y-108479553D01*
X190357140Y-108502693D01*
X190350175Y-108526595D01*
X190200175Y-109326595D01*
X190198000Y-109350000D01*
X172946452Y-109350000D01*
X173084246Y-109253852D01*
X173305581Y-109023399D01*
X173477704Y-108754194D01*
X173594000Y-108456582D01*
X173650000Y-108142000D01*
X173650000Y-107152000D01*
X172152000Y-107152000D01*
X171898000Y-107152000D01*
X170400000Y-107152000D01*
X168653072Y-107152000D01*
X168653072Y-105908000D01*
X170400000Y-105908000D01*
X170400000Y-106898000D01*
X171898000Y-106898000D01*
X171898000Y-104574260D01*
X172152000Y-104574260D01*
X172152000Y-106898000D01*
X173650000Y-106898000D01*
X173650000Y-105908000D01*
X173594000Y-105593418D01*
X173477704Y-105295806D01*
X173305581Y-105026601D01*
X173084246Y-104796148D01*
X172822205Y-104613304D01*
X172529528Y-104485095D01*
X172403865Y-104454782D01*
X172152000Y-104574260D01*
X171898000Y-104574260D01*
X171646135Y-104454782D01*
X171520472Y-104485095D01*
X171227795Y-104613304D01*
X170965754Y-104796148D01*
X170744419Y-105026601D01*
X170572296Y-105295806D01*
X170456000Y-105593418D01*
X170400000Y-105908000D01*
X168653072Y-105908000D01*
X168653072Y-105045000D01*
X168640812Y-104920518D01*
X168604502Y-104800820D01*
X168545537Y-104690506D01*
X168466185Y-104593815D01*
X168369494Y-104514463D01*
X168259180Y-104455498D01*
X168139482Y-104419188D01*
X168015000Y-104406928D01*
X166035000Y-104406928D01*
X165910518Y-104419188D01*
X165790820Y-104455498D01*
X165680506Y-104514463D01*
X165583815Y-104593815D01*
X165504463Y-104690506D01*
X165445498Y-104800820D01*
X165409188Y-104920518D01*
X165396928Y-105045000D01*
X163317345Y-105045000D01*
X163305581Y-105026601D01*
X163084246Y-104796148D01*
X162822205Y-104613304D01*
X162529528Y-104485095D01*
X162403865Y-104454782D01*
X162152000Y-104574260D01*
X161898000Y-104574260D01*
X161646135Y-104454782D01*
X161520472Y-104485095D01*
X161227795Y-104613304D01*
X160965754Y-104796148D01*
X160744419Y-105026601D01*
X160572296Y-105295806D01*
X160456000Y-105593418D01*
X160400000Y-105908000D01*
X158848802Y-105908000D01*
X158808776Y-105833118D01*
X158653072Y-105643393D01*
X158653072Y-105045000D01*
X158640812Y-104920518D01*
X158604502Y-104800820D01*
X158545537Y-104690506D01*
X158466185Y-104593815D01*
X158369494Y-104514463D01*
X158259180Y-104455498D01*
X158139482Y-104419188D01*
X158015000Y-104406928D01*
X157426273Y-104406928D01*
X154133837Y-101114492D01*
X154066977Y-101033023D01*
X153741881Y-100766223D01*
X153370982Y-100567974D01*
X152968533Y-100445892D01*
X152654882Y-100415000D01*
X152654872Y-100415000D01*
X152550000Y-100404671D01*
X152445128Y-100415000D01*
X139179874Y-100415000D01*
X139075000Y-100404671D01*
X138970125Y-100415000D01*
X138970118Y-100415000D01*
X138694001Y-100442195D01*
X138656466Y-100445892D01*
X138254017Y-100567974D01*
X138137975Y-100630000D01*
X137883119Y-100766223D01*
X137558023Y-101033023D01*
X137491163Y-101114492D01*
X137090655Y-101515000D01*
X128334346Y-101515000D01*
X127935000Y-101115655D01*
X127935000Y-98829871D01*
X127940207Y-98777000D01*
X129155000Y-98777000D01*
X129155000Y-99767000D01*
X129211000Y-100081582D01*
X129327296Y-100379194D01*
X129499419Y-100648399D01*
X129720754Y-100878852D01*
X129982795Y-101061696D01*
X130275472Y-101189905D01*
X130401135Y-101220218D01*
X130653000Y-101100740D01*
X130653000Y-98777000D01*
X130907000Y-98777000D01*
X130907000Y-101100740D01*
X131158865Y-101220218D01*
X131284528Y-101189905D01*
X131577205Y-101061696D01*
X131839246Y-100878852D01*
X132060581Y-100648399D01*
X132232704Y-100379194D01*
X132349000Y-100081582D01*
X132405000Y-99767000D01*
X132405000Y-98777000D01*
X130907000Y-98777000D01*
X130653000Y-98777000D01*
X129155000Y-98777000D01*
X127940207Y-98777000D01*
X127945329Y-98724999D01*
X127935000Y-98620127D01*
X127935000Y-98620118D01*
X127904108Y-98306467D01*
X127782026Y-97904018D01*
X127583777Y-97533119D01*
X127583680Y-97533000D01*
X129155000Y-97533000D01*
X129155000Y-98523000D01*
X130653000Y-98523000D01*
X130653000Y-96199260D01*
X130907000Y-96199260D01*
X130907000Y-98523000D01*
X132405000Y-98523000D01*
X132405000Y-97533000D01*
X132349000Y-97218418D01*
X132232704Y-96920806D01*
X132072345Y-96670000D01*
X134151928Y-96670000D01*
X134151928Y-100630000D01*
X134164188Y-100754482D01*
X134200498Y-100874180D01*
X134259463Y-100984494D01*
X134338815Y-101081185D01*
X134435506Y-101160537D01*
X134545820Y-101219502D01*
X134665518Y-101255812D01*
X134790000Y-101268072D01*
X136770000Y-101268072D01*
X136894482Y-101255812D01*
X137014180Y-101219502D01*
X137124494Y-101160537D01*
X137221185Y-101081185D01*
X137300537Y-100984494D01*
X137359502Y-100874180D01*
X137395812Y-100754482D01*
X137408072Y-100630000D01*
X137408072Y-98382980D01*
X141176626Y-98382980D01*
X141296514Y-98667836D01*
X141620210Y-98828699D01*
X141969069Y-98923322D01*
X142329684Y-98948067D01*
X142688198Y-98901985D01*
X143030833Y-98786846D01*
X143253486Y-98667836D01*
X143373374Y-98382980D01*
X142275000Y-97284605D01*
X141176626Y-98382980D01*
X137408072Y-98382980D01*
X137408072Y-97159684D01*
X140431933Y-97159684D01*
X140478015Y-97518198D01*
X140593154Y-97860833D01*
X140712164Y-98083486D01*
X140997020Y-98203374D01*
X142095395Y-97105000D01*
X140997020Y-96006626D01*
X140712164Y-96126514D01*
X140551301Y-96450210D01*
X140456678Y-96799069D01*
X140431933Y-97159684D01*
X137408072Y-97159684D01*
X137408072Y-96670000D01*
X137395812Y-96545518D01*
X137359502Y-96425820D01*
X137300537Y-96315506D01*
X137221185Y-96218815D01*
X137124494Y-96139463D01*
X137014180Y-96080498D01*
X136894482Y-96044188D01*
X136770000Y-96031928D01*
X134790000Y-96031928D01*
X134665518Y-96044188D01*
X134545820Y-96080498D01*
X134435506Y-96139463D01*
X134338815Y-96218815D01*
X134259463Y-96315506D01*
X134200498Y-96425820D01*
X134164188Y-96545518D01*
X134151928Y-96670000D01*
X132072345Y-96670000D01*
X132060581Y-96651601D01*
X131839246Y-96421148D01*
X131577205Y-96238304D01*
X131284528Y-96110095D01*
X131158865Y-96079782D01*
X130907000Y-96199260D01*
X130653000Y-96199260D01*
X130401135Y-96079782D01*
X130275472Y-96110095D01*
X129982795Y-96238304D01*
X129720754Y-96421148D01*
X129499419Y-96651601D01*
X129327296Y-96920806D01*
X129211000Y-97218418D01*
X129155000Y-97533000D01*
X127583680Y-97533000D01*
X127353072Y-97252005D01*
X127353072Y-96670000D01*
X127340812Y-96545518D01*
X127304502Y-96425820D01*
X127245537Y-96315506D01*
X127166185Y-96218815D01*
X127069494Y-96139463D01*
X126959180Y-96080498D01*
X126839482Y-96044188D01*
X126715000Y-96031928D01*
X124735000Y-96031928D01*
X124610518Y-96044188D01*
X124490820Y-96080498D01*
X124380506Y-96139463D01*
X124283815Y-96218815D01*
X124204463Y-96315506D01*
X124145498Y-96425820D01*
X124109188Y-96545518D01*
X124096928Y-96670000D01*
X124096928Y-97268393D01*
X123941224Y-97458119D01*
X123742975Y-97829018D01*
X123620893Y-98231467D01*
X123579671Y-98650000D01*
X122350000Y-98650000D01*
X122350000Y-97580176D01*
X122326487Y-97341444D01*
X122233568Y-97035131D01*
X122082675Y-96752830D01*
X121879608Y-96505392D01*
X121632170Y-96302325D01*
X121349869Y-96151432D01*
X121043556Y-96058513D01*
X120725000Y-96027138D01*
X120406445Y-96058513D01*
X120100132Y-96151432D01*
X119817831Y-96302325D01*
X119570393Y-96505392D01*
X119367326Y-96752830D01*
X119216433Y-97035131D01*
X119123514Y-97341444D01*
X119100001Y-97580176D01*
X119100000Y-99719823D01*
X117835000Y-99719823D01*
X117835000Y-95827020D01*
X141176626Y-95827020D01*
X142275000Y-96925395D01*
X143373374Y-95827020D01*
X143253486Y-95542164D01*
X142929790Y-95381301D01*
X142580931Y-95286678D01*
X142220316Y-95261933D01*
X141861802Y-95308015D01*
X141519167Y-95423154D01*
X141296514Y-95542164D01*
X141176626Y-95827020D01*
X117835000Y-95827020D01*
X117835000Y-92733501D01*
X117838508Y-92697726D01*
X117839169Y-92695535D01*
X117840242Y-92693517D01*
X117841687Y-92691745D01*
X117843448Y-92690289D01*
X117845461Y-92689200D01*
X117847644Y-92688524D01*
X117881176Y-92685000D01*
X177707462Y-92685000D01*
X177705820Y-92685498D01*
%TA.AperFunction,Conductor*%
D19*
G36*
X177705820Y-92685498D02*
G01*
X177595506Y-92744463D01*
X177498815Y-92823815D01*
X177419463Y-92920506D01*
X177360498Y-93030820D01*
X177324188Y-93150518D01*
X177311928Y-93275000D01*
X177311928Y-95075000D01*
X177324188Y-95199482D01*
X177360498Y-95319180D01*
X177419463Y-95429494D01*
X177498815Y-95526185D01*
X177595506Y-95605537D01*
X177705820Y-95664502D01*
X177825518Y-95700812D01*
X177950000Y-95713072D01*
X179750000Y-95713072D01*
X179874482Y-95700812D01*
X179994180Y-95664502D01*
X180104494Y-95605537D01*
X180201185Y-95526185D01*
X180280537Y-95429494D01*
X180339502Y-95319180D01*
X180342813Y-95308265D01*
X180389578Y-95355030D01*
X180505526Y-95239082D01*
X180589208Y-95493261D01*
X180861775Y-95624158D01*
X181154642Y-95699365D01*
X181456553Y-95715991D01*
X181755907Y-95673397D01*
X182041199Y-95573222D01*
X182190792Y-95493261D01*
X182274475Y-95239080D01*
X181390000Y-94354605D01*
X181375858Y-94368748D01*
X181196253Y-94189143D01*
X181210395Y-94175000D01*
X181196253Y-94160858D01*
X181375858Y-93981253D01*
X181390000Y-93995395D01*
X182274475Y-93110920D01*
X182190792Y-92856739D01*
X181918225Y-92725842D01*
X181759180Y-92685000D01*
X183552585Y-92685000D01*
X183482257Y-92698989D01*
X183202905Y-92814701D01*
X182951495Y-92982688D01*
X182737688Y-93196495D01*
X182635049Y-93350105D01*
X182454080Y-93290525D01*
X181569605Y-94175000D01*
X182454080Y-95059475D01*
X182635049Y-94999895D01*
X182737688Y-95153505D01*
X182901301Y-95317118D01*
X182901301Y-95393898D01*
X182218899Y-96076300D01*
X147613072Y-96076300D01*
X147613072Y-95905000D01*
X147600812Y-95780518D01*
X147564502Y-95660820D01*
X147505537Y-95550506D01*
X147426185Y-95453815D01*
X147329494Y-95374463D01*
X147219180Y-95315498D01*
X147099482Y-95279188D01*
X146975000Y-95266928D01*
X144575000Y-95266928D01*
X144450518Y-95279188D01*
X144330820Y-95315498D01*
X144220506Y-95374463D01*
X144123815Y-95453815D01*
X144044463Y-95550506D01*
X143985498Y-95660820D01*
X143949188Y-95780518D01*
X143936928Y-95905000D01*
X143936928Y-96311903D01*
X143837836Y-96126514D01*
X143552980Y-96006626D01*
X142454605Y-97105000D01*
X143552980Y-98203374D01*
X143837836Y-98083486D01*
X143936928Y-97884088D01*
X143936928Y-98305000D01*
X143949188Y-98429482D01*
X143985498Y-98549180D01*
X144044463Y-98659494D01*
X144123815Y-98756185D01*
X144220506Y-98835537D01*
X144330820Y-98894502D01*
X144450518Y-98930812D01*
X144575000Y-98943072D01*
X146975000Y-98943072D01*
X147099482Y-98930812D01*
X147219180Y-98894502D01*
X147329494Y-98835537D01*
X147426185Y-98756185D01*
X147505537Y-98659494D01*
X147564502Y-98549180D01*
X147600812Y-98429482D01*
X147613072Y-98305000D01*
X147613072Y-98133700D01*
X182594476Y-98133700D01*
X182645000Y-98138676D01*
X182695524Y-98133700D01*
X182695532Y-98133700D01*
X182846660Y-98118815D01*
X183040571Y-98059993D01*
X183219280Y-97964471D01*
X183375920Y-97835920D01*
X183408134Y-97796667D01*
X183987500Y-97217301D01*
X185861866Y-99091667D01*
X185894080Y-99130920D01*
X186050720Y-99259471D01*
X186229429Y-99354993D01*
X186423339Y-99413815D01*
X186625000Y-99433677D01*
X186675532Y-99428700D01*
X189731928Y-99428700D01*
X189731928Y-99600000D01*
X189744188Y-99724482D01*
X189780498Y-99844180D01*
X189839463Y-99954494D01*
X189918815Y-100051185D01*
X190015506Y-100130537D01*
X190125820Y-100189502D01*
X190245518Y-100225812D01*
X190370000Y-100238072D01*
X192770000Y-100238072D01*
X192894482Y-100225812D01*
X193014180Y-100189502D01*
X193124494Y-100130537D01*
X193221185Y-100051185D01*
X193300537Y-99954494D01*
X193359502Y-99844180D01*
X193395812Y-99724482D01*
X193408072Y-99600000D01*
X193408072Y-97200000D01*
X193395812Y-97075518D01*
X193359502Y-96955820D01*
X193300537Y-96845506D01*
X193221185Y-96748815D01*
X193124494Y-96669463D01*
X193014180Y-96610498D01*
X192894482Y-96574188D01*
X192770000Y-96561928D01*
X192363097Y-96561928D01*
X192548486Y-96462836D01*
X192668374Y-96177980D01*
X191570000Y-95079605D01*
X190471626Y-96177980D01*
X190591514Y-96462836D01*
X190790912Y-96561928D01*
X190370000Y-96561928D01*
X190245518Y-96574188D01*
X190125820Y-96610498D01*
X190015506Y-96669463D01*
X189918815Y-96748815D01*
X189839463Y-96845506D01*
X189780498Y-96955820D01*
X189744188Y-97075518D01*
X189731928Y-97200000D01*
X189731928Y-97371300D01*
X187051101Y-97371300D01*
X184977809Y-95298008D01*
X185122312Y-95153505D01*
X185255160Y-94954684D01*
X189726933Y-94954684D01*
X189773015Y-95313198D01*
X189888154Y-95655833D01*
X190007164Y-95878486D01*
X190292020Y-95998374D01*
X191390395Y-94900000D01*
X191749605Y-94900000D01*
X192847980Y-95998374D01*
X193132836Y-95878486D01*
X193293699Y-95554790D01*
X193388322Y-95205931D01*
X193413067Y-94845316D01*
X193366985Y-94486802D01*
X193251846Y-94144167D01*
X193132836Y-93921514D01*
X192847980Y-93801626D01*
X191749605Y-94900000D01*
X191390395Y-94900000D01*
X190292020Y-93801626D01*
X190007164Y-93921514D01*
X189846301Y-94245210D01*
X189751678Y-94594069D01*
X189726933Y-94954684D01*
X185255160Y-94954684D01*
X185290299Y-94902095D01*
X185406011Y-94622743D01*
X185465000Y-94326184D01*
X185465000Y-94023816D01*
X185406011Y-93727257D01*
X185362421Y-93622020D01*
X190471626Y-93622020D01*
X191570000Y-94720395D01*
X192668374Y-93622020D01*
X192548486Y-93337164D01*
X192224790Y-93176301D01*
X191875931Y-93081678D01*
X191515316Y-93056933D01*
X191156802Y-93103015D01*
X190814167Y-93218154D01*
X190591514Y-93337164D01*
X190471626Y-93622020D01*
X185362421Y-93622020D01*
X185290299Y-93447905D01*
X185122312Y-93196495D01*
X184908505Y-92982688D01*
X184657095Y-92814701D01*
X184377743Y-92698989D01*
X184307415Y-92685000D01*
X196416499Y-92685000D01*
X196452274Y-92688508D01*
X196454465Y-92689169D01*
X196456483Y-92690242D01*
X196458255Y-92691687D01*
X196459711Y-92693448D01*
X196460800Y-92695461D01*
X196461476Y-92697644D01*
X196465000Y-92731176D01*
X196465001Y-112916489D01*
X196461492Y-112952274D01*
X196460831Y-112954465D01*
X196459758Y-112956483D01*
X196458312Y-112958256D01*
X196456554Y-112959710D01*
X196454539Y-112960800D01*
X196452356Y-112961476D01*
X196418824Y-112965000D01*
X117883501Y-112965000D01*
X117847726Y-112961492D01*
X117845535Y-112960831D01*
X117843517Y-112959758D01*
X117841744Y-112958312D01*
X117840290Y-112956554D01*
X117839200Y-112954539D01*
X117838524Y-112952356D01*
X117835000Y-112918824D01*
X117835000Y-109400000D01*
X118423000Y-109400000D01*
X118423000Y-110150000D01*
X118423720Y-110163504D01*
X118428781Y-110187881D01*
X118678781Y-110987881D01*
X118694330Y-111020447D01*
X119094330Y-111620447D01*
X119114183Y-111643619D01*
X119714183Y-112193619D01*
X119725306Y-112202712D01*
X119746780Y-112215311D01*
X120396780Y-112515311D01*
X120426595Y-112524825D01*
X121226595Y-112674825D01*
X121261498Y-112676478D01*
X121811498Y-112626478D01*
X121834890Y-112622114D01*
X122534890Y-112422114D01*
X122563010Y-112410267D01*
X123263010Y-112010267D01*
X123278448Y-111999874D01*
X123296426Y-111982651D01*
X123896426Y-111282651D01*
X123915085Y-111253706D01*
X124265085Y-110503706D01*
X124274560Y-110474776D01*
X124277000Y-110450000D01*
X124277000Y-109000000D01*
X124274047Y-108972773D01*
X124266352Y-108949096D01*
X123916352Y-108149096D01*
X123908136Y-108133399D01*
X123893065Y-108113583D01*
X123243065Y-107413583D01*
X123217310Y-107392304D01*
X122417310Y-106892304D01*
X122398724Y-106882718D01*
X122374907Y-106875466D01*
X121374907Y-106675466D01*
X121348128Y-106673014D01*
X121323390Y-106675819D01*
X120623390Y-106825819D01*
X120604410Y-106831465D01*
X119954410Y-107081465D01*
X119925302Y-107097291D01*
X119375302Y-107497291D01*
X119354423Y-107516370D01*
X119004423Y-107916370D01*
X118994330Y-107929553D01*
X118594330Y-108529553D01*
X118582140Y-108552693D01*
X118575175Y-108576595D01*
X118425175Y-109376595D01*
X118423000Y-109400000D01*
X117835000Y-109400000D01*
X117835000Y-106450000D01*
X140311928Y-106450000D01*
X140311928Y-108850000D01*
X140324188Y-108974482D01*
X140360498Y-109094180D01*
X140419463Y-109204494D01*
X140498815Y-109301185D01*
X140595506Y-109380537D01*
X140705820Y-109439502D01*
X140825518Y-109475812D01*
X140950000Y-109488072D01*
X143350000Y-109488072D01*
X143474482Y-109475812D01*
X143594180Y-109439502D01*
X143704494Y-109380537D01*
X143801185Y-109301185D01*
X143880537Y-109204494D01*
X143939502Y-109094180D01*
X143975812Y-108974482D01*
X143980391Y-108927980D01*
X144551626Y-108927980D01*
X144671514Y-109212836D01*
X144995210Y-109373699D01*
X145344069Y-109468322D01*
X145704684Y-109493067D01*
X146063198Y-109446985D01*
X146405833Y-109331846D01*
X146628486Y-109212836D01*
X146748374Y-108927980D01*
X145650000Y-107829605D01*
X144551626Y-108927980D01*
X143980391Y-108927980D01*
X143988072Y-108850000D01*
X143988072Y-108443097D01*
X144087164Y-108628486D01*
X144372020Y-108748374D01*
X145470395Y-107650000D01*
X145829605Y-107650000D01*
X146927980Y-108748374D01*
X147212836Y-108628486D01*
X147373699Y-108304790D01*
X147468322Y-107955931D01*
X147493067Y-107595316D01*
X147446985Y-107236802D01*
X147331846Y-106894167D01*
X147212836Y-106671514D01*
X146927980Y-106551626D01*
X145829605Y-107650000D01*
X145470395Y-107650000D01*
X144372020Y-106551626D01*
X144087164Y-106671514D01*
X143988072Y-106870912D01*
X143988072Y-106450000D01*
X143980392Y-106372020D01*
X144551626Y-106372020D01*
X145650000Y-107470395D01*
X146748374Y-106372020D01*
X146628486Y-106087164D01*
X146304790Y-105926301D01*
X145955931Y-105831678D01*
X145595316Y-105806933D01*
X145236802Y-105853015D01*
X144894167Y-105968154D01*
X144671514Y-106087164D01*
X144551626Y-106372020D01*
X143980392Y-106372020D01*
X143975812Y-106325518D01*
X143939502Y-106205820D01*
X143880537Y-106095506D01*
X143801185Y-105998815D01*
X143704494Y-105919463D01*
X143594180Y-105860498D01*
X143474482Y-105824188D01*
X143350000Y-105811928D01*
X140950000Y-105811928D01*
X140825518Y-105824188D01*
X140705820Y-105860498D01*
X140595506Y-105919463D01*
X140498815Y-105998815D01*
X140419463Y-106095506D01*
X140360498Y-106205820D01*
X140324188Y-106325518D01*
X140311928Y-106450000D01*
X117835000Y-106450000D01*
X117835000Y-99719823D01*
X119100000Y-99719823D01*
X119123513Y-99958555D01*
X119216432Y-100264868D01*
X119367325Y-100547169D01*
X119570392Y-100794608D01*
X119817830Y-100997675D01*
X120100131Y-101148568D01*
X120406444Y-101241487D01*
X120725000Y-101272862D01*
X121043555Y-101241487D01*
X121349868Y-101148568D01*
X121632169Y-100997675D01*
X121879608Y-100794608D01*
X122082675Y-100547170D01*
X122233568Y-100264869D01*
X122326487Y-99958556D01*
X122350000Y-99719824D01*
X122350000Y-98650000D01*
X123579671Y-98650000D01*
X123620893Y-99068533D01*
X123665000Y-99213934D01*
X123665000Y-101895128D01*
X123654671Y-102000000D01*
X123665000Y-102104872D01*
X123665000Y-102104882D01*
X123695892Y-102418533D01*
X123735773Y-102550000D01*
X123817975Y-102820982D01*
X124016224Y-103191881D01*
X124216165Y-103435510D01*
X124216168Y-103435513D01*
X124283024Y-103516977D01*
X124364487Y-103583832D01*
X125866167Y-105085513D01*
X125933023Y-105166977D01*
X126014487Y-105233833D01*
X126014489Y-105233835D01*
X126090001Y-105295806D01*
X126258119Y-105433777D01*
X126629018Y-105632026D01*
X127031467Y-105754108D01*
X127345118Y-105785000D01*
X127345127Y-105785000D01*
X127449999Y-105795329D01*
X127554871Y-105785000D01*
X137870128Y-105785000D01*
X137975000Y-105795329D01*
X138079872Y-105785000D01*
X138079882Y-105785000D01*
X138393533Y-105754108D01*
X138795982Y-105632026D01*
X139166881Y-105433777D01*
X139491977Y-105166977D01*
X139558837Y-105085508D01*
X139959345Y-104685000D01*
X151665655Y-104685000D01*
X155396928Y-108416273D01*
X155396928Y-109005000D01*
X155409188Y-109129482D01*
X155445498Y-109249180D01*
X155504463Y-109359494D01*
X155583815Y-109456185D01*
X155680506Y-109535537D01*
X155790820Y-109594502D01*
X155910518Y-109630812D01*
X156035000Y-109643072D01*
X158015000Y-109643072D01*
X158139482Y-109630812D01*
X158259180Y-109594502D01*
X158369494Y-109535537D01*
X158466185Y-109456185D01*
X158545537Y-109359494D01*
X158604502Y-109249180D01*
X158640812Y-109129482D01*
X158653072Y-109005000D01*
X158653072Y-108406607D01*
X158808776Y-108216881D01*
X159007026Y-107845982D01*
X159129108Y-107443533D01*
X159157820Y-107152000D01*
X160400000Y-107152000D01*
X160400000Y-108142000D01*
X160456000Y-108456582D01*
X160572296Y-108754194D01*
X160744419Y-109023399D01*
X160965754Y-109253852D01*
X161227795Y-109436696D01*
X161520472Y-109564905D01*
X161646135Y-109595218D01*
X161898000Y-109475740D01*
X161898000Y-107152000D01*
X162152000Y-107152000D01*
X162152000Y-109475740D01*
X162403865Y-109595218D01*
X162529528Y-109564905D01*
X162822205Y-109436696D01*
X163084246Y-109253852D01*
X163305581Y-109023399D01*
X163477704Y-108754194D01*
X163594000Y-108456582D01*
X163650000Y-108142000D01*
X163650000Y-107152000D01*
X162152000Y-107152000D01*
X161898000Y-107152000D01*
X160400000Y-107152000D01*
X159157820Y-107152000D01*
X159170329Y-107025000D01*
X159129108Y-106606466D01*
X159007026Y-106204018D01*
X158848802Y-105908000D01*
X160400000Y-105908000D01*
X160400000Y-106898000D01*
X161898000Y-106898000D01*
X161898000Y-104574260D01*
X162152000Y-104574260D01*
X162152000Y-106898000D01*
X163650000Y-106898000D01*
X163650000Y-105908000D01*
X163594000Y-105593418D01*
X163477704Y-105295806D01*
X163317345Y-105045000D01*
X165396928Y-105045000D01*
X165396928Y-109005000D01*
X165409188Y-109129482D01*
X165445498Y-109249180D01*
X165504463Y-109359494D01*
X165583815Y-109456185D01*
X165680506Y-109535537D01*
X165790820Y-109594502D01*
X165910518Y-109630812D01*
X166035000Y-109643072D01*
X168015000Y-109643072D01*
X168139482Y-109630812D01*
X168259180Y-109594502D01*
X168369494Y-109535537D01*
X168466185Y-109456185D01*
X168545537Y-109359494D01*
X168604502Y-109249180D01*
X168640812Y-109129482D01*
X168653072Y-109005000D01*
X168653072Y-107152000D01*
X170400000Y-107152000D01*
X170400000Y-108142000D01*
X170456000Y-108456582D01*
X170572296Y-108754194D01*
X170744419Y-109023399D01*
X170965754Y-109253852D01*
X171227795Y-109436696D01*
X171520472Y-109564905D01*
X171646135Y-109595218D01*
X171898000Y-109475740D01*
X171898000Y-107152000D01*
X172152000Y-107152000D01*
X172152000Y-109475740D01*
X172403865Y-109595218D01*
X172529528Y-109564905D01*
X172822205Y-109436696D01*
X172946452Y-109350000D01*
X190198000Y-109350000D01*
X190198000Y-110100000D01*
X190198720Y-110113504D01*
X190203781Y-110137881D01*
X190453781Y-110937881D01*
X190469330Y-110970447D01*
X190869330Y-111570447D01*
X190889183Y-111593619D01*
X191489183Y-112143619D01*
X191500306Y-112152712D01*
X191521780Y-112165311D01*
X192171780Y-112465311D01*
X192201595Y-112474825D01*
X193001595Y-112624825D01*
X193036498Y-112626478D01*
X193586498Y-112576478D01*
X193609890Y-112572114D01*
X194309890Y-112372114D01*
X194338010Y-112360267D01*
X195038010Y-111960267D01*
X195053448Y-111949874D01*
X195071426Y-111932651D01*
X195671426Y-111232651D01*
X195690085Y-111203706D01*
X196040085Y-110453706D01*
X196049560Y-110424776D01*
X196052000Y-110400000D01*
X196052000Y-108950000D01*
X196049047Y-108922773D01*
X196041352Y-108899096D01*
X195691352Y-108099096D01*
X195683136Y-108083399D01*
X195668065Y-108063583D01*
X195018065Y-107363583D01*
X194992310Y-107342304D01*
X194192310Y-106842304D01*
X194173724Y-106832718D01*
X194149907Y-106825466D01*
X193149907Y-106625466D01*
X193123128Y-106623014D01*
X193098390Y-106625819D01*
X192398390Y-106775819D01*
X192379410Y-106781465D01*
X191729410Y-107031465D01*
X191700302Y-107047291D01*
X191150302Y-107447291D01*
X191129423Y-107466370D01*
X190779423Y-107866370D01*
X190769330Y-107879553D01*
X190369330Y-108479553D01*
X190357140Y-108502693D01*
X190350175Y-108526595D01*
X190200175Y-109326595D01*
X190198000Y-109350000D01*
X172946452Y-109350000D01*
X173084246Y-109253852D01*
X173305581Y-109023399D01*
X173477704Y-108754194D01*
X173594000Y-108456582D01*
X173650000Y-108142000D01*
X173650000Y-107152000D01*
X172152000Y-107152000D01*
X171898000Y-107152000D01*
X170400000Y-107152000D01*
X168653072Y-107152000D01*
X168653072Y-105908000D01*
X170400000Y-105908000D01*
X170400000Y-106898000D01*
X171898000Y-106898000D01*
X171898000Y-104574260D01*
X172152000Y-104574260D01*
X172152000Y-106898000D01*
X173650000Y-106898000D01*
X173650000Y-105908000D01*
X173594000Y-105593418D01*
X173477704Y-105295806D01*
X173305581Y-105026601D01*
X173084246Y-104796148D01*
X172822205Y-104613304D01*
X172529528Y-104485095D01*
X172403865Y-104454782D01*
X172152000Y-104574260D01*
X171898000Y-104574260D01*
X171646135Y-104454782D01*
X171520472Y-104485095D01*
X171227795Y-104613304D01*
X170965754Y-104796148D01*
X170744419Y-105026601D01*
X170572296Y-105295806D01*
X170456000Y-105593418D01*
X170400000Y-105908000D01*
X168653072Y-105908000D01*
X168653072Y-105045000D01*
X168640812Y-104920518D01*
X168604502Y-104800820D01*
X168545537Y-104690506D01*
X168466185Y-104593815D01*
X168369494Y-104514463D01*
X168259180Y-104455498D01*
X168139482Y-104419188D01*
X168015000Y-104406928D01*
X166035000Y-104406928D01*
X165910518Y-104419188D01*
X165790820Y-104455498D01*
X165680506Y-104514463D01*
X165583815Y-104593815D01*
X165504463Y-104690506D01*
X165445498Y-104800820D01*
X165409188Y-104920518D01*
X165396928Y-105045000D01*
X163317345Y-105045000D01*
X163305581Y-105026601D01*
X163084246Y-104796148D01*
X162822205Y-104613304D01*
X162529528Y-104485095D01*
X162403865Y-104454782D01*
X162152000Y-104574260D01*
X161898000Y-104574260D01*
X161646135Y-104454782D01*
X161520472Y-104485095D01*
X161227795Y-104613304D01*
X160965754Y-104796148D01*
X160744419Y-105026601D01*
X160572296Y-105295806D01*
X160456000Y-105593418D01*
X160400000Y-105908000D01*
X158848802Y-105908000D01*
X158808776Y-105833118D01*
X158653072Y-105643393D01*
X158653072Y-105045000D01*
X158640812Y-104920518D01*
X158604502Y-104800820D01*
X158545537Y-104690506D01*
X158466185Y-104593815D01*
X158369494Y-104514463D01*
X158259180Y-104455498D01*
X158139482Y-104419188D01*
X158015000Y-104406928D01*
X157426273Y-104406928D01*
X154133837Y-101114492D01*
X154066977Y-101033023D01*
X153741881Y-100766223D01*
X153370982Y-100567974D01*
X152968533Y-100445892D01*
X152654882Y-100415000D01*
X152654872Y-100415000D01*
X152550000Y-100404671D01*
X152445128Y-100415000D01*
X139179874Y-100415000D01*
X139075000Y-100404671D01*
X138970125Y-100415000D01*
X138970118Y-100415000D01*
X138694001Y-100442195D01*
X138656466Y-100445892D01*
X138254017Y-100567974D01*
X138137975Y-100630000D01*
X137883119Y-100766223D01*
X137558023Y-101033023D01*
X137491163Y-101114492D01*
X137090655Y-101515000D01*
X128334346Y-101515000D01*
X127935000Y-101115655D01*
X127935000Y-98829871D01*
X127940207Y-98777000D01*
X129155000Y-98777000D01*
X129155000Y-99767000D01*
X129211000Y-100081582D01*
X129327296Y-100379194D01*
X129499419Y-100648399D01*
X129720754Y-100878852D01*
X129982795Y-101061696D01*
X130275472Y-101189905D01*
X130401135Y-101220218D01*
X130653000Y-101100740D01*
X130653000Y-98777000D01*
X130907000Y-98777000D01*
X130907000Y-101100740D01*
X131158865Y-101220218D01*
X131284528Y-101189905D01*
X131577205Y-101061696D01*
X131839246Y-100878852D01*
X132060581Y-100648399D01*
X132232704Y-100379194D01*
X132349000Y-100081582D01*
X132405000Y-99767000D01*
X132405000Y-98777000D01*
X130907000Y-98777000D01*
X130653000Y-98777000D01*
X129155000Y-98777000D01*
X127940207Y-98777000D01*
X127945329Y-98724999D01*
X127935000Y-98620127D01*
X127935000Y-98620118D01*
X127904108Y-98306467D01*
X127782026Y-97904018D01*
X127583777Y-97533119D01*
X127583680Y-97533000D01*
X129155000Y-97533000D01*
X129155000Y-98523000D01*
X130653000Y-98523000D01*
X130653000Y-96199260D01*
X130907000Y-96199260D01*
X130907000Y-98523000D01*
X132405000Y-98523000D01*
X132405000Y-97533000D01*
X132349000Y-97218418D01*
X132232704Y-96920806D01*
X132072345Y-96670000D01*
X134151928Y-96670000D01*
X134151928Y-100630000D01*
X134164188Y-100754482D01*
X134200498Y-100874180D01*
X134259463Y-100984494D01*
X134338815Y-101081185D01*
X134435506Y-101160537D01*
X134545820Y-101219502D01*
X134665518Y-101255812D01*
X134790000Y-101268072D01*
X136770000Y-101268072D01*
X136894482Y-101255812D01*
X137014180Y-101219502D01*
X137124494Y-101160537D01*
X137221185Y-101081185D01*
X137300537Y-100984494D01*
X137359502Y-100874180D01*
X137395812Y-100754482D01*
X137408072Y-100630000D01*
X137408072Y-98382980D01*
X141176626Y-98382980D01*
X141296514Y-98667836D01*
X141620210Y-98828699D01*
X141969069Y-98923322D01*
X142329684Y-98948067D01*
X142688198Y-98901985D01*
X143030833Y-98786846D01*
X143253486Y-98667836D01*
X143373374Y-98382980D01*
X142275000Y-97284605D01*
X141176626Y-98382980D01*
X137408072Y-98382980D01*
X137408072Y-97159684D01*
X140431933Y-97159684D01*
X140478015Y-97518198D01*
X140593154Y-97860833D01*
X140712164Y-98083486D01*
X140997020Y-98203374D01*
X142095395Y-97105000D01*
X140997020Y-96006626D01*
X140712164Y-96126514D01*
X140551301Y-96450210D01*
X140456678Y-96799069D01*
X140431933Y-97159684D01*
X137408072Y-97159684D01*
X137408072Y-96670000D01*
X137395812Y-96545518D01*
X137359502Y-96425820D01*
X137300537Y-96315506D01*
X137221185Y-96218815D01*
X137124494Y-96139463D01*
X137014180Y-96080498D01*
X136894482Y-96044188D01*
X136770000Y-96031928D01*
X134790000Y-96031928D01*
X134665518Y-96044188D01*
X134545820Y-96080498D01*
X134435506Y-96139463D01*
X134338815Y-96218815D01*
X134259463Y-96315506D01*
X134200498Y-96425820D01*
X134164188Y-96545518D01*
X134151928Y-96670000D01*
X132072345Y-96670000D01*
X132060581Y-96651601D01*
X131839246Y-96421148D01*
X131577205Y-96238304D01*
X131284528Y-96110095D01*
X131158865Y-96079782D01*
X130907000Y-96199260D01*
X130653000Y-96199260D01*
X130401135Y-96079782D01*
X130275472Y-96110095D01*
X129982795Y-96238304D01*
X129720754Y-96421148D01*
X129499419Y-96651601D01*
X129327296Y-96920806D01*
X129211000Y-97218418D01*
X129155000Y-97533000D01*
X127583680Y-97533000D01*
X127353072Y-97252005D01*
X127353072Y-96670000D01*
X127340812Y-96545518D01*
X127304502Y-96425820D01*
X127245537Y-96315506D01*
X127166185Y-96218815D01*
X127069494Y-96139463D01*
X126959180Y-96080498D01*
X126839482Y-96044188D01*
X126715000Y-96031928D01*
X124735000Y-96031928D01*
X124610518Y-96044188D01*
X124490820Y-96080498D01*
X124380506Y-96139463D01*
X124283815Y-96218815D01*
X124204463Y-96315506D01*
X124145498Y-96425820D01*
X124109188Y-96545518D01*
X124096928Y-96670000D01*
X124096928Y-97268393D01*
X123941224Y-97458119D01*
X123742975Y-97829018D01*
X123620893Y-98231467D01*
X123579671Y-98650000D01*
X122350000Y-98650000D01*
X122350000Y-97580176D01*
X122326487Y-97341444D01*
X122233568Y-97035131D01*
X122082675Y-96752830D01*
X121879608Y-96505392D01*
X121632170Y-96302325D01*
X121349869Y-96151432D01*
X121043556Y-96058513D01*
X120725000Y-96027138D01*
X120406445Y-96058513D01*
X120100132Y-96151432D01*
X119817831Y-96302325D01*
X119570393Y-96505392D01*
X119367326Y-96752830D01*
X119216433Y-97035131D01*
X119123514Y-97341444D01*
X119100001Y-97580176D01*
X119100000Y-99719823D01*
X117835000Y-99719823D01*
X117835000Y-95827020D01*
X141176626Y-95827020D01*
X142275000Y-96925395D01*
X143373374Y-95827020D01*
X143253486Y-95542164D01*
X142929790Y-95381301D01*
X142580931Y-95286678D01*
X142220316Y-95261933D01*
X141861802Y-95308015D01*
X141519167Y-95423154D01*
X141296514Y-95542164D01*
X141176626Y-95827020D01*
X117835000Y-95827020D01*
X117835000Y-92733501D01*
X117838508Y-92697726D01*
X117839169Y-92695535D01*
X117840242Y-92693517D01*
X117841687Y-92691745D01*
X117843448Y-92690289D01*
X117845461Y-92689200D01*
X117847644Y-92688524D01*
X117881176Y-92685000D01*
X177707462Y-92685000D01*
X177705820Y-92685498D01*
G37*
%TD.AperFunction*%
%TD*%
M02*
