%TF.GenerationSoftware,KiCad,Pcbnew,(5.1.10-1-10_14)*%
%TF.CreationDate,2021-07-05T16:18:31+02:00*%
%TF.ProjectId,cablebot_power,6361626c-6562-46f7-945f-706f7765722e,rev?*%
%TF.SameCoordinates,Original*%
%TF.FileFunction,Legend,Bot*%
%TF.FilePolarity,Positive*%
%FSLAX46Y46*%
G04 Gerber Fmt 4.6, Leading zero omitted, Abs format (unit mm)*
G04 Created by KiCad (PCBNEW (5.1.10-1-10_14)) date 2021-07-05 16:18:31*
%MOMM*%
%LPD*%
G01*
G04 APERTURE LIST*
%ADD10C,0.127000*%
%ADD11C,0.100000*%
G04 APERTURE END LIST*
D10*
X146452333Y-104180500D02*
X146537000Y-104138166D01*
X146664000Y-104138166D01*
X146791000Y-104180500D01*
X146875666Y-104265166D01*
X146918000Y-104349833D01*
X146960333Y-104519166D01*
X146960333Y-104646166D01*
X146918000Y-104815500D01*
X146875666Y-104900166D01*
X146791000Y-104984833D01*
X146664000Y-105027166D01*
X146579333Y-105027166D01*
X146452333Y-104984833D01*
X146410000Y-104942500D01*
X146410000Y-104646166D01*
X146579333Y-104646166D01*
X146029000Y-105027166D02*
X146029000Y-104138166D01*
X145521000Y-105027166D01*
X145521000Y-104138166D01*
X145097666Y-105027166D02*
X145097666Y-104138166D01*
X144886000Y-104138166D01*
X144759000Y-104180500D01*
X144674333Y-104265166D01*
X144632000Y-104349833D01*
X144589666Y-104519166D01*
X144589666Y-104646166D01*
X144632000Y-104815500D01*
X144674333Y-104900166D01*
X144759000Y-104984833D01*
X144886000Y-105027166D01*
X145097666Y-105027166D01*
X143691333Y-104088166D02*
X143395000Y-104977166D01*
X143098666Y-104088166D01*
X142633000Y-104088166D02*
X142463666Y-104088166D01*
X142379000Y-104130500D01*
X142294333Y-104215166D01*
X142252000Y-104384500D01*
X142252000Y-104680833D01*
X142294333Y-104850166D01*
X142379000Y-104934833D01*
X142463666Y-104977166D01*
X142633000Y-104977166D01*
X142717666Y-104934833D01*
X142802333Y-104850166D01*
X142844666Y-104680833D01*
X142844666Y-104384500D01*
X142802333Y-104215166D01*
X142717666Y-104130500D01*
X142633000Y-104088166D01*
X141871000Y-104088166D02*
X141871000Y-104807833D01*
X141828666Y-104892500D01*
X141786333Y-104934833D01*
X141701666Y-104977166D01*
X141532333Y-104977166D01*
X141447666Y-104934833D01*
X141405333Y-104892500D01*
X141363000Y-104807833D01*
X141363000Y-104088166D01*
X141066666Y-104088166D02*
X140558666Y-104088166D01*
X140812666Y-104977166D02*
X140812666Y-104088166D01*
X145716500Y-111462250D02*
X145758833Y-111504583D01*
X145885833Y-111546916D01*
X145970500Y-111546916D01*
X146097500Y-111504583D01*
X146182166Y-111419916D01*
X146224500Y-111335250D01*
X146266833Y-111165916D01*
X146266833Y-111038916D01*
X146224500Y-110869583D01*
X146182166Y-110784916D01*
X146097500Y-110700250D01*
X145970500Y-110657916D01*
X145885833Y-110657916D01*
X145758833Y-110700250D01*
X145716500Y-110742583D01*
X145377833Y-111292916D02*
X144954500Y-111292916D01*
X145462500Y-111546916D02*
X145166166Y-110657916D01*
X144869833Y-111546916D01*
X144573500Y-111546916D02*
X144573500Y-110657916D01*
X144277166Y-111292916D01*
X143980833Y-110657916D01*
X143980833Y-111546916D01*
X143557500Y-111081250D02*
X143261166Y-111081250D01*
X143134166Y-111546916D02*
X143557500Y-111546916D01*
X143557500Y-110657916D01*
X143134166Y-110657916D01*
X142245166Y-111546916D02*
X142541500Y-111123583D01*
X142753166Y-111546916D02*
X142753166Y-110657916D01*
X142414500Y-110657916D01*
X142329833Y-110700250D01*
X142287500Y-110742583D01*
X142245166Y-110827250D01*
X142245166Y-110954250D01*
X142287500Y-111038916D01*
X142329833Y-111081250D01*
X142414500Y-111123583D01*
X142753166Y-111123583D01*
X141906500Y-111292916D02*
X141483166Y-111292916D01*
X141991166Y-111546916D02*
X141694833Y-110657916D01*
X141398500Y-111546916D01*
X146309166Y-113007416D02*
X146309166Y-112118416D01*
X146012833Y-112753416D01*
X145716500Y-112118416D01*
X145716500Y-113007416D01*
X145123833Y-112118416D02*
X144954500Y-112118416D01*
X144869833Y-112160750D01*
X144785166Y-112245416D01*
X144742833Y-112414750D01*
X144742833Y-112711083D01*
X144785166Y-112880416D01*
X144869833Y-112965083D01*
X144954500Y-113007416D01*
X145123833Y-113007416D01*
X145208500Y-112965083D01*
X145293166Y-112880416D01*
X145335500Y-112711083D01*
X145335500Y-112414750D01*
X145293166Y-112245416D01*
X145208500Y-112160750D01*
X145123833Y-112118416D01*
X144361833Y-113007416D02*
X144361833Y-112118416D01*
X144150166Y-112118416D01*
X144023166Y-112160750D01*
X143938500Y-112245416D01*
X143896166Y-112330083D01*
X143853833Y-112499416D01*
X143853833Y-112626416D01*
X143896166Y-112795750D01*
X143938500Y-112880416D01*
X144023166Y-112965083D01*
X144150166Y-113007416D01*
X144361833Y-113007416D01*
X143472833Y-112118416D02*
X143472833Y-112838083D01*
X143430500Y-112922750D01*
X143388166Y-112965083D01*
X143303500Y-113007416D01*
X143134166Y-113007416D01*
X143049500Y-112965083D01*
X143007166Y-112922750D01*
X142964833Y-112838083D01*
X142964833Y-112118416D01*
X142118166Y-113007416D02*
X142541500Y-113007416D01*
X142541500Y-112118416D01*
X141821833Y-112541750D02*
X141525500Y-112541750D01*
X141398500Y-113007416D02*
X141821833Y-113007416D01*
X141821833Y-112118416D01*
X141398500Y-112118416D01*
X125597500Y-94434833D02*
X125470500Y-94477166D01*
X125258833Y-94477166D01*
X125174166Y-94434833D01*
X125131833Y-94392500D01*
X125089500Y-94307833D01*
X125089500Y-94223166D01*
X125131833Y-94138500D01*
X125174166Y-94096166D01*
X125258833Y-94053833D01*
X125428166Y-94011500D01*
X125512833Y-93969166D01*
X125555166Y-93926833D01*
X125597500Y-93842166D01*
X125597500Y-93757500D01*
X125555166Y-93672833D01*
X125512833Y-93630500D01*
X125428166Y-93588166D01*
X125216500Y-93588166D01*
X125089500Y-93630500D01*
X124793166Y-93588166D02*
X124581500Y-94477166D01*
X124412166Y-93842166D01*
X124242833Y-94477166D01*
X124031166Y-93588166D01*
X123692500Y-94477166D02*
X123692500Y-93588166D01*
X123396166Y-93588166D02*
X122888166Y-93588166D01*
X123142166Y-94477166D02*
X123142166Y-93588166D01*
X122083833Y-94392500D02*
X122126166Y-94434833D01*
X122253166Y-94477166D01*
X122337833Y-94477166D01*
X122464833Y-94434833D01*
X122549500Y-94350166D01*
X122591833Y-94265500D01*
X122634166Y-94096166D01*
X122634166Y-93969166D01*
X122591833Y-93799833D01*
X122549500Y-93715166D01*
X122464833Y-93630500D01*
X122337833Y-93588166D01*
X122253166Y-93588166D01*
X122126166Y-93630500D01*
X122083833Y-93672833D01*
X121702833Y-94477166D02*
X121702833Y-93588166D01*
X121702833Y-94011500D02*
X121194833Y-94011500D01*
X121194833Y-94477166D02*
X121194833Y-93588166D01*
X194637250Y-94385166D02*
X194679583Y-94342833D01*
X194721916Y-94215833D01*
X194721916Y-94131166D01*
X194679583Y-94004166D01*
X194594916Y-93919500D01*
X194510250Y-93877166D01*
X194340916Y-93834833D01*
X194213916Y-93834833D01*
X194044583Y-93877166D01*
X193959916Y-93919500D01*
X193875250Y-94004166D01*
X193832916Y-94131166D01*
X193832916Y-94215833D01*
X193875250Y-94342833D01*
X193917583Y-94385166D01*
X193832916Y-94935500D02*
X193832916Y-95104833D01*
X193875250Y-95189500D01*
X193959916Y-95274166D01*
X194129250Y-95316500D01*
X194425583Y-95316500D01*
X194594916Y-95274166D01*
X194679583Y-95189500D01*
X194721916Y-95104833D01*
X194721916Y-94935500D01*
X194679583Y-94850833D01*
X194594916Y-94766166D01*
X194425583Y-94723833D01*
X194129250Y-94723833D01*
X193959916Y-94766166D01*
X193875250Y-94850833D01*
X193832916Y-94935500D01*
X194721916Y-95697500D02*
X193832916Y-95697500D01*
X194721916Y-96205500D01*
X193832916Y-96205500D01*
X193832916Y-96501833D02*
X193832916Y-97009833D01*
X194721916Y-96755833D02*
X193832916Y-96755833D01*
X194721916Y-97814166D02*
X194298583Y-97517833D01*
X194721916Y-97306166D02*
X193832916Y-97306166D01*
X193832916Y-97644833D01*
X193875250Y-97729500D01*
X193917583Y-97771833D01*
X194002250Y-97814166D01*
X194129250Y-97814166D01*
X194213916Y-97771833D01*
X194256250Y-97729500D01*
X194298583Y-97644833D01*
X194298583Y-97306166D01*
X193832916Y-98364500D02*
X193832916Y-98533833D01*
X193875250Y-98618500D01*
X193959916Y-98703166D01*
X194129250Y-98745500D01*
X194425583Y-98745500D01*
X194594916Y-98703166D01*
X194679583Y-98618500D01*
X194721916Y-98533833D01*
X194721916Y-98364500D01*
X194679583Y-98279833D01*
X194594916Y-98195166D01*
X194425583Y-98152833D01*
X194129250Y-98152833D01*
X193959916Y-98195166D01*
X193875250Y-98279833D01*
X193832916Y-98364500D01*
X194721916Y-99549833D02*
X194721916Y-99126500D01*
X193832916Y-99126500D01*
X195716750Y-94977833D02*
X195759083Y-95104833D01*
X195801416Y-95147166D01*
X195886083Y-95189500D01*
X196013083Y-95189500D01*
X196097750Y-95147166D01*
X196140083Y-95104833D01*
X196182416Y-95020166D01*
X196182416Y-94681500D01*
X195293416Y-94681500D01*
X195293416Y-94977833D01*
X195335750Y-95062500D01*
X195378083Y-95104833D01*
X195462750Y-95147166D01*
X195547416Y-95147166D01*
X195632083Y-95104833D01*
X195674416Y-95062500D01*
X195716750Y-94977833D01*
X195716750Y-94681500D01*
X195293416Y-95739833D02*
X195293416Y-95909166D01*
X195335750Y-95993833D01*
X195420416Y-96078500D01*
X195589750Y-96120833D01*
X195886083Y-96120833D01*
X196055416Y-96078500D01*
X196140083Y-95993833D01*
X196182416Y-95909166D01*
X196182416Y-95739833D01*
X196140083Y-95655166D01*
X196055416Y-95570500D01*
X195886083Y-95528166D01*
X195589750Y-95528166D01*
X195420416Y-95570500D01*
X195335750Y-95655166D01*
X195293416Y-95739833D01*
X195928416Y-96459500D02*
X195928416Y-96882833D01*
X196182416Y-96374833D02*
X195293416Y-96671166D01*
X196182416Y-96967500D01*
X196182416Y-97771833D02*
X195759083Y-97475500D01*
X196182416Y-97263833D02*
X195293416Y-97263833D01*
X195293416Y-97602500D01*
X195335750Y-97687166D01*
X195378083Y-97729500D01*
X195462750Y-97771833D01*
X195589750Y-97771833D01*
X195674416Y-97729500D01*
X195716750Y-97687166D01*
X195759083Y-97602500D01*
X195759083Y-97263833D01*
X196182416Y-98152833D02*
X195293416Y-98152833D01*
X195293416Y-98364500D01*
X195335750Y-98491500D01*
X195420416Y-98576166D01*
X195505083Y-98618500D01*
X195674416Y-98660833D01*
X195801416Y-98660833D01*
X195970750Y-98618500D01*
X196055416Y-98576166D01*
X196140083Y-98491500D01*
X196182416Y-98364500D01*
X196182416Y-98152833D01*
X135732333Y-93662250D02*
X135774666Y-93704583D01*
X135901666Y-93746916D01*
X135986333Y-93746916D01*
X136113333Y-93704583D01*
X136198000Y-93619916D01*
X136240333Y-93535250D01*
X136282666Y-93365916D01*
X136282666Y-93238916D01*
X136240333Y-93069583D01*
X136198000Y-92984916D01*
X136113333Y-92900250D01*
X135986333Y-92857916D01*
X135901666Y-92857916D01*
X135774666Y-92900250D01*
X135732333Y-92942583D01*
X135351333Y-93746916D02*
X135351333Y-92857916D01*
X135351333Y-93281250D02*
X134843333Y-93281250D01*
X134843333Y-93746916D02*
X134843333Y-92857916D01*
X134462333Y-93492916D02*
X134039000Y-93492916D01*
X134547000Y-93746916D02*
X134250666Y-92857916D01*
X133954333Y-93746916D01*
X133150000Y-93746916D02*
X133446333Y-93323583D01*
X133658000Y-93746916D02*
X133658000Y-92857916D01*
X133319333Y-92857916D01*
X133234666Y-92900250D01*
X133192333Y-92942583D01*
X133150000Y-93027250D01*
X133150000Y-93154250D01*
X133192333Y-93238916D01*
X133234666Y-93281250D01*
X133319333Y-93323583D01*
X133658000Y-93323583D01*
X132303333Y-92900250D02*
X132388000Y-92857916D01*
X132515000Y-92857916D01*
X132642000Y-92900250D01*
X132726666Y-92984916D01*
X132769000Y-93069583D01*
X132811333Y-93238916D01*
X132811333Y-93365916D01*
X132769000Y-93535250D01*
X132726666Y-93619916D01*
X132642000Y-93704583D01*
X132515000Y-93746916D01*
X132430333Y-93746916D01*
X132303333Y-93704583D01*
X132261000Y-93662250D01*
X132261000Y-93365916D01*
X132430333Y-93365916D01*
X131880000Y-93746916D02*
X131880000Y-92857916D01*
X131456666Y-93746916D02*
X131456666Y-92857916D01*
X130948666Y-93746916D01*
X130948666Y-92857916D01*
X130059666Y-92900250D02*
X130144333Y-92857916D01*
X130271333Y-92857916D01*
X130398333Y-92900250D01*
X130483000Y-92984916D01*
X130525333Y-93069583D01*
X130567666Y-93238916D01*
X130567666Y-93365916D01*
X130525333Y-93535250D01*
X130483000Y-93619916D01*
X130398333Y-93704583D01*
X130271333Y-93746916D01*
X130186666Y-93746916D01*
X130059666Y-93704583D01*
X130017333Y-93662250D01*
X130017333Y-93365916D01*
X130186666Y-93365916D01*
X135605333Y-95165083D02*
X135478333Y-95207416D01*
X135266666Y-95207416D01*
X135182000Y-95165083D01*
X135139666Y-95122750D01*
X135097333Y-95038083D01*
X135097333Y-94953416D01*
X135139666Y-94868750D01*
X135182000Y-94826416D01*
X135266666Y-94784083D01*
X135436000Y-94741750D01*
X135520666Y-94699416D01*
X135563000Y-94657083D01*
X135605333Y-94572416D01*
X135605333Y-94487750D01*
X135563000Y-94403083D01*
X135520666Y-94360750D01*
X135436000Y-94318416D01*
X135224333Y-94318416D01*
X135097333Y-94360750D01*
X134843333Y-94318416D02*
X134335333Y-94318416D01*
X134589333Y-95207416D02*
X134589333Y-94318416D01*
X134081333Y-94953416D02*
X133658000Y-94953416D01*
X134166000Y-95207416D02*
X133869666Y-94318416D01*
X133573333Y-95207416D01*
X133404000Y-94318416D02*
X132896000Y-94318416D01*
X133150000Y-95207416D02*
X133150000Y-94318416D01*
X132599666Y-95207416D02*
X132599666Y-94318416D01*
X132007000Y-94318416D02*
X131837666Y-94318416D01*
X131753000Y-94360750D01*
X131668333Y-94445416D01*
X131626000Y-94614750D01*
X131626000Y-94911083D01*
X131668333Y-95080416D01*
X131753000Y-95165083D01*
X131837666Y-95207416D01*
X132007000Y-95207416D01*
X132091666Y-95165083D01*
X132176333Y-95080416D01*
X132218666Y-94911083D01*
X132218666Y-94614750D01*
X132176333Y-94445416D01*
X132091666Y-94360750D01*
X132007000Y-94318416D01*
X131245000Y-95207416D02*
X131245000Y-94318416D01*
X130737000Y-95207416D01*
X130737000Y-94318416D01*
X171600785Y-111271916D02*
X171600785Y-110382916D01*
X171262119Y-110382916D01*
X171177452Y-110425250D01*
X171135119Y-110467583D01*
X171092785Y-110552250D01*
X171092785Y-110679250D01*
X171135119Y-110763916D01*
X171177452Y-110806250D01*
X171262119Y-110848583D01*
X171600785Y-110848583D01*
X170542452Y-110382916D02*
X170373119Y-110382916D01*
X170288452Y-110425250D01*
X170203785Y-110509916D01*
X170161452Y-110679250D01*
X170161452Y-110975583D01*
X170203785Y-111144916D01*
X170288452Y-111229583D01*
X170373119Y-111271916D01*
X170542452Y-111271916D01*
X170627119Y-111229583D01*
X170711785Y-111144916D01*
X170754119Y-110975583D01*
X170754119Y-110679250D01*
X170711785Y-110509916D01*
X170627119Y-110425250D01*
X170542452Y-110382916D01*
X169865119Y-110382916D02*
X169653452Y-111271916D01*
X169484119Y-110636916D01*
X169314785Y-111271916D01*
X169103119Y-110382916D01*
X168764452Y-110806250D02*
X168468119Y-110806250D01*
X168341119Y-111271916D02*
X168764452Y-111271916D01*
X168764452Y-110382916D01*
X168341119Y-110382916D01*
X167452119Y-111271916D02*
X167748452Y-110848583D01*
X167960119Y-111271916D02*
X167960119Y-110382916D01*
X167621452Y-110382916D01*
X167536785Y-110425250D01*
X167494452Y-110467583D01*
X167452119Y-110552250D01*
X167452119Y-110679250D01*
X167494452Y-110763916D01*
X167536785Y-110806250D01*
X167621452Y-110848583D01*
X167960119Y-110848583D01*
X171516119Y-111843416D02*
X171346785Y-111843416D01*
X171262119Y-111885750D01*
X171177452Y-111970416D01*
X171135119Y-112139750D01*
X171135119Y-112436083D01*
X171177452Y-112605416D01*
X171262119Y-112690083D01*
X171346785Y-112732416D01*
X171516119Y-112732416D01*
X171600785Y-112690083D01*
X171685452Y-112605416D01*
X171727785Y-112436083D01*
X171727785Y-112139750D01*
X171685452Y-111970416D01*
X171600785Y-111885750D01*
X171516119Y-111843416D01*
X170754119Y-112732416D02*
X170754119Y-111843416D01*
X170542452Y-111843416D01*
X170415452Y-111885750D01*
X170330785Y-111970416D01*
X170288452Y-112055083D01*
X170246119Y-112224416D01*
X170246119Y-112351416D01*
X170288452Y-112520750D01*
X170330785Y-112605416D01*
X170415452Y-112690083D01*
X170542452Y-112732416D01*
X170754119Y-112732416D01*
X169357119Y-112732416D02*
X169653452Y-112309083D01*
X169865119Y-112732416D02*
X169865119Y-111843416D01*
X169526452Y-111843416D01*
X169441785Y-111885750D01*
X169399452Y-111928083D01*
X169357119Y-112012750D01*
X169357119Y-112139750D01*
X169399452Y-112224416D01*
X169441785Y-112266750D01*
X169526452Y-112309083D01*
X169865119Y-112309083D01*
X168976119Y-112732416D02*
X168976119Y-111843416D01*
X168679785Y-111843416D02*
X168383452Y-112732416D01*
X168087119Y-111843416D01*
X167790785Y-112266750D02*
X167494452Y-112266750D01*
X167367452Y-112732416D02*
X167790785Y-112732416D01*
X167790785Y-111843416D01*
X167367452Y-111843416D01*
X161697500Y-112386500D02*
X161570500Y-112428833D01*
X161528166Y-112471166D01*
X161485833Y-112555833D01*
X161485833Y-112682833D01*
X161528166Y-112767500D01*
X161570500Y-112809833D01*
X161655166Y-112852166D01*
X161993833Y-112852166D01*
X161993833Y-111963166D01*
X161697500Y-111963166D01*
X161612833Y-112005500D01*
X161570500Y-112047833D01*
X161528166Y-112132500D01*
X161528166Y-112217166D01*
X161570500Y-112301833D01*
X161612833Y-112344166D01*
X161697500Y-112386500D01*
X161993833Y-112386500D01*
X161147166Y-112598166D02*
X160723833Y-112598166D01*
X161231833Y-112852166D02*
X160935500Y-111963166D01*
X160639166Y-112852166D01*
X160469833Y-111963166D02*
X159961833Y-111963166D01*
X160215833Y-112852166D02*
X160215833Y-111963166D01*
X159792500Y-111963166D02*
X159284500Y-111963166D01*
X159538500Y-112852166D02*
X159538500Y-111963166D01*
X158988166Y-112386500D02*
X158691833Y-112386500D01*
X158564833Y-112852166D02*
X158988166Y-112852166D01*
X158988166Y-111963166D01*
X158564833Y-111963166D01*
X157675833Y-112852166D02*
X157972166Y-112428833D01*
X158183833Y-112852166D02*
X158183833Y-111963166D01*
X157845166Y-111963166D01*
X157760500Y-112005500D01*
X157718166Y-112047833D01*
X157675833Y-112132500D01*
X157675833Y-112259500D01*
X157718166Y-112344166D01*
X157760500Y-112386500D01*
X157845166Y-112428833D01*
X158183833Y-112428833D01*
X157125500Y-112428833D02*
X157125500Y-112852166D01*
X157421833Y-111963166D02*
X157125500Y-112428833D01*
X156829166Y-111963166D01*
X188777000Y-94505500D02*
X188861667Y-94463166D01*
X188988667Y-94463166D01*
X189115667Y-94505500D01*
X189200333Y-94590166D01*
X189242667Y-94674833D01*
X189285000Y-94844166D01*
X189285000Y-94971166D01*
X189242667Y-95140500D01*
X189200333Y-95225166D01*
X189115667Y-95309833D01*
X188988667Y-95352166D01*
X188904000Y-95352166D01*
X188777000Y-95309833D01*
X188734667Y-95267500D01*
X188734667Y-94971166D01*
X188904000Y-94971166D01*
X188353667Y-95352166D02*
X188353667Y-94463166D01*
X187845667Y-95352166D01*
X187845667Y-94463166D01*
X187422333Y-95352166D02*
X187422333Y-94463166D01*
X187210667Y-94463166D01*
X187083667Y-94505500D01*
X186999000Y-94590166D01*
X186956667Y-94674833D01*
X186914333Y-94844166D01*
X186914333Y-94971166D01*
X186956667Y-95140500D01*
X186999000Y-95225166D01*
X187083667Y-95309833D01*
X187210667Y-95352166D01*
X187422333Y-95352166D01*
X188819333Y-97813166D02*
X189242666Y-97813166D01*
X189285000Y-98236500D01*
X189242666Y-98194166D01*
X189158000Y-98151833D01*
X188946333Y-98151833D01*
X188861666Y-98194166D01*
X188819333Y-98236500D01*
X188777000Y-98321166D01*
X188777000Y-98532833D01*
X188819333Y-98617500D01*
X188861666Y-98659833D01*
X188946333Y-98702166D01*
X189158000Y-98702166D01*
X189242666Y-98659833D01*
X189285000Y-98617500D01*
X188523000Y-97813166D02*
X188226666Y-98702166D01*
X187930333Y-97813166D01*
X168586333Y-101888166D02*
X168290000Y-102777166D01*
X167993666Y-101888166D01*
X167528000Y-101888166D02*
X167358666Y-101888166D01*
X167274000Y-101930500D01*
X167189333Y-102015166D01*
X167147000Y-102184500D01*
X167147000Y-102480833D01*
X167189333Y-102650166D01*
X167274000Y-102734833D01*
X167358666Y-102777166D01*
X167528000Y-102777166D01*
X167612666Y-102734833D01*
X167697333Y-102650166D01*
X167739666Y-102480833D01*
X167739666Y-102184500D01*
X167697333Y-102015166D01*
X167612666Y-101930500D01*
X167528000Y-101888166D01*
X166766000Y-101888166D02*
X166766000Y-102607833D01*
X166723666Y-102692500D01*
X166681333Y-102734833D01*
X166596666Y-102777166D01*
X166427333Y-102777166D01*
X166342666Y-102734833D01*
X166300333Y-102692500D01*
X166258000Y-102607833D01*
X166258000Y-101888166D01*
X165961666Y-101888166D02*
X165453666Y-101888166D01*
X165707666Y-102777166D02*
X165707666Y-101888166D01*
X172697333Y-101930500D02*
X172782000Y-101888166D01*
X172909000Y-101888166D01*
X173036000Y-101930500D01*
X173120666Y-102015166D01*
X173163000Y-102099833D01*
X173205333Y-102269166D01*
X173205333Y-102396166D01*
X173163000Y-102565500D01*
X173120666Y-102650166D01*
X173036000Y-102734833D01*
X172909000Y-102777166D01*
X172824333Y-102777166D01*
X172697333Y-102734833D01*
X172655000Y-102692500D01*
X172655000Y-102396166D01*
X172824333Y-102396166D01*
X172274000Y-102777166D02*
X172274000Y-101888166D01*
X171766000Y-102777166D01*
X171766000Y-101888166D01*
X171342666Y-102777166D02*
X171342666Y-101888166D01*
X171131000Y-101888166D01*
X171004000Y-101930500D01*
X170919333Y-102015166D01*
X170877000Y-102099833D01*
X170834666Y-102269166D01*
X170834666Y-102396166D01*
X170877000Y-102565500D01*
X170919333Y-102650166D01*
X171004000Y-102734833D01*
X171131000Y-102777166D01*
X171342666Y-102777166D01*
X162777333Y-101930500D02*
X162862000Y-101888166D01*
X162989000Y-101888166D01*
X163116000Y-101930500D01*
X163200666Y-102015166D01*
X163243000Y-102099833D01*
X163285333Y-102269166D01*
X163285333Y-102396166D01*
X163243000Y-102565500D01*
X163200666Y-102650166D01*
X163116000Y-102734833D01*
X162989000Y-102777166D01*
X162904333Y-102777166D01*
X162777333Y-102734833D01*
X162735000Y-102692500D01*
X162735000Y-102396166D01*
X162904333Y-102396166D01*
X162354000Y-102777166D02*
X162354000Y-101888166D01*
X161846000Y-102777166D01*
X161846000Y-101888166D01*
X161422666Y-102777166D02*
X161422666Y-101888166D01*
X161211000Y-101888166D01*
X161084000Y-101930500D01*
X160999333Y-102015166D01*
X160957000Y-102099833D01*
X160914666Y-102269166D01*
X160914666Y-102396166D01*
X160957000Y-102565500D01*
X160999333Y-102650166D01*
X161084000Y-102734833D01*
X161211000Y-102777166D01*
X161422666Y-102777166D01*
X158744166Y-101888166D02*
X158447833Y-102777166D01*
X158151500Y-101888166D01*
X157558833Y-102311500D02*
X157431833Y-102353833D01*
X157389500Y-102396166D01*
X157347166Y-102480833D01*
X157347166Y-102607833D01*
X157389500Y-102692500D01*
X157431833Y-102734833D01*
X157516500Y-102777166D01*
X157855166Y-102777166D01*
X157855166Y-101888166D01*
X157558833Y-101888166D01*
X157474166Y-101930500D01*
X157431833Y-101972833D01*
X157389500Y-102057500D01*
X157389500Y-102142166D01*
X157431833Y-102226833D01*
X157474166Y-102269166D01*
X157558833Y-102311500D01*
X157855166Y-102311500D01*
X157008500Y-102523166D02*
X156585166Y-102523166D01*
X157093166Y-102777166D02*
X156796833Y-101888166D01*
X156500500Y-102777166D01*
X156331166Y-101888166D02*
X155823166Y-101888166D01*
X156077166Y-102777166D02*
X156077166Y-101888166D01*
X155653833Y-101888166D02*
X155145833Y-101888166D01*
X155399833Y-102777166D02*
X155399833Y-101888166D01*
X131352333Y-102880500D02*
X131437000Y-102838166D01*
X131564000Y-102838166D01*
X131691000Y-102880500D01*
X131775666Y-102965166D01*
X131818000Y-103049833D01*
X131860333Y-103219166D01*
X131860333Y-103346166D01*
X131818000Y-103515500D01*
X131775666Y-103600166D01*
X131691000Y-103684833D01*
X131564000Y-103727166D01*
X131479333Y-103727166D01*
X131352333Y-103684833D01*
X131310000Y-103642500D01*
X131310000Y-103346166D01*
X131479333Y-103346166D01*
X130929000Y-103727166D02*
X130929000Y-102838166D01*
X130421000Y-103727166D01*
X130421000Y-102838166D01*
X129997666Y-103727166D02*
X129997666Y-102838166D01*
X129786000Y-102838166D01*
X129659000Y-102880500D01*
X129574333Y-102965166D01*
X129532000Y-103049833D01*
X129489666Y-103219166D01*
X129489666Y-103346166D01*
X129532000Y-103515500D01*
X129574333Y-103600166D01*
X129659000Y-103684833D01*
X129786000Y-103727166D01*
X129997666Y-103727166D01*
X136773666Y-102913166D02*
X136477333Y-103802166D01*
X136181000Y-102913166D01*
X135884666Y-103802166D02*
X135884666Y-102913166D01*
X135461333Y-103802166D02*
X135461333Y-102913166D01*
X134953333Y-103802166D01*
X134953333Y-102913166D01*
X142902333Y-99805500D02*
X142987000Y-99763166D01*
X143114000Y-99763166D01*
X143241000Y-99805500D01*
X143325666Y-99890166D01*
X143368000Y-99974833D01*
X143410333Y-100144166D01*
X143410333Y-100271166D01*
X143368000Y-100440500D01*
X143325666Y-100525166D01*
X143241000Y-100609833D01*
X143114000Y-100652166D01*
X143029333Y-100652166D01*
X142902333Y-100609833D01*
X142860000Y-100567500D01*
X142860000Y-100271166D01*
X143029333Y-100271166D01*
X142479000Y-100652166D02*
X142479000Y-99763166D01*
X141971000Y-100652166D01*
X141971000Y-99763166D01*
X141547666Y-100652166D02*
X141547666Y-99763166D01*
X141336000Y-99763166D01*
X141209000Y-99805500D01*
X141124333Y-99890166D01*
X141082000Y-99974833D01*
X141039666Y-100144166D01*
X141039666Y-100271166D01*
X141082000Y-100440500D01*
X141124333Y-100525166D01*
X141209000Y-100609833D01*
X141336000Y-100652166D01*
X141547666Y-100652166D01*
X145919333Y-99788166D02*
X146342666Y-99788166D01*
X146385000Y-100211500D01*
X146342666Y-100169166D01*
X146258000Y-100126833D01*
X146046333Y-100126833D01*
X145961666Y-100169166D01*
X145919333Y-100211500D01*
X145877000Y-100296166D01*
X145877000Y-100507833D01*
X145919333Y-100592500D01*
X145961666Y-100634833D01*
X146046333Y-100677166D01*
X146258000Y-100677166D01*
X146342666Y-100634833D01*
X146385000Y-100592500D01*
X145623000Y-99788166D02*
X145326666Y-100677166D01*
X145030333Y-99788166D01*
X145941500Y-93746916D02*
X146237833Y-93323583D01*
X146449500Y-93746916D02*
X146449500Y-92857916D01*
X146110833Y-92857916D01*
X146026166Y-92900250D01*
X145983833Y-92942583D01*
X145941500Y-93027250D01*
X145941500Y-93154250D01*
X145983833Y-93238916D01*
X146026166Y-93281250D01*
X146110833Y-93323583D01*
X146449500Y-93323583D01*
X145560500Y-93281250D02*
X145264166Y-93281250D01*
X145137166Y-93746916D02*
X145560500Y-93746916D01*
X145560500Y-92857916D01*
X145137166Y-92857916D01*
X144756166Y-93746916D02*
X144756166Y-92857916D01*
X144459833Y-93492916D01*
X144163500Y-92857916D01*
X144163500Y-93746916D01*
X143570833Y-92857916D02*
X143401500Y-92857916D01*
X143316833Y-92900250D01*
X143232166Y-92984916D01*
X143189833Y-93154250D01*
X143189833Y-93450583D01*
X143232166Y-93619916D01*
X143316833Y-93704583D01*
X143401500Y-93746916D01*
X143570833Y-93746916D01*
X143655500Y-93704583D01*
X143740166Y-93619916D01*
X143782500Y-93450583D01*
X143782500Y-93154250D01*
X143740166Y-92984916D01*
X143655500Y-92900250D01*
X143570833Y-92857916D01*
X142935833Y-92857916D02*
X142427833Y-92857916D01*
X142681833Y-93746916D02*
X142681833Y-92857916D01*
X142131500Y-93281250D02*
X141835166Y-93281250D01*
X141708166Y-93746916D02*
X142131500Y-93746916D01*
X142131500Y-92857916D01*
X141708166Y-92857916D01*
X146364833Y-95122750D02*
X146407166Y-95165083D01*
X146534166Y-95207416D01*
X146618833Y-95207416D01*
X146745833Y-95165083D01*
X146830500Y-95080416D01*
X146872833Y-94995750D01*
X146915166Y-94826416D01*
X146915166Y-94699416D01*
X146872833Y-94530083D01*
X146830500Y-94445416D01*
X146745833Y-94360750D01*
X146618833Y-94318416D01*
X146534166Y-94318416D01*
X146407166Y-94360750D01*
X146364833Y-94403083D01*
X145814500Y-94318416D02*
X145645166Y-94318416D01*
X145560500Y-94360750D01*
X145475833Y-94445416D01*
X145433500Y-94614750D01*
X145433500Y-94911083D01*
X145475833Y-95080416D01*
X145560500Y-95165083D01*
X145645166Y-95207416D01*
X145814500Y-95207416D01*
X145899166Y-95165083D01*
X145983833Y-95080416D01*
X146026166Y-94911083D01*
X146026166Y-94614750D01*
X145983833Y-94445416D01*
X145899166Y-94360750D01*
X145814500Y-94318416D01*
X145052500Y-95207416D02*
X145052500Y-94318416D01*
X144544500Y-95207416D01*
X144544500Y-94318416D01*
X144248166Y-94318416D02*
X143740166Y-94318416D01*
X143994166Y-95207416D02*
X143994166Y-94318416D01*
X142935833Y-95207416D02*
X143232166Y-94784083D01*
X143443833Y-95207416D02*
X143443833Y-94318416D01*
X143105166Y-94318416D01*
X143020500Y-94360750D01*
X142978166Y-94403083D01*
X142935833Y-94487750D01*
X142935833Y-94614750D01*
X142978166Y-94699416D01*
X143020500Y-94741750D01*
X143105166Y-94784083D01*
X143443833Y-94784083D01*
X142385500Y-94318416D02*
X142216166Y-94318416D01*
X142131500Y-94360750D01*
X142046833Y-94445416D01*
X142004500Y-94614750D01*
X142004500Y-94911083D01*
X142046833Y-95080416D01*
X142131500Y-95165083D01*
X142216166Y-95207416D01*
X142385500Y-95207416D01*
X142470166Y-95165083D01*
X142554833Y-95080416D01*
X142597166Y-94911083D01*
X142597166Y-94614750D01*
X142554833Y-94445416D01*
X142470166Y-94360750D01*
X142385500Y-94318416D01*
X141200166Y-95207416D02*
X141623500Y-95207416D01*
X141623500Y-94318416D01*
D11*
%TO.C,U3*%
X177365822Y-107956389D02*
X179753697Y-107956389D01*
X179165819Y-101662457D02*
X179261264Y-101616316D01*
X179261264Y-101616316D02*
X179365705Y-101603879D01*
X179365705Y-101603879D02*
X179459758Y-101623063D01*
X181050666Y-98598825D02*
X181050666Y-98598825D01*
X177044611Y-102607911D02*
X177049833Y-102401783D01*
X177049833Y-102401783D02*
X177065331Y-102198341D01*
X177065331Y-102198341D02*
X177090850Y-101997837D01*
X177090850Y-101997837D02*
X177126139Y-101800525D01*
X177126139Y-101800525D02*
X177170941Y-101606658D01*
X177170941Y-101606658D02*
X177225006Y-101416488D01*
X177225006Y-101416488D02*
X177288078Y-101230269D01*
X177288078Y-101230269D02*
X177359903Y-101048253D01*
X177359903Y-101048253D02*
X177440230Y-100870694D01*
X177440230Y-100870694D02*
X177528803Y-100697845D01*
X177528803Y-100697845D02*
X177625370Y-100529959D01*
X177625370Y-100529959D02*
X177729677Y-100367288D01*
X177729677Y-100367288D02*
X177841470Y-100210086D01*
X177841470Y-100210086D02*
X177960495Y-100058606D01*
X177960495Y-100058606D02*
X178086500Y-99913100D01*
X178086500Y-99913100D02*
X178219230Y-99773823D01*
X178219230Y-99773823D02*
X178358432Y-99641026D01*
X178358432Y-99641026D02*
X178503852Y-99514963D01*
X178503852Y-99514963D02*
X178655237Y-99395887D01*
X178655237Y-99395887D02*
X178812334Y-99284051D01*
X178812334Y-99284051D02*
X178974888Y-99179707D01*
X178974888Y-99179707D02*
X179142646Y-99083110D01*
X179142646Y-99083110D02*
X179315354Y-98994512D01*
X179315354Y-98994512D02*
X179492760Y-98914165D01*
X179492760Y-98914165D02*
X179674609Y-98842323D01*
X179674609Y-98842323D02*
X179860648Y-98779240D01*
X179860648Y-98779240D02*
X180050623Y-98725167D01*
X180050623Y-98725167D02*
X180244280Y-98680358D01*
X180244280Y-98680358D02*
X180441367Y-98645067D01*
X180441367Y-98645067D02*
X180641629Y-98619545D01*
X180641629Y-98619545D02*
X180844813Y-98604047D01*
X180844813Y-98604047D02*
X181050666Y-98598825D01*
X177044611Y-106671542D02*
X177044611Y-102607911D01*
X177365822Y-106992754D02*
X177254822Y-106973078D01*
X177254822Y-106973078D02*
X177160925Y-106918874D01*
X177160925Y-106918874D02*
X177090790Y-106837372D01*
X177090790Y-106837372D02*
X177051079Y-106735805D01*
X177051079Y-106735805D02*
X177044611Y-106671542D01*
X177687033Y-106671542D02*
X177667357Y-106782541D01*
X177667357Y-106782541D02*
X177613153Y-106876438D01*
X177613153Y-106876438D02*
X177531651Y-106946573D01*
X177531651Y-106946573D02*
X177430085Y-106986285D01*
X177430085Y-106986285D02*
X177365822Y-106992754D01*
X177687033Y-102607911D02*
X177687033Y-106671542D01*
X181050666Y-99244278D02*
X180877850Y-99248663D01*
X180877850Y-99248663D02*
X180707271Y-99261678D01*
X180707271Y-99261678D02*
X180539142Y-99283109D01*
X180539142Y-99283109D02*
X180373677Y-99312743D01*
X180373677Y-99312743D02*
X180211089Y-99350368D01*
X180211089Y-99350368D02*
X180051590Y-99395769D01*
X180051590Y-99395769D02*
X179895393Y-99448734D01*
X179895393Y-99448734D02*
X179742712Y-99509050D01*
X179742712Y-99509050D02*
X179593760Y-99576504D01*
X179593760Y-99576504D02*
X179448749Y-99650882D01*
X179448749Y-99650882D02*
X179307894Y-99731972D01*
X179307894Y-99731972D02*
X179171406Y-99819561D01*
X179171406Y-99819561D02*
X179039499Y-99913435D01*
X179039499Y-99913435D02*
X178912386Y-100013382D01*
X178912386Y-100013382D02*
X178790281Y-100119188D01*
X178790281Y-100119188D02*
X178673395Y-100230640D01*
X178673395Y-100230640D02*
X178561943Y-100347526D01*
X178561943Y-100347526D02*
X178456137Y-100469632D01*
X178456137Y-100469632D02*
X178356190Y-100596744D01*
X178356190Y-100596744D02*
X178262316Y-100728651D01*
X178262316Y-100728651D02*
X178174727Y-100865139D01*
X178174727Y-100865139D02*
X178093637Y-101005995D01*
X178093637Y-101005995D02*
X178019259Y-101151005D01*
X178019259Y-101151005D02*
X177951805Y-101299958D01*
X177951805Y-101299958D02*
X177891489Y-101452638D01*
X177891489Y-101452638D02*
X177838524Y-101608835D01*
X177838524Y-101608835D02*
X177793123Y-101768334D01*
X177793123Y-101768334D02*
X177755498Y-101930923D01*
X177755498Y-101930923D02*
X177725864Y-102096388D01*
X177725864Y-102096388D02*
X177704433Y-102264516D01*
X177704433Y-102264516D02*
X177691418Y-102435095D01*
X177691418Y-102435095D02*
X177687033Y-102607911D01*
X184414298Y-102607911D02*
X184409912Y-102435095D01*
X184409912Y-102435095D02*
X184396897Y-102264516D01*
X184396897Y-102264516D02*
X184375466Y-102096388D01*
X184375466Y-102096388D02*
X184345832Y-101930923D01*
X184345832Y-101930923D02*
X184308207Y-101768334D01*
X184308207Y-101768334D02*
X184262806Y-101608835D01*
X184262806Y-101608835D02*
X184209841Y-101452638D01*
X184209841Y-101452638D02*
X184149525Y-101299958D01*
X184149525Y-101299958D02*
X184082071Y-101151005D01*
X184082071Y-101151005D02*
X184007693Y-101005995D01*
X184007693Y-101005995D02*
X183926603Y-100865139D01*
X183926603Y-100865139D02*
X183839014Y-100728651D01*
X183839014Y-100728651D02*
X183745140Y-100596744D01*
X183745140Y-100596744D02*
X183645193Y-100469632D01*
X183645193Y-100469632D02*
X183539387Y-100347526D01*
X183539387Y-100347526D02*
X183427935Y-100230640D01*
X183427935Y-100230640D02*
X183311050Y-100119188D01*
X183311050Y-100119188D02*
X183188944Y-100013382D01*
X183188944Y-100013382D02*
X183061831Y-99913435D01*
X183061831Y-99913435D02*
X182929924Y-99819561D01*
X182929924Y-99819561D02*
X182793437Y-99731972D01*
X182793437Y-99731972D02*
X182652581Y-99650882D01*
X182652581Y-99650882D02*
X182507571Y-99576504D01*
X182507571Y-99576504D02*
X182358618Y-99509050D01*
X182358618Y-99509050D02*
X182205937Y-99448734D01*
X182205937Y-99448734D02*
X182049741Y-99395769D01*
X182049741Y-99395769D02*
X181890242Y-99350368D01*
X181890242Y-99350368D02*
X181727653Y-99312743D01*
X181727653Y-99312743D02*
X181562188Y-99283109D01*
X181562188Y-99283109D02*
X181394060Y-99261678D01*
X181394060Y-99261678D02*
X181223481Y-99248663D01*
X181223481Y-99248663D02*
X181050666Y-99244278D01*
X184414298Y-106668512D02*
X184414298Y-102607911D01*
X184735510Y-106989724D02*
X184624510Y-106970048D01*
X184624510Y-106970048D02*
X184530613Y-106915843D01*
X184530613Y-106915843D02*
X184460478Y-106834342D01*
X184460478Y-106834342D02*
X184420766Y-106732775D01*
X184420766Y-106732775D02*
X184414298Y-106668512D01*
X185056721Y-106668512D02*
X185037045Y-106779511D01*
X185037045Y-106779511D02*
X184982841Y-106873408D01*
X184982841Y-106873408D02*
X184901339Y-106943543D01*
X184901339Y-106943543D02*
X184799773Y-106983255D01*
X184799773Y-106983255D02*
X184735510Y-106989724D01*
X185056721Y-102604880D02*
X185056721Y-106668512D01*
X181050666Y-98598825D02*
X181256518Y-98604047D01*
X181256518Y-98604047D02*
X181459702Y-98619545D01*
X181459702Y-98619545D02*
X181659964Y-98645064D01*
X181659964Y-98645064D02*
X181857051Y-98680353D01*
X181857051Y-98680353D02*
X182050708Y-98725156D01*
X182050708Y-98725156D02*
X182240683Y-98779220D01*
X182240683Y-98779220D02*
X182426722Y-98842292D01*
X182426722Y-98842292D02*
X182608571Y-98914118D01*
X182608571Y-98914118D02*
X182785976Y-98994444D01*
X182785976Y-98994444D02*
X182958685Y-99083018D01*
X182958685Y-99083018D02*
X183126443Y-99179584D01*
X183126443Y-99179584D02*
X183288997Y-99283891D01*
X183288997Y-99283891D02*
X183446093Y-99395684D01*
X183446093Y-99395684D02*
X183597479Y-99514709D01*
X183597479Y-99514709D02*
X183742899Y-99640714D01*
X183742899Y-99640714D02*
X183882101Y-99773444D01*
X183882101Y-99773444D02*
X184014831Y-99912646D01*
X184014831Y-99912646D02*
X184140836Y-100058066D01*
X184140836Y-100058066D02*
X184259861Y-100209452D01*
X184259861Y-100209452D02*
X184371654Y-100366548D01*
X184371654Y-100366548D02*
X184475961Y-100529102D01*
X184475961Y-100529102D02*
X184572527Y-100696860D01*
X184572527Y-100696860D02*
X184661101Y-100869569D01*
X184661101Y-100869569D02*
X184741427Y-101046974D01*
X184741427Y-101046974D02*
X184813253Y-101228823D01*
X184813253Y-101228823D02*
X184876325Y-101414862D01*
X184876325Y-101414862D02*
X184930389Y-101604837D01*
X184930389Y-101604837D02*
X184975192Y-101798494D01*
X184975192Y-101798494D02*
X185010481Y-101995581D01*
X185010481Y-101995581D02*
X185036000Y-102195843D01*
X185036000Y-102195843D02*
X185051498Y-102399027D01*
X185051498Y-102399027D02*
X185056721Y-102604880D01*
X181135514Y-103765485D02*
X181132484Y-103680637D01*
X180514303Y-103520031D02*
X181135514Y-103765485D01*
X180499151Y-103513970D02*
X180514303Y-103520031D01*
X179674910Y-102389729D02*
X179687271Y-102531902D01*
X179687271Y-102531902D02*
X179715312Y-102669627D01*
X179715312Y-102669627D02*
X179758255Y-102801808D01*
X179758255Y-102801808D02*
X179815321Y-102927352D01*
X179815321Y-102927352D02*
X179885730Y-103045166D01*
X179885730Y-103045166D02*
X179968703Y-103154156D01*
X179968703Y-103154156D02*
X180063462Y-103253229D01*
X180063462Y-103253229D02*
X180169226Y-103341290D01*
X180169226Y-103341290D02*
X180285219Y-103417246D01*
X180285219Y-103417246D02*
X180410659Y-103480004D01*
X180410659Y-103480004D02*
X180499151Y-103513970D01*
X180499151Y-102689729D02*
X179674910Y-102389729D01*
X181132484Y-103680637D02*
X181126024Y-103552379D01*
X181126024Y-103552379D02*
X181107015Y-103428970D01*
X181107015Y-103428970D02*
X181076011Y-103311264D01*
X181076011Y-103311264D02*
X181033567Y-103200115D01*
X181033567Y-103200115D02*
X180980235Y-103096377D01*
X180980235Y-103096377D02*
X180916572Y-103000903D01*
X180916572Y-103000903D02*
X180843131Y-102914548D01*
X180843131Y-102914548D02*
X180760467Y-102838166D01*
X180760467Y-102838166D02*
X180669133Y-102772610D01*
X180669133Y-102772610D02*
X180569684Y-102718735D01*
X180569684Y-102718735D02*
X180499151Y-102689729D01*
X177365822Y-107956389D02*
X177365822Y-107956389D01*
X177047640Y-108277601D02*
X177065390Y-108167815D01*
X177065390Y-108167815D02*
X177118050Y-108073962D01*
X177118050Y-108073962D02*
X177198768Y-108003274D01*
X177198768Y-108003274D02*
X177300694Y-107962982D01*
X177300694Y-107962982D02*
X177365822Y-107956389D01*
X177368852Y-108598813D02*
X177257853Y-108579137D01*
X177257853Y-108579137D02*
X177163955Y-108524932D01*
X177163955Y-108524932D02*
X177093820Y-108443431D01*
X177093820Y-108443431D02*
X177054109Y-108341864D01*
X177054109Y-108341864D02*
X177047640Y-108277601D01*
X179759758Y-108598813D02*
X177368852Y-108598813D01*
X179759758Y-108598813D02*
X179759758Y-108598813D01*
X181465817Y-107662450D02*
X181395088Y-107765350D01*
X181395088Y-107765350D02*
X181318308Y-107863639D01*
X181318308Y-107863639D02*
X181235750Y-107957036D01*
X181235750Y-107957036D02*
X181147682Y-108045261D01*
X181147682Y-108045261D02*
X181054377Y-108128036D01*
X181054377Y-108128036D02*
X180956105Y-108205080D01*
X180956105Y-108205080D02*
X180853136Y-108276114D01*
X180853136Y-108276114D02*
X180745741Y-108340858D01*
X180745741Y-108340858D02*
X180634192Y-108399032D01*
X180634192Y-108399032D02*
X180518759Y-108450357D01*
X180518759Y-108450357D02*
X180399712Y-108494553D01*
X180399712Y-108494553D02*
X180277323Y-108531341D01*
X180277323Y-108531341D02*
X180151863Y-108560440D01*
X180151863Y-108560440D02*
X180023601Y-108581572D01*
X180023601Y-108581572D02*
X179892809Y-108594456D01*
X179892809Y-108594456D02*
X179759758Y-108598813D01*
X183159754Y-108598813D02*
X183027804Y-108593956D01*
X183027804Y-108593956D02*
X182898047Y-108580701D01*
X182898047Y-108580701D02*
X182770758Y-108559315D01*
X182770758Y-108559315D02*
X182646212Y-108530062D01*
X182646212Y-108530062D02*
X182524685Y-108493210D01*
X182524685Y-108493210D02*
X182406452Y-108449025D01*
X182406452Y-108449025D02*
X182291787Y-108397773D01*
X182291787Y-108397773D02*
X182180967Y-108339721D01*
X182180967Y-108339721D02*
X182074266Y-108275135D01*
X182074266Y-108275135D02*
X181971959Y-108204281D01*
X181971959Y-108204281D02*
X181874322Y-108127426D01*
X181874322Y-108127426D02*
X181781630Y-108044835D01*
X181781630Y-108044835D02*
X181694159Y-107956776D01*
X181694159Y-107956776D02*
X181612182Y-107863514D01*
X181612182Y-107863514D02*
X181535976Y-107765317D01*
X181535976Y-107765317D02*
X181465817Y-107662450D01*
X183171875Y-108598813D02*
X183159754Y-108598813D01*
X184735510Y-108598813D02*
X183171875Y-108598813D01*
X185056721Y-108277601D02*
X185037045Y-108388600D01*
X185037045Y-108388600D02*
X184982841Y-108482497D01*
X184982841Y-108482497D02*
X184901339Y-108552632D01*
X184901339Y-108552632D02*
X184799773Y-108592344D01*
X184799773Y-108592344D02*
X184735510Y-108598813D01*
X184735510Y-107956389D02*
X184846508Y-107976064D01*
X184846508Y-107976064D02*
X184940406Y-108030269D01*
X184940406Y-108030269D02*
X185010540Y-108111770D01*
X185010540Y-108111770D02*
X185050252Y-108213337D01*
X185050252Y-108213337D02*
X185056721Y-108277601D01*
X183180966Y-107956389D02*
X184735510Y-107956389D01*
X183168845Y-107956389D02*
X183180966Y-107956389D01*
X181780968Y-106565482D02*
X181788131Y-106707445D01*
X181788131Y-106707445D02*
X181809158Y-106845364D01*
X181809158Y-106845364D02*
X181843350Y-106978533D01*
X181843350Y-106978533D02*
X181890011Y-107106248D01*
X181890011Y-107106248D02*
X181948444Y-107227801D01*
X181948444Y-107227801D02*
X182017952Y-107342486D01*
X182017952Y-107342486D02*
X182097839Y-107449600D01*
X182097839Y-107449600D02*
X182187406Y-107548434D01*
X182187406Y-107548434D02*
X182285958Y-107638285D01*
X182285958Y-107638285D02*
X182392798Y-107718445D01*
X182392798Y-107718445D02*
X182507228Y-107788209D01*
X182507228Y-107788209D02*
X182628552Y-107846872D01*
X182628552Y-107846872D02*
X182756072Y-107893727D01*
X182756072Y-107893727D02*
X182889092Y-107928068D01*
X182889092Y-107928068D02*
X183026915Y-107949191D01*
X183026915Y-107949191D02*
X183168845Y-107956389D01*
X181780968Y-104235182D02*
X181780968Y-106565482D01*
X181780968Y-104235182D02*
X181780968Y-104235182D01*
X181780968Y-104232151D02*
X181780968Y-104235182D01*
X181771877Y-103674576D02*
X181780968Y-104232151D01*
X180717333Y-102083669D02*
X180835044Y-102131964D01*
X180835044Y-102131964D02*
X180947091Y-102189066D01*
X180947091Y-102189066D02*
X181053207Y-102254549D01*
X181053207Y-102254549D02*
X181153127Y-102327986D01*
X181153127Y-102327986D02*
X181246584Y-102408952D01*
X181246584Y-102408952D02*
X181333312Y-102497020D01*
X181333312Y-102497020D02*
X181413043Y-102591764D01*
X181413043Y-102591764D02*
X181485513Y-102692759D01*
X181485513Y-102692759D02*
X181550454Y-102799577D01*
X181550454Y-102799577D02*
X181607601Y-102911792D01*
X181607601Y-102911792D02*
X181656687Y-103028980D01*
X181656687Y-103028980D02*
X181697445Y-103150713D01*
X181697445Y-103150713D02*
X181729609Y-103276565D01*
X181729609Y-103276565D02*
X181752913Y-103406110D01*
X181752913Y-103406110D02*
X181767091Y-103538922D01*
X181767091Y-103538922D02*
X181771877Y-103674576D01*
X179459758Y-101623063D02*
X180717333Y-102083669D01*
X181141575Y-104453363D02*
X180284000Y-104117000D01*
X179029456Y-101926093D02*
X179046979Y-101821048D01*
X179046979Y-101821048D02*
X179096594Y-101729096D01*
X179096594Y-101729096D02*
X179165819Y-101662457D01*
X179753697Y-107956389D02*
X179895126Y-107949225D01*
X179895126Y-107949225D02*
X180032579Y-107928198D01*
X180032579Y-107928198D02*
X180165344Y-107894006D01*
X180165344Y-107894006D02*
X180292711Y-107847345D01*
X180292711Y-107847345D02*
X180413971Y-107788912D01*
X180413971Y-107788912D02*
X180528412Y-107719404D01*
X180528412Y-107719404D02*
X180635325Y-107639517D01*
X180635325Y-107639517D02*
X180733999Y-107549950D01*
X180733999Y-107549950D02*
X180823724Y-107451398D01*
X180823724Y-107451398D02*
X180903791Y-107344558D01*
X180903791Y-107344558D02*
X180973487Y-107230128D01*
X180973487Y-107230128D02*
X181032105Y-107108805D01*
X181032105Y-107108805D02*
X181078932Y-106981284D01*
X181078932Y-106981284D02*
X181113260Y-106848264D01*
X181113260Y-106848264D02*
X181134378Y-106710441D01*
X181134378Y-106710441D02*
X181141575Y-106568512D01*
X181141575Y-106568512D02*
X181141575Y-104453363D01*
X179029456Y-102350335D02*
X179029456Y-101926093D01*
X180284000Y-104117000D02*
X180146065Y-104063501D01*
X180146065Y-104063501D02*
X180014327Y-103999948D01*
X180014327Y-103999948D02*
X179889158Y-103926869D01*
X179889158Y-103926869D02*
X179770932Y-103844793D01*
X179770932Y-103844793D02*
X179660021Y-103754247D01*
X179660021Y-103754247D02*
X179556799Y-103655760D01*
X179556799Y-103655760D02*
X179461637Y-103549860D01*
X179461637Y-103549860D02*
X179374910Y-103437076D01*
X179374910Y-103437076D02*
X179296989Y-103317934D01*
X179296989Y-103317934D02*
X179228248Y-103192965D01*
X179228248Y-103192965D02*
X179169059Y-103062695D01*
X179169059Y-103062695D02*
X179119796Y-102927654D01*
X179119796Y-102927654D02*
X179080832Y-102788369D01*
X179080832Y-102788369D02*
X179052538Y-102645368D01*
X179052538Y-102645368D02*
X179035288Y-102499181D01*
X179035288Y-102499181D02*
X179029456Y-102350335D01*
%TD*%
M02*
