999
dxfrw 0.6.3
  0
SECTION
  2
HEADER
  9
$ACADVER
  1
AC1021
  9
$DWGCODEPAGE
  3
ANSI_1252
  9
$INSBASE
 10
0
 20
0
 30
0
  9
$EXTMIN
 10
774.6855
 20
666.57375
 30
0
  9
$EXTMAX
 10
1049.69775
 20
789.252
 30
0
  9
$LIMMIN
 10
0
 20
0
  9
$LIMMAX
 10
420
 20
297
  9
$ORTHOMODE
 70
    0
  9
$REGENMODE
 70
    1
  9
$FILLMODE
 70
    1
  9
$QTEXTMODE
 70
    0
  9
$MIRRTEXT
 70
    0
  9
$LTSCALE
 40
1
  9
$ATTMODE
 70
    0
  9
$TEXTSIZE
 40
2.5
  9
$TRACEWID
 40
15.68
  9
$TEXTSTYLE
  7
STANDARD
  9
$CLAYER
  8
0
  9
$CELTYPE
  6
BYLAYER
  9
$CECOLOR
 62
  256
  9
$CELTSCALE
 40
1
  9
$DISPSILH
 70
    0
  9
$DIMSCALE
 40
2.5
  9
$DIMASZ
 40
2.5
  9
$DIMEXO
 40
0.625
  9
$DIMDLI
 40
3.75
  9
$DIMRND
 40
0
  9
$DIMDLE
 40
0
  9
$DIMEXE
 40
1.25
  9
$DIMTP
 40
0
  9
$DIMTM
 40
0
  9
$DIMTXT
 40
2.5
  9
$DIMCEN
 40
2.5
  9
$DIMTSZ
 40
0
  9
$DIMTOL
 70
    0
  9
$DIMLIM
 70
    0
  9
$DIMTIH
 70
    0
  9
$DIMTOH
 70
    0
  9
$DIMSE1
 70
    0
  9
$DIMSE2
 70
    0
  9
$DIMTAD
 70
    1
  9
$DIMZIN
 70
    8
  9
$DIMBLK
  1

  9
$DIMASO
 70
    1
  9
$DIMSHO
 70
    1
  9
$DIMPOST
  1

  9
$DIMAPOST
  1

  9
$DIMALT
 70
    0
  9
$DIMALTD
 70
    3
  9
$DIMALTF
 40
0.03937
  9
$DIMLFAC
 40
1
  9
$DIMTOFL
 70
    1
  9
$DIMTVP
 40
0
  9
$DIMTIX
 70
    0
  9
$DIMSOXD
 70
    0
  9
$DIMSAH
 70
    0
  9
$DIMBLK1
  1

  9
$DIMBLK2
  1

  9
$DIMSTYLE
  2
Standard
  9
$DIMCLRD
 70
    0
  9
$DIMCLRE
 70
    0
  9
$DIMCLRT
 70
    0
  9
$DIMTFAC
 40
1
  9
$DIMGAP
 40
0.625
  9
$DIMJUST
 70
    0
  9
$DIMSD1
 70
    0
  9
$DIMSD2
 70
    0
  9
$DIMTOLJ
 70
    0
  9
$DIMTZIN
 70
    8
  9
$DIMALTZ
 70
    0
  9
$DIMALTTZ
 70
    0
  9
$DIMUPT
 70
    0
  9
$DIMDEC
 70
    2
  9
$DIMTDEC
 70
    2
  9
$DIMALTU
 70
    2
  9
$DIMALTTD
 70
    3
  9
$DIMTXSTY
  7
STANDARD
  9
$DIMAUNIT
 70
    0
  9
$DIMADEC
 70
    0
  9
$DIMALTRND
 40
0
  9
$DIMAZIN
 70
    0
  9
$DIMDSEP
 70
   44
  9
$DIMATFIT
 70
    3
  9
$DIMFRAC
 70
    0
  9
$DIMLDRBLK
  1
STANDARD
  9
$DIMLUNIT
 70
    2
  9
$DIMLWD
 70
   -2
  9
$DIMLWE
 70
   -2
  9
$DIMTMOVE
 70
    0
  9
$DIMFXL
 40
1
  9
$DIMFXLON
 70
    0
  9
$DIMJOGANG
 40
0.7854
  9
$DIMTFILL
 70
    0
  9
$DIMTFILLCLR
 70
    0
  9
$DIMARCSYM
 70
    0
  9
$DIMLTYPE
  6

  9
$DIMLTEX1
  6

  9
$DIMLTEX2
  6

  9
$LUNITS
 70
    2
  9
$LUPREC
 70
    4
  9
$SKETCHINC
 40
1
  9
$FILLETRAD
 40
0
  9
$AUNITS
 70
    0
  9
$AUPREC
 70
    2
  9
$MENU
  1
.
  9
$ELEVATION
 40
0
  9
$PELEVATION
 40
0
  9
$THICKNESS
 40
0
  9
$LIMCHECK
 70
    0
  9
$CHAMFERA
 40
0
  9
$CHAMFERB
 40
0
  9
$CHAMFERC
 40
0
  9
$CHAMFERD
 40
0
  9
$SKPOLY
 70
    0
  9
$USRTIMER
 70
    1
  9
$ANGBASE
 50
0
  9
$ANGDIR
 70
    0
  9
$PDMODE
 70
   34
  9
$PDSIZE
 40
0
  9
$PLINEWID
 40
0
  9
$SPLFRAME
 70
    0
  9
$SPLINETYPE
 70
    2
  9
$SPLINESEGS
 70
    8
  9
$HANDSEED
  5
20000
  9
$SURFTAB1
 70
    6
  9
$SURFTAB2
 70
    6
  9
$SURFTYPE
 70
    6
  9
$SURFU
 70
    6
  9
$SURFV
 70
    6
  9
$UCSBASE
  2

  9
$UCSNAME
  2

  9
$UCSORG
 10
0
 20
0
 30
0
  9
$UCSXDIR
 10
1
 20
0
 30
0
  9
$UCSYDIR
 10
0
 20
1
 30
0
  9
$UCSORTHOREF
  2

  9
$UCSORTHOVIEW
 70
    0
  9
$UCSORGTOP
 10
0
 20
0
 30
0
  9
$UCSORGBOTTOM
 10
0
 20
0
 30
0
  9
$UCSORGLEFT
 10
0
 20
0
 30
0
  9
$UCSORGRIGHT
 10
0
 20
0
 30
0
  9
$UCSORGFRONT
 10
0
 20
0
 30
0
  9
$UCSORGBACK
 10
0
 20
0
 30
0
  9
$PUCSBASE
  2

  9
$PUCSNAME
  2

  9
$PUCSORG
 10
0
 20
0
 30
0
  9
$PUCSXDIR
 10
1
 20
0
 30
0
  9
$PUCSYDIR
 10
0
 20
1
 30
0
  9
$PUCSORTHOREF
  2

  9
$PUCSORTHOVIEW
 70
    0
  9
$PUCSORGTOP
 10
0
 20
0
 30
0
  9
$PUCSORGBOTTOM
 10
0
 20
0
 30
0
  9
$PUCSORGLEFT
 10
0
 20
0
 30
0
  9
$PUCSORGRIGHT
 10
0
 20
0
 30
0
  9
$PUCSORGFRONT
 10
0
 20
0
 30
0
  9
$PUCSORGBACK
 10
0
 20
0
 30
0
  9
$USERI1
 70
    0
  9
$USERI2
 70
    0
  9
$USERI3
 70
    0
  9
$USERI4
 70
    0
  9
$USERI5
 70
    0
  9
$USERR1
 40
0
  9
$USERR2
 40
0
  9
$USERR3
 40
0
  9
$USERR4
 40
0
  9
$USERR5
 40
0
  9
$WORLDVIEW
 70
    1
  9
$SHADEDGE
 70
    3
  9
$SHADEDIF
 70
   70
  9
$TILEMODE
 70
    1
  9
$MAXACTVP
 70
   64
  9
$PINSBASE
 10
0
 20
0
 30
0
  9
$PLIMCHECK
 70
    0
  9
$PEXTMIN
 10
0
 20
0
 30
0
  9
$PEXTMAX
 10
0
 20
0
 30
0
  9
$GRIDMODE
 70
    0
  9
$SNAPSTYLE
 70
    0
  9
$PLIMMIN
 10
0
 20
0
  9
$PLIMMAX
 10
210
 20
297
  9
$UNITMODE
 70
    0
  9
$VISRETAIN
 70
    1
  9
$PLINEGEN
 70
    0
  9
$PSLTSCALE
 70
    1
  9
$TREEDEPTH
 70
 3020
  9
$CMLSTYLE
  2
Standard
  9
$CMLJUST
 70
    0
  9
$CMLSCALE
 40
20
  9
$PROXYGRAPHICS
 70
    1
  9
$MEASUREMENT
 70
    1
  9
$CELWEIGHT
370
   -1
  9
$ENDCAPS
280
    0
  9
$JOINSTYLE
280
    0
  9
$LWDISPLAY
290
    0
  9
$INSUNITS
 70
    4
  9
$HYPERLINKBASE
  1

  9
$STYLESHEET
  1

  9
$XEDIT
290
    1
  9
$CEPSNTYPE
380
    0
  9
$PSTYLEMODE
290
    1
  9
$EXTNAMES
290
    1
  9
$PSVPSCALE
 40
1
  9
$OLESTARTUP
290
    0
  9
$SORTENTS
280
  127
  9
$INDEXCTL
280
    0
  9
$HIDETEXT
280
    1
  9
$XCLIPFRAME
290
    0
  9
$HALOGAP
280
    0
  9
$OBSCOLOR
 70
  257
  9
$OBSLTYPE
280
    0
  9
$INTERSECTIONDISPLAY
280
    0
  9
$INTERSECTIONCOLOR
 70
  257
  9
$DIMASSOC
280
    1
  9
$PROJECTNAME
  1

  9
$CAMERADISPLAY
290
    0
  9
$LENSLENGTH
 40
50
  9
$CAMERAHEIGHT
 40
0
  9
$STEPSPERSEC
 40
2
  9
$STEPSIZE
 40
50
  9
$3DDWFPREC
 40
2
  9
$PSOLWIDTH
 40
5
  9
$PSOLHEIGHT
 40
80
  9
$LOFTANG1
 40
1.570796326794897
  9
$LOFTANG2
 40
1.570796326794897
  9
$LOFTMAG1
 40
0
  9
$LOFTMAG2
 40
0
  9
$LOFTPARAM
 70
    7
  9
$LOFTNORMALS
280
    1
  9
$LATITUDE
 40
1
  9
$LONGITUDE
 40
1
  9
$NORTHDIRECTION
 40
0
  9
$TIMEZONE
 70
-8000
  9
$LIGHTGLYPHDISPLAY
280
    1
  9
$TILEMODELIGHTSYNCH
280
    1
  9
$SOLIDHIST
280
    1
  9
$SHOWHIST
280
    1
  9
$DWFFRAME
280
    2
  9
$DGNFRAME
280
    0
  9
$REALWORLDSCALE
290
    1
  9
$INTERFERECOLOR
 62
    1
  9
$CSHADOW
280
    0
  9
$SHADOWPLANELOCATION
 40
0
  0
ENDSEC
  0
SECTION
  2
CLASSES
  0
ENDSEC
  0
SECTION
  2
TABLES
  0
TABLE
  2
VPORT
  5
8
330
0
100
AcDbSymbolTable
 70
    1
  0
VPORT
  5
31
330
2
100
AcDbSymbolTableRecord
100
AcDbViewportTableRecord
  2
*ACTIVE
 70
    0
 10
0
 20
0
 11
1
 21
1
 12
570.0219033596927
 22
413.5431279432479
 13
0
 23
0
 14
10
 24
10
 15
10
 25
10
 16
0
 26
0
 36
1
 17
0
 27
0
 37
0
 40
189.1940402979836
 41
2.46189917936694
 42
50
 43
0
 44
0
 50
0
 51
0
 71
    0
 72
  100
 73
    1
 74
    3
 75
    0
 76
    0
 77
    0
 78
    0
281
    0
 65
    1
110
0
120
0
130
0
111
1
121
0
131
0
112
0
122
1
132
0
 79
    0
146
0
348
10020
 60
    7
 61
    5
292
1
282
    1
141
0
142
0
 63
  250
421
3358443
  0
ENDTAB
  0
TABLE
  2
LTYPE
  5
5
330
0
100
AcDbSymbolTable
 70
    4
  0
LTYPE
  5
14
330
5
100
AcDbSymbolTableRecord
100
AcDbLinetypeTableRecord
  2
ByBlock
 70
    0
  3

 72
   65
 73
    0
 40
0
  0
LTYPE
  5
15
330
5
100
AcDbSymbolTableRecord
100
AcDbLinetypeTableRecord
  2
ByLayer
 70
    0
  3

 72
   65
 73
    0
 40
0
  0
LTYPE
  5
16
330
5
100
AcDbSymbolTableRecord
100
AcDbLinetypeTableRecord
  2
Continuous
 70
    0
  3
Solid line
 72
   65
 73
    0
 40
0
  0
LTYPE
  5
32
330
5
100
AcDbSymbolTableRecord
100
AcDbLinetypeTableRecord
  2
DOT
 70
    0
  3
Dot . . . . . . . . . . . . . . . . . . . . . .
 72
   65
 73
    2
 40
6.35
 49
0
 74
    0
 49
-6.35
 74
    0
  0
LTYPE
  5
33
330
5
100
AcDbSymbolTableRecord
100
AcDbLinetypeTableRecord
  2
DOTTINY
 70
    0
  3
Dot (.15x) .....................................
 72
   65
 73
    2
 40
0.9525
 49
0
 74
    0
 49
-0.9525
 74
    0
  0
LTYPE
  5
34
330
5
100
AcDbSymbolTableRecord
100
AcDbLinetypeTableRecord
  2
DOT2
 70
    0
  3
Dot (.5x) .....................................
 72
   65
 73
    2
 40
3.175
 49
0
 74
    0
 49
-3.175
 74
    0
  0
LTYPE
  5
35
330
5
100
AcDbSymbolTableRecord
100
AcDbLinetypeTableRecord
  2
DOTX2
 70
    0
  3
Dot (2x) .  .  .  .  .  .  .  .  .  .  .  .  .
 72
   65
 73
    2
 40
12.7
 49
0
 74
    0
 49
-12.7
 74
    0
  0
LTYPE
  5
36
330
5
100
AcDbSymbolTableRecord
100
AcDbLinetypeTableRecord
  2
DASHED
 70
    0
  3
Dashed _ _ _ _ _ _ _ _ _ _ _ _ _ _ _ _ _
 72
   65
 73
    2
 40
19.05
 49
12.7
 74
    0
 49
-6.35
 74
    0
  0
LTYPE
  5
37
330
5
100
AcDbSymbolTableRecord
100
AcDbLinetypeTableRecord
  2
DASHEDTINY
 70
    0
  3
Dashed (.15x) _ _ _ _ _ _ _ _ _ _ _ _ _ _ _ _ _
 72
   65
 73
    2
 40
2.8575
 49
1.905
 74
    0
 49
-0.9525
 74
    0
  0
LTYPE
  5
38
330
5
100
AcDbSymbolTableRecord
100
AcDbLinetypeTableRecord
  2
DASHED2
 70
    0
  3
Dashed (.5x) _ _ _ _ _ _ _ _ _ _ _ _ _ _ _ _ _
 72
   65
 73
    2
 40
9.524999999999999
 49
6.35
 74
    0
 49
-3.175
 74
    0
  0
LTYPE
  5
39
330
5
100
AcDbSymbolTableRecord
100
AcDbLinetypeTableRecord
  2
DASHEDX2
 70
    0
  3
Dashed (2x) ____  ____  ____  ____  ____  ___
 72
   65
 73
    2
 40
38.09999999999999
 49
25.4
 74
    0
 49
-12.7
 74
    0
  0
LTYPE
  5
3A
330
5
100
AcDbSymbolTableRecord
100
AcDbLinetypeTableRecord
  2
DASHDOT
 70
    0
  3
Dash dot __ . __ . __ . __ . __ . __ . __ . __
 72
   65
 73
    4
 40
25.4
 49
12.7
 74
    0
 49
-6.35
 74
    0
 49
0
 74
    0
 49
-6.35
 74
    0
  0
LTYPE
  5
3B
330
5
100
AcDbSymbolTableRecord
100
AcDbLinetypeTableRecord
  2
DASHDOTTINY
 70
    0
  3
Dash dot (.15x) _._._._._._._._._._._._._._._.
 72
   65
 73
    4
 40
3.81
 49
1.905
 74
    0
 49
-0.9525
 74
    0
 49
0
 74
    0
 49
-0.9525
 74
    0
  0
LTYPE
  5
3C
330
5
100
AcDbSymbolTableRecord
100
AcDbLinetypeTableRecord
  2
DASHDOT2
 70
    0
  3
Dash dot (.5x) _._._._._._._._._._._._._._._.
 72
   65
 73
    4
 40
12.7
 49
6.35
 74
    0
 49
-3.175
 74
    0
 49
0
 74
    0
 49
-3.175
 74
    0
  0
LTYPE
  5
3D
330
5
100
AcDbSymbolTableRecord
100
AcDbLinetypeTableRecord
  2
DASHDOTX2
 70
    0
  3
Dash dot (2x) ____  .  ____  .  ____  .  ___
 72
   65
 73
    4
 40
50.8
 49
25.4
 74
    0
 49
-12.7
 74
    0
 49
0
 74
    0
 49
-12.7
 74
    0
  0
LTYPE
  5
3E
330
5
100
AcDbSymbolTableRecord
100
AcDbLinetypeTableRecord
  2
DIVIDE
 70
    0
  3
Divide ____ . . ____ . . ____ . . ____ . . ____
 72
   65
 73
    6
 40
31.75
 49
12.7
 74
    0
 49
-6.35
 74
    0
 49
0
 74
    0
 49
-6.35
 74
    0
 49
0
 74
    0
 49
-6.35
 74
    0
  0
LTYPE
  5
3F
330
5
100
AcDbSymbolTableRecord
100
AcDbLinetypeTableRecord
  2
DIVIDETINY
 70
    0
  3
Divide (.15x) __..__..__..__..__..__..__..__.._
 72
   65
 73
    6
 40
4.7625
 49
1.905
 74
    0
 49
-0.9525
 74
    0
 49
0
 74
    0
 49
-0.9525
 74
    0
 49
0
 74
    0
 49
-0.9525
 74
    0
  0
LTYPE
  5
40
330
5
100
AcDbSymbolTableRecord
100
AcDbLinetypeTableRecord
  2
DIVIDE2
 70
    0
  3
Divide (.5x) __..__..__..__..__..__..__..__.._
 72
   65
 73
    6
 40
15.875
 49
6.35
 74
    0
 49
-3.175
 74
    0
 49
0
 74
    0
 49
-3.175
 74
    0
 49
0
 74
    0
 49
-3.175
 74
    0
  0
LTYPE
  5
41
330
5
100
AcDbSymbolTableRecord
100
AcDbLinetypeTableRecord
  2
DIVIDEX2
 70
    0
  3
Divide (2x) ________  .  .  ________  .  .  _
 72
   65
 73
    6
 40
63.5
 49
25.4
 74
    0
 49
-12.7
 74
    0
 49
0
 74
    0
 49
-12.7
 74
    0
 49
0
 74
    0
 49
-12.7
 74
    0
  0
LTYPE
  5
42
330
5
100
AcDbSymbolTableRecord
100
AcDbLinetypeTableRecord
  2
BORDER
 70
    0
  3
Border __ __ . __ __ . __ __ . __ __ . __ __ .
 72
   65
 73
    6
 40
44.45
 49
12.7
 74
    0
 49
-6.35
 74
    0
 49
12.7
 74
    0
 49
-6.35
 74
    0
 49
0
 74
    0
 49
-6.35
 74
    0
  0
LTYPE
  5
43
330
5
100
AcDbSymbolTableRecord
100
AcDbLinetypeTableRecord
  2
BORDERTINY
 70
    0
  3
Border (.15x) __.__.__.__.__.__.__.__.__.__.__.
 72
   65
 73
    6
 40
6.6675
 49
1.905
 74
    0
 49
-0.9525
 74
    0
 49
1.905
 74
    0
 49
-0.9525
 74
    0
 49
0
 74
    0
 49
-0.9525
 74
    0
  0
LTYPE
  5
44
330
5
100
AcDbSymbolTableRecord
100
AcDbLinetypeTableRecord
  2
BORDER2
 70
    0
  3
Border (.5x) __.__.__.__.__.__.__.__.__.__.__.
 72
   65
 73
    6
 40
22.225
 49
6.35
 74
    0
 49
-3.175
 74
    0
 49
6.35
 74
    0
 49
-3.175
 74
    0
 49
0
 74
    0
 49
-3.175
 74
    0
  0
LTYPE
  5
45
330
5
100
AcDbSymbolTableRecord
100
AcDbLinetypeTableRecord
  2
BORDERX2
 70
    0
  3
Border (2x) ____  ____  .  ____  ____  .  ___
 72
   65
 73
    6
 40
88.89999999999999
 49
25.4
 74
    0
 49
-12.7
 74
    0
 49
25.4
 74
    0
 49
-12.7
 74
    0
 49
0
 74
    0
 49
-12.7
 74
    0
  0
LTYPE
  5
46
330
5
100
AcDbSymbolTableRecord
100
AcDbLinetypeTableRecord
  2
CENTER
 70
    0
  3
Center ____ _ ____ _ ____ _ ____ _ ____ _ ____
 72
   65
 73
    4
 40
50.8
 49
31.75
 74
    0
 49
-6.35
 74
    0
 49
6.35
 74
    0
 49
-6.35
 74
    0
  0
LTYPE
  5
47
330
5
100
AcDbSymbolTableRecord
100
AcDbLinetypeTableRecord
  2
CENTERTINY
 70
    0
  3
Center (.15x) ___ _ ___ _ ___ _ ___ _ ___ _ ___
 72
   65
 73
    4
 40
7.619999999999999
 49
4.7625
 74
    0
 49
-0.9525
 74
    0
 49
0.9525
 74
    0
 49
-0.9525
 74
    0
  0
LTYPE
  5
48
330
5
100
AcDbSymbolTableRecord
100
AcDbLinetypeTableRecord
  2
CENTER2
 70
    0
  3
Center (.5x) ___ _ ___ _ ___ _ ___ _ ___ _ ___
 72
   65
 73
    4
 40
28.575
 49
19.05
 74
    0
 49
-3.175
 74
    0
 49
3.175
 74
    0
 49
-3.175
 74
    0
  0
LTYPE
  5
49
330
5
100
AcDbSymbolTableRecord
100
AcDbLinetypeTableRecord
  2
CENTERX2
 70
    0
  3
Center (2x) ________  __  ________  __  _____
 72
   65
 73
    4
 40
101.6
 49
63.5
 74
    0
 49
-12.7
 74
    0
 49
12.7
 74
    0
 49
-12.7
 74
    0
  0
ENDTAB
  0
TABLE
  2
LAYER
  5
2
330
0
100
AcDbSymbolTable
 70
    1
  0
LAYER
  5
10
330
2
100
AcDbSymbolTableRecord
100
AcDbLayerTableRecord
  2
0
 70
    0
 62
    7
  6
CONTINUOUS
370
   -3
390
F
  0
LAYER
  5
4A
330
2
100
AcDbSymbolTableRecord
100
AcDbLayerTableRecord
  2
pocket
 70
    0
 62
    4
  6
CONTINUOUS
370
    0
390
F
  0
LAYER
  5
4B
330
2
100
AcDbSymbolTableRecord
100
AcDbLayerTableRecord
  2
profiling
 70
    0
 62
    3
  6
CONTINUOUS
370
    0
390
F
  0
LAYER
  5
4C
330
2
100
AcDbSymbolTableRecord
100
AcDbLayerTableRecord
  2
vcut
 70
    0
 62
    6
  6
CONTINUOUS
370
    0
390
F
  0
ENDTAB
  0
TABLE
  2
STYLE
  5
3
330
0
100
AcDbSymbolTable
 70
    3
  0
STYLE
  5
4D
330
2
100
AcDbSymbolTableRecord
100
AcDbTextStyleTableRecord
  2
Standard
 70
    0
 40
0
 41
1
 50
0
 71
    0
 42
1
  3
txt
  4

  0
ENDTAB
  0
TABLE
  2
VIEW
  5
6
330
0
100
AcDbSymbolTable
 70
    0
  0
ENDTAB
  0
TABLE
  2
UCS
  5
7
330
0
100
AcDbSymbolTable
 70
    0
  0
ENDTAB
  0
TABLE
  2
APPID
  5
9
330
0
100
AcDbSymbolTable
 70
    1
  0
APPID
  5
12
330
9
100
AcDbSymbolTableRecord
100
AcDbRegAppTableRecord
  2
ACAD
 70
    0
  0
APPID
  5
4E
330
9
100
AcDbSymbolTableRecord
100
AcDbRegAppTableRecord
  2
LibreCad
 70
    0
  0
ENDTAB
  0
TABLE
  2
DIMSTYLE
  5
A
330
0
100
AcDbSymbolTable
 70
    1
100
AcDbDimStyleTable
 71
    1
  0
DIMSTYLE
105
4F
330
A
100
AcDbSymbolTableRecord
100
AcDbDimStyleTableRecord
  2
Standard
 70
    0
 40
1
 41
2.5
 42
0.625
 43
0.38
 44
1.25
 45
0
 46
0
 47
0
 48
0
 49
1
140
2.5
141
0.09
142
2.5
143
25.4
144
1
145
0
146
1
147
0.625
148
0
 71
    0
 72
    0
 73
    0
 74
    1
 75
    0
 76
    0
 77
    0
 78
    1
 79
    0
170
    0
171
    2
172
    0
173
    0
174
    0
175
    0
176
    0
177
    0
178
    0
179
    0
271
    2
272
    4
273
    2
274
    2
275
    0
276
    0
277
    2
278
    0
279
    0
280
    0
281
    0
282
    0
283
    1
284
    0
285
    0
286
    0
288
    0
289
    3
340
standard
341

371
   -2
372
   -2
  0
ENDTAB
  0
TABLE
  2
BLOCK_RECORD
  5
1
330
0
100
AcDbSymbolTable
 70
    2
  0
BLOCK_RECORD
  5
1F
330
1
100
AcDbSymbolTableRecord
100
AcDbBlockTableRecord
  2
*Model_Space
 70
    0
280
    1
281
    0
  0
BLOCK_RECORD
  5
1E
330
1
100
AcDbSymbolTableRecord
100
AcDbBlockTableRecord
  2
*Paper_Space
 70
    0
280
    1
281
    0
  0
ENDTAB
  0
ENDSEC
  0
SECTION
  2
BLOCKS
  0
BLOCK
  5
20
330
1F
100
AcDbEntity
  8
0
100
AcDbBlockBegin
  2
*Model_Space
 70
    0
 10
0
 20
0
 30
0
  3
*Model_Space
  1

  0
ENDBLK
  5
21
330
1F
100
AcDbEntity
  8
0
100
AcDbBlockEnd
  0
BLOCK
  5
1C
330
1B
100
AcDbEntity
  8
0
100
AcDbBlockBegin
  2
*Paper_Space
 70
    0
 10
0
 20
0
 30
0
  3
*Paper_Space
  1

  0
ENDBLK
  5
1D
330
1F
100
AcDbEntity
  8
0
100
AcDbBlockEnd
  0
ENDSEC
  0
SECTION
  2
ENTITIES
  0
LWPOLYLINE
  5
50
100
AcDbEntity
  8
vcut
  6
ByLayer
 62
  256
370
   -1
100
AcDbPolyline
 90
    2
 70
    0
 43
0
 10
902.4
 20
666.57825
 10
902.4
 20
789.25125
  0
LWPOLYLINE
  5
51
100
AcDbEntity
  8
vcut
  6
ByLayer
 62
  256
370
   -1
100
AcDbPolyline
 90
    2
 70
    0
 43
0
 10
921.98325
 20
666.57825
 10
921.98325
 20
789.25125
  0
LWPOLYLINE
  5
52
100
AcDbEntity
  8
profiling
  6
ByLayer
 62
  256
370
   -1
100
AcDbPolyline
 90
  309
 70
    1
 43
0
 10
881.21775
 20
684.981
 10
881.8395
 20
685.1369999999999
 10
882.4425
 20
685.353
 10
883.0214999999999
 20
685.62675
 10
883.57125
 20
685.956
 10
884.08575
 20
686.33775
 10
884.08575
 20
686.33775
 10
884.5605
 20
686.76825
 10
884.991
 20
687.2430000000001
 10
885.37275
 20
687.7575000000001
 10
885.702
 20
688.30725
 10
885.9757499999999
 20
688.88625
 10
886.19175
 20
689.48925
 10
886.34775
 20
690.111
 10
886.4415
 20
690.74475
 10
886.473
 20
691.3845
 10
886.473
 20
700.1265
 10
886.473
 20
700.1265
 10
886.473
 20
700.1265
 10
893.27625
 20
700.1265
 10
893.29125
 20
700.12725
 10
893.814
 20
700.149
 10
894.348
 20
700.21575
 10
894.8745
 20
700.326
 10
895.3905
 20
700.47975
 10
895.3905
 20
700.47975
 10
895.89225
 20
700.6755000000001
 10
896.376
 20
700.91175
 10
896.83875
 20
701.187
 10
897.27675
 20
701.4997499999999
 10
897.6877500000001
 20
701.84775
 10
898.06875
 20
702.228
 10
898.41675
 20
702.639
 10
898.7295
 20
703.077
 10
899.0047499999999
 20
703.53975
 10
899.241
 20
704.0235
 10
899.43675
 20
704.52525
 10
899.5905
 20
705.04125
 10
899.70075
 20
705.56775
 10
899.7675
 20
706.10175
 10
899.79
 20
706.6395
 10
899.79
 20
727.9155
 10
899.79
 20
749.1915
 10
899.7675
 20
749.72925
 10
899.70075
 20
750.26325
 10
899.5905
 20
750.78975
 10
899.43675
 20
751.30575
 10
899.241
 20
751.8075
 10
899.0047499999999
 20
752.29125
 10
898.7295
 20
752.754
 10
898.41675
 20
753.192
 10
898.06875
 20
753.603
 10
897.6877500000001
 20
753.98325
 10
897.27675
 20
754.33125
 10
896.83875
 20
754.644
 10
896.376
 20
754.91925
 10
895.89225
 20
755.1555
 10
895.3905
 20
755.3512500000001
 10
894.8745
 20
755.505
 10
894.348
 20
755.6152499999999
 10
894.2265
 20
755.63025
 10
893.814
 20
755.682
 10
893.29125
 20
755.70375
 10
893.27625
 20
755.7045000000001
 10
886.473
 20
755.7045000000001
 10
886.473
 20
755.7045000000001
 10
886.473
 20
755.7045000000001
 10
886.473
 20
764.4465
 10
886.4415
 20
765.0862499999999
 10
886.34775
 20
765.72
 10
886.19175
 20
766.34175
 10
885.9757499999999
 20
766.94475
 10
885.702
 20
767.5237499999999
 10
885.37275
 20
768.0735
 10
884.991
 20
768.588
 10
884.56125
 20
769.062
 10
884.56125
 20
769.062
 10
884.0865
 20
769.4924999999999
 10
884.0865
 20
769.4924999999999
 10
883.572
 20
769.87425
 10
883.02225
 20
770.2035
 10
882.44325
 20
770.47725
 10
881.84025
 20
770.69325
 10
881.2184999999999
 20
770.84925
 10
880.58475
 20
770.943
 10
880.04775
 20
770.96925
 10
879.9450000000001
 20
770.9745
 10
869.18175
 20
770.9745
 10
839.4765
 20
770.9745
 10
839.4765
 20
770.9745
 10
839.4765
 20
770.9745
 10
774.6855
 20
770.9745
 10
774.6855
 20
770.9745
 10
774.6855
 20
770.9745
 10
774.6855
 20
789.252
 10
774.6855
 20
789.252
 10
774.6855
 20
789.252
 10
842.83425
 20
789.252
 10
869.18175
 20
789.252
 10
886.47225
 20
789.252
 10
886.47225
 20
789.252
 10
886.47225
 20
789.252
 10
893.27625
 20
789.252
 10
900.44175
 20
789.252
 10
904.95075
 20
789.252
 10
905.0115
 20
789.252
 10
905.0115
 20
789.252
 10
904.95075
 20
778.23375
 10
904.968
 20
778.06125
 10
905.0115
 20
777.6195
 10
905.10975
 20
777.288
 10
905.19975
 20
776.985
 10
905.3557499999999
 20
776.69325
 10
905.50125
 20
776.42025
 10
905.69625
 20
776.1825
 10
905.907
 20
775.926
 10
906.14175
 20
775.73325
 10
906.402
 20
775.5195
 10
906.777
 20
775.3185
 10
906.966
 20
775.21725
 10
907.1265
 20
775.1685
 10
907.578
 20
775.03125
 10
908.21475
 20
774.96825
 10
912.192
 20
774.96825
 10
916.16925
 20
774.96825
 10
916.806
 20
775.03125
 10
917.418
 20
775.21725
 10
917.982
 20
775.51875
 10
918.4762500000001
 20
775.9245
 10
918.8819999999999
 20
776.41875
 10
919.1835
 20
776.98275
 10
919.37175
 20
777.61725
 10
919.4325
 20
778.2315
 10
919.37175
 20
789.2497499999999
 10
919.37175
 20
789.2497499999999
 10
919.4325
 20
789.2497499999999
 10
923.9415
 20
789.2497499999999
 10
931.107
 20
789.2497499999999
 10
937.9109999999999
 20
789.2497499999999
 10
937.9109999999999
 20
789.2497499999999
 10
937.9109999999999
 20
789.2497499999999
 10
955.2015
 20
789.2497499999999
 10
981.549
 20
789.2497499999999
 10
1049.69775
 20
789.2497499999999
 10
1049.69775
 20
789.2497499999999
 10
1049.69775
 20
789.2497499999999
 10
1049.69775
 20
770.97225
 10
1049.69775
 20
770.97225
 10
1049.69775
 20
770.97225
 10
984.90675
 20
770.97225
 10
984.90675
 20
770.97225
 10
984.90675
 20
770.97225
 10
955.2015
 20
770.97225
 10
944.43825
 20
770.97225
 10
944.3355
 20
770.967
 10
943.7985
 20
770.94075
 10
943.16475
 20
770.847
 10
942.543
 20
770.691
 10
941.9400000000001
 20
770.475
 10
941.361
 20
770.20125
 10
940.81125
 20
769.872
 10
940.29675
 20
769.4902499999999
 10
939.822
 20
769.05975
 10
939.3915
 20
768.585
 10
939.0097500000001
 20
768.0705
 10
938.6805000000001
 20
767.52075
 10
938.40675
 20
766.94175
 10
938.19075
 20
766.33875
 10
938.03475
 20
765.717
 10
937.941
 20
765.08325
 10
937.9095
 20
764.4435
 10
937.9095
 20
755.7015
 10
937.9095
 20
755.7015
 10
937.9095
 20
755.7015
 10
931.10625
 20
755.7015
 10
931.0912499999999
 20
755.70075
 10
930.5685
 20
755.679
 10
930.0345
 20
755.61225
 10
929.508
 20
755.502
 10
928.992
 20
755.34825
 10
928.4902499999999
 20
755.1525
 10
928.0065
 20
754.91625
 10
927.54375
 20
754.641
 10
927.1057499999999
 20
754.32825
 10
926.69475
 20
753.98025
 10
926.31375
 20
753.6
 10
925.96575
 20
753.189
 10
925.653
 20
752.751
 10
925.37775
 20
752.2882499999999
 10
925.1415
 20
751.8045
 10
924.94575
 20
751.3027499999999
 10
924.792
 20
750.78675
 10
924.68175
 20
750.26025
 10
924.615
 20
749.7262500000001
 10
924.5925
 20
749.1885
 10
924.5925
 20
727.9125
 10
924.5925
 20
706.6365
 10
924.615
 20
706.09875
 10
924.651
 20
705.81075
 10
924.68175
 20
705.56475
 10
924.792
 20
705.0382499999999
 10
924.94575
 20
704.52225
 10
925.1415
 20
704.0205
 10
925.37775
 20
703.53675
 10
925.653
 20
703.074
 10
925.96575
 20
702.636
 10
926.31375
 20
702.225
 10
926.69475
 20
701.84475
 10
927.1057499999999
 20
701.49675
 10
927.1057499999999
 20
701.49675
 10
927.1057499999999
 20
701.49675
 10
927.54375
 20
701.184
 10
928.0065
 20
700.9087500000001
 10
928.4902499999999
 20
700.6725
 10
928.992
 20
700.47675
 10
928.992
 20
700.47675
 10
929.508
 20
700.323
 10
930.0345
 20
700.21275
 10
930.5685
 20
700.146
 10
931.10625
 20
700.1235
 10
937.9095
 20
700.1235
 10
937.9095
 20
700.1235
 10
937.9095
 20
700.1235
 10
937.9095
 20
691.3815
 10
937.941
 20
690.74175
 10
938.03475
 20
690.1079999999999
 10
938.19075
 20
689.48625
 10
938.40675
 20
688.88325
 10
938.535
 20
688.61175
 10
938.6805000000001
 20
688.30425
 10
939.0097500000001
 20
687.7545
 10
939.3915
 20
687.24
 10
939.822
 20
686.76525
 10
940.29675
 20
686.33475
 10
940.503
 20
686.18175
 10
940.81125
 20
685.953
 10
941.361
 20
685.62375
 10
941.9400000000001
 20
685.35
 10
942.543
 20
685.134
 10
943.16475
 20
684.978
 10
943.7985
 20
684.88425
 10
944.43825
 20
684.85275
 10
955.2015
 20
684.85275
 10
984.90675
 20
684.85275
 10
984.90675
 20
684.85275
 10
984.90675
 20
684.85275
 10
1049.69775
 20
684.85275
 10
1049.69775
 20
684.85275
 10
1049.69775
 20
684.85275
 10
1049.69775
 20
666.57525
 10
1049.69775
 20
666.57525
 10
1049.69775
 20
666.57525
 10
981.549
 20
666.57525
 10
955.2015
 20
666.57525
 10
937.9109999999999
 20
666.57525
 10
937.9109999999999
 20
666.57525
 10
937.9109999999999
 20
666.57525
 10
931.107
 20
666.57525
 10
923.9415
 20
666.57525
 10
919.4325
 20
666.57525
 10
919.37175
 20
666.57525
 10
919.37175
 20
666.57525
 10
919.4325
 20
677.5934999999999
 10
919.37175
 20
678.20775
 10
919.1835
 20
678.84225
 10
918.8819999999999
 20
679.40625
 10
918.4762500000001
 20
679.9005
 10
917.982
 20
680.30625
 10
917.418
 20
680.60775
 10
916.806
 20
680.79375
 10
916.16925
 20
680.85675
 10
912.192
 20
680.85675
 10
908.21475
 20
680.85675
 10
907.578
 20
680.79375
 10
907.1265
 20
680.6565000000001
 10
906.966
 20
680.60775
 10
906.777
 20
680.5065
 10
906.402
 20
680.3055000000001
 10
906.14175
 20
680.09175
 10
905.907
 20
679.899
 10
905.69625
 20
679.6425
 10
905.50125
 20
679.40475
 10
905.19975
 20
678.84075
 10
905.0115
 20
678.20625
 10
904.968
 20
677.7645
 10
904.95075
 20
677.592
 10
905.0115
 20
666.57375
 10
905.0115
 20
666.57375
 10
904.95075
 20
666.57375
 10
900.44175
 20
666.57375
 10
893.27625
 20
666.57375
 10
886.47225
 20
666.57375
 10
886.47225
 20
666.57375
 10
886.47225
 20
666.57375
 10
869.18175
 20
666.57375
 10
842.83425
 20
666.57375
 10
774.6855
 20
666.57375
 10
774.6855
 20
666.57375
 10
774.6855
 20
666.57375
 10
774.6855
 20
684.8512500000001
 10
774.6855
 20
684.8512500000001
 10
774.6855
 20
684.8512500000001
 10
839.4765
 20
684.8512500000001
 10
839.4765
 20
684.8512500000001
 10
839.4765
 20
684.8512500000001
 10
869.18175
 20
684.8512500000001
 10
879.9450000000001
 20
684.8512500000001
 10
880.58475
 20
684.88275
 10
881.2184999999999
 20
684.9765
  0
LWPOLYLINE
  5
53
100
AcDbEntity
  8
profiling
  6
ByLayer
 62
  256
370
   -1
100
AcDbPolyline
 90
   36
 70
    1
 43
0
 10
781.1115
 20
781.70775
 10
780.73725
 20
781.008
 10
780.5069999999999
 20
780.249
 10
780.429
 20
779.45925
 10
780.5069999999999
 20
778.6695
 10
780.73725
 20
777.9105
 10
781.1115
 20
777.21075
 10
781.61475
 20
776.59725
 10
782.22825
 20
776.0940000000001
 10
782.928
 20
775.71975
 10
783.687
 20
775.4895
 10
784.47675
 20
775.4115
 10
785.2665
 20
775.4895
 10
786.0255
 20
775.71975
 10
786.72525
 20
776.0940000000001
 10
787.33875
 20
776.59725
 10
787.4625
 20
776.748
 10
787.842
 20
777.21075
 10
788.2162499999999
 20
777.9105
 10
788.4465
 20
778.6695
 10
788.48325
 20
779.04375
 10
788.5245
 20
779.45925
 10
788.4465
 20
780.249
 10
788.2215
 20
780.9915
 10
788.2162499999999
 20
781.00875
 10
787.842
 20
781.7085
 10
787.33875
 20
782.322
 10
786.72525
 20
782.82525
 10
786.0255
 20
783.1994999999999
 10
785.2665
 20
783.42975
 10
784.47675
 20
783.50775
 10
783.687
 20
783.42975
 10
782.928
 20
783.1994999999999
 10
782.22825
 20
782.82525
 10
781.61475
 20
782.322
 10
781.1115
 20
781.7085
  0
LWPOLYLINE
  5
54
100
AcDbEntity
  8
profiling
  6
ByLayer
 62
  256
370
   -1
100
AcDbPolyline
 90
   40
 70
    1
 43
0
 10
826.38375
 20
781.70775
 10
826.0095
 20
781.008
 10
825.77925
 20
780.249
 10
825.77925
 20
780.249
 10
825.70125
 20
779.45925
 10
825.77925
 20
778.6695
 10
825.9135
 20
778.2255
 10
826.0095
 20
777.90975
 10
826.38375
 20
777.21
 10
826.8869999999999
 20
776.5965
 10
827.5005
 20
776.09325
 10
828.168
 20
775.737
 10
828.20025
 20
775.71975
 10
828.95925
 20
775.4895
 10
829.749
 20
775.4115
 10
830.5387500000001
 20
775.4895
 10
831.29775
 20
775.71975
 10
831.9974999999999
 20
776.0940000000001
 10
832.611
 20
776.59725
 10
833.11425
 20
777.21075
 10
833.4885
 20
777.9105
 10
833.71875
 20
778.6695
 10
833.79675
 20
779.45925
 10
833.71875
 20
780.249
 10
833.4885
 20
781.008
 10
833.11425
 20
781.70775
 10
832.611
 20
782.32125
 10
831.9974999999999
 20
782.8244999999999
 10
831.29775
 20
783.19875
 10
831.1777499999999
 20
783.23475
 10
830.5387500000001
 20
783.429
 10
829.749
 20
783.5069999999999
 10
828.95925
 20
783.429
 10
828.75525
 20
783.3674999999999
 10
828.20025
 20
783.19875
 10
827.5005
 20
782.8244999999999
 10
827.151
 20
782.538
 10
826.8869999999999
 20
782.32125
 10
826.578
 20
781.94475
 10
826.38375
 20
781.7085
  0
LWPOLYLINE
  5
55
100
AcDbEntity
  8
profiling
  6
ByLayer
 62
  256
370
   -1
100
AcDbPolyline
 90
   37
 70
    1
 43
0
 10
871.3095
 20
779.7045000000001
 10
871.3755
 20
779.487
 10
871.42875
 20
779.3122499999999
 10
871.6215
 20
778.95075
 10
871.881
 20
778.63425
 10
872.1975
 20
778.3747499999999
 10
872.559
 20
778.182
 10
872.706
 20
778.13775
 10
872.95125
 20
778.0635
 10
873.3585
 20
778.0237499999999
 10
873.76575
 20
778.0635
 10
874.15725
 20
778.182
 10
874.518
 20
778.3747499999999
 10
874.8345
 20
778.63425
 10
875.0940000000001
 20
778.95075
 10
875.28675
 20
779.3122499999999
 10
875.40525
 20
779.70375
 10
875.44575
 20
780.111
 10
875.40525
 20
780.51825
 10
875.28675
 20
780.9105
 10
875.0940000000001
 20
781.272
 10
874.8345
 20
781.5885
 10
874.518
 20
781.848
 10
874.15725
 20
782.04075
 10
873.76575
 20
782.15925
 10
873.3585
 20
782.19975
 10
873.04725
 20
782.169
 10
872.95125
 20
782.15925
 10
872.73675
 20
782.0940000000001
 10
872.559
 20
782.04
 10
872.1975
 20
781.84725
 10
871.881
 20
781.58775
 10
871.6215
 20
781.27125
 10
871.42875
 20
780.90975
 10
871.3095
 20
780.51825
 10
871.269
 20
780.111
 10
871.3095
 20
779.70375
  0
LWPOLYLINE
  5
56
100
AcDbEntity
  8
profiling
  6
ByLayer
 62
  256
370
   -1
100
AcDbPolyline
 90
   39
 70
    1
 43
0
 10
951.432
 20
677.766
 10
951.02475
 20
677.8065
 10
950.6174999999999
 20
677.766
 10
950.58
 20
677.7547499999999
 10
950.22525
 20
677.6475
 10
949.8645
 20
677.45475
 10
949.548
 20
677.19525
 10
949.2885
 20
676.87875
 10
949.09575
 20
676.51725
 10
948.97725
 20
676.12575
 10
948.93675
 20
675.7184999999999
 10
948.97725
 20
675.31125
 10
949.09575
 20
674.919
 10
949.2885
 20
674.5575
 10
949.548
 20
674.241
 10
949.67475
 20
674.13675
 10
949.8645
 20
673.9815
 10
950.22525
 20
673.7887500000001
 10
950.61675
 20
673.67025
 10
951.024
 20
673.6305
 10
951.33525
 20
673.66125
 10
951.43125
 20
673.671
 10
951.64575
 20
673.73625
 10
951.8235
 20
673.79025
 10
952.1849999999999
 20
673.9829999999999
 10
952.5015
 20
674.2424999999999
 10
952.761
 20
674.559
 10
952.95375
 20
674.9204999999999
 10
953.073
 20
675.312
 10
953.1135
 20
675.71925
 10
953.073
 20
676.1265
 10
952.95375
 20
676.518
 10
952.761
 20
676.8795
 10
952.5015
 20
677.196
 10
952.485
 20
677.2095
 10
952.1849999999999
 20
677.4555
 10
951.86775
 20
677.625
 10
951.8235
 20
677.64825
 10
951.43125
 20
677.76675
  0
LWPOLYLINE
  5
57
100
AcDbEntity
  8
profiling
  6
ByLayer
 62
  256
370
   -1
100
AcDbPolyline
 90
   39
 70
    1
 43
0
 10
853.3695
 20
673.9807499999999
 10
853.686
 20
674.2402499999999
 10
853.9455
 20
674.55675
 10
854.13825
 20
674.9182499999999
 10
854.145
 20
674.94075
 10
854.25675
 20
675.3105
 10
854.2965
 20
675.71775
 10
854.25675
 20
676.125
 10
854.1375
 20
676.5165
 10
853.94475
 20
676.878
 10
853.79625
 20
677.05875
 10
853.68525
 20
677.1944999999999
 10
853.48125
 20
677.36175
 10
853.36875
 20
677.454
 10
853.00725
 20
677.64675
 10
852.61575
 20
677.76525
 10
852.24825
 20
677.80125
 10
852.2085
 20
677.8049999999999
 10
851.80125
 20
677.7645
 10
851.40975
 20
677.646
 10
851.0482500000001
 20
677.45325
 10
850.93575
 20
677.361
 10
850.73175
 20
677.19375
 10
850.47225
 20
676.87725
 10
850.2795
 20
676.51575
 10
850.16025
 20
676.12425
 10
850.1205
 20
675.717
 10
850.16025
 20
675.30975
 10
850.272
 20
674.9400000000001
 10
850.2787499999999
 20
674.9175
 10
850.4715
 20
674.556
 10
850.731
 20
674.2395
 10
851.0475
 20
673.98
 10
851.409
 20
673.78725
 10
851.8005000000001
 20
673.66875
 10
852.20775
 20
673.62825
 10
852.615
 20
673.668
 10
853.0065
 20
673.7865
 10
853.3680000000001
 20
673.97925
  0
LWPOLYLINE
  5
58
100
AcDbEntity
  8
profiling
  6
ByLayer
 62
  256
370
   -1
100
AcDbPolyline
 90
   40
 70
    1
 43
0
 10
782.92725
 20
680.10975
 10
782.2275
 20
679.7355
 10
782.03325
 20
679.57575
 10
781.61475
 20
679.23225
 10
781.1115
 20
678.61875
 10
780.73725
 20
677.919
 10
780.5069999999999
 20
677.16
 10
780.429
 20
676.3702500000001
 10
780.5069999999999
 20
675.5805
 10
780.723
 20
674.86875
 10
780.73725
 20
674.8215
 10
781.1115
 20
674.12175
 10
781.61475
 20
673.50825
 10
782.22825
 20
673.005
 10
782.928
 20
672.63075
 10
783.687
 20
672.4005
 10
784.47675
 20
672.3225
 10
785.2665
 20
672.4005
 10
786.0255
 20
672.63075
 10
786.72525
 20
673.005
 10
787.33875
 20
673.50825
 10
787.842
 20
674.12175
 10
788.2162499999999
 20
674.8215
 10
788.2215
 20
674.83875
 10
788.4465
 20
675.58125
 10
788.5245
 20
676.371
 10
788.4675
 20
676.95075
 10
788.4465
 20
677.16075
 10
788.4465
 20
677.16075
 10
788.35725
 20
677.4555
 10
788.2162499999999
 20
677.91975
 10
788.01675
 20
678.2932499999999
 10
787.842
 20
678.6195
 10
787.33875
 20
679.2329999999999
 10
786.72525
 20
679.73625
 10
786.0255
 20
680.1105
 10
785.2665
 20
680.34075
 10
784.47675
 20
680.41875
 10
783.687
 20
680.34075
 10
782.928
 20
680.1105
  0
LWPOLYLINE
  5
59
100
AcDbEntity
  8
profiling
  6
ByLayer
 62
  256
370
   -1
100
AcDbPolyline
 90
   38
 70
    1
 43
0
 10
828.16725
 20
680.0925
 10
827.4997499999999
 20
679.73625
 10
826.88625
 20
679.2329999999999
 10
826.383
 20
678.6195
 10
826.00875
 20
677.91975
 10
825.86775
 20
677.4555
 10
825.7785
 20
677.16075
 10
825.7785
 20
677.16075
 10
825.7005
 20
676.371
 10
825.7785
 20
675.58125
 10
826.00875
 20
674.8222500000001
 10
826.383
 20
674.1224999999999
 10
826.57725
 20
673.88625
 10
826.88625
 20
673.5097500000001
 10
827.0700000000001
 20
673.359
 10
827.4997499999999
 20
673.0065
 10
828.1994999999999
 20
672.63225
 10
828.9585
 20
672.402
 10
829.74825
 20
672.324
 10
830.538
 20
672.402
 10
831.297
 20
672.63225
 10
831.99675
 20
673.0065
 10
832.61025
 20
673.5097500000001
 10
833.1135
 20
674.12325
 10
833.48775
 20
674.823
 10
833.718
 20
675.582
 10
833.796
 20
676.37175
 10
833.718
 20
677.1615
 10
833.48775
 20
677.9204999999999
 10
833.1135
 20
678.6202500000001
 10
832.61025
 20
679.23375
 10
831.99675
 20
679.737
 10
831.297
 20
680.11125
 10
830.538
 20
680.3415
 10
829.74825
 20
680.4195
 10
828.9585
 20
680.3415
 10
828.1994999999999
 20
680.11125
 10
828.16725
 20
680.0940000000001
  0
LWPOLYLINE
  5
5A
100
AcDbEntity
  8
profiling
  6
ByLayer
 62
  256
370
   -1
100
AcDbPolyline
 90
   36
 70
    1
 43
0
 10
871.881
 20
674.241
 10
872.1975
 20
673.9815
 10
872.559
 20
673.7887500000001
 10
872.95125
 20
673.67025
 10
873.04725
 20
673.6605
 10
873.3585
 20
673.6297499999999
 10
873.76575
 20
673.6695
 10
874.15725
 20
673.788
 10
874.518
 20
673.9807499999999
 10
874.8345
 20
674.2402499999999
 10
875.0940000000001
 20
674.55675
 10
875.25525
 20
674.85825
 10
875.2875
 20
674.9182499999999
 10
875.4059999999999
 20
675.3105
 10
875.4465
 20
675.71775
 10
875.4059999999999
 20
676.125
 10
875.2875
 20
676.5165
 10
875.09475
 20
676.878
 10
874.83525
 20
677.1944999999999
 10
874.51875
 20
677.454
 10
874.158
 20
677.64675
 10
873.7665
 20
677.76525
 10
873.35925
 20
677.80575
 10
872.952
 20
677.76525
 10
872.55975
 20
677.64675
 10
872.19825
 20
677.454
 10
871.88175
 20
677.1944999999999
 10
871.62225
 20
676.878
 10
871.4295
 20
676.5165
 10
871.37625
 20
676.34175
 10
871.31025
 20
676.12425
 10
871.26975
 20
675.717
 10
871.31025
 20
675.30975
 10
871.4295
 20
674.9182499999999
 10
871.62225
 20
674.55675
 10
871.88175
 20
674.2402499999999
  0
LWPOLYLINE
  5
5B
100
AcDbEntity
  8
profiling
  6
ByLayer
 62
  256
370
   -1
100
AcDbPolyline
 90
   36
 70
    1
 43
0
 10
850.73175
 20
778.63575
 10
851.0482500000001
 20
778.37625
 10
851.40975
 20
778.1835
 10
851.80125
 20
778.0650000000001
 10
852.2085
 20
778.02525
 10
852.24825
 20
778.029
 10
852.61575
 20
778.0650000000001
 10
853.00725
 20
778.1835
 10
853.36875
 20
778.37625
 10
853.68525
 20
778.63575
 10
853.94475
 20
778.95225
 10
854.1375
 20
779.31375
 10
854.25675
 20
779.706
 10
854.2965
 20
780.11325
 10
854.25675
 20
780.5205
 10
854.145
 20
780.89025
 10
854.13825
 20
780.91275
 10
853.9455
 20
781.2742500000001
 10
853.686
 20
781.59075
 10
853.3695
 20
781.85025
 10
853.008
 20
782.043
 10
852.6165
 20
782.1615
 10
852.20925
 20
782.202
 10
851.802
 20
782.1615
 10
851.4105
 20
782.043
 10
851.049
 20
781.85025
 10
850.7325
 20
781.59075
 10
850.473
 20
781.2742500000001
 10
850.28025
 20
780.91275
 10
850.2735
 20
780.89025
 10
850.16175
 20
780.5205
 10
850.122
 20
780.11325
 10
850.16175
 20
779.706
 10
850.2809999999999
 20
779.31375
 10
850.47375
 20
778.95225
 10
850.73325
 20
778.63575
  0
LWPOLYLINE
  5
5C
100
AcDbEntity
  8
profiling
  6
ByLayer
 62
  256
370
   -1
100
AcDbPolyline
 90
   36
 70
    1
 43
0
 10
1037.1015
 20
679.2787499999999
 10
1037.0445
 20
679.23225
 10
1036.54125
 20
678.61875
 10
1036.167
 20
677.919
 10
1035.93675
 20
677.16
 10
1035.85875
 20
676.3702500000001
 10
1035.906
 20
675.89175
 10
1035.93675
 20
675.5805
 10
1036.167
 20
674.8215
 10
1036.54125
 20
674.12175
 10
1037.0445
 20
673.50825
 10
1037.658
 20
673.005
 10
1038.35775
 20
672.63075
 10
1039.11675
 20
672.4005
 10
1039.9065
 20
672.3225
 10
1040.69625
 20
672.4005
 10
1041.45525
 20
672.63075
 10
1042.155
 20
673.005
 10
1042.7685
 20
673.50825
 10
1043.27175
 20
674.12175
 10
1043.646
 20
674.8215
 10
1043.87625
 20
675.5805
 10
1043.95425
 20
676.3702500000001
 10
1043.87625
 20
677.16
 10
1043.646
 20
677.919
 10
1043.27175
 20
678.61875
 10
1042.7685
 20
679.23225
 10
1042.155
 20
679.7355
 10
1041.45525
 20
680.10975
 10
1040.69625
 20
680.34
 10
1039.9065
 20
680.418
 10
1039.11675
 20
680.34
 10
1038.35775
 20
680.10975
 10
1038.009
 20
679.923
 10
1037.658
 20
679.7355
 10
1037.1015
 20
679.2787499999999
  0
LWPOLYLINE
  5
5D
100
AcDbEntity
  8
profiling
  6
ByLayer
 62
  256
370
   -1
100
AcDbPolyline
 90
   35
 70
    1
 43
0
 10
970.125
 20
676.125
 10
970.08525
 20
675.71775
 10
970.125
 20
675.3105
 10
970.24425
 20
674.9182499999999
 10
970.437
 20
674.55675
 10
970.6965
 20
674.2402499999999
 10
971.013
 20
673.9807499999999
 10
971.3745
 20
673.788
 10
971.766
 20
673.6695
 10
972.1732500000001
 20
673.6297499999999
 10
972.5805
 20
673.67025
 10
972.972
 20
673.7887500000001
 10
973.3335
 20
673.9815
 10
973.65
 20
674.241
 10
973.9095
 20
674.5575
 10
974.10225
 20
674.919
 10
974.22075
 20
675.31125
 10
974.25075
 20
675.61575
 10
974.26125
 20
675.7184999999999
 10
974.2215
 20
676.12575
 10
974.103
 20
676.51725
 10
973.91025
 20
676.87875
 10
973.65075
 20
677.19525
 10
973.33425
 20
677.45475
 10
972.97275
 20
677.6475
 10
972.58125
 20
677.766
 10
972.174
 20
677.8065
 10
972.13425
 20
677.8027499999999
 10
971.76675
 20
677.76675
 10
971.3752500000001
 20
677.64825
 10
971.01375
 20
677.4555
 10
970.6972500000001
 20
677.196
 10
970.4377500000001
 20
676.8795
 10
970.245
 20
676.518
 10
970.12575
 20
676.1265
  0
LWPOLYLINE
  5
5E
100
AcDbEntity
  8
profiling
  6
ByLayer
 62
  256
370
   -1
100
AcDbPolyline
 90
   37
 70
    1
 43
0
 10
991.269
 20
674.12175
 10
991.77225
 20
673.50825
 10
992.38575
 20
673.005
 10
992.9182499999999
 20
672.72075
 10
993.0855
 20
672.6315
 10
993.8445
 20
672.40125
 10
994.63425
 20
672.32325
 10
995.424
 20
672.40125
 10
996.183
 20
672.6315
 10
996.88275
 20
673.00575
 10
997.49625
 20
673.509
 10
997.80525
 20
673.8855
 10
997.9995
 20
674.12175
 10
998.37375
 20
674.8215
 10
998.604
 20
675.5805
 10
998.604
 20
675.5805
 10
998.682
 20
676.3702500000001
 10
998.604
 20
677.16
 10
998.37375
 20
677.919
 10
997.9995
 20
678.61875
 10
997.49625
 20
679.23225
 10
996.88275
 20
679.7355
 10
996.21525
 20
680.09175
 10
996.183
 20
680.109
 10
995.424
 20
680.33925
 10
994.63425
 20
680.41725
 10
993.8445
 20
680.33925
 10
993.0855
 20
680.109
 10
992.38575
 20
679.73475
 10
991.77225
 20
679.2315
 10
991.269
 20
678.6180000000001
 10
990.89475
 20
677.9182499999999
 10
990.6645
 20
677.15925
 10
990.5865
 20
676.3695
 10
990.6645
 20
675.57975
 10
990.89475
 20
674.82075
 10
991.269
 20
674.121
  0
LWPOLYLINE
  5
5F
100
AcDbEntity
  8
profiling
  6
ByLayer
 62
  256
370
   -1
100
AcDbPolyline
 90
   36
 70
    1
 43
0
 10
951.432
 20
778.0635
 10
951.82425
 20
778.182
 10
952.18575
 20
778.3747499999999
 10
952.50225
 20
778.63425
 10
952.76175
 20
778.95075
 10
952.9545000000001
 20
779.3122499999999
 10
953.07375
 20
779.70375
 10
953.11425
 20
780.111
 10
953.07375
 20
780.51825
 10
952.9545000000001
 20
780.90975
 10
952.76175
 20
781.27125
 10
952.50225
 20
781.58775
 10
952.18575
 20
781.84725
 10
951.82425
 20
782.04
 10
951.6464999999999
 20
782.0940000000001
 10
951.432
 20
782.15925
 10
951.336
 20
782.169
 10
951.02475
 20
782.19975
 10
950.6174999999999
 20
782.15925
 10
950.226
 20
782.04075
 10
949.8652499999999
 20
781.848
 10
949.54875
 20
781.5885
 10
949.28925
 20
781.272
 10
949.0965
 20
780.9105
 10
948.978
 20
780.51825
 10
948.9375
 20
780.111
 10
948.978
 20
779.70375
 10
949.0965
 20
779.3122499999999
 10
949.28925
 20
778.95075
 10
949.54875
 20
778.63425
 10
949.8652499999999
 20
778.3747499999999
 10
950.226
 20
778.182
 10
950.6174999999999
 20
778.0635
 10
951.02475
 20
778.0237499999999
 10
951.07275
 20
778.02825
 10
951.432
 20
778.0635
  0
LWPOLYLINE
  5
60
100
AcDbEntity
  8
profiling
  6
ByLayer
 62
  256
370
   -1
100
AcDbPolyline
 90
   41
 70
    1
 43
0
 10
990.89475
 20
777.9105
 10
991.269
 20
777.21075
 10
991.77225
 20
776.59725
 10
992.38575
 20
776.0940000000001
 10
993.0855
 20
775.71975
 10
993.8445
 20
775.4895
 10
994.63425
 20
775.4115
 10
995.424
 20
775.4895
 10
996.183
 20
775.71975
 10
996.21525
 20
775.737
 10
996.88275
 20
776.09325
 10
997.49625
 20
776.5965
 10
997.9995
 20
777.21
 10
998.17425
 20
777.53625
 10
998.37375
 20
777.90975
 10
998.51475
 20
778.374
 10
998.604
 20
778.66875
 10
998.604
 20
778.66875
 10
998.682
 20
779.4585
 10
998.604
 20
780.24825
 10
998.38875
 20
780.95775
 10
998.37375
 20
781.00725
 10
997.9995
 20
781.707
 10
997.80525
 20
781.94325
 10
997.49625
 20
782.31975
 10
996.88275
 20
782.823
 10
996.35025
 20
783.10725
 10
996.183
 20
783.1965
 10
995.424
 20
783.42675
 10
994.63425
 20
783.5047499999999
 10
993.8445
 20
783.42675
 10
993.13725
 20
783.21225
 10
993.0855
 20
783.1965
 10
992.38575
 20
782.8222500000001
 10
991.77225
 20
782.319
 10
991.269
 20
781.7055
 10
990.89475
 20
781.00575
 10
990.6645
 20
780.24675
 10
990.5865
 20
779.457
 10
990.6645
 20
778.66725
 10
990.89475
 20
777.90825
  0
LWPOLYLINE
  5
61
100
AcDbEntity
  8
profiling
  6
ByLayer
 62
  256
370
   -1
100
AcDbPolyline
 90
   37
 70
    1
 43
0
 10
1036.167
 20
777.9105
 10
1036.54125
 20
777.21075
 10
1037.0445
 20
776.59725
 10
1037.1015
 20
776.55075
 10
1037.658
 20
776.0940000000001
 10
1038.009
 20
775.9065000000001
 10
1038.35775
 20
775.71975
 10
1039.11675
 20
775.4895
 10
1039.9065
 20
775.4115
 10
1040.69625
 20
775.4895
 10
1041.45525
 20
775.71975
 10
1042.155
 20
776.0940000000001
 10
1042.7685
 20
776.59725
 10
1043.27175
 20
777.21075
 10
1043.646
 20
777.9105
 10
1043.87625
 20
778.6695
 10
1043.95425
 20
779.45925
 10
1043.87625
 20
780.249
 10
1043.646
 20
781.008
 10
1043.27175
 20
781.70775
 10
1042.7685
 20
782.32125
 10
1042.155
 20
782.8244999999999
 10
1041.45525
 20
783.19875
 10
1040.69625
 20
783.429
 10
1039.9065
 20
783.5069999999999
 10
1039.11675
 20
783.429
 10
1038.35775
 20
783.19875
 10
1037.943
 20
782.9775
 10
1037.658
 20
782.82525
 10
1037.0445
 20
782.322
 10
1036.54125
 20
781.7085
 10
1036.167
 20
781.00875
 10
1035.93675
 20
780.2497499999999
 10
1035.906
 20
779.9385
 10
1035.85875
 20
779.46
 10
1035.93675
 20
778.67025
 10
1036.167
 20
777.91125
  0
LWPOLYLINE
  5
62
100
AcDbEntity
  8
profiling
  6
ByLayer
 62
  256
370
   -1
100
AcDbPolyline
 90
   35
 70
    1
 43
0
 10
972.97275
 20
778.182
 10
973.33425
 20
778.3747499999999
 10
973.65075
 20
778.63425
 10
973.91025
 20
778.95075
 10
974.103
 20
779.3122499999999
 10
974.2215
 20
779.7045000000001
 10
974.26125
 20
780.11175
 10
974.25075
 20
780.2145
 10
974.22075
 20
780.519
 10
974.10225
 20
780.91125
 10
973.9095
 20
781.27275
 10
973.65
 20
781.58925
 10
973.3335
 20
781.84875
 10
972.972
 20
782.0415
 10
972.5805
 20
782.16
 10
972.1732500000001
 20
782.2005
 10
971.766
 20
782.16
 10
971.3745
 20
782.0415
 10
971.013
 20
781.84875
 10
970.6965
 20
781.58925
 10
970.437
 20
781.27275
 10
970.24425
 20
780.91125
 10
970.125
 20
780.519
 10
970.08525
 20
780.11175
 10
970.125
 20
779.7045000000001
 10
970.24425
 20
779.3122499999999
 10
970.437
 20
778.95075
 10
970.6965
 20
778.63425
 10
971.013
 20
778.3747499999999
 10
971.3745
 20
778.182
 10
971.766
 20
778.0635
 10
972.1335
 20
778.0275
 10
972.1732500000001
 20
778.0237499999999
 10
972.5805
 20
778.0635
 10
972.972
 20
778.182
  0
ENDSEC
  0
SECTION
  2
OBJECTS
  0
DICTIONARY
  5
C
330
0
100
AcDbDictionary
281
    1
  3
ACAD_GROUP
350
D
  0
DICTIONARY
  5
D
330
C
100
AcDbDictionary
281
    1
  0
ENDSEC
  0
EOF
