999
dxfrw 0.6.3
  0
SECTION
  2
HEADER
  9
$ACADVER
  1
AC1021
  9
$DWGCODEPAGE
  3
ANSI_1252
  9
$INSBASE
 10
0
 20
0
 30
0
  9
$EXTMIN
 10
738.44925
 20
214.01175
 30
0
  9
$EXTMAX
 10
945.6285
 20
370.629
 30
0
  9
$LIMMIN
 10
0
 20
0
  9
$LIMMAX
 10
420
 20
297
  9
$ORTHOMODE
 70
    0
  9
$REGENMODE
 70
    1
  9
$FILLMODE
 70
    1
  9
$QTEXTMODE
 70
    0
  9
$MIRRTEXT
 70
    0
  9
$LTSCALE
 40
1
  9
$ATTMODE
 70
    0
  9
$TEXTSIZE
 40
2.5
  9
$TRACEWID
 40
15.68
  9
$TEXTSTYLE
  7
STANDARD
  9
$CLAYER
  8
pocket-1.25mm
  9
$CELTYPE
  6
BYLAYER
  9
$CECOLOR
 62
  256
  9
$CELTSCALE
 40
1
  9
$DISPSILH
 70
    0
  9
$DIMSCALE
 40
2.5
  9
$DIMASZ
 40
2.5
  9
$DIMEXO
 40
0.625
  9
$DIMDLI
 40
3.75
  9
$DIMRND
 40
0
  9
$DIMDLE
 40
0
  9
$DIMEXE
 40
1.25
  9
$DIMTP
 40
0
  9
$DIMTM
 40
0
  9
$DIMTXT
 40
2.5
  9
$DIMCEN
 40
2.5
  9
$DIMTSZ
 40
0
  9
$DIMTOL
 70
    0
  9
$DIMLIM
 70
    0
  9
$DIMTIH
 70
    0
  9
$DIMTOH
 70
    0
  9
$DIMSE1
 70
    0
  9
$DIMSE2
 70
    0
  9
$DIMTAD
 70
    1
  9
$DIMZIN
 70
    8
  9
$DIMBLK
  1

  9
$DIMASO
 70
    1
  9
$DIMSHO
 70
    1
  9
$DIMPOST
  1

  9
$DIMAPOST
  1

  9
$DIMALT
 70
    0
  9
$DIMALTD
 70
    3
  9
$DIMALTF
 40
0.03937
  9
$DIMLFAC
 40
1
  9
$DIMTOFL
 70
    1
  9
$DIMTVP
 40
0
  9
$DIMTIX
 70
    0
  9
$DIMSOXD
 70
    0
  9
$DIMSAH
 70
    0
  9
$DIMBLK1
  1

  9
$DIMBLK2
  1

  9
$DIMSTYLE
  2
Standard
  9
$DIMCLRD
 70
    0
  9
$DIMCLRE
 70
    0
  9
$DIMCLRT
 70
    0
  9
$DIMTFAC
 40
1
  9
$DIMGAP
 40
0.625
  9
$DIMJUST
 70
    0
  9
$DIMSD1
 70
    0
  9
$DIMSD2
 70
    0
  9
$DIMTOLJ
 70
    0
  9
$DIMTZIN
 70
    8
  9
$DIMALTZ
 70
    0
  9
$DIMALTTZ
 70
    0
  9
$DIMUPT
 70
    0
  9
$DIMDEC
 70
    2
  9
$DIMTDEC
 70
    2
  9
$DIMALTU
 70
    2
  9
$DIMALTTD
 70
    3
  9
$DIMTXSTY
  7
STANDARD
  9
$DIMAUNIT
 70
    0
  9
$DIMADEC
 70
    0
  9
$DIMALTRND
 40
0
  9
$DIMAZIN
 70
    0
  9
$DIMDSEP
 70
   44
  9
$DIMATFIT
 70
    3
  9
$DIMFRAC
 70
    0
  9
$DIMLDRBLK
  1
STANDARD
  9
$DIMLUNIT
 70
    2
  9
$DIMLWD
 70
   -2
  9
$DIMLWE
 70
   -2
  9
$DIMTMOVE
 70
    0
  9
$DIMFXL
 40
1
  9
$DIMFXLON
 70
    0
  9
$DIMJOGANG
 40
0.7854
  9
$DIMTFILL
 70
    0
  9
$DIMTFILLCLR
 70
    0
  9
$DIMARCSYM
 70
    0
  9
$DIMLTYPE
  6

  9
$DIMLTEX1
  6

  9
$DIMLTEX2
  6

  9
$LUNITS
 70
    2
  9
$LUPREC
 70
    4
  9
$SKETCHINC
 40
1
  9
$FILLETRAD
 40
0
  9
$AUNITS
 70
    0
  9
$AUPREC
 70
    2
  9
$MENU
  1
.
  9
$ELEVATION
 40
0
  9
$PELEVATION
 40
0
  9
$THICKNESS
 40
0
  9
$LIMCHECK
 70
    0
  9
$CHAMFERA
 40
0
  9
$CHAMFERB
 40
0
  9
$CHAMFERC
 40
0
  9
$CHAMFERD
 40
0
  9
$SKPOLY
 70
    0
  9
$USRTIMER
 70
    1
  9
$ANGBASE
 50
0
  9
$ANGDIR
 70
    0
  9
$PDMODE
 70
   34
  9
$PDSIZE
 40
0
  9
$PLINEWID
 40
0
  9
$SPLFRAME
 70
    0
  9
$SPLINETYPE
 70
    2
  9
$SPLINESEGS
 70
    8
  9
$HANDSEED
  5
20000
  9
$SURFTAB1
 70
    6
  9
$SURFTAB2
 70
    6
  9
$SURFTYPE
 70
    6
  9
$SURFU
 70
    6
  9
$SURFV
 70
    6
  9
$UCSBASE
  2

  9
$UCSNAME
  2

  9
$UCSORG
 10
0
 20
0
 30
0
  9
$UCSXDIR
 10
1
 20
0
 30
0
  9
$UCSYDIR
 10
0
 20
1
 30
0
  9
$UCSORTHOREF
  2

  9
$UCSORTHOVIEW
 70
    0
  9
$UCSORGTOP
 10
0
 20
0
 30
0
  9
$UCSORGBOTTOM
 10
0
 20
0
 30
0
  9
$UCSORGLEFT
 10
0
 20
0
 30
0
  9
$UCSORGRIGHT
 10
0
 20
0
 30
0
  9
$UCSORGFRONT
 10
0
 20
0
 30
0
  9
$UCSORGBACK
 10
0
 20
0
 30
0
  9
$PUCSBASE
  2

  9
$PUCSNAME
  2

  9
$PUCSORG
 10
0
 20
0
 30
0
  9
$PUCSXDIR
 10
1
 20
0
 30
0
  9
$PUCSYDIR
 10
0
 20
1
 30
0
  9
$PUCSORTHOREF
  2

  9
$PUCSORTHOVIEW
 70
    0
  9
$PUCSORGTOP
 10
0
 20
0
 30
0
  9
$PUCSORGBOTTOM
 10
0
 20
0
 30
0
  9
$PUCSORGLEFT
 10
0
 20
0
 30
0
  9
$PUCSORGRIGHT
 10
0
 20
0
 30
0
  9
$PUCSORGFRONT
 10
0
 20
0
 30
0
  9
$PUCSORGBACK
 10
0
 20
0
 30
0
  9
$USERI1
 70
    0
  9
$USERI2
 70
    0
  9
$USERI3
 70
    0
  9
$USERI4
 70
    0
  9
$USERI5
 70
    0
  9
$USERR1
 40
0
  9
$USERR2
 40
0
  9
$USERR3
 40
0
  9
$USERR4
 40
0
  9
$USERR5
 40
0
  9
$WORLDVIEW
 70
    1
  9
$SHADEDGE
 70
    3
  9
$SHADEDIF
 70
   70
  9
$TILEMODE
 70
    1
  9
$MAXACTVP
 70
   64
  9
$PINSBASE
 10
0
 20
0
 30
0
  9
$PLIMCHECK
 70
    0
  9
$PEXTMIN
 10
0
 20
0
 30
0
  9
$PEXTMAX
 10
0
 20
0
 30
0
  9
$GRIDMODE
 70
    0
  9
$SNAPSTYLE
 70
    0
  9
$PLIMMIN
 10
0
 20
0
  9
$PLIMMAX
 10
210
 20
297
  9
$UNITMODE
 70
    0
  9
$VISRETAIN
 70
    1
  9
$PLINEGEN
 70
    0
  9
$PSLTSCALE
 70
    1
  9
$TREEDEPTH
 70
 3020
  9
$CMLSTYLE
  2
Standard
  9
$CMLJUST
 70
    0
  9
$CMLSCALE
 40
20
  9
$PROXYGRAPHICS
 70
    1
  9
$MEASUREMENT
 70
    1
  9
$CELWEIGHT
370
   -1
  9
$ENDCAPS
280
    0
  9
$JOINSTYLE
280
    0
  9
$LWDISPLAY
290
    0
  9
$INSUNITS
 70
    4
  9
$HYPERLINKBASE
  1

  9
$STYLESHEET
  1

  9
$XEDIT
290
    1
  9
$CEPSNTYPE
380
    0
  9
$PSTYLEMODE
290
    1
  9
$EXTNAMES
290
    1
  9
$PSVPSCALE
 40
1
  9
$OLESTARTUP
290
    0
  9
$SORTENTS
280
  127
  9
$INDEXCTL
280
    0
  9
$HIDETEXT
280
    1
  9
$XCLIPFRAME
290
    0
  9
$HALOGAP
280
    0
  9
$OBSCOLOR
 70
  257
  9
$OBSLTYPE
280
    0
  9
$INTERSECTIONDISPLAY
280
    0
  9
$INTERSECTIONCOLOR
 70
  257
  9
$DIMASSOC
280
    1
  9
$PROJECTNAME
  1

  9
$CAMERADISPLAY
290
    0
  9
$LENSLENGTH
 40
50
  9
$CAMERAHEIGHT
 40
0
  9
$STEPSPERSEC
 40
2
  9
$STEPSIZE
 40
50
  9
$3DDWFPREC
 40
2
  9
$PSOLWIDTH
 40
5
  9
$PSOLHEIGHT
 40
80
  9
$LOFTANG1
 40
1.570796326794897
  9
$LOFTANG2
 40
1.570796326794897
  9
$LOFTMAG1
 40
0
  9
$LOFTMAG2
 40
0
  9
$LOFTPARAM
 70
    7
  9
$LOFTNORMALS
280
    1
  9
$LATITUDE
 40
1
  9
$LONGITUDE
 40
1
  9
$NORTHDIRECTION
 40
0
  9
$TIMEZONE
 70
-8000
  9
$LIGHTGLYPHDISPLAY
280
    1
  9
$TILEMODELIGHTSYNCH
280
    1
  9
$SOLIDHIST
280
    1
  9
$SHOWHIST
280
    1
  9
$DWFFRAME
280
    2
  9
$DGNFRAME
280
    0
  9
$REALWORLDSCALE
290
    1
  9
$INTERFERECOLOR
 62
    1
  9
$CSHADOW
280
    0
  9
$SHADOWPLANELOCATION
 40
0
  0
ENDSEC
  0
SECTION
  2
CLASSES
  0
ENDSEC
  0
SECTION
  2
TABLES
  0
TABLE
  2
VPORT
  5
8
330
0
100
AcDbSymbolTable
 70
    1
  0
VPORT
  5
31
330
2
100
AcDbSymbolTableRecord
100
AcDbViewportTableRecord
  2
*ACTIVE
 70
    0
 10
0
 20
0
 11
1
 21
1
 12
551.1852219922605
 22
199.0035016611592
 13
0
 23
0
 14
10
 24
10
 15
10
 25
10
 16
0
 26
0
 36
1
 17
0
 27
0
 37
0
 40
542.8533523574938
 41
0.9634002361275088
 42
50
 43
0
 44
0
 50
0
 51
0
 71
    0
 72
  100
 73
    1
 74
    3
 75
    0
 76
    0
 77
    0
 78
    0
281
    0
 65
    1
110
0
120
0
130
0
111
1
121
0
131
0
112
0
122
1
132
0
 79
    0
146
0
348
10020
 60
    7
 61
    5
292
1
282
    1
141
0
142
0
 63
  250
421
3358443
  0
ENDTAB
  0
TABLE
  2
LTYPE
  5
5
330
0
100
AcDbSymbolTable
 70
    4
  0
LTYPE
  5
14
330
5
100
AcDbSymbolTableRecord
100
AcDbLinetypeTableRecord
  2
ByBlock
 70
    0
  3

 72
   65
 73
    0
 40
0
  0
LTYPE
  5
15
330
5
100
AcDbSymbolTableRecord
100
AcDbLinetypeTableRecord
  2
ByLayer
 70
    0
  3

 72
   65
 73
    0
 40
0
  0
LTYPE
  5
16
330
5
100
AcDbSymbolTableRecord
100
AcDbLinetypeTableRecord
  2
Continuous
 70
    0
  3
Solid line
 72
   65
 73
    0
 40
0
  0
LTYPE
  5
32
330
5
100
AcDbSymbolTableRecord
100
AcDbLinetypeTableRecord
  2
DOT
 70
    0
  3
Dot . . . . . . . . . . . . . . . . . . . . . .
 72
   65
 73
    2
 40
6.35
 49
0
 74
    0
 49
-6.35
 74
    0
  0
LTYPE
  5
33
330
5
100
AcDbSymbolTableRecord
100
AcDbLinetypeTableRecord
  2
DOTTINY
 70
    0
  3
Dot (.15x) .....................................
 72
   65
 73
    2
 40
0.9525
 49
0
 74
    0
 49
-0.9525
 74
    0
  0
LTYPE
  5
34
330
5
100
AcDbSymbolTableRecord
100
AcDbLinetypeTableRecord
  2
DOT2
 70
    0
  3
Dot (.5x) .....................................
 72
   65
 73
    2
 40
3.175
 49
0
 74
    0
 49
-3.175
 74
    0
  0
LTYPE
  5
35
330
5
100
AcDbSymbolTableRecord
100
AcDbLinetypeTableRecord
  2
DOTX2
 70
    0
  3
Dot (2x) .  .  .  .  .  .  .  .  .  .  .  .  .
 72
   65
 73
    2
 40
12.7
 49
0
 74
    0
 49
-12.7
 74
    0
  0
LTYPE
  5
36
330
5
100
AcDbSymbolTableRecord
100
AcDbLinetypeTableRecord
  2
DASHED
 70
    0
  3
Dashed _ _ _ _ _ _ _ _ _ _ _ _ _ _ _ _ _
 72
   65
 73
    2
 40
19.05
 49
12.7
 74
    0
 49
-6.35
 74
    0
  0
LTYPE
  5
37
330
5
100
AcDbSymbolTableRecord
100
AcDbLinetypeTableRecord
  2
DASHEDTINY
 70
    0
  3
Dashed (.15x) _ _ _ _ _ _ _ _ _ _ _ _ _ _ _ _ _
 72
   65
 73
    2
 40
2.8575
 49
1.905
 74
    0
 49
-0.9525
 74
    0
  0
LTYPE
  5
38
330
5
100
AcDbSymbolTableRecord
100
AcDbLinetypeTableRecord
  2
DASHED2
 70
    0
  3
Dashed (.5x) _ _ _ _ _ _ _ _ _ _ _ _ _ _ _ _ _
 72
   65
 73
    2
 40
9.524999999999999
 49
6.35
 74
    0
 49
-3.175
 74
    0
  0
LTYPE
  5
39
330
5
100
AcDbSymbolTableRecord
100
AcDbLinetypeTableRecord
  2
DASHEDX2
 70
    0
  3
Dashed (2x) ____  ____  ____  ____  ____  ___
 72
   65
 73
    2
 40
38.09999999999999
 49
25.4
 74
    0
 49
-12.7
 74
    0
  0
LTYPE
  5
3A
330
5
100
AcDbSymbolTableRecord
100
AcDbLinetypeTableRecord
  2
DASHDOT
 70
    0
  3
Dash dot __ . __ . __ . __ . __ . __ . __ . __
 72
   65
 73
    4
 40
25.4
 49
12.7
 74
    0
 49
-6.35
 74
    0
 49
0
 74
    0
 49
-6.35
 74
    0
  0
LTYPE
  5
3B
330
5
100
AcDbSymbolTableRecord
100
AcDbLinetypeTableRecord
  2
DASHDOTTINY
 70
    0
  3
Dash dot (.15x) _._._._._._._._._._._._._._._.
 72
   65
 73
    4
 40
3.81
 49
1.905
 74
    0
 49
-0.9525
 74
    0
 49
0
 74
    0
 49
-0.9525
 74
    0
  0
LTYPE
  5
3C
330
5
100
AcDbSymbolTableRecord
100
AcDbLinetypeTableRecord
  2
DASHDOT2
 70
    0
  3
Dash dot (.5x) _._._._._._._._._._._._._._._.
 72
   65
 73
    4
 40
12.7
 49
6.35
 74
    0
 49
-3.175
 74
    0
 49
0
 74
    0
 49
-3.175
 74
    0
  0
LTYPE
  5
3D
330
5
100
AcDbSymbolTableRecord
100
AcDbLinetypeTableRecord
  2
DASHDOTX2
 70
    0
  3
Dash dot (2x) ____  .  ____  .  ____  .  ___
 72
   65
 73
    4
 40
50.8
 49
25.4
 74
    0
 49
-12.7
 74
    0
 49
0
 74
    0
 49
-12.7
 74
    0
  0
LTYPE
  5
3E
330
5
100
AcDbSymbolTableRecord
100
AcDbLinetypeTableRecord
  2
DIVIDE
 70
    0
  3
Divide ____ . . ____ . . ____ . . ____ . . ____
 72
   65
 73
    6
 40
31.75
 49
12.7
 74
    0
 49
-6.35
 74
    0
 49
0
 74
    0
 49
-6.35
 74
    0
 49
0
 74
    0
 49
-6.35
 74
    0
  0
LTYPE
  5
3F
330
5
100
AcDbSymbolTableRecord
100
AcDbLinetypeTableRecord
  2
DIVIDETINY
 70
    0
  3
Divide (.15x) __..__..__..__..__..__..__..__.._
 72
   65
 73
    6
 40
4.7625
 49
1.905
 74
    0
 49
-0.9525
 74
    0
 49
0
 74
    0
 49
-0.9525
 74
    0
 49
0
 74
    0
 49
-0.9525
 74
    0
  0
LTYPE
  5
40
330
5
100
AcDbSymbolTableRecord
100
AcDbLinetypeTableRecord
  2
DIVIDE2
 70
    0
  3
Divide (.5x) __..__..__..__..__..__..__..__.._
 72
   65
 73
    6
 40
15.875
 49
6.35
 74
    0
 49
-3.175
 74
    0
 49
0
 74
    0
 49
-3.175
 74
    0
 49
0
 74
    0
 49
-3.175
 74
    0
  0
LTYPE
  5
41
330
5
100
AcDbSymbolTableRecord
100
AcDbLinetypeTableRecord
  2
DIVIDEX2
 70
    0
  3
Divide (2x) ________  .  .  ________  .  .  _
 72
   65
 73
    6
 40
63.5
 49
25.4
 74
    0
 49
-12.7
 74
    0
 49
0
 74
    0
 49
-12.7
 74
    0
 49
0
 74
    0
 49
-12.7
 74
    0
  0
LTYPE
  5
42
330
5
100
AcDbSymbolTableRecord
100
AcDbLinetypeTableRecord
  2
BORDER
 70
    0
  3
Border __ __ . __ __ . __ __ . __ __ . __ __ .
 72
   65
 73
    6
 40
44.45
 49
12.7
 74
    0
 49
-6.35
 74
    0
 49
12.7
 74
    0
 49
-6.35
 74
    0
 49
0
 74
    0
 49
-6.35
 74
    0
  0
LTYPE
  5
43
330
5
100
AcDbSymbolTableRecord
100
AcDbLinetypeTableRecord
  2
BORDERTINY
 70
    0
  3
Border (.15x) __.__.__.__.__.__.__.__.__.__.__.
 72
   65
 73
    6
 40
6.6675
 49
1.905
 74
    0
 49
-0.9525
 74
    0
 49
1.905
 74
    0
 49
-0.9525
 74
    0
 49
0
 74
    0
 49
-0.9525
 74
    0
  0
LTYPE
  5
44
330
5
100
AcDbSymbolTableRecord
100
AcDbLinetypeTableRecord
  2
BORDER2
 70
    0
  3
Border (.5x) __.__.__.__.__.__.__.__.__.__.__.
 72
   65
 73
    6
 40
22.225
 49
6.35
 74
    0
 49
-3.175
 74
    0
 49
6.35
 74
    0
 49
-3.175
 74
    0
 49
0
 74
    0
 49
-3.175
 74
    0
  0
LTYPE
  5
45
330
5
100
AcDbSymbolTableRecord
100
AcDbLinetypeTableRecord
  2
BORDERX2
 70
    0
  3
Border (2x) ____  ____  .  ____  ____  .  ___
 72
   65
 73
    6
 40
88.89999999999999
 49
25.4
 74
    0
 49
-12.7
 74
    0
 49
25.4
 74
    0
 49
-12.7
 74
    0
 49
0
 74
    0
 49
-12.7
 74
    0
  0
LTYPE
  5
46
330
5
100
AcDbSymbolTableRecord
100
AcDbLinetypeTableRecord
  2
CENTER
 70
    0
  3
Center ____ _ ____ _ ____ _ ____ _ ____ _ ____
 72
   65
 73
    4
 40
50.8
 49
31.75
 74
    0
 49
-6.35
 74
    0
 49
6.35
 74
    0
 49
-6.35
 74
    0
  0
LTYPE
  5
47
330
5
100
AcDbSymbolTableRecord
100
AcDbLinetypeTableRecord
  2
CENTERTINY
 70
    0
  3
Center (.15x) ___ _ ___ _ ___ _ ___ _ ___ _ ___
 72
   65
 73
    4
 40
7.619999999999999
 49
4.7625
 74
    0
 49
-0.9525
 74
    0
 49
0.9525
 74
    0
 49
-0.9525
 74
    0
  0
LTYPE
  5
48
330
5
100
AcDbSymbolTableRecord
100
AcDbLinetypeTableRecord
  2
CENTER2
 70
    0
  3
Center (.5x) ___ _ ___ _ ___ _ ___ _ ___ _ ___
 72
   65
 73
    4
 40
28.575
 49
19.05
 74
    0
 49
-3.175
 74
    0
 49
3.175
 74
    0
 49
-3.175
 74
    0
  0
LTYPE
  5
49
330
5
100
AcDbSymbolTableRecord
100
AcDbLinetypeTableRecord
  2
CENTERX2
 70
    0
  3
Center (2x) ________  __  ________  __  _____
 72
   65
 73
    4
 40
101.6
 49
63.5
 74
    0
 49
-12.7
 74
    0
 49
12.7
 74
    0
 49
-12.7
 74
    0
  0
ENDTAB
  0
TABLE
  2
LAYER
  5
2
330
0
100
AcDbSymbolTable
 70
    1
  0
LAYER
  5
10
330
2
100
AcDbSymbolTableRecord
100
AcDbLayerTableRecord
  2
0
 70
    0
 62
    7
  6
CONTINUOUS
370
   -3
390
F
  0
LAYER
  5
4A
330
2
100
AcDbSymbolTableRecord
100
AcDbLayerTableRecord
  2
pocket-1.25mm
 70
    0
 62
    4
  6
CONTINUOUS
370
    0
390
F
  0
LAYER
  5
4B
330
2
100
AcDbSymbolTableRecord
100
AcDbLayerTableRecord
  2
profiling
 70
    0
 62
    3
  6
CONTINUOUS
370
    0
390
F
  0
LAYER
  5
4C
330
2
100
AcDbSymbolTableRecord
100
AcDbLayerTableRecord
  2
vcut
 70
    0
 62
    6
  6
CONTINUOUS
370
    0
390
F
  0
ENDTAB
  0
TABLE
  2
STYLE
  5
3
330
0
100
AcDbSymbolTable
 70
    3
  0
STYLE
  5
4D
330
2
100
AcDbSymbolTableRecord
100
AcDbTextStyleTableRecord
  2
Standard
 70
    0
 40
0
 41
1
 50
0
 71
    0
 42
1
  3
txt
  4

  0
ENDTAB
  0
TABLE
  2
VIEW
  5
6
330
0
100
AcDbSymbolTable
 70
    0
  0
ENDTAB
  0
TABLE
  2
UCS
  5
7
330
0
100
AcDbSymbolTable
 70
    0
  0
ENDTAB
  0
TABLE
  2
APPID
  5
9
330
0
100
AcDbSymbolTable
 70
    1
  0
APPID
  5
12
330
9
100
AcDbSymbolTableRecord
100
AcDbRegAppTableRecord
  2
ACAD
 70
    0
  0
APPID
  5
4E
330
9
100
AcDbSymbolTableRecord
100
AcDbRegAppTableRecord
  2
LibreCad
 70
    0
  0
ENDTAB
  0
TABLE
  2
DIMSTYLE
  5
A
330
0
100
AcDbSymbolTable
 70
    1
100
AcDbDimStyleTable
 71
    1
  0
DIMSTYLE
105
4F
330
A
100
AcDbSymbolTableRecord
100
AcDbDimStyleTableRecord
  2
Standard
 70
    0
 40
2.5
 41
2.5
 42
0.625
 43
0.38
 44
1.25
 45
0
 46
0
 47
0
 48
0
 49
1
140
2.5
141
0.09
142
0
143
25.4
144
1
145
0
146
1
147
0.625
148
0
 71
    0
 72
    0
 73
    0
 74
    1
 75
    0
 76
    0
 77
    0
 78
    8
 79
    0
170
    0
171
    2
172
    0
173
    0
174
    0
175
    0
176
    0
177
    0
178
    0
179
    0
271
    2
272
    4
273
    2
274
    2
275
    0
276
    0
277
    2
278
   44
279
    0
280
    0
281
    0
282
    0
283
    1
284
    0
285
    0
286
    0
288
    0
289
    3
340
STANDARD
341

371
   -2
372
   -2
  0
ENDTAB
  0
TABLE
  2
BLOCK_RECORD
  5
1
330
0
100
AcDbSymbolTable
 70
    2
  0
BLOCK_RECORD
  5
1F
330
1
100
AcDbSymbolTableRecord
100
AcDbBlockTableRecord
  2
*Model_Space
 70
    0
280
    1
281
    0
  0
BLOCK_RECORD
  5
1E
330
1
100
AcDbSymbolTableRecord
100
AcDbBlockTableRecord
  2
*Paper_Space
 70
    0
280
    1
281
    0
  0
ENDTAB
  0
ENDSEC
  0
SECTION
  2
BLOCKS
  0
BLOCK
  5
20
330
1F
100
AcDbEntity
  8
0
100
AcDbBlockBegin
  2
*Model_Space
 70
    0
 10
0
 20
0
 30
0
  3
*Model_Space
  1

  0
ENDBLK
  5
21
330
1F
100
AcDbEntity
  8
0
100
AcDbBlockEnd
  0
BLOCK
  5
1C
330
1B
100
AcDbEntity
  8
0
100
AcDbBlockBegin
  2
*Paper_Space
 70
    0
 10
0
 20
0
 30
0
  3
*Paper_Space
  1

  0
ENDBLK
  5
1D
330
1F
100
AcDbEntity
  8
0
100
AcDbBlockEnd
  0
ENDSEC
  0
SECTION
  2
ENTITIES
  0
LWPOLYLINE
  5
50
100
AcDbEntity
  8
vcut
  6
ByLayer
 62
  256
370
   -1
100
AcDbPolyline
 90
    2
 70
    0
 43
0
 10
813.3172499999999
 20
214.01175
 10
813.3172499999999
 20
370.629
  0
LWPOLYLINE
  5
51
100
AcDbEntity
  8
vcut
  6
ByLayer
 62
  256
370
   -1
100
AcDbPolyline
 90
    2
 70
    0
 43
0
 10
870.76125
 20
214.01175
 10
870.76125
 20
370.629
  0
LWPOLYLINE
  5
52
100
AcDbEntity
  8
pocket-1.25mm
  6
ByLayer
 62
  256
370
   -1
100
AcDbPolyline
 90
    4
 70
    1
 43
0
 10
816.58125
 20
368.67075
 10
816.58125
 20
364.75425
 10
867.498
 20
364.75425
 10
867.498
 20
368.67075
  0
LWPOLYLINE
  5
53
100
AcDbEntity
  8
pocket-1.25mm
  6
ByLayer
 62
  256
370
   -1
100
AcDbPolyline
 90
    4
 70
    1
 43
0
 10
816.58125
 20
215.97
 10
816.58125
 20
219.8865
 10
867.498
 20
219.8865
 10
867.498
 20
215.97
  0
LWPOLYLINE
  5
54
100
AcDbEntity
  8
profiling
  6
ByLayer
 62
  256
370
   -1
100
AcDbPolyline
 90
  255
 70
    1
 43
0
 10
741.9135
 20
214.78575
 10
741.36225
 20
215.1165
 10
741.36225
 20
215.1165
 10
741.36225
 20
215.1165
 10
740.8455
 20
215.49975
 10
740.8455
 20
215.49975
 10
740.8455
 20
215.49975
 10
740.36925
 20
215.93175
 10
740.36925
 20
215.93175
 10
740.36925
 20
215.93175
 10
739.9372499999999
 20
216.408
 10
739.9372499999999
 20
216.408
 10
739.9372499999999
 20
216.408
 10
739.554
 20
216.92475
 10
739.554
 20
216.92475
 10
739.554
 20
216.92475
 10
739.22325
 20
217.476
 10
739.22325
 20
217.476
 10
739.22325
 20
217.476
 10
738.948
 20
218.05725
 10
738.948
 20
218.05725
 10
738.948
 20
218.05725
 10
738.73125
 20
218.6625
 10
738.73125
 20
218.6625
 10
738.73125
 20
218.6625
 10
738.57525
 20
219.2865
 10
738.57525
 20
219.2865
 10
738.57525
 20
219.2865
 10
738.4807499999999
 20
219.9225
 10
738.4807499999999
 20
219.9225
 10
738.4807499999999
 20
219.9225
 10
738.44925
 20
220.56525
 10
738.44925
 20
220.56525
 10
738.44925
 20
220.56525
 10
738.44925
 20
230.98425
 10
738.44925
 20
279.813
 10
738.44925
 20
292.32075
 10
738.44925
 20
304.8285
 10
738.44925
 20
353.65725
 10
738.44925
 20
364.07625
 10
738.44925
 20
364.07625
 10
738.44925
 20
364.07625
 10
738.4807499999999
 20
364.71825
 10
738.4807499999999
 20
364.71825
 10
738.4807499999999
 20
364.71825
 10
738.4807499999999
 20
364.71825
 10
738.4807499999999
 20
364.71825
 10
738.4807499999999
 20
364.71825
 10
738.4807499999999
 20
364.71825
 10
738.57525
 20
365.35425
 10
738.57525
 20
365.35425
 10
738.57525
 20
365.35425
 10
738.73125
 20
365.97825
 10
738.73125
 20
365.97825
 10
738.73125
 20
365.97825
 10
738.73125
 20
365.97825
 10
738.73125
 20
365.97825
 10
738.73125
 20
365.97825
 10
738.948
 20
366.5835
 10
738.948
 20
366.5835
 10
738.948
 20
366.5835
 10
739.22325
 20
367.16475
 10
739.22325
 20
367.16475
 10
739.22325
 20
367.16475
 10
739.554
 20
367.716
 10
739.554
 20
367.716
 10
739.554
 20
367.716
 10
739.9372499999999
 20
368.23275
 10
739.9372499999999
 20
368.23275
 10
739.9372499999999
 20
368.23275
 10
740.36925
 20
368.709
 10
740.36925
 20
368.709
 10
740.36925
 20
368.709
 10
740.8455
 20
369.141
 10
740.8455
 20
369.141
 10
740.8455
 20
369.141
 10
741.36225
 20
369.52425
 10
741.36225
 20
369.52425
 10
741.36225
 20
369.52425
 10
741.9135
 20
369.855
 10
741.9135
 20
369.855
 10
741.9135
 20
369.855
 10
742.49475
 20
370.13025
 10
742.49475
 20
370.13025
 10
742.49475
 20
370.13025
 10
743.1
 20
370.347
 10
743.1
 20
370.347
 10
743.1
 20
370.347
 10
743.724
 20
370.503
 10
743.724
 20
370.503
 10
743.724
 20
370.503
 10
744.36
 20
370.5975
 10
744.36
 20
370.5975
 10
744.36
 20
370.5975
 10
745.002
 20
370.629
 10
745.002
 20
370.629
 10
745.002
 20
370.629
 10
745.002
 20
370.629
 10
745.002
 20
370.629
 10
813.3165
 20
370.629
 10
842.0385
 20
370.629
 10
842.0385
 20
370.629
 10
842.0385
 20
370.629
 10
842.0385
 20
370.629
 10
842.0385
 20
370.629
 10
842.0385
 20
370.629
 10
870.7605
 20
370.629
 10
870.7605
 20
370.629
 10
870.7605
 20
370.629
 10
939.07575
 20
370.629
 10
939.07575
 20
370.629
 10
939.07575
 20
370.629
 10
939.07575
 20
370.629
 10
939.71775
 20
370.5975
 10
939.71775
 20
370.5975
 10
939.71775
 20
370.5975
 10
939.71775
 20
370.5975
 10
939.71775
 20
370.5975
 10
939.71775
 20
370.5975
 10
940.35375
 20
370.503
 10
940.35375
 20
370.503
 10
940.35375
 20
370.503
 10
940.97775
 20
370.347
 10
940.97775
 20
370.347
 10
940.97775
 20
370.347
 10
941.583
 20
370.13025
 10
941.583
 20
370.13025
 10
941.583
 20
370.13025
 10
942.16425
 20
369.855
 10
942.16425
 20
369.855
 10
942.16425
 20
369.855
 10
942.16425
 20
369.855
 10
942.7155
 20
369.52425
 10
942.7155
 20
369.52425
 10
942.7155
 20
369.52425
 10
942.7155
 20
369.52425
 10
943.23225
 20
369.141
 10
943.23225
 20
369.141
 10
943.23225
 20
369.141
 10
943.23225
 20
369.141
 10
943.7085
 20
368.709
 10
943.7085
 20
368.709
 10
943.7085
 20
368.709
 10
943.7085
 20
368.709
 10
944.1405
 20
368.23275
 10
944.1405
 20
368.23275
 10
944.1405
 20
368.23275
 10
944.5237499999999
 20
367.716
 10
944.5237499999999
 20
367.716
 10
944.5237499999999
 20
367.716
 10
944.8545
 20
367.16475
 10
944.8545
 20
367.16475
 10
944.8545
 20
367.16475
 10
945.1297499999999
 20
366.5835
 10
945.1297499999999
 20
366.5835
 10
945.1297499999999
 20
366.5835
 10
945.1297499999999
 20
366.5835
 10
945.1297499999999
 20
366.5835
 10
945.1297499999999
 20
366.5835
 10
945.3465
 20
365.97825
 10
945.3465
 20
365.97825
 10
945.3465
 20
365.97825
 10
945.5025000000001
 20
365.35425
 10
945.5025000000001
 20
365.35425
 10
945.5025000000001
 20
365.35425
 10
945.5025000000001
 20
365.35425
 10
945.597
 20
364.71825
 10
945.597
 20
364.71825
 10
945.597
 20
364.71825
 10
945.6285
 20
364.07625
 10
945.6285
 20
364.07625
 10
945.6285
 20
364.07625
 10
945.6285
 20
353.65725
 10
945.6285
 20
304.8285
 10
945.6285
 20
292.32075
 10
945.6285
 20
292.32075
 10
945.6285
 20
292.32075
 10
945.6285
 20
279.813
 10
945.6285
 20
230.98425
 10
945.6285
 20
220.56525
 10
945.6285
 20
220.56525
 10
945.6285
 20
220.56525
 10
945.597
 20
219.9225
 10
945.597
 20
219.9225
 10
945.597
 20
219.9225
 10
945.5025000000001
 20
219.2865
 10
945.5025000000001
 20
219.2865
 10
945.5025000000001
 20
219.2865
 10
945.3465
 20
218.6625
 10
945.3465
 20
218.6625
 10
945.3465
 20
218.6625
 10
945.1297499999999
 20
218.05725
 10
945.1297499999999
 20
218.05725
 10
945.1297499999999
 20
218.05725
 10
944.8545
 20
217.476
 10
944.8545
 20
217.476
 10
944.8545
 20
217.476
 10
944.5237499999999
 20
216.92475
 10
944.5237499999999
 20
216.92475
 10
944.5237499999999
 20
216.92475
 10
944.1405
 20
216.408
 10
944.1405
 20
216.408
 10
944.1405
 20
216.408
 10
943.7085
 20
215.93175
 10
943.7085
 20
215.93175
 10
943.7085
 20
215.93175
 10
943.23225
 20
215.49975
 10
943.23225
 20
215.49975
 10
943.23225
 20
215.49975
 10
942.7155
 20
215.1165
 10
942.7155
 20
215.1165
 10
942.7155
 20
215.1165
 10
942.16425
 20
214.78575
 10
942.16425
 20
214.78575
 10
942.16425
 20
214.78575
 10
941.583
 20
214.5105
 10
941.583
 20
214.5105
 10
941.583
 20
214.5105
 10
940.97775
 20
214.29375
 10
940.97775
 20
214.29375
 10
940.97775
 20
214.29375
 10
940.35375
 20
214.13775
 10
940.35375
 20
214.13775
 10
940.35375
 20
214.13775
 10
939.71775
 20
214.04325
 10
939.71775
 20
214.04325
 10
939.71775
 20
214.04325
 10
939.07575
 20
214.01175
 10
939.07575
 20
214.01175
 10
939.07575
 20
214.01175
 10
939.07575
 20
214.01175
 10
870.76125
 20
214.01175
 10
870.76125
 20
214.01175
 10
870.76125
 20
214.01175
 10
842.03925
 20
214.01175
 10
813.3172499999999
 20
214.01175
 10
813.3172499999999
 20
214.01175
 10
745.00275
 20
214.01175
 10
745.00275
 20
214.01175
 10
745.00275
 20
214.01175
 10
744.3607500000001
 20
214.04325
 10
744.3607500000001
 20
214.04325
 10
744.3607500000001
 20
214.04325
 10
743.72475
 20
214.13775
 10
743.72475
 20
214.13775
 10
743.72475
 20
214.13775
 10
743.1007499999999
 20
214.29375
 10
743.1007499999999
 20
214.29375
 10
743.1007499999999
 20
214.29375
 10
742.4955
 20
214.5105
 10
742.4955
 20
214.5105
 10
742.4955
 20
214.5105
 10
741.91425
 20
214.78575
 10
741.91425
 20
214.78575
 10
741.91425
 20
214.78575
  0
LWPOLYLINE
  5
55
100
AcDbEntity
  8
profiling
  6
ByLayer
 62
  256
370
   -1
100
AcDbPolyline
 90
   38
 70
    1
 43
0
 10
745.353
 20
361.269
 10
745.5435
 20
361.25025
 10
745.76025
 20
361.22925
 10
746.1675
 20
361.26975
 10
746.559
 20
361.38825
 10
746.9204999999999
 20
361.581
 10
747.237
 20
361.8405
 10
747.4965
 20
362.157
 10
747.64575
 20
362.43675
 10
747.68925
 20
362.5185
 10
747.8077500000001
 20
362.91
 10
747.84825
 20
363.31725
 10
747.8077500000001
 20
363.7245
 10
747.68925
 20
364.116
 10
747.561
 20
364.35675
 10
747.4965
 20
364.4775
 10
747.237
 20
364.794
 10
746.9204999999999
 20
365.0535
 10
746.559
 20
365.24625
 10
746.1675
 20
365.36475
 10
745.76025
 20
365.40525
 10
745.353
 20
365.36475
 10
745.239
 20
365.33025
 10
744.9615
 20
365.24625
 10
744.76275
 20
365.13975
 10
744.6007499999999
 20
365.05275
 10
744.28425
 20
364.79325
 10
744.02475
 20
364.47675
 10
743.832
 20
364.11525
 10
743.71275
 20
363.72375
 10
743.67225
 20
363.3165
 10
743.71275
 20
362.90925
 10
743.832
 20
362.51775
 10
744.02475
 20
362.15625
 10
744.28425
 20
361.83975
 10
744.6007499999999
 20
361.58025
 10
744.9615
 20
361.3875
 10
745.35375
 20
361.269
  0
LWPOLYLINE
  5
56
100
AcDbEntity
  8
profiling
  6
ByLayer
 62
  256
370
   -1
100
AcDbPolyline
 90
   42
 70
    1
 43
0
 10
826.4865
 20
304.1835
 10
826.6485
 20
304.05075
 10
826.88175
 20
303.85875
 10
827.3325
 20
303.618
 10
827.8222500000001
 20
303.4695
 10
828.3315
 20
303.41925
 10
828.84075
 20
303.4695
 10
829.3305
 20
303.618
 10
829.78125
 20
303.85875
 10
830.1765
 20
304.1835
 10
830.20575
 20
304.2195
 10
830.5005
 20
304.57875
 10
830.63325
 20
304.82775
 10
830.63325
 20
304.82775
 10
830.691
 20
304.93575
 10
830.74125
 20
305.03025
 10
830.88975
 20
305.52
 10
830.9400000000001
 20
306.02925
 10
830.88975
 20
306.5385
 10
830.74125
 20
307.02825
 10
830.5005
 20
307.479
 10
830.17575
 20
307.87425
 10
829.7805
 20
308.199
 10
829.32975
 20
308.43975
 10
828.84
 20
308.58825
 10
828.33075
 20
308.6385
 10
827.8215
 20
308.58825
 10
827.34675
 20
308.44425
 10
827.3317500000001
 20
308.43975
 10
826.881
 20
308.199
 10
826.4857500000001
 20
307.87425
 10
826.1609999999999
 20
307.479
 10
825.92025
 20
307.02825
 10
825.77175
 20
306.5385
 10
825.7215
 20
306.02925
 10
825.77175
 20
305.52
 10
825.92025
 20
305.03025
 10
826.02825
 20
304.82775
 10
826.02825
 20
304.82775
 10
826.02825
 20
304.82775
 10
826.1609999999999
 20
304.57875
 10
826.4857500000001
 20
304.1835
  0
LWPOLYLINE
  5
57
100
AcDbEntity
  8
profiling
  6
ByLayer
 62
  256
370
   -1
100
AcDbPolyline
 90
   35
 70
    1
 43
0
 10
835.63725
 20
291.0465
 10
836.0085
 20
289.82175
 10
836.6115
 20
288.693
 10
837.423
 20
287.70375
 10
837.73125
 20
287.451
 10
838.41225
 20
286.89225
 10
839.5410000000001
 20
286.28925
 10
840.76575
 20
285.918
 10
842.03925
 20
285.79275
 10
843.3127500000001
 20
285.918
 10
844.5375
 20
286.28925
 10
845.66625
 20
286.89225
 10
846.6555
 20
287.70375
 10
847.467
 20
288.693
 10
848.0700000000001
 20
289.82175
 10
848.44125
 20
291.0465
 10
848.5665
 20
292.32
 10
848.44275
 20
293.5725
 10
848.4405
 20
293.5935
 10
848.06925
 20
294.81825
 10
847.4662499999999
 20
295.947
 10
846.65475
 20
296.93625
 10
845.6655
 20
297.74775
 10
844.53675
 20
298.35075
 10
843.312
 20
298.722
 10
842.0385
 20
298.84725
 10
840.765
 20
298.722
 10
839.54025
 20
298.35075
 10
838.4115
 20
297.74775
 10
837.42225
 20
296.93625
 10
836.6107500000001
 20
295.947
 10
836.00775
 20
294.81825
 10
835.6365
 20
293.5935
 10
835.51125
 20
292.32
 10
835.6365
 20
291.0465
  0
LWPOLYLINE
  5
58
100
AcDbEntity
  8
profiling
  6
ByLayer
 62
  256
370
   -1
100
AcDbPolyline
 90
   38
 70
    1
 43
0
 10
857.1975
 20
303.85875
 10
857.59275
 20
304.1835
 10
857.9175
 20
304.57875
 10
858.05025
 20
304.82775
 10
858.05025
 20
304.82775
 10
858.15825
 20
305.03025
 10
858.30675
 20
305.52
 10
858.357
 20
306.02925
 10
858.30675
 20
306.5385
 10
858.15825
 20
307.02825
 10
857.91675
 20
307.479
 10
857.592
 20
307.87425
 10
857.19675
 20
308.199
 10
856.746
 20
308.43975
 10
856.25625
 20
308.58825
 10
855.747
 20
308.6385
 10
855.23775
 20
308.58825
 10
854.748
 20
308.43975
 10
854.29725
 20
308.199
 10
853.98975
 20
307.947
 10
853.90125
 20
307.875
 10
853.5765
 20
307.47975
 10
853.33575
 20
307.029
 10
853.1872499999999
 20
306.53925
 10
853.1369999999999
 20
306.03
 10
853.1872499999999
 20
305.52075
 10
853.33575
 20
305.031
 10
853.44375
 20
304.8285
 10
853.5765
 20
304.5795
 10
853.90125
 20
304.18425
 10
854.2965
 20
303.8595
 10
854.74725
 20
303.61875
 10
855.237
 20
303.47025
 10
855.74625
 20
303.42
 10
856.011
 20
303.44625
 10
856.2555
 20
303.47025
 10
856.7452500000001
 20
303.61875
 10
857.196
 20
303.8595
  0
LWPOLYLINE
  5
59
100
AcDbEntity
  8
profiling
  6
ByLayer
 62
  256
370
   -1
100
AcDbPolyline
 90
   46
 70
    1
 43
0
 10
853.1895
 20
278.10225
 10
853.338
 20
277.6125
 10
853.57875
 20
277.16175
 10
853.9035
 20
276.7665
 10
854.29875
 20
276.44175
 10
854.29875
 20
276.44175
 10
854.7495
 20
276.201
 10
855.23925
 20
276.0525
 10
855.5940000000001
 20
276.01725
 10
855.7485
 20
276.00225
 10
856.25775
 20
276.0525
 10
856.7474999999999
 20
276.201
 10
857.19825
 20
276.44175
 10
857.5934999999999
 20
276.7665
 10
857.9182499999999
 20
277.16175
 10
858.159
 20
277.6125
 10
858.3075
 20
278.10225
 10
858.32775
 20
278.31
 10
858.35775
 20
278.6115
 10
858.3165
 20
279.03225
 10
858.3075
 20
279.12075
 10
858.159
 20
279.6105
 10
858.051
 20
279.813
 10
857.9182499999999
 20
280.062
 10
857.5934999999999
 20
280.45725
 10
857.19825
 20
280.782
 10
856.7474999999999
 20
281.02275
 10
856.59225
 20
281.07
 10
856.25775
 20
281.17125
 10
855.7485
 20
281.2215
 10
855.60525
 20
281.20725
 10
855.24
 20
281.17125
 10
854.82975
 20
281.04675
 10
854.751
 20
281.02275
 10
854.30025
 20
280.782
 10
853.97925
 20
280.51875
 10
853.905
 20
280.458
 10
853.75425
 20
280.27425
 10
853.58025
 20
280.062
 10
853.52325
 20
279.95475
 10
853.4475
 20
279.813
 10
853.36425
 20
279.657
 10
853.3395
 20
279.6105
 10
853.191
 20
279.12075
 10
853.14075
 20
278.6115
 10
853.191
 20
278.10225
  0
LWPOLYLINE
  5
5A
100
AcDbEntity
  8
profiling
  6
ByLayer
 62
  256
370
   -1
100
AcDbPolyline
 90
   34
 70
    1
 43
0
 10
744.6
 20
219.585
 10
744.96075
 20
219.39225
 10
745.353
 20
219.27375
 10
745.71225
 20
219.2385
 10
745.76025
 20
219.234
 10
746.1675
 20
219.2745
 10
746.559
 20
219.393
 10
746.91975
 20
219.58575
 10
747.23625
 20
219.84525
 10
747.49575
 20
220.16175
 10
747.6885
 20
220.52325
 10
747.8077500000001
 20
220.91475
 10
747.84825
 20
221.322
 10
747.8077500000001
 20
221.72925
 10
747.6885
 20
222.12075
 10
747.49575
 20
222.48225
 10
747.23625
 20
222.79875
 10
746.91975
 20
223.05825
 10
746.559
 20
223.251
 10
746.1675
 20
223.3695
 10
745.76025
 20
223.40925
 10
745.353
 20
223.3695
 10
744.96075
 20
223.251
 10
744.6
 20
223.05825
 10
744.2835
 20
222.79875
 10
744.024
 20
222.48225
 10
743.83125
 20
222.12075
 10
743.712
 20
221.72925
 10
743.6715
 20
221.322
 10
743.712
 20
220.91475
 10
743.83125
 20
220.52325
 10
744.024
 20
220.16175
 10
744.2835
 20
219.84525
 10
744.6
 20
219.58575
  0
LWPOLYLINE
  5
5B
100
AcDbEntity
  8
profiling
  6
ByLayer
 62
  256
370
   -1
100
AcDbPolyline
 90
   41
 70
    1
 43
0
 10
826.1625
 20
280.0605
 10
826.02975
 20
279.8115
 10
826.02975
 20
279.8115
 10
826.02975
 20
279.8115
 10
825.92175
 20
279.609
 10
825.77325
 20
279.11925
 10
825.723
 20
278.61
 10
825.77325
 20
278.10075
 10
825.92175
 20
277.611
 10
826.1625
 20
277.16025
 10
826.48725
 20
276.765
 10
826.8825000000001
 20
276.44025
 10
827.33325
 20
276.1995
 10
827.823
 20
276.051
 10
828.33225
 20
276.00075
 10
828.8415
 20
276.051
 10
829.33125
 20
276.1995
 10
829.782
 20
276.44025
 10
830.17725
 20
276.765
 10
830.502
 20
277.16025
 10
830.74275
 20
277.611
 10
830.89125
 20
278.10075
 10
830.9415
 20
278.61
 10
830.89125
 20
279.11925
 10
830.74275
 20
279.609
 10
830.6347500000001
 20
279.8115
 10
830.6347500000001
 20
279.8115
 10
830.6347500000001
 20
279.8115
 10
830.502
 20
280.0605
 10
830.21925
 20
280.4055
 10
830.178
 20
280.45575
 10
829.78275
 20
280.7805
 10
829.332
 20
281.02125
 10
828.84225
 20
281.16975
 10
828.333
 20
281.22
 10
827.82375
 20
281.16975
 10
827.601
 20
281.10225
 10
827.3339999999999
 20
281.02125
 10
826.88325
 20
280.7805
 10
826.4880000000001
 20
280.45575
 10
826.1632499999999
 20
280.0605
  0
LWPOLYLINE
  5
5C
100
AcDbEntity
  8
profiling
  6
ByLayer
 62
  256
370
   -1
100
AcDbPolyline
 90
   40
 70
    1
 43
0
 10
936.27075
 20
221.72925
 10
936.23025
 20
221.322
 10
936.27075
 20
220.91475
 10
936.39
 20
220.52325
 10
936.58275
 20
220.16175
 10
936.84225
 20
219.84525
 10
937.1587500000001
 20
219.58575
 10
937.5195
 20
219.393
 10
937.9109999999999
 20
219.2745
 10
938.31825
 20
219.234
 10
938.7255
 20
219.2745
 10
939.11775
 20
219.393
 10
939.4785000000001
 20
219.58575
 10
939.6442500000001
 20
219.72225
 10
939.795
 20
219.846
 10
939.93825
 20
220.02075
 10
940.0545
 20
220.1625
 10
940.24725
 20
220.524
 10
940.3665
 20
220.9155
 10
940.407
 20
221.32275
 10
940.3665
 20
221.73
 10
940.24725
 20
222.1215
 10
940.0545
 20
222.48225
 10
940.0545
 20
222.48225
 10
939.97725
 20
222.57675
 10
939.795
 20
222.79875
 10
939.67275
 20
222.89925
 10
939.4785000000001
 20
223.05825
 10
939.11775
 20
223.251
 10
938.7255
 20
223.3695
 10
938.31825
 20
223.40925
 10
937.9109999999999
 20
223.3695
 10
937.5195
 20
223.251
 10
937.1587500000001
 20
223.05825
 10
936.84225
 20
222.79875
 10
936.84225
 20
222.79875
 10
936.58275
 20
222.48225
 10
936.39
 20
222.12075
 10
936.39
 20
222.12075
 10
936.27075
 20
221.72925
  0
LWPOLYLINE
  5
5D
100
AcDbEntity
  8
profiling
  6
ByLayer
 62
  256
370
   -1
100
AcDbPolyline
 90
   38
 70
    1
 43
0
 10
937.91175
 20
361.26825
 10
938.319
 20
361.22775
 10
938.7262500000001
 20
361.26825
 10
939.11775
 20
361.38675
 10
939.47925
 20
361.5795
 10
939.6525
 20
361.722
 10
939.79575
 20
361.83975
 10
940.05525
 20
362.15625
 10
940.248
 20
362.51775
 10
940.3665
 20
362.90925
 10
940.407
 20
363.3165
 10
940.3665
 20
363.72375
 10
940.248
 20
364.11525
 10
940.05525
 20
364.47675
 10
939.79575
 20
364.79325
 10
939.5069999999999
 20
365.03025
 10
939.47925
 20
365.05275
 10
939.11775
 20
365.2455
 10
938.7262500000001
 20
365.364
 10
938.319
 20
365.4045
 10
937.91175
 20
365.364
 10
937.5195
 20
365.2455
 10
937.34475
 20
365.1525
 10
937.158
 20
365.05275
 10
937.158
 20
365.05275
 10
936.8415
 20
364.79325
 10
936.582
 20
364.47675
 10
936.3892499999999
 20
364.11525
 10
936.27
 20
363.72375
 10
936.2295
 20
363.3165
 10
936.27
 20
362.90925
 10
936.27
 20
362.90925
 10
936.3892499999999
 20
362.51775
 10
936.582
 20
362.15625
 10
936.8415
 20
361.83975
 10
937.158
 20
361.58025
 10
937.51875
 20
361.3875
 10
937.9109999999999
 20
361.269
  0
ENDSEC
  0
SECTION
  2
OBJECTS
  0
DICTIONARY
  5
C
330
0
100
AcDbDictionary
281
    1
  3
ACAD_GROUP
350
D
  0
DICTIONARY
  5
D
330
C
100
AcDbDictionary
281
    1
  0
ENDSEC
  0
EOF
