999
dxfrw 0.6.3
  0
SECTION
  2
HEADER
  9
$ACADVER
  1
AC1021
  9
$DWGCODEPAGE
  3
ANSI_1252
  9
$INSBASE
 10
0
 20
0
 30
0
  9
$EXTMIN
 10
559.71525
 20
328.36275
 30
0
  9
$EXTMAX
 10
720.34275
 20
413.58
 30
0
  9
$LIMMIN
 10
0
 20
0
  9
$LIMMAX
 10
420
 20
297
  9
$ORTHOMODE
 70
    0
  9
$REGENMODE
 70
    1
  9
$FILLMODE
 70
    1
  9
$QTEXTMODE
 70
    0
  9
$MIRRTEXT
 70
    0
  9
$LTSCALE
 40
1
  9
$ATTMODE
 70
    0
  9
$TEXTSIZE
 40
2.5
  9
$TRACEWID
 40
15.68
  9
$TEXTSTYLE
  7
STANDARD
  9
$CLAYER
  8
pocket-1.25mm
  9
$CELTYPE
  6
BYLAYER
  9
$CECOLOR
 62
  256
  9
$CELTSCALE
 40
1
  9
$DISPSILH
 70
    0
  9
$DIMSCALE
 40
2.5
  9
$DIMASZ
 40
2.5
  9
$DIMEXO
 40
0.625
  9
$DIMDLI
 40
3.75
  9
$DIMRND
 40
0
  9
$DIMDLE
 40
0
  9
$DIMEXE
 40
1.25
  9
$DIMTP
 40
0
  9
$DIMTM
 40
0
  9
$DIMTXT
 40
2.5
  9
$DIMCEN
 40
2.5
  9
$DIMTSZ
 40
0
  9
$DIMTOL
 70
    0
  9
$DIMLIM
 70
    0
  9
$DIMTIH
 70
    0
  9
$DIMTOH
 70
    0
  9
$DIMSE1
 70
    0
  9
$DIMSE2
 70
    0
  9
$DIMTAD
 70
    1
  9
$DIMZIN
 70
    8
  9
$DIMBLK
  1

  9
$DIMASO
 70
    1
  9
$DIMSHO
 70
    1
  9
$DIMPOST
  1

  9
$DIMAPOST
  1

  9
$DIMALT
 70
    0
  9
$DIMALTD
 70
    3
  9
$DIMALTF
 40
0.03937
  9
$DIMLFAC
 40
1
  9
$DIMTOFL
 70
    1
  9
$DIMTVP
 40
0
  9
$DIMTIX
 70
    0
  9
$DIMSOXD
 70
    0
  9
$DIMSAH
 70
    0
  9
$DIMBLK1
  1

  9
$DIMBLK2
  1

  9
$DIMSTYLE
  2
Standard
  9
$DIMCLRD
 70
    0
  9
$DIMCLRE
 70
    0
  9
$DIMCLRT
 70
    0
  9
$DIMTFAC
 40
1
  9
$DIMGAP
 40
0.625
  9
$DIMJUST
 70
    0
  9
$DIMSD1
 70
    0
  9
$DIMSD2
 70
    0
  9
$DIMTOLJ
 70
    0
  9
$DIMTZIN
 70
    8
  9
$DIMALTZ
 70
    0
  9
$DIMALTTZ
 70
    0
  9
$DIMUPT
 70
    0
  9
$DIMDEC
 70
    2
  9
$DIMTDEC
 70
    2
  9
$DIMALTU
 70
    2
  9
$DIMALTTD
 70
    3
  9
$DIMTXSTY
  7
STANDARD
  9
$DIMAUNIT
 70
    0
  9
$DIMADEC
 70
    0
  9
$DIMALTRND
 40
0
  9
$DIMAZIN
 70
    0
  9
$DIMDSEP
 70
   44
  9
$DIMATFIT
 70
    3
  9
$DIMFRAC
 70
    0
  9
$DIMLDRBLK
  1
STANDARD
  9
$DIMLUNIT
 70
    2
  9
$DIMLWD
 70
   -2
  9
$DIMLWE
 70
   -2
  9
$DIMTMOVE
 70
    0
  9
$DIMFXL
 40
1
  9
$DIMFXLON
 70
    0
  9
$DIMJOGANG
 40
0.7854
  9
$DIMTFILL
 70
    0
  9
$DIMTFILLCLR
 70
    0
  9
$DIMARCSYM
 70
    0
  9
$DIMLTYPE
  6

  9
$DIMLTEX1
  6

  9
$DIMLTEX2
  6

  9
$LUNITS
 70
    2
  9
$LUPREC
 70
    4
  9
$SKETCHINC
 40
1
  9
$FILLETRAD
 40
0
  9
$AUNITS
 70
    0
  9
$AUPREC
 70
    2
  9
$MENU
  1
.
  9
$ELEVATION
 40
0
  9
$PELEVATION
 40
0
  9
$THICKNESS
 40
0
  9
$LIMCHECK
 70
    0
  9
$CHAMFERA
 40
0
  9
$CHAMFERB
 40
0
  9
$CHAMFERC
 40
0
  9
$CHAMFERD
 40
0
  9
$SKPOLY
 70
    0
  9
$USRTIMER
 70
    1
  9
$ANGBASE
 50
0
  9
$ANGDIR
 70
    0
  9
$PDMODE
 70
   34
  9
$PDSIZE
 40
0
  9
$PLINEWID
 40
0
  9
$SPLFRAME
 70
    0
  9
$SPLINETYPE
 70
    2
  9
$SPLINESEGS
 70
    8
  9
$HANDSEED
  5
20000
  9
$SURFTAB1
 70
    6
  9
$SURFTAB2
 70
    6
  9
$SURFTYPE
 70
    6
  9
$SURFU
 70
    6
  9
$SURFV
 70
    6
  9
$UCSBASE
  2

  9
$UCSNAME
  2

  9
$UCSORG
 10
0
 20
0
 30
0
  9
$UCSXDIR
 10
1
 20
0
 30
0
  9
$UCSYDIR
 10
0
 20
1
 30
0
  9
$UCSORTHOREF
  2

  9
$UCSORTHOVIEW
 70
    0
  9
$UCSORGTOP
 10
0
 20
0
 30
0
  9
$UCSORGBOTTOM
 10
0
 20
0
 30
0
  9
$UCSORGLEFT
 10
0
 20
0
 30
0
  9
$UCSORGRIGHT
 10
0
 20
0
 30
0
  9
$UCSORGFRONT
 10
0
 20
0
 30
0
  9
$UCSORGBACK
 10
0
 20
0
 30
0
  9
$PUCSBASE
  2

  9
$PUCSNAME
  2

  9
$PUCSORG
 10
0
 20
0
 30
0
  9
$PUCSXDIR
 10
1
 20
0
 30
0
  9
$PUCSYDIR
 10
0
 20
1
 30
0
  9
$PUCSORTHOREF
  2

  9
$PUCSORTHOVIEW
 70
    0
  9
$PUCSORGTOP
 10
0
 20
0
 30
0
  9
$PUCSORGBOTTOM
 10
0
 20
0
 30
0
  9
$PUCSORGLEFT
 10
0
 20
0
 30
0
  9
$PUCSORGRIGHT
 10
0
 20
0
 30
0
  9
$PUCSORGFRONT
 10
0
 20
0
 30
0
  9
$PUCSORGBACK
 10
0
 20
0
 30
0
  9
$USERI1
 70
    0
  9
$USERI2
 70
    0
  9
$USERI3
 70
    0
  9
$USERI4
 70
    0
  9
$USERI5
 70
    0
  9
$USERR1
 40
0
  9
$USERR2
 40
0
  9
$USERR3
 40
0
  9
$USERR4
 40
0
  9
$USERR5
 40
0
  9
$WORLDVIEW
 70
    1
  9
$SHADEDGE
 70
    3
  9
$SHADEDIF
 70
   70
  9
$TILEMODE
 70
    1
  9
$MAXACTVP
 70
   64
  9
$PINSBASE
 10
0
 20
0
 30
0
  9
$PLIMCHECK
 70
    0
  9
$PEXTMIN
 10
0
 20
0
 30
0
  9
$PEXTMAX
 10
0
 20
0
 30
0
  9
$GRIDMODE
 70
    0
  9
$SNAPSTYLE
 70
    0
  9
$PLIMMIN
 10
0
 20
0
  9
$PLIMMAX
 10
210
 20
297
  9
$UNITMODE
 70
    0
  9
$VISRETAIN
 70
    1
  9
$PLINEGEN
 70
    0
  9
$PSLTSCALE
 70
    1
  9
$TREEDEPTH
 70
 3020
  9
$CMLSTYLE
  2
Standard
  9
$CMLJUST
 70
    0
  9
$CMLSCALE
 40
20
  9
$PROXYGRAPHICS
 70
    1
  9
$MEASUREMENT
 70
    1
  9
$CELWEIGHT
370
   -1
  9
$ENDCAPS
280
    0
  9
$JOINSTYLE
280
    0
  9
$LWDISPLAY
290
    0
  9
$INSUNITS
 70
    4
  9
$HYPERLINKBASE
  1

  9
$STYLESHEET
  1

  9
$XEDIT
290
    1
  9
$CEPSNTYPE
380
    0
  9
$PSTYLEMODE
290
    1
  9
$EXTNAMES
290
    1
  9
$PSVPSCALE
 40
1
  9
$OLESTARTUP
290
    0
  9
$SORTENTS
280
  127
  9
$INDEXCTL
280
    0
  9
$HIDETEXT
280
    1
  9
$XCLIPFRAME
290
    0
  9
$HALOGAP
280
    0
  9
$OBSCOLOR
 70
  257
  9
$OBSLTYPE
280
    0
  9
$INTERSECTIONDISPLAY
280
    0
  9
$INTERSECTIONCOLOR
 70
  257
  9
$DIMASSOC
280
    1
  9
$PROJECTNAME
  1

  9
$CAMERADISPLAY
290
    0
  9
$LENSLENGTH
 40
50
  9
$CAMERAHEIGHT
 40
0
  9
$STEPSPERSEC
 40
2
  9
$STEPSIZE
 40
50
  9
$3DDWFPREC
 40
2
  9
$PSOLWIDTH
 40
5
  9
$PSOLHEIGHT
 40
80
  9
$LOFTANG1
 40
1.570796326794897
  9
$LOFTANG2
 40
1.570796326794897
  9
$LOFTMAG1
 40
0
  9
$LOFTMAG2
 40
0
  9
$LOFTPARAM
 70
    7
  9
$LOFTNORMALS
280
    1
  9
$LATITUDE
 40
1
  9
$LONGITUDE
 40
1
  9
$NORTHDIRECTION
 40
0
  9
$TIMEZONE
 70
-8000
  9
$LIGHTGLYPHDISPLAY
280
    1
  9
$TILEMODELIGHTSYNCH
280
    1
  9
$SOLIDHIST
280
    1
  9
$SHOWHIST
280
    1
  9
$DWFFRAME
280
    2
  9
$DGNFRAME
280
    0
  9
$REALWORLDSCALE
290
    1
  9
$INTERFERECOLOR
 62
    1
  9
$CSHADOW
280
    0
  9
$SHADOWPLANELOCATION
 40
0
  0
ENDSEC
  0
SECTION
  2
CLASSES
  0
ENDSEC
  0
SECTION
  2
TABLES
  0
TABLE
  2
VPORT
  5
8
330
0
100
AcDbSymbolTable
 70
    1
  0
VPORT
  5
31
330
2
100
AcDbSymbolTableRecord
100
AcDbViewportTableRecord
  2
*ACTIVE
 70
    0
 10
0
 20
0
 11
1
 21
1
 12
400.2707204828513
 22
213.5173679841658
 13
0
 23
0
 14
10
 24
10
 15
10
 25
10
 16
0
 26
0
 36
1
 17
0
 27
0
 37
0
 40
327.9087526887747
 41
0.9866989117291415
 42
50
 43
0
 44
0
 50
0
 51
0
 71
    0
 72
  100
 73
    1
 74
    3
 75
    0
 76
    0
 77
    0
 78
    0
281
    0
 65
    1
110
0
120
0
130
0
111
1
121
0
131
0
112
0
122
1
132
0
 79
    0
146
0
348
10020
 60
    7
 61
    5
292
1
282
    1
141
0
142
0
 63
  250
421
3358443
  0
ENDTAB
  0
TABLE
  2
LTYPE
  5
5
330
0
100
AcDbSymbolTable
 70
    4
  0
LTYPE
  5
14
330
5
100
AcDbSymbolTableRecord
100
AcDbLinetypeTableRecord
  2
ByBlock
 70
    0
  3

 72
   65
 73
    0
 40
0
  0
LTYPE
  5
15
330
5
100
AcDbSymbolTableRecord
100
AcDbLinetypeTableRecord
  2
ByLayer
 70
    0
  3

 72
   65
 73
    0
 40
0
  0
LTYPE
  5
16
330
5
100
AcDbSymbolTableRecord
100
AcDbLinetypeTableRecord
  2
Continuous
 70
    0
  3
Solid line
 72
   65
 73
    0
 40
0
  0
LTYPE
  5
32
330
5
100
AcDbSymbolTableRecord
100
AcDbLinetypeTableRecord
  2
DOT
 70
    0
  3
Dot . . . . . . . . . . . . . . . . . . . . . .
 72
   65
 73
    2
 40
6.35
 49
0
 74
    0
 49
-6.35
 74
    0
  0
LTYPE
  5
33
330
5
100
AcDbSymbolTableRecord
100
AcDbLinetypeTableRecord
  2
DOTTINY
 70
    0
  3
Dot (.15x) .....................................
 72
   65
 73
    2
 40
0.9525
 49
0
 74
    0
 49
-0.9525
 74
    0
  0
LTYPE
  5
34
330
5
100
AcDbSymbolTableRecord
100
AcDbLinetypeTableRecord
  2
DOT2
 70
    0
  3
Dot (.5x) .....................................
 72
   65
 73
    2
 40
3.175
 49
0
 74
    0
 49
-3.175
 74
    0
  0
LTYPE
  5
35
330
5
100
AcDbSymbolTableRecord
100
AcDbLinetypeTableRecord
  2
DOTX2
 70
    0
  3
Dot (2x) .  .  .  .  .  .  .  .  .  .  .  .  .
 72
   65
 73
    2
 40
12.7
 49
0
 74
    0
 49
-12.7
 74
    0
  0
LTYPE
  5
36
330
5
100
AcDbSymbolTableRecord
100
AcDbLinetypeTableRecord
  2
DASHED
 70
    0
  3
Dashed _ _ _ _ _ _ _ _ _ _ _ _ _ _ _ _ _
 72
   65
 73
    2
 40
19.05
 49
12.7
 74
    0
 49
-6.35
 74
    0
  0
LTYPE
  5
37
330
5
100
AcDbSymbolTableRecord
100
AcDbLinetypeTableRecord
  2
DASHEDTINY
 70
    0
  3
Dashed (.15x) _ _ _ _ _ _ _ _ _ _ _ _ _ _ _ _ _
 72
   65
 73
    2
 40
2.8575
 49
1.905
 74
    0
 49
-0.9525
 74
    0
  0
LTYPE
  5
38
330
5
100
AcDbSymbolTableRecord
100
AcDbLinetypeTableRecord
  2
DASHED2
 70
    0
  3
Dashed (.5x) _ _ _ _ _ _ _ _ _ _ _ _ _ _ _ _ _
 72
   65
 73
    2
 40
9.524999999999999
 49
6.35
 74
    0
 49
-3.175
 74
    0
  0
LTYPE
  5
39
330
5
100
AcDbSymbolTableRecord
100
AcDbLinetypeTableRecord
  2
DASHEDX2
 70
    0
  3
Dashed (2x) ____  ____  ____  ____  ____  ___
 72
   65
 73
    2
 40
38.09999999999999
 49
25.4
 74
    0
 49
-12.7
 74
    0
  0
LTYPE
  5
3A
330
5
100
AcDbSymbolTableRecord
100
AcDbLinetypeTableRecord
  2
DASHDOT
 70
    0
  3
Dash dot __ . __ . __ . __ . __ . __ . __ . __
 72
   65
 73
    4
 40
25.4
 49
12.7
 74
    0
 49
-6.35
 74
    0
 49
0
 74
    0
 49
-6.35
 74
    0
  0
LTYPE
  5
3B
330
5
100
AcDbSymbolTableRecord
100
AcDbLinetypeTableRecord
  2
DASHDOTTINY
 70
    0
  3
Dash dot (.15x) _._._._._._._._._._._._._._._.
 72
   65
 73
    4
 40
3.81
 49
1.905
 74
    0
 49
-0.9525
 74
    0
 49
0
 74
    0
 49
-0.9525
 74
    0
  0
LTYPE
  5
3C
330
5
100
AcDbSymbolTableRecord
100
AcDbLinetypeTableRecord
  2
DASHDOT2
 70
    0
  3
Dash dot (.5x) _._._._._._._._._._._._._._._.
 72
   65
 73
    4
 40
12.7
 49
6.35
 74
    0
 49
-3.175
 74
    0
 49
0
 74
    0
 49
-3.175
 74
    0
  0
LTYPE
  5
3D
330
5
100
AcDbSymbolTableRecord
100
AcDbLinetypeTableRecord
  2
DASHDOTX2
 70
    0
  3
Dash dot (2x) ____  .  ____  .  ____  .  ___
 72
   65
 73
    4
 40
50.8
 49
25.4
 74
    0
 49
-12.7
 74
    0
 49
0
 74
    0
 49
-12.7
 74
    0
  0
LTYPE
  5
3E
330
5
100
AcDbSymbolTableRecord
100
AcDbLinetypeTableRecord
  2
DIVIDE
 70
    0
  3
Divide ____ . . ____ . . ____ . . ____ . . ____
 72
   65
 73
    6
 40
31.75
 49
12.7
 74
    0
 49
-6.35
 74
    0
 49
0
 74
    0
 49
-6.35
 74
    0
 49
0
 74
    0
 49
-6.35
 74
    0
  0
LTYPE
  5
3F
330
5
100
AcDbSymbolTableRecord
100
AcDbLinetypeTableRecord
  2
DIVIDETINY
 70
    0
  3
Divide (.15x) __..__..__..__..__..__..__..__.._
 72
   65
 73
    6
 40
4.7625
 49
1.905
 74
    0
 49
-0.9525
 74
    0
 49
0
 74
    0
 49
-0.9525
 74
    0
 49
0
 74
    0
 49
-0.9525
 74
    0
  0
LTYPE
  5
40
330
5
100
AcDbSymbolTableRecord
100
AcDbLinetypeTableRecord
  2
DIVIDE2
 70
    0
  3
Divide (.5x) __..__..__..__..__..__..__..__.._
 72
   65
 73
    6
 40
15.875
 49
6.35
 74
    0
 49
-3.175
 74
    0
 49
0
 74
    0
 49
-3.175
 74
    0
 49
0
 74
    0
 49
-3.175
 74
    0
  0
LTYPE
  5
41
330
5
100
AcDbSymbolTableRecord
100
AcDbLinetypeTableRecord
  2
DIVIDEX2
 70
    0
  3
Divide (2x) ________  .  .  ________  .  .  _
 72
   65
 73
    6
 40
63.5
 49
25.4
 74
    0
 49
-12.7
 74
    0
 49
0
 74
    0
 49
-12.7
 74
    0
 49
0
 74
    0
 49
-12.7
 74
    0
  0
LTYPE
  5
42
330
5
100
AcDbSymbolTableRecord
100
AcDbLinetypeTableRecord
  2
BORDER
 70
    0
  3
Border __ __ . __ __ . __ __ . __ __ . __ __ .
 72
   65
 73
    6
 40
44.45
 49
12.7
 74
    0
 49
-6.35
 74
    0
 49
12.7
 74
    0
 49
-6.35
 74
    0
 49
0
 74
    0
 49
-6.35
 74
    0
  0
LTYPE
  5
43
330
5
100
AcDbSymbolTableRecord
100
AcDbLinetypeTableRecord
  2
BORDERTINY
 70
    0
  3
Border (.15x) __.__.__.__.__.__.__.__.__.__.__.
 72
   65
 73
    6
 40
6.6675
 49
1.905
 74
    0
 49
-0.9525
 74
    0
 49
1.905
 74
    0
 49
-0.9525
 74
    0
 49
0
 74
    0
 49
-0.9525
 74
    0
  0
LTYPE
  5
44
330
5
100
AcDbSymbolTableRecord
100
AcDbLinetypeTableRecord
  2
BORDER2
 70
    0
  3
Border (.5x) __.__.__.__.__.__.__.__.__.__.__.
 72
   65
 73
    6
 40
22.225
 49
6.35
 74
    0
 49
-3.175
 74
    0
 49
6.35
 74
    0
 49
-3.175
 74
    0
 49
0
 74
    0
 49
-3.175
 74
    0
  0
LTYPE
  5
45
330
5
100
AcDbSymbolTableRecord
100
AcDbLinetypeTableRecord
  2
BORDERX2
 70
    0
  3
Border (2x) ____  ____  .  ____  ____  .  ___
 72
   65
 73
    6
 40
88.89999999999999
 49
25.4
 74
    0
 49
-12.7
 74
    0
 49
25.4
 74
    0
 49
-12.7
 74
    0
 49
0
 74
    0
 49
-12.7
 74
    0
  0
LTYPE
  5
46
330
5
100
AcDbSymbolTableRecord
100
AcDbLinetypeTableRecord
  2
CENTER
 70
    0
  3
Center ____ _ ____ _ ____ _ ____ _ ____ _ ____
 72
   65
 73
    4
 40
50.8
 49
31.75
 74
    0
 49
-6.35
 74
    0
 49
6.35
 74
    0
 49
-6.35
 74
    0
  0
LTYPE
  5
47
330
5
100
AcDbSymbolTableRecord
100
AcDbLinetypeTableRecord
  2
CENTERTINY
 70
    0
  3
Center (.15x) ___ _ ___ _ ___ _ ___ _ ___ _ ___
 72
   65
 73
    4
 40
7.619999999999999
 49
4.7625
 74
    0
 49
-0.9525
 74
    0
 49
0.9525
 74
    0
 49
-0.9525
 74
    0
  0
LTYPE
  5
48
330
5
100
AcDbSymbolTableRecord
100
AcDbLinetypeTableRecord
  2
CENTER2
 70
    0
  3
Center (.5x) ___ _ ___ _ ___ _ ___ _ ___ _ ___
 72
   65
 73
    4
 40
28.575
 49
19.05
 74
    0
 49
-3.175
 74
    0
 49
3.175
 74
    0
 49
-3.175
 74
    0
  0
LTYPE
  5
49
330
5
100
AcDbSymbolTableRecord
100
AcDbLinetypeTableRecord
  2
CENTERX2
 70
    0
  3
Center (2x) ________  __  ________  __  _____
 72
   65
 73
    4
 40
101.6
 49
63.5
 74
    0
 49
-12.7
 74
    0
 49
12.7
 74
    0
 49
-12.7
 74
    0
  0
ENDTAB
  0
TABLE
  2
LAYER
  5
2
330
0
100
AcDbSymbolTable
 70
    1
  0
LAYER
  5
10
330
2
100
AcDbSymbolTableRecord
100
AcDbLayerTableRecord
  2
0
 70
    0
 62
    7
  6
CONTINUOUS
370
   -3
390
F
  0
LAYER
  5
4A
330
2
100
AcDbSymbolTableRecord
100
AcDbLayerTableRecord
  2
pocket-1.25mm
 70
    0
 62
    4
  6
CONTINUOUS
370
    0
390
F
  0
LAYER
  5
4B
330
2
100
AcDbSymbolTableRecord
100
AcDbLayerTableRecord
  2
profiling
 70
    0
 62
    3
  6
CONTINUOUS
370
    0
390
F
  0
LAYER
  5
4C
330
2
100
AcDbSymbolTableRecord
100
AcDbLayerTableRecord
  2
vcut
 70
    0
 62
    6
  6
CONTINUOUS
370
    0
390
F
  0
ENDTAB
  0
TABLE
  2
STYLE
  5
3
330
0
100
AcDbSymbolTable
 70
    3
  0
STYLE
  5
4D
330
2
100
AcDbSymbolTableRecord
100
AcDbTextStyleTableRecord
  2
Standard
 70
    0
 40
0
 41
1
 50
0
 71
    0
 42
1
  3
txt
  4

  0
ENDTAB
  0
TABLE
  2
VIEW
  5
6
330
0
100
AcDbSymbolTable
 70
    0
  0
ENDTAB
  0
TABLE
  2
UCS
  5
7
330
0
100
AcDbSymbolTable
 70
    0
  0
ENDTAB
  0
TABLE
  2
APPID
  5
9
330
0
100
AcDbSymbolTable
 70
    1
  0
APPID
  5
12
330
9
100
AcDbSymbolTableRecord
100
AcDbRegAppTableRecord
  2
ACAD
 70
    0
  0
APPID
  5
4E
330
9
100
AcDbSymbolTableRecord
100
AcDbRegAppTableRecord
  2
LibreCad
 70
    0
  0
ENDTAB
  0
TABLE
  2
DIMSTYLE
  5
A
330
0
100
AcDbSymbolTable
 70
    1
100
AcDbDimStyleTable
 71
    1
  0
DIMSTYLE
105
4F
330
A
100
AcDbSymbolTableRecord
100
AcDbDimStyleTableRecord
  2
Standard
 70
    0
 40
2.5
 41
2.5
 42
0.625
 43
0.38
 44
1.25
 45
0
 46
0
 47
0
 48
0
 49
1
140
2.5
141
0.09
142
0
143
25.4
144
1
145
0
146
1
147
0.625
148
0
 71
    0
 72
    0
 73
    0
 74
    1
 75
    0
 76
    0
 77
    0
 78
    8
 79
    0
170
    0
171
    2
172
    0
173
    0
174
    0
175
    0
176
    0
177
    0
178
    0
179
    0
271
    2
272
    4
273
    2
274
    2
275
    0
276
    0
277
    2
278
   44
279
    0
280
    0
281
    0
282
    0
283
    1
284
    0
285
    0
286
    0
288
    0
289
    3
340
STANDARD
341

371
   -2
372
   -2
  0
ENDTAB
  0
TABLE
  2
BLOCK_RECORD
  5
1
330
0
100
AcDbSymbolTable
 70
    2
  0
BLOCK_RECORD
  5
1F
330
1
100
AcDbSymbolTableRecord
100
AcDbBlockTableRecord
  2
*Model_Space
 70
    0
280
    1
281
    0
  0
BLOCK_RECORD
  5
1E
330
1
100
AcDbSymbolTableRecord
100
AcDbBlockTableRecord
  2
*Paper_Space
 70
    0
280
    1
281
    0
  0
ENDTAB
  0
ENDSEC
  0
SECTION
  2
BLOCKS
  0
BLOCK
  5
20
330
1F
100
AcDbEntity
  8
0
100
AcDbBlockBegin
  2
*Model_Space
 70
    0
 10
0
 20
0
 30
0
  3
*Model_Space
  1

  0
ENDBLK
  5
21
330
1F
100
AcDbEntity
  8
0
100
AcDbBlockEnd
  0
BLOCK
  5
1C
330
1B
100
AcDbEntity
  8
0
100
AcDbBlockBegin
  2
*Paper_Space
 70
    0
 10
0
 20
0
 30
0
  3
*Paper_Space
  1

  0
ENDBLK
  5
1D
330
1F
100
AcDbEntity
  8
0
100
AcDbBlockEnd
  0
ENDSEC
  0
SECTION
  2
ENTITIES
  0
LWPOLYLINE
  5
50
100
AcDbEntity
  8
pocket-1.25mm
  6
ByLayer
 62
  256
370
   -1
100
AcDbPolyline
 90
   48
 70
    1
 43
0
 10
600.35025
 20
344.883
 10
599.71875
 20
344.82075
 10
599.11125
 20
344.63625
 10
598.55175
 20
344.337
 10
598.06125
 20
343.93425
 10
597.6585
 20
343.44375
 10
597.35925
 20
342.88425
 10
597.17475
 20
342.27675
 10
597.1125
 20
341.64525
 10
597.17475
 20
341.01375
 10
597.35925
 20
340.40625
 10
597.6585
 20
339.84675
 10
598.06125
 20
339.35625
 10
598.55175
 20
338.9535
 10
599.11125
 20
338.65425
 10
599.71875
 20
338.46975
 10
600.35025
 20
338.4075
 10
606.96825
 20
338.4045
 10
608.93625
 20
338.46675
 10
611.2125
 20
338.64975
 10
681.47925
 20
349.428
 10
683.97825
 20
349.7295
 10
686.31975
 20
349.92
 10
688.3440000000001
 20
349.98675
 10
697.51875
 20
349.99575
 10
698.15025
 20
350.058
 10
698.75775
 20
350.2425
 10
699.3172499999999
 20
350.54175
 10
699.8077500000001
 20
350.9445
 10
700.2105
 20
351.435
 10
700.5097500000001
 20
351.9945
 10
700.69425
 20
352.602
 10
700.7565
 20
353.2335
 10
700.69425
 20
353.865
 10
700.5097500000001
 20
354.4725
 10
700.2105
 20
355.032
 10
699.8077500000001
 20
355.5225
 10
699.3172499999999
 20
355.92525
 10
698.75775
 20
356.2245
 10
698.15025
 20
356.409
 10
697.51875
 20
356.47125
 10
688.3440000000001
 20
356.48025
 10
686.31975
 20
356.41875
 10
683.97825
 20
356.23275
 10
681.47925
 20
355.935
 10
610.99425
 20
345.17175
 10
608.5192500000001
 20
344.96925
 10
606.3795
 20
344.898
  0
LWPOLYLINE
  5
51
100
AcDbEntity
  8
profiling
  6
ByLayer
 62
  256
370
   -1
100
AcDbPolyline
 90
  249
 70
    1
 43
0
 10
720.1950000000001
 20
385.91175
 10
720.1950000000001
 20
385.91175
 10
720.34275
 20
382.905
 10
720.34275
 20
382.905
 10
720.34275
 20
382.905
 10
720.34275
 20
359.03625
 10
720.34275
 20
359.03625
 10
720.34275
 20
359.03625
 10
720.34275
 20
359.03625
 10
720.1950000000001
 20
356.0295
 10
720.1950000000001
 20
356.0295
 10
719.75325
 20
353.052
 10
719.75325
 20
353.052
 10
719.75325
 20
353.052
 10
719.75325
 20
353.052
 10
719.022
 20
350.13225
 10
719.022
 20
350.13225
 10
718.008
 20
347.298
 10
718.008
 20
347.298
 10
718.008
 20
347.298
 10
718.008
 20
347.298
 10
716.721
 20
344.577
 10
716.721
 20
344.577
 10
715.17375
 20
341.99475
 10
715.17375
 20
341.99475
 10
715.17375
 20
341.99475
 10
713.3805
 20
339.57675
 10
713.3805
 20
339.57675
 10
713.3805
 20
339.57675
 10
713.3805
 20
339.57675
 10
711.35925
 20
337.34625
 10
711.35925
 20
337.34625
 10
709.12875
 20
335.325
 10
709.12875
 20
335.325
 10
709.12875
 20
335.325
 10
709.12875
 20
335.325
 10
706.71075
 20
333.53175
 10
706.71075
 20
333.53175
 10
706.71075
 20
333.53175
 10
704.1285
 20
331.9845
 10
704.1285
 20
331.9845
 10
701.4075
 20
330.6975
 10
701.4075
 20
330.6975
 10
701.4075
 20
330.6975
 10
701.4075
 20
330.6975
 10
698.57325
 20
329.6835
 10
698.57325
 20
329.6835
 10
695.65275
 20
328.95225
 10
695.65275
 20
328.95225
 10
695.65275
 20
328.95225
 10
695.65275
 20
328.95225
 10
692.67525
 20
328.5105
 10
692.67525
 20
328.5105
 10
689.6685
 20
328.36275
 10
689.6685
 20
328.36275
 10
689.6685
 20
328.36275
 10
604.2885
 20
328.36275
 10
604.2885
 20
328.36275
 10
599.721
 20
328.36275
 10
599.721
 20
328.36275
 10
599.721
 20
328.36275
 10
599.721
 20
328.36275
 10
599.721
 20
328.36275
 10
596.71425
 20
328.5105
 10
596.71425
 20
328.5105
 10
593.73675
 20
328.95225
 10
593.73675
 20
328.95225
 10
593.73675
 20
328.95225
 10
593.73675
 20
328.95225
 10
593.73675
 20
328.95225
 10
593.73675
 20
328.95225
 10
593.73675
 20
328.95225
 10
590.81625
 20
329.6835
 10
590.81625
 20
329.6835
 10
587.982
 20
330.6975
 10
587.982
 20
330.6975
 10
587.982
 20
330.6975
 10
587.982
 20
330.6975
 10
587.982
 20
330.6975
 10
587.982
 20
330.6975
 10
587.982
 20
330.6975
 10
585.261
 20
331.9845
 10
585.261
 20
331.9845
 10
585.261
 20
331.9845
 10
585.261
 20
331.9845
 10
585.261
 20
331.9845
 10
582.67875
 20
333.53175
 10
582.67875
 20
333.53175
 10
582.67875
 20
333.53175
 10
582.67875
 20
333.53175
 10
580.26075
 20
335.325
 10
580.26075
 20
335.325
 10
580.26075
 20
335.325
 10
580.26075
 20
335.325
 10
578.03025
 20
337.34625
 10
578.03025
 20
337.34625
 10
576.009
 20
339.57675
 10
576.009
 20
339.57675
 10
576.009
 20
339.57675
 10
576.009
 20
339.57675
 10
576.009
 20
339.57675
 10
576.009
 20
339.57675
 10
574.21575
 20
341.99475
 10
574.21575
 20
341.99475
 10
572.66775
 20
344.577
 10
572.66775
 20
344.577
 10
572.66775
 20
344.577
 10
572.66775
 20
344.577
 10
572.66775
 20
344.577
 10
571.38075
 20
347.298
 10
571.38075
 20
347.298
 10
571.38075
 20
347.298
 10
571.38075
 20
347.298
 10
571.38075
 20
347.298
 10
571.38075
 20
347.298
 10
571.38075
 20
347.298
 10
570.36675
 20
350.13225
 10
570.36675
 20
350.13225
 10
570.36675
 20
350.13225
 10
570.36675
 20
350.13225
 10
569.6355
 20
353.05275
 10
569.6355
 20
353.05275
 10
569.6355
 20
353.05275
 10
569.6355
 20
353.05275
 10
568.98825
 20
356.03025
 10
568.98825
 20
356.03025
 10
568.98825
 20
356.03025
 10
568.98825
 20
356.03025
 10
568.98825
 20
356.03025
 10
568.98825
 20
356.03025
 10
568.98825
 20
356.03025
 10
568.3755
 20
359.037
 10
568.3755
 20
359.037
 10
568.3755
 20
359.037
 10
559.8135
 20
407.15325
 10
559.8135
 20
407.15325
 10
559.8135
 20
407.15325
 10
559.7325
 20
407.78325
 10
559.7325
 20
407.78325
 10
559.7325
 20
407.78325
 10
559.7325
 20
407.78325
 10
559.7325
 20
407.78325
 10
559.71525
 20
408.40725
 10
559.71525
 20
408.40725
 10
559.76175
 20
409.01925
 10
559.76175
 20
409.01925
 10
559.76175
 20
409.01925
 10
559.76175
 20
409.01925
 10
559.872
 20
409.61325
 10
559.872
 20
409.61325
 10
559.872
 20
409.61325
 10
559.872
 20
409.61325
 10
559.872
 20
409.61325
 10
559.872
 20
409.61325
 10
559.872
 20
409.61325
 10
560.0445
 20
410.18325
 10
560.0445
 20
410.18325
 10
560.0445
 20
410.18325
 10
560.0445
 20
410.18325
 10
560.0445
 20
410.18325
 10
560.0445
 20
410.18325
 10
560.27775
 20
410.724
 10
560.27775
 20
410.724
 10
560.5694999999999
 20
411.23025
 10
560.5694999999999
 20
411.23025
 10
560.5694999999999
 20
411.23025
 10
560.5694999999999
 20
411.23025
 10
560.91675
 20
411.6975
 10
560.91675
 20
411.6975
 10
560.91675
 20
411.6975
 10
560.91675
 20
411.6975
 10
561.31575
 20
412.12125
 10
561.31575
 20
412.12125
 10
561.31575
 20
412.12125
 10
561.31575
 20
412.12125
 10
561.31575
 20
412.12125
 10
561.7635
 20
412.497
 10
561.7635
 20
412.497
 10
562.2555
 20
412.821
 10
562.2555
 20
412.821
 10
562.2555
 20
412.821
 10
562.2555
 20
412.821
 10
562.2555
 20
412.821
 10
562.2555
 20
412.821
 10
562.2555
 20
412.821
 10
562.7865
 20
413.091
 10
562.7865
 20
413.091
 10
563.352
 20
413.30325
 10
563.352
 20
413.30325
 10
563.352
 20
413.30325
 10
563.352
 20
413.30325
 10
563.352
 20
413.30325
 10
563.946
 20
413.45625
 10
563.946
 20
413.45625
 10
563.946
 20
413.45625
 10
563.946
 20
413.45625
 10
564.56325
 20
413.5485
 10
564.56325
 20
413.5485
 10
564.56325
 20
413.5485
 10
564.56325
 20
413.5485
 10
565.19775
 20
413.57925
 10
565.19775
 20
413.57925
 10
565.19775
 20
413.57925
 10
565.19775
 20
413.57925
 10
565.19775
 20
413.57925
 10
604.28925
 20
413.58
 10
604.28925
 20
413.58
 10
604.28925
 20
413.58
 10
689.66925
 20
413.58
 10
689.66925
 20
413.58
 10
692.676
 20
413.43225
 10
692.676
 20
413.43225
 10
695.6535
 20
412.9905
 10
695.6535
 20
412.9905
 10
698.574
 20
412.25925
 10
698.574
 20
412.25925
 10
701.40825
 20
411.24525
 10
701.40825
 20
411.24525
 10
704.12925
 20
409.95825
 10
704.12925
 20
409.95825
 10
704.12925
 20
409.95825
 10
704.12925
 20
409.95825
 10
706.7115
 20
408.411
 10
706.7115
 20
408.411
 10
709.1295
 20
406.61775
 10
709.1295
 20
406.61775
 10
709.1295
 20
406.61775
 10
709.1295
 20
406.61775
 10
711.36
 20
404.5965
 10
711.36
 20
404.5965
 10
713.38125
 20
402.366
 10
713.38125
 20
402.366
 10
713.38125
 20
402.366
 10
715.1745
 20
399.948
 10
715.1745
 20
399.948
 10
715.1745
 20
399.948
 10
716.72175
 20
397.36575
 10
716.72175
 20
397.36575
 10
716.72175
 20
397.36575
 10
716.72175
 20
397.36575
 10
718.00875
 20
394.64475
 10
718.00875
 20
394.64475
 10
719.02275
 20
391.8105
 10
719.02275
 20
391.8105
 10
719.02275
 20
391.8105
 10
719.02275
 20
391.8105
 10
719.754
 20
388.89
 10
719.754
 20
388.89
 10
720.19575
 20
385.9125
  0
LWPOLYLINE
  5
52
100
AcDbEntity
  8
profiling
  6
ByLayer
 62
  256
370
   -1
100
AcDbPolyline
 90
   35
 70
    1
 43
0
 10
693.38325
 20
379.1835
 10
694.0365
 20
379.98
 10
694.5225
 20
380.88825
 10
694.82175
 20
381.87375
 10
694.923
 20
382.899
 10
694.8630000000001
 20
383.508
 10
694.82175
 20
383.92425
 10
694.5225
 20
384.9105
 10
694.0365
 20
385.81875
 10
693.38325
 20
386.61525
 10
692.5867500000001
 20
387.2685
 10
691.6785
 20
387.7545
 10
690.6922499999999
 20
388.05375
 10
689.667
 20
388.155
 10
688.64175
 20
388.05375
 10
687.6555
 20
387.7545
 10
686.74725
 20
387.2685
 10
685.95075
 20
386.61525
 10
685.2975
 20
385.81875
 10
684.8115
 20
384.9105
 10
684.51225
 20
383.92425
 10
684.5115
 20
383.916
 10
684.4109999999999
 20
382.899
 10
684.51225
 20
381.87375
 10
684.8115
 20
380.88825
 10
685.2975
 20
379.98
 10
685.95075
 20
379.1835
 10
686.74725
 20
378.53025
 10
687.6555
 20
378.04425
 10
688.64175
 20
377.745
 10
689.667
 20
377.64375
 10
690.6922499999999
 20
377.745
 10
691.6785
 20
378.04425
 10
692.5867500000001
 20
378.53025
 10
693.38325
 20
379.1835
  0
LWPOLYLINE
  5
53
100
AcDbEntity
  8
profiling
  6
ByLayer
 62
  256
370
   -1
100
AcDbPolyline
 90
   43
 70
    1
 43
0
 10
583.14
 20
344.76825
 10
583.17525
 20
344.40675
 10
583.29375
 20
344.01525
 10
583.3905
 20
343.8345
 10
583.48725
 20
343.65375
 10
583.74675
 20
343.33725
 10
584.06325
 20
343.07775
 10
584.42475
 20
342.885
 10
584.42475
 20
342.885
 10
584.7195
 20
342.79575
 10
584.817
 20
342.7665
 10
585.22425
 20
342.726
 10
585.6315
 20
342.7665
 10
586.023
 20
342.885
 10
586.3845
 20
343.07775
 10
586.701
 20
343.33725
 10
586.9605
 20
343.65375
 10
587.15325
 20
344.01525
 10
587.27175
 20
344.40675
 10
587.3122499999999
 20
344.814
 10
587.292
 20
345.018
 10
587.28525
 20
345.08775
 10
587.27175
 20
345.222
 10
587.15325
 20
345.6135
 10
586.9605
 20
345.975
 10
586.701
 20
346.2915
 10
586.3845
 20
346.551
 10
586.023
 20
346.74375
 10
585.6315
 20
346.86225
 10
585.22425
 20
346.90275
 10
584.817
 20
346.86225
 10
584.42475
 20
346.74375
 10
584.064
 20
346.551
 10
584.064
 20
346.551
 10
583.7474999999999
 20
346.2915
 10
583.71375
 20
346.251
 10
583.48725
 20
345.975
 10
583.31475
 20
345.6525
 10
583.29375
 20
345.6135
 10
583.272
 20
345.54225
 10
583.1745
 20
345.222
 10
583.134
 20
344.81475
 10
583.1385
 20
344.769
  0
LWPOLYLINE
  5
54
100
AcDbEntity
  8
profiling
  6
ByLayer
 62
  256
370
   -1
100
AcDbPolyline
 90
   41
 70
    1
 43
0
 10
619.4265
 20
335.33325
 10
619.7430000000001
 20
335.59275
 10
620.0025000000001
 20
335.90925
 10
620.19525
 20
336.27075
 10
620.3145
 20
336.66225
 10
620.35425
 20
337.0695
 10
620.3145
 20
337.47675
 10
620.19525
 20
337.86825
 10
620.0025000000001
 20
338.22975
 10
619.87275
 20
338.388
 10
619.7430000000001
 20
338.54625
 10
619.4265
 20
338.80575
 10
619.26825
 20
338.8905
 10
619.0650000000001
 20
338.99925
 10
618.6735
 20
339.11775
 10
618.26625
 20
339.15825
 10
617.859
 20
339.11775
 10
617.4675
 20
338.99925
 10
617.2005
 20
338.85675
 10
617.10675
 20
338.8065
 10
616.9485
 20
338.67675
 10
616.79025
 20
338.547
 10
616.53075
 20
338.2305
 10
616.5105
 20
338.19225
 10
616.338
 20
337.869
 10
616.26975
 20
337.64325
 10
616.2195
 20
337.47675
 10
616.179
 20
337.0695
 10
616.2195
 20
336.66225
 10
616.338
 20
336.27075
 10
616.53075
 20
335.90925
 10
616.659
 20
335.7525
 10
616.79025
 20
335.59275
 10
617.10675
 20
335.33325
 10
617.46825
 20
335.1405
 10
617.85975
 20
335.022
 10
618.0119999999999
 20
335.007
 10
618.2670000000001
 20
334.9815
 10
618.67425
 20
335.022
 10
619.06575
 20
335.1405
 10
619.42725
 20
335.33325
  0
LWPOLYLINE
  5
55
100
AcDbEntity
  8
profiling
  6
ByLayer
 62
  256
370
   -1
100
AcDbPolyline
 90
   36
 70
    1
 43
0
 10
709.29
 20
345.76275
 10
709.0305
 20
345.44625
 10
708.83775
 20
345.08475
 10
708.71925
 20
344.69325
 10
708.67875
 20
344.286
 10
708.71925
 20
343.87875
 10
708.83775
 20
343.48725
 10
709.0305
 20
343.12575
 10
709.29
 20
342.80925
 10
709.6065
 20
342.54975
 10
709.968
 20
342.357
 10
710.3595
 20
342.2385
 10
710.76675
 20
342.198
 10
711.174
 20
342.2385
 10
711.56625
 20
342.357
 10
711.927
 20
342.54975
 10
711.927
 20
342.54975
 10
712.2435
 20
342.80925
 10
712.503
 20
343.12575
 10
712.69575
 20
343.48725
 10
712.8150000000001
 20
343.87875
 10
712.8555
 20
344.286
 10
712.8150000000001
 20
344.69325
 10
712.69575
 20
345.08475
 10
712.503
 20
345.44625
 10
712.42575
 20
345.54075
 10
712.2435
 20
345.76275
 10
711.927
 20
346.02225
 10
711.56625
 20
346.215
 10
711.174
 20
346.3335
 10
710.80575
 20
346.3695
 10
710.76675
 20
346.37325
 10
710.3595
 20
346.33275
 10
709.968
 20
346.21425
 10
709.6065
 20
346.0215
 10
709.29
 20
345.762
  0
LWPOLYLINE
  5
56
100
AcDbEntity
  8
profiling
  6
ByLayer
 62
  256
370
   -1
100
AcDbPolyline
 90
   75
 70
    1
 43
0
 10
691.272
 20
407.43225
 10
691.4655
 20
407.3835
 10
691.66275
 20
407.35425
 10
691.86225
 20
407.3445
 10
692.06175
 20
407.35425
 10
692.259
 20
407.3835
 10
692.4525
 20
407.43225
 10
692.64075
 20
407.49975
 10
692.8215
 20
407.58525
 10
692.9924999999999
 20
407.688
 10
693.153
 20
407.8065
 10
693.30075
 20
407.94075
 10
693.42
 20
408.07275
 10
693.43425
 20
408.0885
 10
693.5535
 20
408.249
 10
693.65625
 20
408.42
 10
693.74175
 20
408.60075
 10
693.80925
 20
408.789
 10
693.8579999999999
 20
408.9825
 10
693.88725
 20
409.17975
 10
693.89175
 20
409.275
 10
693.897
 20
409.37925
 10
693.8925
 20
409.47675
 10
693.88725
 20
409.57875
 10
693.8579999999999
 20
409.776
 10
693.8099999999999
 20
409.96875
 10
693.8099999999999
 20
409.9695
 10
693.7424999999999
 20
410.15775
 10
693.657
 20
410.3385
 10
693.55425
 20
410.5095
 10
693.4349999999999
 20
410.67
 10
693.30075
 20
410.81775
 10
693.153
 20
410.952
 10
692.9924999999999
 20
411.0705
 10
692.8215
 20
411.17325
 10
692.8215
 20
411.17325
 10
692.64075
 20
411.25875
 10
692.4525
 20
411.32625
 10
692.4525
 20
411.32625
 10
692.259
 20
411.375
 10
692.08275
 20
411.40125
 10
692.06175
 20
411.40425
 10
691.86225
 20
411.414
 10
691.66275
 20
411.40425
 10
691.4655
 20
411.375
 10
691.272
 20
411.32625
 10
691.0845
 20
411.25875
 10
690.9037499999999
 20
411.17325
 10
690.73275
 20
411.0705
 10
690.5722500000001
 20
410.952
 10
690.4245
 20
410.81775
 10
690.29025
 20
410.67
 10
690.171
 20
410.5095
 10
690.1365
 20
410.4525
 10
690.06825
 20
410.3385
 10
689.98275
 20
410.15775
 10
689.9295
 20
410.0085
 10
689.9160000000001
 20
409.97025
 10
689.86725
 20
409.77675
 10
689.838
 20
409.5795
 10
689.82825
 20
409.38
 10
689.838
 20
409.1805
 10
689.86725
 20
408.98325
 10
689.9160000000001
 20
408.78975
 10
689.9835
 20
408.6015
 10
690.069
 20
408.42075
 10
690.17175
 20
408.24975
 10
690.2910000000001
 20
408.08925
 10
690.42525
 20
407.9415
 10
690.573
 20
407.80725
 10
690.7335
 20
407.68875
 10
690.9045
 20
407.586
 10
691.08525
 20
407.5005
 10
691.2705
 20
407.4345
 10
691.27275
 20
407.43375
  0
LWPOLYLINE
  5
57
100
AcDbEntity
  8
profiling
  6
ByLayer
 62
  256
370
   -1
100
AcDbPolyline
 90
   42
 70
    1
 43
0
 10
571.73175
 20
399.53925
 10
571.539
 20
399.90075
 10
571.2795
 20
400.21725
 10
570.963
 20
400.47675
 10
570.6015
 20
400.6695
 10
570.21
 20
400.788
 10
569.8027499999999
 20
400.8285
 10
569.3955
 20
400.788
 10
569.004
 20
400.6695
 10
568.6425
 20
400.47675
 10
568.326
 20
400.21725
 10
568.0665
 20
399.90075
 10
567.87375
 20
399.53925
 10
567.75525
 20
399.14775
 10
567.71475
 20
398.7405
 10
567.71475
 20
398.7405
 10
567.75525
 20
398.33325
 10
567.87375
 20
397.94175
 10
568.0665
 20
397.58025
 10
568.326
 20
397.26375
 10
568.6425
 20
397.00425
 10
569.004
 20
396.8115
 10
569.3955
 20
396.693
 10
569.8027499999999
 20
396.6525
 10
570.21
 20
396.693
 10
570.312
 20
396.72375
 10
570.4349999999999
 20
396.76125
 10
570.60225
 20
396.81225
 10
570.96375
 20
397.005
 10
571.00575
 20
397.0395
 10
571.1415
 20
397.15125
 10
571.28025
 20
397.26525
 10
571.53975
 20
397.58175
 10
571.67475
 20
397.83375
 10
571.73325
 20
397.94325
 10
571.73325
 20
397.94325
 10
571.7737499999999
 20
398.0775
 10
571.85175
 20
398.3355
 10
571.85175
 20
398.3355
 10
571.89225
 20
398.74275
 10
571.85175
 20
399.15
 10
571.73325
 20
399.5415
  0
ENDSEC
  0
SECTION
  2
OBJECTS
  0
DICTIONARY
  5
C
330
0
100
AcDbDictionary
281
    1
  3
ACAD_GROUP
350
D
  0
DICTIONARY
  5
D
330
C
100
AcDbDictionary
281
    1
  0
ENDSEC
  0
EOF
