999
dxfrw 0.6.3
  0
SECTION
  2
HEADER
  9
$ACADVER
  1
AC1021
  9
$DWGCODEPAGE
  3
ANSI_1252
  9
$INSBASE
 10
0
 20
0
 30
0
  9
$EXTMIN
 10
415.149
 20
526.7865
 30
0
  9
$EXTMAX
 10
577.79475
 20
612.0045
 30
0
  9
$LIMMIN
 10
0
 20
0
  9
$LIMMAX
 10
420
 20
297
  9
$ORTHOMODE
 70
    0
  9
$REGENMODE
 70
    1
  9
$FILLMODE
 70
    1
  9
$QTEXTMODE
 70
    0
  9
$MIRRTEXT
 70
    0
  9
$LTSCALE
 40
1
  9
$ATTMODE
 70
    0
  9
$TEXTSIZE
 40
2.5
  9
$TRACEWID
 40
15.68
  9
$TEXTSTYLE
  7
STANDARD
  9
$CLAYER
  8
pocket-1.25mm
  9
$CELTYPE
  6
BYLAYER
  9
$CECOLOR
 62
  256
  9
$CELTSCALE
 40
1
  9
$DISPSILH
 70
    0
  9
$DIMSCALE
 40
2.5
  9
$DIMASZ
 40
2.5
  9
$DIMEXO
 40
0.625
  9
$DIMDLI
 40
3.75
  9
$DIMRND
 40
0
  9
$DIMDLE
 40
0
  9
$DIMEXE
 40
1.25
  9
$DIMTP
 40
0
  9
$DIMTM
 40
0
  9
$DIMTXT
 40
2.5
  9
$DIMCEN
 40
2.5
  9
$DIMTSZ
 40
0
  9
$DIMTOL
 70
    0
  9
$DIMLIM
 70
    0
  9
$DIMTIH
 70
    0
  9
$DIMTOH
 70
    0
  9
$DIMSE1
 70
    0
  9
$DIMSE2
 70
    0
  9
$DIMTAD
 70
    1
  9
$DIMZIN
 70
    8
  9
$DIMBLK
  1

  9
$DIMASO
 70
    1
  9
$DIMSHO
 70
    1
  9
$DIMPOST
  1

  9
$DIMAPOST
  1

  9
$DIMALT
 70
    0
  9
$DIMALTD
 70
    3
  9
$DIMALTF
 40
0.03937
  9
$DIMLFAC
 40
1
  9
$DIMTOFL
 70
    1
  9
$DIMTVP
 40
0
  9
$DIMTIX
 70
    0
  9
$DIMSOXD
 70
    0
  9
$DIMSAH
 70
    0
  9
$DIMBLK1
  1

  9
$DIMBLK2
  1

  9
$DIMSTYLE
  2
Standard
  9
$DIMCLRD
 70
    0
  9
$DIMCLRE
 70
    0
  9
$DIMCLRT
 70
    0
  9
$DIMTFAC
 40
1
  9
$DIMGAP
 40
0.625
  9
$DIMJUST
 70
    0
  9
$DIMSD1
 70
    0
  9
$DIMSD2
 70
    0
  9
$DIMTOLJ
 70
    0
  9
$DIMTZIN
 70
    8
  9
$DIMALTZ
 70
    0
  9
$DIMALTTZ
 70
    0
  9
$DIMUPT
 70
    0
  9
$DIMDEC
 70
    2
  9
$DIMTDEC
 70
    2
  9
$DIMALTU
 70
    2
  9
$DIMALTTD
 70
    3
  9
$DIMTXSTY
  7
STANDARD
  9
$DIMAUNIT
 70
    0
  9
$DIMADEC
 70
    0
  9
$DIMALTRND
 40
0
  9
$DIMAZIN
 70
    0
  9
$DIMDSEP
 70
   44
  9
$DIMATFIT
 70
    3
  9
$DIMFRAC
 70
    0
  9
$DIMLDRBLK
  1
STANDARD
  9
$DIMLUNIT
 70
    2
  9
$DIMLWD
 70
   -2
  9
$DIMLWE
 70
   -2
  9
$DIMTMOVE
 70
    0
  9
$DIMFXL
 40
1
  9
$DIMFXLON
 70
    0
  9
$DIMJOGANG
 40
0.7854
  9
$DIMTFILL
 70
    0
  9
$DIMTFILLCLR
 70
    0
  9
$DIMARCSYM
 70
    0
  9
$DIMLTYPE
  6

  9
$DIMLTEX1
  6

  9
$DIMLTEX2
  6

  9
$LUNITS
 70
    2
  9
$LUPREC
 70
    4
  9
$SKETCHINC
 40
1
  9
$FILLETRAD
 40
0
  9
$AUNITS
 70
    0
  9
$AUPREC
 70
    2
  9
$MENU
  1
.
  9
$ELEVATION
 40
0
  9
$PELEVATION
 40
0
  9
$THICKNESS
 40
0
  9
$LIMCHECK
 70
    0
  9
$CHAMFERA
 40
0
  9
$CHAMFERB
 40
0
  9
$CHAMFERC
 40
0
  9
$CHAMFERD
 40
0
  9
$SKPOLY
 70
    0
  9
$USRTIMER
 70
    1
  9
$ANGBASE
 50
0
  9
$ANGDIR
 70
    0
  9
$PDMODE
 70
   34
  9
$PDSIZE
 40
0
  9
$PLINEWID
 40
0
  9
$SPLFRAME
 70
    0
  9
$SPLINETYPE
 70
    2
  9
$SPLINESEGS
 70
    8
  9
$HANDSEED
  5
20000
  9
$SURFTAB1
 70
    6
  9
$SURFTAB2
 70
    6
  9
$SURFTYPE
 70
    6
  9
$SURFU
 70
    6
  9
$SURFV
 70
    6
  9
$UCSBASE
  2

  9
$UCSNAME
  2

  9
$UCSORG
 10
0
 20
0
 30
0
  9
$UCSXDIR
 10
1
 20
0
 30
0
  9
$UCSYDIR
 10
0
 20
1
 30
0
  9
$UCSORTHOREF
  2

  9
$UCSORTHOVIEW
 70
    0
  9
$UCSORGTOP
 10
0
 20
0
 30
0
  9
$UCSORGBOTTOM
 10
0
 20
0
 30
0
  9
$UCSORGLEFT
 10
0
 20
0
 30
0
  9
$UCSORGRIGHT
 10
0
 20
0
 30
0
  9
$UCSORGFRONT
 10
0
 20
0
 30
0
  9
$UCSORGBACK
 10
0
 20
0
 30
0
  9
$PUCSBASE
  2

  9
$PUCSNAME
  2

  9
$PUCSORG
 10
0
 20
0
 30
0
  9
$PUCSXDIR
 10
1
 20
0
 30
0
  9
$PUCSYDIR
 10
0
 20
1
 30
0
  9
$PUCSORTHOREF
  2

  9
$PUCSORTHOVIEW
 70
    0
  9
$PUCSORGTOP
 10
0
 20
0
 30
0
  9
$PUCSORGBOTTOM
 10
0
 20
0
 30
0
  9
$PUCSORGLEFT
 10
0
 20
0
 30
0
  9
$PUCSORGRIGHT
 10
0
 20
0
 30
0
  9
$PUCSORGFRONT
 10
0
 20
0
 30
0
  9
$PUCSORGBACK
 10
0
 20
0
 30
0
  9
$USERI1
 70
    0
  9
$USERI2
 70
    0
  9
$USERI3
 70
    0
  9
$USERI4
 70
    0
  9
$USERI5
 70
    0
  9
$USERR1
 40
0
  9
$USERR2
 40
0
  9
$USERR3
 40
0
  9
$USERR4
 40
0
  9
$USERR5
 40
0
  9
$WORLDVIEW
 70
    1
  9
$SHADEDGE
 70
    3
  9
$SHADEDIF
 70
   70
  9
$TILEMODE
 70
    1
  9
$MAXACTVP
 70
   64
  9
$PINSBASE
 10
0
 20
0
 30
0
  9
$PLIMCHECK
 70
    0
  9
$PEXTMIN
 10
0
 20
0
 30
0
  9
$PEXTMAX
 10
0
 20
0
 30
0
  9
$GRIDMODE
 70
    0
  9
$SNAPSTYLE
 70
    0
  9
$PLIMMIN
 10
0
 20
0
  9
$PLIMMAX
 10
210
 20
297
  9
$UNITMODE
 70
    0
  9
$VISRETAIN
 70
    1
  9
$PLINEGEN
 70
    0
  9
$PSLTSCALE
 70
    1
  9
$TREEDEPTH
 70
 3020
  9
$CMLSTYLE
  2
Standard
  9
$CMLJUST
 70
    0
  9
$CMLSCALE
 40
20
  9
$PROXYGRAPHICS
 70
    1
  9
$MEASUREMENT
 70
    1
  9
$CELWEIGHT
370
   -1
  9
$ENDCAPS
280
    0
  9
$JOINSTYLE
280
    0
  9
$LWDISPLAY
290
    0
  9
$INSUNITS
 70
    4
  9
$HYPERLINKBASE
  1

  9
$STYLESHEET
  1

  9
$XEDIT
290
    1
  9
$CEPSNTYPE
380
    0
  9
$PSTYLEMODE
290
    1
  9
$EXTNAMES
290
    1
  9
$PSVPSCALE
 40
1
  9
$OLESTARTUP
290
    0
  9
$SORTENTS
280
  127
  9
$INDEXCTL
280
    0
  9
$HIDETEXT
280
    1
  9
$XCLIPFRAME
290
    0
  9
$HALOGAP
280
    0
  9
$OBSCOLOR
 70
  257
  9
$OBSLTYPE
280
    0
  9
$INTERSECTIONDISPLAY
280
    0
  9
$INTERSECTIONCOLOR
 70
  257
  9
$DIMASSOC
280
    1
  9
$PROJECTNAME
  1

  9
$CAMERADISPLAY
290
    0
  9
$LENSLENGTH
 40
50
  9
$CAMERAHEIGHT
 40
0
  9
$STEPSPERSEC
 40
2
  9
$STEPSIZE
 40
50
  9
$3DDWFPREC
 40
2
  9
$PSOLWIDTH
 40
5
  9
$PSOLHEIGHT
 40
80
  9
$LOFTANG1
 40
1.570796326794897
  9
$LOFTANG2
 40
1.570796326794897
  9
$LOFTMAG1
 40
0
  9
$LOFTMAG2
 40
0
  9
$LOFTPARAM
 70
    7
  9
$LOFTNORMALS
280
    1
  9
$LATITUDE
 40
1
  9
$LONGITUDE
 40
1
  9
$NORTHDIRECTION
 40
0
  9
$TIMEZONE
 70
-8000
  9
$LIGHTGLYPHDISPLAY
280
    1
  9
$TILEMODELIGHTSYNCH
280
    1
  9
$SOLIDHIST
280
    1
  9
$SHOWHIST
280
    1
  9
$DWFFRAME
280
    2
  9
$DGNFRAME
280
    0
  9
$REALWORLDSCALE
290
    1
  9
$INTERFERECOLOR
 62
    1
  9
$CSHADOW
280
    0
  9
$SHADOWPLANELOCATION
 40
0
  0
ENDSEC
  0
SECTION
  2
CLASSES
  0
ENDSEC
  0
SECTION
  2
TABLES
  0
TABLE
  2
VPORT
  5
8
330
0
100
AcDbSymbolTable
 70
    1
  0
VPORT
  5
31
330
2
100
AcDbSymbolTableRecord
100
AcDbViewportTableRecord
  2
*ACTIVE
 70
    0
 10
0
 20
0
 11
1
 21
1
 12
327.5151312024211
 22
312.6461028488002
 13
0
 23
0
 14
10
 24
10
 15
10
 25
10
 16
0
 26
0
 36
1
 17
0
 27
0
 37
0
 40
327.9116386251843
 41
0.9866989117291415
 42
50
 43
0
 44
0
 50
0
 51
0
 71
    0
 72
  100
 73
    1
 74
    3
 75
    0
 76
    0
 77
    0
 78
    0
281
    0
 65
    1
110
0
120
0
130
0
111
1
121
0
131
0
112
0
122
1
132
0
 79
    0
146
0
348
10020
 60
    7
 61
    5
292
1
282
    1
141
0
142
0
 63
  250
421
3358443
  0
ENDTAB
  0
TABLE
  2
LTYPE
  5
5
330
0
100
AcDbSymbolTable
 70
    4
  0
LTYPE
  5
14
330
5
100
AcDbSymbolTableRecord
100
AcDbLinetypeTableRecord
  2
ByBlock
 70
    0
  3

 72
   65
 73
    0
 40
0
  0
LTYPE
  5
15
330
5
100
AcDbSymbolTableRecord
100
AcDbLinetypeTableRecord
  2
ByLayer
 70
    0
  3

 72
   65
 73
    0
 40
0
  0
LTYPE
  5
16
330
5
100
AcDbSymbolTableRecord
100
AcDbLinetypeTableRecord
  2
Continuous
 70
    0
  3
Solid line
 72
   65
 73
    0
 40
0
  0
LTYPE
  5
32
330
5
100
AcDbSymbolTableRecord
100
AcDbLinetypeTableRecord
  2
DOT
 70
    0
  3
Dot . . . . . . . . . . . . . . . . . . . . . .
 72
   65
 73
    2
 40
6.35
 49
0
 74
    0
 49
-6.35
 74
    0
  0
LTYPE
  5
33
330
5
100
AcDbSymbolTableRecord
100
AcDbLinetypeTableRecord
  2
DOTTINY
 70
    0
  3
Dot (.15x) .....................................
 72
   65
 73
    2
 40
0.9525
 49
0
 74
    0
 49
-0.9525
 74
    0
  0
LTYPE
  5
34
330
5
100
AcDbSymbolTableRecord
100
AcDbLinetypeTableRecord
  2
DOT2
 70
    0
  3
Dot (.5x) .....................................
 72
   65
 73
    2
 40
3.175
 49
0
 74
    0
 49
-3.175
 74
    0
  0
LTYPE
  5
35
330
5
100
AcDbSymbolTableRecord
100
AcDbLinetypeTableRecord
  2
DOTX2
 70
    0
  3
Dot (2x) .  .  .  .  .  .  .  .  .  .  .  .  .
 72
   65
 73
    2
 40
12.7
 49
0
 74
    0
 49
-12.7
 74
    0
  0
LTYPE
  5
36
330
5
100
AcDbSymbolTableRecord
100
AcDbLinetypeTableRecord
  2
DASHED
 70
    0
  3
Dashed _ _ _ _ _ _ _ _ _ _ _ _ _ _ _ _ _
 72
   65
 73
    2
 40
19.05
 49
12.7
 74
    0
 49
-6.35
 74
    0
  0
LTYPE
  5
37
330
5
100
AcDbSymbolTableRecord
100
AcDbLinetypeTableRecord
  2
DASHEDTINY
 70
    0
  3
Dashed (.15x) _ _ _ _ _ _ _ _ _ _ _ _ _ _ _ _ _
 72
   65
 73
    2
 40
2.8575
 49
1.905
 74
    0
 49
-0.9525
 74
    0
  0
LTYPE
  5
38
330
5
100
AcDbSymbolTableRecord
100
AcDbLinetypeTableRecord
  2
DASHED2
 70
    0
  3
Dashed (.5x) _ _ _ _ _ _ _ _ _ _ _ _ _ _ _ _ _
 72
   65
 73
    2
 40
9.524999999999999
 49
6.35
 74
    0
 49
-3.175
 74
    0
  0
LTYPE
  5
39
330
5
100
AcDbSymbolTableRecord
100
AcDbLinetypeTableRecord
  2
DASHEDX2
 70
    0
  3
Dashed (2x) ____  ____  ____  ____  ____  ___
 72
   65
 73
    2
 40
38.09999999999999
 49
25.4
 74
    0
 49
-12.7
 74
    0
  0
LTYPE
  5
3A
330
5
100
AcDbSymbolTableRecord
100
AcDbLinetypeTableRecord
  2
DASHDOT
 70
    0
  3
Dash dot __ . __ . __ . __ . __ . __ . __ . __
 72
   65
 73
    4
 40
25.4
 49
12.7
 74
    0
 49
-6.35
 74
    0
 49
0
 74
    0
 49
-6.35
 74
    0
  0
LTYPE
  5
3B
330
5
100
AcDbSymbolTableRecord
100
AcDbLinetypeTableRecord
  2
DASHDOTTINY
 70
    0
  3
Dash dot (.15x) _._._._._._._._._._._._._._._.
 72
   65
 73
    4
 40
3.81
 49
1.905
 74
    0
 49
-0.9525
 74
    0
 49
0
 74
    0
 49
-0.9525
 74
    0
  0
LTYPE
  5
3C
330
5
100
AcDbSymbolTableRecord
100
AcDbLinetypeTableRecord
  2
DASHDOT2
 70
    0
  3
Dash dot (.5x) _._._._._._._._._._._._._._._.
 72
   65
 73
    4
 40
12.7
 49
6.35
 74
    0
 49
-3.175
 74
    0
 49
0
 74
    0
 49
-3.175
 74
    0
  0
LTYPE
  5
3D
330
5
100
AcDbSymbolTableRecord
100
AcDbLinetypeTableRecord
  2
DASHDOTX2
 70
    0
  3
Dash dot (2x) ____  .  ____  .  ____  .  ___
 72
   65
 73
    4
 40
50.8
 49
25.4
 74
    0
 49
-12.7
 74
    0
 49
0
 74
    0
 49
-12.7
 74
    0
  0
LTYPE
  5
3E
330
5
100
AcDbSymbolTableRecord
100
AcDbLinetypeTableRecord
  2
DIVIDE
 70
    0
  3
Divide ____ . . ____ . . ____ . . ____ . . ____
 72
   65
 73
    6
 40
31.75
 49
12.7
 74
    0
 49
-6.35
 74
    0
 49
0
 74
    0
 49
-6.35
 74
    0
 49
0
 74
    0
 49
-6.35
 74
    0
  0
LTYPE
  5
3F
330
5
100
AcDbSymbolTableRecord
100
AcDbLinetypeTableRecord
  2
DIVIDETINY
 70
    0
  3
Divide (.15x) __..__..__..__..__..__..__..__.._
 72
   65
 73
    6
 40
4.7625
 49
1.905
 74
    0
 49
-0.9525
 74
    0
 49
0
 74
    0
 49
-0.9525
 74
    0
 49
0
 74
    0
 49
-0.9525
 74
    0
  0
LTYPE
  5
40
330
5
100
AcDbSymbolTableRecord
100
AcDbLinetypeTableRecord
  2
DIVIDE2
 70
    0
  3
Divide (.5x) __..__..__..__..__..__..__..__.._
 72
   65
 73
    6
 40
15.875
 49
6.35
 74
    0
 49
-3.175
 74
    0
 49
0
 74
    0
 49
-3.175
 74
    0
 49
0
 74
    0
 49
-3.175
 74
    0
  0
LTYPE
  5
41
330
5
100
AcDbSymbolTableRecord
100
AcDbLinetypeTableRecord
  2
DIVIDEX2
 70
    0
  3
Divide (2x) ________  .  .  ________  .  .  _
 72
   65
 73
    6
 40
63.5
 49
25.4
 74
    0
 49
-12.7
 74
    0
 49
0
 74
    0
 49
-12.7
 74
    0
 49
0
 74
    0
 49
-12.7
 74
    0
  0
LTYPE
  5
42
330
5
100
AcDbSymbolTableRecord
100
AcDbLinetypeTableRecord
  2
BORDER
 70
    0
  3
Border __ __ . __ __ . __ __ . __ __ . __ __ .
 72
   65
 73
    6
 40
44.45
 49
12.7
 74
    0
 49
-6.35
 74
    0
 49
12.7
 74
    0
 49
-6.35
 74
    0
 49
0
 74
    0
 49
-6.35
 74
    0
  0
LTYPE
  5
43
330
5
100
AcDbSymbolTableRecord
100
AcDbLinetypeTableRecord
  2
BORDERTINY
 70
    0
  3
Border (.15x) __.__.__.__.__.__.__.__.__.__.__.
 72
   65
 73
    6
 40
6.6675
 49
1.905
 74
    0
 49
-0.9525
 74
    0
 49
1.905
 74
    0
 49
-0.9525
 74
    0
 49
0
 74
    0
 49
-0.9525
 74
    0
  0
LTYPE
  5
44
330
5
100
AcDbSymbolTableRecord
100
AcDbLinetypeTableRecord
  2
BORDER2
 70
    0
  3
Border (.5x) __.__.__.__.__.__.__.__.__.__.__.
 72
   65
 73
    6
 40
22.225
 49
6.35
 74
    0
 49
-3.175
 74
    0
 49
6.35
 74
    0
 49
-3.175
 74
    0
 49
0
 74
    0
 49
-3.175
 74
    0
  0
LTYPE
  5
45
330
5
100
AcDbSymbolTableRecord
100
AcDbLinetypeTableRecord
  2
BORDERX2
 70
    0
  3
Border (2x) ____  ____  .  ____  ____  .  ___
 72
   65
 73
    6
 40
88.89999999999999
 49
25.4
 74
    0
 49
-12.7
 74
    0
 49
25.4
 74
    0
 49
-12.7
 74
    0
 49
0
 74
    0
 49
-12.7
 74
    0
  0
LTYPE
  5
46
330
5
100
AcDbSymbolTableRecord
100
AcDbLinetypeTableRecord
  2
CENTER
 70
    0
  3
Center ____ _ ____ _ ____ _ ____ _ ____ _ ____
 72
   65
 73
    4
 40
50.8
 49
31.75
 74
    0
 49
-6.35
 74
    0
 49
6.35
 74
    0
 49
-6.35
 74
    0
  0
LTYPE
  5
47
330
5
100
AcDbSymbolTableRecord
100
AcDbLinetypeTableRecord
  2
CENTERTINY
 70
    0
  3
Center (.15x) ___ _ ___ _ ___ _ ___ _ ___ _ ___
 72
   65
 73
    4
 40
7.619999999999999
 49
4.7625
 74
    0
 49
-0.9525
 74
    0
 49
0.9525
 74
    0
 49
-0.9525
 74
    0
  0
LTYPE
  5
48
330
5
100
AcDbSymbolTableRecord
100
AcDbLinetypeTableRecord
  2
CENTER2
 70
    0
  3
Center (.5x) ___ _ ___ _ ___ _ ___ _ ___ _ ___
 72
   65
 73
    4
 40
28.575
 49
19.05
 74
    0
 49
-3.175
 74
    0
 49
3.175
 74
    0
 49
-3.175
 74
    0
  0
LTYPE
  5
49
330
5
100
AcDbSymbolTableRecord
100
AcDbLinetypeTableRecord
  2
CENTERX2
 70
    0
  3
Center (2x) ________  __  ________  __  _____
 72
   65
 73
    4
 40
101.6
 49
63.5
 74
    0
 49
-12.7
 74
    0
 49
12.7
 74
    0
 49
-12.7
 74
    0
  0
ENDTAB
  0
TABLE
  2
LAYER
  5
2
330
0
100
AcDbSymbolTable
 70
    1
  0
LAYER
  5
10
330
2
100
AcDbSymbolTableRecord
100
AcDbLayerTableRecord
  2
0
 70
    0
 62
    7
  6
CONTINUOUS
370
   -3
390
F
  0
LAYER
  5
4A
330
2
100
AcDbSymbolTableRecord
100
AcDbLayerTableRecord
  2
pocket-1.25mm
 70
    0
 62
    4
  6
CONTINUOUS
370
    0
390
F
  0
LAYER
  5
4B
330
2
100
AcDbSymbolTableRecord
100
AcDbLayerTableRecord
  2
profiling
 70
    0
 62
    3
  6
CONTINUOUS
370
    0
390
F
  0
LAYER
  5
4C
330
2
100
AcDbSymbolTableRecord
100
AcDbLayerTableRecord
  2
vcut
 70
    0
 62
    6
  6
CONTINUOUS
370
    0
390
F
  0
ENDTAB
  0
TABLE
  2
STYLE
  5
3
330
0
100
AcDbSymbolTable
 70
    3
  0
STYLE
  5
4D
330
2
100
AcDbSymbolTableRecord
100
AcDbTextStyleTableRecord
  2
Standard
 70
    0
 40
0
 41
1
 50
0
 71
    0
 42
1
  3
txt
  4

  0
ENDTAB
  0
TABLE
  2
VIEW
  5
6
330
0
100
AcDbSymbolTable
 70
    0
  0
ENDTAB
  0
TABLE
  2
UCS
  5
7
330
0
100
AcDbSymbolTable
 70
    0
  0
ENDTAB
  0
TABLE
  2
APPID
  5
9
330
0
100
AcDbSymbolTable
 70
    1
  0
APPID
  5
12
330
9
100
AcDbSymbolTableRecord
100
AcDbRegAppTableRecord
  2
ACAD
 70
    0
  0
APPID
  5
4E
330
9
100
AcDbSymbolTableRecord
100
AcDbRegAppTableRecord
  2
LibreCad
 70
    0
  0
ENDTAB
  0
TABLE
  2
DIMSTYLE
  5
A
330
0
100
AcDbSymbolTable
 70
    1
100
AcDbDimStyleTable
 71
    1
  0
DIMSTYLE
105
4F
330
A
100
AcDbSymbolTableRecord
100
AcDbDimStyleTableRecord
  2
Standard
 70
    0
 40
2.5
 41
2.5
 42
0.625
 43
0.38
 44
1.25
 45
0
 46
0
 47
0
 48
0
 49
1
140
2.5
141
0.09
142
0
143
25.4
144
1
145
0
146
1
147
0.625
148
0
 71
    0
 72
    0
 73
    0
 74
    1
 75
    0
 76
    0
 77
    0
 78
    8
 79
    0
170
    0
171
    2
172
    0
173
    0
174
    0
175
    0
176
    0
177
    0
178
    0
179
    0
271
    2
272
    4
273
    2
274
    2
275
    0
276
    0
277
    2
278
   44
279
    0
280
    0
281
    0
282
    0
283
    1
284
    0
285
    0
286
    0
288
    0
289
    3
340
STANDARD
341

371
   -2
372
   -2
  0
ENDTAB
  0
TABLE
  2
BLOCK_RECORD
  5
1
330
0
100
AcDbSymbolTable
 70
    2
  0
BLOCK_RECORD
  5
1F
330
1
100
AcDbSymbolTableRecord
100
AcDbBlockTableRecord
  2
*Model_Space
 70
    0
280
    1
281
    0
  0
BLOCK_RECORD
  5
1E
330
1
100
AcDbSymbolTableRecord
100
AcDbBlockTableRecord
  2
*Paper_Space
 70
    0
280
    1
281
    0
  0
ENDTAB
  0
ENDSEC
  0
SECTION
  2
BLOCKS
  0
BLOCK
  5
20
330
1F
100
AcDbEntity
  8
0
100
AcDbBlockBegin
  2
*Model_Space
 70
    0
 10
0
 20
0
 30
0
  3
*Model_Space
  1

  0
ENDBLK
  5
21
330
1F
100
AcDbEntity
  8
0
100
AcDbBlockEnd
  0
BLOCK
  5
1C
330
1B
100
AcDbEntity
  8
0
100
AcDbBlockBegin
  2
*Paper_Space
 70
    0
 10
0
 20
0
 30
0
  3
*Paper_Space
  1

  0
ENDBLK
  5
1D
330
1F
100
AcDbEntity
  8
0
100
AcDbBlockEnd
  0
ENDSEC
  0
SECTION
  2
ENTITIES
  0
LWPOLYLINE
  5
50
100
AcDbEntity
  8
pocket-1.25mm
  6
ByLayer
 62
  256
370
   -1
100
AcDbPolyline
 90
   66
 70
    1
 43
0
 10
444.37275
 20
583.88175
 10
442.695
 20
583.8855
 10
437.973
 20
583.8855
 10
437.3415
 20
583.94775
 10
436.734
 20
584.13225
 10
436.1745
 20
584.4315
 10
435.684
 20
584.83425
 10
435.28125
 20
585.32475
 10
434.982
 20
585.88425
 10
434.7975
 20
586.49175
 10
434.73525
 20
587.12325
 10
434.7975
 20
587.7547499999999
 10
434.982
 20
588.36225
 10
435.28125
 20
588.92175
 10
435.684
 20
589.41225
 10
436.1745
 20
589.8150000000001
 10
436.734
 20
590.11425
 10
437.3415
 20
590.29875
 10
437.973
 20
590.361
 10
442.695
 20
590.361
 10
444.37275
 20
590.364
 10
446.397
 20
590.30325
 10
448.7385
 20
590.1180000000001
 10
451.2375
 20
589.821
 10
453.72375
 20
589.4325
 10
456.0285
 20
588.97875
 10
457.99425
 20
588.4905
 10
485.25225
 20
580.7910000000001
 10
487.32975
 20
580.2742500000001
 10
489.76575
 20
579.792
 10
492.39375
 20
579.3765
 10
495.03525
 20
579.05625
 10
497.51025
 20
578.853
 10
499.65
 20
578.7809999999999
 10
504.309
 20
578.77125
 10
509.031
 20
578.77125
 10
509.6625
 20
578.7089999999999
 10
510.27
 20
578.5245
 10
510.8295
 20
578.22525
 10
511.32
 20
577.8225
 10
511.72275
 20
577.332
 10
512.022
 20
576.7725
 10
512.2065
 20
576.165
 10
512.26875
 20
575.5335
 10
512.2065
 20
574.902
 10
512.022
 20
574.2945
 10
511.72275
 20
573.735
 10
511.32
 20
573.2445
 10
510.8295
 20
572.84175
 10
510.27
 20
572.5425
 10
509.6625
 20
572.3579999999999
 10
509.031
 20
572.29575
 10
504.309
 20
572.29575
 10
499.062
 20
572.29575
 10
497.094
 20
572.3579999999999
 10
494.81775
 20
572.5410000000001
 10
492.38775
 20
572.832
 10
489.96975
 20
573.2115
 10
487.72875
 20
573.654
 10
485.81775
 20
574.12875
 10
457.99425
 20
581.982
 10
456.0285
 20
582.47025
 10
453.72375
 20
582.92625
 10
451.23675
 20
583.31925
 10
448.73775
 20
583.6215
 10
446.39625
 20
583.8135
  0
LWPOLYLINE
  5
51
100
AcDbEntity
  8
profiling
  6
ByLayer
 62
  256
370
   -1
100
AcDbPolyline
 90
  294
 70
    1
 43
0
 10
431.364
 20
530.40825
 10
431.364
 20
530.40825
 10
431.364
 20
530.40825
 10
431.364
 20
530.40825
 10
428.78175
 20
531.9555
 10
428.78175
 20
531.9555
 10
426.36375
 20
533.74875
 10
426.36375
 20
533.74875
 10
426.36375
 20
533.74875
 10
426.36375
 20
533.74875
 10
424.13325
 20
535.77
 10
424.13325
 20
535.77
 10
422.112
 20
538.0005
 10
422.112
 20
538.0005
 10
422.112
 20
538.0005
 10
420.31875
 20
540.4185
 10
420.31875
 20
540.4185
 10
420.31875
 20
540.4185
 10
418.77075
 20
543.00075
 10
418.77075
 20
543.00075
 10
418.77075
 20
543.00075
 10
418.77075
 20
543.00075
 10
417.48375
 20
545.72175
 10
417.48375
 20
545.72175
 10
416.46975
 20
548.556
 10
416.46975
 20
548.556
 10
416.46975
 20
548.556
 10
416.46975
 20
548.556
 10
415.7385
 20
551.4765
 10
415.7385
 20
551.4765
 10
415.29675
 20
554.454
 10
415.29675
 20
554.454
 10
415.149
 20
557.46075
 10
415.149
 20
557.46075
 10
415.149
 20
557.46075
 10
415.149
 20
581.3295000000001
 10
415.149
 20
581.3295000000001
 10
415.149
 20
581.3295000000001
 10
415.149
 20
581.3295000000001
 10
415.29675
 20
584.3362499999999
 10
415.29675
 20
584.3362499999999
 10
415.7385
 20
587.31375
 10
415.7385
 20
587.31375
 10
415.7385
 20
587.31375
 10
415.7385
 20
587.31375
 10
416.46975
 20
590.23425
 10
416.46975
 20
590.23425
 10
416.46975
 20
590.23425
 10
416.46975
 20
590.23425
 10
417.48375
 20
593.0685
 10
417.48375
 20
593.0685
 10
418.77075
 20
595.7895
 10
418.77075
 20
595.7895
 10
418.77075
 20
595.7895
 10
418.77075
 20
595.7895
 10
420.31875
 20
598.37175
 10
420.31875
 20
598.37175
 10
420.31875
 20
598.37175
 10
422.112
 20
600.78975
 10
422.112
 20
600.78975
 10
424.13325
 20
603.02025
 10
424.13325
 20
603.02025
 10
426.36375
 20
605.0415
 10
426.36375
 20
605.0415
 10
426.36375
 20
605.0415
 10
428.78175
 20
606.83475
 10
428.78175
 20
606.83475
 10
428.78175
 20
606.83475
 10
431.364
 20
608.38275
 10
431.364
 20
608.38275
 10
434.085
 20
609.66975
 10
434.085
 20
609.66975
 10
434.085
 20
609.66975
 10
434.085
 20
609.66975
 10
436.91925
 20
610.68375
 10
436.91925
 20
610.68375
 10
439.839
 20
611.415
 10
439.839
 20
611.415
 10
439.839
 20
611.415
 10
439.839
 20
611.415
 10
442.8165
 20
611.85675
 10
442.8165
 20
611.85675
 10
445.82325
 20
612.0045
 10
445.82325
 20
612.0045
 10
445.82325
 20
612.0045
 10
505.092
 20
612.0045
 10
509.6595
 20
612.0045
 10
509.6595
 20
612.0045
 10
509.6595
 20
612.0045
 10
512.66625
 20
611.85675
 10
512.66625
 20
611.85675
 10
515.64375
 20
611.415
 10
515.64375
 20
611.415
 10
515.64375
 20
611.415
 10
515.64375
 20
611.415
 10
518.56425
 20
610.68375
 10
518.56425
 20
610.68375
 10
521.3985
 20
609.66975
 10
521.3985
 20
609.66975
 10
521.3985
 20
609.66975
 10
521.3985
 20
609.66975
 10
521.3985
 20
609.66975
 10
521.3985
 20
609.66975
 10
524.1195
 20
608.38275
 10
524.1195
 20
608.38275
 10
526.7017499999999
 20
606.8355
 10
526.7017499999999
 20
606.8355
 10
526.7017499999999
 20
606.8355
 10
529.11975
 20
605.04225
 10
529.11975
 20
605.04225
 10
529.11975
 20
605.04225
 10
531.35025
 20
603.021
 10
531.35025
 20
603.021
 10
533.3715
 20
600.7905
 10
533.3715
 20
600.7905
 10
535.16475
 20
598.3724999999999
 10
535.16475
 20
598.3724999999999
 10
536.71275
 20
595.79025
 10
536.71275
 20
595.79025
 10
536.71275
 20
595.79025
 10
537.9997499999999
 20
593.06925
 10
537.9997499999999
 20
593.06925
 10
539.01375
 20
590.235
 10
539.01375
 20
590.235
 10
539.745
 20
587.3145
 10
539.745
 20
587.3145
 10
539.745
 20
587.3145
 10
539.745
 20
587.3145
 10
540.39225
 20
584.337
 10
540.39225
 20
584.337
 10
541.005
 20
581.33025
 10
541.005
 20
581.33025
 10
541.005
 20
581.33025
 10
541.96575
 20
575.93175
 10
569.30925
 20
575.93175
 10
569.30925
 20
575.93175
 10
569.30925
 20
575.93175
 10
569.30925
 20
575.93175
 10
569.955
 20
575.901
 10
569.955
 20
575.901
 10
569.955
 20
575.901
 10
570.60675
 20
575.80875
 10
570.60675
 20
575.80875
 10
571.25775
 20
575.65575
 10
571.25775
 20
575.65575
 10
571.25775
 20
575.65575
 10
571.25775
 20
575.65575
 10
571.25775
 20
575.65575
 10
571.25775
 20
575.65575
 10
571.902
 20
575.4435
 10
571.902
 20
575.4435
 10
572.53275
 20
575.17425
 10
572.53275
 20
575.17425
 10
572.53275
 20
575.17425
 10
573.14475
 20
574.851
 10
573.14475
 20
574.851
 10
573.14475
 20
574.851
 10
573.14475
 20
574.851
 10
573.73125
 20
574.476
 10
573.73125
 20
574.476
 10
573.73125
 20
574.476
 10
573.73125
 20
574.476
 10
574.287
 20
574.05375
 10
574.287
 20
574.05375
 10
574.287
 20
574.05375
 10
574.287
 20
574.05375
 10
574.287
 20
574.05375
 10
574.80675
 20
573.588
 10
574.80675
 20
573.588
 10
574.80675
 20
573.588
 10
575.2859999999999
 20
573.0825
 10
575.2859999999999
 20
573.0825
 10
575.7195
 20
572.5432499999999
 10
575.7195
 20
572.5432499999999
 10
575.7195
 20
572.5432499999999
 10
575.7195
 20
572.5432499999999
 10
576.10275
 20
571.97475
 10
576.10275
 20
571.97475
 10
576.4327500000001
 20
571.38225
 10
576.4327500000001
 20
571.38225
 10
576.4327500000001
 20
571.38225
 10
576.70575
 20
570.77175
 10
576.70575
 20
570.77175
 10
576.9195
 20
570.1492500000001
 10
576.9195
 20
570.1492500000001
 10
576.9195
 20
570.1492500000001
 10
576.9195
 20
570.1492500000001
 10
577.07175
 20
569.52075
 10
577.07175
 20
569.52075
 10
577.737
 20
566.06775
 10
577.737
 20
566.06775
 10
577.737
 20
566.06775
 10
577.782
 20
565.755
 10
577.782
 20
565.755
 10
577.79475
 20
565.44525
 10
577.79475
 20
565.44525
 10
577.79475
 20
565.44525
 10
577.79475
 20
565.44525
 10
577.79475
 20
565.44525
 10
577.776
 20
565.1415
 10
577.776
 20
565.1415
 10
577.725
 20
564.84675
 10
577.725
 20
564.84675
 10
577.725
 20
564.84675
 10
577.725
 20
564.84675
 10
577.64325
 20
564.56325
 10
577.64325
 20
564.56325
 10
577.53075
 20
564.29475
 10
577.53075
 20
564.29475
 10
577.389
 20
564.0435
 10
577.389
 20
564.0435
 10
577.2195
 20
563.811
 10
577.2195
 20
563.811
 10
577.2195
 20
563.811
 10
577.2195
 20
563.811
 10
577.0237499999999
 20
563.60025
 10
577.0237499999999
 20
563.60025
 10
576.80325
 20
563.4135
 10
576.80325
 20
563.4135
 10
576.80325
 20
563.4135
 10
576.80325
 20
563.4135
 10
576.56025
 20
563.25225
 10
576.56025
 20
563.25225
 10
576.29775
 20
563.1180000000001
 10
576.29775
 20
563.1180000000001
 10
576.29775
 20
563.1180000000001
 10
576.29775
 20
563.1180000000001
 10
576.29775
 20
563.1180000000001
 10
576.018
 20
563.01225
 10
576.018
 20
563.01225
 10
575.72325
 20
562.9365
 10
575.72325
 20
562.9365
 10
575.72325
 20
562.9365
 10
575.4165
 20
562.89075
 10
575.4165
 20
562.89075
 10
575.1007499999999
 20
562.87575
 10
575.1007499999999
 20
562.87575
 10
544.28775
 20
562.87575
 10
549.56625
 20
533.21325
 10
549.56625
 20
533.21325
 10
549.56625
 20
533.21325
 10
549.56625
 20
533.21325
 10
549.56625
 20
533.21325
 10
549.56625
 20
533.21325
 10
549.56625
 20
533.21325
 10
549.64725
 20
532.58325
 10
549.64725
 20
532.58325
 10
549.6645
 20
531.95925
 10
549.6645
 20
531.95925
 10
549.6645
 20
531.95925
 10
549.6180000000001
 20
531.34725
 10
549.6180000000001
 20
531.34725
 10
549.50775
 20
530.75325
 10
549.50775
 20
530.75325
 10
549.50775
 20
530.75325
 10
549.33525
 20
530.18325
 10
549.33525
 20
530.18325
 10
549.102
 20
529.6425
 10
549.102
 20
529.6425
 10
548.81025
 20
529.13625
 10
548.81025
 20
529.13625
 10
548.463
 20
528.669
 10
548.463
 20
528.669
 10
548.064
 20
528.2452500000001
 10
548.064
 20
528.2452500000001
 10
547.61625
 20
527.8695
 10
547.61625
 20
527.8695
 10
547.12425
 20
527.5454999999999
 10
547.12425
 20
527.5454999999999
 10
546.59325
 20
527.2755
 10
546.59325
 20
527.2755
 10
546.02775
 20
527.06325
 10
546.02775
 20
527.06325
 10
545.43375
 20
526.91025
 10
545.43375
 20
526.91025
 10
544.8165
 20
526.818
 10
544.8165
 20
526.818
 10
544.8165
 20
526.818
 10
544.182
 20
526.78725
 10
544.182
 20
526.78725
 10
505.0905
 20
526.7865
 10
505.0905
 20
526.7865
 10
445.82175
 20
526.7865
 10
445.82175
 20
526.7865
 10
445.82175
 20
526.7865
 10
442.815
 20
526.93425
 10
442.815
 20
526.93425
 10
439.8375
 20
527.376
 10
439.8375
 20
527.376
 10
436.91775
 20
528.10725
 10
436.91775
 20
528.10725
 10
434.0835
 20
529.12125
 10
434.0835
 20
529.12125
 10
431.3625
 20
530.40825
  0
LWPOLYLINE
  5
52
100
AcDbEntity
  8
profiling
  6
ByLayer
 62
  256
370
   -1
100
AcDbPolyline
 90
   40
 70
    1
 43
0
 10
436.17375
 20
584.43075
 10
436.73325
 20
584.1315
 10
437.232
 20
583.98
 10
437.34075
 20
583.947
 10
437.34075
 20
583.947
 10
437.7705
 20
583.905
 10
437.97225
 20
583.8847500000001
 10
442.69425
 20
583.8847500000001
 10
443.32575
 20
583.947
 10
443.93325
 20
584.1315
 10
444.49275
 20
584.43075
 10
444.98325
 20
584.8335
 10
445.386
 20
585.324
 10
445.68525
 20
585.8835
 10
445.86975
 20
586.491
 10
445.932
 20
587.1224999999999
 10
445.86975
 20
587.754
 10
445.68525
 20
588.3615
 10
445.386
 20
588.921
 10
444.98325
 20
589.4115
 10
444.49275
 20
589.81425
 10
443.93325
 20
590.1135
 10
443.32575
 20
590.298
 10
442.69425
 20
590.36025
 10
437.97225
 20
590.36025
 10
437.34075
 20
590.298
 10
436.73325
 20
590.1135
 10
436.17375
 20
589.81425
 10
435.68325
 20
589.4115
 10
435.2805
 20
588.921
 10
434.98125
 20
588.3615
 10
434.89275
 20
588.069
 10
434.7975
 20
587.754
 10
434.73525
 20
587.1224999999999
 10
434.76375
 20
586.8367500000001
 10
434.7975
 20
586.491
 10
434.982
 20
585.8835
 10
435.28125
 20
585.324
 10
435.684
 20
584.8335
 10
436.1745
 20
584.43075
  0
LWPOLYLINE
  5
53
100
AcDbEntity
  8
profiling
  6
ByLayer
 62
  256
370
   -1
100
AcDbPolyline
 90
   35
 70
    1
 43
0
 10
502.509
 20
578.22525
 10
502.0185
 20
577.8225
 10
501.61575
 20
577.332
 10
501.3165
 20
576.7725
 10
501.132
 20
576.165
 10
501.06975
 20
575.5335
 10
501.132
 20
574.902
 10
501.3165
 20
574.2945
 10
501.61575
 20
573.735
 10
502.0185
 20
573.2445
 10
502.509
 20
572.84175
 10
503.0685
 20
572.5425
 10
503.676
 20
572.3579999999999
 10
504.3075
 20
572.29575
 10
509.0295
 20
572.29575
 10
509.661
 20
572.3579999999999
 10
510.2685
 20
572.5425
 10
510.828
 20
572.84175
 10
511.3185
 20
573.2445
 10
511.72125
 20
573.735
 10
512.0205
 20
574.2945
 10
512.205
 20
574.902
 10
512.26725
 20
575.5335
 10
512.205
 20
576.165
 10
512.0205
 20
576.7725
 10
511.72125
 20
577.332
 10
511.3185
 20
577.8225
 10
510.828
 20
578.22525
 10
510.2685
 20
578.5245
 10
509.661
 20
578.7089999999999
 10
509.0295
 20
578.77125
 10
504.3075
 20
578.77125
 10
503.676
 20
578.7089999999999
 10
503.0685
 20
578.5245
 10
502.509
 20
578.22525
  0
LWPOLYLINE
  5
54
100
AcDbEntity
  8
profiling
  6
ByLayer
 62
  256
370
   -1
100
AcDbPolyline
 90
   35
 70
    1
 43
0
 10
443.8125
 20
562.323
 10
442.90425
 20
561.83775
 10
442.10775
 20
561.1845
 10
441.4545
 20
560.388
 10
440.9685
 20
559.47975
 10
440.66925
 20
558.4935
 10
440.568
 20
557.46825
 10
440.66925
 20
556.443
 10
440.9685
 20
555.4567500000001
 10
441.4545
 20
554.5485
 10
442.10775
 20
553.752
 10
442.90425
 20
553.09875
 10
443.8125
 20
552.6135
 10
444.79875
 20
552.31425
 10
445.824
 20
552.213
 10
446.84925
 20
552.31425
 10
447.8355
 20
552.6135
 10
448.74375
 20
553.0995
 10
449.54025
 20
553.75275
 10
450.1935
 20
554.54925
 10
450.6795
 20
555.4575
 10
450.97875
 20
556.44375
 10
451.08
 20
557.4690000000001
 10
450.97875
 20
558.49425
 10
450.6795
 20
559.4805
 10
450.1935
 20
560.38875
 10
450.18225
 20
560.40225
 10
449.5395
 20
561.18525
 10
448.743
 20
561.8385
 10
447.83475
 20
562.32375
 10
446.8485
 20
562.623
 10
445.82325
 20
562.72425
 10
444.798
 20
562.623
 10
444.20625
 20
562.44375
 10
443.8125
 20
562.3244999999999
  0
LWPOLYLINE
  5
55
100
AcDbEntity
  8
profiling
  6
ByLayer
 62
  256
370
   -1
100
AcDbPolyline
 90
   37
 70
    1
 43
0
 10
538.77825
 20
543.55725
 10
538.41675
 20
543.3645
 10
538.10025
 20
543.105
 10
537.84075
 20
542.7885
 10
537.648
 20
542.427
 10
537.5295
 20
542.0355
 10
537.48975
 20
541.62825
 10
537.53025
 20
541.221
 10
537.6487499999999
 20
540.8295000000001
 10
537.6487499999999
 20
540.8295000000001
 10
537.8415
 20
540.468
 10
538.101
 20
540.1515000000001
 10
538.4175
 20
539.8920000000001
 10
538.77825
 20
539.69925
 10
539.1704999999999
 20
539.58075
 10
539.57775
 20
539.54025
 10
539.985
 20
539.58075
 10
540.3765
 20
539.69925
 10
540.7380000000001
 20
539.8920000000001
 10
541.0545
 20
540.1515000000001
 10
541.314
 20
540.468
 10
541.50675
 20
540.8295000000001
 10
541.6252500000001
 20
541.221
 10
541.66575
 20
541.62825
 10
541.6252500000001
 20
542.0355
 10
541.50675
 20
542.427
 10
541.314
 20
542.7885
 10
541.1609999999999
 20
542.97525
 10
541.10175
 20
543.04725
 10
541.0545
 20
543.105
 10
540.96975
 20
543.17475
 10
540.7380000000001
 20
543.3652499999999
 10
540.3765
 20
543.558
 10
539.985
 20
543.67725
 10
539.57775
 20
543.717
 10
539.1704999999999
 20
543.67725
 10
538.77825
 20
543.558
  0
LWPOLYLINE
  5
56
100
AcDbEntity
  8
profiling
  6
ByLayer
 62
  256
370
   -1
100
AcDbPolyline
 90
   74
 70
    1
 43
0
 10
445.50675
 20
531.76725
 10
445.42125
 20
531.948
 10
445.3185
 20
532.119
 10
445.2
 20
532.2795
 10
445.06575
 20
532.42725
 10
444.918
 20
532.5615
 10
444.7575
 20
532.6799999999999
 10
444.5865
 20
532.78275
 10
444.40575
 20
532.86825
 10
444.2175
 20
532.93575
 10
444.024
 20
532.9845
 10
443.82675
 20
533.01375
 10
443.62725
 20
533.0235
 10
443.42775
 20
533.01375
 10
443.4255
 20
533.01375
 10
443.22975
 20
532.9845
 10
443.0985
 20
532.9515
 10
443.03625
 20
532.93575
 10
442.85625
 20
532.87125
 10
442.848
 20
532.86825
 10
442.8195
 20
532.85475
 10
442.66725
 20
532.78275
 10
442.49625
 20
532.6799999999999
 10
442.416
 20
532.62075
 10
442.33575
 20
532.5615
 10
442.188
 20
532.42725
 10
442.05375
 20
532.2795
 10
441.97425
 20
532.17225
 10
441.9345
 20
532.119
 10
441.83175
 20
531.948
 10
441.74625
 20
531.76725
 10
441.67875
 20
531.57975
 10
441.63
 20
531.38625
 10
441.60075
 20
531.189
 10
441.591
 20
530.9895
 10
441.60075
 20
530.79
 10
441.63
 20
530.59275
 10
441.65025
 20
530.51325
 10
441.67875
 20
530.3992500000001
 10
441.74625
 20
530.211
 10
441.83175
 20
530.0309999999999
 10
441.9345
 20
529.86
 10
442.053
 20
529.6994999999999
 10
442.18725
 20
529.55175
 10
442.335
 20
529.4175
 10
442.4955
 20
529.2982500000001
 10
442.6665
 20
529.1955
 10
442.84725
 20
529.11
 10
443.0355
 20
529.0425
 10
443.229
 20
528.99375
 10
443.42625
 20
528.9645
 10
443.42625
 20
528.9645
 10
443.62575
 20
528.95475
 10
443.82525
 20
528.9645
 10
444.0225
 20
528.99375
 10
444.216
 20
529.0425
 10
444.40425
 20
529.11
 10
444.585
 20
529.1955
 10
444.756
 20
529.2982500000001
 10
444.9165
 20
529.4175
 10
445.06425
 20
529.55175
 10
445.1985
 20
529.6994999999999
 10
445.317
 20
529.86
 10
445.41975
 20
530.0309999999999
 10
445.50525
 20
530.211
 10
445.57275
 20
530.3992500000001
 10
445.6215
 20
530.59275
 10
445.6215
 20
530.59275
 10
445.65075
 20
530.79
 10
445.6605
 20
530.9895
 10
445.65075
 20
531.189
 10
445.6215
 20
531.38625
 10
445.57275
 20
531.57975
 10
445.50525
 20
531.76725
  0
LWPOLYLINE
  5
57
100
AcDbEntity
  8
profiling
  6
ByLayer
 62
  256
370
   -1
100
AcDbPolyline
 90
   34
 70
    1
 43
0
 10
490.31475
 20
605.22675
 10
489.95325
 20
605.034
 10
489.63675
 20
604.7745
 10
489.37725
 20
604.458
 10
489.1845
 20
604.0965
 10
489.066
 20
603.705
 10
489.0255
 20
603.29775
 10
489.066
 20
602.8905
 10
489.1845
 20
602.499
 10
489.37725
 20
602.1375
 10
489.63675
 20
601.821
 10
489.95325
 20
601.5615
 10
490.182
 20
601.43925
 10
490.31475
 20
601.36875
 10
490.70625
 20
601.2502500000001
 10
491.1135
 20
601.20975
 10
491.52075
 20
601.2502500000001
 10
491.91225
 20
601.3695
 10
492.27375
 20
601.5622499999999
 10
492.59025
 20
601.82175
 10
492.84975
 20
602.13825
 10
493.0425
 20
602.4997499999999
 10
493.161
 20
602.89125
 10
493.2015
 20
603.2985
 10
493.161
 20
603.70575
 10
493.0425
 20
604.09725
 10
492.84975
 20
604.45875
 10
492.59025
 20
604.77525
 10
492.27375
 20
605.03475
 10
491.91225
 20
605.2275
 10
491.52075
 20
605.346
 10
491.1135
 20
605.3865
 10
490.70625
 20
605.346
 10
490.31475
 20
605.2275
  0
LWPOLYLINE
  5
58
100
AcDbEntity
  8
profiling
  6
ByLayer
 62
  256
370
   -1
100
AcDbPolyline
 90
   36
 70
    1
 43
0
 10
522.2257499999999
 20
594.753
 10
522.4185
 20
594.39225
 10
522.678
 20
594.07575
 10
522.9945
 20
593.81625
 10
523.356
 20
593.6235
 10
523.7474999999999
 20
593.505
 10
524.15475
 20
593.4645
 10
524.562
 20
593.505
 10
524.95425
 20
593.6235
 10
525.31575
 20
593.81625
 10
525.63225
 20
594.07575
 10
525.89175
 20
594.39225
 10
526.0845
 20
594.753
 10
526.203
 20
595.1445
 10
526.203
 20
595.1445
 10
526.2435
 20
595.55175
 10
526.203
 20
595.9589999999999
 10
526.11825
 20
596.2380000000001
 10
526.08375
 20
596.3512500000001
 10
525.891
 20
596.712
 10
525.6315
 20
597.0285
 10
525.3150000000001
 20
597.288
 10
524.95425
 20
597.4807499999999
 10
524.562
 20
597.59925
 10
524.15475
 20
597.63975
 10
523.9612499999999
 20
597.621
 10
523.7474999999999
 20
597.6
 10
523.356
 20
597.4815
 10
522.9945
 20
597.2887500000001
 10
522.678
 20
597.02925
 10
522.4185
 20
596.71275
 10
522.2257499999999
 20
596.352
 10
522.10725
 20
595.9605
 10
522.06675
 20
595.55325
 10
522.10725
 20
595.146
 10
522.2257499999999
 20
594.7545
  0
LWPOLYLINE
  5
59
100
AcDbEntity
  8
profiling
  6
ByLayer
 62
  256
370
   -1
100
AcDbPolyline
 90
   39
 70
    1
 43
0
 10
424.31625
 20
594.03225
 10
424.7235
 20
593.99175
 10
425.13075
 20
594.03225
 10
425.52225
 20
594.15075
 10
425.88375
 20
594.3434999999999
 10
426.20025
 20
594.603
 10
426.45975
 20
594.9195
 10
426.53775
 20
595.06575
 10
426.6525
 20
595.28025
 10
426.771
 20
595.6725
 10
426.783
 20
595.79625
 10
426.81075
 20
596.07975
 10
426.77025
 20
596.487
 10
426.65175
 20
596.8785
 10
426.65175
 20
596.8785
 10
426.459
 20
597.24
 10
426.2235
 20
597.5265000000001
 10
426.19875
 20
597.5565
 10
425.88225
 20
597.816
 10
425.52075
 20
598.00875
 10
425.12925
 20
598.128
 10
424.722
 20
598.16775
 10
424.31475
 20
598.128
 10
423.92325
 20
598.00875
 10
423.56175
 20
597.816
 10
423.24525
 20
597.5565
 10
422.98575
 20
597.24
 10
422.793
 20
596.8785
 10
422.6745
 20
596.487
 10
422.634
 20
596.07975
 10
422.6745
 20
595.6725
 10
422.793
 20
595.28025
 10
422.98575
 20
594.9195
 10
423.24525
 20
594.603
 10
423.56175
 20
594.3434999999999
 10
423.8145
 20
594.2085
 10
423.92325
 20
594.15075
 10
423.95625
 20
594.141
 10
424.31475
 20
594.03225
  0
ENDSEC
  0
SECTION
  2
OBJECTS
  0
DICTIONARY
  5
C
330
0
100
AcDbDictionary
281
    1
  3
ACAD_GROUP
350
D
  0
DICTIONARY
  5
D
330
C
100
AcDbDictionary
281
    1
  0
ENDSEC
  0
EOF
