999
dxfrw 0.6.3
  0
SECTION
  2
HEADER
  9
$ACADVER
  1
AC1021
  9
$DWGCODEPAGE
  3
ANSI_1252
  9
$INSBASE
 10
0
 20
0
 30
0
  9
$EXTMIN
 10
416.51175
 20
626.4
 30
0
  9
$EXTMAX
 10
579.15525
 20
711.6180000000001
 30
0
  9
$LIMMIN
 10
0
 20
0
  9
$LIMMAX
 10
420
 20
297
  9
$ORTHOMODE
 70
    0
  9
$REGENMODE
 70
    1
  9
$FILLMODE
 70
    1
  9
$QTEXTMODE
 70
    0
  9
$MIRRTEXT
 70
    0
  9
$LTSCALE
 40
1
  9
$ATTMODE
 70
    0
  9
$TEXTSIZE
 40
2.5
  9
$TRACEWID
 40
15.68
  9
$TEXTSTYLE
  7
STANDARD
  9
$CLAYER
  8
pocket-1.25mm
  9
$CELTYPE
  6
BYLAYER
  9
$CECOLOR
 62
  256
  9
$CELTSCALE
 40
1
  9
$DISPSILH
 70
    0
  9
$DIMSCALE
 40
2.5
  9
$DIMASZ
 40
2.5
  9
$DIMEXO
 40
0.625
  9
$DIMDLI
 40
3.75
  9
$DIMRND
 40
0
  9
$DIMDLE
 40
0
  9
$DIMEXE
 40
1.25
  9
$DIMTP
 40
0
  9
$DIMTM
 40
0
  9
$DIMTXT
 40
2.5
  9
$DIMCEN
 40
2.5
  9
$DIMTSZ
 40
0
  9
$DIMTOL
 70
    0
  9
$DIMLIM
 70
    0
  9
$DIMTIH
 70
    0
  9
$DIMTOH
 70
    0
  9
$DIMSE1
 70
    0
  9
$DIMSE2
 70
    0
  9
$DIMTAD
 70
    1
  9
$DIMZIN
 70
    8
  9
$DIMBLK
  1

  9
$DIMASO
 70
    1
  9
$DIMSHO
 70
    1
  9
$DIMPOST
  1

  9
$DIMAPOST
  1

  9
$DIMALT
 70
    0
  9
$DIMALTD
 70
    3
  9
$DIMALTF
 40
0.03937
  9
$DIMLFAC
 40
1
  9
$DIMTOFL
 70
    1
  9
$DIMTVP
 40
0
  9
$DIMTIX
 70
    0
  9
$DIMSOXD
 70
    0
  9
$DIMSAH
 70
    0
  9
$DIMBLK1
  1

  9
$DIMBLK2
  1

  9
$DIMSTYLE
  2
Standard
  9
$DIMCLRD
 70
    0
  9
$DIMCLRE
 70
    0
  9
$DIMCLRT
 70
    0
  9
$DIMTFAC
 40
1
  9
$DIMGAP
 40
0.625
  9
$DIMJUST
 70
    0
  9
$DIMSD1
 70
    0
  9
$DIMSD2
 70
    0
  9
$DIMTOLJ
 70
    0
  9
$DIMTZIN
 70
    8
  9
$DIMALTZ
 70
    0
  9
$DIMALTTZ
 70
    0
  9
$DIMUPT
 70
    0
  9
$DIMDEC
 70
    2
  9
$DIMTDEC
 70
    2
  9
$DIMALTU
 70
    2
  9
$DIMALTTD
 70
    3
  9
$DIMTXSTY
  7
STANDARD
  9
$DIMAUNIT
 70
    0
  9
$DIMADEC
 70
    0
  9
$DIMALTRND
 40
0
  9
$DIMAZIN
 70
    0
  9
$DIMDSEP
 70
   44
  9
$DIMATFIT
 70
    3
  9
$DIMFRAC
 70
    0
  9
$DIMLDRBLK
  1
STANDARD
  9
$DIMLUNIT
 70
    2
  9
$DIMLWD
 70
   -2
  9
$DIMLWE
 70
   -2
  9
$DIMTMOVE
 70
    0
  9
$DIMFXL
 40
1
  9
$DIMFXLON
 70
    0
  9
$DIMJOGANG
 40
0.7854
  9
$DIMTFILL
 70
    0
  9
$DIMTFILLCLR
 70
    0
  9
$DIMARCSYM
 70
    0
  9
$DIMLTYPE
  6

  9
$DIMLTEX1
  6

  9
$DIMLTEX2
  6

  9
$LUNITS
 70
    2
  9
$LUPREC
 70
    4
  9
$SKETCHINC
 40
1
  9
$FILLETRAD
 40
0
  9
$AUNITS
 70
    0
  9
$AUPREC
 70
    2
  9
$MENU
  1
.
  9
$ELEVATION
 40
0
  9
$PELEVATION
 40
0
  9
$THICKNESS
 40
0
  9
$LIMCHECK
 70
    0
  9
$CHAMFERA
 40
0
  9
$CHAMFERB
 40
0
  9
$CHAMFERC
 40
0
  9
$CHAMFERD
 40
0
  9
$SKPOLY
 70
    0
  9
$USRTIMER
 70
    1
  9
$ANGBASE
 50
0
  9
$ANGDIR
 70
    0
  9
$PDMODE
 70
   34
  9
$PDSIZE
 40
0
  9
$PLINEWID
 40
0
  9
$SPLFRAME
 70
    0
  9
$SPLINETYPE
 70
    2
  9
$SPLINESEGS
 70
    8
  9
$HANDSEED
  5
20000
  9
$SURFTAB1
 70
    6
  9
$SURFTAB2
 70
    6
  9
$SURFTYPE
 70
    6
  9
$SURFU
 70
    6
  9
$SURFV
 70
    6
  9
$UCSBASE
  2

  9
$UCSNAME
  2

  9
$UCSORG
 10
0
 20
0
 30
0
  9
$UCSXDIR
 10
1
 20
0
 30
0
  9
$UCSYDIR
 10
0
 20
1
 30
0
  9
$UCSORTHOREF
  2

  9
$UCSORTHOVIEW
 70
    0
  9
$UCSORGTOP
 10
0
 20
0
 30
0
  9
$UCSORGBOTTOM
 10
0
 20
0
 30
0
  9
$UCSORGLEFT
 10
0
 20
0
 30
0
  9
$UCSORGRIGHT
 10
0
 20
0
 30
0
  9
$UCSORGFRONT
 10
0
 20
0
 30
0
  9
$UCSORGBACK
 10
0
 20
0
 30
0
  9
$PUCSBASE
  2

  9
$PUCSNAME
  2

  9
$PUCSORG
 10
0
 20
0
 30
0
  9
$PUCSXDIR
 10
1
 20
0
 30
0
  9
$PUCSYDIR
 10
0
 20
1
 30
0
  9
$PUCSORTHOREF
  2

  9
$PUCSORTHOVIEW
 70
    0
  9
$PUCSORGTOP
 10
0
 20
0
 30
0
  9
$PUCSORGBOTTOM
 10
0
 20
0
 30
0
  9
$PUCSORGLEFT
 10
0
 20
0
 30
0
  9
$PUCSORGRIGHT
 10
0
 20
0
 30
0
  9
$PUCSORGFRONT
 10
0
 20
0
 30
0
  9
$PUCSORGBACK
 10
0
 20
0
 30
0
  9
$USERI1
 70
    0
  9
$USERI2
 70
    0
  9
$USERI3
 70
    0
  9
$USERI4
 70
    0
  9
$USERI5
 70
    0
  9
$USERR1
 40
0
  9
$USERR2
 40
0
  9
$USERR3
 40
0
  9
$USERR4
 40
0
  9
$USERR5
 40
0
  9
$WORLDVIEW
 70
    1
  9
$SHADEDGE
 70
    3
  9
$SHADEDIF
 70
   70
  9
$TILEMODE
 70
    1
  9
$MAXACTVP
 70
   64
  9
$PINSBASE
 10
0
 20
0
 30
0
  9
$PLIMCHECK
 70
    0
  9
$PEXTMIN
 10
0
 20
0
 30
0
  9
$PEXTMAX
 10
0
 20
0
 30
0
  9
$GRIDMODE
 70
    0
  9
$SNAPSTYLE
 70
    0
  9
$PLIMMIN
 10
0
 20
0
  9
$PLIMMAX
 10
210
 20
297
  9
$UNITMODE
 70
    0
  9
$VISRETAIN
 70
    1
  9
$PLINEGEN
 70
    0
  9
$PSLTSCALE
 70
    1
  9
$TREEDEPTH
 70
 3020
  9
$CMLSTYLE
  2
Standard
  9
$CMLJUST
 70
    0
  9
$CMLSCALE
 40
20
  9
$PROXYGRAPHICS
 70
    1
  9
$MEASUREMENT
 70
    1
  9
$CELWEIGHT
370
   -1
  9
$ENDCAPS
280
    0
  9
$JOINSTYLE
280
    0
  9
$LWDISPLAY
290
    0
  9
$INSUNITS
 70
    4
  9
$HYPERLINKBASE
  1

  9
$STYLESHEET
  1

  9
$XEDIT
290
    1
  9
$CEPSNTYPE
380
    0
  9
$PSTYLEMODE
290
    1
  9
$EXTNAMES
290
    1
  9
$PSVPSCALE
 40
1
  9
$OLESTARTUP
290
    0
  9
$SORTENTS
280
  127
  9
$INDEXCTL
280
    0
  9
$HIDETEXT
280
    1
  9
$XCLIPFRAME
290
    0
  9
$HALOGAP
280
    0
  9
$OBSCOLOR
 70
  257
  9
$OBSLTYPE
280
    0
  9
$INTERSECTIONDISPLAY
280
    0
  9
$INTERSECTIONCOLOR
 70
  257
  9
$DIMASSOC
280
    1
  9
$PROJECTNAME
  1

  9
$CAMERADISPLAY
290
    0
  9
$LENSLENGTH
 40
50
  9
$CAMERAHEIGHT
 40
0
  9
$STEPSPERSEC
 40
2
  9
$STEPSIZE
 40
50
  9
$3DDWFPREC
 40
2
  9
$PSOLWIDTH
 40
5
  9
$PSOLHEIGHT
 40
80
  9
$LOFTANG1
 40
1.570796326794897
  9
$LOFTANG2
 40
1.570796326794897
  9
$LOFTMAG1
 40
0
  9
$LOFTMAG2
 40
0
  9
$LOFTPARAM
 70
    7
  9
$LOFTNORMALS
280
    1
  9
$LATITUDE
 40
1
  9
$LONGITUDE
 40
1
  9
$NORTHDIRECTION
 40
0
  9
$TIMEZONE
 70
-8000
  9
$LIGHTGLYPHDISPLAY
280
    1
  9
$TILEMODELIGHTSYNCH
280
    1
  9
$SOLIDHIST
280
    1
  9
$SHOWHIST
280
    1
  9
$DWFFRAME
280
    2
  9
$DGNFRAME
280
    0
  9
$REALWORLDSCALE
290
    1
  9
$INTERFERECOLOR
 62
    1
  9
$CSHADOW
280
    0
  9
$SHADOWPLANELOCATION
 40
0
  0
ENDSEC
  0
SECTION
  2
CLASSES
  0
ENDSEC
  0
SECTION
  2
TABLES
  0
TABLE
  2
VPORT
  5
8
330
0
100
AcDbSymbolTable
 70
    1
  0
VPORT
  5
31
330
2
100
AcDbSymbolTableRecord
100
AcDbViewportTableRecord
  2
*ACTIVE
 70
    0
 10
0
 20
0
 11
1
 21
1
 12
330.2906831617641
 22
363.5973066738748
 13
0
 23
0
 14
10
 24
10
 15
10
 25
10
 16
0
 26
0
 36
1
 17
0
 27
0
 37
0
 40
327.9116386251848
 41
0.9866989117291415
 42
50
 43
0
 44
0
 50
0
 51
0
 71
    0
 72
  100
 73
    1
 74
    3
 75
    0
 76
    0
 77
    0
 78
    0
281
    0
 65
    1
110
0
120
0
130
0
111
1
121
0
131
0
112
0
122
1
132
0
 79
    0
146
0
348
10020
 60
    7
 61
    5
292
1
282
    1
141
0
142
0
 63
  250
421
3358443
  0
ENDTAB
  0
TABLE
  2
LTYPE
  5
5
330
0
100
AcDbSymbolTable
 70
    4
  0
LTYPE
  5
14
330
5
100
AcDbSymbolTableRecord
100
AcDbLinetypeTableRecord
  2
ByBlock
 70
    0
  3

 72
   65
 73
    0
 40
0
  0
LTYPE
  5
15
330
5
100
AcDbSymbolTableRecord
100
AcDbLinetypeTableRecord
  2
ByLayer
 70
    0
  3

 72
   65
 73
    0
 40
0
  0
LTYPE
  5
16
330
5
100
AcDbSymbolTableRecord
100
AcDbLinetypeTableRecord
  2
Continuous
 70
    0
  3
Solid line
 72
   65
 73
    0
 40
0
  0
LTYPE
  5
32
330
5
100
AcDbSymbolTableRecord
100
AcDbLinetypeTableRecord
  2
DOT
 70
    0
  3
Dot . . . . . . . . . . . . . . . . . . . . . .
 72
   65
 73
    2
 40
6.35
 49
0
 74
    0
 49
-6.35
 74
    0
  0
LTYPE
  5
33
330
5
100
AcDbSymbolTableRecord
100
AcDbLinetypeTableRecord
  2
DOTTINY
 70
    0
  3
Dot (.15x) .....................................
 72
   65
 73
    2
 40
0.9525
 49
0
 74
    0
 49
-0.9525
 74
    0
  0
LTYPE
  5
34
330
5
100
AcDbSymbolTableRecord
100
AcDbLinetypeTableRecord
  2
DOT2
 70
    0
  3
Dot (.5x) .....................................
 72
   65
 73
    2
 40
3.175
 49
0
 74
    0
 49
-3.175
 74
    0
  0
LTYPE
  5
35
330
5
100
AcDbSymbolTableRecord
100
AcDbLinetypeTableRecord
  2
DOTX2
 70
    0
  3
Dot (2x) .  .  .  .  .  .  .  .  .  .  .  .  .
 72
   65
 73
    2
 40
12.7
 49
0
 74
    0
 49
-12.7
 74
    0
  0
LTYPE
  5
36
330
5
100
AcDbSymbolTableRecord
100
AcDbLinetypeTableRecord
  2
DASHED
 70
    0
  3
Dashed _ _ _ _ _ _ _ _ _ _ _ _ _ _ _ _ _
 72
   65
 73
    2
 40
19.05
 49
12.7
 74
    0
 49
-6.35
 74
    0
  0
LTYPE
  5
37
330
5
100
AcDbSymbolTableRecord
100
AcDbLinetypeTableRecord
  2
DASHEDTINY
 70
    0
  3
Dashed (.15x) _ _ _ _ _ _ _ _ _ _ _ _ _ _ _ _ _
 72
   65
 73
    2
 40
2.8575
 49
1.905
 74
    0
 49
-0.9525
 74
    0
  0
LTYPE
  5
38
330
5
100
AcDbSymbolTableRecord
100
AcDbLinetypeTableRecord
  2
DASHED2
 70
    0
  3
Dashed (.5x) _ _ _ _ _ _ _ _ _ _ _ _ _ _ _ _ _
 72
   65
 73
    2
 40
9.524999999999999
 49
6.35
 74
    0
 49
-3.175
 74
    0
  0
LTYPE
  5
39
330
5
100
AcDbSymbolTableRecord
100
AcDbLinetypeTableRecord
  2
DASHEDX2
 70
    0
  3
Dashed (2x) ____  ____  ____  ____  ____  ___
 72
   65
 73
    2
 40
38.09999999999999
 49
25.4
 74
    0
 49
-12.7
 74
    0
  0
LTYPE
  5
3A
330
5
100
AcDbSymbolTableRecord
100
AcDbLinetypeTableRecord
  2
DASHDOT
 70
    0
  3
Dash dot __ . __ . __ . __ . __ . __ . __ . __
 72
   65
 73
    4
 40
25.4
 49
12.7
 74
    0
 49
-6.35
 74
    0
 49
0
 74
    0
 49
-6.35
 74
    0
  0
LTYPE
  5
3B
330
5
100
AcDbSymbolTableRecord
100
AcDbLinetypeTableRecord
  2
DASHDOTTINY
 70
    0
  3
Dash dot (.15x) _._._._._._._._._._._._._._._.
 72
   65
 73
    4
 40
3.81
 49
1.905
 74
    0
 49
-0.9525
 74
    0
 49
0
 74
    0
 49
-0.9525
 74
    0
  0
LTYPE
  5
3C
330
5
100
AcDbSymbolTableRecord
100
AcDbLinetypeTableRecord
  2
DASHDOT2
 70
    0
  3
Dash dot (.5x) _._._._._._._._._._._._._._._.
 72
   65
 73
    4
 40
12.7
 49
6.35
 74
    0
 49
-3.175
 74
    0
 49
0
 74
    0
 49
-3.175
 74
    0
  0
LTYPE
  5
3D
330
5
100
AcDbSymbolTableRecord
100
AcDbLinetypeTableRecord
  2
DASHDOTX2
 70
    0
  3
Dash dot (2x) ____  .  ____  .  ____  .  ___
 72
   65
 73
    4
 40
50.8
 49
25.4
 74
    0
 49
-12.7
 74
    0
 49
0
 74
    0
 49
-12.7
 74
    0
  0
LTYPE
  5
3E
330
5
100
AcDbSymbolTableRecord
100
AcDbLinetypeTableRecord
  2
DIVIDE
 70
    0
  3
Divide ____ . . ____ . . ____ . . ____ . . ____
 72
   65
 73
    6
 40
31.75
 49
12.7
 74
    0
 49
-6.35
 74
    0
 49
0
 74
    0
 49
-6.35
 74
    0
 49
0
 74
    0
 49
-6.35
 74
    0
  0
LTYPE
  5
3F
330
5
100
AcDbSymbolTableRecord
100
AcDbLinetypeTableRecord
  2
DIVIDETINY
 70
    0
  3
Divide (.15x) __..__..__..__..__..__..__..__.._
 72
   65
 73
    6
 40
4.7625
 49
1.905
 74
    0
 49
-0.9525
 74
    0
 49
0
 74
    0
 49
-0.9525
 74
    0
 49
0
 74
    0
 49
-0.9525
 74
    0
  0
LTYPE
  5
40
330
5
100
AcDbSymbolTableRecord
100
AcDbLinetypeTableRecord
  2
DIVIDE2
 70
    0
  3
Divide (.5x) __..__..__..__..__..__..__..__.._
 72
   65
 73
    6
 40
15.875
 49
6.35
 74
    0
 49
-3.175
 74
    0
 49
0
 74
    0
 49
-3.175
 74
    0
 49
0
 74
    0
 49
-3.175
 74
    0
  0
LTYPE
  5
41
330
5
100
AcDbSymbolTableRecord
100
AcDbLinetypeTableRecord
  2
DIVIDEX2
 70
    0
  3
Divide (2x) ________  .  .  ________  .  .  _
 72
   65
 73
    6
 40
63.5
 49
25.4
 74
    0
 49
-12.7
 74
    0
 49
0
 74
    0
 49
-12.7
 74
    0
 49
0
 74
    0
 49
-12.7
 74
    0
  0
LTYPE
  5
42
330
5
100
AcDbSymbolTableRecord
100
AcDbLinetypeTableRecord
  2
BORDER
 70
    0
  3
Border __ __ . __ __ . __ __ . __ __ . __ __ .
 72
   65
 73
    6
 40
44.45
 49
12.7
 74
    0
 49
-6.35
 74
    0
 49
12.7
 74
    0
 49
-6.35
 74
    0
 49
0
 74
    0
 49
-6.35
 74
    0
  0
LTYPE
  5
43
330
5
100
AcDbSymbolTableRecord
100
AcDbLinetypeTableRecord
  2
BORDERTINY
 70
    0
  3
Border (.15x) __.__.__.__.__.__.__.__.__.__.__.
 72
   65
 73
    6
 40
6.6675
 49
1.905
 74
    0
 49
-0.9525
 74
    0
 49
1.905
 74
    0
 49
-0.9525
 74
    0
 49
0
 74
    0
 49
-0.9525
 74
    0
  0
LTYPE
  5
44
330
5
100
AcDbSymbolTableRecord
100
AcDbLinetypeTableRecord
  2
BORDER2
 70
    0
  3
Border (.5x) __.__.__.__.__.__.__.__.__.__.__.
 72
   65
 73
    6
 40
22.225
 49
6.35
 74
    0
 49
-3.175
 74
    0
 49
6.35
 74
    0
 49
-3.175
 74
    0
 49
0
 74
    0
 49
-3.175
 74
    0
  0
LTYPE
  5
45
330
5
100
AcDbSymbolTableRecord
100
AcDbLinetypeTableRecord
  2
BORDERX2
 70
    0
  3
Border (2x) ____  ____  .  ____  ____  .  ___
 72
   65
 73
    6
 40
88.89999999999999
 49
25.4
 74
    0
 49
-12.7
 74
    0
 49
25.4
 74
    0
 49
-12.7
 74
    0
 49
0
 74
    0
 49
-12.7
 74
    0
  0
LTYPE
  5
46
330
5
100
AcDbSymbolTableRecord
100
AcDbLinetypeTableRecord
  2
CENTER
 70
    0
  3
Center ____ _ ____ _ ____ _ ____ _ ____ _ ____
 72
   65
 73
    4
 40
50.8
 49
31.75
 74
    0
 49
-6.35
 74
    0
 49
6.35
 74
    0
 49
-6.35
 74
    0
  0
LTYPE
  5
47
330
5
100
AcDbSymbolTableRecord
100
AcDbLinetypeTableRecord
  2
CENTERTINY
 70
    0
  3
Center (.15x) ___ _ ___ _ ___ _ ___ _ ___ _ ___
 72
   65
 73
    4
 40
7.619999999999999
 49
4.7625
 74
    0
 49
-0.9525
 74
    0
 49
0.9525
 74
    0
 49
-0.9525
 74
    0
  0
LTYPE
  5
48
330
5
100
AcDbSymbolTableRecord
100
AcDbLinetypeTableRecord
  2
CENTER2
 70
    0
  3
Center (.5x) ___ _ ___ _ ___ _ ___ _ ___ _ ___
 72
   65
 73
    4
 40
28.575
 49
19.05
 74
    0
 49
-3.175
 74
    0
 49
3.175
 74
    0
 49
-3.175
 74
    0
  0
LTYPE
  5
49
330
5
100
AcDbSymbolTableRecord
100
AcDbLinetypeTableRecord
  2
CENTERX2
 70
    0
  3
Center (2x) ________  __  ________  __  _____
 72
   65
 73
    4
 40
101.6
 49
63.5
 74
    0
 49
-12.7
 74
    0
 49
12.7
 74
    0
 49
-12.7
 74
    0
  0
ENDTAB
  0
TABLE
  2
LAYER
  5
2
330
0
100
AcDbSymbolTable
 70
    1
  0
LAYER
  5
10
330
2
100
AcDbSymbolTableRecord
100
AcDbLayerTableRecord
  2
0
 70
    0
 62
    7
  6
CONTINUOUS
370
   -3
390
F
  0
LAYER
  5
4A
330
2
100
AcDbSymbolTableRecord
100
AcDbLayerTableRecord
  2
pocket-1.25mm
 70
    0
 62
    4
  6
CONTINUOUS
370
    0
390
F
  0
LAYER
  5
4B
330
2
100
AcDbSymbolTableRecord
100
AcDbLayerTableRecord
  2
profiling
 70
    0
 62
    3
  6
CONTINUOUS
370
    0
390
F
  0
LAYER
  5
4C
330
2
100
AcDbSymbolTableRecord
100
AcDbLayerTableRecord
  2
vcut
 70
    0
 62
    6
  6
CONTINUOUS
370
    0
390
F
  0
ENDTAB
  0
TABLE
  2
STYLE
  5
3
330
0
100
AcDbSymbolTable
 70
    3
  0
STYLE
  5
4D
330
2
100
AcDbSymbolTableRecord
100
AcDbTextStyleTableRecord
  2
Standard
 70
    0
 40
0
 41
1
 50
0
 71
    0
 42
1
  3
txt
  4

  0
ENDTAB
  0
TABLE
  2
VIEW
  5
6
330
0
100
AcDbSymbolTable
 70
    0
  0
ENDTAB
  0
TABLE
  2
UCS
  5
7
330
0
100
AcDbSymbolTable
 70
    0
  0
ENDTAB
  0
TABLE
  2
APPID
  5
9
330
0
100
AcDbSymbolTable
 70
    1
  0
APPID
  5
12
330
9
100
AcDbSymbolTableRecord
100
AcDbRegAppTableRecord
  2
ACAD
 70
    0
  0
APPID
  5
4E
330
9
100
AcDbSymbolTableRecord
100
AcDbRegAppTableRecord
  2
LibreCad
 70
    0
  0
ENDTAB
  0
TABLE
  2
DIMSTYLE
  5
A
330
0
100
AcDbSymbolTable
 70
    1
100
AcDbDimStyleTable
 71
    1
  0
DIMSTYLE
105
4F
330
A
100
AcDbSymbolTableRecord
100
AcDbDimStyleTableRecord
  2
Standard
 70
    0
 40
2.5
 41
2.5
 42
0.625
 43
0.38
 44
1.25
 45
0
 46
0
 47
0
 48
0
 49
1
140
2.5
141
0.09
142
0
143
25.4
144
1
145
0
146
1
147
0.625
148
0
 71
    0
 72
    0
 73
    0
 74
    1
 75
    0
 76
    0
 77
    0
 78
    8
 79
    0
170
    0
171
    2
172
    0
173
    0
174
    0
175
    0
176
    0
177
    0
178
    0
179
    0
271
    2
272
    4
273
    2
274
    2
275
    0
276
    0
277
    2
278
   44
279
    0
280
    0
281
    0
282
    0
283
    1
284
    0
285
    0
286
    0
288
    0
289
    3
340
STANDARD
341

371
   -2
372
   -2
  0
ENDTAB
  0
TABLE
  2
BLOCK_RECORD
  5
1
330
0
100
AcDbSymbolTable
 70
    2
  0
BLOCK_RECORD
  5
1F
330
1
100
AcDbSymbolTableRecord
100
AcDbBlockTableRecord
  2
*Model_Space
 70
    0
280
    1
281
    0
  0
BLOCK_RECORD
  5
1E
330
1
100
AcDbSymbolTableRecord
100
AcDbBlockTableRecord
  2
*Paper_Space
 70
    0
280
    1
281
    0
  0
ENDTAB
  0
ENDSEC
  0
SECTION
  2
BLOCKS
  0
BLOCK
  5
20
330
1F
100
AcDbEntity
  8
0
100
AcDbBlockBegin
  2
*Model_Space
 70
    0
 10
0
 20
0
 30
0
  3
*Model_Space
  1

  0
ENDBLK
  5
21
330
1F
100
AcDbEntity
  8
0
100
AcDbBlockEnd
  0
BLOCK
  5
1C
330
1B
100
AcDbEntity
  8
0
100
AcDbBlockBegin
  2
*Paper_Space
 70
    0
 10
0
 20
0
 30
0
  3
*Paper_Space
  1

  0
ENDBLK
  5
1D
330
1F
100
AcDbEntity
  8
0
100
AcDbBlockEnd
  0
ENDSEC
  0
SECTION
  2
ENTITIES
  0
LWPOLYLINE
  5
50
100
AcDbEntity
  8
pocket-1.25mm
  6
ByLayer
 62
  256
370
   -1
100
AcDbPolyline
 90
   62
 70
    1
 43
0
 10
510.3885
 20
659.6347500000001
 10
511.02
 20
659.697
 10
511.6275
 20
659.8815
 10
512.187
 20
660.18075
 10
512.6775
 20
660.5835
 10
513.08025
 20
661.074
 10
513.3795
 20
661.6335
 10
513.564
 20
662.241
 10
513.62625
 20
662.8724999999999
 10
513.564
 20
663.504
 10
513.3795
 20
664.1115
 10
513.08025
 20
664.671
 10
512.6775
 20
665.1615
 10
512.187
 20
665.56425
 10
511.6275
 20
665.8635
 10
511.02
 20
666.048
 10
510.3885
 20
666.11025
 10
500.4195
 20
666.11325
 10
498.4515
 20
666.051
 10
496.17525
 20
665.8680000000001
 10
493.74525
 20
665.577
 10
491.328
 20
665.1975
 10
489.08775
 20
664.75575
 10
487.17675
 20
664.2809999999999
 10
459.35325
 20
656.42625
 10
457.3875
 20
655.938
 10
455.08275
 20
655.482
 10
452.59575
 20
655.08975
 10
450.09675
 20
654.7882499999999
 10
447.75525
 20
654.59775
 10
445.731
 20
654.5309999999999
 10
439.33125
 20
654.522
 10
438.69975
 20
654.45975
 10
438.09225
 20
654.27525
 10
437.53275
 20
653.976
 10
437.04225
 20
653.57325
 10
436.6395
 20
653.08275
 10
436.34025
 20
652.52325
 10
436.15575
 20
651.91575
 10
436.0935
 20
651.28425
 10
436.15575
 20
650.65275
 10
436.34025
 20
650.04525
 10
436.6395
 20
649.4857500000001
 10
437.04225
 20
648.9952500000001
 10
437.53275
 20
648.5925
 10
438.09225
 20
648.2932499999999
 10
438.69975
 20
648.10875
 10
439.33125
 20
648.0465
 10
445.731
 20
648.0375
 10
447.75525
 20
648.099
 10
450.09675
 20
648.285
 10
452.59575
 20
648.58275
 10
455.082
 20
648.972
 10
457.38675
 20
649.42575
 10
459.3525
 20
649.914
 10
486.6105
 20
657.61275
 10
488.688
 20
658.1295
 10
491.124
 20
658.61175
 10
493.752
 20
659.0265000000001
 10
496.3935
 20
659.346
 10
498.8685
 20
659.5485
 10
501.00825
 20
659.61975
  0
LWPOLYLINE
  5
51
100
AcDbEntity
  8
profiling
  6
ByLayer
 62
  256
370
   -1
100
AcDbPolyline
 90
  287
 70
    1
 43
0
 10
576.462
 20
675.5295
 10
576.462
 20
675.5295
 10
576.77775
 20
675.5145
 10
576.77775
 20
675.5145
 10
577.0845
 20
675.46875
 10
577.0845
 20
675.46875
 10
577.37925
 20
675.39225
 10
577.37925
 20
675.39225
 10
577.659
 20
675.2865
 10
577.659
 20
675.2865
 10
577.9215
 20
675.15225
 10
577.9215
 20
675.15225
 10
578.1637500000001
 20
674.991
 10
578.1637500000001
 20
674.991
 10
578.38425
 20
674.80425
 10
578.38425
 20
674.80425
 10
578.58
 20
674.5934999999999
 10
578.58
 20
674.5934999999999
 10
578.7495
 20
674.361
 10
578.7495
 20
674.361
 10
578.89125
 20
674.10975
 10
578.89125
 20
674.10975
 10
579.00375
 20
673.8412499999999
 10
579.00375
 20
673.8412499999999
 10
579.0855
 20
673.5577500000001
 10
579.0855
 20
673.5577500000001
 10
579.1365
 20
673.263
 10
579.1365
 20
673.263
 10
579.15525
 20
672.95925
 10
579.15525
 20
672.95925
 10
579.1425
 20
672.6495
 10
579.1425
 20
672.6495
 10
579.09825
 20
672.3367500000001
 10
579.09825
 20
672.3367500000001
 10
578.433
 20
668.88375
 10
578.433
 20
668.88375
 10
578.28075
 20
668.25525
 10
578.28075
 20
668.25525
 10
578.067
 20
667.63275
 10
578.067
 20
667.63275
 10
577.794
 20
667.02225
 10
577.794
 20
667.02225
 10
577.4640000000001
 20
666.42975
 10
577.4640000000001
 20
666.42975
 10
577.08075
 20
665.86125
 10
577.08075
 20
665.86125
 10
576.64725
 20
665.322
 10
576.64725
 20
665.322
 10
576.168
 20
664.8165
 10
576.168
 20
664.8165
 10
575.64825
 20
664.3507499999999
 10
575.64825
 20
664.3507499999999
 10
575.0925
 20
663.9285
 10
575.0925
 20
663.9285
 10
575.0925
 20
663.9285
 10
575.0925
 20
663.9285
 10
575.0925
 20
663.9285
 10
575.0925
 20
663.9285
 10
574.506
 20
663.5535
 10
574.506
 20
663.5535
 10
573.894
 20
663.23025
 10
573.894
 20
663.23025
 10
573.894
 20
663.23025
 10
573.894
 20
663.23025
 10
573.26325
 20
662.961
 10
573.26325
 20
662.961
 10
573.26325
 20
662.961
 10
573.26325
 20
662.961
 10
572.619
 20
662.74875
 10
572.619
 20
662.74875
 10
571.968
 20
662.59575
 10
571.968
 20
662.59575
 10
571.31625
 20
662.5035
 10
571.31625
 20
662.5035
 10
570.6704999999999
 20
662.47275
 10
570.6704999999999
 20
662.47275
 10
543.327
 20
662.47275
 10
542.36625
 20
657.07425
 10
542.36625
 20
657.07425
 10
541.7535
 20
654.0675
 10
541.7535
 20
654.0675
 10
541.7535
 20
654.0675
 10
541.7535
 20
654.0675
 10
541.7535
 20
654.0675
 10
541.10625
 20
651.09
 10
541.10625
 20
651.09
 10
541.10625
 20
651.09
 10
541.10625
 20
651.09
 10
540.375
 20
648.1695
 10
540.375
 20
648.1695
 10
539.361
 20
645.33525
 10
539.361
 20
645.33525
 10
539.361
 20
645.33525
 10
539.361
 20
645.33525
 10
538.074
 20
642.61425
 10
538.074
 20
642.61425
 10
538.074
 20
642.61425
 10
538.074
 20
642.61425
 10
536.52675
 20
640.032
 10
536.52675
 20
640.032
 10
534.7335
 20
637.614
 10
534.7335
 20
637.614
 10
534.7335
 20
637.614
 10
534.7335
 20
637.614
 10
534.7335
 20
637.614
 10
532.71225
 20
635.3835
 10
532.71225
 20
635.3835
 10
530.48175
 20
633.36225
 10
530.48175
 20
633.36225
 10
530.48175
 20
633.36225
 10
528.06375
 20
631.569
 10
528.06375
 20
631.569
 10
528.06375
 20
631.569
 10
525.4815
 20
630.02175
 10
525.4815
 20
630.02175
 10
522.7605
 20
628.73475
 10
522.7605
 20
628.73475
 10
522.7605
 20
628.73475
 10
522.7605
 20
628.73475
 10
522.7605
 20
628.73475
 10
522.7605
 20
628.73475
 10
522.7605
 20
628.73475
 10
519.92625
 20
627.72075
 10
519.92625
 20
627.72075
 10
517.00575
 20
626.9895
 10
517.00575
 20
626.9895
 10
517.00575
 20
626.9895
 10
517.00575
 20
626.9895
 10
514.02825
 20
626.54775
 10
514.02825
 20
626.54775
 10
511.0215
 20
626.4
 10
511.0215
 20
626.4
 10
511.0215
 20
626.4
 10
506.454
 20
626.4
 10
447.18525
 20
626.4
 10
447.18525
 20
626.4
 10
447.18525
 20
626.4
 10
444.1785
 20
626.54775
 10
444.1785
 20
626.54775
 10
441.201
 20
626.9895
 10
441.201
 20
626.9895
 10
441.201
 20
626.9895
 10
441.201
 20
626.9895
 10
438.28125
 20
627.72075
 10
438.28125
 20
627.72075
 10
435.447
 20
628.73475
 10
435.447
 20
628.73475
 10
435.447
 20
628.73475
 10
435.447
 20
628.73475
 10
432.726
 20
630.02175
 10
432.726
 20
630.02175
 10
430.14375
 20
631.569
 10
430.14375
 20
631.569
 10
430.14375
 20
631.569
 10
427.72575
 20
633.36225
 10
427.72575
 20
633.36225
 10
427.72575
 20
633.36225
 10
425.49525
 20
635.38425
 10
425.49525
 20
635.38425
 10
423.474
 20
637.61475
 10
423.474
 20
637.61475
 10
421.68075
 20
640.03275
 10
421.68075
 20
640.03275
 10
421.68075
 20
640.03275
 10
420.1335
 20
642.615
 10
420.1335
 20
642.615
 10
418.8465
 20
645.336
 10
418.8465
 20
645.336
 10
417.8325
 20
648.17025
 10
417.8325
 20
648.17025
 10
417.10125
 20
651.09075
 10
417.10125
 20
651.09075
 10
417.10125
 20
651.09075
 10
417.10125
 20
651.09075
 10
416.6595
 20
654.06825
 10
416.6595
 20
654.06825
 10
416.51175
 20
657.075
 10
416.51175
 20
657.075
 10
416.51175
 20
657.075
 10
416.51175
 20
657.075
 10
416.51175
 20
680.94375
 10
416.51175
 20
680.94375
 10
416.51175
 20
680.94375
 10
416.6595
 20
683.9505
 10
416.6595
 20
683.9505
 10
417.10125
 20
686.928
 10
417.10125
 20
686.928
 10
417.8325
 20
689.8484999999999
 10
417.8325
 20
689.8484999999999
 10
417.8325
 20
689.8484999999999
 10
417.8325
 20
689.8484999999999
 10
418.8465
 20
692.6827500000001
 10
418.8465
 20
692.6827500000001
 10
420.1335
 20
695.4037499999999
 10
420.1335
 20
695.4037499999999
 10
420.1335
 20
695.4037499999999
 10
420.1335
 20
695.4037499999999
 10
421.6815
 20
697.986
 10
421.6815
 20
697.986
 10
421.6815
 20
697.986
 10
423.47475
 20
700.404
 10
423.47475
 20
700.404
 10
423.47475
 20
700.404
 10
425.496
 20
702.6345
 10
425.496
 20
702.6345
 10
427.7265
 20
704.65575
 10
427.7265
 20
704.65575
 10
427.7265
 20
704.65575
 10
427.7265
 20
704.65575
 10
430.1445
 20
706.449
 10
430.1445
 20
706.449
 10
432.72675
 20
707.99625
 10
432.72675
 20
707.99625
 10
432.72675
 20
707.99625
 10
432.72675
 20
707.99625
 10
435.44775
 20
709.28325
 10
435.44775
 20
709.28325
 10
438.282
 20
710.29725
 10
438.282
 20
710.29725
 10
441.20175
 20
711.0285
 10
441.20175
 20
711.0285
 10
444.17925
 20
711.47025
 10
444.17925
 20
711.47025
 10
447.186
 20
711.6180000000001
 10
447.186
 20
711.6180000000001
 10
447.186
 20
711.6180000000001
 10
447.186
 20
711.6180000000001
 10
506.45475
 20
711.6180000000001
 10
545.54625
 20
711.61725
 10
545.54625
 20
711.61725
 10
545.54625
 20
711.61725
 10
545.54625
 20
711.61725
 10
545.54625
 20
711.61725
 10
545.54625
 20
711.61725
 10
546.18075
 20
711.5865
 10
546.18075
 20
711.5865
 10
546.18075
 20
711.5865
 10
546.18075
 20
711.5865
 10
546.18075
 20
711.5865
 10
546.18075
 20
711.5865
 10
546.18075
 20
711.5865
 10
546.798
 20
711.49425
 10
546.798
 20
711.49425
 10
547.3920000000001
 20
711.3412499999999
 10
547.3920000000001
 20
711.3412499999999
 10
547.3920000000001
 20
711.3412499999999
 10
547.3920000000001
 20
711.3412499999999
 10
547.3920000000001
 20
711.3412499999999
 10
547.9575
 20
711.129
 10
547.9575
 20
711.129
 10
548.4885
 20
710.859
 10
548.4885
 20
710.859
 10
548.4885
 20
710.859
 10
548.9805
 20
710.535
 10
548.9805
 20
710.535
 10
549.42825
 20
710.15925
 10
549.42825
 20
710.15925
 10
549.42825
 20
710.15925
 10
549.42825
 20
710.15925
 10
549.82725
 20
709.7355
 10
549.82725
 20
709.7355
 10
549.82725
 20
709.7355
 10
549.82725
 20
709.7355
 10
550.1745
 20
709.26825
 10
550.1745
 20
709.26825
 10
550.1745
 20
709.26825
 10
550.1745
 20
709.26825
 10
550.1745
 20
709.26825
 10
550.4662499999999
 20
708.7619999999999
 10
550.4662499999999
 20
708.7619999999999
 10
550.6994999999999
 20
708.2212500000001
 10
550.6994999999999
 20
708.2212500000001
 10
550.6994999999999
 20
708.2212500000001
 10
550.872
 20
707.65125
 10
550.872
 20
707.65125
 10
550.872
 20
707.65125
 10
550.98225
 20
707.05725
 10
550.98225
 20
707.05725
 10
551.0287499999999
 20
706.44525
 10
551.0287499999999
 20
706.44525
 10
551.0115
 20
705.82125
 10
551.0115
 20
705.82125
 10
550.9305000000001
 20
705.19125
 10
550.9305000000001
 20
705.19125
 10
550.9305000000001
 20
705.19125
 10
545.652
 20
675.5287499999999
 10
576.465
 20
675.5287499999999
  0
LWPOLYLINE
  5
52
100
AcDbEntity
  8
profiling
  6
ByLayer
 62
  256
370
   -1
100
AcDbPolyline
 90
   43
 70
    1
 43
0
 10
450.10275
 20
676.569
 10
450.6675
 20
677.0325
 10
450.89925
 20
677.223
 10
451.5525
 20
678.0195
 10
451.641
 20
678.18525
 10
452.03775
 20
678.9277499999999
 10
452.184
 20
679.4085
 10
452.337
 20
679.9132499999999
 10
452.3835
 20
680.3819999999999
 10
452.43825
 20
680.9385
 10
452.337
 20
681.96375
 10
452.03775
 20
682.95
 10
451.55175
 20
683.85825
 10
450.8985
 20
684.65475
 10
450.102
 20
685.308
 10
449.19375
 20
685.794
 10
448.2075
 20
686.09325
 10
447.50775
 20
686.16225
 10
447.18225
 20
686.1944999999999
 10
446.157
 20
686.09325
 10
445.17075
 20
685.794
 10
444.969
 20
685.686
 10
444.2625
 20
685.308
 10
443.466
 20
684.65475
 10
442.81275
 20
683.85825
 10
442.32675
 20
682.95
 10
442.0875
 20
682.16175
 10
442.0275
 20
681.96375
 10
441.92625
 20
680.9385
 10
442.0275
 20
679.9132499999999
 10
442.32675
 20
678.927
 10
442.81275
 20
678.01875
 10
443.466
 20
677.22225
 10
444.2625
 20
676.569
 10
444.4425
 20
676.473
 10
445.1715
 20
676.08375
 10
445.34325
 20
676.032
 10
446.157
 20
675.78525
 10
446.157
 20
675.78525
 10
447.18225
 20
675.684
 10
448.2075
 20
675.78525
 10
449.19375
 20
676.0845
 10
450.102
 20
676.56975
  0
LWPOLYLINE
  5
53
100
AcDbEntity
  8
profiling
  6
ByLayer
 62
  256
370
   -1
100
AcDbPolyline
 90
   41
 70
    1
 43
0
 10
541.73625
 20
694.8495
 10
542.09775
 20
695.04225
 10
542.41425
 20
695.30175
 10
542.67375
 20
695.61825
 10
542.8665
 20
695.97975
 10
542.985
 20
696.37125
 10
543.0255
 20
696.7785
 10
542.985
 20
697.18575
 10
542.8665
 20
697.57725
 10
542.67375
 20
697.93875
 10
542.5725
 20
698.0625
 10
542.41425
 20
698.256
 10
542.09775
 20
698.5155
 10
541.73625
 20
698.70825
 10
541.34475
 20
698.8267499999999
 10
541.05075
 20
698.856
 10
540.9375
 20
698.86725
 10
540.72675
 20
698.8462500000001
 10
540.53025
 20
698.8267499999999
 10
540.13875
 20
698.70825
 10
539.77725
 20
698.5155
 10
539.7307499999999
 20
698.47725
 10
539.46075
 20
698.25525
 10
539.2424999999999
 20
697.989
 10
539.20125
 20
697.93875
 10
539.0085
 20
697.57725
 10
538.89
 20
697.18575
 10
538.86975
 20
696.98025
 10
538.85025
 20
696.7785
 10
538.89
 20
696.37125
 10
539.0085
 20
695.97975
 10
539.20125
 20
695.61825
 10
539.46075
 20
695.30175
 10
539.77725
 20
695.04225
 10
540.13875
 20
694.8495
 10
540.1635
 20
694.842
 10
540.5309999999999
 20
694.73025
 10
540.93825
 20
694.68975
 10
541.146
 20
694.71
 10
541.3462500000001
 20
694.7295
 10
541.73775
 20
694.848
  0
LWPOLYLINE
  5
54
100
AcDbEntity
  8
profiling
  6
ByLayer
 62
  256
370
   -1
100
AcDbPolyline
 90
   35
 70
    1
 43
0
 10
493.27275
 20
633.1799999999999
 10
493.63425
 20
633.37275
 10
493.8045
 20
633.51225
 10
493.95075
 20
633.63225
 10
494.21025
 20
633.94875
 10
494.403
 20
634.31025
 10
494.5215
 20
634.7017499999999
 10
494.562
 20
635.109
 10
494.53275
 20
635.409
 10
494.52225
 20
635.5170000000001
 10
494.40375
 20
635.9085
 10
494.211
 20
636.27
 10
493.9515
 20
636.5865
 10
493.635
 20
636.846
 10
493.2735
 20
637.0387500000001
 10
492.882
 20
637.15725
 10
492.47475
 20
637.19775
 10
492.0675
 20
637.15725
 10
491.676
 20
637.0387500000001
 10
491.3145
 20
636.846
 10
490.998
 20
636.5865
 10
490.7385
 20
636.27
 10
490.54575
 20
635.9085
 10
490.42725
 20
635.5170000000001
 10
490.38675
 20
635.10975
 10
490.42725
 20
634.7025
 10
490.54575
 20
634.311
 10
490.7385
 20
633.9494999999999
 10
490.998
 20
633.633
 10
491.3145
 20
633.3735
 10
491.676
 20
633.18075
 10
492.0675
 20
633.0622499999999
 10
492.47475
 20
633.02175
 10
492.882
 20
633.0622499999999
 10
493.2735
 20
633.18075
  0
LWPOLYLINE
  5
55
100
AcDbEntity
  8
profiling
  6
ByLayer
 62
  256
370
   -1
100
AcDbPolyline
 90
   37
 70
    1
 43
0
 10
523.77825
 20
641.694
 10
523.833
 20
641.628
 10
524.0385
 20
641.3775000000001
 10
524.355
 20
641.1180000000001
 10
524.7165
 20
640.92525
 10
525.1079999999999
 20
640.80675
 10
525.3674999999999
 20
640.78125
 10
525.51525
 20
640.7670000000001
 10
525.9225
 20
640.8075
 10
526.314
 20
640.926
 10
526.6755000000001
 20
641.11875
 10
526.992
 20
641.37825
 10
527.2515
 20
641.69475
 10
527.44425
 20
642.05625
 10
527.44425
 20
642.05625
 10
527.499
 20
642.237
 10
527.5627500000001
 20
642.4485
 10
527.60325
 20
642.8557499999999
 10
527.5627500000001
 20
643.263
 10
527.44425
 20
643.6545
 10
527.2515
 20
644.01525
 10
526.992
 20
644.3317500000001
 10
526.6755000000001
 20
644.5912499999999
 10
526.314
 20
644.784
 10
525.9225
 20
644.9025
 10
525.51525
 20
644.943
 10
525.1079999999999
 20
644.9025
 10
524.7165
 20
644.784
 10
524.355
 20
644.5912499999999
 10
524.0385
 20
644.3317500000001
 10
523.779
 20
644.01525
 10
523.5862499999999
 20
643.6545
 10
523.46775
 20
643.263
 10
523.42725
 20
642.8557499999999
 10
523.46775
 20
642.4485
 10
523.5862499999999
 20
642.057
 10
523.779
 20
641.6955
  0
LWPOLYLINE
  5
56
100
AcDbEntity
  8
profiling
  6
ByLayer
 62
  256
370
   -1
100
AcDbPolyline
 90
   33
 70
    1
 43
0
 10
428.013
 20
643.125
 10
427.82025
 20
643.4857500000001
 10
427.56075
 20
643.80225
 10
427.24425
 20
644.06175
 10
426.8835
 20
644.2545
 10
426.49125
 20
644.373
 10
426.084
 20
644.4135
 10
425.67675
 20
644.373
 10
425.28525
 20
644.2545
 10
424.92375
 20
644.06175
 10
424.60725
 20
643.80225
 10
424.34775
 20
643.4857500000001
 10
424.155
 20
643.125
 10
424.0365
 20
642.73275
 10
423.996
 20
642.3255
 10
424.0365
 20
641.9182499999999
 10
424.155
 20
641.52675
 10
424.34775
 20
641.16525
 10
424.60725
 20
640.84875
 10
424.92375
 20
640.58925
 10
425.28525
 20
640.3964999999999
 10
425.67675
 20
640.27725
 10
426.084
 20
640.2375
 10
426.49125
 20
640.27725
 10
426.8835
 20
640.3964999999999
 10
427.24425
 20
640.58925
 10
427.56075
 20
640.84875
 10
427.82025
 20
641.16525
 10
428.013
 20
641.52675
 10
428.1315
 20
641.9182499999999
 10
428.172
 20
642.3255
 10
428.1315
 20
642.73275
 10
428.013
 20
643.125
  0
LWPOLYLINE
  5
57
100
AcDbEntity
  8
profiling
  6
ByLayer
 62
  256
370
   -1
100
AcDbPolyline
 90
   76
 70
    1
 43
0
 10
444.684
 20
705.4095
 10
444.78825
 20
705.39375
 10
444.98775
 20
705.384
 10
445.18725
 20
705.39375
 10
445.3845
 20
705.423
 10
445.578
 20
705.47175
 10
445.76625
 20
705.53925
 10
445.947
 20
705.6247499999999
 10
446.118
 20
705.7275
 10
446.2785
 20
705.846
 10
446.42625
 20
705.98025
 10
446.5605
 20
706.128
 10
446.679
 20
706.2885
 10
446.78175
 20
706.4595
 10
446.86725
 20
706.6395
 10
446.93475
 20
706.827
 10
446.9835
 20
707.0205
 10
446.9835
 20
707.022
 10
447.01275
 20
707.21775
 10
447.0225
 20
707.41725
 10
447.01275
 20
707.61675
 10
446.9835
 20
707.814
 10
446.93475
 20
708.0075000000001
 10
446.86725
 20
708.19575
 10
446.78175
 20
708.3765
 10
446.679
 20
708.5475
 10
446.5605
 20
708.708
 10
446.42625
 20
708.8557499999999
 10
446.2785
 20
708.99
 10
446.118
 20
709.10925
 10
445.947
 20
709.212
 10
445.76625
 20
709.2975
 10
445.578
 20
709.365
 10
445.3845
 20
709.4137500000001
 10
445.18725
 20
709.443
 10
444.98775
 20
709.45275
 10
444.78825
 20
709.443
 10
444.591
 20
709.4137500000001
 10
444.43725
 20
709.3755
 10
444.3975
 20
709.36575
 10
444.20925
 20
709.2982500000001
 10
444.0285
 20
709.21275
 10
443.8575
 20
709.11
 10
443.697
 20
708.99075
 10
443.54925
 20
708.8565
 10
443.415
 20
708.70875
 10
443.2965
 20
708.5482500000001
 10
443.19375
 20
708.37725
 10
443.139
 20
708.2625
 10
443.10825
 20
708.1972500000001
 10
443.04075
 20
708.009
 10
442.992
 20
707.8155
 10
442.97175
 20
707.6805000000001
 10
442.96275
 20
707.61825
 10
442.96275
 20
707.61825
 10
442.959
 20
707.5365
 10
442.953
 20
707.41875
 10
442.96275
 20
707.21925
 10
442.992
 20
707.022
 10
443.04075
 20
706.8285
 10
443.10825
 20
706.641
 10
443.19375
 20
706.46025
 10
443.2965
 20
706.28925
 10
443.415
 20
706.12875
 10
443.54925
 20
705.981
 10
443.625
 20
705.91275
 10
443.69775
 20
705.84675
 10
443.82825
 20
705.75
 10
443.8575
 20
705.72825
 10
443.8575
 20
705.72825
 10
444.0285
 20
705.6255
 10
444.20925
 20
705.54
 10
444.3975
 20
705.4725
 10
444.5235
 20
705.441
 10
444.591
 20
705.42375
 10
444.684
 20
705.41025
  0
ENDSEC
  0
SECTION
  2
OBJECTS
  0
DICTIONARY
  5
C
330
0
100
AcDbDictionary
281
    1
  3
ACAD_GROUP
350
D
  0
DICTIONARY
  5
D
330
C
100
AcDbDictionary
281
    1
  0
ENDSEC
  0
EOF
