999
dxfrw 0.6.3
  0
SECTION
  2
HEADER
  9
$ACADVER
  1
AC1021
  9
$DWGCODEPAGE
  3
ANSI_1252
  9
$INSBASE
 10
0
 20
0
 30
0
  9
$EXTMIN
 10
725.20125
 20
33.822
 30
0
  9
$EXTMAX
 10
938.3579999999999
 20
202.101
 30
0
  9
$LIMMIN
 10
0
 20
0
  9
$LIMMAX
 10
420
 20
297
  9
$ORTHOMODE
 70
    0
  9
$REGENMODE
 70
    1
  9
$FILLMODE
 70
    1
  9
$QTEXTMODE
 70
    0
  9
$MIRRTEXT
 70
    0
  9
$LTSCALE
 40
1
  9
$ATTMODE
 70
    0
  9
$TEXTSIZE
 40
2.5
  9
$TRACEWID
 40
15.68
  9
$TEXTSTYLE
  7
STANDARD
  9
$CLAYER
  8
0
  9
$CELTYPE
  6
BYLAYER
  9
$CECOLOR
 62
  256
  9
$CELTSCALE
 40
1
  9
$DISPSILH
 70
    0
  9
$DIMSCALE
 40
2.5
  9
$DIMASZ
 40
2.5
  9
$DIMEXO
 40
0.625
  9
$DIMDLI
 40
3.75
  9
$DIMRND
 40
0
  9
$DIMDLE
 40
0
  9
$DIMEXE
 40
1.25
  9
$DIMTP
 40
0
  9
$DIMTM
 40
0
  9
$DIMTXT
 40
2.5
  9
$DIMCEN
 40
2.5
  9
$DIMTSZ
 40
0
  9
$DIMTOL
 70
    0
  9
$DIMLIM
 70
    0
  9
$DIMTIH
 70
    0
  9
$DIMTOH
 70
    0
  9
$DIMSE1
 70
    0
  9
$DIMSE2
 70
    0
  9
$DIMTAD
 70
    1
  9
$DIMZIN
 70
    8
  9
$DIMBLK
  1

  9
$DIMASO
 70
    1
  9
$DIMSHO
 70
    1
  9
$DIMPOST
  1

  9
$DIMAPOST
  1

  9
$DIMALT
 70
    0
  9
$DIMALTD
 70
    3
  9
$DIMALTF
 40
0.03937
  9
$DIMLFAC
 40
1
  9
$DIMTOFL
 70
    1
  9
$DIMTVP
 40
0
  9
$DIMTIX
 70
    0
  9
$DIMSOXD
 70
    0
  9
$DIMSAH
 70
    0
  9
$DIMBLK1
  1

  9
$DIMBLK2
  1

  9
$DIMSTYLE
  2
Standard
  9
$DIMCLRD
 70
    0
  9
$DIMCLRE
 70
    0
  9
$DIMCLRT
 70
    0
  9
$DIMTFAC
 40
1
  9
$DIMGAP
 40
0.625
  9
$DIMJUST
 70
    0
  9
$DIMSD1
 70
    0
  9
$DIMSD2
 70
    0
  9
$DIMTOLJ
 70
    0
  9
$DIMTZIN
 70
    8
  9
$DIMALTZ
 70
    0
  9
$DIMALTTZ
 70
    0
  9
$DIMUPT
 70
    0
  9
$DIMDEC
 70
    2
  9
$DIMTDEC
 70
    2
  9
$DIMALTU
 70
    2
  9
$DIMALTTD
 70
    3
  9
$DIMTXSTY
  7
STANDARD
  9
$DIMAUNIT
 70
    0
  9
$DIMADEC
 70
    0
  9
$DIMALTRND
 40
0
  9
$DIMAZIN
 70
    0
  9
$DIMDSEP
 70
   44
  9
$DIMATFIT
 70
    3
  9
$DIMFRAC
 70
    0
  9
$DIMLDRBLK
  1
STANDARD
  9
$DIMLUNIT
 70
    2
  9
$DIMLWD
 70
   -2
  9
$DIMLWE
 70
   -2
  9
$DIMTMOVE
 70
    0
  9
$DIMFXL
 40
1
  9
$DIMFXLON
 70
    0
  9
$DIMJOGANG
 40
0.7854
  9
$DIMTFILL
 70
    0
  9
$DIMTFILLCLR
 70
    0
  9
$DIMARCSYM
 70
    0
  9
$DIMLTYPE
  6

  9
$DIMLTEX1
  6

  9
$DIMLTEX2
  6

  9
$LUNITS
 70
    2
  9
$LUPREC
 70
    4
  9
$SKETCHINC
 40
1
  9
$FILLETRAD
 40
0
  9
$AUNITS
 70
    0
  9
$AUPREC
 70
    2
  9
$MENU
  1
.
  9
$ELEVATION
 40
0
  9
$PELEVATION
 40
0
  9
$THICKNESS
 40
0
  9
$LIMCHECK
 70
    0
  9
$CHAMFERA
 40
0
  9
$CHAMFERB
 40
0
  9
$CHAMFERC
 40
0
  9
$CHAMFERD
 40
0
  9
$SKPOLY
 70
    0
  9
$USRTIMER
 70
    1
  9
$ANGBASE
 50
0
  9
$ANGDIR
 70
    0
  9
$PDMODE
 70
   34
  9
$PDSIZE
 40
0
  9
$PLINEWID
 40
0
  9
$SPLFRAME
 70
    0
  9
$SPLINETYPE
 70
    2
  9
$SPLINESEGS
 70
    8
  9
$HANDSEED
  5
20000
  9
$SURFTAB1
 70
    6
  9
$SURFTAB2
 70
    6
  9
$SURFTYPE
 70
    6
  9
$SURFU
 70
    6
  9
$SURFV
 70
    6
  9
$UCSBASE
  2

  9
$UCSNAME
  2

  9
$UCSORG
 10
0
 20
0
 30
0
  9
$UCSXDIR
 10
1
 20
0
 30
0
  9
$UCSYDIR
 10
0
 20
1
 30
0
  9
$UCSORTHOREF
  2

  9
$UCSORTHOVIEW
 70
    0
  9
$UCSORGTOP
 10
0
 20
0
 30
0
  9
$UCSORGBOTTOM
 10
0
 20
0
 30
0
  9
$UCSORGLEFT
 10
0
 20
0
 30
0
  9
$UCSORGRIGHT
 10
0
 20
0
 30
0
  9
$UCSORGFRONT
 10
0
 20
0
 30
0
  9
$UCSORGBACK
 10
0
 20
0
 30
0
  9
$PUCSBASE
  2

  9
$PUCSNAME
  2

  9
$PUCSORG
 10
0
 20
0
 30
0
  9
$PUCSXDIR
 10
1
 20
0
 30
0
  9
$PUCSYDIR
 10
0
 20
1
 30
0
  9
$PUCSORTHOREF
  2

  9
$PUCSORTHOVIEW
 70
    0
  9
$PUCSORGTOP
 10
0
 20
0
 30
0
  9
$PUCSORGBOTTOM
 10
0
 20
0
 30
0
  9
$PUCSORGLEFT
 10
0
 20
0
 30
0
  9
$PUCSORGRIGHT
 10
0
 20
0
 30
0
  9
$PUCSORGFRONT
 10
0
 20
0
 30
0
  9
$PUCSORGBACK
 10
0
 20
0
 30
0
  9
$USERI1
 70
    0
  9
$USERI2
 70
    0
  9
$USERI3
 70
    0
  9
$USERI4
 70
    0
  9
$USERI5
 70
    0
  9
$USERR1
 40
0
  9
$USERR2
 40
0
  9
$USERR3
 40
0
  9
$USERR4
 40
0
  9
$USERR5
 40
0
  9
$WORLDVIEW
 70
    1
  9
$SHADEDGE
 70
    3
  9
$SHADEDIF
 70
   70
  9
$TILEMODE
 70
    1
  9
$MAXACTVP
 70
   64
  9
$PINSBASE
 10
0
 20
0
 30
0
  9
$PLIMCHECK
 70
    0
  9
$PEXTMIN
 10
0
 20
0
 30
0
  9
$PEXTMAX
 10
0
 20
0
 30
0
  9
$GRIDMODE
 70
    0
  9
$SNAPSTYLE
 70
    0
  9
$PLIMMIN
 10
0
 20
0
  9
$PLIMMAX
 10
210
 20
297
  9
$UNITMODE
 70
    0
  9
$VISRETAIN
 70
    1
  9
$PLINEGEN
 70
    0
  9
$PSLTSCALE
 70
    1
  9
$TREEDEPTH
 70
 3020
  9
$CMLSTYLE
  2
Standard
  9
$CMLJUST
 70
    0
  9
$CMLSCALE
 40
20
  9
$PROXYGRAPHICS
 70
    1
  9
$MEASUREMENT
 70
    1
  9
$CELWEIGHT
370
   -1
  9
$ENDCAPS
280
    0
  9
$JOINSTYLE
280
    0
  9
$LWDISPLAY
290
    0
  9
$INSUNITS
 70
    4
  9
$HYPERLINKBASE
  1

  9
$STYLESHEET
  1

  9
$XEDIT
290
    1
  9
$CEPSNTYPE
380
    0
  9
$PSTYLEMODE
290
    1
  9
$EXTNAMES
290
    1
  9
$PSVPSCALE
 40
1
  9
$OLESTARTUP
290
    0
  9
$SORTENTS
280
  127
  9
$INDEXCTL
280
    0
  9
$HIDETEXT
280
    1
  9
$XCLIPFRAME
290
    0
  9
$HALOGAP
280
    0
  9
$OBSCOLOR
 70
  257
  9
$OBSLTYPE
280
    0
  9
$INTERSECTIONDISPLAY
280
    0
  9
$INTERSECTIONCOLOR
 70
  257
  9
$DIMASSOC
280
    1
  9
$PROJECTNAME
  1

  9
$CAMERADISPLAY
290
    0
  9
$LENSLENGTH
 40
50
  9
$CAMERAHEIGHT
 40
0
  9
$STEPSPERSEC
 40
2
  9
$STEPSIZE
 40
50
  9
$3DDWFPREC
 40
2
  9
$PSOLWIDTH
 40
5
  9
$PSOLHEIGHT
 40
80
  9
$LOFTANG1
 40
1.570796326794897
  9
$LOFTANG2
 40
1.570796326794897
  9
$LOFTMAG1
 40
0
  9
$LOFTMAG2
 40
0
  9
$LOFTPARAM
 70
    7
  9
$LOFTNORMALS
280
    1
  9
$LATITUDE
 40
1
  9
$LONGITUDE
 40
1
  9
$NORTHDIRECTION
 40
0
  9
$TIMEZONE
 70
-8000
  9
$LIGHTGLYPHDISPLAY
280
    1
  9
$TILEMODELIGHTSYNCH
280
    1
  9
$SOLIDHIST
280
    1
  9
$SHOWHIST
280
    1
  9
$DWFFRAME
280
    2
  9
$DGNFRAME
280
    0
  9
$REALWORLDSCALE
290
    1
  9
$INTERFERECOLOR
 62
    1
  9
$CSHADOW
280
    0
  9
$SHADOWPLANELOCATION
 40
0
  0
ENDSEC
  0
SECTION
  2
CLASSES
  0
ENDSEC
  0
SECTION
  2
TABLES
  0
TABLE
  2
VPORT
  5
8
330
0
100
AcDbSymbolTable
 70
    1
  0
VPORT
  5
31
330
2
100
AcDbSymbolTableRecord
100
AcDbViewportTableRecord
  2
*ACTIVE
 70
    0
 10
0
 20
0
 11
1
 21
1
 12
555.6383868452048
 22
115.3287477631993
 13
0
 23
0
 14
10
 24
10
 15
10
 25
10
 16
0
 26
0
 36
1
 17
0
 27
0
 37
0
 40
228.2492386125498
 41
2.46189917936694
 42
50
 43
0
 44
0
 50
0
 51
0
 71
    0
 72
  100
 73
    1
 74
    3
 75
    0
 76
    0
 77
    0
 78
    0
281
    0
 65
    1
110
0
120
0
130
0
111
1
121
0
131
0
112
0
122
1
132
0
 79
    0
146
0
348
10020
 60
    7
 61
    5
292
1
282
    1
141
0
142
0
 63
  250
421
3358443
  0
ENDTAB
  0
TABLE
  2
LTYPE
  5
5
330
0
100
AcDbSymbolTable
 70
    4
  0
LTYPE
  5
14
330
5
100
AcDbSymbolTableRecord
100
AcDbLinetypeTableRecord
  2
ByBlock
 70
    0
  3

 72
   65
 73
    0
 40
0
  0
LTYPE
  5
15
330
5
100
AcDbSymbolTableRecord
100
AcDbLinetypeTableRecord
  2
ByLayer
 70
    0
  3

 72
   65
 73
    0
 40
0
  0
LTYPE
  5
16
330
5
100
AcDbSymbolTableRecord
100
AcDbLinetypeTableRecord
  2
Continuous
 70
    0
  3
Solid line
 72
   65
 73
    0
 40
0
  0
LTYPE
  5
32
330
5
100
AcDbSymbolTableRecord
100
AcDbLinetypeTableRecord
  2
DOT
 70
    0
  3
Dot . . . . . . . . . . . . . . . . . . . . . .
 72
   65
 73
    2
 40
6.35
 49
0
 74
    0
 49
-6.35
 74
    0
  0
LTYPE
  5
33
330
5
100
AcDbSymbolTableRecord
100
AcDbLinetypeTableRecord
  2
DOTTINY
 70
    0
  3
Dot (.15x) .....................................
 72
   65
 73
    2
 40
0.9525
 49
0
 74
    0
 49
-0.9525
 74
    0
  0
LTYPE
  5
34
330
5
100
AcDbSymbolTableRecord
100
AcDbLinetypeTableRecord
  2
DOT2
 70
    0
  3
Dot (.5x) .....................................
 72
   65
 73
    2
 40
3.175
 49
0
 74
    0
 49
-3.175
 74
    0
  0
LTYPE
  5
35
330
5
100
AcDbSymbolTableRecord
100
AcDbLinetypeTableRecord
  2
DOTX2
 70
    0
  3
Dot (2x) .  .  .  .  .  .  .  .  .  .  .  .  .
 72
   65
 73
    2
 40
12.7
 49
0
 74
    0
 49
-12.7
 74
    0
  0
LTYPE
  5
36
330
5
100
AcDbSymbolTableRecord
100
AcDbLinetypeTableRecord
  2
DASHED
 70
    0
  3
Dashed _ _ _ _ _ _ _ _ _ _ _ _ _ _ _ _ _
 72
   65
 73
    2
 40
19.05
 49
12.7
 74
    0
 49
-6.35
 74
    0
  0
LTYPE
  5
37
330
5
100
AcDbSymbolTableRecord
100
AcDbLinetypeTableRecord
  2
DASHEDTINY
 70
    0
  3
Dashed (.15x) _ _ _ _ _ _ _ _ _ _ _ _ _ _ _ _ _
 72
   65
 73
    2
 40
2.8575
 49
1.905
 74
    0
 49
-0.9525
 74
    0
  0
LTYPE
  5
38
330
5
100
AcDbSymbolTableRecord
100
AcDbLinetypeTableRecord
  2
DASHED2
 70
    0
  3
Dashed (.5x) _ _ _ _ _ _ _ _ _ _ _ _ _ _ _ _ _
 72
   65
 73
    2
 40
9.524999999999999
 49
6.35
 74
    0
 49
-3.175
 74
    0
  0
LTYPE
  5
39
330
5
100
AcDbSymbolTableRecord
100
AcDbLinetypeTableRecord
  2
DASHEDX2
 70
    0
  3
Dashed (2x) ____  ____  ____  ____  ____  ___
 72
   65
 73
    2
 40
38.09999999999999
 49
25.4
 74
    0
 49
-12.7
 74
    0
  0
LTYPE
  5
3A
330
5
100
AcDbSymbolTableRecord
100
AcDbLinetypeTableRecord
  2
DASHDOT
 70
    0
  3
Dash dot __ . __ . __ . __ . __ . __ . __ . __
 72
   65
 73
    4
 40
25.4
 49
12.7
 74
    0
 49
-6.35
 74
    0
 49
0
 74
    0
 49
-6.35
 74
    0
  0
LTYPE
  5
3B
330
5
100
AcDbSymbolTableRecord
100
AcDbLinetypeTableRecord
  2
DASHDOTTINY
 70
    0
  3
Dash dot (.15x) _._._._._._._._._._._._._._._.
 72
   65
 73
    4
 40
3.81
 49
1.905
 74
    0
 49
-0.9525
 74
    0
 49
0
 74
    0
 49
-0.9525
 74
    0
  0
LTYPE
  5
3C
330
5
100
AcDbSymbolTableRecord
100
AcDbLinetypeTableRecord
  2
DASHDOT2
 70
    0
  3
Dash dot (.5x) _._._._._._._._._._._._._._._.
 72
   65
 73
    4
 40
12.7
 49
6.35
 74
    0
 49
-3.175
 74
    0
 49
0
 74
    0
 49
-3.175
 74
    0
  0
LTYPE
  5
3D
330
5
100
AcDbSymbolTableRecord
100
AcDbLinetypeTableRecord
  2
DASHDOTX2
 70
    0
  3
Dash dot (2x) ____  .  ____  .  ____  .  ___
 72
   65
 73
    4
 40
50.8
 49
25.4
 74
    0
 49
-12.7
 74
    0
 49
0
 74
    0
 49
-12.7
 74
    0
  0
LTYPE
  5
3E
330
5
100
AcDbSymbolTableRecord
100
AcDbLinetypeTableRecord
  2
DIVIDE
 70
    0
  3
Divide ____ . . ____ . . ____ . . ____ . . ____
 72
   65
 73
    6
 40
31.75
 49
12.7
 74
    0
 49
-6.35
 74
    0
 49
0
 74
    0
 49
-6.35
 74
    0
 49
0
 74
    0
 49
-6.35
 74
    0
  0
LTYPE
  5
3F
330
5
100
AcDbSymbolTableRecord
100
AcDbLinetypeTableRecord
  2
DIVIDETINY
 70
    0
  3
Divide (.15x) __..__..__..__..__..__..__..__.._
 72
   65
 73
    6
 40
4.7625
 49
1.905
 74
    0
 49
-0.9525
 74
    0
 49
0
 74
    0
 49
-0.9525
 74
    0
 49
0
 74
    0
 49
-0.9525
 74
    0
  0
LTYPE
  5
40
330
5
100
AcDbSymbolTableRecord
100
AcDbLinetypeTableRecord
  2
DIVIDE2
 70
    0
  3
Divide (.5x) __..__..__..__..__..__..__..__.._
 72
   65
 73
    6
 40
15.875
 49
6.35
 74
    0
 49
-3.175
 74
    0
 49
0
 74
    0
 49
-3.175
 74
    0
 49
0
 74
    0
 49
-3.175
 74
    0
  0
LTYPE
  5
41
330
5
100
AcDbSymbolTableRecord
100
AcDbLinetypeTableRecord
  2
DIVIDEX2
 70
    0
  3
Divide (2x) ________  .  .  ________  .  .  _
 72
   65
 73
    6
 40
63.5
 49
25.4
 74
    0
 49
-12.7
 74
    0
 49
0
 74
    0
 49
-12.7
 74
    0
 49
0
 74
    0
 49
-12.7
 74
    0
  0
LTYPE
  5
42
330
5
100
AcDbSymbolTableRecord
100
AcDbLinetypeTableRecord
  2
BORDER
 70
    0
  3
Border __ __ . __ __ . __ __ . __ __ . __ __ .
 72
   65
 73
    6
 40
44.45
 49
12.7
 74
    0
 49
-6.35
 74
    0
 49
12.7
 74
    0
 49
-6.35
 74
    0
 49
0
 74
    0
 49
-6.35
 74
    0
  0
LTYPE
  5
43
330
5
100
AcDbSymbolTableRecord
100
AcDbLinetypeTableRecord
  2
BORDERTINY
 70
    0
  3
Border (.15x) __.__.__.__.__.__.__.__.__.__.__.
 72
   65
 73
    6
 40
6.6675
 49
1.905
 74
    0
 49
-0.9525
 74
    0
 49
1.905
 74
    0
 49
-0.9525
 74
    0
 49
0
 74
    0
 49
-0.9525
 74
    0
  0
LTYPE
  5
44
330
5
100
AcDbSymbolTableRecord
100
AcDbLinetypeTableRecord
  2
BORDER2
 70
    0
  3
Border (.5x) __.__.__.__.__.__.__.__.__.__.__.
 72
   65
 73
    6
 40
22.225
 49
6.35
 74
    0
 49
-3.175
 74
    0
 49
6.35
 74
    0
 49
-3.175
 74
    0
 49
0
 74
    0
 49
-3.175
 74
    0
  0
LTYPE
  5
45
330
5
100
AcDbSymbolTableRecord
100
AcDbLinetypeTableRecord
  2
BORDERX2
 70
    0
  3
Border (2x) ____  ____  .  ____  ____  .  ___
 72
   65
 73
    6
 40
88.89999999999999
 49
25.4
 74
    0
 49
-12.7
 74
    0
 49
25.4
 74
    0
 49
-12.7
 74
    0
 49
0
 74
    0
 49
-12.7
 74
    0
  0
LTYPE
  5
46
330
5
100
AcDbSymbolTableRecord
100
AcDbLinetypeTableRecord
  2
CENTER
 70
    0
  3
Center ____ _ ____ _ ____ _ ____ _ ____ _ ____
 72
   65
 73
    4
 40
50.8
 49
31.75
 74
    0
 49
-6.35
 74
    0
 49
6.35
 74
    0
 49
-6.35
 74
    0
  0
LTYPE
  5
47
330
5
100
AcDbSymbolTableRecord
100
AcDbLinetypeTableRecord
  2
CENTERTINY
 70
    0
  3
Center (.15x) ___ _ ___ _ ___ _ ___ _ ___ _ ___
 72
   65
 73
    4
 40
7.619999999999999
 49
4.7625
 74
    0
 49
-0.9525
 74
    0
 49
0.9525
 74
    0
 49
-0.9525
 74
    0
  0
LTYPE
  5
48
330
5
100
AcDbSymbolTableRecord
100
AcDbLinetypeTableRecord
  2
CENTER2
 70
    0
  3
Center (.5x) ___ _ ___ _ ___ _ ___ _ ___ _ ___
 72
   65
 73
    4
 40
28.575
 49
19.05
 74
    0
 49
-3.175
 74
    0
 49
3.175
 74
    0
 49
-3.175
 74
    0
  0
LTYPE
  5
49
330
5
100
AcDbSymbolTableRecord
100
AcDbLinetypeTableRecord
  2
CENTERX2
 70
    0
  3
Center (2x) ________  __  ________  __  _____
 72
   65
 73
    4
 40
101.6
 49
63.5
 74
    0
 49
-12.7
 74
    0
 49
12.7
 74
    0
 49
-12.7
 74
    0
  0
ENDTAB
  0
TABLE
  2
LAYER
  5
2
330
0
100
AcDbSymbolTable
 70
    1
  0
LAYER
  5
10
330
2
100
AcDbSymbolTableRecord
100
AcDbLayerTableRecord
  2
0
 70
    0
 62
    7
  6
CONTINUOUS
370
   -3
390
F
  0
LAYER
  5
4A
330
2
100
AcDbSymbolTableRecord
100
AcDbLayerTableRecord
  2
pocket
 70
    0
 62
    4
  6
CONTINUOUS
370
    0
390
F
  0
LAYER
  5
4B
330
2
100
AcDbSymbolTableRecord
100
AcDbLayerTableRecord
  2
profiling
 70
    0
 62
    3
  6
CONTINUOUS
370
    0
390
F
  0
LAYER
  5
4C
330
2
100
AcDbSymbolTableRecord
100
AcDbLayerTableRecord
  2
vcut
 70
    0
 62
    6
  6
CONTINUOUS
370
    0
390
F
  0
ENDTAB
  0
TABLE
  2
STYLE
  5
3
330
0
100
AcDbSymbolTable
 70
    3
  0
STYLE
  5
4D
330
2
100
AcDbSymbolTableRecord
100
AcDbTextStyleTableRecord
  2
Standard
 70
    0
 40
0
 41
1
 50
0
 71
    0
 42
1
  3
txt
  4

  0
ENDTAB
  0
TABLE
  2
VIEW
  5
6
330
0
100
AcDbSymbolTable
 70
    0
  0
ENDTAB
  0
TABLE
  2
UCS
  5
7
330
0
100
AcDbSymbolTable
 70
    0
  0
ENDTAB
  0
TABLE
  2
APPID
  5
9
330
0
100
AcDbSymbolTable
 70
    1
  0
APPID
  5
12
330
9
100
AcDbSymbolTableRecord
100
AcDbRegAppTableRecord
  2
ACAD
 70
    0
  0
APPID
  5
4E
330
9
100
AcDbSymbolTableRecord
100
AcDbRegAppTableRecord
  2
LibreCad
 70
    0
  0
ENDTAB
  0
TABLE
  2
DIMSTYLE
  5
A
330
0
100
AcDbSymbolTable
 70
    1
100
AcDbDimStyleTable
 71
    1
  0
DIMSTYLE
105
4F
330
A
100
AcDbSymbolTableRecord
100
AcDbDimStyleTableRecord
  2
Standard
 70
    0
 40
1
 41
2.5
 42
0.625
 43
0.38
 44
1.25
 45
0
 46
0
 47
0
 48
0
 49
1
140
2.5
141
0.09
142
2.5
143
25.4
144
1
145
0
146
1
147
0.625
148
0
 71
    0
 72
    0
 73
    0
 74
    1
 75
    0
 76
    0
 77
    0
 78
    1
 79
    0
170
    0
171
    2
172
    0
173
    0
174
    0
175
    0
176
    0
177
    0
178
    0
179
    0
271
    2
272
    4
273
    2
274
    2
275
    0
276
    0
277
    2
278
    0
279
    0
280
    0
281
    0
282
    0
283
    1
284
    0
285
    0
286
    0
288
    0
289
    3
340
standard
341

371
   -2
372
   -2
  0
ENDTAB
  0
TABLE
  2
BLOCK_RECORD
  5
1
330
0
100
AcDbSymbolTable
 70
    2
  0
BLOCK_RECORD
  5
1F
330
1
100
AcDbSymbolTableRecord
100
AcDbBlockTableRecord
  2
*Model_Space
 70
    0
280
    1
281
    0
  0
BLOCK_RECORD
  5
1E
330
1
100
AcDbSymbolTableRecord
100
AcDbBlockTableRecord
  2
*Paper_Space
 70
    0
280
    1
281
    0
  0
ENDTAB
  0
ENDSEC
  0
SECTION
  2
BLOCKS
  0
BLOCK
  5
20
330
1F
100
AcDbEntity
  8
0
100
AcDbBlockBegin
  2
*Model_Space
 70
    0
 10
0
 20
0
 30
0
  3
*Model_Space
  1

  0
ENDBLK
  5
21
330
1F
100
AcDbEntity
  8
0
100
AcDbBlockEnd
  0
BLOCK
  5
1C
330
1B
100
AcDbEntity
  8
0
100
AcDbBlockBegin
  2
*Paper_Space
 70
    0
 10
0
 20
0
 30
0
  3
*Paper_Space
  1

  0
ENDBLK
  5
1D
330
1F
100
AcDbEntity
  8
0
100
AcDbBlockEnd
  0
ENDSEC
  0
SECTION
  2
ENTITIES
  0
LWPOLYLINE
  5
50
100
AcDbEntity
  8
vcut
  6
ByLayer
 62
  256
370
   -1
100
AcDbPolyline
 90
    2
 70
    0
 43
0
 10
931.7295
 20
131.67
 10
725.20125
 20
131.67
  0
LWPOLYLINE
  5
51
100
AcDbEntity
  8
vcut
  6
ByLayer
 62
  256
370
   -1
100
AcDbPolyline
 90
    2
 70
    0
 43
0
 10
931.7295
 20
104.253
 10
725.20125
 20
104.253
  0
LWPOLYLINE
  5
52
100
AcDbEntity
  8
profiling
  6
ByLayer
 62
  256
370
   -1
100
AcDbPolyline
 90
  127
 70
    1
 43
0
 10
758.32575
 20
49.65075
 10
758.32575
 20
49.65075
 10
758.32575
 20
49.65075
 10
755.30025
 20
50.01225
 10
755.30025
 20
50.01225
 10
755.30025
 20
50.01225
 10
752.32425
 20
50.463
 10
752.32425
 20
50.463
 10
749.40675
 20
51.20325
 10
749.40675
 20
51.20325
 10
749.40675
 20
51.20325
 10
749.40675
 20
51.20325
 10
746.5755
 20
52.22625
 10
746.5755
 20
52.22625
 10
746.5755
 20
52.22625
 10
743.85825
 20
53.5215
 10
743.85825
 20
53.5215
 10
743.85825
 20
53.5215
 10
743.85825
 20
53.5215
 10
741.28125
 20
55.077
 10
741.28125
 20
55.077
 10
738.86925
 20
56.87775
 10
738.86925
 20
56.87775
 10
738.86925
 20
56.87775
 10
738.86925
 20
56.87775
 10
736.64475
 20
58.9065
 10
736.64475
 20
58.9065
 10
734.63025
 20
61.143
 10
734.63025
 20
61.143
 10
734.63025
 20
61.143
 10
734.63025
 20
61.143
 10
732.8445
 20
63.56625
 10
732.8445
 20
63.56625
 10
731.30475
 20
66.15300000000001
 10
731.30475
 20
66.15300000000001
 10
731.30475
 20
66.15300000000001
 10
731.30475
 20
66.15300000000001
 10
730.026
 20
68.8785
 10
730.026
 20
68.8785
 10
730.026
 20
68.8785
 10
729.021
 20
71.71575
 10
729.021
 20
71.71575
 10
728.29875
 20
74.63849999999999
 10
728.29875
 20
74.63849999999999
 10
728.29875
 20
74.63849999999999
 10
727.866
 20
77.61750000000001
 10
727.866
 20
77.61750000000001
 10
727.866
 20
77.61750000000001
 10
725.574
 20
101.6595
 10
725.202
 20
105.55875
 10
725.202
 20
105.55875
 10
725.202
 20
105.55875
 10
725.202
 20
130.365
 10
725.202
 20
130.365
 10
725.202
 20
130.365
 10
725.574
 20
134.26425
 10
727.86675
 20
158.30625
 10
727.86675
 20
158.30625
 10
727.86675
 20
158.30625
 10
728.2995
 20
161.28525
 10
728.2995
 20
161.28525
 10
728.2995
 20
161.28525
 10
729.02175
 20
164.208
 10
729.02175
 20
164.208
 10
730.02675
 20
167.04525
 10
730.02675
 20
167.04525
 10
730.02675
 20
167.04525
 10
731.3055000000001
 20
169.77075
 10
731.3055000000001
 20
169.77075
 10
731.3055000000001
 20
169.77075
 10
731.3055000000001
 20
169.77075
 10
732.84525
 20
172.3575
 10
732.84525
 20
172.3575
 10
734.631
 20
174.78075
 10
734.631
 20
174.78075
 10
734.631
 20
174.78075
 10
734.631
 20
174.78075
 10
734.631
 20
174.78075
 10
734.631
 20
174.78075
 10
736.6455
 20
177.01725
 10
736.6455
 20
177.01725
 10
738.87
 20
179.046
 10
738.87
 20
179.046
 10
738.87
 20
179.046
 10
738.87
 20
179.046
 10
741.282
 20
180.84675
 10
741.282
 20
180.84675
 10
743.859
 20
182.40225
 10
743.859
 20
182.40225
 10
743.859
 20
182.40225
 10
743.859
 20
182.40225
 10
746.57625
 20
183.6975
 10
746.57625
 20
183.6975
 10
746.57625
 20
183.6975
 10
746.57625
 20
183.6975
 10
749.4075
 20
184.7205
 10
749.4075
 20
184.7205
 10
749.4075
 20
184.7205
 10
752.325
 20
185.46075
 10
752.325
 20
185.46075
 10
752.325
 20
185.46075
 10
755.30175
 20
185.9115
 10
755.30175
 20
185.9115
 10
755.30175
 20
185.9115
 10
758.32725
 20
186.273
 10
758.32725
 20
186.273
 10
758.32725
 20
186.273
 10
761.37825
 20
186.59775
 10
761.37825
 20
186.59775
 10
761.37825
 20
186.59775
 10
938.3579999999999
 20
202.101
 10
938.3579999999999
 20
202.101
 10
938.3579999999999
 20
202.101
 10
938.3579999999999
 20
202.101
 10
931.89
 20
134.2635
 10
931.518
 20
130.36425
 10
931.518
 20
105.55875
 10
931.89
 20
101.6595
 10
938.3579999999999
 20
33.822
 10
938.3579999999999
 20
33.822
 10
938.3579999999999
 20
33.822
 10
938.3579999999999
 20
33.822
 10
938.3579999999999
 20
33.822
 10
761.37825
 20
49.32525
 10
761.37825
 20
49.32525
 10
761.37825
 20
49.32525
 10
758.32725
 20
49.65
  0
LWPOLYLINE
  5
53
100
AcDbEntity
  8
profiling
  6
ByLayer
 62
  256
370
   -1
100
AcDbPolyline
 90
   33
 70
    1
 43
0
 10
799.78725
 20
179.56275
 10
800.1660000000001
 20
179.4075
 10
800.568
 20
179.32875
 10
800.9775
 20
179.33025
 10
801.37875
 20
179.41125
 10
801.75675
 20
179.56875
 10
802.0965
 20
179.7975
 10
802.38525
 20
180.08775
 10
802.61175
 20
180.429
 10
802.7670000000001
 20
180.80775
 10
802.84575
 20
181.20975
 10
802.84425
 20
181.61925
 10
802.76325
 20
182.0205
 10
802.605
 20
182.3985
 10
802.37625
 20
182.73825
 10
802.086
 20
183.027
 10
801.74475
 20
183.2535
 10
801.366
 20
183.40875
 10
800.9640000000001
 20
183.4875
 10
800.5545
 20
183.486
 10
800.15325
 20
183.405
 10
799.77525
 20
183.2475
 10
799.4355
 20
183.01875
 10
799.14675
 20
182.7285
 10
798.92025
 20
182.38725
 10
798.765
 20
182.0085
 10
798.68625
 20
181.6065
 10
798.6877500000001
 20
181.197
 10
798.76875
 20
180.79575
 10
798.92625
 20
180.41775
 10
799.155
 20
180.078
 10
799.44525
 20
179.78925
 10
799.7865
 20
179.56275
  0
LWPOLYLINE
  5
54
100
AcDbEntity
  8
profiling
  6
ByLayer
 62
  256
370
   -1
100
AcDbPolyline
 90
   33
 70
    1
 43
0
 10
921.8122499999999
 20
94.24424999999999
 10
921.2497499999999
 20
93.68474999999999
 10
920.80725
 20
93.02625
 10
920.50125
 20
92.29425000000001
 10
920.34375
 20
91.51649999999999
 10
920.3415
 20
90.723
 10
920.49375
 20
89.94450000000001
 10
920.79525
 20
89.21025
 10
921.234
 20
88.54949999999999
 10
921.7935
 20
87.98699999999999
 10
922.452
 20
87.5445
 10
923.184
 20
87.2385
 10
923.9617500000001
 20
87.081
 10
924.75525
 20
87.07875
 10
925.5337500000001
 20
87.23099999999999
 10
926.268
 20
87.5325
 10
926.92875
 20
87.97125
 10
927.49125
 20
88.53075
 10
927.93375
 20
89.18925
 10
928.23975
 20
89.92125
 10
928.39725
 20
90.699
 10
928.3995
 20
91.49250000000001
 10
928.24725
 20
92.271
 10
927.94575
 20
93.00525
 10
927.5069999999999
 20
93.666
 10
926.9475
 20
94.2285
 10
926.289
 20
94.67100000000001
 10
925.557
 20
94.977
 10
924.77925
 20
95.1345
 10
923.9857500000001
 20
95.13675000000001
 10
923.20725
 20
94.9845
 10
922.473
 20
94.68300000000001
 10
921.8122499999999
 20
94.24424999999999
  0
LWPOLYLINE
  5
55
100
AcDbEntity
  8
profiling
  6
ByLayer
 62
  256
370
   -1
100
AcDbPolyline
 90
   37
 70
    1
 43
0
 10
924.63825
 20
45.6555
 10
924.7905
 20
44.877
 10
925.092
 20
44.14275
 10
925.53075
 20
43.482
 10
926.09025
 20
42.9195
 10
926.74875
 20
42.477
 10
927.4807499999999
 20
42.171
 10
928.2585
 20
42.0135
 10
929.052
 20
42.01125
 10
929.8305
 20
42.1635
 10
930.56475
 20
42.465
 10
931.2255
 20
42.90375
 10
931.788
 20
43.46325
 10
932.2305
 20
44.12175
 10
932.5365
 20
44.85375
 10
932.694
 20
45.6315
 10
932.69625
 20
46.425
 10
932.544
 20
47.2035
 10
932.2424999999999
 20
47.93775
 10
931.80375
 20
48.5985
 10
931.24425
 20
49.161
 10
930.58575
 20
49.6035
 10
929.85375
 20
49.9095
 10
929.076
 20
50.067
 10
928.905
 20
50.06775
 10
928.2825
 20
50.07
 10
927.72675
 20
49.96125
 10
927.504
 20
49.91775
 10
927.111
 20
49.7565
 10
926.76975
 20
49.61625
 10
926.448
 20
49.4025
 10
926.10825
 20
49.1775
 10
925.54575
 20
48.618
 10
925.10325
 20
47.9595
 10
924.79725
 20
47.2275
 10
924.63975
 20
46.44975
 10
924.6375
 20
45.65625
  0
LWPOLYLINE
  5
56
100
AcDbEntity
  8
profiling
  6
ByLayer
 62
  256
370
   -1
100
AcDbPolyline
 90
   36
 70
    1
 43
0
 10
802.37625
 20
53.18625
 10
802.605
 20
53.526
 10
802.7625
 20
53.904
 10
802.8434999999999
 20
54.30525
 10
802.845
 20
54.71475
 10
802.76625
 20
55.11675
 10
802.611
 20
55.4955
 10
802.3845
 20
55.83675
 10
802.09575
 20
56.127
 10
801.756
 20
56.35575
 10
801.378
 20
56.514
 10
800.97675
 20
56.595
 10
800.5672499999999
 20
56.5965
 10
800.16525
 20
56.51775
 10
799.7865
 20
56.3625
 10
799.44525
 20
56.136
 10
799.155
 20
55.84725
 10
798.92625
 20
55.5075
 10
798.76875
 20
55.1295
 10
798.6877500000001
 20
54.72825
 10
798.687
 20
54.522
 10
798.68625
 20
54.31875
 10
798.7155
 20
54.1695
 10
798.765
 20
53.91675
 10
798.92025
 20
53.538
 10
799.14675
 20
53.19675
 10
799.4355
 20
52.9065
 10
799.77525
 20
52.67775
 10
799.94775
 20
52.60575
 10
800.15325
 20
52.52025
 10
800.5545
 20
52.43925
 10
800.9640000000001
 20
52.43775
 10
801.366
 20
52.5165
 10
801.74475
 20
52.67175
 10
802.086
 20
52.89825
 10
802.37625
 20
53.187
  0
LWPOLYLINE
  5
57
100
AcDbEntity
  8
profiling
  6
ByLayer
 62
  256
370
   -1
100
AcDbPolyline
 90
   35
 70
    1
 43
0
 10
841.4715
 20
50.3055
 10
841.62675
 20
49.92675
 10
841.85325
 20
49.5855
 10
842.1420000000001
 20
49.29525
 10
842.48175
 20
49.0665
 10
842.85975
 20
48.90825
 10
843.261
 20
48.82725
 10
843.6704999999999
 20
48.82575
 10
844.0725
 20
48.9045
 10
844.45125
 20
49.05975
 10
844.7925
 20
49.28625
 10
845.08275
 20
49.575
 10
845.3115
 20
49.91475
 10
845.46975
 20
50.29275
 10
845.55075
 20
50.694
 10
845.55225
 20
51.1035
 10
845.4734999999999
 20
51.5055
 10
845.38725
 20
51.71475
 10
845.3175
 20
51.88425
 10
845.253
 20
51.98175
 10
845.091
 20
52.2255
 10
844.80225
 20
52.51575
 10
844.4625
 20
52.7445
 10
844.0845
 20
52.902
 10
843.68325
 20
52.983
 10
843.2737499999999
 20
52.9845
 10
842.87175
 20
52.90575
 10
842.4930000000001
 20
52.7505
 10
842.15175
 20
52.524
 10
841.8615
 20
52.23525
 10
841.63275
 20
51.8955
 10
841.47525
 20
51.5175
 10
841.3942500000001
 20
51.11625
 10
841.39275
 20
50.70675
 10
841.4715
 20
50.30475
  0
LWPOLYLINE
  5
58
100
AcDbEntity
  8
profiling
  6
ByLayer
 62
  256
370
   -1
100
AcDbPolyline
 90
   33
 70
    1
 43
0
 10
734.5755
 20
98.98650000000001
 10
734.1735
 20
98.90774999999999
 10
733.79475
 20
98.7525
 10
733.4535
 20
98.526
 10
733.1632499999999
 20
98.23725
 10
732.9345
 20
97.89749999999999
 10
732.77625
 20
97.51949999999999
 10
732.69525
 20
97.11825
 10
732.69375
 20
96.70874999999999
 10
732.7725
 20
96.30674999999999
 10
732.9277499999999
 20
95.928
 10
733.15425
 20
95.58674999999999
 10
733.443
 20
95.29649999999999
 10
733.78275
 20
95.06775
 10
734.16075
 20
94.91025
 10
734.562
 20
94.82925
 10
734.9715
 20
94.82774999999999
 10
735.3735
 20
94.90649999999999
 10
735.75225
 20
95.06175
 10
736.0934999999999
 20
95.28825000000001
 10
736.38375
 20
95.577
 10
736.6125
 20
95.91674999999999
 10
736.77
 20
96.29474999999999
 10
736.851
 20
96.696
 10
736.8525
 20
97.10550000000001
 10
736.7737499999999
 20
97.50749999999999
 10
736.6185
 20
97.88625
 10
736.3920000000001
 20
98.22750000000001
 10
736.10325
 20
98.51775000000001
 10
735.7635
 20
98.7465
 10
735.3855
 20
98.904
 10
734.98425
 20
98.985
 10
734.57475
 20
98.98650000000001
  0
LWPOLYLINE
  5
59
100
AcDbEntity
  8
profiling
  6
ByLayer
 62
  256
370
   -1
100
AcDbPolyline
 90
   41
 70
    1
 43
0
 10
760.569
 20
87.35850000000001
 10
760.443
 20
86.73675
 10
760.44075
 20
86.10225
 10
760.8194999999999
 20
82.12649999999999
 10
760.8825000000001
 20
81.46575
 10
760.8885
 20
81.40125
 10
761.01
 20
80.77875
 10
761.25075
 20
80.1915
 10
761.60175
 20
79.66275
 10
762.04875
 20
79.21275
 10
762.3045
 20
79.041
 10
762.57525
 20
78.85875
 10
763.1609999999999
 20
78.61425
 10
763.47225
 20
78.55125
 10
763.7835
 20
78.48824999999999
 10
764.418
 20
78.486
 10
764.823
 20
78.5655
 10
765.04125
 20
78.60825
 10
765.6285
 20
78.849
 10
766.15725
 20
79.2
 10
766.60725
 20
79.64700000000001
 10
766.9612499999999
 20
80.1735
 10
767.20575
 20
80.75924999999999
 10
767.3317500000001
 20
81.381
 10
767.3325
 20
81.6015
 10
767.3339999999999
 20
82.0155
 10
766.8855
 20
86.7165
 10
766.764
 20
87.339
 10
766.52325
 20
87.92625
 10
766.17225
 20
88.455
 10
765.72525
 20
88.905
 10
765.19875
 20
89.259
 10
764.6130000000001
 20
89.5035
 10
763.99125
 20
89.62949999999999
 10
763.35675
 20
89.63175
 10
762.73425
 20
89.5095
 10
762.147
 20
89.26875
 10
761.61825
 20
88.91775
 10
761.1682499999999
 20
88.47075
 10
760.81425
 20
87.94425
 10
760.56975
 20
87.35850000000001
  0
LWPOLYLINE
  5
5A
100
AcDbEntity
  8
profiling
  6
ByLayer
 62
  256
370
   -1
100
AcDbPolyline
 90
   41
 70
    1
 43
0
 10
745.818
 20
62.67075
 10
746.22
 20
62.7495
 10
746.59875
 20
62.90475
 10
746.901
 20
63.105
 10
746.9400000000001
 20
63.13125
 10
747.23025
 20
63.42
 10
747.4215
 20
63.70425
 10
747.4589999999999
 20
63.75975
 10
747.492
 20
63.8385
 10
747.61725
 20
64.13775
 10
747.69825
 20
64.539
 10
747.69825
 20
64.64700000000001
 10
747.699
 20
64.9485
 10
747.65175
 20
65.19
 10
747.6202500000001
 20
65.3505
 10
747.465
 20
65.72924999999999
 10
747.2385
 20
66.0705
 10
747.17925
 20
66.1305
 10
746.94975
 20
66.36150000000001
 10
746.61
 20
66.59025
 10
746.232
 20
66.74775
 10
745.83075
 20
66.82875
 10
745.42125
 20
66.83025000000001
 10
745.0192500000001
 20
66.75149999999999
 10
744.6405
 20
66.59625
 10
744.29925
 20
66.36975
 10
744.0975
 20
66.1695
 10
744.00825
 20
66.081
 10
743.7795
 20
65.74124999999999
 10
743.622
 20
65.36324999999999
 10
743.5410000000001
 20
64.962
 10
743.5395
 20
64.55249999999999
 10
743.61825
 20
64.15049999999999
 10
743.7735
 20
63.77175
 10
743.84925
 20
63.65775
 10
744
 20
63.4305
 10
744.2887500000001
 20
63.14025
 10
744.6285
 20
62.9115
 10
745.0065
 20
62.754
 10
745.40775
 20
62.673
 10
745.8172499999999
 20
62.6715
  0
LWPOLYLINE
  5
5B
100
AcDbEntity
  8
profiling
  6
ByLayer
 62
  256
370
   -1
100
AcDbPolyline
 90
   37
 70
    1
 43
0
 10
888.24375
 20
46.68375
 10
888.2745
 20
46.83525
 10
888.276
 20
47.24475
 10
888.1972500000001
 20
47.64675
 10
888.042
 20
48.0255
 10
887.8155
 20
48.36675
 10
887.52675
 20
48.657
 10
887.187
 20
48.88575
 10
887.115
 20
48.91575
 10
886.809
 20
49.04325
 10
886.40775
 20
49.12425
 10
886.0627500000001
 20
49.125
 10
885.99825
 20
49.125
 10
885.5962500000001
 20
49.04625
 10
885.2175
 20
48.891
 10
884.87625
 20
48.6645
 10
884.586
 20
48.37575
 10
884.35725
 20
48.036
 10
884.199
 20
47.658
 10
884.1180000000001
 20
47.25675
 10
884.1165
 20
46.84725
 10
884.19525
 20
46.44525
 10
884.3505
 20
46.0665
 10
884.577
 20
45.72525
 10
884.86575
 20
45.435
 10
885.2055
 20
45.20625
 10
885.5835
 20
45.04875
 10
885.98475
 20
44.96775
 10
886.3942500000001
 20
44.96625
 10
886.79625
 20
45.045
 10
887.175
 20
45.20025
 10
887.51625
 20
45.42675
 10
887.8065
 20
45.7155
 10
888.03525
 20
46.05525
 10
888.1935
 20
46.43325
 10
888.24375
 20
46.683
 10
888.24375
 20
46.683
  0
LWPOLYLINE
  5
5C
100
AcDbEntity
  8
profiling
  6
ByLayer
 62
  256
370
   -1
100
AcDbPolyline
 90
   36
 70
    1
 43
0
 10
746.23275
 20
169.17675
 10
746.6107500000001
 20
169.33425
 10
746.9505
 20
169.563
 10
747.23925
 20
169.85325
 10
747.46575
 20
170.1945
 10
747.621
 20
170.57325
 10
747.639
 20
170.66475
 10
747.69975
 20
170.97525
 10
747.69825
 20
171.38475
 10
747.61725
 20
171.786
 10
747.4589999999999
 20
172.164
 10
747.23025
 20
172.50375
 10
746.9400000000001
 20
172.7925
 10
746.59875
 20
173.019
 10
746.22
 20
173.17425
 10
745.818
 20
173.253
 10
745.7535
 20
173.253
 10
745.4085
 20
173.25225
 10
745.2075
 20
173.21175
 10
745.0065
 20
173.17125
 10
744.6285
 20
173.01375
 10
744.2887500000001
 20
172.785
 10
744
 20
172.49475
 10
743.7735
 20
172.1535
 10
743.61825
 20
171.77475
 10
743.5395
 20
171.37275
 10
743.5410000000001
 20
170.96325
 10
743.622
 20
170.562
 10
743.7795
 20
170.184
 10
744.00825
 20
169.84425
 10
744.2985
 20
169.5555
 10
744.63975
 20
169.329
 10
745.0185
 20
169.17375
 10
745.4204999999999
 20
169.095
 10
745.83
 20
169.0965
 10
746.23125
 20
169.1775
  0
LWPOLYLINE
  5
5D
100
AcDbEntity
  8
profiling
  6
ByLayer
 62
  256
370
   -1
100
AcDbPolyline
 90
   39
 70
    1
 43
0
 10
885.12675
 20
187.092
 10
885.2175
 20
187.032
 10
885.5962500000001
 20
186.87675
 10
885.8752500000001
 20
186.822
 10
885.99825
 20
186.798
 10
886.40775
 20
186.7995
 10
886.809
 20
186.8805
 10
887.187
 20
187.038
 10
887.52675
 20
187.26675
 10
887.8155
 20
187.557
 10
888.042
 20
187.89825
 10
888.1972500000001
 20
188.277
 10
888.276
 20
188.679
 10
888.2745
 20
189.0885
 10
888.1935
 20
189.48975
 10
888.0359999999999
 20
189.86775
 10
887.80725
 20
190.2075
 10
887.5170000000001
 20
190.49625
 10
887.4825
 20
190.51875
 10
887.17575
 20
190.72275
 10
887.0085
 20
190.79175
 10
886.797
 20
190.87875
 10
886.395
 20
190.9575
 10
885.9855
 20
190.956
 10
885.58425
 20
190.875
 10
885.20625
 20
190.7175
 10
884.9565
 20
190.5495
 10
884.8665
 20
190.48875
 10
884.57775
 20
190.1985
 10
884.3512500000001
 20
189.85725
 10
884.196
 20
189.4785
 10
884.11725
 20
189.0765
 10
884.11875
 20
188.667
 10
884.19975
 20
188.26575
 10
884.3579999999999
 20
187.88775
 10
884.529
 20
187.6335
 10
884.5867500000001
 20
187.548
 10
884.877
 20
187.25925
 10
885.1275000000001
 20
187.09275
  0
LWPOLYLINE
  5
5E
100
AcDbEntity
  8
profiling
  6
ByLayer
 62
  256
370
   -1
100
AcDbPolyline
 90
   36
 70
    1
 43
0
 10
842.232
 20
183.3465
 10
842.49375
 20
183.17325
 10
842.8724999999999
 20
183.018
 10
843.2745
 20
182.93925
 10
843.684
 20
182.94075
 10
844.08525
 20
183.02175
 10
844.46325
 20
183.17925
 10
844.803
 20
183.408
 10
845.09175
 20
183.69825
 10
845.22075
 20
183.8925
 10
845.31825
 20
184.0395
 10
845.4734999999999
 20
184.41825
 10
845.4952500000001
 20
184.53075
 10
845.5515
 20
184.82025
 10
845.55
 20
185.22975
 10
845.4690000000001
 20
185.631
 10
845.31075
 20
186.009
 10
845.082
 20
186.34875
 10
844.79175
 20
186.6375
 10
844.4505
 20
186.864
 10
844.07175
 20
187.01925
 10
843.66975
 20
187.098
 10
843.26025
 20
187.0965
 10
842.859
 20
187.0155
 10
842.481
 20
186.858
 10
842.14125
 20
186.62925
 10
841.8525
 20
186.339
 10
841.626
 20
185.99775
 10
841.47075
 20
185.619
 10
841.3920000000001
 20
185.217
 10
841.3935
 20
184.8075
 10
841.4745
 20
184.40625
 10
841.6319999999999
 20
184.02825
 10
841.8607500000001
 20
183.6885
 10
842.151
 20
183.39975
 10
842.2305
 20
183.34725
  0
LWPOLYLINE
  5
5F
100
AcDbEntity
  8
profiling
  6
ByLayer
 62
  256
370
   -1
100
AcDbPolyline
 90
   36
 70
    1
 43
0
 10
932.53575
 20
191.0715
 10
932.22975
 20
191.8035
 10
931.78725
 20
192.462
 10
931.22475
 20
193.0215
 10
930.564
 20
193.46025
 10
929.82975
 20
193.76175
 10
929.05125
 20
193.914
 10
928.626
 20
193.9125
 10
928.25775
 20
193.911
 10
927.48
 20
193.7535
 10
926.748
 20
193.4475
 10
926.0895
 20
193.005
 10
925.53
 20
192.4425
 10
925.0912499999999
 20
191.78175
 10
925.002
 20
191.56425
 10
924.78975
 20
191.0475
 10
924.6375
 20
190.269
 10
924.63975
 20
189.4755
 10
924.79725
 20
188.69775
 10
925.10325
 20
187.96575
 10
925.54575
 20
187.30725
 10
926.10825
 20
186.74775
 10
926.769
 20
186.309
 10
927.50325
 20
186.0075
 10
927.56625
 20
185.9955
 10
928.2825
 20
185.85525
 10
929.076
 20
185.8575
 10
929.85375
 20
186.015
 10
930.58575
 20
186.321
 10
931.24425
 20
186.7635
 10
931.80375
 20
187.326
 10
932.2424999999999
 20
187.98675
 10
932.544
 20
188.721
 10
932.69625
 20
189.4995
 10
932.694
 20
190.293
 10
932.5365
 20
191.07075
  0
LWPOLYLINE
  5
60
100
AcDbEntity
  8
profiling
  6
ByLayer
 62
  256
370
   -1
100
AcDbPolyline
 90
   34
 70
    1
 43
0
 10
923.985
 20
140.78775
 10
924.7785
 20
140.79
 10
925.55625
 20
140.9475
 10
926.2882499999999
 20
141.2535
 10
926.94675
 20
141.696
 10
927.50625
 20
142.2585
 10
927.9450000000001
 20
142.91925
 10
928.2465
 20
143.6535
 10
928.3987499999999
 20
144.432
 10
928.3964999999999
 20
145.2255
 10
928.239
 20
146.00325
 10
927.933
 20
146.73525
 10
927.4905
 20
147.39375
 10
926.928
 20
147.95325
 10
926.26725
 20
148.392
 10
925.533
 20
148.6935
 10
924.7545
 20
148.84575
 10
923.961
 20
148.8435
 10
923.18325
 20
148.686
 10
922.45125
 20
148.38
 10
921.79275
 20
147.9375
 10
921.23325
 20
147.375
 10
920.7945
 20
146.71425
 10
920.4930000000001
 20
145.98
 10
920.34075
 20
145.2015
 10
920.343
 20
144.408
 10
920.5005
 20
143.63025
 10
920.8065
 20
142.89825
 10
921.249
 20
142.23975
 10
921.6675
 20
141.82425
 10
921.8115
 20
141.681
 10
922.47225
 20
141.24225
 10
923.2065
 20
140.94075
 10
923.985
 20
140.7885
  0
ENDSEC
  0
SECTION
  2
OBJECTS
  0
DICTIONARY
  5
C
330
0
100
AcDbDictionary
281
    1
  3
ACAD_GROUP
350
D
  0
DICTIONARY
  5
D
330
C
100
AcDbDictionary
281
    1
  0
ENDSEC
  0
EOF
