999
dxfrw 0.6.3
  0
SECTION
  2
HEADER
  9
$ACADVER
  1
AC1021
  9
$DWGCODEPAGE
  3
ANSI_1252
  9
$INSBASE
 10
0
 20
0
 30
0
  9
$EXTMIN
 10
413.9445
 20
329.43075
 30
0
  9
$EXTMAX
 10
548.4585
 20
414.648
 30
0
  9
$LIMMIN
 10
0
 20
0
  9
$LIMMAX
 10
420
 20
297
  9
$ORTHOMODE
 70
    0
  9
$REGENMODE
 70
    1
  9
$FILLMODE
 70
    1
  9
$QTEXTMODE
 70
    0
  9
$MIRRTEXT
 70
    0
  9
$LTSCALE
 40
1
  9
$ATTMODE
 70
    0
  9
$TEXTSIZE
 40
2.5
  9
$TRACEWID
 40
15.68
  9
$TEXTSTYLE
  7
STANDARD
  9
$CLAYER
  8
pocket-1.25mm
  9
$CELTYPE
  6
BYLAYER
  9
$CECOLOR
 62
  256
  9
$CELTSCALE
 40
1
  9
$DISPSILH
 70
    0
  9
$DIMSCALE
 40
2.5
  9
$DIMASZ
 40
2.5
  9
$DIMEXO
 40
0.625
  9
$DIMDLI
 40
3.75
  9
$DIMRND
 40
0
  9
$DIMDLE
 40
0
  9
$DIMEXE
 40
1.25
  9
$DIMTP
 40
0
  9
$DIMTM
 40
0
  9
$DIMTXT
 40
2.5
  9
$DIMCEN
 40
2.5
  9
$DIMTSZ
 40
0
  9
$DIMTOL
 70
    0
  9
$DIMLIM
 70
    0
  9
$DIMTIH
 70
    0
  9
$DIMTOH
 70
    0
  9
$DIMSE1
 70
    0
  9
$DIMSE2
 70
    0
  9
$DIMTAD
 70
    1
  9
$DIMZIN
 70
    8
  9
$DIMBLK
  1

  9
$DIMASO
 70
    1
  9
$DIMSHO
 70
    1
  9
$DIMPOST
  1

  9
$DIMAPOST
  1

  9
$DIMALT
 70
    0
  9
$DIMALTD
 70
    3
  9
$DIMALTF
 40
0.03937
  9
$DIMLFAC
 40
1
  9
$DIMTOFL
 70
    1
  9
$DIMTVP
 40
0
  9
$DIMTIX
 70
    0
  9
$DIMSOXD
 70
    0
  9
$DIMSAH
 70
    0
  9
$DIMBLK1
  1

  9
$DIMBLK2
  1

  9
$DIMSTYLE
  2
Standard
  9
$DIMCLRD
 70
    0
  9
$DIMCLRE
 70
    0
  9
$DIMCLRT
 70
    0
  9
$DIMTFAC
 40
1
  9
$DIMGAP
 40
0.625
  9
$DIMJUST
 70
    0
  9
$DIMSD1
 70
    0
  9
$DIMSD2
 70
    0
  9
$DIMTOLJ
 70
    0
  9
$DIMTZIN
 70
    8
  9
$DIMALTZ
 70
    0
  9
$DIMALTTZ
 70
    0
  9
$DIMUPT
 70
    0
  9
$DIMDEC
 70
    2
  9
$DIMTDEC
 70
    2
  9
$DIMALTU
 70
    2
  9
$DIMALTTD
 70
    3
  9
$DIMTXSTY
  7
STANDARD
  9
$DIMAUNIT
 70
    0
  9
$DIMADEC
 70
    0
  9
$DIMALTRND
 40
0
  9
$DIMAZIN
 70
    0
  9
$DIMDSEP
 70
   44
  9
$DIMATFIT
 70
    3
  9
$DIMFRAC
 70
    0
  9
$DIMLDRBLK
  1
STANDARD
  9
$DIMLUNIT
 70
    2
  9
$DIMLWD
 70
   -2
  9
$DIMLWE
 70
   -2
  9
$DIMTMOVE
 70
    0
  9
$DIMFXL
 40
1
  9
$DIMFXLON
 70
    0
  9
$DIMJOGANG
 40
0.7854
  9
$DIMTFILL
 70
    0
  9
$DIMTFILLCLR
 70
    0
  9
$DIMARCSYM
 70
    0
  9
$DIMLTYPE
  6

  9
$DIMLTEX1
  6

  9
$DIMLTEX2
  6

  9
$LUNITS
 70
    2
  9
$LUPREC
 70
    4
  9
$SKETCHINC
 40
1
  9
$FILLETRAD
 40
0
  9
$AUNITS
 70
    0
  9
$AUPREC
 70
    2
  9
$MENU
  1
.
  9
$ELEVATION
 40
0
  9
$PELEVATION
 40
0
  9
$THICKNESS
 40
0
  9
$LIMCHECK
 70
    0
  9
$CHAMFERA
 40
0
  9
$CHAMFERB
 40
0
  9
$CHAMFERC
 40
0
  9
$CHAMFERD
 40
0
  9
$SKPOLY
 70
    0
  9
$USRTIMER
 70
    1
  9
$ANGBASE
 50
0
  9
$ANGDIR
 70
    0
  9
$PDMODE
 70
   34
  9
$PDSIZE
 40
0
  9
$PLINEWID
 40
0
  9
$SPLFRAME
 70
    0
  9
$SPLINETYPE
 70
    2
  9
$SPLINESEGS
 70
    8
  9
$HANDSEED
  5
20000
  9
$SURFTAB1
 70
    6
  9
$SURFTAB2
 70
    6
  9
$SURFTYPE
 70
    6
  9
$SURFU
 70
    6
  9
$SURFV
 70
    6
  9
$UCSBASE
  2

  9
$UCSNAME
  2

  9
$UCSORG
 10
0
 20
0
 30
0
  9
$UCSXDIR
 10
1
 20
0
 30
0
  9
$UCSYDIR
 10
0
 20
1
 30
0
  9
$UCSORTHOREF
  2

  9
$UCSORTHOVIEW
 70
    0
  9
$UCSORGTOP
 10
0
 20
0
 30
0
  9
$UCSORGBOTTOM
 10
0
 20
0
 30
0
  9
$UCSORGLEFT
 10
0
 20
0
 30
0
  9
$UCSORGRIGHT
 10
0
 20
0
 30
0
  9
$UCSORGFRONT
 10
0
 20
0
 30
0
  9
$UCSORGBACK
 10
0
 20
0
 30
0
  9
$PUCSBASE
  2

  9
$PUCSNAME
  2

  9
$PUCSORG
 10
0
 20
0
 30
0
  9
$PUCSXDIR
 10
1
 20
0
 30
0
  9
$PUCSYDIR
 10
0
 20
1
 30
0
  9
$PUCSORTHOREF
  2

  9
$PUCSORTHOVIEW
 70
    0
  9
$PUCSORGTOP
 10
0
 20
0
 30
0
  9
$PUCSORGBOTTOM
 10
0
 20
0
 30
0
  9
$PUCSORGLEFT
 10
0
 20
0
 30
0
  9
$PUCSORGRIGHT
 10
0
 20
0
 30
0
  9
$PUCSORGFRONT
 10
0
 20
0
 30
0
  9
$PUCSORGBACK
 10
0
 20
0
 30
0
  9
$USERI1
 70
    0
  9
$USERI2
 70
    0
  9
$USERI3
 70
    0
  9
$USERI4
 70
    0
  9
$USERI5
 70
    0
  9
$USERR1
 40
0
  9
$USERR2
 40
0
  9
$USERR3
 40
0
  9
$USERR4
 40
0
  9
$USERR5
 40
0
  9
$WORLDVIEW
 70
    1
  9
$SHADEDGE
 70
    3
  9
$SHADEDIF
 70
   70
  9
$TILEMODE
 70
    1
  9
$MAXACTVP
 70
   64
  9
$PINSBASE
 10
0
 20
0
 30
0
  9
$PLIMCHECK
 70
    0
  9
$PEXTMIN
 10
0
 20
0
 30
0
  9
$PEXTMAX
 10
0
 20
0
 30
0
  9
$GRIDMODE
 70
    0
  9
$SNAPSTYLE
 70
    0
  9
$PLIMMIN
 10
0
 20
0
  9
$PLIMMAX
 10
210
 20
297
  9
$UNITMODE
 70
    0
  9
$VISRETAIN
 70
    1
  9
$PLINEGEN
 70
    0
  9
$PSLTSCALE
 70
    1
  9
$TREEDEPTH
 70
 3020
  9
$CMLSTYLE
  2
Standard
  9
$CMLJUST
 70
    0
  9
$CMLSCALE
 40
20
  9
$PROXYGRAPHICS
 70
    1
  9
$MEASUREMENT
 70
    1
  9
$CELWEIGHT
370
   -1
  9
$ENDCAPS
280
    0
  9
$JOINSTYLE
280
    0
  9
$LWDISPLAY
290
    0
  9
$INSUNITS
 70
    4
  9
$HYPERLINKBASE
  1

  9
$STYLESHEET
  1

  9
$XEDIT
290
    1
  9
$CEPSNTYPE
380
    0
  9
$PSTYLEMODE
290
    1
  9
$EXTNAMES
290
    1
  9
$PSVPSCALE
 40
1
  9
$OLESTARTUP
290
    0
  9
$SORTENTS
280
  127
  9
$INDEXCTL
280
    0
  9
$HIDETEXT
280
    1
  9
$XCLIPFRAME
290
    0
  9
$HALOGAP
280
    0
  9
$OBSCOLOR
 70
  257
  9
$OBSLTYPE
280
    0
  9
$INTERSECTIONDISPLAY
280
    0
  9
$INTERSECTIONCOLOR
 70
  257
  9
$DIMASSOC
280
    1
  9
$PROJECTNAME
  1

  9
$CAMERADISPLAY
290
    0
  9
$LENSLENGTH
 40
50
  9
$CAMERAHEIGHT
 40
0
  9
$STEPSPERSEC
 40
2
  9
$STEPSIZE
 40
50
  9
$3DDWFPREC
 40
2
  9
$PSOLWIDTH
 40
5
  9
$PSOLHEIGHT
 40
80
  9
$LOFTANG1
 40
1.570796326794897
  9
$LOFTANG2
 40
1.570796326794897
  9
$LOFTMAG1
 40
0
  9
$LOFTMAG2
 40
0
  9
$LOFTPARAM
 70
    7
  9
$LOFTNORMALS
280
    1
  9
$LATITUDE
 40
1
  9
$LONGITUDE
 40
1
  9
$NORTHDIRECTION
 40
0
  9
$TIMEZONE
 70
-8000
  9
$LIGHTGLYPHDISPLAY
280
    1
  9
$TILEMODELIGHTSYNCH
280
    1
  9
$SOLIDHIST
280
    1
  9
$SHOWHIST
280
    1
  9
$DWFFRAME
280
    2
  9
$DGNFRAME
280
    0
  9
$REALWORLDSCALE
290
    1
  9
$INTERFERECOLOR
 62
    1
  9
$CSHADOW
280
    0
  9
$SHADOWPLANELOCATION
 40
0
  0
ENDSEC
  0
SECTION
  2
CLASSES
  0
ENDSEC
  0
SECTION
  2
TABLES
  0
TABLE
  2
VPORT
  5
8
330
0
100
AcDbSymbolTable
 70
    1
  0
VPORT
  5
31
330
2
100
AcDbSymbolTableRecord
100
AcDbViewportTableRecord
  2
*ACTIVE
 70
    0
 10
0
 20
0
 11
1
 21
1
 12
321.3664377923241
 22
214.5086278169616
 13
0
 23
0
 14
10
 24
10
 15
10
 25
10
 16
0
 26
0
 36
1
 17
0
 27
0
 37
0
 40
327.9087526887749
 41
0.9866989117291415
 42
50
 43
0
 44
0
 50
0
 51
0
 71
    0
 72
  100
 73
    1
 74
    3
 75
    0
 76
    0
 77
    0
 78
    0
281
    0
 65
    1
110
0
120
0
130
0
111
1
121
0
131
0
112
0
122
1
132
0
 79
    0
146
0
348
10020
 60
    7
 61
    5
292
1
282
    1
141
0
142
0
 63
  250
421
3358443
  0
ENDTAB
  0
TABLE
  2
LTYPE
  5
5
330
0
100
AcDbSymbolTable
 70
    4
  0
LTYPE
  5
14
330
5
100
AcDbSymbolTableRecord
100
AcDbLinetypeTableRecord
  2
ByBlock
 70
    0
  3

 72
   65
 73
    0
 40
0
  0
LTYPE
  5
15
330
5
100
AcDbSymbolTableRecord
100
AcDbLinetypeTableRecord
  2
ByLayer
 70
    0
  3

 72
   65
 73
    0
 40
0
  0
LTYPE
  5
16
330
5
100
AcDbSymbolTableRecord
100
AcDbLinetypeTableRecord
  2
Continuous
 70
    0
  3
Solid line
 72
   65
 73
    0
 40
0
  0
LTYPE
  5
32
330
5
100
AcDbSymbolTableRecord
100
AcDbLinetypeTableRecord
  2
DOT
 70
    0
  3
Dot . . . . . . . . . . . . . . . . . . . . . .
 72
   65
 73
    2
 40
6.35
 49
0
 74
    0
 49
-6.35
 74
    0
  0
LTYPE
  5
33
330
5
100
AcDbSymbolTableRecord
100
AcDbLinetypeTableRecord
  2
DOTTINY
 70
    0
  3
Dot (.15x) .....................................
 72
   65
 73
    2
 40
0.9525
 49
0
 74
    0
 49
-0.9525
 74
    0
  0
LTYPE
  5
34
330
5
100
AcDbSymbolTableRecord
100
AcDbLinetypeTableRecord
  2
DOT2
 70
    0
  3
Dot (.5x) .....................................
 72
   65
 73
    2
 40
3.175
 49
0
 74
    0
 49
-3.175
 74
    0
  0
LTYPE
  5
35
330
5
100
AcDbSymbolTableRecord
100
AcDbLinetypeTableRecord
  2
DOTX2
 70
    0
  3
Dot (2x) .  .  .  .  .  .  .  .  .  .  .  .  .
 72
   65
 73
    2
 40
12.7
 49
0
 74
    0
 49
-12.7
 74
    0
  0
LTYPE
  5
36
330
5
100
AcDbSymbolTableRecord
100
AcDbLinetypeTableRecord
  2
DASHED
 70
    0
  3
Dashed _ _ _ _ _ _ _ _ _ _ _ _ _ _ _ _ _
 72
   65
 73
    2
 40
19.05
 49
12.7
 74
    0
 49
-6.35
 74
    0
  0
LTYPE
  5
37
330
5
100
AcDbSymbolTableRecord
100
AcDbLinetypeTableRecord
  2
DASHEDTINY
 70
    0
  3
Dashed (.15x) _ _ _ _ _ _ _ _ _ _ _ _ _ _ _ _ _
 72
   65
 73
    2
 40
2.8575
 49
1.905
 74
    0
 49
-0.9525
 74
    0
  0
LTYPE
  5
38
330
5
100
AcDbSymbolTableRecord
100
AcDbLinetypeTableRecord
  2
DASHED2
 70
    0
  3
Dashed (.5x) _ _ _ _ _ _ _ _ _ _ _ _ _ _ _ _ _
 72
   65
 73
    2
 40
9.524999999999999
 49
6.35
 74
    0
 49
-3.175
 74
    0
  0
LTYPE
  5
39
330
5
100
AcDbSymbolTableRecord
100
AcDbLinetypeTableRecord
  2
DASHEDX2
 70
    0
  3
Dashed (2x) ____  ____  ____  ____  ____  ___
 72
   65
 73
    2
 40
38.09999999999999
 49
25.4
 74
    0
 49
-12.7
 74
    0
  0
LTYPE
  5
3A
330
5
100
AcDbSymbolTableRecord
100
AcDbLinetypeTableRecord
  2
DASHDOT
 70
    0
  3
Dash dot __ . __ . __ . __ . __ . __ . __ . __
 72
   65
 73
    4
 40
25.4
 49
12.7
 74
    0
 49
-6.35
 74
    0
 49
0
 74
    0
 49
-6.35
 74
    0
  0
LTYPE
  5
3B
330
5
100
AcDbSymbolTableRecord
100
AcDbLinetypeTableRecord
  2
DASHDOTTINY
 70
    0
  3
Dash dot (.15x) _._._._._._._._._._._._._._._.
 72
   65
 73
    4
 40
3.81
 49
1.905
 74
    0
 49
-0.9525
 74
    0
 49
0
 74
    0
 49
-0.9525
 74
    0
  0
LTYPE
  5
3C
330
5
100
AcDbSymbolTableRecord
100
AcDbLinetypeTableRecord
  2
DASHDOT2
 70
    0
  3
Dash dot (.5x) _._._._._._._._._._._._._._._.
 72
   65
 73
    4
 40
12.7
 49
6.35
 74
    0
 49
-3.175
 74
    0
 49
0
 74
    0
 49
-3.175
 74
    0
  0
LTYPE
  5
3D
330
5
100
AcDbSymbolTableRecord
100
AcDbLinetypeTableRecord
  2
DASHDOTX2
 70
    0
  3
Dash dot (2x) ____  .  ____  .  ____  .  ___
 72
   65
 73
    4
 40
50.8
 49
25.4
 74
    0
 49
-12.7
 74
    0
 49
0
 74
    0
 49
-12.7
 74
    0
  0
LTYPE
  5
3E
330
5
100
AcDbSymbolTableRecord
100
AcDbLinetypeTableRecord
  2
DIVIDE
 70
    0
  3
Divide ____ . . ____ . . ____ . . ____ . . ____
 72
   65
 73
    6
 40
31.75
 49
12.7
 74
    0
 49
-6.35
 74
    0
 49
0
 74
    0
 49
-6.35
 74
    0
 49
0
 74
    0
 49
-6.35
 74
    0
  0
LTYPE
  5
3F
330
5
100
AcDbSymbolTableRecord
100
AcDbLinetypeTableRecord
  2
DIVIDETINY
 70
    0
  3
Divide (.15x) __..__..__..__..__..__..__..__.._
 72
   65
 73
    6
 40
4.7625
 49
1.905
 74
    0
 49
-0.9525
 74
    0
 49
0
 74
    0
 49
-0.9525
 74
    0
 49
0
 74
    0
 49
-0.9525
 74
    0
  0
LTYPE
  5
40
330
5
100
AcDbSymbolTableRecord
100
AcDbLinetypeTableRecord
  2
DIVIDE2
 70
    0
  3
Divide (.5x) __..__..__..__..__..__..__..__.._
 72
   65
 73
    6
 40
15.875
 49
6.35
 74
    0
 49
-3.175
 74
    0
 49
0
 74
    0
 49
-3.175
 74
    0
 49
0
 74
    0
 49
-3.175
 74
    0
  0
LTYPE
  5
41
330
5
100
AcDbSymbolTableRecord
100
AcDbLinetypeTableRecord
  2
DIVIDEX2
 70
    0
  3
Divide (2x) ________  .  .  ________  .  .  _
 72
   65
 73
    6
 40
63.5
 49
25.4
 74
    0
 49
-12.7
 74
    0
 49
0
 74
    0
 49
-12.7
 74
    0
 49
0
 74
    0
 49
-12.7
 74
    0
  0
LTYPE
  5
42
330
5
100
AcDbSymbolTableRecord
100
AcDbLinetypeTableRecord
  2
BORDER
 70
    0
  3
Border __ __ . __ __ . __ __ . __ __ . __ __ .
 72
   65
 73
    6
 40
44.45
 49
12.7
 74
    0
 49
-6.35
 74
    0
 49
12.7
 74
    0
 49
-6.35
 74
    0
 49
0
 74
    0
 49
-6.35
 74
    0
  0
LTYPE
  5
43
330
5
100
AcDbSymbolTableRecord
100
AcDbLinetypeTableRecord
  2
BORDERTINY
 70
    0
  3
Border (.15x) __.__.__.__.__.__.__.__.__.__.__.
 72
   65
 73
    6
 40
6.6675
 49
1.905
 74
    0
 49
-0.9525
 74
    0
 49
1.905
 74
    0
 49
-0.9525
 74
    0
 49
0
 74
    0
 49
-0.9525
 74
    0
  0
LTYPE
  5
44
330
5
100
AcDbSymbolTableRecord
100
AcDbLinetypeTableRecord
  2
BORDER2
 70
    0
  3
Border (.5x) __.__.__.__.__.__.__.__.__.__.__.
 72
   65
 73
    6
 40
22.225
 49
6.35
 74
    0
 49
-3.175
 74
    0
 49
6.35
 74
    0
 49
-3.175
 74
    0
 49
0
 74
    0
 49
-3.175
 74
    0
  0
LTYPE
  5
45
330
5
100
AcDbSymbolTableRecord
100
AcDbLinetypeTableRecord
  2
BORDERX2
 70
    0
  3
Border (2x) ____  ____  .  ____  ____  .  ___
 72
   65
 73
    6
 40
88.89999999999999
 49
25.4
 74
    0
 49
-12.7
 74
    0
 49
25.4
 74
    0
 49
-12.7
 74
    0
 49
0
 74
    0
 49
-12.7
 74
    0
  0
LTYPE
  5
46
330
5
100
AcDbSymbolTableRecord
100
AcDbLinetypeTableRecord
  2
CENTER
 70
    0
  3
Center ____ _ ____ _ ____ _ ____ _ ____ _ ____
 72
   65
 73
    4
 40
50.8
 49
31.75
 74
    0
 49
-6.35
 74
    0
 49
6.35
 74
    0
 49
-6.35
 74
    0
  0
LTYPE
  5
47
330
5
100
AcDbSymbolTableRecord
100
AcDbLinetypeTableRecord
  2
CENTERTINY
 70
    0
  3
Center (.15x) ___ _ ___ _ ___ _ ___ _ ___ _ ___
 72
   65
 73
    4
 40
7.619999999999999
 49
4.7625
 74
    0
 49
-0.9525
 74
    0
 49
0.9525
 74
    0
 49
-0.9525
 74
    0
  0
LTYPE
  5
48
330
5
100
AcDbSymbolTableRecord
100
AcDbLinetypeTableRecord
  2
CENTER2
 70
    0
  3
Center (.5x) ___ _ ___ _ ___ _ ___ _ ___ _ ___
 72
   65
 73
    4
 40
28.575
 49
19.05
 74
    0
 49
-3.175
 74
    0
 49
3.175
 74
    0
 49
-3.175
 74
    0
  0
LTYPE
  5
49
330
5
100
AcDbSymbolTableRecord
100
AcDbLinetypeTableRecord
  2
CENTERX2
 70
    0
  3
Center (2x) ________  __  ________  __  _____
 72
   65
 73
    4
 40
101.6
 49
63.5
 74
    0
 49
-12.7
 74
    0
 49
12.7
 74
    0
 49
-12.7
 74
    0
  0
ENDTAB
  0
TABLE
  2
LAYER
  5
2
330
0
100
AcDbSymbolTable
 70
    1
  0
LAYER
  5
10
330
2
100
AcDbSymbolTableRecord
100
AcDbLayerTableRecord
  2
0
 70
    0
 62
    7
  6
CONTINUOUS
370
   -3
390
F
  0
LAYER
  5
4A
330
2
100
AcDbSymbolTableRecord
100
AcDbLayerTableRecord
  2
pocket-1.25mm
 70
    0
 62
    4
  6
CONTINUOUS
370
    0
390
F
  0
LAYER
  5
4B
330
2
100
AcDbSymbolTableRecord
100
AcDbLayerTableRecord
  2
profiling
 70
    0
 62
    3
  6
CONTINUOUS
370
    0
390
F
  0
LAYER
  5
4C
330
2
100
AcDbSymbolTableRecord
100
AcDbLayerTableRecord
  2
vcut
 70
    0
 62
    6
  6
CONTINUOUS
370
    0
390
F
  0
ENDTAB
  0
TABLE
  2
STYLE
  5
3
330
0
100
AcDbSymbolTable
 70
    3
  0
STYLE
  5
4D
330
2
100
AcDbSymbolTableRecord
100
AcDbTextStyleTableRecord
  2
Standard
 70
    0
 40
0
 41
1
 50
0
 71
    0
 42
1
  3
txt
  4

  0
ENDTAB
  0
TABLE
  2
VIEW
  5
6
330
0
100
AcDbSymbolTable
 70
    0
  0
ENDTAB
  0
TABLE
  2
UCS
  5
7
330
0
100
AcDbSymbolTable
 70
    0
  0
ENDTAB
  0
TABLE
  2
APPID
  5
9
330
0
100
AcDbSymbolTable
 70
    1
  0
APPID
  5
12
330
9
100
AcDbSymbolTableRecord
100
AcDbRegAppTableRecord
  2
ACAD
 70
    0
  0
APPID
  5
4E
330
9
100
AcDbSymbolTableRecord
100
AcDbRegAppTableRecord
  2
LibreCad
 70
    0
  0
ENDTAB
  0
TABLE
  2
DIMSTYLE
  5
A
330
0
100
AcDbSymbolTable
 70
    1
100
AcDbDimStyleTable
 71
    1
  0
DIMSTYLE
105
4F
330
A
100
AcDbSymbolTableRecord
100
AcDbDimStyleTableRecord
  2
Standard
 70
    0
 40
2.5
 41
2.5
 42
0.625
 43
0.38
 44
1.25
 45
0
 46
0
 47
0
 48
0
 49
1
140
2.5
141
0.09
142
0
143
25.4
144
1
145
0
146
1
147
0.625
148
0
 71
    0
 72
    0
 73
    0
 74
    1
 75
    0
 76
    0
 77
    0
 78
    8
 79
    0
170
    0
171
    2
172
    0
173
    0
174
    0
175
    0
176
    0
177
    0
178
    0
179
    0
271
    2
272
    4
273
    2
274
    2
275
    0
276
    0
277
    2
278
   44
279
    0
280
    0
281
    0
282
    0
283
    1
284
    0
285
    0
286
    0
288
    0
289
    3
340
STANDARD
341

371
   -2
372
   -2
  0
ENDTAB
  0
TABLE
  2
BLOCK_RECORD
  5
1
330
0
100
AcDbSymbolTable
 70
    2
  0
BLOCK_RECORD
  5
1F
330
1
100
AcDbSymbolTableRecord
100
AcDbBlockTableRecord
  2
*Model_Space
 70
    0
280
    1
281
    0
  0
BLOCK_RECORD
  5
1E
330
1
100
AcDbSymbolTableRecord
100
AcDbBlockTableRecord
  2
*Paper_Space
 70
    0
280
    1
281
    0
  0
ENDTAB
  0
ENDSEC
  0
SECTION
  2
BLOCKS
  0
BLOCK
  5
20
330
1F
100
AcDbEntity
  8
0
100
AcDbBlockBegin
  2
*Model_Space
 70
    0
 10
0
 20
0
 30
0
  3
*Model_Space
  1

  0
ENDBLK
  5
21
330
1F
100
AcDbEntity
  8
0
100
AcDbBlockEnd
  0
BLOCK
  5
1C
330
1B
100
AcDbEntity
  8
0
100
AcDbBlockBegin
  2
*Paper_Space
 70
    0
 10
0
 20
0
 30
0
  3
*Paper_Space
  1

  0
ENDBLK
  5
1D
330
1F
100
AcDbEntity
  8
0
100
AcDbBlockEnd
  0
ENDSEC
  0
SECTION
  2
ENTITIES
  0
LWPOLYLINE
  5
50
100
AcDbEntity
  8
pocket-1.25mm
  6
ByLayer
 62
  256
370
   -1
100
AcDbPolyline
 90
   58
 70
    1
 43
0
 10
454.82325
 20
394.4295
 10
456.789
 20
394.91775
 10
493.4085
 20
403.5555
 10
495.45825
 20
403.95675
 10
497.89125
 20
404.2965
 10
500.33775
 20
404.52375
 10
502.425
 20
404.60325
 10
507.825
 20
404.60175
 10
508.4565
 20
404.5395
 10
509.064
 20
404.355
 10
509.6235
 20
404.05575
 10
510.114
 20
403.653
 10
510.51675
 20
403.1625
 10
510.816
 20
402.603
 10
511.0005
 20
401.9955
 10
511.06275
 20
401.364
 10
511.0005
 20
400.7325
 10
510.816
 20
400.125
 10
510.51675
 20
399.5655
 10
510.114
 20
399.075
 10
509.6235
 20
398.67225
 10
509.064
 20
398.373
 10
508.4565
 20
398.1885
 10
507.825
 20
398.12625
 10
503.013
 20
398.118
 10
500.92575
 20
398.03625
 10
498.4785
 20
397.809
 10
496.044
 20
397.47075
 10
493.9935
 20
397.07325
 10
456.789
 20
388.40475
 10
454.82325
 20
387.9165
 10
452.5185
 20
387.46275
 10
450.03225
 20
387.0735
 10
447.53325
 20
386.77575
 10
445.19175
 20
386.58975
 10
443.1675
 20
386.52825
 10
436.76775
 20
386.53725
 10
436.13625
 20
386.5995
 10
435.52875
 20
386.784
 10
434.96925
 20
387.08325
 10
434.47875
 20
387.486
 10
434.076
 20
387.9765
 10
433.77675
 20
388.536
 10
433.59225
 20
389.1435
 10
433.53
 20
389.775
 10
433.59225
 20
390.4065
 10
433.77675
 20
391.014
 10
434.076
 20
391.5735
 10
434.47875
 20
392.064
 10
434.96925
 20
392.46675
 10
435.52875
 20
392.766
 10
436.13625
 20
392.9505
 10
436.76775
 20
393.01275
 10
443.1675
 20
393.02175
 10
445.19175
 20
393.0885
 10
447.53325
 20
393.279
 10
450.03225
 20
393.5805
 10
452.51925
 20
393.97275
  0
LWPOLYLINE
  5
51
100
AcDbEntity
  8
profiling
  6
ByLayer
 62
  256
370
   -1
100
AcDbPolyline
 90
  216
 70
    1
 43
0
 10
432.87975
 20
331.7655
 10
432.87975
 20
331.7655
 10
430.15875
 20
333.0525
 10
430.15875
 20
333.0525
 10
430.15875
 20
333.0525
 10
430.15875
 20
333.0525
 10
430.15875
 20
333.0525
 10
427.5765
 20
334.59975
 10
427.5765
 20
334.59975
 10
425.1585
 20
336.393
 10
425.1585
 20
336.393
 10
425.1585
 20
336.393
 10
425.1585
 20
336.393
 10
422.928
 20
338.41425
 10
422.928
 20
338.41425
 10
420.90675
 20
340.64475
 10
420.90675
 20
340.64475
 10
420.90675
 20
340.64475
 10
419.1135
 20
343.06275
 10
419.1135
 20
343.06275
 10
419.1135
 20
343.06275
 10
417.56625
 20
345.645
 10
417.56625
 20
345.645
 10
417.56625
 20
345.645
 10
417.56625
 20
345.645
 10
416.27925
 20
348.366
 10
416.27925
 20
348.366
 10
415.26525
 20
351.20025
 10
415.26525
 20
351.20025
 10
415.26525
 20
351.20025
 10
415.26525
 20
351.20025
 10
414.534
 20
354.12075
 10
414.534
 20
354.12075
 10
414.09225
 20
357.09825
 10
414.09225
 20
357.09825
 10
413.9445
 20
360.105
 10
413.9445
 20
360.105
 10
413.9445
 20
360.105
 10
413.9445
 20
383.97375
 10
413.9445
 20
383.97375
 10
413.9445
 20
383.97375
 10
413.9445
 20
383.97375
 10
414.09225
 20
386.9805
 10
414.09225
 20
386.9805
 10
414.534
 20
389.958
 10
414.534
 20
389.958
 10
414.534
 20
389.958
 10
414.534
 20
389.958
 10
415.26525
 20
392.8785
 10
415.26525
 20
392.8785
 10
416.27925
 20
395.71275
 10
416.27925
 20
395.71275
 10
416.27925
 20
395.71275
 10
416.27925
 20
395.71275
 10
417.56625
 20
398.43375
 10
417.56625
 20
398.43375
 10
419.1135
 20
401.016
 10
419.1135
 20
401.016
 10
419.1135
 20
401.016
 10
419.1345
 20
401.0445
 10
420.90675
 20
403.434
 10
420.90675
 20
403.434
 10
420.90675
 20
403.434
 10
420.90675
 20
403.434
 10
422.928
 20
405.6645
 10
422.928
 20
405.6645
 10
425.1585
 20
407.68575
 10
425.1585
 20
407.68575
 10
425.1585
 20
407.68575
 10
425.1585
 20
407.68575
 10
427.5765
 20
409.479
 10
427.5765
 20
409.479
 10
427.5765
 20
409.479
 10
430.15875
 20
411.02625
 10
430.15875
 20
411.02625
 10
432.87975
 20
412.31325
 10
432.87975
 20
412.31325
 10
432.87975
 20
412.31325
 10
432.87975
 20
412.31325
 10
435.714
 20
413.32725
 10
435.714
 20
413.32725
 10
438.63375
 20
414.0585
 10
438.63375
 20
414.0585
 10
438.63375
 20
414.0585
 10
438.63375
 20
414.0585
 10
438.63375
 20
414.0585
 10
438.63375
 20
414.0585
 10
441.61125
 20
414.50025
 10
441.61125
 20
414.50025
 10
444.618
 20
414.648
 10
444.618
 20
414.648
 10
444.618
 20
414.648
 10
503.88675
 20
414.648
 10
508.45425
 20
414.648
 10
508.45425
 20
414.648
 10
508.45425
 20
414.648
 10
508.45425
 20
414.648
 10
511.461
 20
414.50025
 10
511.461
 20
414.50025
 10
514.4385
 20
414.0585
 10
514.4385
 20
414.0585
 10
514.4385
 20
414.0585
 10
514.4385
 20
414.0585
 10
514.4385
 20
414.0585
 10
517.35825
 20
413.32725
 10
517.35825
 20
413.32725
 10
520.1925
 20
412.31325
 10
520.1925
 20
412.31325
 10
520.1925
 20
412.31325
 10
521.643
 20
411.627
 10
522.9135
 20
411.02625
 10
522.9135
 20
411.02625
 10
525.49575
 20
409.479
 10
525.49575
 20
409.479
 10
525.49575
 20
409.479
 10
527.9137500000001
 20
407.68575
 10
527.9137500000001
 20
407.68575
 10
527.9137500000001
 20
407.68575
 10
527.9137500000001
 20
407.68575
 10
530.1442500000001
 20
405.6645
 10
530.1442500000001
 20
405.6645
 10
530.1442500000001
 20
405.6645
 10
530.1442500000001
 20
405.6645
 10
532.1655
 20
403.434
 10
532.1655
 20
403.434
 10
532.1655
 20
403.434
 10
532.1865
 20
403.40625
 10
533.95875
 20
401.016
 10
533.95875
 20
401.016
 10
535.506
 20
398.43375
 10
535.506
 20
398.43375
 10
535.506
 20
398.43375
 10
535.506
 20
398.43375
 10
536.793
 20
395.71275
 10
536.793
 20
395.71275
 10
537.807
 20
392.8785
 10
537.807
 20
392.8785
 10
537.807
 20
392.8785
 10
537.807
 20
392.8785
 10
537.807
 20
392.8785
 10
538.5382499999999
 20
389.958
 10
538.5382499999999
 20
389.958
 10
538.5382499999999
 20
389.958
 10
539.1855
 20
386.9805
 10
539.1855
 20
386.9805
 10
539.1855
 20
386.9805
 10
539.1855
 20
386.9805
 10
539.1855
 20
386.9805
 10
539.7982500000001
 20
383.97375
 10
539.7982500000001
 20
383.97375
 10
539.7982500000001
 20
383.97375
 10
548.36025
 20
335.8575
 10
548.36025
 20
335.8575
 10
548.36025
 20
335.8575
 10
548.36025
 20
335.8575
 10
548.44125
 20
335.2275
 10
548.44125
 20
335.2275
 10
548.44125
 20
335.2275
 10
548.44125
 20
335.2275
 10
548.44125
 20
335.2275
 10
548.4585
 20
334.6035
 10
548.4585
 20
334.6035
 10
548.412
 20
333.9915
 10
548.412
 20
333.9915
 10
548.412
 20
333.9915
 10
548.412
 20
333.9915
 10
548.30175
 20
333.3975
 10
548.30175
 20
333.3975
 10
548.30175
 20
333.3975
 10
548.30175
 20
333.3975
 10
548.12925
 20
332.8275
 10
548.12925
 20
332.8275
 10
548.12925
 20
332.8275
 10
548.12925
 20
332.8275
 10
547.896
 20
332.28675
 10
547.896
 20
332.28675
 10
547.60425
 20
331.7805
 10
547.60425
 20
331.7805
 10
547.60425
 20
331.7805
 10
547.2569999999999
 20
331.31325
 10
547.2569999999999
 20
331.31325
 10
546.8579999999999
 20
330.8895
 10
546.8579999999999
 20
330.8895
 10
546.41025
 20
330.51375
 10
546.41025
 20
330.51375
 10
546.41025
 20
330.51375
 10
545.9182499999999
 20
330.18975
 10
545.9182499999999
 20
330.18975
 10
545.9182499999999
 20
330.18975
 10
545.9182499999999
 20
330.18975
 10
545.38725
 20
329.91975
 10
545.38725
 20
329.91975
 10
545.38725
 20
329.91975
 10
544.82175
 20
329.7075
 10
544.82175
 20
329.7075
 10
544.82175
 20
329.7075
 10
544.82175
 20
329.7075
 10
544.82175
 20
329.7075
 10
544.22775
 20
329.5545
 10
544.22775
 20
329.5545
 10
543.6105
 20
329.46225
 10
543.6105
 20
329.46225
 10
543.6105
 20
329.46225
 10
542.976
 20
329.4315
 10
542.976
 20
329.4315
 10
503.8845
 20
329.43075
 10
444.61575
 20
329.43075
 10
444.61575
 20
329.43075
 10
441.609
 20
329.5785
 10
441.609
 20
329.5785
 10
438.6315
 20
330.02025
 10
438.6315
 20
330.02025
 10
435.71175
 20
330.7515
 10
435.71175
 20
330.7515
 10
435.71175
 20
330.7515
 10
432.8775
 20
331.7655
  0
LWPOLYLINE
  5
52
100
AcDbEntity
  8
profiling
  6
ByLayer
 62
  256
370
   -1
100
AcDbPolyline
 90
   49
 70
    1
 43
0
 10
489.50175
 20
407.9895
 10
489.11025
 20
407.871
 10
488.74875
 20
407.67825
 10
488.43225
 20
407.41875
 10
488.17275
 20
407.10225
 10
487.98
 20
406.74075
 10
487.92975
 20
406.57425
 10
487.8615
 20
406.34925
 10
487.85925
 20
406.32825
 10
487.821
 20
405.942
 10
487.84425
 20
405.708
 10
487.8615
 20
405.534
 10
487.87125
 20
405.50325
 10
487.97025
 20
405.17625
 10
487.98075
 20
405.1425
 10
488.1735
 20
404.781
 10
488.433
 20
404.4645
 10
488.7495
 20
404.205
 10
489.111
 20
404.01225
 10
489.47625
 20
403.90125
 10
489.50325
 20
403.893
 10
489.50325
 20
403.893
 10
489.7035
 20
403.8735
 10
489.9105
 20
403.85325
 10
490.19775
 20
403.88175
 10
490.3185
 20
403.89375
 10
490.71
 20
404.01225
 10
491.0715
 20
404.205
 10
491.388
 20
404.4645
 10
491.6475
 20
404.781
 10
491.84025
 20
405.1425
 10
491.95875
 20
405.534
 10
491.98575
 20
405.8085
 10
491.9985
 20
405.94125
 10
491.96175
 20
406.31325
 10
491.958
 20
406.3485
 10
491.92875
 20
406.4445
 10
491.83875
 20
406.74075
 10
491.8005
 20
406.81275
 10
491.646
 20
407.1015
 10
491.3865
 20
407.418
 10
491.07
 20
407.6775
 10
490.7085
 20
407.87025
 10
490.42425
 20
407.9565
 10
490.317
 20
407.9895
 10
489.9975
 20
408.021
 10
489.93675
 20
408.027
 10
489.90975
 20
408.03
 10
489.5025
 20
407.9895
  0
LWPOLYLINE
  5
53
100
AcDbEntity
  8
profiling
  6
ByLayer
 62
  256
370
   -1
100
AcDbPolyline
 90
   45
 70
    1
 43
0
 10
521.02125
 20
397.39725
 10
521.2140000000001
 20
397.03575
 10
521.4734999999999
 20
396.71925
 10
521.79
 20
396.45975
 10
522.1515000000001
 20
396.267
 10
522.543
 20
396.1485
 10
522.95025
 20
396.108
 10
523.3575
 20
396.1485
 10
523.749
 20
396.267
 10
524.06475
 20
396.43575
 10
524.10975
 20
396.45975
 10
524.328
 20
396.639
 10
524.42625
 20
396.72
 10
524.68575
 20
397.0365
 10
524.8785
 20
397.398
 10
524.997
 20
397.7895
 10
525.0375
 20
398.19675
 10
524.997
 20
398.604
 10
524.8785
 20
398.9955
 10
524.76975
 20
399.19875
 10
524.6849999999999
 20
399.357
 10
524.67975
 20
399.363
 10
524.6685
 20
399.3765
 10
524.544
 20
399.528
 10
524.42475
 20
399.6735
 10
524.30925
 20
399.768
 10
524.10825
 20
399.933
 10
523.74675
 20
400.12575
 10
523.35525
 20
400.24425
 10
523.34475
 20
400.245
 10
523.30425
 20
400.24875
 10
522.948
 20
400.284
 10
522.54075
 20
400.2435
 10
522.1492500000001
 20
400.125
 10
521.78775
 20
399.93225
 10
521.4712500000001
 20
399.67275
 10
521.2117500000001
 20
399.35625
 10
521.085
 20
399.11925
 10
521.01825
 20
398.99475
 10
521.01825
 20
398.99475
 10
521.0025000000001
 20
398.94225
 10
520.89975
 20
398.60325
 10
520.85925
 20
398.196
 10
520.89975
 20
397.78875
 10
521.01825
 20
397.39725
  0
LWPOLYLINE
  5
54
100
AcDbEntity
  8
profiling
  6
ByLayer
 62
  256
370
   -1
100
AcDbPolyline
 90
   34
 70
    1
 43
0
 10
538.37325
 20
346.35975
 10
537.966
 20
346.31925
 10
537.5744999999999
 20
346.20075
 10
537.213
 20
346.008
 10
536.8964999999999
 20
345.7485
 10
536.6369999999999
 20
345.432
 10
536.44425
 20
345.0705
 10
536.32575
 20
344.679
 10
536.28525
 20
344.27175
 10
536.32575
 20
343.8645
 10
536.44425
 20
343.473
 10
536.6369999999999
 20
343.1115
 10
536.8964999999999
 20
342.795
 10
537.213
 20
342.5355
 10
537.5744999999999
 20
342.34275
 10
537.966
 20
342.22425
 10
538.37325
 20
342.18375
 10
538.7805
 20
342.22425
 10
539.172
 20
342.34275
 10
539.5335
 20
342.5355
 10
539.73
 20
342.69675
 10
539.85
 20
342.795
 10
540.1095
 20
343.1115
 10
540.30225
 20
343.473
 10
540.42075
 20
343.8645
 10
540.4612499999999
 20
344.27175
 10
540.42075
 20
344.679
 10
540.30225
 20
345.0705
 10
540.1095
 20
345.432
 10
539.85
 20
345.7485
 10
539.5335
 20
346.008
 10
539.172
 20
346.20075
 10
538.7805
 20
346.31925
 10
538.37325
 20
346.35975
  0
LWPOLYLINE
  5
55
100
AcDbEntity
  8
profiling
  6
ByLayer
 62
  256
370
   -1
100
AcDbPolyline
 90
   44
 70
    1
 43
0
 10
421.59
 20
399.52425
 10
421.4715
 20
399.13275
 10
421.431
 20
398.7255
 10
421.46925
 20
398.337
 10
421.47075
 20
398.31825
 10
421.58925
 20
397.92675
 10
421.782
 20
397.56525
 10
422.0415
 20
397.24875
 10
422.358
 20
396.98925
 10
422.71875
 20
396.7965
 10
423.111
 20
396.678
 10
423.47325
 20
396.642
 10
423.51825
 20
396.6375
 10
423.9255
 20
396.678
 10
424.31775
 20
396.7965
 10
424.67925
 20
396.98925
 10
424.99575
 20
397.24875
 10
425.25525
 20
397.56525
 10
425.448
 20
397.92675
 10
425.454
 20
397.94625
 10
425.454
 20
397.94625
 10
425.454
 20
397.94625
 10
425.56725
 20
398.31825
 10
425.60775
 20
398.7255
 10
425.56725
 20
399.13275
 10
425.44875
 20
399.52425
 10
425.42475
 20
399.56925
 10
425.42475
 20
399.56925
 10
425.256
 20
399.885
 10
425.02725
 20
400.16325
 10
424.99575
 20
400.2015
 10
424.67925
 20
400.461
 10
424.31775
 20
400.65375
 10
424.293
 20
400.66125
 10
423.9255
 20
400.773
 10
423.51825
 20
400.8135
 10
423.49275
 20
400.81125
 10
423.207
 20
400.78275
 10
423.111
 20
400.773
 10
422.71875
 20
400.6545
 10
422.358
 20
400.46175
 10
422.0415
 20
400.20225
 10
421.782
 20
399.88575
 10
421.58925
 20
399.52425
  0
LWPOLYLINE
  5
56
100
AcDbEntity
  8
profiling
  6
ByLayer
 62
  256
370
   -1
100
AcDbPolyline
 90
   36
 70
    1
 43
0
 10
440.90325
 20
363.82725
 10
440.25
 20
363.03075
 10
439.764
 20
362.1225
 10
439.49475
 20
361.23525
 10
439.46475
 20
361.137
 10
439.3635
 20
360.11175
 10
439.46475
 20
359.0865
 10
439.764
 20
358.10025
 10
440.25
 20
357.192
 10
440.90325
 20
356.3955
 10
441.69975
 20
355.74225
 10
442.608
 20
355.25625
 10
443.5935
 20
354.957
 10
444.61875
 20
354.85575
 10
445.644
 20
354.957
 10
446.63025
 20
355.25625
 10
447.5385
 20
355.74225
 10
448.335
 20
356.3955
 10
448.6725
 20
356.8065
 10
448.98825
 20
357.192
 10
449.47425
 20
358.10025
 10
449.7735
 20
359.0865
 10
449.87475
 20
360.11175
 10
449.7735
 20
361.137
 10
449.47425
 20
362.1225
 10
448.98825
 20
363.03075
 10
448.335
 20
363.82725
 10
447.5385
 20
364.4805
 10
446.63025
 20
364.9665
 10
445.644
 20
365.26575
 10
444.61875
 20
365.367
 10
443.5935
 20
365.26575
 10
443.3835
 20
365.202
 10
442.60725
 20
364.9665
 10
441.699
 20
364.4805
 10
440.9025
 20
363.82725
  0
LWPOLYLINE
  5
57
100
AcDbEntity
  8
profiling
  6
ByLayer
 62
  256
370
   -1
100
AcDbPolyline
 90
   73
 70
    1
 43
0
 10
442.22475
 20
335.65575
 10
442.0275
 20
335.6265
 10
441.91875
 20
335.5995
 10
441.834
 20
335.5785
 10
441.81075
 20
335.57025
 10
441.6465
 20
335.51175
 10
441.46575
 20
335.42625
 10
441.435
 20
335.40825
 10
441.294
 20
335.32425
 10
441.1335
 20
335.20575
 10
440.98575
 20
335.0715
 10
440.8515
 20
334.92375
 10
440.73225
 20
334.76325
 10
440.6295
 20
334.59225
 10
440.544
 20
334.4115
 10
440.4765
 20
334.22325
 10
440.42775
 20
334.02975
 10
440.3985
 20
333.8325
 10
440.38875
 20
333.633
 10
440.3985
 20
333.4335
 10
440.42775
 20
333.23625
 10
440.4765
 20
333.04275
 10
440.544
 20
332.8545
 10
440.6295
 20
332.67375
 10
440.73225
 20
332.50275
 10
440.85075
 20
332.34225
 10
440.985
 20
332.1945
 10
441.13275
 20
332.06025
 10
441.29325
 20
331.94175
 10
441.46425
 20
331.839
 10
441.645
 20
331.7535
 10
441.83325
 20
331.686
 10
442.02675
 20
331.63725
 10
442.1865
 20
331.61325
 10
442.224
 20
331.608
 10
442.31475
 20
331.6035
 10
442.4235
 20
331.59825
 10
442.53525
 20
331.6035
 10
442.623
 20
331.608
 10
442.82025
 20
331.63725
 10
443.01375
 20
331.686
 10
443.202
 20
331.7535
 10
443.38275
 20
331.839
 10
443.55375
 20
331.94175
 10
443.71425
 20
332.06025
 10
443.862
 20
332.1945
 10
443.862
 20
332.1945
 10
443.99625
 20
332.34225
 10
444.11475
 20
332.50275
 10
444.2175
 20
332.67375
 10
444.303
 20
332.8545
 10
444.3705
 20
333.04275
 10
444.41925
 20
333.23625
 10
444.4485
 20
333.4335
 10
444.45825
 20
333.633
 10
444.4485
 20
333.8325
 10
444.41925
 20
334.02975
 10
444.3705
 20
334.22325
 10
444.303
 20
334.4115
 10
444.2175
 20
334.59225
 10
444.11475
 20
334.76325
 10
443.99625
 20
334.92375
 10
443.862
 20
335.0715
 10
443.71425
 20
335.20575
 10
443.55375
 20
335.32425
 10
443.38275
 20
335.427
 10
443.202
 20
335.5125
 10
443.01375
 20
335.58
 10
442.82025
 20
335.62875
 10
442.623
 20
335.658
 10
442.4235
 20
335.66775
 10
442.311
 20
335.6625
 10
442.224
 20
335.658
  0
ENDSEC
  0
SECTION
  2
OBJECTS
  0
DICTIONARY
  5
C
330
0
100
AcDbDictionary
281
    1
  3
ACAD_GROUP
350
D
  0
DICTIONARY
  5
D
330
C
100
AcDbDictionary
281
    1
  0
ENDSEC
  0
EOF
