999
dxfrw 0.6.3
  0
SECTION
  2
HEADER
  9
$ACADVER
  1
AC1021
  9
$DWGCODEPAGE
  3
ANSI_1252
  9
$INSBASE
 10
0
 20
0
 30
0
  9
$EXTMIN
 10
554.8222500000001
 20
428.2755
 30
0
  9
$EXTMAX
 10
715.45125
 20
513.49275
 30
0
  9
$LIMMIN
 10
0
 20
0
  9
$LIMMAX
 10
420
 20
297
  9
$ORTHOMODE
 70
    0
  9
$REGENMODE
 70
    1
  9
$FILLMODE
 70
    1
  9
$QTEXTMODE
 70
    0
  9
$MIRRTEXT
 70
    0
  9
$LTSCALE
 40
1
  9
$ATTMODE
 70
    0
  9
$TEXTSIZE
 40
2.5
  9
$TRACEWID
 40
15.68
  9
$TEXTSTYLE
  7
STANDARD
  9
$CLAYER
  8
pocket-1.25mm
  9
$CELTYPE
  6
BYLAYER
  9
$CECOLOR
 62
  256
  9
$CELTSCALE
 40
1
  9
$DISPSILH
 70
    0
  9
$DIMSCALE
 40
2.5
  9
$DIMASZ
 40
2.5
  9
$DIMEXO
 40
0.625
  9
$DIMDLI
 40
3.75
  9
$DIMRND
 40
0
  9
$DIMDLE
 40
0
  9
$DIMEXE
 40
1.25
  9
$DIMTP
 40
0
  9
$DIMTM
 40
0
  9
$DIMTXT
 40
2.5
  9
$DIMCEN
 40
2.5
  9
$DIMTSZ
 40
0
  9
$DIMTOL
 70
    0
  9
$DIMLIM
 70
    0
  9
$DIMTIH
 70
    0
  9
$DIMTOH
 70
    0
  9
$DIMSE1
 70
    0
  9
$DIMSE2
 70
    0
  9
$DIMTAD
 70
    1
  9
$DIMZIN
 70
    8
  9
$DIMBLK
  1

  9
$DIMASO
 70
    1
  9
$DIMSHO
 70
    1
  9
$DIMPOST
  1

  9
$DIMAPOST
  1

  9
$DIMALT
 70
    0
  9
$DIMALTD
 70
    3
  9
$DIMALTF
 40
0.03937
  9
$DIMLFAC
 40
1
  9
$DIMTOFL
 70
    1
  9
$DIMTVP
 40
0
  9
$DIMTIX
 70
    0
  9
$DIMSOXD
 70
    0
  9
$DIMSAH
 70
    0
  9
$DIMBLK1
  1

  9
$DIMBLK2
  1

  9
$DIMSTYLE
  2
Standard
  9
$DIMCLRD
 70
    0
  9
$DIMCLRE
 70
    0
  9
$DIMCLRT
 70
    0
  9
$DIMTFAC
 40
1
  9
$DIMGAP
 40
0.625
  9
$DIMJUST
 70
    0
  9
$DIMSD1
 70
    0
  9
$DIMSD2
 70
    0
  9
$DIMTOLJ
 70
    0
  9
$DIMTZIN
 70
    8
  9
$DIMALTZ
 70
    0
  9
$DIMALTTZ
 70
    0
  9
$DIMUPT
 70
    0
  9
$DIMDEC
 70
    2
  9
$DIMTDEC
 70
    2
  9
$DIMALTU
 70
    2
  9
$DIMALTTD
 70
    3
  9
$DIMTXSTY
  7
STANDARD
  9
$DIMAUNIT
 70
    0
  9
$DIMADEC
 70
    0
  9
$DIMALTRND
 40
0
  9
$DIMAZIN
 70
    0
  9
$DIMDSEP
 70
   44
  9
$DIMATFIT
 70
    3
  9
$DIMFRAC
 70
    0
  9
$DIMLDRBLK
  1
STANDARD
  9
$DIMLUNIT
 70
    2
  9
$DIMLWD
 70
   -2
  9
$DIMLWE
 70
   -2
  9
$DIMTMOVE
 70
    0
  9
$DIMFXL
 40
1
  9
$DIMFXLON
 70
    0
  9
$DIMJOGANG
 40
0.7854
  9
$DIMTFILL
 70
    0
  9
$DIMTFILLCLR
 70
    0
  9
$DIMARCSYM
 70
    0
  9
$DIMLTYPE
  6

  9
$DIMLTEX1
  6

  9
$DIMLTEX2
  6

  9
$LUNITS
 70
    2
  9
$LUPREC
 70
    4
  9
$SKETCHINC
 40
1
  9
$FILLETRAD
 40
0
  9
$AUNITS
 70
    0
  9
$AUPREC
 70
    2
  9
$MENU
  1
.
  9
$ELEVATION
 40
0
  9
$PELEVATION
 40
0
  9
$THICKNESS
 40
0
  9
$LIMCHECK
 70
    0
  9
$CHAMFERA
 40
0
  9
$CHAMFERB
 40
0
  9
$CHAMFERC
 40
0
  9
$CHAMFERD
 40
0
  9
$SKPOLY
 70
    0
  9
$USRTIMER
 70
    1
  9
$ANGBASE
 50
0
  9
$ANGDIR
 70
    0
  9
$PDMODE
 70
   34
  9
$PDSIZE
 40
0
  9
$PLINEWID
 40
0
  9
$SPLFRAME
 70
    0
  9
$SPLINETYPE
 70
    2
  9
$SPLINESEGS
 70
    8
  9
$HANDSEED
  5
20000
  9
$SURFTAB1
 70
    6
  9
$SURFTAB2
 70
    6
  9
$SURFTYPE
 70
    6
  9
$SURFU
 70
    6
  9
$SURFV
 70
    6
  9
$UCSBASE
  2

  9
$UCSNAME
  2

  9
$UCSORG
 10
0
 20
0
 30
0
  9
$UCSXDIR
 10
1
 20
0
 30
0
  9
$UCSYDIR
 10
0
 20
1
 30
0
  9
$UCSORTHOREF
  2

  9
$UCSORTHOVIEW
 70
    0
  9
$UCSORGTOP
 10
0
 20
0
 30
0
  9
$UCSORGBOTTOM
 10
0
 20
0
 30
0
  9
$UCSORGLEFT
 10
0
 20
0
 30
0
  9
$UCSORGRIGHT
 10
0
 20
0
 30
0
  9
$UCSORGFRONT
 10
0
 20
0
 30
0
  9
$UCSORGBACK
 10
0
 20
0
 30
0
  9
$PUCSBASE
  2

  9
$PUCSNAME
  2

  9
$PUCSORG
 10
0
 20
0
 30
0
  9
$PUCSXDIR
 10
1
 20
0
 30
0
  9
$PUCSYDIR
 10
0
 20
1
 30
0
  9
$PUCSORTHOREF
  2

  9
$PUCSORTHOVIEW
 70
    0
  9
$PUCSORGTOP
 10
0
 20
0
 30
0
  9
$PUCSORGBOTTOM
 10
0
 20
0
 30
0
  9
$PUCSORGLEFT
 10
0
 20
0
 30
0
  9
$PUCSORGRIGHT
 10
0
 20
0
 30
0
  9
$PUCSORGFRONT
 10
0
 20
0
 30
0
  9
$PUCSORGBACK
 10
0
 20
0
 30
0
  9
$USERI1
 70
    0
  9
$USERI2
 70
    0
  9
$USERI3
 70
    0
  9
$USERI4
 70
    0
  9
$USERI5
 70
    0
  9
$USERR1
 40
0
  9
$USERR2
 40
0
  9
$USERR3
 40
0
  9
$USERR4
 40
0
  9
$USERR5
 40
0
  9
$WORLDVIEW
 70
    1
  9
$SHADEDGE
 70
    3
  9
$SHADEDIF
 70
   70
  9
$TILEMODE
 70
    1
  9
$MAXACTVP
 70
   64
  9
$PINSBASE
 10
0
 20
0
 30
0
  9
$PLIMCHECK
 70
    0
  9
$PEXTMIN
 10
0
 20
0
 30
0
  9
$PEXTMAX
 10
0
 20
0
 30
0
  9
$GRIDMODE
 70
    0
  9
$SNAPSTYLE
 70
    0
  9
$PLIMMIN
 10
0
 20
0
  9
$PLIMMAX
 10
210
 20
297
  9
$UNITMODE
 70
    0
  9
$VISRETAIN
 70
    1
  9
$PLINEGEN
 70
    0
  9
$PSLTSCALE
 70
    1
  9
$TREEDEPTH
 70
 3020
  9
$CMLSTYLE
  2
Standard
  9
$CMLJUST
 70
    0
  9
$CMLSCALE
 40
20
  9
$PROXYGRAPHICS
 70
    1
  9
$MEASUREMENT
 70
    1
  9
$CELWEIGHT
370
   -1
  9
$ENDCAPS
280
    0
  9
$JOINSTYLE
280
    0
  9
$LWDISPLAY
290
    0
  9
$INSUNITS
 70
    4
  9
$HYPERLINKBASE
  1

  9
$STYLESHEET
  1

  9
$XEDIT
290
    1
  9
$CEPSNTYPE
380
    0
  9
$PSTYLEMODE
290
    1
  9
$EXTNAMES
290
    1
  9
$PSVPSCALE
 40
1
  9
$OLESTARTUP
290
    0
  9
$SORTENTS
280
  127
  9
$INDEXCTL
280
    0
  9
$HIDETEXT
280
    1
  9
$XCLIPFRAME
290
    0
  9
$HALOGAP
280
    0
  9
$OBSCOLOR
 70
  257
  9
$OBSLTYPE
280
    0
  9
$INTERSECTIONDISPLAY
280
    0
  9
$INTERSECTIONCOLOR
 70
  257
  9
$DIMASSOC
280
    1
  9
$PROJECTNAME
  1

  9
$CAMERADISPLAY
290
    0
  9
$LENSLENGTH
 40
50
  9
$CAMERAHEIGHT
 40
0
  9
$STEPSPERSEC
 40
2
  9
$STEPSIZE
 40
50
  9
$3DDWFPREC
 40
2
  9
$PSOLWIDTH
 40
5
  9
$PSOLHEIGHT
 40
80
  9
$LOFTANG1
 40
1.570796326794897
  9
$LOFTANG2
 40
1.570796326794897
  9
$LOFTMAG1
 40
0
  9
$LOFTMAG2
 40
0
  9
$LOFTPARAM
 70
    7
  9
$LOFTNORMALS
280
    1
  9
$LATITUDE
 40
1
  9
$LONGITUDE
 40
1
  9
$NORTHDIRECTION
 40
0
  9
$TIMEZONE
 70
-8000
  9
$LIGHTGLYPHDISPLAY
280
    1
  9
$TILEMODELIGHTSYNCH
280
    1
  9
$SOLIDHIST
280
    1
  9
$SHOWHIST
280
    1
  9
$DWFFRAME
280
    2
  9
$DGNFRAME
280
    0
  9
$REALWORLDSCALE
290
    1
  9
$INTERFERECOLOR
 62
    1
  9
$CSHADOW
280
    0
  9
$SHADOWPLANELOCATION
 40
0
  0
ENDSEC
  0
SECTION
  2
CLASSES
  0
ENDSEC
  0
SECTION
  2
TABLES
  0
TABLE
  2
VPORT
  5
8
330
0
100
AcDbSymbolTable
 70
    1
  0
VPORT
  5
31
330
2
100
AcDbSymbolTableRecord
100
AcDbViewportTableRecord
  2
*ACTIVE
 70
    0
 10
0
 20
0
 11
1
 21
1
 12
398.0899488507013
 22
264.2698714232993
 13
0
 23
0
 14
10
 24
10
 15
10
 25
10
 16
0
 26
0
 36
1
 17
0
 27
0
 37
0
 40
327.9087526887749
 41
0.9866989117291415
 42
50
 43
0
 44
0
 50
0
 51
0
 71
    0
 72
  100
 73
    1
 74
    3
 75
    0
 76
    0
 77
    0
 78
    0
281
    0
 65
    1
110
0
120
0
130
0
111
1
121
0
131
0
112
0
122
1
132
0
 79
    0
146
0
348
10020
 60
    7
 61
    5
292
1
282
    1
141
0
142
0
 63
  250
421
3358443
  0
ENDTAB
  0
TABLE
  2
LTYPE
  5
5
330
0
100
AcDbSymbolTable
 70
    4
  0
LTYPE
  5
14
330
5
100
AcDbSymbolTableRecord
100
AcDbLinetypeTableRecord
  2
ByBlock
 70
    0
  3

 72
   65
 73
    0
 40
0
  0
LTYPE
  5
15
330
5
100
AcDbSymbolTableRecord
100
AcDbLinetypeTableRecord
  2
ByLayer
 70
    0
  3

 72
   65
 73
    0
 40
0
  0
LTYPE
  5
16
330
5
100
AcDbSymbolTableRecord
100
AcDbLinetypeTableRecord
  2
Continuous
 70
    0
  3
Solid line
 72
   65
 73
    0
 40
0
  0
LTYPE
  5
32
330
5
100
AcDbSymbolTableRecord
100
AcDbLinetypeTableRecord
  2
DOT
 70
    0
  3
Dot . . . . . . . . . . . . . . . . . . . . . .
 72
   65
 73
    2
 40
6.35
 49
0
 74
    0
 49
-6.35
 74
    0
  0
LTYPE
  5
33
330
5
100
AcDbSymbolTableRecord
100
AcDbLinetypeTableRecord
  2
DOTTINY
 70
    0
  3
Dot (.15x) .....................................
 72
   65
 73
    2
 40
0.9525
 49
0
 74
    0
 49
-0.9525
 74
    0
  0
LTYPE
  5
34
330
5
100
AcDbSymbolTableRecord
100
AcDbLinetypeTableRecord
  2
DOT2
 70
    0
  3
Dot (.5x) .....................................
 72
   65
 73
    2
 40
3.175
 49
0
 74
    0
 49
-3.175
 74
    0
  0
LTYPE
  5
35
330
5
100
AcDbSymbolTableRecord
100
AcDbLinetypeTableRecord
  2
DOTX2
 70
    0
  3
Dot (2x) .  .  .  .  .  .  .  .  .  .  .  .  .
 72
   65
 73
    2
 40
12.7
 49
0
 74
    0
 49
-12.7
 74
    0
  0
LTYPE
  5
36
330
5
100
AcDbSymbolTableRecord
100
AcDbLinetypeTableRecord
  2
DASHED
 70
    0
  3
Dashed _ _ _ _ _ _ _ _ _ _ _ _ _ _ _ _ _
 72
   65
 73
    2
 40
19.05
 49
12.7
 74
    0
 49
-6.35
 74
    0
  0
LTYPE
  5
37
330
5
100
AcDbSymbolTableRecord
100
AcDbLinetypeTableRecord
  2
DASHEDTINY
 70
    0
  3
Dashed (.15x) _ _ _ _ _ _ _ _ _ _ _ _ _ _ _ _ _
 72
   65
 73
    2
 40
2.8575
 49
1.905
 74
    0
 49
-0.9525
 74
    0
  0
LTYPE
  5
38
330
5
100
AcDbSymbolTableRecord
100
AcDbLinetypeTableRecord
  2
DASHED2
 70
    0
  3
Dashed (.5x) _ _ _ _ _ _ _ _ _ _ _ _ _ _ _ _ _
 72
   65
 73
    2
 40
9.524999999999999
 49
6.35
 74
    0
 49
-3.175
 74
    0
  0
LTYPE
  5
39
330
5
100
AcDbSymbolTableRecord
100
AcDbLinetypeTableRecord
  2
DASHEDX2
 70
    0
  3
Dashed (2x) ____  ____  ____  ____  ____  ___
 72
   65
 73
    2
 40
38.09999999999999
 49
25.4
 74
    0
 49
-12.7
 74
    0
  0
LTYPE
  5
3A
330
5
100
AcDbSymbolTableRecord
100
AcDbLinetypeTableRecord
  2
DASHDOT
 70
    0
  3
Dash dot __ . __ . __ . __ . __ . __ . __ . __
 72
   65
 73
    4
 40
25.4
 49
12.7
 74
    0
 49
-6.35
 74
    0
 49
0
 74
    0
 49
-6.35
 74
    0
  0
LTYPE
  5
3B
330
5
100
AcDbSymbolTableRecord
100
AcDbLinetypeTableRecord
  2
DASHDOTTINY
 70
    0
  3
Dash dot (.15x) _._._._._._._._._._._._._._._.
 72
   65
 73
    4
 40
3.81
 49
1.905
 74
    0
 49
-0.9525
 74
    0
 49
0
 74
    0
 49
-0.9525
 74
    0
  0
LTYPE
  5
3C
330
5
100
AcDbSymbolTableRecord
100
AcDbLinetypeTableRecord
  2
DASHDOT2
 70
    0
  3
Dash dot (.5x) _._._._._._._._._._._._._._._.
 72
   65
 73
    4
 40
12.7
 49
6.35
 74
    0
 49
-3.175
 74
    0
 49
0
 74
    0
 49
-3.175
 74
    0
  0
LTYPE
  5
3D
330
5
100
AcDbSymbolTableRecord
100
AcDbLinetypeTableRecord
  2
DASHDOTX2
 70
    0
  3
Dash dot (2x) ____  .  ____  .  ____  .  ___
 72
   65
 73
    4
 40
50.8
 49
25.4
 74
    0
 49
-12.7
 74
    0
 49
0
 74
    0
 49
-12.7
 74
    0
  0
LTYPE
  5
3E
330
5
100
AcDbSymbolTableRecord
100
AcDbLinetypeTableRecord
  2
DIVIDE
 70
    0
  3
Divide ____ . . ____ . . ____ . . ____ . . ____
 72
   65
 73
    6
 40
31.75
 49
12.7
 74
    0
 49
-6.35
 74
    0
 49
0
 74
    0
 49
-6.35
 74
    0
 49
0
 74
    0
 49
-6.35
 74
    0
  0
LTYPE
  5
3F
330
5
100
AcDbSymbolTableRecord
100
AcDbLinetypeTableRecord
  2
DIVIDETINY
 70
    0
  3
Divide (.15x) __..__..__..__..__..__..__..__.._
 72
   65
 73
    6
 40
4.7625
 49
1.905
 74
    0
 49
-0.9525
 74
    0
 49
0
 74
    0
 49
-0.9525
 74
    0
 49
0
 74
    0
 49
-0.9525
 74
    0
  0
LTYPE
  5
40
330
5
100
AcDbSymbolTableRecord
100
AcDbLinetypeTableRecord
  2
DIVIDE2
 70
    0
  3
Divide (.5x) __..__..__..__..__..__..__..__.._
 72
   65
 73
    6
 40
15.875
 49
6.35
 74
    0
 49
-3.175
 74
    0
 49
0
 74
    0
 49
-3.175
 74
    0
 49
0
 74
    0
 49
-3.175
 74
    0
  0
LTYPE
  5
41
330
5
100
AcDbSymbolTableRecord
100
AcDbLinetypeTableRecord
  2
DIVIDEX2
 70
    0
  3
Divide (2x) ________  .  .  ________  .  .  _
 72
   65
 73
    6
 40
63.5
 49
25.4
 74
    0
 49
-12.7
 74
    0
 49
0
 74
    0
 49
-12.7
 74
    0
 49
0
 74
    0
 49
-12.7
 74
    0
  0
LTYPE
  5
42
330
5
100
AcDbSymbolTableRecord
100
AcDbLinetypeTableRecord
  2
BORDER
 70
    0
  3
Border __ __ . __ __ . __ __ . __ __ . __ __ .
 72
   65
 73
    6
 40
44.45
 49
12.7
 74
    0
 49
-6.35
 74
    0
 49
12.7
 74
    0
 49
-6.35
 74
    0
 49
0
 74
    0
 49
-6.35
 74
    0
  0
LTYPE
  5
43
330
5
100
AcDbSymbolTableRecord
100
AcDbLinetypeTableRecord
  2
BORDERTINY
 70
    0
  3
Border (.15x) __.__.__.__.__.__.__.__.__.__.__.
 72
   65
 73
    6
 40
6.6675
 49
1.905
 74
    0
 49
-0.9525
 74
    0
 49
1.905
 74
    0
 49
-0.9525
 74
    0
 49
0
 74
    0
 49
-0.9525
 74
    0
  0
LTYPE
  5
44
330
5
100
AcDbSymbolTableRecord
100
AcDbLinetypeTableRecord
  2
BORDER2
 70
    0
  3
Border (.5x) __.__.__.__.__.__.__.__.__.__.__.
 72
   65
 73
    6
 40
22.225
 49
6.35
 74
    0
 49
-3.175
 74
    0
 49
6.35
 74
    0
 49
-3.175
 74
    0
 49
0
 74
    0
 49
-3.175
 74
    0
  0
LTYPE
  5
45
330
5
100
AcDbSymbolTableRecord
100
AcDbLinetypeTableRecord
  2
BORDERX2
 70
    0
  3
Border (2x) ____  ____  .  ____  ____  .  ___
 72
   65
 73
    6
 40
88.89999999999999
 49
25.4
 74
    0
 49
-12.7
 74
    0
 49
25.4
 74
    0
 49
-12.7
 74
    0
 49
0
 74
    0
 49
-12.7
 74
    0
  0
LTYPE
  5
46
330
5
100
AcDbSymbolTableRecord
100
AcDbLinetypeTableRecord
  2
CENTER
 70
    0
  3
Center ____ _ ____ _ ____ _ ____ _ ____ _ ____
 72
   65
 73
    4
 40
50.8
 49
31.75
 74
    0
 49
-6.35
 74
    0
 49
6.35
 74
    0
 49
-6.35
 74
    0
  0
LTYPE
  5
47
330
5
100
AcDbSymbolTableRecord
100
AcDbLinetypeTableRecord
  2
CENTERTINY
 70
    0
  3
Center (.15x) ___ _ ___ _ ___ _ ___ _ ___ _ ___
 72
   65
 73
    4
 40
7.619999999999999
 49
4.7625
 74
    0
 49
-0.9525
 74
    0
 49
0.9525
 74
    0
 49
-0.9525
 74
    0
  0
LTYPE
  5
48
330
5
100
AcDbSymbolTableRecord
100
AcDbLinetypeTableRecord
  2
CENTER2
 70
    0
  3
Center (.5x) ___ _ ___ _ ___ _ ___ _ ___ _ ___
 72
   65
 73
    4
 40
28.575
 49
19.05
 74
    0
 49
-3.175
 74
    0
 49
3.175
 74
    0
 49
-3.175
 74
    0
  0
LTYPE
  5
49
330
5
100
AcDbSymbolTableRecord
100
AcDbLinetypeTableRecord
  2
CENTERX2
 70
    0
  3
Center (2x) ________  __  ________  __  _____
 72
   65
 73
    4
 40
101.6
 49
63.5
 74
    0
 49
-12.7
 74
    0
 49
12.7
 74
    0
 49
-12.7
 74
    0
  0
ENDTAB
  0
TABLE
  2
LAYER
  5
2
330
0
100
AcDbSymbolTable
 70
    1
  0
LAYER
  5
10
330
2
100
AcDbSymbolTableRecord
100
AcDbLayerTableRecord
  2
0
 70
    0
 62
    7
  6
CONTINUOUS
370
   -3
390
F
  0
LAYER
  5
4A
330
2
100
AcDbSymbolTableRecord
100
AcDbLayerTableRecord
  2
pocket-1.25mm
 70
    0
 62
    4
  6
CONTINUOUS
370
    0
390
F
  0
LAYER
  5
4B
330
2
100
AcDbSymbolTableRecord
100
AcDbLayerTableRecord
  2
profiling
 70
    0
 62
    3
  6
CONTINUOUS
370
    0
390
F
  0
LAYER
  5
4C
330
2
100
AcDbSymbolTableRecord
100
AcDbLayerTableRecord
  2
vcut
 70
    0
 62
    6
  6
CONTINUOUS
370
    0
390
F
  0
ENDTAB
  0
TABLE
  2
STYLE
  5
3
330
0
100
AcDbSymbolTable
 70
    3
  0
STYLE
  5
4D
330
2
100
AcDbSymbolTableRecord
100
AcDbTextStyleTableRecord
  2
Standard
 70
    0
 40
0
 41
1
 50
0
 71
    0
 42
1
  3
txt
  4

  0
ENDTAB
  0
TABLE
  2
VIEW
  5
6
330
0
100
AcDbSymbolTable
 70
    0
  0
ENDTAB
  0
TABLE
  2
UCS
  5
7
330
0
100
AcDbSymbolTable
 70
    0
  0
ENDTAB
  0
TABLE
  2
APPID
  5
9
330
0
100
AcDbSymbolTable
 70
    1
  0
APPID
  5
12
330
9
100
AcDbSymbolTableRecord
100
AcDbRegAppTableRecord
  2
ACAD
 70
    0
  0
APPID
  5
4E
330
9
100
AcDbSymbolTableRecord
100
AcDbRegAppTableRecord
  2
LibreCad
 70
    0
  0
ENDTAB
  0
TABLE
  2
DIMSTYLE
  5
A
330
0
100
AcDbSymbolTable
 70
    1
100
AcDbDimStyleTable
 71
    1
  0
DIMSTYLE
105
4F
330
A
100
AcDbSymbolTableRecord
100
AcDbDimStyleTableRecord
  2
Standard
 70
    0
 40
2.5
 41
2.5
 42
0.625
 43
0.38
 44
1.25
 45
0
 46
0
 47
0
 48
0
 49
1
140
2.5
141
0.09
142
0
143
25.4
144
1
145
0
146
1
147
0.625
148
0
 71
    0
 72
    0
 73
    0
 74
    1
 75
    0
 76
    0
 77
    0
 78
    8
 79
    0
170
    0
171
    2
172
    0
173
    0
174
    0
175
    0
176
    0
177
    0
178
    0
179
    0
271
    2
272
    4
273
    2
274
    2
275
    0
276
    0
277
    2
278
   44
279
    0
280
    0
281
    0
282
    0
283
    1
284
    0
285
    0
286
    0
288
    0
289
    3
340
STANDARD
341

371
   -2
372
   -2
  0
ENDTAB
  0
TABLE
  2
BLOCK_RECORD
  5
1
330
0
100
AcDbSymbolTable
 70
    2
  0
BLOCK_RECORD
  5
1F
330
1
100
AcDbSymbolTableRecord
100
AcDbBlockTableRecord
  2
*Model_Space
 70
    0
280
    1
281
    0
  0
BLOCK_RECORD
  5
1E
330
1
100
AcDbSymbolTableRecord
100
AcDbBlockTableRecord
  2
*Paper_Space
 70
    0
280
    1
281
    0
  0
ENDTAB
  0
ENDSEC
  0
SECTION
  2
BLOCKS
  0
BLOCK
  5
20
330
1F
100
AcDbEntity
  8
0
100
AcDbBlockBegin
  2
*Model_Space
 70
    0
 10
0
 20
0
 30
0
  3
*Model_Space
  1

  0
ENDBLK
  5
21
330
1F
100
AcDbEntity
  8
0
100
AcDbBlockEnd
  0
BLOCK
  5
1C
330
1B
100
AcDbEntity
  8
0
100
AcDbBlockBegin
  2
*Paper_Space
 70
    0
 10
0
 20
0
 30
0
  3
*Paper_Space
  1

  0
ENDBLK
  5
1D
330
1F
100
AcDbEntity
  8
0
100
AcDbBlockEnd
  0
ENDSEC
  0
SECTION
  2
ENTITIES
  0
LWPOLYLINE
  5
50
100
AcDbEntity
  8
pocket-1.25mm
  6
ByLayer
 62
  256
370
   -1
100
AcDbPolyline
 90
   52
 70
    1
 43
0
 10
693.86625
 20
491.60925
 10
694.42575
 20
491.31
 10
694.91625
 20
490.90725
 10
695.319
 20
490.41675
 10
695.61825
 20
489.85725
 10
695.8027499999999
 20
489.24975
 10
695.865
 20
488.61825
 10
695.8027499999999
 20
487.98675
 10
695.61825
 20
487.37925
 10
695.319
 20
486.81975
 10
694.91625
 20
486.32925
 10
694.42575
 20
485.9265
 10
693.86625
 20
485.62725
 10
693.25875
 20
485.44275
 10
692.62725
 20
485.3805
 10
687.90525
 20
485.3805
 10
683.45325
 20
485.3775
 10
681.429
 20
485.43825
 10
679.0875
 20
485.6235
 10
676.5885
 20
485.9205
 10
606.1035000000001
 20
496.68525
 10
603.6285
 20
496.8885
 10
601.48875
 20
496.9605
 10
600.18075
 20
496.97025
 10
595.45875
 20
496.97025
 10
594.82725
 20
497.0325
 10
594.21975
 20
497.217
 10
593.66025
 20
497.51625
 10
593.16975
 20
497.919
 10
592.7670000000001
 20
498.4095
 10
592.46775
 20
498.969
 10
592.28325
 20
499.5765
 10
592.221
 20
500.208
 10
592.28325
 20
500.8395
 10
592.46775
 20
501.447
 10
592.7670000000001
 20
502.0065
 10
593.16975
 20
502.497
 10
593.66025
 20
502.89975
 10
594.21975
 20
503.199
 10
594.82725
 20
503.3835
 10
595.45875
 20
503.44575
 10
600.18075
 20
503.44575
 10
602.0767499999999
 20
503.44575
 10
604.04475
 20
503.3835
 10
606.321
 20
503.2005
 10
676.58775
 20
492.42225
 10
679.0867500000001
 20
492.12
 10
681.42825
 20
491.928
 10
683.4525
 20
491.85975
 10
687.9045
 20
491.856
 10
692.6265
 20
491.856
 10
693.258
 20
491.79375
  0
LWPOLYLINE
  5
51
100
AcDbEntity
  8
profiling
  6
ByLayer
 62
  256
370
   -1
100
AcDbPolyline
 90
  222
 70
    1
 43
0
 10
715.45125
 20
482.81775
 10
715.45125
 20
458.949
 10
715.45125
 20
458.949
 10
715.45125
 20
458.949
 10
715.3035
 20
455.94225
 10
715.3035
 20
455.94225
 10
714.86175
 20
452.96475
 10
714.86175
 20
452.96475
 10
714.1305
 20
450.045
 10
714.1305
 20
450.045
 10
714.1305
 20
450.045
 10
714.1305
 20
450.045
 10
713.1165
 20
447.21075
 10
713.1165
 20
447.21075
 10
711.8295000000001
 20
444.48975
 10
711.8295000000001
 20
444.48975
 10
711.8295000000001
 20
444.48975
 10
711.8295000000001
 20
444.48975
 10
710.28225
 20
441.9075
 10
710.28225
 20
441.9075
 10
710.28225
 20
441.9075
 10
708.489
 20
439.4895
 10
708.489
 20
439.4895
 10
708.489
 20
439.4895
 10
706.467
 20
437.259
 10
706.467
 20
437.259
 10
704.2365
 20
435.23775
 10
704.2365
 20
435.23775
 10
704.2365
 20
435.23775
 10
704.2365
 20
435.23775
 10
701.8185
 20
433.4445
 10
701.8185
 20
433.4445
 10
699.23625
 20
431.89725
 10
699.23625
 20
431.89725
 10
699.23625
 20
431.89725
 10
699.23625
 20
431.89725
 10
696.51525
 20
430.61025
 10
696.51525
 20
430.61025
 10
693.681
 20
429.59625
 10
693.681
 20
429.59625
 10
690.7605
 20
428.865
 10
690.7605
 20
428.865
 10
687.783
 20
428.42325
 10
687.783
 20
428.42325
 10
684.77625
 20
428.2755
 10
684.77625
 20
428.2755
 10
684.77625
 20
428.2755
 10
684.77625
 20
428.2755
 10
599.39625
 20
428.2755
 10
560.30475
 20
428.27625
 10
560.30475
 20
428.27625
 10
559.67025
 20
428.307
 10
559.67025
 20
428.307
 10
559.67025
 20
428.307
 10
559.67025
 20
428.307
 10
559.053
 20
428.39925
 10
559.053
 20
428.39925
 10
558.4589999999999
 20
428.55225
 10
558.4589999999999
 20
428.55225
 10
558.4589999999999
 20
428.55225
 10
558.4589999999999
 20
428.55225
 10
558.4589999999999
 20
428.55225
 10
558.4589999999999
 20
428.55225
 10
558.4589999999999
 20
428.55225
 10
558.4589999999999
 20
428.55225
 10
557.8935
 20
428.7645
 10
557.8935
 20
428.7645
 10
557.3625
 20
429.0345
 10
557.3625
 20
429.0345
 10
557.3625
 20
429.0345
 10
557.3625
 20
429.0345
 10
557.3625
 20
429.0345
 10
556.8705
 20
429.3585
 10
556.8705
 20
429.3585
 10
556.8705
 20
429.3585
 10
556.8705
 20
429.3585
 10
556.42275
 20
429.73425
 10
556.42275
 20
429.73425
 10
556.42275
 20
429.73425
 10
556.42275
 20
429.73425
 10
556.42275
 20
429.73425
 10
556.0237499999999
 20
430.158
 10
556.0237499999999
 20
430.158
 10
555.6765
 20
430.62525
 10
555.6765
 20
430.62525
 10
555.6765
 20
430.62525
 10
555.6765
 20
430.62525
 10
555.3847500000001
 20
431.1315
 10
555.3847500000001
 20
431.1315
 10
555.1515000000001
 20
431.67225
 10
555.1515000000001
 20
431.67225
 10
555.1515000000001
 20
431.67225
 10
555.1515000000001
 20
431.67225
 10
554.979
 20
432.24225
 10
554.979
 20
432.24225
 10
554.979
 20
432.24225
 10
554.979
 20
432.24225
 10
554.86875
 20
432.83625
 10
554.86875
 20
432.83625
 10
554.86875
 20
432.83625
 10
554.86875
 20
432.83625
 10
554.86875
 20
432.83625
 10
554.86875
 20
432.83625
 10
554.8222500000001
 20
433.44825
 10
554.8222500000001
 20
433.44825
 10
554.8395
 20
434.07225
 10
554.8395
 20
434.07225
 10
554.8395
 20
434.07225
 10
554.8395
 20
434.07225
 10
554.8395
 20
434.07225
 10
554.9204999999999
 20
434.70225
 10
554.9204999999999
 20
434.70225
 10
554.9204999999999
 20
434.70225
 10
554.9204999999999
 20
434.70225
 10
563.4825
 20
482.8185
 10
563.4825
 20
482.8185
 10
563.4825
 20
482.8185
 10
564.09525
 20
485.82525
 10
564.09525
 20
485.82525
 10
564.7424999999999
 20
488.80275
 10
564.7424999999999
 20
488.80275
 10
564.7424999999999
 20
488.80275
 10
564.7424999999999
 20
488.80275
 10
565.47375
 20
491.72325
 10
565.47375
 20
491.72325
 10
566.48775
 20
494.5575
 10
566.48775
 20
494.5575
 10
567.77475
 20
497.2785
 10
567.77475
 20
497.2785
 10
567.77475
 20
497.2785
 10
567.77475
 20
497.2785
 10
569.322
 20
499.86075
 10
569.322
 20
499.86075
 10
571.1152499999999
 20
502.27875
 10
571.1152499999999
 20
502.27875
 10
571.1152499999999
 20
502.27875
 10
571.1152499999999
 20
502.27875
 10
571.1152499999999
 20
502.27875
 10
573.1365
 20
504.50925
 10
573.1365
 20
504.50925
 10
573.1365
 20
504.50925
 10
573.1365
 20
504.50925
 10
573.1365
 20
504.50925
 10
575.367
 20
506.5305
 10
575.367
 20
506.5305
 10
575.367
 20
506.5305
 10
577.785
 20
508.32375
 10
577.785
 20
508.32375
 10
577.785
 20
508.32375
 10
580.36725
 20
509.871
 10
580.36725
 20
509.871
 10
583.08825
 20
511.158
 10
583.08825
 20
511.158
 10
583.08825
 20
511.158
 10
583.08825
 20
511.158
 10
585.9225
 20
512.172
 10
585.9225
 20
512.172
 10
588.84225
 20
512.90325
 10
588.84225
 20
512.90325
 10
588.84225
 20
512.90325
 10
588.84225
 20
512.90325
 10
588.84225
 20
512.90325
 10
588.84225
 20
512.90325
 10
588.84225
 20
512.90325
 10
591.81975
 20
513.345
 10
591.81975
 20
513.345
 10
594.8265
 20
513.49275
 10
594.8265
 20
513.49275
 10
594.8265
 20
513.49275
 10
594.8265
 20
513.49275
 10
594.8265
 20
513.49275
 10
599.394
 20
513.49275
 10
599.394
 20
513.49275
 10
684.774
 20
513.49275
 10
684.774
 20
513.49275
 10
684.774
 20
513.49275
 10
684.774
 20
513.49275
 10
687.78075
 20
513.345
 10
687.78075
 20
513.345
 10
690.75825
 20
512.90325
 10
690.75825
 20
512.90325
 10
690.75825
 20
512.90325
 10
690.75825
 20
512.90325
 10
693.67875
 20
512.172
 10
693.67875
 20
512.172
 10
696.513
 20
511.158
 10
696.513
 20
511.158
 10
696.513
 20
511.158
 10
696.513
 20
511.158
 10
699.234
 20
509.871
 10
699.234
 20
509.871
 10
701.81625
 20
508.32375
 10
701.81625
 20
508.32375
 10
701.81625
 20
508.32375
 10
704.23425
 20
506.5305
 10
704.23425
 20
506.5305
 10
704.23425
 20
506.5305
 10
704.23425
 20
506.5305
 10
706.46475
 20
504.50925
 10
706.46475
 20
504.50925
 10
708.486
 20
502.27875
 10
708.486
 20
502.27875
 10
708.486
 20
502.27875
 10
708.486
 20
502.27875
 10
710.27925
 20
499.86075
 10
710.27925
 20
499.86075
 10
710.27925
 20
499.86075
 10
711.8265
 20
497.2785
 10
711.8265
 20
497.2785
 10
713.1135
 20
494.5575
 10
713.1135
 20
494.5575
 10
714.1275000000001
 20
491.72325
 10
714.1275000000001
 20
491.72325
 10
714.85875
 20
488.80275
 10
714.85875
 20
488.80275
 10
714.85875
 20
488.80275
 10
714.85875
 20
488.80275
 10
715.3005000000001
 20
485.82525
 10
715.3005000000001
 20
485.82525
 10
715.44825
 20
482.8185
 10
715.44825
 20
482.8185
 10
715.44825
 20
482.8185
  0
LWPOLYLINE
  5
52
100
AcDbEntity
  8
profiling
  6
ByLayer
 62
  256
370
   -1
100
AcDbPolyline
 90
   35
 70
    1
 43
0
 10
686.787
 20
454.09875
 10
687.69525
 20
454.58475
 10
688.49175
 20
455.238
 10
688.9485
 20
455.7945
 10
689.145
 20
456.0345
 10
689.631
 20
456.94275
 10
689.93025
 20
457.929
 10
690.0315000000001
 20
458.95425
 10
689.93025
 20
459.9795
 10
689.631
 20
460.965
 10
689.145
 20
461.87325
 10
688.49175
 20
462.66975
 10
687.69525
 20
463.323
 10
686.787
 20
463.809
 10
686.787
 20
463.809
 10
685.80075
 20
464.10825
 10
684.7755
 20
464.2095
 10
683.7502500000001
 20
464.10825
 10
682.764
 20
463.809
 10
681.8557499999999
 20
463.323
 10
681.05925
 20
462.66975
 10
680.4059999999999
 20
461.87325
 10
679.92
 20
460.965
 10
679.62075
 20
459.9795
 10
679.5195
 20
458.95425
 10
679.62075
 20
457.929
 10
679.92
 20
456.94275
 10
680.4059999999999
 20
456.0345
 10
681.05925
 20
455.238
 10
681.8557499999999
 20
454.58475
 10
682.764
 20
454.09875
 10
683.7502500000001
 20
453.7995
 10
684.7755
 20
453.69825
 10
685.80075
 20
453.7995
 10
686.787
 20
454.09875
  0
LWPOLYLINE
  5
53
100
AcDbEntity
  8
profiling
  6
ByLayer
 62
  256
370
   -1
100
AcDbPolyline
 90
   36
 70
    1
 43
0
 10
693.86625
 20
485.628
 10
694.42575
 20
485.92725
 10
694.91625
 20
486.33
 10
695.319
 20
486.8205
 10
695.61825
 20
487.38
 10
695.8027499999999
 20
487.9875
 10
695.865
 20
488.619
 10
695.8027499999999
 20
489.2505
 10
695.61825
 20
489.858
 10
695.319
 20
490.4175
 10
695.097
 20
490.6875
 10
694.91625
 20
490.908
 10
694.42575
 20
491.31075
 10
693.86625
 20
491.61
 10
693.25875
 20
491.7945
 10
692.62725
 20
491.85675
 10
687.90525
 20
491.85675
 10
687.2737499999999
 20
491.7945
 10
686.66625
 20
491.61
 10
686.10675
 20
491.31075
 10
685.61625
 20
490.908
 10
685.2135
 20
490.4175
 10
684.91425
 20
489.858
 10
684.72975
 20
489.2505
 10
684.6675
 20
488.619
 10
684.72975
 20
487.9875
 10
684.91425
 20
487.38
 10
685.2135
 20
486.8205
 10
685.61625
 20
486.33
 10
686.10675
 20
485.92725
 10
686.66625
 20
485.628
 10
687.2737499999999
 20
485.4435
 10
687.90525
 20
485.38125
 10
692.62725
 20
485.38125
 10
693.25875
 20
485.4435
 10
693.86625
 20
485.628
  0
LWPOLYLINE
  5
54
100
AcDbEntity
  8
profiling
  6
ByLayer
 62
  256
370
   -1
100
AcDbPolyline
 90
   44
 70
    1
 43
0
 10
706.67475
 20
495.63825
 10
707.03625
 20
495.831
 10
707.35275
 20
496.0905
 10
707.52075
 20
496.2945
 10
707.6130000000001
 20
496.407
 10
707.80575
 20
496.7685
 10
707.92425
 20
497.16
 10
707.96475
 20
497.56725
 10
707.9377500000001
 20
497.84025
 10
707.92425
 20
497.9745
 10
707.8049999999999
 20
498.366
 10
707.61225
 20
498.7275
 10
707.35275
 20
499.044
 10
707.03625
 20
499.3035
 10
706.67475
 20
499.49625
 10
706.6245
 20
499.51125
 10
706.2825
 20
499.61475
 10
706.206
 20
499.62225
 10
705.8752500000001
 20
499.6545
 10
705.468
 20
499.614
 10
705.0765
 20
499.4955
 10
705.0765
 20
499.4955
 10
705.018
 20
499.464
 10
704.715
 20
499.302
 10
704.3985
 20
499.0425
 10
704.139
 20
498.726
 10
703.94625
 20
498.3645
 10
703.827
 20
497.973
 10
703.7865
 20
497.56575
 10
703.827
 20
497.1585
 10
703.827
 20
497.1585
 10
703.8615
 20
497.04525
 10
703.8615
 20
497.04525
 10
703.94625
 20
496.76625
 10
704.139
 20
496.40475
 10
704.3985
 20
496.08825
 10
704.6609999999999
 20
495.873
 10
704.71575
 20
495.828
 10
705.0765
 20
495.63525
 10
705.46875
 20
495.51675
 10
705.876
 20
495.47625
 10
706.28325
 20
495.51675
 10
706.3455
 20
495.5355
 10
706.6755000000001
 20
495.63525
  0
LWPOLYLINE
  5
55
100
AcDbEntity
  8
profiling
  6
ByLayer
 62
  256
370
   -1
100
AcDbPolyline
 90
   36
 70
    1
 43
0
 10
580.1115
 20
494.97225
 10
580.33275
 20
494.9505
 10
580.74
 20
494.991
 10
581.1315
 20
495.1095
 10
581.4930000000001
 20
495.30225
 10
581.8095
 20
495.56175
 10
582.069
 20
495.87825
 10
582.26175
 20
496.23975
 10
582.38025
 20
496.63125
 10
582.42075
 20
497.0385
 10
582.38025
 20
497.44575
 10
582.285
 20
497.76
 10
582.26175
 20
497.838
 10
582.069
 20
498.1995
 10
581.8095
 20
498.516
 10
581.4930000000001
 20
498.7755
 10
581.2619999999999
 20
498.89925
 10
581.13225
 20
498.969
 10
580.74075
 20
499.0875
 10
580.3335
 20
499.128
 10
579.92625
 20
499.0875
 10
579.53475
 20
498.969
 10
579.1732500000001
 20
498.77625
 10
578.85675
 20
498.51675
 10
578.59725
 20
498.20025
 10
578.4045
 20
497.83875
 10
578.2859999999999
 20
497.44725
 10
578.2455
 20
497.04
 10
578.28525
 20
496.63275
 10
578.4037499999999
 20
496.24125
 10
578.5965
 20
495.87975
 10
578.856
 20
495.56325
 10
579.1725
 20
495.30375
 10
579.534
 20
495.111
 10
579.9255000000001
 20
494.9925
 10
580.1115
 20
494.9745
  0
LWPOLYLINE
  5
56
100
AcDbEntity
  8
profiling
  6
ByLayer
 62
  256
370
   -1
100
AcDbPolyline
 90
   44
 70
    1
 43
0
 10
594.80325
 20
497.04
 10
594.828
 20
497.0325
 10
595.4595
 20
496.97025
 10
600.1815
 20
496.97025
 10
600.813
 20
497.0325
 10
600.8362499999999
 20
497.03925
 10
600.83925
 20
497.04
 10
601.4204999999999
 20
497.21625
 10
601.4204999999999
 20
497.21625
 10
601.98
 20
497.5155
 10
602.4705
 20
497.91825
 10
602.87325
 20
498.40875
 10
603.1725
 20
498.96825
 10
603.357
 20
499.57575
 10
603.41925
 20
500.20725
 10
603.357
 20
500.83875
 10
603.1725
 20
501.44625
 10
602.87325
 20
502.00575
 10
602.4705
 20
502.49625
 10
601.98
 20
502.899
 10
601.4204999999999
 20
503.19825
 10
600.813
 20
503.38275
 10
600.1815
 20
503.445
 10
595.4595
 20
503.445
 10
594.828
 20
503.38275
 10
594.2205
 20
503.19825
 10
593.6609999999999
 20
502.899
 10
593.1704999999999
 20
502.49625
 10
592.76775
 20
502.00575
 10
592.73775
 20
501.95025
 10
592.4684999999999
 20
501.44625
 10
592.284
 20
500.83875
 10
592.22175
 20
500.20725
 10
592.284
 20
499.57575
 10
592.4684999999999
 20
498.96825
 10
592.76775
 20
498.40875
 10
593.1704999999999
 20
497.91825
 10
593.6609999999999
 20
497.5155
 10
593.76225
 20
497.4615
 10
593.769
 20
497.45775
 10
594.2205
 20
497.21625
 10
594.80325
 20
497.03925
 10
594.80325
 20
497.03925
 10
594.80325
 20
497.03925
  0
LWPOLYLINE
  5
57
100
AcDbEntity
  8
profiling
  6
ByLayer
 62
  256
370
   -1
100
AcDbPolyline
 90
   78
 70
    1
 43
0
 10
688.96575
 20
432.07875
 10
688.96725
 20
432.08775
 10
688.995
 20
432.276
 10
689.0047499999999
 20
432.4755
 10
689.00175
 20
432.5415
 10
688.995
 20
432.675
 10
688.98525
 20
432.7425
 10
688.96575
 20
432.873
 10
688.917
 20
433.0665
 10
688.8495
 20
433.25475
 10
688.764
 20
433.4355
 10
688.66125
 20
433.6065
 10
688.54275
 20
433.767
 10
688.4085
 20
433.91475
 10
688.26075
 20
434.049
 10
688.10025
 20
434.1675
 10
687.92925
 20
434.27025
 10
687.7485
 20
434.35575
 10
687.561
 20
434.42325
 10
687.3674999999999
 20
434.472
 10
687.17025
 20
434.50125
 10
686.97075
 20
434.511
 10
686.9160000000001
 20
434.508
 10
686.77125
 20
434.50125
 10
686.574
 20
434.472
 10
686.3805
 20
434.42325
 10
686.1922499999999
 20
434.35575
 10
686.0115
 20
434.27025
 10
685.8405
 20
434.1675
 10
685.6799999999999
 20
434.049
 10
685.53225
 20
433.91475
 10
685.53225
 20
433.91475
 10
685.398
 20
433.767
 10
685.2795
 20
433.6065
 10
685.17675
 20
433.4355
 10
685.0912499999999
 20
433.25475
 10
685.0237499999999
 20
433.0665
 10
684.975
 20
432.873
 10
684.96075
 20
432.7785
 10
684.94575
 20
432.67575
 10
684.93825
 20
432.52275
 10
684.936
 20
432.47625
 10
684.936
 20
432.471
 10
684.9405
 20
432.37725
 10
684.94575
 20
432.2775
 10
684.975
 20
432.08025
 10
685.0237499999999
 20
431.88675
 10
685.0912499999999
 20
431.6985
 10
685.1445
 20
431.586
 10
685.17675
 20
431.51775
 10
685.2795
 20
431.34675
 10
685.398
 20
431.18625
 10
685.4880000000001
 20
431.08725
 10
685.53225
 20
431.0385
 10
685.6799999999999
 20
430.90425
 10
685.8405
 20
430.78575
 10
686.0115
 20
430.683
 10
686.1922499999999
 20
430.5975
 10
686.3797499999999
 20
430.53
 10
686.57325
 20
430.48125
 10
686.7705
 20
430.452
 10
686.97
 20
430.44225
 10
687.1695
 20
430.452
 10
687.1815
 20
430.4535
 10
687.36675
 20
430.48125
 10
687.56025
 20
430.53
 10
687.74775
 20
430.5975
 10
687.9285
 20
430.683
 10
688.0995
 20
430.78575
 10
688.26
 20
430.90425
 10
688.40775
 20
431.0385
 10
688.542
 20
431.18625
 10
688.55325
 20
431.20125
 10
688.66125
 20
431.34675
 10
688.764
 20
431.51775
 10
688.8495
 20
431.6985
 10
688.917
 20
431.88675
 10
688.96575
 20
432.08025
  0
LWPOLYLINE
  5
58
100
AcDbEntity
  8
profiling
  6
ByLayer
 62
  256
370
   -1
100
AcDbPolyline
 90
   37
 70
    1
 43
0
 10
566.388
 20
441.63675
 10
566.6475
 20
441.95325
 10
566.769
 20
442.18125
 10
566.84025
 20
442.31475
 10
566.95875
 20
442.70625
 10
566.99925
 20
443.1135
 10
566.95875
 20
443.52075
 10
566.84025
 20
443.91225
 10
566.6475
 20
444.27375
 10
566.388
 20
444.59025
 10
566.0715
 20
444.84975
 10
565.71075
 20
445.0425
 10
565.3185
 20
445.161
 10
564.91125
 20
445.2015
 10
564.504
 20
445.161
 10
564.1125
 20
445.0425
 10
563.751
 20
444.84975
 10
563.46075
 20
444.61125
 10
563.4345
 20
444.5895
 10
563.175
 20
444.273
 10
562.98225
 20
443.9115
 10
562.90125
 20
443.64525
 10
562.87125
 20
443.547
 10
562.8630000000001
 20
443.51925
 10
562.8225
 20
443.112
 10
562.8630000000001
 20
442.70475
 10
562.9815
 20
442.31325
 10
563.17425
 20
441.95175
 10
563.43375
 20
441.63525
 10
563.7502500000001
 20
441.37575
 10
564.11175
 20
441.183
 10
564.50325
 20
441.0645
 10
564.9105
 20
441.024
 10
565.31775
 20
441.0645
 10
565.71
 20
441.183
 10
566.07075
 20
441.37575
 10
566.38725
 20
441.63525
  0
LWPOLYLINE
  5
59
100
AcDbEntity
  8
profiling
  6
ByLayer
 62
  256
370
   -1
100
AcDbPolyline
 90
   37
 70
    1
 43
0
 10
613.3747499999999
 20
506.8725
 10
612.9675
 20
506.832
 10
612.576
 20
506.7135
 10
612.2145
 20
506.52075
 10
611.898
 20
506.26125
 10
611.6385
 20
505.94475
 10
611.44575
 20
505.58325
 10
611.32725
 20
505.19175
 10
611.28675
 20
504.7845
 10
611.32725
 20
504.37725
 10
611.3745
 20
504.22275
 10
611.4465
 20
503.98575
 10
611.6392499999999
 20
503.62425
 10
611.8987499999999
 20
503.30775
 10
612.21525
 20
503.04825
 10
612.5767499999999
 20
502.8555
 10
612.96825
 20
502.737
 10
613.3755
 20
502.6965
 10
613.78275
 20
502.737
 10
614.175
 20
502.8555
 10
614.53575
 20
503.04825
 10
614.85225
 20
503.30775
 10
615.11175
 20
503.62425
 10
615.3045
 20
503.98575
 10
615.423
 20
504.37725
 10
615.4635
 20
504.7845
 10
615.423
 20
505.19175
 10
615.3367500000001
 20
505.47525
 10
615.30375
 20
505.584
 10
615.111
 20
505.9455
 10
614.8515
 20
506.262
 10
614.535
 20
506.5215
 10
614.17425
 20
506.71425
 10
613.99275
 20
506.76975
 10
613.78275
 20
506.8335
 10
613.5345
 20
506.85825
 10
613.3755
 20
506.874
  0
ENDSEC
  0
SECTION
  2
OBJECTS
  0
DICTIONARY
  5
C
330
0
100
AcDbDictionary
281
    1
  3
ACAD_GROUP
350
D
  0
DICTIONARY
  5
D
330
C
100
AcDbDictionary
281
    1
  0
ENDSEC
  0
EOF
