999
dxfrw 0.6.3
  0
SECTION
  2
HEADER
  9
$ACADVER
  1
AC1021
  9
$DWGCODEPAGE
  3
ANSI_1252
  9
$INSBASE
 10
0
 20
0
 30
0
  9
$EXTMIN
 10
553.11825
 20
566.66925
 30
0
  9
$EXTMAX
 10
741.876
 20
651.8865
 30
0
  9
$LIMMIN
 10
0
 20
0
  9
$LIMMAX
 10
420
 20
297
  9
$ORTHOMODE
 70
    0
  9
$REGENMODE
 70
    1
  9
$FILLMODE
 70
    1
  9
$QTEXTMODE
 70
    0
  9
$MIRRTEXT
 70
    0
  9
$LTSCALE
 40
1
  9
$ATTMODE
 70
    0
  9
$TEXTSIZE
 40
2.5
  9
$TRACEWID
 40
15.68
  9
$TEXTSTYLE
  7
STANDARD
  9
$CLAYER
  8
pocket-1.25mm
  9
$CELTYPE
  6
BYLAYER
  9
$CECOLOR
 62
  256
  9
$CELTSCALE
 40
1
  9
$DISPSILH
 70
    0
  9
$DIMSCALE
 40
2.5
  9
$DIMASZ
 40
2.5
  9
$DIMEXO
 40
0.625
  9
$DIMDLI
 40
3.75
  9
$DIMRND
 40
0
  9
$DIMDLE
 40
0
  9
$DIMEXE
 40
1.25
  9
$DIMTP
 40
0
  9
$DIMTM
 40
0
  9
$DIMTXT
 40
2.5
  9
$DIMCEN
 40
2.5
  9
$DIMTSZ
 40
0
  9
$DIMTOL
 70
    0
  9
$DIMLIM
 70
    0
  9
$DIMTIH
 70
    0
  9
$DIMTOH
 70
    0
  9
$DIMSE1
 70
    0
  9
$DIMSE2
 70
    0
  9
$DIMTAD
 70
    1
  9
$DIMZIN
 70
    8
  9
$DIMBLK
  1

  9
$DIMASO
 70
    1
  9
$DIMSHO
 70
    1
  9
$DIMPOST
  1

  9
$DIMAPOST
  1

  9
$DIMALT
 70
    0
  9
$DIMALTD
 70
    3
  9
$DIMALTF
 40
0.03937
  9
$DIMLFAC
 40
1
  9
$DIMTOFL
 70
    1
  9
$DIMTVP
 40
0
  9
$DIMTIX
 70
    0
  9
$DIMSOXD
 70
    0
  9
$DIMSAH
 70
    0
  9
$DIMBLK1
  1

  9
$DIMBLK2
  1

  9
$DIMSTYLE
  2
Standard
  9
$DIMCLRD
 70
    0
  9
$DIMCLRE
 70
    0
  9
$DIMCLRT
 70
    0
  9
$DIMTFAC
 40
1
  9
$DIMGAP
 40
0.625
  9
$DIMJUST
 70
    0
  9
$DIMSD1
 70
    0
  9
$DIMSD2
 70
    0
  9
$DIMTOLJ
 70
    0
  9
$DIMTZIN
 70
    8
  9
$DIMALTZ
 70
    0
  9
$DIMALTTZ
 70
    0
  9
$DIMUPT
 70
    0
  9
$DIMDEC
 70
    2
  9
$DIMTDEC
 70
    2
  9
$DIMALTU
 70
    2
  9
$DIMALTTD
 70
    3
  9
$DIMTXSTY
  7
STANDARD
  9
$DIMAUNIT
 70
    0
  9
$DIMADEC
 70
    0
  9
$DIMALTRND
 40
0
  9
$DIMAZIN
 70
    0
  9
$DIMDSEP
 70
   44
  9
$DIMATFIT
 70
    3
  9
$DIMFRAC
 70
    0
  9
$DIMLDRBLK
  1
STANDARD
  9
$DIMLUNIT
 70
    2
  9
$DIMLWD
 70
   -2
  9
$DIMLWE
 70
   -2
  9
$DIMTMOVE
 70
    0
  9
$DIMFXL
 40
1
  9
$DIMFXLON
 70
    0
  9
$DIMJOGANG
 40
0.7854
  9
$DIMTFILL
 70
    0
  9
$DIMTFILLCLR
 70
    0
  9
$DIMARCSYM
 70
    0
  9
$DIMLTYPE
  6

  9
$DIMLTEX1
  6

  9
$DIMLTEX2
  6

  9
$LUNITS
 70
    2
  9
$LUPREC
 70
    4
  9
$SKETCHINC
 40
1
  9
$FILLETRAD
 40
0
  9
$AUNITS
 70
    0
  9
$AUPREC
 70
    2
  9
$MENU
  1
.
  9
$ELEVATION
 40
0
  9
$PELEVATION
 40
0
  9
$THICKNESS
 40
0
  9
$LIMCHECK
 70
    0
  9
$CHAMFERA
 40
0
  9
$CHAMFERB
 40
0
  9
$CHAMFERC
 40
0
  9
$CHAMFERD
 40
0
  9
$SKPOLY
 70
    0
  9
$USRTIMER
 70
    1
  9
$ANGBASE
 50
0
  9
$ANGDIR
 70
    0
  9
$PDMODE
 70
   34
  9
$PDSIZE
 40
0
  9
$PLINEWID
 40
0
  9
$SPLFRAME
 70
    0
  9
$SPLINETYPE
 70
    2
  9
$SPLINESEGS
 70
    8
  9
$HANDSEED
  5
20000
  9
$SURFTAB1
 70
    6
  9
$SURFTAB2
 70
    6
  9
$SURFTYPE
 70
    6
  9
$SURFU
 70
    6
  9
$SURFV
 70
    6
  9
$UCSBASE
  2

  9
$UCSNAME
  2

  9
$UCSORG
 10
0
 20
0
 30
0
  9
$UCSXDIR
 10
1
 20
0
 30
0
  9
$UCSYDIR
 10
0
 20
1
 30
0
  9
$UCSORTHOREF
  2

  9
$UCSORTHOVIEW
 70
    0
  9
$UCSORGTOP
 10
0
 20
0
 30
0
  9
$UCSORGBOTTOM
 10
0
 20
0
 30
0
  9
$UCSORGLEFT
 10
0
 20
0
 30
0
  9
$UCSORGRIGHT
 10
0
 20
0
 30
0
  9
$UCSORGFRONT
 10
0
 20
0
 30
0
  9
$UCSORGBACK
 10
0
 20
0
 30
0
  9
$PUCSBASE
  2

  9
$PUCSNAME
  2

  9
$PUCSORG
 10
0
 20
0
 30
0
  9
$PUCSXDIR
 10
1
 20
0
 30
0
  9
$PUCSYDIR
 10
0
 20
1
 30
0
  9
$PUCSORTHOREF
  2

  9
$PUCSORTHOVIEW
 70
    0
  9
$PUCSORGTOP
 10
0
 20
0
 30
0
  9
$PUCSORGBOTTOM
 10
0
 20
0
 30
0
  9
$PUCSORGLEFT
 10
0
 20
0
 30
0
  9
$PUCSORGRIGHT
 10
0
 20
0
 30
0
  9
$PUCSORGFRONT
 10
0
 20
0
 30
0
  9
$PUCSORGBACK
 10
0
 20
0
 30
0
  9
$USERI1
 70
    0
  9
$USERI2
 70
    0
  9
$USERI3
 70
    0
  9
$USERI4
 70
    0
  9
$USERI5
 70
    0
  9
$USERR1
 40
0
  9
$USERR2
 40
0
  9
$USERR3
 40
0
  9
$USERR4
 40
0
  9
$USERR5
 40
0
  9
$WORLDVIEW
 70
    1
  9
$SHADEDGE
 70
    3
  9
$SHADEDIF
 70
   70
  9
$TILEMODE
 70
    1
  9
$MAXACTVP
 70
   64
  9
$PINSBASE
 10
0
 20
0
 30
0
  9
$PLIMCHECK
 70
    0
  9
$PEXTMIN
 10
0
 20
0
 30
0
  9
$PEXTMAX
 10
0
 20
0
 30
0
  9
$GRIDMODE
 70
    0
  9
$SNAPSTYLE
 70
    0
  9
$PLIMMIN
 10
0
 20
0
  9
$PLIMMAX
 10
210
 20
297
  9
$UNITMODE
 70
    0
  9
$VISRETAIN
 70
    1
  9
$PLINEGEN
 70
    0
  9
$PSLTSCALE
 70
    1
  9
$TREEDEPTH
 70
 3020
  9
$CMLSTYLE
  2
Standard
  9
$CMLJUST
 70
    0
  9
$CMLSCALE
 40
20
  9
$PROXYGRAPHICS
 70
    1
  9
$MEASUREMENT
 70
    1
  9
$CELWEIGHT
370
   -1
  9
$ENDCAPS
280
    0
  9
$JOINSTYLE
280
    0
  9
$LWDISPLAY
290
    0
  9
$INSUNITS
 70
    4
  9
$HYPERLINKBASE
  1

  9
$STYLESHEET
  1

  9
$XEDIT
290
    1
  9
$CEPSNTYPE
380
    0
  9
$PSTYLEMODE
290
    1
  9
$EXTNAMES
290
    1
  9
$PSVPSCALE
 40
1
  9
$OLESTARTUP
290
    0
  9
$SORTENTS
280
  127
  9
$INDEXCTL
280
    0
  9
$HIDETEXT
280
    1
  9
$XCLIPFRAME
290
    0
  9
$HALOGAP
280
    0
  9
$OBSCOLOR
 70
  257
  9
$OBSLTYPE
280
    0
  9
$INTERSECTIONDISPLAY
280
    0
  9
$INTERSECTIONCOLOR
 70
  257
  9
$DIMASSOC
280
    1
  9
$PROJECTNAME
  1

  9
$CAMERADISPLAY
290
    0
  9
$LENSLENGTH
 40
50
  9
$CAMERAHEIGHT
 40
0
  9
$STEPSPERSEC
 40
2
  9
$STEPSIZE
 40
50
  9
$3DDWFPREC
 40
2
  9
$PSOLWIDTH
 40
5
  9
$PSOLHEIGHT
 40
80
  9
$LOFTANG1
 40
1.570796326794897
  9
$LOFTANG2
 40
1.570796326794897
  9
$LOFTMAG1
 40
0
  9
$LOFTMAG2
 40
0
  9
$LOFTPARAM
 70
    7
  9
$LOFTNORMALS
280
    1
  9
$LATITUDE
 40
1
  9
$LONGITUDE
 40
1
  9
$NORTHDIRECTION
 40
0
  9
$TIMEZONE
 70
-8000
  9
$LIGHTGLYPHDISPLAY
280
    1
  9
$TILEMODELIGHTSYNCH
280
    1
  9
$SOLIDHIST
280
    1
  9
$SHOWHIST
280
    1
  9
$DWFFRAME
280
    2
  9
$DGNFRAME
280
    0
  9
$REALWORLDSCALE
290
    1
  9
$INTERFERECOLOR
 62
    1
  9
$CSHADOW
280
    0
  9
$SHADOWPLANELOCATION
 40
0
  0
ENDSEC
  0
SECTION
  2
CLASSES
  0
ENDSEC
  0
SECTION
  2
TABLES
  0
TABLE
  2
VPORT
  5
8
330
0
100
AcDbSymbolTable
 70
    1
  0
VPORT
  5
31
330
2
100
AcDbSymbolTableRecord
100
AcDbViewportTableRecord
  2
*ACTIVE
 70
    0
 10
0
 20
0
 11
1
 21
1
 12
403.6410039143565
 22
333.6580597189892
 13
0
 23
0
 14
10
 24
10
 15
10
 25
10
 16
0
 26
0
 36
1
 17
0
 27
0
 37
0
 40
327.9087526887749
 41
0.9866989117291415
 42
50
 43
0
 44
0
 50
0
 51
0
 71
    0
 72
  100
 73
    1
 74
    3
 75
    0
 76
    0
 77
    0
 78
    0
281
    0
 65
    1
110
0
120
0
130
0
111
1
121
0
131
0
112
0
122
1
132
0
 79
    0
146
0
348
10020
 60
    7
 61
    5
292
1
282
    1
141
0
142
0
 63
  250
421
3358443
  0
ENDTAB
  0
TABLE
  2
LTYPE
  5
5
330
0
100
AcDbSymbolTable
 70
    4
  0
LTYPE
  5
14
330
5
100
AcDbSymbolTableRecord
100
AcDbLinetypeTableRecord
  2
ByBlock
 70
    0
  3

 72
   65
 73
    0
 40
0
  0
LTYPE
  5
15
330
5
100
AcDbSymbolTableRecord
100
AcDbLinetypeTableRecord
  2
ByLayer
 70
    0
  3

 72
   65
 73
    0
 40
0
  0
LTYPE
  5
16
330
5
100
AcDbSymbolTableRecord
100
AcDbLinetypeTableRecord
  2
Continuous
 70
    0
  3
Solid line
 72
   65
 73
    0
 40
0
  0
LTYPE
  5
32
330
5
100
AcDbSymbolTableRecord
100
AcDbLinetypeTableRecord
  2
DOT
 70
    0
  3
Dot . . . . . . . . . . . . . . . . . . . . . .
 72
   65
 73
    2
 40
6.35
 49
0
 74
    0
 49
-6.35
 74
    0
  0
LTYPE
  5
33
330
5
100
AcDbSymbolTableRecord
100
AcDbLinetypeTableRecord
  2
DOTTINY
 70
    0
  3
Dot (.15x) .....................................
 72
   65
 73
    2
 40
0.9525
 49
0
 74
    0
 49
-0.9525
 74
    0
  0
LTYPE
  5
34
330
5
100
AcDbSymbolTableRecord
100
AcDbLinetypeTableRecord
  2
DOT2
 70
    0
  3
Dot (.5x) .....................................
 72
   65
 73
    2
 40
3.175
 49
0
 74
    0
 49
-3.175
 74
    0
  0
LTYPE
  5
35
330
5
100
AcDbSymbolTableRecord
100
AcDbLinetypeTableRecord
  2
DOTX2
 70
    0
  3
Dot (2x) .  .  .  .  .  .  .  .  .  .  .  .  .
 72
   65
 73
    2
 40
12.7
 49
0
 74
    0
 49
-12.7
 74
    0
  0
LTYPE
  5
36
330
5
100
AcDbSymbolTableRecord
100
AcDbLinetypeTableRecord
  2
DASHED
 70
    0
  3
Dashed _ _ _ _ _ _ _ _ _ _ _ _ _ _ _ _ _
 72
   65
 73
    2
 40
19.05
 49
12.7
 74
    0
 49
-6.35
 74
    0
  0
LTYPE
  5
37
330
5
100
AcDbSymbolTableRecord
100
AcDbLinetypeTableRecord
  2
DASHEDTINY
 70
    0
  3
Dashed (.15x) _ _ _ _ _ _ _ _ _ _ _ _ _ _ _ _ _
 72
   65
 73
    2
 40
2.8575
 49
1.905
 74
    0
 49
-0.9525
 74
    0
  0
LTYPE
  5
38
330
5
100
AcDbSymbolTableRecord
100
AcDbLinetypeTableRecord
  2
DASHED2
 70
    0
  3
Dashed (.5x) _ _ _ _ _ _ _ _ _ _ _ _ _ _ _ _ _
 72
   65
 73
    2
 40
9.524999999999999
 49
6.35
 74
    0
 49
-3.175
 74
    0
  0
LTYPE
  5
39
330
5
100
AcDbSymbolTableRecord
100
AcDbLinetypeTableRecord
  2
DASHEDX2
 70
    0
  3
Dashed (2x) ____  ____  ____  ____  ____  ___
 72
   65
 73
    2
 40
38.09999999999999
 49
25.4
 74
    0
 49
-12.7
 74
    0
  0
LTYPE
  5
3A
330
5
100
AcDbSymbolTableRecord
100
AcDbLinetypeTableRecord
  2
DASHDOT
 70
    0
  3
Dash dot __ . __ . __ . __ . __ . __ . __ . __
 72
   65
 73
    4
 40
25.4
 49
12.7
 74
    0
 49
-6.35
 74
    0
 49
0
 74
    0
 49
-6.35
 74
    0
  0
LTYPE
  5
3B
330
5
100
AcDbSymbolTableRecord
100
AcDbLinetypeTableRecord
  2
DASHDOTTINY
 70
    0
  3
Dash dot (.15x) _._._._._._._._._._._._._._._.
 72
   65
 73
    4
 40
3.81
 49
1.905
 74
    0
 49
-0.9525
 74
    0
 49
0
 74
    0
 49
-0.9525
 74
    0
  0
LTYPE
  5
3C
330
5
100
AcDbSymbolTableRecord
100
AcDbLinetypeTableRecord
  2
DASHDOT2
 70
    0
  3
Dash dot (.5x) _._._._._._._._._._._._._._._.
 72
   65
 73
    4
 40
12.7
 49
6.35
 74
    0
 49
-3.175
 74
    0
 49
0
 74
    0
 49
-3.175
 74
    0
  0
LTYPE
  5
3D
330
5
100
AcDbSymbolTableRecord
100
AcDbLinetypeTableRecord
  2
DASHDOTX2
 70
    0
  3
Dash dot (2x) ____  .  ____  .  ____  .  ___
 72
   65
 73
    4
 40
50.8
 49
25.4
 74
    0
 49
-12.7
 74
    0
 49
0
 74
    0
 49
-12.7
 74
    0
  0
LTYPE
  5
3E
330
5
100
AcDbSymbolTableRecord
100
AcDbLinetypeTableRecord
  2
DIVIDE
 70
    0
  3
Divide ____ . . ____ . . ____ . . ____ . . ____
 72
   65
 73
    6
 40
31.75
 49
12.7
 74
    0
 49
-6.35
 74
    0
 49
0
 74
    0
 49
-6.35
 74
    0
 49
0
 74
    0
 49
-6.35
 74
    0
  0
LTYPE
  5
3F
330
5
100
AcDbSymbolTableRecord
100
AcDbLinetypeTableRecord
  2
DIVIDETINY
 70
    0
  3
Divide (.15x) __..__..__..__..__..__..__..__.._
 72
   65
 73
    6
 40
4.7625
 49
1.905
 74
    0
 49
-0.9525
 74
    0
 49
0
 74
    0
 49
-0.9525
 74
    0
 49
0
 74
    0
 49
-0.9525
 74
    0
  0
LTYPE
  5
40
330
5
100
AcDbSymbolTableRecord
100
AcDbLinetypeTableRecord
  2
DIVIDE2
 70
    0
  3
Divide (.5x) __..__..__..__..__..__..__..__.._
 72
   65
 73
    6
 40
15.875
 49
6.35
 74
    0
 49
-3.175
 74
    0
 49
0
 74
    0
 49
-3.175
 74
    0
 49
0
 74
    0
 49
-3.175
 74
    0
  0
LTYPE
  5
41
330
5
100
AcDbSymbolTableRecord
100
AcDbLinetypeTableRecord
  2
DIVIDEX2
 70
    0
  3
Divide (2x) ________  .  .  ________  .  .  _
 72
   65
 73
    6
 40
63.5
 49
25.4
 74
    0
 49
-12.7
 74
    0
 49
0
 74
    0
 49
-12.7
 74
    0
 49
0
 74
    0
 49
-12.7
 74
    0
  0
LTYPE
  5
42
330
5
100
AcDbSymbolTableRecord
100
AcDbLinetypeTableRecord
  2
BORDER
 70
    0
  3
Border __ __ . __ __ . __ __ . __ __ . __ __ .
 72
   65
 73
    6
 40
44.45
 49
12.7
 74
    0
 49
-6.35
 74
    0
 49
12.7
 74
    0
 49
-6.35
 74
    0
 49
0
 74
    0
 49
-6.35
 74
    0
  0
LTYPE
  5
43
330
5
100
AcDbSymbolTableRecord
100
AcDbLinetypeTableRecord
  2
BORDERTINY
 70
    0
  3
Border (.15x) __.__.__.__.__.__.__.__.__.__.__.
 72
   65
 73
    6
 40
6.6675
 49
1.905
 74
    0
 49
-0.9525
 74
    0
 49
1.905
 74
    0
 49
-0.9525
 74
    0
 49
0
 74
    0
 49
-0.9525
 74
    0
  0
LTYPE
  5
44
330
5
100
AcDbSymbolTableRecord
100
AcDbLinetypeTableRecord
  2
BORDER2
 70
    0
  3
Border (.5x) __.__.__.__.__.__.__.__.__.__.__.
 72
   65
 73
    6
 40
22.225
 49
6.35
 74
    0
 49
-3.175
 74
    0
 49
6.35
 74
    0
 49
-3.175
 74
    0
 49
0
 74
    0
 49
-3.175
 74
    0
  0
LTYPE
  5
45
330
5
100
AcDbSymbolTableRecord
100
AcDbLinetypeTableRecord
  2
BORDERX2
 70
    0
  3
Border (2x) ____  ____  .  ____  ____  .  ___
 72
   65
 73
    6
 40
88.89999999999999
 49
25.4
 74
    0
 49
-12.7
 74
    0
 49
25.4
 74
    0
 49
-12.7
 74
    0
 49
0
 74
    0
 49
-12.7
 74
    0
  0
LTYPE
  5
46
330
5
100
AcDbSymbolTableRecord
100
AcDbLinetypeTableRecord
  2
CENTER
 70
    0
  3
Center ____ _ ____ _ ____ _ ____ _ ____ _ ____
 72
   65
 73
    4
 40
50.8
 49
31.75
 74
    0
 49
-6.35
 74
    0
 49
6.35
 74
    0
 49
-6.35
 74
    0
  0
LTYPE
  5
47
330
5
100
AcDbSymbolTableRecord
100
AcDbLinetypeTableRecord
  2
CENTERTINY
 70
    0
  3
Center (.15x) ___ _ ___ _ ___ _ ___ _ ___ _ ___
 72
   65
 73
    4
 40
7.619999999999999
 49
4.7625
 74
    0
 49
-0.9525
 74
    0
 49
0.9525
 74
    0
 49
-0.9525
 74
    0
  0
LTYPE
  5
48
330
5
100
AcDbSymbolTableRecord
100
AcDbLinetypeTableRecord
  2
CENTER2
 70
    0
  3
Center (.5x) ___ _ ___ _ ___ _ ___ _ ___ _ ___
 72
   65
 73
    4
 40
28.575
 49
19.05
 74
    0
 49
-3.175
 74
    0
 49
3.175
 74
    0
 49
-3.175
 74
    0
  0
LTYPE
  5
49
330
5
100
AcDbSymbolTableRecord
100
AcDbLinetypeTableRecord
  2
CENTERX2
 70
    0
  3
Center (2x) ________  __  ________  __  _____
 72
   65
 73
    4
 40
101.6
 49
63.5
 74
    0
 49
-12.7
 74
    0
 49
12.7
 74
    0
 49
-12.7
 74
    0
  0
ENDTAB
  0
TABLE
  2
LAYER
  5
2
330
0
100
AcDbSymbolTable
 70
    1
  0
LAYER
  5
10
330
2
100
AcDbSymbolTableRecord
100
AcDbLayerTableRecord
  2
0
 70
    0
 62
    7
  6
CONTINUOUS
370
   -3
390
F
  0
LAYER
  5
4A
330
2
100
AcDbSymbolTableRecord
100
AcDbLayerTableRecord
  2
pocket-1.25mm
 70
    0
 62
    4
  6
CONTINUOUS
370
    0
390
F
  0
LAYER
  5
4B
330
2
100
AcDbSymbolTableRecord
100
AcDbLayerTableRecord
  2
profiling
 70
    0
 62
    3
  6
CONTINUOUS
370
    0
390
F
  0
LAYER
  5
4C
330
2
100
AcDbSymbolTableRecord
100
AcDbLayerTableRecord
  2
vcut
 70
    0
 62
    6
  6
CONTINUOUS
370
    0
390
F
  0
ENDTAB
  0
TABLE
  2
STYLE
  5
3
330
0
100
AcDbSymbolTable
 70
    3
  0
STYLE
  5
4D
330
2
100
AcDbSymbolTableRecord
100
AcDbTextStyleTableRecord
  2
Standard
 70
    0
 40
0
 41
1
 50
0
 71
    0
 42
1
  3
txt
  4

  0
ENDTAB
  0
TABLE
  2
VIEW
  5
6
330
0
100
AcDbSymbolTable
 70
    0
  0
ENDTAB
  0
TABLE
  2
UCS
  5
7
330
0
100
AcDbSymbolTable
 70
    0
  0
ENDTAB
  0
TABLE
  2
APPID
  5
9
330
0
100
AcDbSymbolTable
 70
    1
  0
APPID
  5
12
330
9
100
AcDbSymbolTableRecord
100
AcDbRegAppTableRecord
  2
ACAD
 70
    0
  0
APPID
  5
4E
330
9
100
AcDbSymbolTableRecord
100
AcDbRegAppTableRecord
  2
LibreCad
 70
    0
  0
ENDTAB
  0
TABLE
  2
DIMSTYLE
  5
A
330
0
100
AcDbSymbolTable
 70
    1
100
AcDbDimStyleTable
 71
    1
  0
DIMSTYLE
105
4F
330
A
100
AcDbSymbolTableRecord
100
AcDbDimStyleTableRecord
  2
Standard
 70
    0
 40
2.5
 41
2.5
 42
0.625
 43
0.38
 44
1.25
 45
0
 46
0
 47
0
 48
0
 49
1
140
2.5
141
0.09
142
0
143
25.4
144
1
145
0
146
1
147
0.625
148
0
 71
    0
 72
    0
 73
    0
 74
    1
 75
    0
 76
    0
 77
    0
 78
    8
 79
    0
170
    0
171
    2
172
    0
173
    0
174
    0
175
    0
176
    0
177
    0
178
    0
179
    0
271
    2
272
    4
273
    2
274
    2
275
    0
276
    0
277
    2
278
   44
279
    0
280
    0
281
    0
282
    0
283
    1
284
    0
285
    0
286
    0
288
    0
289
    3
340
STANDARD
341

371
   -2
372
   -2
  0
ENDTAB
  0
TABLE
  2
BLOCK_RECORD
  5
1
330
0
100
AcDbSymbolTable
 70
    2
  0
BLOCK_RECORD
  5
1F
330
1
100
AcDbSymbolTableRecord
100
AcDbBlockTableRecord
  2
*Model_Space
 70
    0
280
    1
281
    0
  0
BLOCK_RECORD
  5
1E
330
1
100
AcDbSymbolTableRecord
100
AcDbBlockTableRecord
  2
*Paper_Space
 70
    0
280
    1
281
    0
  0
ENDTAB
  0
ENDSEC
  0
SECTION
  2
BLOCKS
  0
BLOCK
  5
20
330
1F
100
AcDbEntity
  8
0
100
AcDbBlockBegin
  2
*Model_Space
 70
    0
 10
0
 20
0
 30
0
  3
*Model_Space
  1

  0
ENDBLK
  5
21
330
1F
100
AcDbEntity
  8
0
100
AcDbBlockEnd
  0
BLOCK
  5
1C
330
1B
100
AcDbEntity
  8
0
100
AcDbBlockBegin
  2
*Paper_Space
 70
    0
 10
0
 20
0
 30
0
  3
*Paper_Space
  1

  0
ENDBLK
  5
1D
330
1F
100
AcDbEntity
  8
0
100
AcDbBlockEnd
  0
ENDSEC
  0
SECTION
  2
ENTITIES
  0
LWPOLYLINE
  5
50
100
AcDbEntity
  8
pocket-1.25mm
  6
ByLayer
 62
  256
370
   -1
100
AcDbPolyline
 90
   52
 70
    1
 43
0
 10
720.29025
 20
594.54225
 10
720.84975
 20
594.2430000000001
 10
721.34025
 20
593.84025
 10
721.7430000000001
 20
593.34975
 10
722.04225
 20
592.79025
 10
722.22675
 20
592.1827500000001
 10
722.289
 20
591.55125
 10
722.22675
 20
590.91975
 10
722.04225
 20
590.3122499999999
 10
721.7430000000001
 20
589.75275
 10
721.34025
 20
589.26225
 10
720.84975
 20
588.8595
 10
720.29025
 20
588.56025
 10
719.6827500000001
 20
588.37575
 10
719.05125
 20
588.3135
 10
714.32925
 20
588.3135
 10
712.6515000000001
 20
588.3105
 10
710.62725
 20
588.37125
 10
708.28575
 20
588.5565
 10
705.78675
 20
588.8535000000001
 10
635.8785
 20
599.61825
 10
633.4035
 20
599.8215
 10
631.2645
 20
599.8935
 10
626.6055
 20
599.90325
 10
621.8835
 20
599.90325
 10
621.252
 20
599.9655
 10
620.6445
 20
600.15
 10
620.085
 20
600.44925
 10
619.5945
 20
600.852
 10
619.19175
 20
601.3425
 10
618.8925
 20
601.902
 10
618.708
 20
602.5095
 10
618.64575
 20
603.141
 10
618.708
 20
603.7725
 10
618.8925
 20
604.38
 10
619.19175
 20
604.9395
 10
619.5945
 20
605.4299999999999
 10
620.085
 20
605.83275
 10
620.6445
 20
606.1319999999999
 10
621.252
 20
606.3165
 10
621.8835
 20
606.37875
 10
626.6055
 20
606.37875
 10
631.8525
 20
606.37875
 10
633.8205
 20
606.3165
 10
636.09675
 20
606.1335
 10
705.78675
 20
595.35525
 10
708.28575
 20
595.053
 10
710.62725
 20
594.861
 10
712.6515000000001
 20
594.79275
 10
714.32925
 20
594.789
 10
719.05125
 20
594.789
 10
719.6827500000001
 20
594.72675
  0
LWPOLYLINE
  5
51
100
AcDbEntity
  8
profiling
  6
ByLayer
 62
  256
370
   -1
100
AcDbPolyline
 90
  270
 70
    1
 43
0
 10
609.513
 20
569.00325
 10
609.513
 20
569.00325
 10
609.513
 20
569.00325
 10
609.513
 20
569.00325
 10
606.792
 20
570.29025
 10
606.792
 20
570.29025
 10
604.20975
 20
571.8375
 10
604.20975
 20
571.8375
 10
604.20975
 20
571.8375
 10
604.20975
 20
571.8375
 10
604.20975
 20
571.8375
 10
601.79175
 20
573.63075
 10
601.79175
 20
573.63075
 10
601.79175
 20
573.63075
 10
599.56125
 20
575.652
 10
599.56125
 20
575.652
 10
599.56125
 20
575.652
 10
599.56125
 20
575.652
 10
599.56125
 20
575.652
 10
597.54
 20
577.8825000000001
 10
597.54
 20
577.8825000000001
 10
597.54
 20
577.8825000000001
 10
595.74675
 20
580.3005000000001
 10
595.74675
 20
580.3005000000001
 10
594.1994999999999
 20
582.88275
 10
594.1994999999999
 20
582.88275
 10
594.1994999999999
 20
582.88275
 10
594.1994999999999
 20
582.88275
 10
592.9125
 20
585.60375
 10
592.9125
 20
585.60375
 10
591.8985
 20
588.438
 10
591.8985
 20
588.438
 10
591.16725
 20
591.3585
 10
591.16725
 20
591.3585
 10
591.16725
 20
591.3585
 10
591.16725
 20
591.3585
 10
590.52
 20
594.336
 10
590.52
 20
594.336
 10
589.90725
 20
597.34275
 10
589.90725
 20
597.34275
 10
589.90725
 20
597.34275
 10
588.9465
 20
602.742
 10
561.603
 20
602.742
 10
561.603
 20
602.742
 10
560.95725
 20
602.77275
 10
560.95725
 20
602.77275
 10
560.3055000000001
 20
602.865
 10
560.3055000000001
 20
602.865
 10
559.6545
 20
603.018
 10
559.6545
 20
603.018
 10
559.01025
 20
603.23025
 10
559.01025
 20
603.23025
 10
558.3795
 20
603.4995
 10
558.3795
 20
603.4995
 10
557.7675
 20
603.82275
 10
557.7675
 20
603.82275
 10
557.181
 20
604.19775
 10
557.181
 20
604.19775
 10
556.6252500000001
 20
604.62
 10
556.6252500000001
 20
604.62
 10
556.1055
 20
605.08575
 10
556.1055
 20
605.08575
 10
555.62625
 20
605.5912499999999
 10
555.62625
 20
605.5912499999999
 10
555.19275
 20
606.1305
 10
555.19275
 20
606.1305
 10
554.8095
 20
606.699
 10
554.8095
 20
606.699
 10
554.4795
 20
607.2915
 10
554.4795
 20
607.2915
 10
554.2065
 20
607.902
 10
554.2065
 20
607.902
 10
553.99275
 20
608.5245
 10
553.99275
 20
608.5245
 10
553.8405
 20
609.153
 10
553.8405
 20
609.153
 10
553.17525
 20
612.606
 10
553.17525
 20
612.606
 10
553.17525
 20
612.606
 10
553.17525
 20
612.606
 10
553.131
 20
612.91875
 10
553.131
 20
612.91875
 10
553.11825
 20
613.2285000000001
 10
553.11825
 20
613.2285000000001
 10
553.1369999999999
 20
613.53225
 10
553.1369999999999
 20
613.53225
 10
553.188
 20
613.827
 10
553.188
 20
613.827
 10
553.26975
 20
614.1105
 10
553.26975
 20
614.1105
 10
553.38225
 20
614.379
 10
553.38225
 20
614.379
 10
553.524
 20
614.63025
 10
553.524
 20
614.63025
 10
553.6935
 20
614.86275
 10
553.6935
 20
614.86275
 10
553.8892499999999
 20
615.0735
 10
553.8892499999999
 20
615.0735
 10
554.10975
 20
615.26025
 10
554.10975
 20
615.26025
 10
554.35275
 20
615.4215
 10
554.35275
 20
615.4215
 10
554.6152499999999
 20
615.55575
 10
554.6152499999999
 20
615.55575
 10
554.895
 20
615.6615
 10
554.895
 20
615.6615
 10
555.18975
 20
615.73725
 10
555.18975
 20
615.73725
 10
555.4965
 20
615.783
 10
555.4965
 20
615.783
 10
555.8122499999999
 20
615.798
 10
555.8122499999999
 20
615.798
 10
586.6252500000001
 20
615.798
 10
581.34675
 20
645.45975
 10
581.34675
 20
645.45975
 10
581.34675
 20
645.45975
 10
581.34675
 20
645.45975
 10
581.26575
 20
646.08975
 10
581.26575
 20
646.08975
 10
581.26575
 20
646.08975
 10
581.26575
 20
646.08975
 10
581.2485
 20
646.71375
 10
581.2485
 20
646.71375
 10
581.295
 20
647.32575
 10
581.295
 20
647.32575
 10
581.40525
 20
647.91975
 10
581.40525
 20
647.91975
 10
581.40525
 20
647.91975
 10
581.57775
 20
648.48975
 10
581.57775
 20
648.48975
 10
581.811
 20
649.0305
 10
581.811
 20
649.0305
 10
582.10275
 20
649.53675
 10
582.10275
 20
649.53675
 10
582.10275
 20
649.53675
 10
582.10275
 20
649.53675
 10
582.45
 20
650.004
 10
582.45
 20
650.004
 10
582.849
 20
650.4277499999999
 10
582.849
 20
650.4277499999999
 10
582.849
 20
650.4277499999999
 10
582.849
 20
650.4277499999999
 10
583.29675
 20
650.8035
 10
583.29675
 20
650.8035
 10
583.29675
 20
650.8035
 10
583.29675
 20
650.8035
 10
583.7887500000001
 20
651.1275000000001
 10
583.7887500000001
 20
651.1275000000001
 10
583.7887500000001
 20
651.1275000000001
 10
583.7887500000001
 20
651.1275000000001
 10
584.31975
 20
651.3975
 10
584.31975
 20
651.3975
 10
584.88525
 20
651.60975
 10
584.88525
 20
651.60975
 10
584.88525
 20
651.60975
 10
584.88525
 20
651.60975
 10
584.88525
 20
651.60975
 10
585.47925
 20
651.76275
 10
585.47925
 20
651.76275
 10
586.0965
 20
651.855
 10
586.0965
 20
651.855
 10
586.731
 20
651.88575
 10
586.731
 20
651.88575
 10
625.8225
 20
651.8865
 10
711.2025
 20
651.8865
 10
711.2025
 20
651.8865
 10
711.2025
 20
651.8865
 10
714.20925
 20
651.73875
 10
714.20925
 20
651.73875
 10
714.20925
 20
651.73875
 10
717.18675
 20
651.297
 10
717.18675
 20
651.297
 10
720.1065
 20
650.56575
 10
720.1065
 20
650.56575
 10
722.94075
 20
649.55175
 10
722.94075
 20
649.55175
 10
725.66175
 20
648.26475
 10
725.66175
 20
648.26475
 10
725.66175
 20
648.26475
 10
725.66175
 20
648.26475
 10
728.244
 20
646.7175
 10
728.244
 20
646.7175
 10
730.662
 20
644.92425
 10
730.662
 20
644.92425
 10
730.662
 20
644.92425
 10
730.662
 20
644.92425
 10
732.8925
 20
642.903
 10
732.8925
 20
642.903
 10
734.9137500000001
 20
640.6725
 10
734.9137500000001
 20
640.6725
 10
734.9137500000001
 20
640.6725
 10
736.707
 20
638.2545
 10
736.707
 20
638.2545
 10
736.707
 20
638.2545
 10
738.25425
 20
635.67225
 10
738.25425
 20
635.67225
 10
738.25425
 20
635.67225
 10
738.25425
 20
635.67225
 10
739.54125
 20
632.95125
 10
739.54125
 20
632.95125
 10
740.55525
 20
630.117
 10
740.55525
 20
630.117
 10
740.55525
 20
630.117
 10
740.55525
 20
630.117
 10
741.2865
 20
627.1965
 10
741.2865
 20
627.1965
 10
741.72825
 20
624.2190000000001
 10
741.72825
 20
624.2190000000001
 10
741.876
 20
621.21225
 10
741.876
 20
621.21225
 10
741.876
 20
621.21225
 10
741.876
 20
597.3434999999999
 10
741.876
 20
597.3434999999999
 10
741.72825
 20
594.3367500000001
 10
741.72825
 20
594.3367500000001
 10
741.2865
 20
591.35925
 10
741.2865
 20
591.35925
 10
741.2865
 20
591.35925
 10
740.55525
 20
588.43875
 10
740.55525
 20
588.43875
 10
740.55525
 20
588.43875
 10
740.55525
 20
588.43875
 10
739.54125
 20
585.6045
 10
739.54125
 20
585.6045
 10
738.25425
 20
582.8835
 10
738.25425
 20
582.8835
 10
738.25425
 20
582.8835
 10
738.25425
 20
582.8835
 10
736.707
 20
580.30125
 10
736.707
 20
580.30125
 10
736.707
 20
580.30125
 10
734.9137500000001
 20
577.88325
 10
734.9137500000001
 20
577.88325
 10
732.89175
 20
575.65275
 10
732.89175
 20
575.65275
 10
730.66125
 20
573.6315
 10
730.66125
 20
573.6315
 10
730.66125
 20
573.6315
 10
728.24325
 20
571.83825
 10
728.24325
 20
571.83825
 10
728.24325
 20
571.83825
 10
725.6609999999999
 20
570.2910000000001
 10
725.6609999999999
 20
570.2910000000001
 10
722.9400000000001
 20
569.004
 10
722.9400000000001
 20
569.004
 10
722.9400000000001
 20
569.004
 10
722.9400000000001
 20
569.004
 10
720.1057499999999
 20
567.99
 10
720.1057499999999
 20
567.99
 10
717.18525
 20
567.25875
 10
717.18525
 20
567.25875
 10
717.18525
 20
567.25875
 10
717.18525
 20
567.25875
 10
714.20775
 20
566.817
 10
714.20775
 20
566.817
 10
711.201
 20
566.66925
 10
711.201
 20
566.66925
 10
711.201
 20
566.66925
 10
621.2535
 20
566.66925
 10
621.2535
 20
566.66925
 10
621.2535
 20
566.66925
 10
618.24675
 20
566.817
 10
618.24675
 20
566.817
 10
615.2692500000001
 20
567.25875
 10
615.2692500000001
 20
567.25875
 10
615.2692500000001
 20
567.25875
 10
615.2692500000001
 20
567.25875
 10
612.3495
 20
567.99
 10
612.3495
 20
567.99
 10
609.51525
 20
569.004
  0
LWPOLYLINE
  5
52
100
AcDbEntity
  8
profiling
  6
ByLayer
 62
  256
370
   -1
100
AcDbPolyline
 90
   37
 70
    1
 43
0
 10
619.59375
 20
605.4299999999999
 10
619.191
 20
604.9395
 10
618.89175
 20
604.38
 10
618.70725
 20
603.7725
 10
618.645
 20
603.141
 10
618.684
 20
602.7465
 10
618.70725
 20
602.5095
 10
618.89175
 20
601.902
 10
619.191
 20
601.3425
 10
619.59375
 20
600.852
 10
620.08425
 20
600.44925
 10
620.64375
 20
600.15
 10
620.77725
 20
600.1095
 10
621.25125
 20
599.9655
 10
621.88275
 20
599.90325
 10
626.60475
 20
599.90325
 10
627.23625
 20
599.9655
 10
627.84375
 20
600.15
 10
628.40325
 20
600.44925
 10
628.89375
 20
600.852
 10
629.2965
 20
601.3425
 10
629.59575
 20
601.902
 10
629.78025
 20
602.5095
 10
629.8425
 20
603.141
 10
629.78025
 20
603.7725
 10
629.59575
 20
604.38
 10
629.2965
 20
604.9395
 10
628.89375
 20
605.4299999999999
 10
628.40325
 20
605.83275
 10
627.84375
 20
606.1319999999999
 10
627.23625
 20
606.3165
 10
626.60475
 20
606.37875
 10
621.88275
 20
606.37875
 10
621.25125
 20
606.3165
 10
620.64375
 20
606.1319999999999
 10
620.08425
 20
605.83275
 10
619.59375
 20
605.4299999999999
  0
LWPOLYLINE
  5
53
100
AcDbEntity
  8
profiling
  6
ByLayer
 62
  256
370
   -1
100
AcDbPolyline
 90
   36
 70
    1
 43
0
 10
711.1994999999999
 20
615.9517499999999
 10
712.22475
 20
616.053
 10
713.211
 20
616.35225
 10
714.11925
 20
616.8375
 10
714.91575
 20
617.49075
 10
715.569
 20
618.28725
 10
716.0549999999999
 20
619.1955
 10
716.35425
 20
620.18175
 10
716.36475
 20
620.28525
 10
716.4555
 20
621.207
 10
716.35425
 20
622.23225
 10
716.0549999999999
 20
623.2184999999999
 10
715.569
 20
624.12675
 10
714.91575
 20
624.9232500000001
 10
714.41925
 20
625.3305
 10
714.11925
 20
625.5765
 10
713.211
 20
626.06175
 10
712.22475
 20
626.361
 10
711.1994999999999
 20
626.46225
 10
710.17425
 20
626.361
 10
709.4115
 20
626.13
 10
709.18875
 20
626.0625
 10
708.2805
 20
625.5765
 10
707.484
 20
624.9232500000001
 10
706.83075
 20
624.12675
 10
706.34475
 20
623.2184999999999
 10
706.0454999999999
 20
622.23225
 10
705.94425
 20
621.207
 10
706.0454999999999
 20
620.18175
 10
706.34475
 20
619.1955
 10
706.83075
 20
618.28725
 10
707.484
 20
617.49075
 10
708.2805
 20
616.8375
 10
709.18875
 20
616.35225
 10
710.175
 20
616.053
 10
711.20025
 20
615.9517499999999
  0
LWPOLYLINE
  5
54
100
AcDbEntity
  8
profiling
  6
ByLayer
 62
  256
370
   -1
100
AcDbPolyline
 90
   35
 70
    1
 43
0
 10
711.1537499999999
 20
592.1835
 10
711.0915
 20
591.552
 10
711.1537499999999
 20
590.9204999999999
 10
711.33825
 20
590.313
 10
711.6375
 20
589.7535
 10
712.04025
 20
589.263
 10
712.53075
 20
588.86025
 10
713.09025
 20
588.561
 10
713.69775
 20
588.3765
 10
714.32925
 20
588.31425
 10
719.05125
 20
588.31425
 10
719.6827500000001
 20
588.3765
 10
720.29025
 20
588.561
 10
720.84975
 20
588.86025
 10
721.34025
 20
589.263
 10
721.7430000000001
 20
589.7535
 10
722.04225
 20
590.313
 10
722.22675
 20
590.9204999999999
 10
722.289
 20
591.552
 10
722.22675
 20
592.1835
 10
722.04225
 20
592.7910000000001
 10
721.7430000000001
 20
593.3505
 10
721.34025
 20
593.841
 10
720.84975
 20
594.24375
 10
720.29025
 20
594.543
 10
719.6827500000001
 20
594.7275
 10
719.05125
 20
594.78975
 10
714.32925
 20
594.78975
 10
713.69775
 20
594.7275
 10
713.09025
 20
594.543
 10
712.53075
 20
594.24375
 10
712.04025
 20
593.841
 10
711.6375
 20
593.3505
 10
711.33825
 20
592.7910000000001
 10
711.1537499999999
 20
592.1835
  0
LWPOLYLINE
  5
55
100
AcDbEntity
  8
profiling
  6
ByLayer
 62
  256
370
   -1
100
AcDbPolyline
 90
   35
 70
    1
 43
0
 10
608.2335
 20
584.5995
 10
607.917
 20
584.859
 10
607.5555000000001
 20
585.05175
 10
607.164
 20
585.17025
 10
606.75675
 20
585.21075
 10
606.3495
 20
585.17025
 10
605.958
 20
585.05175
 10
605.5965
 20
584.859
 10
605.28
 20
584.5995
 10
605.0205
 20
584.283
 10
604.82775
 20
583.92225
 10
604.70925
 20
583.53075
 10
604.66875
 20
583.1235
 10
604.70925
 20
582.7162499999999
 10
604.82775
 20
582.32475
 10
605.0205
 20
581.9640000000001
 10
605.28
 20
581.6475
 10
605.5965
 20
581.388
 10
605.958
 20
581.19525
 10
606.3495
 20
581.076
 10
606.75675
 20
581.0355
 10
607.164
 20
581.076
 10
607.5555000000001
 20
581.19525
 10
607.89825
 20
581.379
 10
607.91625
 20
581.38875
 10
608.0385
 20
581.48925
 10
608.23275
 20
581.64825
 10
608.49225
 20
581.96475
 10
608.6849999999999
 20
582.3255
 10
608.8035
 20
582.717
 10
608.8440000000001
 20
583.12425
 10
608.8035
 20
583.5315000000001
 10
608.6849999999999
 20
583.923
 10
608.49225
 20
584.2837500000001
 10
608.23275
 20
584.60025
  0
LWPOLYLINE
  5
56
100
AcDbEntity
  8
profiling
  6
ByLayer
 62
  256
370
   -1
100
AcDbPolyline
 90
   39
 70
    1
 43
0
 10
639.798
 20
577.467
 10
639.39075
 20
577.4265
 10
638.99925
 20
577.308
 10
638.6385
 20
577.1152499999999
 10
638.322
 20
576.8557499999999
 10
638.0625
 20
576.53925
 10
637.86975
 20
576.1777499999999
 10
637.75125
 20
575.78625
 10
637.75125
 20
575.78625
 10
637.74225
 20
575.6985
 10
637.71075
 20
575.37825
 10
637.75125
 20
574.971
 10
637.86975
 20
574.5795000000001
 10
638.0625
 20
574.218
 10
638.322
 20
573.9015000000001
 10
638.6385
 20
573.6420000000001
 10
638.99925
 20
573.44925
 10
639.39075
 20
573.33
 10
639.798
 20
573.2895
 10
640.0125
 20
573.3105
 10
640.20525
 20
573.32925
 10
640.59675
 20
573.4485
 10
640.95825
 20
573.64125
 10
641.27475
 20
573.90075
 10
641.53425
 20
574.21725
 10
641.727
 20
574.57875
 10
641.8455
 20
574.97025
 10
641.886
 20
575.3775000000001
 10
641.85975
 20
575.64225
 10
641.8455
 20
575.78475
 10
641.727
 20
576.17625
 10
641.53425
 20
576.53775
 10
641.27475
 20
576.85425
 10
641.27475
 20
576.85425
 10
641.0835
 20
577.01175
 10
640.95825
 20
577.1145
 10
640.59675
 20
577.30725
 10
640.20525
 20
577.42575
 10
639.798
 20
577.4662499999999
  0
LWPOLYLINE
  5
57
100
AcDbEntity
  8
profiling
  6
ByLayer
 62
  256
370
   -1
100
AcDbPolyline
 90
   36
 70
    1
 43
0
 10
730.3785
 20
581.77725
 10
730.5622499999999
 20
581.43375
 10
730.68075
 20
581.28975
 10
730.8225
 20
581.11725
 10
731.139
 20
580.85775
 10
731.4997499999999
 20
580.665
 10
731.89125
 20
580.54575
 10
732.2985
 20
580.506
 10
732.70575
 20
580.54575
 10
733.09725
 20
580.665
 10
733.458
 20
580.85775
 10
733.7745
 20
581.11725
 10
734.034
 20
581.43375
 10
734.22675
 20
581.79525
 10
734.34525
 20
582.18675
 10
734.38575
 20
582.5940000000001
 10
734.34525
 20
583.00125
 10
734.22675
 20
583.3935
 10
734.034
 20
583.75425
 10
733.7745
 20
584.07075
 10
733.458
 20
584.33025
 10
733.09725
 20
584.523
 10
732.70575
 20
584.6415
 10
732.2985
 20
584.682
 10
731.89125
 20
584.6415
 10
731.4997499999999
 20
584.523
 10
731.139
 20
584.33025
 10
730.8225
 20
584.07075
 10
730.72275
 20
583.94925
 10
730.5622499999999
 20
583.75425
 10
730.3695
 20
583.3935
 10
730.2502500000001
 20
583.00125
 10
730.20975
 20
582.5940000000001
 10
730.2502500000001
 20
582.18675
 10
730.3695
 20
581.79525
 10
730.3785
 20
581.778
  0
LWPOLYLINE
  5
58
100
AcDbEntity
  8
profiling
  6
ByLayer
 62
  256
370
   -1
100
AcDbPolyline
 90
   34
 70
    1
 43
0
 10
592.134
 20
635.1180000000001
 10
592.4955
 20
635.31075
 10
592.812
 20
635.57025
 10
593.0715
 20
635.88675
 10
593.2642499999999
 20
636.24825
 10
593.38275
 20
636.63975
 10
593.4232500000001
 20
637.047
 10
593.41125
 20
637.1685
 10
593.38275
 20
637.45425
 10
593.2642499999999
 20
637.84575
 10
593.0715
 20
638.20725
 10
592.812
 20
638.5237499999999
 10
592.4955
 20
638.78325
 10
592.134
 20
638.976
 10
591.7424999999999
 20
639.0945
 10
591.33525
 20
639.135
 10
590.928
 20
639.0945
 10
590.53575
 20
638.976
 10
590.175
 20
638.78325
 10
589.8585
 20
638.5237499999999
 10
589.599
 20
638.20725
 10
589.40625
 20
637.84575
 10
589.28775
 20
637.45425
 10
589.24725
 20
637.047
 10
589.28775
 20
636.63975
 10
589.40625
 20
636.24825
 10
589.599
 20
635.88675
 10
589.8585
 20
635.57025
 10
590.175
 20
635.31075
 10
590.53575
 20
635.1180000000001
 10
590.928
 20
634.9995
 10
591.33525
 20
634.95975
 10
591.7424999999999
 20
634.9995
 10
592.134
 20
635.1180000000001
  0
LWPOLYLINE
  5
59
100
AcDbEntity
  8
profiling
  6
ByLayer
 62
  256
370
   -1
100
AcDbPolyline
 90
   78
 70
    1
 43
0
 10
712.8045
 20
645.7402499999999
 10
712.998
 20
645.6915
 10
713.19525
 20
645.66225
 10
713.39475
 20
645.6525
 10
713.59425
 20
645.66225
 10
713.7915
 20
645.6915
 10
713.985
 20
645.7402499999999
 10
714.10875
 20
645.7845
 10
714.1725
 20
645.807
 10
714.35325
 20
645.8925
 10
714.5242500000001
 20
645.9952500000001
 10
714.68475
 20
646.11375
 10
714.8325
 20
646.248
 10
714.96675
 20
646.39575
 10
715.07175
 20
646.5375
 10
715.086
 20
646.55625
 10
715.101
 20
646.5817500000001
 10
715.18875
 20
646.72725
 10
715.2742500000001
 20
646.90725
 10
715.278
 20
646.9185
 10
715.341
 20
647.09475
 10
715.356
 20
647.15625
 10
715.389
 20
647.2882499999999
 10
715.4182499999999
 20
647.4855
 10
715.428
 20
647.6849999999999
 10
715.4182499999999
 20
647.8845
 10
715.389
 20
648.0817500000001
 10
715.377
 20
648.1305
 10
715.341
 20
648.27525
 10
715.30125
 20
648.3855
 10
715.2735
 20
648.46275
 10
715.188
 20
648.64275
 10
715.08525
 20
648.81375
 10
714.966
 20
648.97425
 10
714.8317500000001
 20
649.122
 10
714.684
 20
649.25625
 10
714.5235
 20
649.3747499999999
 10
714.3525
 20
649.4775
 10
714.17175
 20
649.563
 10
713.9835
 20
649.6305
 10
713.79
 20
649.67925
 10
713.70825
 20
649.69125
 10
713.592
 20
649.7085
 10
713.3925
 20
649.71825
 10
713.193
 20
649.7085
 10
712.99575
 20
649.67925
 10
712.80225
 20
649.6305
 10
712.80225
 20
649.6305
 10
712.61475
 20
649.563
 10
712.434
 20
649.4775
 10
712.434
 20
649.4775
 10
712.263
 20
649.3747499999999
 10
712.1025
 20
649.25625
 10
711.95475
 20
649.122
 10
711.8205
 20
648.97425
 10
711.70125
 20
648.81375
 10
711.5984999999999
 20
648.64275
 10
711.513
 20
648.46275
 10
711.4455
 20
648.2745
 10
711.39675
 20
648.081
 10
711.3674999999999
 20
647.88375
 10
711.35775
 20
647.68425
 10
711.3674999999999
 20
647.48475
 10
711.37425
 20
647.43975
 10
711.39675
 20
647.2875
 10
711.4455
 20
647.0940000000001
 10
711.513
 20
646.90575
 10
711.5984999999999
 20
646.7257499999999
 10
711.70125
 20
646.55475
 10
711.8205
 20
646.3942500000001
 10
711.95475
 20
646.2465
 10
712.1025
 20
646.11225
 10
712.2525000000001
 20
646.00125
 10
712.263
 20
645.99375
 10
712.40025
 20
645.91125
 10
712.43475
 20
645.891
 10
712.6155
 20
645.8055000000001
 10
712.803
 20
645.7380000000001
  0
ENDSEC
  0
SECTION
  2
OBJECTS
  0
DICTIONARY
  5
C
330
0
100
AcDbDictionary
281
    1
  3
ACAD_GROUP
350
D
  0
DICTIONARY
  5
D
330
C
100
AcDbDictionary
281
    1
  0
ENDSEC
  0
EOF
