999
dxfrw 0.6.3
  0
SECTION
  2
HEADER
  9
$ACADVER
  1
AC1021
  9
$DWGCODEPAGE
  3
ANSI_1252
  9
$INSBASE
 10
0
 20
0
 30
0
  9
$EXTMIN
 10
413.94825
 20
429.4035
 30
0
  9
$EXTMAX
 10
548.46225
 20
514.62075
 30
0
  9
$LIMMIN
 10
0
 20
0
  9
$LIMMAX
 10
420
 20
297
  9
$ORTHOMODE
 70
    0
  9
$REGENMODE
 70
    1
  9
$FILLMODE
 70
    1
  9
$QTEXTMODE
 70
    0
  9
$MIRRTEXT
 70
    0
  9
$LTSCALE
 40
1
  9
$ATTMODE
 70
    0
  9
$TEXTSIZE
 40
2.5
  9
$TRACEWID
 40
15.68
  9
$TEXTSTYLE
  7
STANDARD
  9
$CLAYER
  8
pocket-1.25mm
  9
$CELTYPE
  6
BYLAYER
  9
$CECOLOR
 62
  256
  9
$CELTSCALE
 40
1
  9
$DISPSILH
 70
    0
  9
$DIMSCALE
 40
2.5
  9
$DIMASZ
 40
2.5
  9
$DIMEXO
 40
0.625
  9
$DIMDLI
 40
3.75
  9
$DIMRND
 40
0
  9
$DIMDLE
 40
0
  9
$DIMEXE
 40
1.25
  9
$DIMTP
 40
0
  9
$DIMTM
 40
0
  9
$DIMTXT
 40
2.5
  9
$DIMCEN
 40
2.5
  9
$DIMTSZ
 40
0
  9
$DIMTOL
 70
    0
  9
$DIMLIM
 70
    0
  9
$DIMTIH
 70
    0
  9
$DIMTOH
 70
    0
  9
$DIMSE1
 70
    0
  9
$DIMSE2
 70
    0
  9
$DIMTAD
 70
    1
  9
$DIMZIN
 70
    8
  9
$DIMBLK
  1

  9
$DIMASO
 70
    1
  9
$DIMSHO
 70
    1
  9
$DIMPOST
  1

  9
$DIMAPOST
  1

  9
$DIMALT
 70
    0
  9
$DIMALTD
 70
    3
  9
$DIMALTF
 40
0.03937
  9
$DIMLFAC
 40
1
  9
$DIMTOFL
 70
    1
  9
$DIMTVP
 40
0
  9
$DIMTIX
 70
    0
  9
$DIMSOXD
 70
    0
  9
$DIMSAH
 70
    0
  9
$DIMBLK1
  1

  9
$DIMBLK2
  1

  9
$DIMSTYLE
  2
Standard
  9
$DIMCLRD
 70
    0
  9
$DIMCLRE
 70
    0
  9
$DIMCLRT
 70
    0
  9
$DIMTFAC
 40
1
  9
$DIMGAP
 40
0.625
  9
$DIMJUST
 70
    0
  9
$DIMSD1
 70
    0
  9
$DIMSD2
 70
    0
  9
$DIMTOLJ
 70
    0
  9
$DIMTZIN
 70
    8
  9
$DIMALTZ
 70
    0
  9
$DIMALTTZ
 70
    0
  9
$DIMUPT
 70
    0
  9
$DIMDEC
 70
    2
  9
$DIMTDEC
 70
    2
  9
$DIMALTU
 70
    2
  9
$DIMALTTD
 70
    3
  9
$DIMTXSTY
  7
STANDARD
  9
$DIMAUNIT
 70
    0
  9
$DIMADEC
 70
    0
  9
$DIMALTRND
 40
0
  9
$DIMAZIN
 70
    0
  9
$DIMDSEP
 70
   44
  9
$DIMATFIT
 70
    3
  9
$DIMFRAC
 70
    0
  9
$DIMLDRBLK
  1
STANDARD
  9
$DIMLUNIT
 70
    2
  9
$DIMLWD
 70
   -2
  9
$DIMLWE
 70
   -2
  9
$DIMTMOVE
 70
    0
  9
$DIMFXL
 40
1
  9
$DIMFXLON
 70
    0
  9
$DIMJOGANG
 40
0.7854
  9
$DIMTFILL
 70
    0
  9
$DIMTFILLCLR
 70
    0
  9
$DIMARCSYM
 70
    0
  9
$DIMLTYPE
  6

  9
$DIMLTEX1
  6

  9
$DIMLTEX2
  6

  9
$LUNITS
 70
    2
  9
$LUPREC
 70
    4
  9
$SKETCHINC
 40
1
  9
$FILLETRAD
 40
0
  9
$AUNITS
 70
    0
  9
$AUPREC
 70
    2
  9
$MENU
  1
.
  9
$ELEVATION
 40
0
  9
$PELEVATION
 40
0
  9
$THICKNESS
 40
0
  9
$LIMCHECK
 70
    0
  9
$CHAMFERA
 40
0
  9
$CHAMFERB
 40
0
  9
$CHAMFERC
 40
0
  9
$CHAMFERD
 40
0
  9
$SKPOLY
 70
    0
  9
$USRTIMER
 70
    1
  9
$ANGBASE
 50
0
  9
$ANGDIR
 70
    0
  9
$PDMODE
 70
   34
  9
$PDSIZE
 40
0
  9
$PLINEWID
 40
0
  9
$SPLFRAME
 70
    0
  9
$SPLINETYPE
 70
    2
  9
$SPLINESEGS
 70
    8
  9
$HANDSEED
  5
20000
  9
$SURFTAB1
 70
    6
  9
$SURFTAB2
 70
    6
  9
$SURFTYPE
 70
    6
  9
$SURFU
 70
    6
  9
$SURFV
 70
    6
  9
$UCSBASE
  2

  9
$UCSNAME
  2

  9
$UCSORG
 10
0
 20
0
 30
0
  9
$UCSXDIR
 10
1
 20
0
 30
0
  9
$UCSYDIR
 10
0
 20
1
 30
0
  9
$UCSORTHOREF
  2

  9
$UCSORTHOVIEW
 70
    0
  9
$UCSORGTOP
 10
0
 20
0
 30
0
  9
$UCSORGBOTTOM
 10
0
 20
0
 30
0
  9
$UCSORGLEFT
 10
0
 20
0
 30
0
  9
$UCSORGRIGHT
 10
0
 20
0
 30
0
  9
$UCSORGFRONT
 10
0
 20
0
 30
0
  9
$UCSORGBACK
 10
0
 20
0
 30
0
  9
$PUCSBASE
  2

  9
$PUCSNAME
  2

  9
$PUCSORG
 10
0
 20
0
 30
0
  9
$PUCSXDIR
 10
1
 20
0
 30
0
  9
$PUCSYDIR
 10
0
 20
1
 30
0
  9
$PUCSORTHOREF
  2

  9
$PUCSORTHOVIEW
 70
    0
  9
$PUCSORGTOP
 10
0
 20
0
 30
0
  9
$PUCSORGBOTTOM
 10
0
 20
0
 30
0
  9
$PUCSORGLEFT
 10
0
 20
0
 30
0
  9
$PUCSORGRIGHT
 10
0
 20
0
 30
0
  9
$PUCSORGFRONT
 10
0
 20
0
 30
0
  9
$PUCSORGBACK
 10
0
 20
0
 30
0
  9
$USERI1
 70
    0
  9
$USERI2
 70
    0
  9
$USERI3
 70
    0
  9
$USERI4
 70
    0
  9
$USERI5
 70
    0
  9
$USERR1
 40
0
  9
$USERR2
 40
0
  9
$USERR3
 40
0
  9
$USERR4
 40
0
  9
$USERR5
 40
0
  9
$WORLDVIEW
 70
    1
  9
$SHADEDGE
 70
    3
  9
$SHADEDIF
 70
   70
  9
$TILEMODE
 70
    1
  9
$MAXACTVP
 70
   64
  9
$PINSBASE
 10
0
 20
0
 30
0
  9
$PLIMCHECK
 70
    0
  9
$PEXTMIN
 10
0
 20
0
 30
0
  9
$PEXTMAX
 10
0
 20
0
 30
0
  9
$GRIDMODE
 70
    0
  9
$SNAPSTYLE
 70
    0
  9
$PLIMMIN
 10
0
 20
0
  9
$PLIMMAX
 10
210
 20
297
  9
$UNITMODE
 70
    0
  9
$VISRETAIN
 70
    1
  9
$PLINEGEN
 70
    0
  9
$PSLTSCALE
 70
    1
  9
$TREEDEPTH
 70
 3020
  9
$CMLSTYLE
  2
Standard
  9
$CMLJUST
 70
    0
  9
$CMLSCALE
 40
20
  9
$PROXYGRAPHICS
 70
    1
  9
$MEASUREMENT
 70
    1
  9
$CELWEIGHT
370
   -1
  9
$ENDCAPS
280
    0
  9
$JOINSTYLE
280
    0
  9
$LWDISPLAY
290
    0
  9
$INSUNITS
 70
    4
  9
$HYPERLINKBASE
  1

  9
$STYLESHEET
  1

  9
$XEDIT
290
    1
  9
$CEPSNTYPE
380
    0
  9
$PSTYLEMODE
290
    1
  9
$EXTNAMES
290
    1
  9
$PSVPSCALE
 40
1
  9
$OLESTARTUP
290
    0
  9
$SORTENTS
280
  127
  9
$INDEXCTL
280
    0
  9
$HIDETEXT
280
    1
  9
$XCLIPFRAME
290
    0
  9
$HALOGAP
280
    0
  9
$OBSCOLOR
 70
  257
  9
$OBSLTYPE
280
    0
  9
$INTERSECTIONDISPLAY
280
    0
  9
$INTERSECTIONCOLOR
 70
  257
  9
$DIMASSOC
280
    1
  9
$PROJECTNAME
  1

  9
$CAMERADISPLAY
290
    0
  9
$LENSLENGTH
 40
50
  9
$CAMERAHEIGHT
 40
0
  9
$STEPSPERSEC
 40
2
  9
$STEPSIZE
 40
50
  9
$3DDWFPREC
 40
2
  9
$PSOLWIDTH
 40
5
  9
$PSOLHEIGHT
 40
80
  9
$LOFTANG1
 40
1.570796326794897
  9
$LOFTANG2
 40
1.570796326794897
  9
$LOFTMAG1
 40
0
  9
$LOFTMAG2
 40
0
  9
$LOFTPARAM
 70
    7
  9
$LOFTNORMALS
280
    1
  9
$LATITUDE
 40
1
  9
$LONGITUDE
 40
1
  9
$NORTHDIRECTION
 40
0
  9
$TIMEZONE
 70
-8000
  9
$LIGHTGLYPHDISPLAY
280
    1
  9
$TILEMODELIGHTSYNCH
280
    1
  9
$SOLIDHIST
280
    1
  9
$SHOWHIST
280
    1
  9
$DWFFRAME
280
    2
  9
$DGNFRAME
280
    0
  9
$REALWORLDSCALE
290
    1
  9
$INTERFERECOLOR
 62
    1
  9
$CSHADOW
280
    0
  9
$SHADOWPLANELOCATION
 40
0
  0
ENDSEC
  0
SECTION
  2
CLASSES
  0
ENDSEC
  0
SECTION
  2
TABLES
  0
TABLE
  2
VPORT
  5
8
330
0
100
AcDbSymbolTable
 70
    1
  0
VPORT
  5
31
330
2
100
AcDbSymbolTableRecord
100
AcDbViewportTableRecord
  2
*ACTIVE
 70
    0
 10
0
 20
0
 11
1
 21
1
 12
330.9055294152824
 22
268.9170957714114
 13
0
 23
0
 14
10
 24
10
 15
10
 25
10
 16
0
 26
0
 36
1
 17
0
 27
0
 37
0
 40
372.832251807137
 41
0.9866989117291415
 42
50
 43
0
 44
0
 50
0
 51
0
 71
    0
 72
  100
 73
    1
 74
    3
 75
    0
 76
    0
 77
    0
 78
    0
281
    0
 65
    1
110
0
120
0
130
0
111
1
121
0
131
0
112
0
122
1
132
0
 79
    0
146
0
348
10020
 60
    7
 61
    5
292
1
282
    1
141
0
142
0
 63
  250
421
3358443
  0
ENDTAB
  0
TABLE
  2
LTYPE
  5
5
330
0
100
AcDbSymbolTable
 70
    4
  0
LTYPE
  5
14
330
5
100
AcDbSymbolTableRecord
100
AcDbLinetypeTableRecord
  2
ByBlock
 70
    0
  3

 72
   65
 73
    0
 40
0
  0
LTYPE
  5
15
330
5
100
AcDbSymbolTableRecord
100
AcDbLinetypeTableRecord
  2
ByLayer
 70
    0
  3

 72
   65
 73
    0
 40
0
  0
LTYPE
  5
16
330
5
100
AcDbSymbolTableRecord
100
AcDbLinetypeTableRecord
  2
Continuous
 70
    0
  3
Solid line
 72
   65
 73
    0
 40
0
  0
LTYPE
  5
32
330
5
100
AcDbSymbolTableRecord
100
AcDbLinetypeTableRecord
  2
DOT
 70
    0
  3
Dot . . . . . . . . . . . . . . . . . . . . . .
 72
   65
 73
    2
 40
6.35
 49
0
 74
    0
 49
-6.35
 74
    0
  0
LTYPE
  5
33
330
5
100
AcDbSymbolTableRecord
100
AcDbLinetypeTableRecord
  2
DOTTINY
 70
    0
  3
Dot (.15x) .....................................
 72
   65
 73
    2
 40
0.9525
 49
0
 74
    0
 49
-0.9525
 74
    0
  0
LTYPE
  5
34
330
5
100
AcDbSymbolTableRecord
100
AcDbLinetypeTableRecord
  2
DOT2
 70
    0
  3
Dot (.5x) .....................................
 72
   65
 73
    2
 40
3.175
 49
0
 74
    0
 49
-3.175
 74
    0
  0
LTYPE
  5
35
330
5
100
AcDbSymbolTableRecord
100
AcDbLinetypeTableRecord
  2
DOTX2
 70
    0
  3
Dot (2x) .  .  .  .  .  .  .  .  .  .  .  .  .
 72
   65
 73
    2
 40
12.7
 49
0
 74
    0
 49
-12.7
 74
    0
  0
LTYPE
  5
36
330
5
100
AcDbSymbolTableRecord
100
AcDbLinetypeTableRecord
  2
DASHED
 70
    0
  3
Dashed _ _ _ _ _ _ _ _ _ _ _ _ _ _ _ _ _
 72
   65
 73
    2
 40
19.05
 49
12.7
 74
    0
 49
-6.35
 74
    0
  0
LTYPE
  5
37
330
5
100
AcDbSymbolTableRecord
100
AcDbLinetypeTableRecord
  2
DASHEDTINY
 70
    0
  3
Dashed (.15x) _ _ _ _ _ _ _ _ _ _ _ _ _ _ _ _ _
 72
   65
 73
    2
 40
2.8575
 49
1.905
 74
    0
 49
-0.9525
 74
    0
  0
LTYPE
  5
38
330
5
100
AcDbSymbolTableRecord
100
AcDbLinetypeTableRecord
  2
DASHED2
 70
    0
  3
Dashed (.5x) _ _ _ _ _ _ _ _ _ _ _ _ _ _ _ _ _
 72
   65
 73
    2
 40
9.524999999999999
 49
6.35
 74
    0
 49
-3.175
 74
    0
  0
LTYPE
  5
39
330
5
100
AcDbSymbolTableRecord
100
AcDbLinetypeTableRecord
  2
DASHEDX2
 70
    0
  3
Dashed (2x) ____  ____  ____  ____  ____  ___
 72
   65
 73
    2
 40
38.09999999999999
 49
25.4
 74
    0
 49
-12.7
 74
    0
  0
LTYPE
  5
3A
330
5
100
AcDbSymbolTableRecord
100
AcDbLinetypeTableRecord
  2
DASHDOT
 70
    0
  3
Dash dot __ . __ . __ . __ . __ . __ . __ . __
 72
   65
 73
    4
 40
25.4
 49
12.7
 74
    0
 49
-6.35
 74
    0
 49
0
 74
    0
 49
-6.35
 74
    0
  0
LTYPE
  5
3B
330
5
100
AcDbSymbolTableRecord
100
AcDbLinetypeTableRecord
  2
DASHDOTTINY
 70
    0
  3
Dash dot (.15x) _._._._._._._._._._._._._._._.
 72
   65
 73
    4
 40
3.81
 49
1.905
 74
    0
 49
-0.9525
 74
    0
 49
0
 74
    0
 49
-0.9525
 74
    0
  0
LTYPE
  5
3C
330
5
100
AcDbSymbolTableRecord
100
AcDbLinetypeTableRecord
  2
DASHDOT2
 70
    0
  3
Dash dot (.5x) _._._._._._._._._._._._._._._.
 72
   65
 73
    4
 40
12.7
 49
6.35
 74
    0
 49
-3.175
 74
    0
 49
0
 74
    0
 49
-3.175
 74
    0
  0
LTYPE
  5
3D
330
5
100
AcDbSymbolTableRecord
100
AcDbLinetypeTableRecord
  2
DASHDOTX2
 70
    0
  3
Dash dot (2x) ____  .  ____  .  ____  .  ___
 72
   65
 73
    4
 40
50.8
 49
25.4
 74
    0
 49
-12.7
 74
    0
 49
0
 74
    0
 49
-12.7
 74
    0
  0
LTYPE
  5
3E
330
5
100
AcDbSymbolTableRecord
100
AcDbLinetypeTableRecord
  2
DIVIDE
 70
    0
  3
Divide ____ . . ____ . . ____ . . ____ . . ____
 72
   65
 73
    6
 40
31.75
 49
12.7
 74
    0
 49
-6.35
 74
    0
 49
0
 74
    0
 49
-6.35
 74
    0
 49
0
 74
    0
 49
-6.35
 74
    0
  0
LTYPE
  5
3F
330
5
100
AcDbSymbolTableRecord
100
AcDbLinetypeTableRecord
  2
DIVIDETINY
 70
    0
  3
Divide (.15x) __..__..__..__..__..__..__..__.._
 72
   65
 73
    6
 40
4.7625
 49
1.905
 74
    0
 49
-0.9525
 74
    0
 49
0
 74
    0
 49
-0.9525
 74
    0
 49
0
 74
    0
 49
-0.9525
 74
    0
  0
LTYPE
  5
40
330
5
100
AcDbSymbolTableRecord
100
AcDbLinetypeTableRecord
  2
DIVIDE2
 70
    0
  3
Divide (.5x) __..__..__..__..__..__..__..__.._
 72
   65
 73
    6
 40
15.875
 49
6.35
 74
    0
 49
-3.175
 74
    0
 49
0
 74
    0
 49
-3.175
 74
    0
 49
0
 74
    0
 49
-3.175
 74
    0
  0
LTYPE
  5
41
330
5
100
AcDbSymbolTableRecord
100
AcDbLinetypeTableRecord
  2
DIVIDEX2
 70
    0
  3
Divide (2x) ________  .  .  ________  .  .  _
 72
   65
 73
    6
 40
63.5
 49
25.4
 74
    0
 49
-12.7
 74
    0
 49
0
 74
    0
 49
-12.7
 74
    0
 49
0
 74
    0
 49
-12.7
 74
    0
  0
LTYPE
  5
42
330
5
100
AcDbSymbolTableRecord
100
AcDbLinetypeTableRecord
  2
BORDER
 70
    0
  3
Border __ __ . __ __ . __ __ . __ __ . __ __ .
 72
   65
 73
    6
 40
44.45
 49
12.7
 74
    0
 49
-6.35
 74
    0
 49
12.7
 74
    0
 49
-6.35
 74
    0
 49
0
 74
    0
 49
-6.35
 74
    0
  0
LTYPE
  5
43
330
5
100
AcDbSymbolTableRecord
100
AcDbLinetypeTableRecord
  2
BORDERTINY
 70
    0
  3
Border (.15x) __.__.__.__.__.__.__.__.__.__.__.
 72
   65
 73
    6
 40
6.6675
 49
1.905
 74
    0
 49
-0.9525
 74
    0
 49
1.905
 74
    0
 49
-0.9525
 74
    0
 49
0
 74
    0
 49
-0.9525
 74
    0
  0
LTYPE
  5
44
330
5
100
AcDbSymbolTableRecord
100
AcDbLinetypeTableRecord
  2
BORDER2
 70
    0
  3
Border (.5x) __.__.__.__.__.__.__.__.__.__.__.
 72
   65
 73
    6
 40
22.225
 49
6.35
 74
    0
 49
-3.175
 74
    0
 49
6.35
 74
    0
 49
-3.175
 74
    0
 49
0
 74
    0
 49
-3.175
 74
    0
  0
LTYPE
  5
45
330
5
100
AcDbSymbolTableRecord
100
AcDbLinetypeTableRecord
  2
BORDERX2
 70
    0
  3
Border (2x) ____  ____  .  ____  ____  .  ___
 72
   65
 73
    6
 40
88.89999999999999
 49
25.4
 74
    0
 49
-12.7
 74
    0
 49
25.4
 74
    0
 49
-12.7
 74
    0
 49
0
 74
    0
 49
-12.7
 74
    0
  0
LTYPE
  5
46
330
5
100
AcDbSymbolTableRecord
100
AcDbLinetypeTableRecord
  2
CENTER
 70
    0
  3
Center ____ _ ____ _ ____ _ ____ _ ____ _ ____
 72
   65
 73
    4
 40
50.8
 49
31.75
 74
    0
 49
-6.35
 74
    0
 49
6.35
 74
    0
 49
-6.35
 74
    0
  0
LTYPE
  5
47
330
5
100
AcDbSymbolTableRecord
100
AcDbLinetypeTableRecord
  2
CENTERTINY
 70
    0
  3
Center (.15x) ___ _ ___ _ ___ _ ___ _ ___ _ ___
 72
   65
 73
    4
 40
7.619999999999999
 49
4.7625
 74
    0
 49
-0.9525
 74
    0
 49
0.9525
 74
    0
 49
-0.9525
 74
    0
  0
LTYPE
  5
48
330
5
100
AcDbSymbolTableRecord
100
AcDbLinetypeTableRecord
  2
CENTER2
 70
    0
  3
Center (.5x) ___ _ ___ _ ___ _ ___ _ ___ _ ___
 72
   65
 73
    4
 40
28.575
 49
19.05
 74
    0
 49
-3.175
 74
    0
 49
3.175
 74
    0
 49
-3.175
 74
    0
  0
LTYPE
  5
49
330
5
100
AcDbSymbolTableRecord
100
AcDbLinetypeTableRecord
  2
CENTERX2
 70
    0
  3
Center (2x) ________  __  ________  __  _____
 72
   65
 73
    4
 40
101.6
 49
63.5
 74
    0
 49
-12.7
 74
    0
 49
12.7
 74
    0
 49
-12.7
 74
    0
  0
ENDTAB
  0
TABLE
  2
LAYER
  5
2
330
0
100
AcDbSymbolTable
 70
    1
  0
LAYER
  5
10
330
2
100
AcDbSymbolTableRecord
100
AcDbLayerTableRecord
  2
0
 70
    0
 62
    7
  6
CONTINUOUS
370
   -3
390
F
  0
LAYER
  5
4A
330
2
100
AcDbSymbolTableRecord
100
AcDbLayerTableRecord
  2
pocket-1.25mm
 70
    0
 62
    4
  6
CONTINUOUS
370
    0
390
F
  0
LAYER
  5
4B
330
2
100
AcDbSymbolTableRecord
100
AcDbLayerTableRecord
  2
profiling
 70
    0
 62
    3
  6
CONTINUOUS
370
    0
390
F
  0
LAYER
  5
4C
330
2
100
AcDbSymbolTableRecord
100
AcDbLayerTableRecord
  2
vcut
 70
    0
 62
    6
  6
CONTINUOUS
370
    0
390
F
  0
ENDTAB
  0
TABLE
  2
STYLE
  5
3
330
0
100
AcDbSymbolTable
 70
    3
  0
STYLE
  5
4D
330
2
100
AcDbSymbolTableRecord
100
AcDbTextStyleTableRecord
  2
Standard
 70
    0
 40
0
 41
1
 50
0
 71
    0
 42
1
  3
txt
  4

  0
ENDTAB
  0
TABLE
  2
VIEW
  5
6
330
0
100
AcDbSymbolTable
 70
    0
  0
ENDTAB
  0
TABLE
  2
UCS
  5
7
330
0
100
AcDbSymbolTable
 70
    0
  0
ENDTAB
  0
TABLE
  2
APPID
  5
9
330
0
100
AcDbSymbolTable
 70
    1
  0
APPID
  5
12
330
9
100
AcDbSymbolTableRecord
100
AcDbRegAppTableRecord
  2
ACAD
 70
    0
  0
APPID
  5
4E
330
9
100
AcDbSymbolTableRecord
100
AcDbRegAppTableRecord
  2
LibreCad
 70
    0
  0
ENDTAB
  0
TABLE
  2
DIMSTYLE
  5
A
330
0
100
AcDbSymbolTable
 70
    1
100
AcDbDimStyleTable
 71
    1
  0
DIMSTYLE
105
4F
330
A
100
AcDbSymbolTableRecord
100
AcDbDimStyleTableRecord
  2
Standard
 70
    0
 40
2.5
 41
2.5
 42
0.625
 43
0.38
 44
1.25
 45
0
 46
0
 47
0
 48
0
 49
1
140
2.5
141
0.09
142
0
143
25.4
144
1
145
0
146
1
147
0.625
148
0
 71
    0
 72
    0
 73
    0
 74
    1
 75
    0
 76
    0
 77
    0
 78
    8
 79
    0
170
    0
171
    2
172
    0
173
    0
174
    0
175
    0
176
    0
177
    0
178
    0
179
    0
271
    2
272
    4
273
    2
274
    2
275
    0
276
    0
277
    2
278
   44
279
    0
280
    0
281
    0
282
    0
283
    1
284
    0
285
    0
286
    0
288
    0
289
    3
340
STANDARD
341

371
   -2
372
   -2
  0
ENDTAB
  0
TABLE
  2
BLOCK_RECORD
  5
1
330
0
100
AcDbSymbolTable
 70
    2
  0
BLOCK_RECORD
  5
1F
330
1
100
AcDbSymbolTableRecord
100
AcDbBlockTableRecord
  2
*Model_Space
 70
    0
280
    1
281
    0
  0
BLOCK_RECORD
  5
1E
330
1
100
AcDbSymbolTableRecord
100
AcDbBlockTableRecord
  2
*Paper_Space
 70
    0
280
    1
281
    0
  0
ENDTAB
  0
ENDSEC
  0
SECTION
  2
BLOCKS
  0
BLOCK
  5
20
330
1F
100
AcDbEntity
  8
0
100
AcDbBlockBegin
  2
*Model_Space
 70
    0
 10
0
 20
0
 30
0
  3
*Model_Space
  1

  0
ENDBLK
  5
21
330
1F
100
AcDbEntity
  8
0
100
AcDbBlockEnd
  0
BLOCK
  5
1C
330
1B
100
AcDbEntity
  8
0
100
AcDbBlockBegin
  2
*Paper_Space
 70
    0
 10
0
 20
0
 30
0
  3
*Paper_Space
  1

  0
ENDBLK
  5
1D
330
1F
100
AcDbEntity
  8
0
100
AcDbBlockEnd
  0
ENDSEC
  0
SECTION
  2
ENTITIES
  0
LWPOLYLINE
  5
50
100
AcDbEntity
  8
pocket-1.25mm
  6
ByLayer
 62
  256
370
   -1
100
AcDbPolyline
 90
   61
 70
    1
 43
0
 10
441.48975
 20
451.038
 10
443.1675
 20
451.03425
 10
445.19175
 20
450.966
 10
447.53325
 20
450.774
 10
450.03225
 20
450.47175
 10
452.51925
 20
450.07875
 10
454.824
 20
449.62275
 10
456.78975
 20
449.1345
 10
493.40925
 20
440.4975
 10
495.459
 20
440.09625
 10
497.892
 20
439.75575
 10
500.3385
 20
439.5285
 10
502.42575
 20
439.449
 10
503.103
 20
439.449
 10
507.825
 20
439.449
 10
508.4565
 20
439.51125
 10
509.064
 20
439.69575
 10
509.6235
 20
439.995
 10
510.114
 20
440.39775
 10
510.51675
 20
440.88825
 10
510.816
 20
441.44775
 10
511.0005
 20
442.05525
 10
511.06275
 20
442.68675
 10
511.0005
 20
443.31825
 10
510.816
 20
443.92575
 10
510.51675
 20
444.48525
 10
510.114
 20
444.97575
 10
509.6235
 20
445.3785
 10
509.064
 20
445.67775
 10
508.4565
 20
445.86225
 10
507.825
 20
445.9245
 10
503.103
 20
445.9245
 10
500.92575
 20
446.007
 10
498.4785
 20
446.235
 10
496.044
 20
446.57325
 10
493.9935
 20
446.97075
 10
456.789
 20
455.64225
 10
454.82325
 20
456.1305
 10
452.5185
 20
456.58425
 10
450.03225
 20
456.97275
 10
447.53325
 20
457.26975
 10
445.19175
 20
457.455
 10
443.1675
 20
457.51575
 10
441.48975
 20
457.51275
 10
436.76775
 20
457.51275
 10
436.13625
 20
457.4505
 10
435.52875
 20
457.266
 10
434.96925
 20
456.96675
 10
434.47875
 20
456.564
 10
434.076
 20
456.0735
 10
433.77675
 20
455.514
 10
433.59225
 20
454.9065
 10
433.53
 20
454.275
 10
433.59225
 20
453.6435
 10
433.77675
 20
453.036
 10
434.076
 20
452.4765
 10
434.47875
 20
451.986
 10
434.96925
 20
451.58325
 10
435.52875
 20
451.284
 10
436.13625
 20
451.0995
 10
436.76775
 20
451.03725
  0
LWPOLYLINE
  5
51
100
AcDbEntity
  8
profiling
  6
ByLayer
 62
  256
370
   -1
100
AcDbPolyline
 90
  230
 70
    1
 43
0
 10
543.61425
 20
514.58925
 10
543.61425
 20
514.58925
 10
544.2315
 20
514.497
 10
544.2315
 20
514.497
 10
544.2315
 20
514.497
 10
544.8255
 20
514.3440000000001
 10
544.8255
 20
514.3440000000001
 10
544.8255
 20
514.3440000000001
 10
544.8255
 20
514.3440000000001
 10
545.391
 20
514.13175
 10
545.391
 20
514.13175
 10
545.391
 20
514.13175
 10
545.922
 20
513.86175
 10
545.922
 20
513.86175
 10
545.922
 20
513.86175
 10
545.922
 20
513.86175
 10
546.414
 20
513.53775
 10
546.414
 20
513.53775
 10
546.414
 20
513.53775
 10
546.86175
 20
513.162
 10
546.86175
 20
513.162
 10
546.86175
 20
513.162
 10
546.86175
 20
513.162
 10
547.26075
 20
512.73825
 10
547.26075
 20
512.73825
 10
547.6079999999999
 20
512.271
 10
547.6079999999999
 20
512.271
 10
547.6079999999999
 20
512.271
 10
547.6079999999999
 20
512.271
 10
547.89975
 20
511.76475
 10
547.89975
 20
511.76475
 10
547.89975
 20
511.76475
 10
548.133
 20
511.224
 10
548.133
 20
511.224
 10
548.133
 20
511.224
 10
548.133
 20
511.224
 10
548.133
 20
511.224
 10
548.3055000000001
 20
510.654
 10
548.3055000000001
 20
510.654
 10
548.3055000000001
 20
510.654
 10
548.3055000000001
 20
510.654
 10
548.41575
 20
510.06
 10
548.41575
 20
510.06
 10
548.41575
 20
510.06
 10
548.41575
 20
510.06
 10
548.41575
 20
510.06
 10
548.41575
 20
510.06
 10
548.46225
 20
509.448
 10
548.46225
 20
509.448
 10
548.4450000000001
 20
508.824
 10
548.4450000000001
 20
508.824
 10
548.4450000000001
 20
508.824
 10
548.4450000000001
 20
508.824
 10
548.364
 20
508.194
 10
548.364
 20
508.194
 10
548.364
 20
508.194
 10
548.364
 20
508.194
 10
548.364
 20
508.194
 10
539.802
 20
460.07775
 10
539.802
 20
460.07775
 10
539.802
 20
460.07775
 10
539.18925
 20
457.071
 10
539.18925
 20
457.071
 10
538.542
 20
454.0935
 10
538.542
 20
454.0935
 10
538.542
 20
454.0935
 10
538.542
 20
454.0935
 10
537.81075
 20
451.173
 10
537.81075
 20
451.173
 10
537.81075
 20
451.173
 10
536.79675
 20
448.33875
 10
536.79675
 20
448.33875
 10
536.79675
 20
448.33875
 10
536.79675
 20
448.33875
 10
535.5097500000001
 20
445.61775
 10
535.5097500000001
 20
445.61775
 10
535.5097500000001
 20
445.61775
 10
535.5097500000001
 20
445.61775
 10
533.9625
 20
443.0355
 10
533.9625
 20
443.0355
 10
533.9625
 20
443.0355
 10
532.16925
 20
440.6175
 10
532.16925
 20
440.6175
 10
532.16925
 20
440.6175
 10
530.148
 20
438.387
 10
530.148
 20
438.387
 10
527.9175
 20
436.36575
 10
527.9175
 20
436.36575
 10
527.9175
 20
436.36575
 10
525.4995
 20
434.5725
 10
525.4995
 20
434.5725
 10
525.4995
 20
434.5725
 10
525.4995
 20
434.5725
 10
522.91725
 20
433.02525
 10
522.91725
 20
433.02525
 10
522.91725
 20
433.02525
 10
520.19625
 20
431.73825
 10
520.19625
 20
431.73825
 10
520.19625
 20
431.73825
 10
520.19625
 20
431.73825
 10
520.19625
 20
431.73825
 10
517.362
 20
430.72425
 10
517.362
 20
430.72425
 10
514.4422499999999
 20
429.993
 10
514.4422499999999
 20
429.993
 10
514.4422499999999
 20
429.993
 10
514.4422499999999
 20
429.993
 10
511.46475
 20
429.55125
 10
511.46475
 20
429.55125
 10
511.46475
 20
429.55125
 10
508.458
 20
429.4035
 10
508.458
 20
429.4035
 10
508.458
 20
429.4035
 10
508.458
 20
429.4035
 10
503.8905
 20
429.4035
 10
444.62175
 20
429.4035
 10
444.62175
 20
429.4035
 10
444.62175
 20
429.4035
 10
444.62175
 20
429.4035
 10
444.62175
 20
429.4035
 10
444.62175
 20
429.4035
 10
441.615
 20
429.55125
 10
441.615
 20
429.55125
 10
438.6375
 20
429.993
 10
438.6375
 20
429.993
 10
438.6375
 20
429.993
 10
438.6375
 20
429.993
 10
438.6375
 20
429.993
 10
438.6375
 20
429.993
 10
435.71775
 20
430.72425
 10
435.71775
 20
430.72425
 10
435.71775
 20
430.72425
 10
432.8835
 20
431.73825
 10
432.8835
 20
431.73825
 10
432.8835
 20
431.73825
 10
432.8835
 20
431.73825
 10
432.8835
 20
431.73825
 10
430.1625
 20
433.02525
 10
430.1625
 20
433.02525
 10
427.58025
 20
434.57325
 10
427.58025
 20
434.57325
 10
427.58025
 20
434.57325
 10
425.16225
 20
436.3665
 10
425.16225
 20
436.3665
 10
425.16225
 20
436.3665
 10
425.16225
 20
436.3665
 10
422.93175
 20
438.38775
 10
422.93175
 20
438.38775
 10
420.9105
 20
440.61825
 10
420.9105
 20
440.61825
 10
420.9105
 20
440.61825
 10
420.9105
 20
440.61825
 10
420.9105
 20
440.61825
 10
420.9105
 20
440.61825
 10
420.9105
 20
440.61825
 10
420.9105
 20
440.61825
 10
419.11725
 20
443.03625
 10
419.11725
 20
443.03625
 10
419.11725
 20
443.03625
 10
417.57
 20
445.6185
 10
417.57
 20
445.6185
 10
417.57
 20
445.6185
 10
417.57
 20
445.6185
 10
416.283
 20
448.3395
 10
416.283
 20
448.3395
 10
416.283
 20
448.3395
 10
416.283
 20
448.3395
 10
416.283
 20
448.3395
 10
415.269
 20
451.17375
 10
415.269
 20
451.17375
 10
415.269
 20
451.17375
 10
415.269
 20
451.17375
 10
414.53775
 20
454.0935
 10
414.53775
 20
454.0935
 10
414.096
 20
457.071
 10
414.096
 20
457.071
 10
413.94825
 20
460.07775
 10
413.94825
 20
460.07775
 10
413.94825
 20
483.9465
 10
413.94825
 20
483.9465
 10
413.94825
 20
483.9465
 10
414.096
 20
486.95325
 10
414.096
 20
486.95325
 10
414.53775
 20
489.93075
 10
414.53775
 20
489.93075
 10
415.269
 20
492.85125
 10
415.269
 20
492.85125
 10
415.269
 20
492.85125
 10
415.269
 20
492.85125
 10
416.283
 20
495.6855
 10
416.283
 20
495.6855
 10
417.57
 20
498.4065
 10
417.57
 20
498.4065
 10
417.57
 20
498.4065
 10
417.57
 20
498.4065
 10
419.118
 20
500.98875
 10
419.118
 20
500.98875
 10
419.118
 20
500.98875
 10
420.91125
 20
503.40675
 10
420.91125
 20
503.40675
 10
420.91125
 20
503.40675
 10
422.9325
 20
505.63725
 10
422.9325
 20
505.63725
 10
425.163
 20
507.6585
 10
425.163
 20
507.6585
 10
425.163
 20
507.6585
 10
425.163
 20
507.6585
 10
425.163
 20
507.6585
 10
427.581
 20
509.45175
 10
427.581
 20
509.45175
 10
430.16325
 20
510.999
 10
430.16325
 20
510.999
 10
430.16325
 20
510.999
 10
430.16325
 20
510.999
 10
430.16325
 20
510.999
 10
432.88425
 20
512.2859999999999
 10
432.88425
 20
512.2859999999999
 10
435.7185
 20
513.3
 10
435.7185
 20
513.3
 10
438.63825
 20
514.03125
 10
438.63825
 20
514.03125
 10
441.61575
 20
514.473
 10
441.61575
 20
514.473
 10
444.6225
 20
514.62075
 10
444.6225
 20
514.62075
 10
503.89125
 20
514.62075
 10
542.98275
 20
514.62
 10
542.98275
 20
514.62
 10
543.61725
 20
514.58925
 10
543.61725
 20
514.58925
  0
LWPOLYLINE
  5
52
100
AcDbEntity
  8
profiling
  6
ByLayer
 62
  256
370
   -1
100
AcDbPolyline
 90
   39
 70
    1
 43
0
 10
444.6195
 20
478.6845
 10
445.64475
 20
478.78575
 10
446.63025
 20
479.085
 10
447.5385
 20
479.571
 10
448.335
 20
480.22425
 10
448.98825
 20
481.02075
 10
449.47425
 20
481.929
 10
449.7735
 20
482.9145
 10
449.87475
 20
483.93975
 10
449.7735
 20
484.965
 10
449.47425
 20
485.95125
 10
448.98825
 20
486.8595
 10
448.68525
 20
487.2285
 10
448.335
 20
487.65525
 10
447.5385
 20
488.3085
 10
446.63025
 20
488.7945
 10
445.64475
 20
489.09375
 10
444.6195
 20
489.195
 10
443.59425
 20
489.09375
 10
442.608
 20
488.7945
 10
441.75225
 20
488.337
 10
441.69975
 20
488.3085
 10
441.22575
 20
487.92
 10
440.90325
 20
487.65525
 10
440.25
 20
486.85875
 10
439.764
 20
485.9505
 10
439.46475
 20
484.96425
 10
439.4145
 20
484.45125
 10
439.36425
 20
483.93825
 10
439.4655
 20
482.913
 10
439.76475
 20
481.9275
 10
440.25075
 20
481.01925
 10
440.904
 20
480.22275
 10
441.7005
 20
479.5695
 10
442.10925
 20
479.35125
 10
442.60875
 20
479.08425
 10
443.595
 20
478.785
 10
444.606
 20
478.68525
 10
444.62025
 20
478.68375
  0
LWPOLYLINE
  5
53
100
AcDbEntity
  8
profiling
  6
ByLayer
 62
  256
370
   -1
100
AcDbPolyline
 90
   39
 70
    1
 43
0
 10
537.5744999999999
 20
497.85
 10
537.966
 20
497.7315
 10
538.37325
 20
497.691
 10
538.7805
 20
497.7315
 10
538.9807499999999
 20
497.79225
 10
539.17275
 20
497.85075
 10
539.3535000000001
 20
497.9475
 10
539.53425
 20
498.04425
 10
539.8507499999999
 20
498.30375
 10
540.11025
 20
498.62025
 10
540.303
 20
498.98175
 10
540.4215
 20
499.37325
 10
540.462
 20
499.7805
 10
540.4215
 20
500.18775
 10
540.31425
 20
500.54175
 10
540.303
 20
500.58
 10
540.114
 20
500.93325
 10
540.11025
 20
500.94075
 10
539.99925
 20
501.0765
 10
539.8507499999999
 20
501.25725
 10
539.53425
 20
501.51675
 10
539.17275
 20
501.7095
 10
538.78125
 20
501.828
 10
538.374
 20
501.8685
 10
537.96675
 20
501.828
 10
537.57525
 20
501.7095
 10
537.21375
 20
501.51675
 10
536.89725
 20
501.25725
 10
536.63775
 20
500.94075
 10
536.4450000000001
 20
500.57925
 10
536.3265
 20
500.18775
 10
536.2859999999999
 20
499.7805
 10
536.3265
 20
499.37325
 10
536.4450000000001
 20
498.98175
 10
536.63775
 20
498.62025
 10
536.89725
 20
498.30375
 10
537.21375
 20
498.04425
 10
537.32925
 20
497.98275
 10
537.5744999999999
 20
497.8515
  0
LWPOLYLINE
  5
54
100
AcDbEntity
  8
profiling
  6
ByLayer
 62
  256
370
   -1
100
AcDbPolyline
 90
   43
 70
    1
 43
0
 10
424.31925
 20
443.39625
 10
424.68075
 20
443.589
 10
424.68075
 20
443.589
 10
424.84575
 20
443.72475
 10
424.99725
 20
443.8485
 10
425.25675
 20
444.165
 10
425.4495
 20
444.5265
 10
425.568
 20
444.918
 10
425.6085
 20
445.32525
 10
425.568
 20
445.7325
 10
425.5335
 20
445.84575
 10
425.5335
 20
445.84575
 10
425.5335
 20
445.84575
 10
425.457
 20
446.09775
 10
425.44875
 20
446.12475
 10
425.256
 20
446.48625
 10
424.9965
 20
446.80275
 10
424.68
 20
447.06225
 10
424.3185
 20
447.255
 10
423.99375
 20
447.35325
 10
423.92625
 20
447.3735
 10
423.519
 20
447.414
 10
423.11175
 20
447.3735
 10
422.72025
 20
447.255
 10
422.35875
 20
447.06225
 10
422.04225
 20
446.80275
 10
421.8555
 20
446.57475
 10
421.78275
 20
446.48625
 10
421.59
 20
446.12475
 10
421.4715
 20
445.73325
 10
421.431
 20
445.326
 10
421.4715
 20
444.91875
 10
421.59
 20
444.52725
 10
421.78275
 20
444.16575
 10
422.04225
 20
443.84925
 10
422.35875
 20
443.58975
 10
422.72025
 20
443.397
 10
423.11175
 20
443.2785
 10
423.35475
 20
443.2545
 10
423.519
 20
443.238
 10
423.7305
 20
443.259
 10
423.927
 20
443.2785
 10
424.3185
 20
443.397
  0
LWPOLYLINE
  5
55
100
AcDbEntity
  8
profiling
  6
ByLayer
 62
  256
370
   -1
100
AcDbPolyline
 90
   35
 70
    1
 43
0
 10
441.48975
 20
451.038
 10
442.12125
 20
451.10025
 10
442.72875
 20
451.28475
 10
443.28825
 20
451.584
 10
443.77875
 20
451.98675
 10
444.1815
 20
452.47725
 10
444.48075
 20
453.03675
 10
444.66525
 20
453.64425
 10
444.7275
 20
454.27575
 10
444.66525
 20
454.90725
 10
444.48075
 20
455.51475
 10
444.1815
 20
456.07425
 10
443.77875
 20
456.56475
 10
443.28825
 20
456.9675
 10
442.72875
 20
457.26675
 10
442.12125
 20
457.45125
 10
441.48975
 20
457.5135
 10
436.76775
 20
457.5135
 10
436.13625
 20
457.45125
 10
435.52875
 20
457.26675
 10
434.96925
 20
456.9675
 10
434.47875
 20
456.56475
 10
434.076
 20
456.07425
 10
433.77675
 20
455.51475
 10
433.59225
 20
454.90725
 10
433.53
 20
454.27575
 10
433.59225
 20
453.64425
 10
433.77675
 20
453.03675
 10
434.076
 20
452.47725
 10
434.47875
 20
451.98675
 10
434.96925
 20
451.584
 10
435.52875
 20
451.28475
 10
436.13625
 20
451.10025
 10
436.76775
 20
451.038
 10
441.48975
 20
451.038
  0
LWPOLYLINE
  5
56
100
AcDbEntity
  8
profiling
  6
ByLayer
 62
  256
370
   -1
100
AcDbPolyline
 90
   36
 70
    1
 43
0
 10
489.90975
 20
436.0215
 10
490.317
 20
436.062
 10
490.70925
 20
436.1805
 10
491.07
 20
436.37325
 10
491.3865
 20
436.63275
 10
491.646
 20
436.94925
 10
491.82675
 20
437.2875
 10
491.83875
 20
437.31
 10
491.95725
 20
437.7015
 10
491.99775
 20
438.10875
 10
491.95725
 20
438.516
 10
491.83875
 20
438.9075
 10
491.646
 20
439.269
 10
491.3865
 20
439.5855
 10
491.07
 20
439.845
 10
490.92
 20
439.92525
 10
490.7085
 20
440.0385
 10
490.31625
 20
440.157
 10
489.909
 20
440.1975
 10
489.50175
 20
440.157
 10
489.1095
 20
440.0385
 10
488.748
 20
439.84575
 10
488.4315
 20
439.58625
 10
488.172
 20
439.26975
 10
487.97925
 20
438.90825
 10
487.86075
 20
438.51675
 10
487.82025
 20
438.1095
 10
487.86075
 20
437.70225
 10
487.97925
 20
437.31075
 10
488.172
 20
436.94925
 10
488.4315
 20
436.63275
 10
488.748
 20
436.37325
 10
489.1095
 20
436.1805
 10
489.50175
 20
436.062
 10
489.8235
 20
436.0305
 10
489.909
 20
436.02225
  0
LWPOLYLINE
  5
57
100
AcDbEntity
  8
profiling
  6
ByLayer
 62
  256
370
   -1
100
AcDbPolyline
 90
   38
 70
    1
 43
0
 10
500.41125
 20
440.8875
 10
500.814
 20
440.397
 10
501.3045
 20
439.99425
 10
501.864
 20
439.695
 10
502.4715
 20
439.5105
 10
503.103
 20
439.44825
 10
507.825
 20
439.44825
 10
508.4565
 20
439.5105
 10
509.064
 20
439.695
 10
509.6235
 20
439.99425
 10
509.75775
 20
440.1045
 10
510.114
 20
440.397
 10
510.13275
 20
440.42025
 10
510.516
 20
440.8875
 10
510.81525
 20
441.447
 10
510.99975
 20
442.0545
 10
511.062
 20
442.686
 10
511.03575
 20
442.94925
 10
510.99975
 20
443.3175
 10
510.81525
 20
443.925
 10
510.516
 20
444.4845
 10
510.11325
 20
444.975
 10
509.62275
 20
445.37775
 10
509.06325
 20
445.677
 10
508.45575
 20
445.8615
 10
507.82425
 20
445.92375
 10
503.10225
 20
445.92375
 10
502.47075
 20
445.8615
 10
501.86325
 20
445.677
 10
501.30375
 20
445.37775
 10
500.81325
 20
444.975
 10
500.4105
 20
444.4845
 10
500.11125
 20
443.925
 10
499.92675
 20
443.3175
 10
499.8645
 20
442.686
 10
499.92675
 20
442.0545
 10
500.11125
 20
441.447
 10
500.4105
 20
440.8875
  0
LWPOLYLINE
  5
58
100
AcDbEntity
  8
profiling
  6
ByLayer
 62
  256
370
   -1
100
AcDbPolyline
 90
   37
 70
    1
 43
0
 10
521.79075
 20
444.11775
 10
522.15225
 20
443.925
 10
522.54375
 20
443.8065
 10
522.951
 20
443.766
 10
523.35825
 20
443.8065
 10
523.7497499999999
 20
443.925
 10
524.11125
 20
444.11775
 10
524.4277499999999
 20
444.37725
 10
524.6872499999999
 20
444.69375
 10
524.88
 20
445.05525
 10
524.9985
 20
445.44675
 10
525.003
 20
445.49025
 10
525.0382499999999
 20
445.8495
 10
525.039
 20
445.85475
 10
525.03075
 20
445.94175
 10
524.99925
 20
446.262
 10
524.88075
 20
446.6535
 10
524.688
 20
447.015
 10
524.4285
 20
447.3315
 10
524.112
 20
447.591
 10
523.7505
 20
447.78375
 10
523.359
 20
447.90225
 10
522.9517499999999
 20
447.94275
 10
522.5445
 20
447.90225
 10
522.153
 20
447.78375
 10
521.7915
 20
447.591
 10
521.475
 20
447.3315
 10
521.2155
 20
447.015
 10
521.02275
 20
446.6535
 10
520.90425
 20
446.262
 10
520.8645
 20
445.85475
 10
520.90425
 20
445.4475
 10
520.944
 20
445.317
 10
521.0235
 20
445.056
 10
521.2162499999999
 20
444.6945
 10
521.4757499999999
 20
444.378
 10
521.79225
 20
444.1185
  0
LWPOLYLINE
  5
59
100
AcDbEntity
  8
profiling
  6
ByLayer
 62
  256
370
   -1
100
AcDbPolyline
 90
   76
 70
    1
 43
0
 10
443.0145
 20
508.47225
 10
443.20275
 20
508.53975
 10
443.3835
 20
508.62525
 10
443.5545
 20
508.728
 10
443.715
 20
508.8465
 10
443.86275
 20
508.98075
 10
443.997
 20
509.1285
 10
444.1155
 20
509.289
 10
444.21825
 20
509.46
 10
444.30375
 20
509.64075
 10
444.37125
 20
509.829
 10
444.42
 20
510.0225
 10
444.44925
 20
510.21975
 10
444.459
 20
510.41925
 10
444.44925
 20
510.61875
 10
444.42
 20
510.816
 10
444.37125
 20
511.0095
 10
444.30375
 20
511.19775
 10
444.21825
 20
511.3785
 10
444.1155
 20
511.5495
 10
444.08175
 20
511.59525
 10
443.997
 20
511.71
 10
443.86275
 20
511.85775
 10
443.715
 20
511.992
 10
443.5545
 20
512.1105
 10
443.5545
 20
512.1105
 10
443.3835
 20
512.21325
 10
443.20275
 20
512.29875
 10
443.1375
 20
512.322
 10
443.0145
 20
512.36625
 10
442.96425
 20
512.379
 10
442.821
 20
512.415
 10
442.62375
 20
512.44425
 10
442.42425
 20
512.454
 10
442.22475
 20
512.44425
 10
442.0275
 20
512.415
 10
441.834
 20
512.36625
 10
441.64575
 20
512.29875
 10
441.465
 20
512.21325
 10
441.294
 20
512.1105
 10
441.1335
 20
511.992
 10
440.98575
 20
511.85775
 10
440.8515
 20
511.71
 10
440.733
 20
511.5495
 10
440.709
 20
511.50975
 10
440.63025
 20
511.37775
 10
440.54475
 20
511.197
 10
440.47725
 20
511.00875
 10
440.4285
 20
510.81525
 10
440.39925
 20
510.618
 10
440.3895
 20
510.4185
 10
440.39925
 20
510.219
 10
440.4135
 20
510.12075
 10
440.4285
 20
510.021
 10
440.469
 20
509.85825
 10
440.4765
 20
509.8275
 10
440.544
 20
509.63925
 10
440.6295
 20
509.45925
 10
440.73225
 20
509.28825
 10
440.77875
 20
509.22525
 10
440.85075
 20
509.12775
 10
440.985
 20
508.98
 10
441.13275
 20
508.84575
 10
441.29325
 20
508.72725
 10
441.46425
 20
508.6245
 10
441.5595
 20
508.5795
 10
441.64425
 20
508.539
 10
441.8325
 20
508.4715
 10
442.026
 20
508.42275
 10
442.0995
 20
508.4115
 10
442.22325
 20
508.3935
 10
442.42275
 20
508.38375
 10
442.62225
 20
508.3935
 10
442.8195
 20
508.42275
 10
442.82025
 20
508.42275
 10
443.013
 20
508.47075
  0
ENDSEC
  0
SECTION
  2
OBJECTS
  0
DICTIONARY
  5
C
330
0
100
AcDbDictionary
281
    1
  3
ACAD_GROUP
350
D
  0
DICTIONARY
  5
D
330
C
100
AcDbDictionary
281
    1
  0
ENDSEC
  0
EOF
