999
dxfrw 0.6.3
  0
SECTION
  2
HEADER
  9
$ACADVER
  1
AC1021
  9
$DWGCODEPAGE
  3
ANSI_1252
  9
$INSBASE
 10
0
 20
0
 30
0
  9
$EXTMIN
 10
609.891
 20
39.93375
 30
0
  9
$EXTMAX
 10
700.8434999999999
 20
123.43875
 30
0
  9
$LIMMIN
 10
0
 20
0
  9
$LIMMAX
 10
420
 20
297
  9
$ORTHOMODE
 70
    0
  9
$REGENMODE
 70
    1
  9
$FILLMODE
 70
    1
  9
$QTEXTMODE
 70
    0
  9
$MIRRTEXT
 70
    0
  9
$LTSCALE
 40
1
  9
$ATTMODE
 70
    0
  9
$TEXTSIZE
 40
2.5
  9
$TRACEWID
 40
15.68
  9
$TEXTSTYLE
  7
STANDARD
  9
$CLAYER
  8
pocket-1.1mm
  9
$CELTYPE
  6
BYLAYER
  9
$CECOLOR
 62
  256
  9
$CELTSCALE
 40
1
  9
$DISPSILH
 70
    0
  9
$DIMSCALE
 40
2.5
  9
$DIMASZ
 40
2.5
  9
$DIMEXO
 40
0.625
  9
$DIMDLI
 40
3.75
  9
$DIMRND
 40
0
  9
$DIMDLE
 40
0
  9
$DIMEXE
 40
1.25
  9
$DIMTP
 40
0
  9
$DIMTM
 40
0
  9
$DIMTXT
 40
2.5
  9
$DIMCEN
 40
2.5
  9
$DIMTSZ
 40
0
  9
$DIMTOL
 70
    0
  9
$DIMLIM
 70
    0
  9
$DIMTIH
 70
    0
  9
$DIMTOH
 70
    0
  9
$DIMSE1
 70
    0
  9
$DIMSE2
 70
    0
  9
$DIMTAD
 70
    1
  9
$DIMZIN
 70
    8
  9
$DIMBLK
  1

  9
$DIMASO
 70
    1
  9
$DIMSHO
 70
    1
  9
$DIMPOST
  1

  9
$DIMAPOST
  1

  9
$DIMALT
 70
    0
  9
$DIMALTD
 70
    3
  9
$DIMALTF
 40
0.03937
  9
$DIMLFAC
 40
1
  9
$DIMTOFL
 70
    1
  9
$DIMTVP
 40
0
  9
$DIMTIX
 70
    0
  9
$DIMSOXD
 70
    0
  9
$DIMSAH
 70
    0
  9
$DIMBLK1
  1

  9
$DIMBLK2
  1

  9
$DIMSTYLE
  2
Standard
  9
$DIMCLRD
 70
    0
  9
$DIMCLRE
 70
    0
  9
$DIMCLRT
 70
    0
  9
$DIMTFAC
 40
1
  9
$DIMGAP
 40
0.625
  9
$DIMJUST
 70
    0
  9
$DIMSD1
 70
    0
  9
$DIMSD2
 70
    0
  9
$DIMTOLJ
 70
    0
  9
$DIMTZIN
 70
    8
  9
$DIMALTZ
 70
    0
  9
$DIMALTTZ
 70
    0
  9
$DIMUPT
 70
    0
  9
$DIMDEC
 70
    2
  9
$DIMTDEC
 70
    2
  9
$DIMALTU
 70
    2
  9
$DIMALTTD
 70
    3
  9
$DIMTXSTY
  7
STANDARD
  9
$DIMAUNIT
 70
    0
  9
$DIMADEC
 70
    0
  9
$DIMALTRND
 40
0
  9
$DIMAZIN
 70
    0
  9
$DIMDSEP
 70
   44
  9
$DIMATFIT
 70
    3
  9
$DIMFRAC
 70
    0
  9
$DIMLDRBLK
  1
STANDARD
  9
$DIMLUNIT
 70
    2
  9
$DIMLWD
 70
   -2
  9
$DIMLWE
 70
   -2
  9
$DIMTMOVE
 70
    0
  9
$DIMFXL
 40
1
  9
$DIMFXLON
 70
    0
  9
$DIMJOGANG
 40
0.7854
  9
$DIMTFILL
 70
    0
  9
$DIMTFILLCLR
 70
    0
  9
$DIMARCSYM
 70
    0
  9
$DIMLTYPE
  6

  9
$DIMLTEX1
  6

  9
$DIMLTEX2
  6

  9
$LUNITS
 70
    2
  9
$LUPREC
 70
    4
  9
$SKETCHINC
 40
1
  9
$FILLETRAD
 40
0
  9
$AUNITS
 70
    0
  9
$AUPREC
 70
    2
  9
$MENU
  1
.
  9
$ELEVATION
 40
0
  9
$PELEVATION
 40
0
  9
$THICKNESS
 40
0
  9
$LIMCHECK
 70
    0
  9
$CHAMFERA
 40
0
  9
$CHAMFERB
 40
0
  9
$CHAMFERC
 40
0
  9
$CHAMFERD
 40
0
  9
$SKPOLY
 70
    0
  9
$USRTIMER
 70
    1
  9
$ANGBASE
 50
0
  9
$ANGDIR
 70
    0
  9
$PDMODE
 70
   34
  9
$PDSIZE
 40
0
  9
$PLINEWID
 40
0
  9
$SPLFRAME
 70
    0
  9
$SPLINETYPE
 70
    2
  9
$SPLINESEGS
 70
    8
  9
$HANDSEED
  5
20000
  9
$SURFTAB1
 70
    6
  9
$SURFTAB2
 70
    6
  9
$SURFTYPE
 70
    6
  9
$SURFU
 70
    6
  9
$SURFV
 70
    6
  9
$UCSBASE
  2

  9
$UCSNAME
  2

  9
$UCSORG
 10
0
 20
0
 30
0
  9
$UCSXDIR
 10
1
 20
0
 30
0
  9
$UCSYDIR
 10
0
 20
1
 30
0
  9
$UCSORTHOREF
  2

  9
$UCSORTHOVIEW
 70
    0
  9
$UCSORGTOP
 10
0
 20
0
 30
0
  9
$UCSORGBOTTOM
 10
0
 20
0
 30
0
  9
$UCSORGLEFT
 10
0
 20
0
 30
0
  9
$UCSORGRIGHT
 10
0
 20
0
 30
0
  9
$UCSORGFRONT
 10
0
 20
0
 30
0
  9
$UCSORGBACK
 10
0
 20
0
 30
0
  9
$PUCSBASE
  2

  9
$PUCSNAME
  2

  9
$PUCSORG
 10
0
 20
0
 30
0
  9
$PUCSXDIR
 10
1
 20
0
 30
0
  9
$PUCSYDIR
 10
0
 20
1
 30
0
  9
$PUCSORTHOREF
  2

  9
$PUCSORTHOVIEW
 70
    0
  9
$PUCSORGTOP
 10
0
 20
0
 30
0
  9
$PUCSORGBOTTOM
 10
0
 20
0
 30
0
  9
$PUCSORGLEFT
 10
0
 20
0
 30
0
  9
$PUCSORGRIGHT
 10
0
 20
0
 30
0
  9
$PUCSORGFRONT
 10
0
 20
0
 30
0
  9
$PUCSORGBACK
 10
0
 20
0
 30
0
  9
$USERI1
 70
    0
  9
$USERI2
 70
    0
  9
$USERI3
 70
    0
  9
$USERI4
 70
    0
  9
$USERI5
 70
    0
  9
$USERR1
 40
0
  9
$USERR2
 40
0
  9
$USERR3
 40
0
  9
$USERR4
 40
0
  9
$USERR5
 40
0
  9
$WORLDVIEW
 70
    1
  9
$SHADEDGE
 70
    3
  9
$SHADEDIF
 70
   70
  9
$TILEMODE
 70
    1
  9
$MAXACTVP
 70
   64
  9
$PINSBASE
 10
0
 20
0
 30
0
  9
$PLIMCHECK
 70
    0
  9
$PEXTMIN
 10
0
 20
0
 30
0
  9
$PEXTMAX
 10
0
 20
0
 30
0
  9
$GRIDMODE
 70
    0
  9
$SNAPSTYLE
 70
    0
  9
$PLIMMIN
 10
0
 20
0
  9
$PLIMMAX
 10
210
 20
297
  9
$UNITMODE
 70
    0
  9
$VISRETAIN
 70
    1
  9
$PLINEGEN
 70
    0
  9
$PSLTSCALE
 70
    1
  9
$TREEDEPTH
 70
 3020
  9
$CMLSTYLE
  2
Standard
  9
$CMLJUST
 70
    0
  9
$CMLSCALE
 40
20
  9
$PROXYGRAPHICS
 70
    1
  9
$MEASUREMENT
 70
    1
  9
$CELWEIGHT
370
   -1
  9
$ENDCAPS
280
    0
  9
$JOINSTYLE
280
    0
  9
$LWDISPLAY
290
    0
  9
$INSUNITS
 70
    4
  9
$HYPERLINKBASE
  1

  9
$STYLESHEET
  1

  9
$XEDIT
290
    1
  9
$CEPSNTYPE
380
    0
  9
$PSTYLEMODE
290
    1
  9
$EXTNAMES
290
    1
  9
$PSVPSCALE
 40
1
  9
$OLESTARTUP
290
    0
  9
$SORTENTS
280
  127
  9
$INDEXCTL
280
    0
  9
$HIDETEXT
280
    1
  9
$XCLIPFRAME
290
    0
  9
$HALOGAP
280
    0
  9
$OBSCOLOR
 70
  257
  9
$OBSLTYPE
280
    0
  9
$INTERSECTIONDISPLAY
280
    0
  9
$INTERSECTIONCOLOR
 70
  257
  9
$DIMASSOC
280
    1
  9
$PROJECTNAME
  1

  9
$CAMERADISPLAY
290
    0
  9
$LENSLENGTH
 40
50
  9
$CAMERAHEIGHT
 40
0
  9
$STEPSPERSEC
 40
2
  9
$STEPSIZE
 40
50
  9
$3DDWFPREC
 40
2
  9
$PSOLWIDTH
 40
5
  9
$PSOLHEIGHT
 40
80
  9
$LOFTANG1
 40
1.570796326794897
  9
$LOFTANG2
 40
1.570796326794897
  9
$LOFTMAG1
 40
0
  9
$LOFTMAG2
 40
0
  9
$LOFTPARAM
 70
    7
  9
$LOFTNORMALS
280
    1
  9
$LATITUDE
 40
1
  9
$LONGITUDE
 40
1
  9
$NORTHDIRECTION
 40
0
  9
$TIMEZONE
 70
-8000
  9
$LIGHTGLYPHDISPLAY
280
    1
  9
$TILEMODELIGHTSYNCH
280
    1
  9
$SOLIDHIST
280
    1
  9
$SHOWHIST
280
    1
  9
$DWFFRAME
280
    2
  9
$DGNFRAME
280
    0
  9
$REALWORLDSCALE
290
    1
  9
$INTERFERECOLOR
 62
    1
  9
$CSHADOW
280
    0
  9
$SHADOWPLANELOCATION
 40
0
  0
ENDSEC
  0
SECTION
  2
CLASSES
  0
ENDSEC
  0
SECTION
  2
TABLES
  0
TABLE
  2
VPORT
  5
8
330
0
100
AcDbSymbolTable
 70
    1
  0
VPORT
  5
31
330
2
100
AcDbSymbolTableRecord
100
AcDbViewportTableRecord
  2
*ACTIVE
 70
    0
 10
0
 20
0
 11
1
 21
1
 12
405.6327048359258
 22
69.93667324757342
 13
0
 23
0
 14
10
 24
10
 15
10
 25
10
 16
0
 26
0
 36
1
 17
0
 27
0
 37
0
 40
321.3201598652401
 41
0.9866989117291415
 42
50
 43
0
 44
0
 50
0
 51
0
 71
    0
 72
  100
 73
    1
 74
    3
 75
    0
 76
    0
 77
    0
 78
    0
281
    0
 65
    1
110
0
120
0
130
0
111
1
121
0
131
0
112
0
122
1
132
0
 79
    0
146
0
348
10020
 60
    7
 61
    5
292
1
282
    1
141
0
142
0
 63
  250
421
3358443
  0
ENDTAB
  0
TABLE
  2
LTYPE
  5
5
330
0
100
AcDbSymbolTable
 70
    4
  0
LTYPE
  5
14
330
5
100
AcDbSymbolTableRecord
100
AcDbLinetypeTableRecord
  2
ByBlock
 70
    0
  3

 72
   65
 73
    0
 40
0
  0
LTYPE
  5
15
330
5
100
AcDbSymbolTableRecord
100
AcDbLinetypeTableRecord
  2
ByLayer
 70
    0
  3

 72
   65
 73
    0
 40
0
  0
LTYPE
  5
16
330
5
100
AcDbSymbolTableRecord
100
AcDbLinetypeTableRecord
  2
Continuous
 70
    0
  3
Solid line
 72
   65
 73
    0
 40
0
  0
LTYPE
  5
32
330
5
100
AcDbSymbolTableRecord
100
AcDbLinetypeTableRecord
  2
DOT
 70
    0
  3
Dot . . . . . . . . . . . . . . . . . . . . . .
 72
   65
 73
    2
 40
6.35
 49
0
 74
    0
 49
-6.35
 74
    0
  0
LTYPE
  5
33
330
5
100
AcDbSymbolTableRecord
100
AcDbLinetypeTableRecord
  2
DOTTINY
 70
    0
  3
Dot (.15x) .....................................
 72
   65
 73
    2
 40
0.9525
 49
0
 74
    0
 49
-0.9525
 74
    0
  0
LTYPE
  5
34
330
5
100
AcDbSymbolTableRecord
100
AcDbLinetypeTableRecord
  2
DOT2
 70
    0
  3
Dot (.5x) .....................................
 72
   65
 73
    2
 40
3.175
 49
0
 74
    0
 49
-3.175
 74
    0
  0
LTYPE
  5
35
330
5
100
AcDbSymbolTableRecord
100
AcDbLinetypeTableRecord
  2
DOTX2
 70
    0
  3
Dot (2x) .  .  .  .  .  .  .  .  .  .  .  .  .
 72
   65
 73
    2
 40
12.7
 49
0
 74
    0
 49
-12.7
 74
    0
  0
LTYPE
  5
36
330
5
100
AcDbSymbolTableRecord
100
AcDbLinetypeTableRecord
  2
DASHED
 70
    0
  3
Dashed _ _ _ _ _ _ _ _ _ _ _ _ _ _ _ _ _
 72
   65
 73
    2
 40
19.05
 49
12.7
 74
    0
 49
-6.35
 74
    0
  0
LTYPE
  5
37
330
5
100
AcDbSymbolTableRecord
100
AcDbLinetypeTableRecord
  2
DASHEDTINY
 70
    0
  3
Dashed (.15x) _ _ _ _ _ _ _ _ _ _ _ _ _ _ _ _ _
 72
   65
 73
    2
 40
2.8575
 49
1.905
 74
    0
 49
-0.9525
 74
    0
  0
LTYPE
  5
38
330
5
100
AcDbSymbolTableRecord
100
AcDbLinetypeTableRecord
  2
DASHED2
 70
    0
  3
Dashed (.5x) _ _ _ _ _ _ _ _ _ _ _ _ _ _ _ _ _
 72
   65
 73
    2
 40
9.524999999999999
 49
6.35
 74
    0
 49
-3.175
 74
    0
  0
LTYPE
  5
39
330
5
100
AcDbSymbolTableRecord
100
AcDbLinetypeTableRecord
  2
DASHEDX2
 70
    0
  3
Dashed (2x) ____  ____  ____  ____  ____  ___
 72
   65
 73
    2
 40
38.09999999999999
 49
25.4
 74
    0
 49
-12.7
 74
    0
  0
LTYPE
  5
3A
330
5
100
AcDbSymbolTableRecord
100
AcDbLinetypeTableRecord
  2
DASHDOT
 70
    0
  3
Dash dot __ . __ . __ . __ . __ . __ . __ . __
 72
   65
 73
    4
 40
25.4
 49
12.7
 74
    0
 49
-6.35
 74
    0
 49
0
 74
    0
 49
-6.35
 74
    0
  0
LTYPE
  5
3B
330
5
100
AcDbSymbolTableRecord
100
AcDbLinetypeTableRecord
  2
DASHDOTTINY
 70
    0
  3
Dash dot (.15x) _._._._._._._._._._._._._._._.
 72
   65
 73
    4
 40
3.81
 49
1.905
 74
    0
 49
-0.9525
 74
    0
 49
0
 74
    0
 49
-0.9525
 74
    0
  0
LTYPE
  5
3C
330
5
100
AcDbSymbolTableRecord
100
AcDbLinetypeTableRecord
  2
DASHDOT2
 70
    0
  3
Dash dot (.5x) _._._._._._._._._._._._._._._.
 72
   65
 73
    4
 40
12.7
 49
6.35
 74
    0
 49
-3.175
 74
    0
 49
0
 74
    0
 49
-3.175
 74
    0
  0
LTYPE
  5
3D
330
5
100
AcDbSymbolTableRecord
100
AcDbLinetypeTableRecord
  2
DASHDOTX2
 70
    0
  3
Dash dot (2x) ____  .  ____  .  ____  .  ___
 72
   65
 73
    4
 40
50.8
 49
25.4
 74
    0
 49
-12.7
 74
    0
 49
0
 74
    0
 49
-12.7
 74
    0
  0
LTYPE
  5
3E
330
5
100
AcDbSymbolTableRecord
100
AcDbLinetypeTableRecord
  2
DIVIDE
 70
    0
  3
Divide ____ . . ____ . . ____ . . ____ . . ____
 72
   65
 73
    6
 40
31.75
 49
12.7
 74
    0
 49
-6.35
 74
    0
 49
0
 74
    0
 49
-6.35
 74
    0
 49
0
 74
    0
 49
-6.35
 74
    0
  0
LTYPE
  5
3F
330
5
100
AcDbSymbolTableRecord
100
AcDbLinetypeTableRecord
  2
DIVIDETINY
 70
    0
  3
Divide (.15x) __..__..__..__..__..__..__..__.._
 72
   65
 73
    6
 40
4.7625
 49
1.905
 74
    0
 49
-0.9525
 74
    0
 49
0
 74
    0
 49
-0.9525
 74
    0
 49
0
 74
    0
 49
-0.9525
 74
    0
  0
LTYPE
  5
40
330
5
100
AcDbSymbolTableRecord
100
AcDbLinetypeTableRecord
  2
DIVIDE2
 70
    0
  3
Divide (.5x) __..__..__..__..__..__..__..__.._
 72
   65
 73
    6
 40
15.875
 49
6.35
 74
    0
 49
-3.175
 74
    0
 49
0
 74
    0
 49
-3.175
 74
    0
 49
0
 74
    0
 49
-3.175
 74
    0
  0
LTYPE
  5
41
330
5
100
AcDbSymbolTableRecord
100
AcDbLinetypeTableRecord
  2
DIVIDEX2
 70
    0
  3
Divide (2x) ________  .  .  ________  .  .  _
 72
   65
 73
    6
 40
63.5
 49
25.4
 74
    0
 49
-12.7
 74
    0
 49
0
 74
    0
 49
-12.7
 74
    0
 49
0
 74
    0
 49
-12.7
 74
    0
  0
LTYPE
  5
42
330
5
100
AcDbSymbolTableRecord
100
AcDbLinetypeTableRecord
  2
BORDER
 70
    0
  3
Border __ __ . __ __ . __ __ . __ __ . __ __ .
 72
   65
 73
    6
 40
44.45
 49
12.7
 74
    0
 49
-6.35
 74
    0
 49
12.7
 74
    0
 49
-6.35
 74
    0
 49
0
 74
    0
 49
-6.35
 74
    0
  0
LTYPE
  5
43
330
5
100
AcDbSymbolTableRecord
100
AcDbLinetypeTableRecord
  2
BORDERTINY
 70
    0
  3
Border (.15x) __.__.__.__.__.__.__.__.__.__.__.
 72
   65
 73
    6
 40
6.6675
 49
1.905
 74
    0
 49
-0.9525
 74
    0
 49
1.905
 74
    0
 49
-0.9525
 74
    0
 49
0
 74
    0
 49
-0.9525
 74
    0
  0
LTYPE
  5
44
330
5
100
AcDbSymbolTableRecord
100
AcDbLinetypeTableRecord
  2
BORDER2
 70
    0
  3
Border (.5x) __.__.__.__.__.__.__.__.__.__.__.
 72
   65
 73
    6
 40
22.225
 49
6.35
 74
    0
 49
-3.175
 74
    0
 49
6.35
 74
    0
 49
-3.175
 74
    0
 49
0
 74
    0
 49
-3.175
 74
    0
  0
LTYPE
  5
45
330
5
100
AcDbSymbolTableRecord
100
AcDbLinetypeTableRecord
  2
BORDERX2
 70
    0
  3
Border (2x) ____  ____  .  ____  ____  .  ___
 72
   65
 73
    6
 40
88.89999999999999
 49
25.4
 74
    0
 49
-12.7
 74
    0
 49
25.4
 74
    0
 49
-12.7
 74
    0
 49
0
 74
    0
 49
-12.7
 74
    0
  0
LTYPE
  5
46
330
5
100
AcDbSymbolTableRecord
100
AcDbLinetypeTableRecord
  2
CENTER
 70
    0
  3
Center ____ _ ____ _ ____ _ ____ _ ____ _ ____
 72
   65
 73
    4
 40
50.8
 49
31.75
 74
    0
 49
-6.35
 74
    0
 49
6.35
 74
    0
 49
-6.35
 74
    0
  0
LTYPE
  5
47
330
5
100
AcDbSymbolTableRecord
100
AcDbLinetypeTableRecord
  2
CENTERTINY
 70
    0
  3
Center (.15x) ___ _ ___ _ ___ _ ___ _ ___ _ ___
 72
   65
 73
    4
 40
7.619999999999999
 49
4.7625
 74
    0
 49
-0.9525
 74
    0
 49
0.9525
 74
    0
 49
-0.9525
 74
    0
  0
LTYPE
  5
48
330
5
100
AcDbSymbolTableRecord
100
AcDbLinetypeTableRecord
  2
CENTER2
 70
    0
  3
Center (.5x) ___ _ ___ _ ___ _ ___ _ ___ _ ___
 72
   65
 73
    4
 40
28.575
 49
19.05
 74
    0
 49
-3.175
 74
    0
 49
3.175
 74
    0
 49
-3.175
 74
    0
  0
LTYPE
  5
49
330
5
100
AcDbSymbolTableRecord
100
AcDbLinetypeTableRecord
  2
CENTERX2
 70
    0
  3
Center (2x) ________  __  ________  __  _____
 72
   65
 73
    4
 40
101.6
 49
63.5
 74
    0
 49
-12.7
 74
    0
 49
12.7
 74
    0
 49
-12.7
 74
    0
  0
ENDTAB
  0
TABLE
  2
LAYER
  5
2
330
0
100
AcDbSymbolTable
 70
    1
  0
LAYER
  5
10
330
2
100
AcDbSymbolTableRecord
100
AcDbLayerTableRecord
  2
0
 70
    0
 62
    7
  6
CONTINUOUS
370
   -3
390
F
  0
LAYER
  5
4A
330
2
100
AcDbSymbolTableRecord
100
AcDbLayerTableRecord
  2
pocket-1.1mm
 70
    0
 62
    4
  6
CONTINUOUS
370
    0
390
F
  0
LAYER
  5
4B
330
2
100
AcDbSymbolTableRecord
100
AcDbLayerTableRecord
  2
profiling
 70
    0
 62
    3
  6
CONTINUOUS
370
    0
390
F
  0
LAYER
  5
4C
330
2
100
AcDbSymbolTableRecord
100
AcDbLayerTableRecord
  2
vcut
 70
    0
 62
    6
  6
CONTINUOUS
370
    0
390
F
  0
ENDTAB
  0
TABLE
  2
STYLE
  5
3
330
0
100
AcDbSymbolTable
 70
    3
  0
STYLE
  5
4D
330
2
100
AcDbSymbolTableRecord
100
AcDbTextStyleTableRecord
  2
Standard
 70
    0
 40
0
 41
1
 50
0
 71
    0
 42
1
  3
txt
  4

  0
ENDTAB
  0
TABLE
  2
VIEW
  5
6
330
0
100
AcDbSymbolTable
 70
    0
  0
ENDTAB
  0
TABLE
  2
UCS
  5
7
330
0
100
AcDbSymbolTable
 70
    0
  0
ENDTAB
  0
TABLE
  2
APPID
  5
9
330
0
100
AcDbSymbolTable
 70
    1
  0
APPID
  5
12
330
9
100
AcDbSymbolTableRecord
100
AcDbRegAppTableRecord
  2
ACAD
 70
    0
  0
APPID
  5
4E
330
9
100
AcDbSymbolTableRecord
100
AcDbRegAppTableRecord
  2
LibreCad
 70
    0
  0
ENDTAB
  0
TABLE
  2
DIMSTYLE
  5
A
330
0
100
AcDbSymbolTable
 70
    1
100
AcDbDimStyleTable
 71
    1
  0
DIMSTYLE
105
4F
330
A
100
AcDbSymbolTableRecord
100
AcDbDimStyleTableRecord
  2
Standard
 70
    0
 40
2.5
 41
2.5
 42
0.625
 43
0.38
 44
1.25
 45
0
 46
0
 47
0
 48
0
 49
1
140
2.5
141
0.09
142
0
143
25.4
144
1
145
0
146
1
147
0.625
148
0
 71
    0
 72
    0
 73
    0
 74
    1
 75
    0
 76
    0
 77
    0
 78
    8
 79
    0
170
    0
171
    2
172
    0
173
    0
174
    0
175
    0
176
    0
177
    0
178
    0
179
    0
271
    2
272
    4
273
    2
274
    2
275
    0
276
    0
277
    2
278
   44
279
    0
280
    0
281
    0
282
    0
283
    1
284
    0
285
    0
286
    0
288
    0
289
    3
340
STANDARD
341

371
   -2
372
   -2
  0
ENDTAB
  0
TABLE
  2
BLOCK_RECORD
  5
1
330
0
100
AcDbSymbolTable
 70
    2
  0
BLOCK_RECORD
  5
1F
330
1
100
AcDbSymbolTableRecord
100
AcDbBlockTableRecord
  2
*Model_Space
 70
    0
280
    1
281
    0
  0
BLOCK_RECORD
  5
1E
330
1
100
AcDbSymbolTableRecord
100
AcDbBlockTableRecord
  2
*Paper_Space
 70
    0
280
    1
281
    0
  0
ENDTAB
  0
ENDSEC
  0
SECTION
  2
BLOCKS
  0
BLOCK
  5
20
330
1F
100
AcDbEntity
  8
0
100
AcDbBlockBegin
  2
*Model_Space
 70
    0
 10
0
 20
0
 30
0
  3
*Model_Space
  1

  0
ENDBLK
  5
21
330
1F
100
AcDbEntity
  8
0
100
AcDbBlockEnd
  0
BLOCK
  5
1C
330
1B
100
AcDbEntity
  8
0
100
AcDbBlockBegin
  2
*Paper_Space
 70
    0
 10
0
 20
0
 30
0
  3
*Paper_Space
  1

  0
ENDBLK
  5
1D
330
1F
100
AcDbEntity
  8
0
100
AcDbBlockEnd
  0
ENDSEC
  0
SECTION
  2
ENTITIES
  0
LWPOLYLINE
  5
50
100
AcDbEntity
  8
pocket-1.1mm
  6
ByLayer
 62
  256
370
   -1
100
AcDbPolyline
 90
  115
 70
    1
 43
0
 10
673.38675
 20
87.94799999999999
 10
673.90125
 20
85.89449999999999
 10
674.2117500000001
 20
83.8005
 10
674.316
 20
81.68625
 10
674.2117500000001
 20
79.572
 10
673.90125
 20
77.47799999999999
 10
673.38675
 20
75.42449999999999
 10
672.6735
 20
73.431
 10
671.76825
 20
71.517
 10
670.6799999999999
 20
69.70125
 10
669.4185
 20
68.001
 10
667.9965
 20
66.432
 10
666.4275
 20
65.01000000000001
 10
664.72725
 20
63.7485
 10
662.9115
 20
62.66025
 10
660.9974999999999
 20
61.755
 10
659.004
 20
61.04175
 10
656.9505
 20
60.52725
 10
654.8565
 20
60.21675
 10
652.74225
 20
60.11325
 10
650.628
 20
60.2175
 10
648.534
 20
60.528
 10
646.4805
 20
61.0425
 10
644.487
 20
61.75575
 10
642.573
 20
62.661
 10
640.75725
 20
63.74925
 10
639.057
 20
65.01075
 10
637.4880000000001
 20
66.43275
 10
636.066
 20
68.00175
 10
634.8045
 20
69.702
 10
634.68825
 20
69.87224999999999
 10
634.55325
 20
70.041
 10
634.401
 20
70.206
 10
634.2329999999999
 20
70.3665
 10
634.05075
 20
70.52025
 10
633.8557499999999
 20
70.6665
 10
633.65025
 20
70.803
 10
633.43575
 20
70.929
 10
633.21525
 20
71.04375
 10
632.9902499999999
 20
71.145
 10
632.763
 20
71.23275
 10
632.53575
 20
71.30549999999999
 10
632.31075
 20
71.36324999999999
 10
632.0895
 20
71.4045
 10
631.875
 20
71.42925
 10
631.66875
 20
71.4375
 10
619.2569999999999
 20
71.4375
 10
618.78525
 20
71.46599999999999
 10
618.32025
 20
71.5515
 10
617.86875
 20
71.6925
 10
617.4375
 20
71.88675000000001
 10
617.0325
 20
72.13124999999999
 10
616.6605
 20
72.423
 10
616.326
 20
72.75749999999999
 10
616.03425
 20
73.12949999999999
 10
615.78975
 20
73.53449999999999
 10
615.5955
 20
73.96575
 10
615.4545000000001
 20
74.41725
 10
615.369
 20
74.88225
 10
615.3405
 20
75.354
 10
615.3405
 20
75.89324999999999
 10
615.3405
 20
76.4325
 10
615.3405
 20
88.02
 10
615.369
 20
88.49175
 10
615.4545000000001
 20
88.95675
 10
615.5955
 20
89.40825
 10
615.78975
 20
89.8395
 10
616.03425
 20
90.2445
 10
616.326
 20
90.6165
 10
616.6605
 20
90.95099999999999
 10
617.0325
 20
91.24275
 10
617.4375
 20
91.48725
 10
617.86875
 20
91.6815
 10
618.32025
 20
91.82250000000001
 10
618.78525
 20
91.908
 10
619.2569999999999
 20
91.9365
 10
631.66875
 20
91.9365
 10
631.875
 20
91.94475
 10
632.0895
 20
91.9695
 10
632.31075
 20
92.01075
 10
632.53575
 20
92.0685
 10
632.763
 20
92.14125
 10
632.9902499999999
 20
92.229
 10
633.21525
 20
92.33025000000001
 10
633.43575
 20
92.44499999999999
 10
633.65025
 20
92.571
 10
633.8557499999999
 20
92.7075
 10
634.05075
 20
92.85375000000001
 10
634.2329999999999
 20
93.00749999999999
 10
634.401
 20
93.16800000000001
 10
634.55325
 20
93.333
 10
634.68825
 20
93.50175
 10
634.8045
 20
93.672
 10
636.06525
 20
95.37224999999999
 10
637.48725
 20
96.94125
 10
639.05625
 20
98.36324999999999
 10
640.7565
 20
99.62475000000001
 10
642.5722500000001
 20
100.713
 10
644.48625
 20
101.61825
 10
646.47975
 20
102.3315
 10
648.53325
 20
102.846
 10
650.62725
 20
103.1565
 10
652.7415
 20
103.26075
 10
654.8557499999999
 20
103.1565
 10
656.94975
 20
102.846
 10
659.00325
 20
102.3315
 10
660.99675
 20
101.61825
 10
662.91075
 20
100.713
 10
664.7265
 20
99.62475000000001
 10
666.42675
 20
98.36324999999999
 10
667.99575
 20
96.94125
 10
669.41775
 20
95.37224999999999
 10
670.67925
 20
93.672
 10
671.7675
 20
91.85625
 10
672.67275
 20
89.94225
  0
LWPOLYLINE
  5
51
100
AcDbEntity
  8
profiling
  6
ByLayer
 62
  256
370
   -1
100
AcDbPolyline
 90
  353
 70
    1
 43
0
 10
618.9675
 20
40.212
 10
618.3405
 20
40.4265
 10
618.3405
 20
40.4265
 10
618.3405
 20
40.4265
 10
618.3405
 20
40.4265
 10
617.7307499999999
 20
40.69875
 10
617.7307499999999
 20
40.69875
 10
617.1442500000001
 20
41.02575
 10
617.1442500000001
 20
41.02575
 10
617.1442500000001
 20
41.02575
 10
617.1442500000001
 20
41.02575
 10
616.587
 20
41.40525
 10
616.587
 20
41.40525
 10
616.06425
 20
41.83275
 10
616.06425
 20
41.83275
 10
616.06425
 20
41.83275
 10
616.06425
 20
41.83275
 10
615.58125
 20
42.3045
 10
615.58125
 20
42.3045
 10
615.1425
 20
42.816
 10
615.1425
 20
42.816
 10
615.1425
 20
42.816
 10
615.1425
 20
42.816
 10
614.75175
 20
43.362
 10
614.75175
 20
43.362
 10
614.4135
 20
43.93725
 10
614.4135
 20
43.93725
 10
614.4135
 20
43.93725
 10
614.4135
 20
43.93725
 10
614.13075
 20
44.5365
 10
614.13075
 20
44.5365
 10
613.90575
 20
45.15375
 10
613.90575
 20
45.15375
 10
613.90575
 20
45.15375
 10
613.90575
 20
45.15375
 10
613.74075
 20
45.78375
 10
613.74075
 20
45.78375
 10
613.638
 20
46.41975
 10
613.638
 20
46.41975
 10
613.638
 20
46.41975
 10
613.638
 20
46.41975
 10
610.04175
 20
78.45525000000001
 10
610.04175
 20
78.45525000000001
 10
610.04175
 20
78.45525000000001
 10
610.008
 20
78.78749999999999
 10
610.008
 20
78.78749999999999
 10
610.008
 20
78.78749999999999
 10
610.008
 20
78.78749999999999
 10
609.978
 20
79.14749999999999
 10
609.978
 20
79.14749999999999
 10
609.978
 20
79.14749999999999
 10
609.9517499999999
 20
79.53225
 10
609.9517499999999
 20
79.53225
 10
609.9517499999999
 20
79.53225
 10
609.9299999999999
 20
79.93725000000001
 10
609.9299999999999
 20
79.93725000000001
 10
609.9299999999999
 20
79.93725000000001
 10
609.91275
 20
80.3595
 10
609.91275
 20
80.3595
 10
609.91275
 20
80.3595
 10
609.90075
 20
80.7945
 10
609.90075
 20
80.7945
 10
609.90075
 20
80.7945
 10
609.89325
 20
81.23775000000001
 10
609.89325
 20
81.23775000000001
 10
609.89325
 20
81.23775000000001
 10
609.891
 20
81.6855
 10
609.891
 20
81.6855
 10
609.891
 20
81.6855
 10
609.89325
 20
82.13325
 10
609.89325
 20
82.13325
 10
609.89325
 20
82.13325
 10
609.90075
 20
82.5765
 10
609.90075
 20
82.5765
 10
609.90075
 20
82.5765
 10
609.91275
 20
83.0115
 10
609.91275
 20
83.0115
 10
609.91275
 20
83.0115
 10
609.9299999999999
 20
83.43375
 10
609.9299999999999
 20
83.43375
 10
609.9299999999999
 20
83.43375
 10
609.9517499999999
 20
83.83875
 10
609.9517499999999
 20
83.83875
 10
609.9517499999999
 20
83.83875
 10
609.978
 20
84.2235
 10
609.978
 20
84.2235
 10
609.978
 20
84.2235
 10
610.008
 20
84.5835
 10
610.008
 20
84.5835
 10
610.008
 20
84.5835
 10
610.04175
 20
84.91575
 10
610.04175
 20
84.91575
 10
610.04175
 20
84.91575
 10
613.638
 20
116.95125
 10
613.638
 20
116.95125
 10
613.638
 20
116.95125
 10
613.638
 20
116.95125
 10
613.74075
 20
117.58725
 10
613.74075
 20
117.58725
 10
613.90575
 20
118.21725
 10
613.90575
 20
118.21725
 10
613.90575
 20
118.21725
 10
613.90575
 20
118.21725
 10
614.13075
 20
118.8345
 10
614.13075
 20
118.8345
 10
614.4135
 20
119.43375
 10
614.4135
 20
119.43375
 10
614.4135
 20
119.43375
 10
614.4135
 20
119.43375
 10
614.75175
 20
120.009
 10
614.75175
 20
120.009
 10
615.1425
 20
120.555
 10
615.1425
 20
120.555
 10
615.1425
 20
120.555
 10
615.1425
 20
120.555
 10
615.58125
 20
121.0665
 10
615.58125
 20
121.0665
 10
616.06425
 20
121.53825
 10
616.06425
 20
121.53825
 10
616.06425
 20
121.53825
 10
616.06425
 20
121.53825
 10
616.587
 20
121.96575
 10
616.587
 20
121.96575
 10
617.1442500000001
 20
122.34525
 10
617.1442500000001
 20
122.34525
 10
617.1442500000001
 20
122.34525
 10
617.1442500000001
 20
122.34525
 10
617.7307499999999
 20
122.67225
 10
617.7307499999999
 20
122.67225
 10
618.3405
 20
122.9445
 10
618.3405
 20
122.9445
 10
618.3405
 20
122.9445
 10
618.3405
 20
122.9445
 10
618.9675
 20
123.159
 10
618.9675
 20
123.159
 10
619.6065
 20
123.3135
 10
619.6065
 20
123.3135
 10
619.6065
 20
123.3135
 10
619.6065
 20
123.3135
 10
620.25075
 20
123.40725
 10
620.25075
 20
123.40725
 10
620.25075
 20
123.40725
 10
620.25075
 20
123.40725
 10
620.8942500000001
 20
123.43875
 10
620.8942500000001
 20
123.43875
 10
659.09025
 20
123.43875
 10
659.09025
 20
123.43875
 10
659.09025
 20
123.43875
 10
659.09025
 20
123.43875
 10
661.1392499999999
 20
123.3885
 10
661.1392499999999
 20
123.3885
 10
661.1392499999999
 20
123.3885
 10
663.183
 20
123.23775
 10
663.183
 20
123.23775
 10
663.183
 20
123.23775
 10
665.217
 20
122.98725
 10
665.217
 20
122.98725
 10
665.217
 20
122.98725
 10
667.236
 20
122.637
 10
667.236
 20
122.637
 10
667.236
 20
122.637
 10
669.2355
 20
122.18775
 10
669.2355
 20
122.18775
 10
669.2355
 20
122.18775
 10
671.211
 20
121.641
 10
671.211
 20
121.641
 10
671.211
 20
121.641
 10
673.15725
 20
120.99825
 10
673.15725
 20
120.99825
 10
673.15725
 20
120.99825
 10
675.069
 20
120.261
 10
675.069
 20
120.261
 10
675.069
 20
120.261
 10
676.9425
 20
119.43075
 10
676.9425
 20
119.43075
 10
676.9425
 20
119.43075
 10
678.77325
 20
118.509
 10
678.77325
 20
118.509
 10
678.77325
 20
118.509
 10
680.556
 20
117.49875
 10
680.556
 20
117.49875
 10
680.556
 20
117.49875
 10
682.28775
 20
116.40225
 10
682.28775
 20
116.40225
 10
682.28775
 20
116.40225
 10
683.96325
 20
115.2225
 10
683.96325
 20
115.2225
 10
683.96325
 20
115.2225
 10
685.57875
 20
113.96175
 10
685.57875
 20
113.96175
 10
685.57875
 20
113.96175
 10
687.1305
 20
112.623
 10
687.1305
 20
112.623
 10
687.1305
 20
112.623
 10
688.61475
 20
111.21
 10
688.61475
 20
111.21
 10
688.61475
 20
111.21
 10
690.02775
 20
109.72575
 10
690.02775
 20
109.72575
 10
690.02775
 20
109.72575
 10
691.3665
 20
108.174
 10
691.3665
 20
108.174
 10
691.3665
 20
108.174
 10
692.62725
 20
106.5585
 10
692.62725
 20
106.5585
 10
692.62725
 20
106.5585
 10
693.807
 20
104.883
 10
693.807
 20
104.883
 10
693.807
 20
104.883
 10
694.9035
 20
103.15125
 10
694.9035
 20
103.15125
 10
694.9035
 20
103.15125
 10
695.9137500000001
 20
101.3685
 10
695.9137500000001
 20
101.3685
 10
695.9137500000001
 20
101.3685
 10
696.8355
 20
99.53775
 10
696.8355
 20
99.53775
 10
696.8355
 20
99.53775
 10
697.66575
 20
97.66425
 10
697.66575
 20
97.66425
 10
697.66575
 20
97.66425
 10
698.403
 20
95.7525
 10
698.403
 20
95.7525
 10
698.403
 20
95.7525
 10
699.04575
 20
93.80625000000001
 10
699.04575
 20
93.80625000000001
 10
699.04575
 20
93.80625000000001
 10
699.5925
 20
91.83150000000001
 10
699.5925
 20
91.83150000000001
 10
699.5925
 20
91.83150000000001
 10
700.04175
 20
89.83199999999999
 10
700.04175
 20
89.83199999999999
 10
700.04175
 20
89.83199999999999
 10
700.3920000000001
 20
87.813
 10
700.3920000000001
 20
87.813
 10
700.3920000000001
 20
87.813
 10
700.6425
 20
85.779
 10
700.6425
 20
85.779
 10
700.6425
 20
85.779
 10
700.7932499999999
 20
83.73524999999999
 10
700.7932499999999
 20
83.73524999999999
 10
700.7932499999999
 20
83.73524999999999
 10
700.8434999999999
 20
81.68625
 10
700.8434999999999
 20
81.68625
 10
700.8434999999999
 20
81.68625
 10
700.7932499999999
 20
79.63724999999999
 10
700.7932499999999
 20
79.63724999999999
 10
700.7932499999999
 20
79.63724999999999
 10
700.6425
 20
77.59350000000001
 10
700.6425
 20
77.59350000000001
 10
700.6425
 20
77.59350000000001
 10
700.3920000000001
 20
75.5595
 10
700.3920000000001
 20
75.5595
 10
700.3920000000001
 20
75.5595
 10
700.04175
 20
73.54049999999999
 10
700.04175
 20
73.54049999999999
 10
700.04175
 20
73.54049999999999
 10
699.5925
 20
71.541
 10
699.5925
 20
71.541
 10
699.5925
 20
71.541
 10
699.04575
 20
69.56625
 10
699.04575
 20
69.56625
 10
699.04575
 20
69.56625
 10
698.403
 20
67.62
 10
698.403
 20
67.62
 10
698.403
 20
67.62
 10
697.66575
 20
65.70825000000001
 10
697.66575
 20
65.70825000000001
 10
697.66575
 20
65.70825000000001
 10
696.8355
 20
63.83475
 10
696.8355
 20
63.83475
 10
696.8355
 20
63.83475
 10
695.9137500000001
 20
62.004
 10
695.9137500000001
 20
62.004
 10
695.9137500000001
 20
62.004
 10
694.9035
 20
60.22125
 10
694.9035
 20
60.22125
 10
694.9035
 20
60.22125
 10
693.807
 20
58.4895
 10
693.807
 20
58.4895
 10
693.807
 20
58.4895
 10
692.62725
 20
56.814
 10
692.62725
 20
56.814
 10
692.62725
 20
56.814
 10
691.3665
 20
55.1985
 10
691.3665
 20
55.1985
 10
691.3665
 20
55.1985
 10
690.02775
 20
53.64675
 10
690.02775
 20
53.64675
 10
690.02775
 20
53.64675
 10
688.61475
 20
52.1625
 10
688.61475
 20
52.1625
 10
688.61475
 20
52.1625
 10
687.1305
 20
50.7495
 10
687.1305
 20
50.7495
 10
687.1305
 20
50.7495
 10
685.57875
 20
49.41075
 10
685.57875
 20
49.41075
 10
685.57875
 20
49.41075
 10
683.96325
 20
48.15
 10
683.96325
 20
48.15
 10
683.96325
 20
48.15
 10
682.28775
 20
46.97025
 10
682.28775
 20
46.97025
 10
682.28775
 20
46.97025
 10
680.556
 20
45.87375
 10
680.556
 20
45.87375
 10
680.556
 20
45.87375
 10
678.77325
 20
44.8635
 10
678.77325
 20
44.8635
 10
678.77325
 20
44.8635
 10
676.9425
 20
43.94175
 10
676.9425
 20
43.94175
 10
676.9425
 20
43.94175
 10
675.069
 20
43.1115
 10
675.069
 20
43.1115
 10
675.069
 20
43.1115
 10
673.15725
 20
42.37425
 10
673.15725
 20
42.37425
 10
673.15725
 20
42.37425
 10
671.211
 20
41.7315
 10
671.211
 20
41.7315
 10
671.211
 20
41.7315
 10
669.2355
 20
41.18475
 10
669.2355
 20
41.18475
 10
669.2355
 20
41.18475
 10
667.236
 20
40.7355
 10
667.236
 20
40.7355
 10
667.236
 20
40.7355
 10
665.217
 20
40.38525
 10
665.217
 20
40.38525
 10
665.217
 20
40.38525
 10
663.183
 20
40.13475
 10
663.183
 20
40.13475
 10
663.183
 20
40.13475
 10
661.1392499999999
 20
39.984
 10
661.1392499999999
 20
39.984
 10
661.1392499999999
 20
39.984
 10
659.09025
 20
39.93375
 10
659.09025
 20
39.93375
 10
659.09025
 20
39.93375
 10
620.8942500000001
 20
39.93375
 10
620.8942500000001
 20
39.93375
 10
620.8942500000001
 20
39.93375
 10
620.25075
 20
39.96525
 10
620.25075
 20
39.96525
 10
620.25075
 20
39.96525
 10
619.6065
 20
40.059
 10
619.6065
 20
40.059
 10
619.6065
 20
40.059
 10
619.6065
 20
40.059
 10
618.9675
 20
40.2135
 10
618.9675
 20
40.2135
  0
LWPOLYLINE
  5
52
100
AcDbEntity
  8
profiling
  6
ByLayer
 62
  256
370
   -1
100
AcDbPolyline
 90
   37
 70
    1
 43
0
 10
622.36575
 20
81.27825
 10
622.485
 20
80.88675000000001
 10
622.6777499999999
 20
80.52525
 10
622.9372499999999
 20
80.20874999999999
 10
623.25375
 20
79.94925000000001
 10
623.6152499999999
 20
79.7565
 10
624.00675
 20
79.63800000000001
 10
624.414
 20
79.5975
 10
624.82125
 20
79.63800000000001
 10
625.21275
 20
79.7565
 10
625.5735
 20
79.94925000000001
 10
625.89
 20
80.20874999999999
 10
626.1495
 20
80.52525
 10
626.34225
 20
80.88675000000001
 10
626.4615
 20
81.27825
 10
626.502
 20
81.6855
 10
626.4615
 20
82.09275
 10
626.34225
 20
82.48425
 10
626.1495
 20
82.84575
 10
625.89
 20
83.16225
 10
625.5735
 20
83.42175
 10
625.5735
 20
83.42175
 10
625.5735
 20
83.42175
 10
625.21275
 20
83.61450000000001
 10
624.82125
 20
83.733
 10
624.414
 20
83.7735
 10
624.00675
 20
83.733
 10
623.6152499999999
 20
83.61450000000001
 10
623.25375
 20
83.42175
 10
622.9372499999999
 20
83.16225
 10
622.6777499999999
 20
82.84575
 10
622.6777499999999
 20
82.84575
 10
622.485
 20
82.48425
 10
622.36575
 20
82.09275
 10
622.32525
 20
81.6855
 10
622.3462500000001
 20
81.4725
 10
622.365
 20
81.27825
  0
LWPOLYLINE
  5
53
100
AcDbEntity
  8
profiling
  6
ByLayer
 62
  256
370
   -1
100
AcDbPolyline
 90
  163
 70
    1
 43
0
 10
636.732
 20
78.50324999999999
 10
637.12125
 20
76.95075
 10
637.6605
 20
75.44325000000001
 10
638.34525
 20
73.9965
 10
639.16875
 20
72.62325
 10
640.12275
 20
71.33775
 10
641.19825
 20
70.152
 10
642.2505
 20
69.19875
 10
642.3847500000001
 20
69.0765
 10
643.671
 20
68.12325
 10
645.045
 20
67.3005
 10
646.4924999999999
 20
66.61575000000001
 10
648.00075
 20
66.0765
 10
649.554
 20
65.68725000000001
 10
651.138
 20
65.4525
 10
652.73775
 20
65.37375
 10
654.34575
 20
65.4525
 10
655.92975
 20
65.68725000000001
 10
657.4829999999999
 20
66.0765
 10
658.99125
 20
66.61575000000001
 10
660.43875
 20
67.3005
 10
661.64625
 20
68.0235
 10
661.8127500000001
 20
68.12325
 10
662.38125
 20
68.54474999999999
 10
662.94825
 20
68.96550000000001
 10
662.94825
 20
68.96550000000001
 10
662.94825
 20
68.96550000000001
 10
663.099
 20
69.07725000000001
 10
663.579
 20
69.51224999999999
 10
663.579
 20
69.51224999999999
 10
663.981
 20
69.87675
 10
663.981
 20
69.87675
 10
664.2855
 20
70.152
 10
664.45575
 20
70.34025
 10
664.45575
 20
70.34025
 10
664.89525
 20
70.82474999999999
 10
664.89525
 20
70.82474999999999
 10
664.89525
 20
70.82474999999999
 10
665.31975
 20
71.29275
 10
665.31975
 20
71.29275
 10
665.31975
 20
71.29275
 10
665.361
 20
71.3385
 10
665.6745
 20
71.76075
 10
665.69925
 20
71.7945
 10
665.69925
 20
71.7945
 10
666.3150000000001
 20
72.624
 10
666.372
 20
72.71925
 10
666.40425
 20
72.77325
 10
666.40425
 20
72.77325
 10
666.708
 20
73.28025
 10
666.708
 20
73.28025
 10
666.75225
 20
73.3545
 10
667.00275
 20
73.77225
 10
667.00275
 20
73.77225
 10
667.00275
 20
73.77225
 10
667.13775
 20
73.99724999999999
 10
667.26825
 20
74.27325
 10
667.50675
 20
74.77800000000001
 10
667.50675
 20
74.77800000000001
 10
667.74
 20
75.27075000000001
 10
667.74
 20
75.27075000000001
 10
667.74
 20
75.27075000000001
 10
667.8225
 20
75.44475
 10
667.90275
 20
75.66825
 10
667.94025
 20
75.77249999999999
 10
667.94025
 20
75.77249999999999
 10
668.0069999999999
 20
75.9585
 10
668.23125
 20
76.5855
 10
668.3625
 20
76.9515
 10
668.4405
 20
77.26349999999999
 10
668.4405
 20
77.26349999999999
 10
668.48175
 20
77.4285
 10
668.5665
 20
77.76600000000001
 10
668.688
 20
78.252
 10
668.688
 20
78.252
 10
668.688
 20
78.252
 10
668.688
 20
78.252
 10
668.751
 20
78.504
 10
668.787
 20
78.74475
 10
668.787
 20
78.74475
 10
668.787
 20
78.74475
 10
668.8605
 20
79.239
 10
668.8605
 20
79.239
 10
668.9865
 20
80.08799999999999
 10
668.99325
 20
80.21775
 10
668.99325
 20
80.21775
 10
669.06525
 20
81.687
 10
668.99325
 20
83.15625
 10
668.99325
 20
83.15625
 10
668.9865
 20
83.286
 10
668.9865
 20
83.286
 10
668.8605
 20
84.13500000000001
 10
668.787
 20
84.62925
 10
668.787
 20
84.62925
 10
668.751
 20
84.87
 10
668.688
 20
85.122
 10
668.688
 20
85.122
 10
668.5694999999999
 20
85.5945
 10
668.36625
 20
86.40675
 10
668.3625
 20
86.4225
 10
668.16675
 20
86.96925
 10
668.06175
 20
87.26325
 10
668.02725
 20
87.36
 10
667.941
 20
87.6015
 10
667.941
 20
87.6015
 10
667.941
 20
87.6015
 10
667.82325
 20
87.93000000000001
 10
667.269
 20
89.10075000000001
 10
667.269
 20
89.10075000000001
 10
667.269
 20
89.10075000000001
 10
667.269
 20
89.10075000000001
 10
667.269
 20
89.10075000000001
 10
667.1385
 20
89.37675
 10
667.1385
 20
89.37675
 10
666.70875
 20
90.09375
 10
666.70875
 20
90.09375
 10
666.70875
 20
90.09375
 10
666.62775
 20
90.22875000000001
 10
666.405
 20
90.60075000000001
 10
666.405
 20
90.60075000000001
 10
666.405
 20
90.60075000000001
 10
666.31575
 20
90.75
 10
666.06375
 20
91.08975
 10
666.06375
 20
91.08975
 10
666.06375
 20
91.08975
 10
665.976
 20
91.20825000000001
 10
665.976
 20
91.20825000000001
 10
665.36175
 20
92.0355
 10
665.10825
 20
92.31525000000001
 10
664.45725
 20
93.03375
 10
664.3995
 20
93.0975
 10
664.287
 20
93.22125
 10
663.1005
 20
94.29600000000001
 10
661.81425
 20
95.24925
 10
661.81425
 20
95.24925
 10
660.44025
 20
96.072
 10
659.5170000000001
 20
96.5085
 10
659.09175
 20
96.70950000000001
 10
659.09175
 20
96.70950000000001
 10
659.09175
 20
96.70950000000001
 10
658.9935
 20
96.756
 10
657.48525
 20
97.29525
 10
655.932
 20
97.6845
 10
654.348
 20
97.91925000000001
 10
652.74
 20
97.998
 10
651.14025
 20
97.91925000000001
 10
649.55625
 20
97.6845
 10
648.003
 20
97.29525
 10
646.49475
 20
96.756
 10
645.04725
 20
96.07125000000001
 10
643.6732500000001
 20
95.24850000000001
 10
642.3869999999999
 20
94.29525
 10
641.2005
 20
93.2205
 10
640.125
 20
92.03475
 10
639.171
 20
90.74925
 10
638.3475
 20
89.376
 10
637.66275
 20
87.92925
 10
637.1235
 20
86.42175
 10
636.73425
 20
84.86924999999999
 10
636.4995
 20
83.286
 10
636.42075
 20
81.687
 10
636.4995
 20
80.08799999999999
 10
636.73425
 20
78.50475
  0
LWPOLYLINE
  5
54
100
AcDbEntity
  8
profiling
  6
ByLayer
 62
  256
370
   -1
100
AcDbPolyline
 90
   40
 70
    1
 43
0
 10
618.32325
 20
47.65125
 10
618.28275
 20
47.244
 10
618.28575
 20
47.214
 10
618.3
 20
47.06925
 10
618.32625
 20
46.93575
 10
618.39075
 20
46.611
 10
618.44175
 20
46.44375
 10
618.6345
 20
46.08225
 10
618.894
 20
45.76575
 10
619.2105
 20
45.50625
 10
619.572
 20
45.3135
 10
619.9635
 20
45.195
 10
620.37075
 20
45.1545
 10
620.778
 20
45.195
 10
621.17025
 20
45.3135
 10
621.5309999999999
 20
45.50625
 10
621.8475
 20
45.76575
 10
621.966
 20
45.90975
 10
622.10775
 20
46.08225
 10
622.25175
 20
46.35075
 10
622.30125
 20
46.443
 10
622.41975
 20
46.8345
 10
622.46025
 20
47.24175
 10
622.41975
 20
47.649
 10
622.30125
 20
48.0405
 10
622.1085
 20
48.402
 10
621.849
 20
48.7185
 10
621.5325
 20
48.978
 10
621.309
 20
49.09725
 10
621.17175
 20
49.17075
 10
620.7795
 20
49.28925
 10
620.37225
 20
49.32975
 10
619.965
 20
49.29
 10
619.5735
 20
49.1715
 10
619.212
 20
48.97875
 10
618.8955
 20
48.71925
 10
618.7365
 20
48.52575
 10
618.636
 20
48.40275
 10
618.44325
 20
48.04125
 10
618.32475
 20
47.64975
  0
LWPOLYLINE
  5
55
100
AcDbEntity
  8
profiling
  6
ByLayer
 62
  256
370
   -1
100
AcDbPolyline
 90
   45
 70
    1
 43
0
 10
684.0645
 20
104.52375
 10
684.25725
 20
104.16225
 10
684.51675
 20
103.84575
 10
684.83325
 20
103.58625
 10
685.03125
 20
103.4805
 10
685.194
 20
103.3935
 10
685.446
 20
103.317
 10
685.5855
 20
103.27425
 10
685.99275
 20
103.23375
 10
686.4
 20
103.27425
 10
686.7915
 20
103.39275
 10
687.15225
 20
103.5855
 10
687.46875
 20
103.845
 10
687.6585
 20
104.07675
 10
687.72825
 20
104.1615
 10
687.81675
 20
104.3265
 10
687.92175
 20
104.52225
 10
687.975
 20
104.697
 10
688.0410000000001
 20
104.9145
 10
688.0815
 20
105.32175
 10
688.0672499999999
 20
105.46725
 10
688.0672499999999
 20
105.46725
 10
688.0672499999999
 20
105.46725
 10
688.04175
 20
105.72825
 10
688.04175
 20
105.72975
 10
688.04175
 20
105.72975
 10
687.9225
 20
106.12125
 10
687.72975
 20
106.48275
 10
687.47025
 20
106.79925
 10
687.1537499999999
 20
107.05875
 10
686.88525
 20
107.202
 10
686.79225
 20
107.2515
 10
686.40075
 20
107.37
 10
685.9935
 20
107.40975
 10
685.755
 20
107.3865
 10
685.5855
 20
107.37
 10
685.194
 20
107.2515
 10
684.83325
 20
107.05875
 10
684.51675
 20
106.79925
 10
684.25725
 20
106.48275
 10
684.0645
 20
106.12125
 10
683.94525
 20
105.72975
 10
683.90475
 20
105.3225
 10
683.94525
 20
104.91525
 10
684.0645
 20
104.52375
  0
LWPOLYLINE
  5
56
100
AcDbEntity
  8
profiling
  6
ByLayer
 62
  256
370
   -1
100
AcDbPolyline
 90
   48
 70
    1
 43
0
 10
683.94525
 20
58.527
 10
683.90475
 20
58.11975
 10
683.94525
 20
57.7125
 10
684.0645
 20
57.321
 10
684.25725
 20
56.9595
 10
684.51675
 20
56.643
 10
684.7575000000001
 20
56.44575
 10
684.83325
 20
56.3835
 10
685.19475
 20
56.19075
 10
685.5862499999999
 20
56.07225
 10
685.9935
 20
56.03175
 10
686.40075
 20
56.07225
 10
686.793
 20
56.19075
 10
687.0615
 20
56.334
 10
687.0615
 20
56.334
 10
687.0615
 20
56.334
 10
687.1545
 20
56.3835
 10
687.471
 20
56.643
 10
687.7305
 20
56.9595
 10
687.9232500000001
 20
57.321
 10
688.0425
 20
57.7125
 10
688.062
 20
57.909
 10
688.062
 20
57.909
 10
688.062
 20
57.909
 10
688.083
 20
58.11975
 10
688.06575
 20
58.29525
 10
688.0432499999999
 20
58.527
 10
687.96525
 20
58.7835
 10
687.924
 20
58.91925
 10
687.8745
 20
59.0115
 10
687.7305
 20
59.28
 10
687.471
 20
59.5965
 10
687.1545
 20
59.856
 10
686.79375
 20
60.04875
 10
686.4015000000001
 20
60.16725
 10
685.99425
 20
60.20775
 10
685.587
 20
60.16725
 10
685.38375
 20
60.10575
 10
685.38375
 20
60.10575
 10
685.19475
 20
60.04875
 10
684.83325
 20
59.856
 10
684.51675
 20
59.5965
 10
684.25725
 20
59.28
 10
684.11175
 20
59.007
 10
684.11175
 20
59.007
 10
684.11175
 20
59.007
 10
684.0645
 20
58.9185
 10
683.946
 20
58.52625
  0
LWPOLYLINE
  5
57
100
AcDbEntity
  8
profiling
  6
ByLayer
 62
  256
370
   -1
100
AcDbPolyline
 90
   35
 70
    1
 43
0
 10
621.171
 20
114.198
 10
621.5325
 20
114.39075
 10
621.849
 20
114.65025
 10
622.1085
 20
114.96675
 10
622.30125
 20
115.32825
 10
622.4204999999999
 20
115.71975
 10
622.46025
 20
116.127
 10
622.41975
 20
116.53425
 10
622.30125
 20
116.92575
 10
622.1085
 20
117.28725
 10
621.849
 20
117.60375
 10
621.5325
 20
117.86325
 10
621.171
 20
118.056
 10
620.7795
 20
118.1745
 10
620.37225
 20
118.21425
 10
619.965
 20
118.1745
 10
619.7505
 20
118.10925
 10
619.57275
 20
118.05525
 10
619.2112499999999
 20
117.8625
 10
619.056
 20
117.735
 10
618.89475
 20
117.603
 10
618.63525
 20
117.2865
 10
618.4425
 20
116.925
 10
618.324
 20
116.5335
 10
618.2835
 20
116.12625
 10
618.324
 20
115.719
 10
618.4425
 20
115.3275
 10
618.63525
 20
114.966
 10
618.89475
 20
114.6495
 10
619.2112499999999
 20
114.39
 10
619.57275
 20
114.19725
 10
619.96425
 20
114.07875
 10
620.3715
 20
114.03825
 10
620.7787499999999
 20
114.07875
 10
621.17025
 20
114.19725
  0
ENDSEC
  0
SECTION
  2
OBJECTS
  0
DICTIONARY
  5
C
330
0
100
AcDbDictionary
281
    1
  3
ACAD_GROUP
350
D
  0
DICTIONARY
  5
D
330
C
100
AcDbDictionary
281
    1
  0
ENDSEC
  0
EOF
