999
dxfrw 0.6.3
  0
SECTION
  2
HEADER
  9
$ACADVER
  1
AC1021
  9
$DWGCODEPAGE
  3
ANSI_1252
  9
$INSBASE
 10
0
 20
0
 30
0
  9
$EXTMIN
 10
634.203
 20
129.23775
 30
0
  9
$EXTMAX
 10
719.421
 20
317.997
 30
0
  9
$LIMMIN
 10
0
 20
0
  9
$LIMMAX
 10
420
 20
297
  9
$ORTHOMODE
 70
    0
  9
$REGENMODE
 70
    1
  9
$FILLMODE
 70
    1
  9
$QTEXTMODE
 70
    0
  9
$MIRRTEXT
 70
    0
  9
$LTSCALE
 40
1
  9
$ATTMODE
 70
    0
  9
$TEXTSIZE
 40
2.5
  9
$TRACEWID
 40
15.68
  9
$TEXTSTYLE
  7
STANDARD
  9
$CLAYER
  8
pocket-1.25mm
  9
$CELTYPE
  6
BYLAYER
  9
$CECOLOR
 62
  256
  9
$CELTSCALE
 40
1
  9
$DISPSILH
 70
    0
  9
$DIMSCALE
 40
2.5
  9
$DIMASZ
 40
2.5
  9
$DIMEXO
 40
0.625
  9
$DIMDLI
 40
3.75
  9
$DIMRND
 40
0
  9
$DIMDLE
 40
0
  9
$DIMEXE
 40
1.25
  9
$DIMTP
 40
0
  9
$DIMTM
 40
0
  9
$DIMTXT
 40
2.5
  9
$DIMCEN
 40
2.5
  9
$DIMTSZ
 40
0
  9
$DIMTOL
 70
    0
  9
$DIMLIM
 70
    0
  9
$DIMTIH
 70
    0
  9
$DIMTOH
 70
    0
  9
$DIMSE1
 70
    0
  9
$DIMSE2
 70
    0
  9
$DIMTAD
 70
    1
  9
$DIMZIN
 70
    8
  9
$DIMBLK
  1

  9
$DIMASO
 70
    1
  9
$DIMSHO
 70
    1
  9
$DIMPOST
  1

  9
$DIMAPOST
  1

  9
$DIMALT
 70
    0
  9
$DIMALTD
 70
    3
  9
$DIMALTF
 40
0.03937
  9
$DIMLFAC
 40
1
  9
$DIMTOFL
 70
    1
  9
$DIMTVP
 40
0
  9
$DIMTIX
 70
    0
  9
$DIMSOXD
 70
    0
  9
$DIMSAH
 70
    0
  9
$DIMBLK1
  1

  9
$DIMBLK2
  1

  9
$DIMSTYLE
  2
Standard
  9
$DIMCLRD
 70
    0
  9
$DIMCLRE
 70
    0
  9
$DIMCLRT
 70
    0
  9
$DIMTFAC
 40
1
  9
$DIMGAP
 40
0.625
  9
$DIMJUST
 70
    0
  9
$DIMSD1
 70
    0
  9
$DIMSD2
 70
    0
  9
$DIMTOLJ
 70
    0
  9
$DIMTZIN
 70
    8
  9
$DIMALTZ
 70
    0
  9
$DIMALTTZ
 70
    0
  9
$DIMUPT
 70
    0
  9
$DIMDEC
 70
    2
  9
$DIMTDEC
 70
    2
  9
$DIMALTU
 70
    2
  9
$DIMALTTD
 70
    3
  9
$DIMTXSTY
  7
STANDARD
  9
$DIMAUNIT
 70
    0
  9
$DIMADEC
 70
    0
  9
$DIMALTRND
 40
0
  9
$DIMAZIN
 70
    0
  9
$DIMDSEP
 70
   44
  9
$DIMATFIT
 70
    3
  9
$DIMFRAC
 70
    0
  9
$DIMLDRBLK
  1
STANDARD
  9
$DIMLUNIT
 70
    2
  9
$DIMLWD
 70
   -2
  9
$DIMLWE
 70
   -2
  9
$DIMTMOVE
 70
    0
  9
$DIMFXL
 40
1
  9
$DIMFXLON
 70
    0
  9
$DIMJOGANG
 40
0.7854
  9
$DIMTFILL
 70
    0
  9
$DIMTFILLCLR
 70
    0
  9
$DIMARCSYM
 70
    0
  9
$DIMLTYPE
  6

  9
$DIMLTEX1
  6

  9
$DIMLTEX2
  6

  9
$LUNITS
 70
    2
  9
$LUPREC
 70
    4
  9
$SKETCHINC
 40
1
  9
$FILLETRAD
 40
0
  9
$AUNITS
 70
    0
  9
$AUPREC
 70
    2
  9
$MENU
  1
.
  9
$ELEVATION
 40
0
  9
$PELEVATION
 40
0
  9
$THICKNESS
 40
0
  9
$LIMCHECK
 70
    0
  9
$CHAMFERA
 40
0
  9
$CHAMFERB
 40
0
  9
$CHAMFERC
 40
0
  9
$CHAMFERD
 40
0
  9
$SKPOLY
 70
    0
  9
$USRTIMER
 70
    1
  9
$ANGBASE
 50
0
  9
$ANGDIR
 70
    0
  9
$PDMODE
 70
   34
  9
$PDSIZE
 40
0
  9
$PLINEWID
 40
0
  9
$SPLFRAME
 70
    0
  9
$SPLINETYPE
 70
    2
  9
$SPLINESEGS
 70
    8
  9
$HANDSEED
  5
20000
  9
$SURFTAB1
 70
    6
  9
$SURFTAB2
 70
    6
  9
$SURFTYPE
 70
    6
  9
$SURFU
 70
    6
  9
$SURFV
 70
    6
  9
$UCSBASE
  2

  9
$UCSNAME
  2

  9
$UCSORG
 10
0
 20
0
 30
0
  9
$UCSXDIR
 10
1
 20
0
 30
0
  9
$UCSYDIR
 10
0
 20
1
 30
0
  9
$UCSORTHOREF
  2

  9
$UCSORTHOVIEW
 70
    0
  9
$UCSORGTOP
 10
0
 20
0
 30
0
  9
$UCSORGBOTTOM
 10
0
 20
0
 30
0
  9
$UCSORGLEFT
 10
0
 20
0
 30
0
  9
$UCSORGRIGHT
 10
0
 20
0
 30
0
  9
$UCSORGFRONT
 10
0
 20
0
 30
0
  9
$UCSORGBACK
 10
0
 20
0
 30
0
  9
$PUCSBASE
  2

  9
$PUCSNAME
  2

  9
$PUCSORG
 10
0
 20
0
 30
0
  9
$PUCSXDIR
 10
1
 20
0
 30
0
  9
$PUCSYDIR
 10
0
 20
1
 30
0
  9
$PUCSORTHOREF
  2

  9
$PUCSORTHOVIEW
 70
    0
  9
$PUCSORGTOP
 10
0
 20
0
 30
0
  9
$PUCSORGBOTTOM
 10
0
 20
0
 30
0
  9
$PUCSORGLEFT
 10
0
 20
0
 30
0
  9
$PUCSORGRIGHT
 10
0
 20
0
 30
0
  9
$PUCSORGFRONT
 10
0
 20
0
 30
0
  9
$PUCSORGBACK
 10
0
 20
0
 30
0
  9
$USERI1
 70
    0
  9
$USERI2
 70
    0
  9
$USERI3
 70
    0
  9
$USERI4
 70
    0
  9
$USERI5
 70
    0
  9
$USERR1
 40
0
  9
$USERR2
 40
0
  9
$USERR3
 40
0
  9
$USERR4
 40
0
  9
$USERR5
 40
0
  9
$WORLDVIEW
 70
    1
  9
$SHADEDGE
 70
    3
  9
$SHADEDIF
 70
   70
  9
$TILEMODE
 70
    1
  9
$MAXACTVP
 70
   64
  9
$PINSBASE
 10
0
 20
0
 30
0
  9
$PLIMCHECK
 70
    0
  9
$PEXTMIN
 10
0
 20
0
 30
0
  9
$PEXTMAX
 10
0
 20
0
 30
0
  9
$GRIDMODE
 70
    0
  9
$SNAPSTYLE
 70
    0
  9
$PLIMMIN
 10
0
 20
0
  9
$PLIMMAX
 10
210
 20
297
  9
$UNITMODE
 70
    0
  9
$VISRETAIN
 70
    1
  9
$PLINEGEN
 70
    0
  9
$PSLTSCALE
 70
    1
  9
$TREEDEPTH
 70
 3020
  9
$CMLSTYLE
  2
Standard
  9
$CMLJUST
 70
    0
  9
$CMLSCALE
 40
20
  9
$PROXYGRAPHICS
 70
    1
  9
$MEASUREMENT
 70
    1
  9
$CELWEIGHT
370
   -1
  9
$ENDCAPS
280
    0
  9
$JOINSTYLE
280
    0
  9
$LWDISPLAY
290
    0
  9
$INSUNITS
 70
    4
  9
$HYPERLINKBASE
  1

  9
$STYLESHEET
  1

  9
$XEDIT
290
    1
  9
$CEPSNTYPE
380
    0
  9
$PSTYLEMODE
290
    1
  9
$EXTNAMES
290
    1
  9
$PSVPSCALE
 40
1
  9
$OLESTARTUP
290
    0
  9
$SORTENTS
280
  127
  9
$INDEXCTL
280
    0
  9
$HIDETEXT
280
    1
  9
$XCLIPFRAME
290
    0
  9
$HALOGAP
280
    0
  9
$OBSCOLOR
 70
  257
  9
$OBSLTYPE
280
    0
  9
$INTERSECTIONDISPLAY
280
    0
  9
$INTERSECTIONCOLOR
 70
  257
  9
$DIMASSOC
280
    1
  9
$PROJECTNAME
  1

  9
$CAMERADISPLAY
290
    0
  9
$LENSLENGTH
 40
50
  9
$CAMERAHEIGHT
 40
0
  9
$STEPSPERSEC
 40
2
  9
$STEPSIZE
 40
50
  9
$3DDWFPREC
 40
2
  9
$PSOLWIDTH
 40
5
  9
$PSOLHEIGHT
 40
80
  9
$LOFTANG1
 40
1.570796326794897
  9
$LOFTANG2
 40
1.570796326794897
  9
$LOFTMAG1
 40
0
  9
$LOFTMAG2
 40
0
  9
$LOFTPARAM
 70
    7
  9
$LOFTNORMALS
280
    1
  9
$LATITUDE
 40
1
  9
$LONGITUDE
 40
1
  9
$NORTHDIRECTION
 40
0
  9
$TIMEZONE
 70
-8000
  9
$LIGHTGLYPHDISPLAY
280
    1
  9
$TILEMODELIGHTSYNCH
280
    1
  9
$SOLIDHIST
280
    1
  9
$SHOWHIST
280
    1
  9
$DWFFRAME
280
    2
  9
$DGNFRAME
280
    0
  9
$REALWORLDSCALE
290
    1
  9
$INTERFERECOLOR
 62
    1
  9
$CSHADOW
280
    0
  9
$SHADOWPLANELOCATION
 40
0
  0
ENDSEC
  0
SECTION
  2
CLASSES
  0
ENDSEC
  0
SECTION
  2
TABLES
  0
TABLE
  2
VPORT
  5
8
330
0
100
AcDbSymbolTable
 70
    1
  0
VPORT
  5
31
330
2
100
AcDbSymbolTableRecord
100
AcDbViewportTableRecord
  2
*ACTIVE
 70
    0
 10
0
 20
0
 11
1
 21
1
 12
476.5790788614812
 22
162.0300930983083
 13
0
 23
0
 14
10
 24
10
 15
10
 25
10
 16
0
 26
0
 36
1
 17
0
 27
0
 37
0
 40
561.8401970327085
 41
0.9866989117291415
 42
50
 43
0
 44
0
 50
0
 51
0
 71
    0
 72
  100
 73
    1
 74
    3
 75
    0
 76
    0
 77
    0
 78
    0
281
    0
 65
    1
110
0
120
0
130
0
111
1
121
0
131
0
112
0
122
1
132
0
 79
    0
146
0
348
10020
 60
    7
 61
    5
292
1
282
    1
141
0
142
0
 63
  250
421
3358443
  0
ENDTAB
  0
TABLE
  2
LTYPE
  5
5
330
0
100
AcDbSymbolTable
 70
    4
  0
LTYPE
  5
14
330
5
100
AcDbSymbolTableRecord
100
AcDbLinetypeTableRecord
  2
ByBlock
 70
    0
  3

 72
   65
 73
    0
 40
0
  0
LTYPE
  5
15
330
5
100
AcDbSymbolTableRecord
100
AcDbLinetypeTableRecord
  2
ByLayer
 70
    0
  3

 72
   65
 73
    0
 40
0
  0
LTYPE
  5
16
330
5
100
AcDbSymbolTableRecord
100
AcDbLinetypeTableRecord
  2
Continuous
 70
    0
  3
Solid line
 72
   65
 73
    0
 40
0
  0
LTYPE
  5
32
330
5
100
AcDbSymbolTableRecord
100
AcDbLinetypeTableRecord
  2
DOT
 70
    0
  3
Dot . . . . . . . . . . . . . . . . . . . . . .
 72
   65
 73
    2
 40
6.35
 49
0
 74
    0
 49
-6.35
 74
    0
  0
LTYPE
  5
33
330
5
100
AcDbSymbolTableRecord
100
AcDbLinetypeTableRecord
  2
DOTTINY
 70
    0
  3
Dot (.15x) .....................................
 72
   65
 73
    2
 40
0.9525
 49
0
 74
    0
 49
-0.9525
 74
    0
  0
LTYPE
  5
34
330
5
100
AcDbSymbolTableRecord
100
AcDbLinetypeTableRecord
  2
DOT2
 70
    0
  3
Dot (.5x) .....................................
 72
   65
 73
    2
 40
3.175
 49
0
 74
    0
 49
-3.175
 74
    0
  0
LTYPE
  5
35
330
5
100
AcDbSymbolTableRecord
100
AcDbLinetypeTableRecord
  2
DOTX2
 70
    0
  3
Dot (2x) .  .  .  .  .  .  .  .  .  .  .  .  .
 72
   65
 73
    2
 40
12.7
 49
0
 74
    0
 49
-12.7
 74
    0
  0
LTYPE
  5
36
330
5
100
AcDbSymbolTableRecord
100
AcDbLinetypeTableRecord
  2
DASHED
 70
    0
  3
Dashed _ _ _ _ _ _ _ _ _ _ _ _ _ _ _ _ _
 72
   65
 73
    2
 40
19.05
 49
12.7
 74
    0
 49
-6.35
 74
    0
  0
LTYPE
  5
37
330
5
100
AcDbSymbolTableRecord
100
AcDbLinetypeTableRecord
  2
DASHEDTINY
 70
    0
  3
Dashed (.15x) _ _ _ _ _ _ _ _ _ _ _ _ _ _ _ _ _
 72
   65
 73
    2
 40
2.8575
 49
1.905
 74
    0
 49
-0.9525
 74
    0
  0
LTYPE
  5
38
330
5
100
AcDbSymbolTableRecord
100
AcDbLinetypeTableRecord
  2
DASHED2
 70
    0
  3
Dashed (.5x) _ _ _ _ _ _ _ _ _ _ _ _ _ _ _ _ _
 72
   65
 73
    2
 40
9.524999999999999
 49
6.35
 74
    0
 49
-3.175
 74
    0
  0
LTYPE
  5
39
330
5
100
AcDbSymbolTableRecord
100
AcDbLinetypeTableRecord
  2
DASHEDX2
 70
    0
  3
Dashed (2x) ____  ____  ____  ____  ____  ___
 72
   65
 73
    2
 40
38.09999999999999
 49
25.4
 74
    0
 49
-12.7
 74
    0
  0
LTYPE
  5
3A
330
5
100
AcDbSymbolTableRecord
100
AcDbLinetypeTableRecord
  2
DASHDOT
 70
    0
  3
Dash dot __ . __ . __ . __ . __ . __ . __ . __
 72
   65
 73
    4
 40
25.4
 49
12.7
 74
    0
 49
-6.35
 74
    0
 49
0
 74
    0
 49
-6.35
 74
    0
  0
LTYPE
  5
3B
330
5
100
AcDbSymbolTableRecord
100
AcDbLinetypeTableRecord
  2
DASHDOTTINY
 70
    0
  3
Dash dot (.15x) _._._._._._._._._._._._._._._.
 72
   65
 73
    4
 40
3.81
 49
1.905
 74
    0
 49
-0.9525
 74
    0
 49
0
 74
    0
 49
-0.9525
 74
    0
  0
LTYPE
  5
3C
330
5
100
AcDbSymbolTableRecord
100
AcDbLinetypeTableRecord
  2
DASHDOT2
 70
    0
  3
Dash dot (.5x) _._._._._._._._._._._._._._._.
 72
   65
 73
    4
 40
12.7
 49
6.35
 74
    0
 49
-3.175
 74
    0
 49
0
 74
    0
 49
-3.175
 74
    0
  0
LTYPE
  5
3D
330
5
100
AcDbSymbolTableRecord
100
AcDbLinetypeTableRecord
  2
DASHDOTX2
 70
    0
  3
Dash dot (2x) ____  .  ____  .  ____  .  ___
 72
   65
 73
    4
 40
50.8
 49
25.4
 74
    0
 49
-12.7
 74
    0
 49
0
 74
    0
 49
-12.7
 74
    0
  0
LTYPE
  5
3E
330
5
100
AcDbSymbolTableRecord
100
AcDbLinetypeTableRecord
  2
DIVIDE
 70
    0
  3
Divide ____ . . ____ . . ____ . . ____ . . ____
 72
   65
 73
    6
 40
31.75
 49
12.7
 74
    0
 49
-6.35
 74
    0
 49
0
 74
    0
 49
-6.35
 74
    0
 49
0
 74
    0
 49
-6.35
 74
    0
  0
LTYPE
  5
3F
330
5
100
AcDbSymbolTableRecord
100
AcDbLinetypeTableRecord
  2
DIVIDETINY
 70
    0
  3
Divide (.15x) __..__..__..__..__..__..__..__.._
 72
   65
 73
    6
 40
4.7625
 49
1.905
 74
    0
 49
-0.9525
 74
    0
 49
0
 74
    0
 49
-0.9525
 74
    0
 49
0
 74
    0
 49
-0.9525
 74
    0
  0
LTYPE
  5
40
330
5
100
AcDbSymbolTableRecord
100
AcDbLinetypeTableRecord
  2
DIVIDE2
 70
    0
  3
Divide (.5x) __..__..__..__..__..__..__..__.._
 72
   65
 73
    6
 40
15.875
 49
6.35
 74
    0
 49
-3.175
 74
    0
 49
0
 74
    0
 49
-3.175
 74
    0
 49
0
 74
    0
 49
-3.175
 74
    0
  0
LTYPE
  5
41
330
5
100
AcDbSymbolTableRecord
100
AcDbLinetypeTableRecord
  2
DIVIDEX2
 70
    0
  3
Divide (2x) ________  .  .  ________  .  .  _
 72
   65
 73
    6
 40
63.5
 49
25.4
 74
    0
 49
-12.7
 74
    0
 49
0
 74
    0
 49
-12.7
 74
    0
 49
0
 74
    0
 49
-12.7
 74
    0
  0
LTYPE
  5
42
330
5
100
AcDbSymbolTableRecord
100
AcDbLinetypeTableRecord
  2
BORDER
 70
    0
  3
Border __ __ . __ __ . __ __ . __ __ . __ __ .
 72
   65
 73
    6
 40
44.45
 49
12.7
 74
    0
 49
-6.35
 74
    0
 49
12.7
 74
    0
 49
-6.35
 74
    0
 49
0
 74
    0
 49
-6.35
 74
    0
  0
LTYPE
  5
43
330
5
100
AcDbSymbolTableRecord
100
AcDbLinetypeTableRecord
  2
BORDERTINY
 70
    0
  3
Border (.15x) __.__.__.__.__.__.__.__.__.__.__.
 72
   65
 73
    6
 40
6.6675
 49
1.905
 74
    0
 49
-0.9525
 74
    0
 49
1.905
 74
    0
 49
-0.9525
 74
    0
 49
0
 74
    0
 49
-0.9525
 74
    0
  0
LTYPE
  5
44
330
5
100
AcDbSymbolTableRecord
100
AcDbLinetypeTableRecord
  2
BORDER2
 70
    0
  3
Border (.5x) __.__.__.__.__.__.__.__.__.__.__.
 72
   65
 73
    6
 40
22.225
 49
6.35
 74
    0
 49
-3.175
 74
    0
 49
6.35
 74
    0
 49
-3.175
 74
    0
 49
0
 74
    0
 49
-3.175
 74
    0
  0
LTYPE
  5
45
330
5
100
AcDbSymbolTableRecord
100
AcDbLinetypeTableRecord
  2
BORDERX2
 70
    0
  3
Border (2x) ____  ____  .  ____  ____  .  ___
 72
   65
 73
    6
 40
88.89999999999999
 49
25.4
 74
    0
 49
-12.7
 74
    0
 49
25.4
 74
    0
 49
-12.7
 74
    0
 49
0
 74
    0
 49
-12.7
 74
    0
  0
LTYPE
  5
46
330
5
100
AcDbSymbolTableRecord
100
AcDbLinetypeTableRecord
  2
CENTER
 70
    0
  3
Center ____ _ ____ _ ____ _ ____ _ ____ _ ____
 72
   65
 73
    4
 40
50.8
 49
31.75
 74
    0
 49
-6.35
 74
    0
 49
6.35
 74
    0
 49
-6.35
 74
    0
  0
LTYPE
  5
47
330
5
100
AcDbSymbolTableRecord
100
AcDbLinetypeTableRecord
  2
CENTERTINY
 70
    0
  3
Center (.15x) ___ _ ___ _ ___ _ ___ _ ___ _ ___
 72
   65
 73
    4
 40
7.619999999999999
 49
4.7625
 74
    0
 49
-0.9525
 74
    0
 49
0.9525
 74
    0
 49
-0.9525
 74
    0
  0
LTYPE
  5
48
330
5
100
AcDbSymbolTableRecord
100
AcDbLinetypeTableRecord
  2
CENTER2
 70
    0
  3
Center (.5x) ___ _ ___ _ ___ _ ___ _ ___ _ ___
 72
   65
 73
    4
 40
28.575
 49
19.05
 74
    0
 49
-3.175
 74
    0
 49
3.175
 74
    0
 49
-3.175
 74
    0
  0
LTYPE
  5
49
330
5
100
AcDbSymbolTableRecord
100
AcDbLinetypeTableRecord
  2
CENTERX2
 70
    0
  3
Center (2x) ________  __  ________  __  _____
 72
   65
 73
    4
 40
101.6
 49
63.5
 74
    0
 49
-12.7
 74
    0
 49
12.7
 74
    0
 49
-12.7
 74
    0
  0
ENDTAB
  0
TABLE
  2
LAYER
  5
2
330
0
100
AcDbSymbolTable
 70
    1
  0
LAYER
  5
10
330
2
100
AcDbSymbolTableRecord
100
AcDbLayerTableRecord
  2
0
 70
    0
 62
    7
  6
CONTINUOUS
370
   -3
390
F
  0
LAYER
  5
4A
330
2
100
AcDbSymbolTableRecord
100
AcDbLayerTableRecord
  2
pocket-1.25mm
 70
    0
 62
    4
  6
CONTINUOUS
370
    0
390
F
  0
LAYER
  5
4B
330
2
100
AcDbSymbolTableRecord
100
AcDbLayerTableRecord
  2
profiling
 70
    0
 62
    3
  6
CONTINUOUS
370
    0
390
F
  0
LAYER
  5
4C
330
2
100
AcDbSymbolTableRecord
100
AcDbLayerTableRecord
  2
vcut
 70
    0
 62
    6
  6
CONTINUOUS
370
    0
390
F
  0
ENDTAB
  0
TABLE
  2
STYLE
  5
3
330
0
100
AcDbSymbolTable
 70
    3
  0
STYLE
  5
4D
330
2
100
AcDbSymbolTableRecord
100
AcDbTextStyleTableRecord
  2
Standard
 70
    0
 40
0
 41
1
 50
0
 71
    0
 42
1
  3
txt
  4

  0
ENDTAB
  0
TABLE
  2
VIEW
  5
6
330
0
100
AcDbSymbolTable
 70
    0
  0
ENDTAB
  0
TABLE
  2
UCS
  5
7
330
0
100
AcDbSymbolTable
 70
    0
  0
ENDTAB
  0
TABLE
  2
APPID
  5
9
330
0
100
AcDbSymbolTable
 70
    1
  0
APPID
  5
12
330
9
100
AcDbSymbolTableRecord
100
AcDbRegAppTableRecord
  2
ACAD
 70
    0
  0
APPID
  5
4E
330
9
100
AcDbSymbolTableRecord
100
AcDbRegAppTableRecord
  2
LibreCad
 70
    0
  0
ENDTAB
  0
TABLE
  2
DIMSTYLE
  5
A
330
0
100
AcDbSymbolTable
 70
    1
100
AcDbDimStyleTable
 71
    1
  0
DIMSTYLE
105
4F
330
A
100
AcDbSymbolTableRecord
100
AcDbDimStyleTableRecord
  2
Standard
 70
    0
 40
2.5
 41
2.5
 42
0.625
 43
0.38
 44
1.25
 45
0
 46
0
 47
0
 48
0
 49
1
140
2.5
141
0.09
142
0
143
25.4
144
1
145
0
146
1
147
0.625
148
0
 71
    0
 72
    0
 73
    0
 74
    1
 75
    0
 76
    0
 77
    0
 78
    8
 79
    0
170
    0
171
    2
172
    0
173
    0
174
    0
175
    0
176
    0
177
    0
178
    0
179
    0
271
    2
272
    4
273
    2
274
    2
275
    0
276
    0
277
    2
278
   44
279
    0
280
    0
281
    0
282
    0
283
    1
284
    0
285
    0
286
    0
288
    0
289
    3
340
STANDARD
341

371
   -2
372
   -2
  0
ENDTAB
  0
TABLE
  2
BLOCK_RECORD
  5
1
330
0
100
AcDbSymbolTable
 70
    2
  0
BLOCK_RECORD
  5
1F
330
1
100
AcDbSymbolTableRecord
100
AcDbBlockTableRecord
  2
*Model_Space
 70
    0
280
    1
281
    0
  0
BLOCK_RECORD
  5
1E
330
1
100
AcDbSymbolTableRecord
100
AcDbBlockTableRecord
  2
*Paper_Space
 70
    0
280
    1
281
    0
  0
ENDTAB
  0
ENDSEC
  0
SECTION
  2
BLOCKS
  0
BLOCK
  5
20
330
1F
100
AcDbEntity
  8
0
100
AcDbBlockBegin
  2
*Model_Space
 70
    0
 10
0
 20
0
 30
0
  3
*Model_Space
  1

  0
ENDBLK
  5
21
330
1F
100
AcDbEntity
  8
0
100
AcDbBlockEnd
  0
BLOCK
  5
1C
330
1B
100
AcDbEntity
  8
0
100
AcDbBlockBegin
  2
*Paper_Space
 70
    0
 10
0
 20
0
 30
0
  3
*Paper_Space
  1

  0
ENDBLK
  5
1D
330
1F
100
AcDbEntity
  8
0
100
AcDbBlockEnd
  0
ENDSEC
  0
SECTION
  2
ENTITIES
  0
LWPOLYLINE
  5
50
100
AcDbEntity
  8
pocket-1.25mm
  6
ByLayer
 62
  256
370
   -1
100
AcDbPolyline
 90
   48
 70
    1
 43
0
 10
667.4385
 20
198.00675
 10
667.50075
 20
197.37525
 10
667.68525
 20
196.76775
 10
667.9845
 20
196.20825
 10
668.38725
 20
195.71775
 10
668.87775
 20
195.315
 10
669.4372499999999
 20
195.01575
 10
670.04475
 20
194.83125
 10
670.67625
 20
194.769
 10
671.3077500000001
 20
194.83125
 10
671.91525
 20
195.01575
 10
672.47475
 20
195.315
 10
672.96525
 20
195.71775
 10
673.3680000000001
 20
196.20825
 10
673.66725
 20
196.76775
 10
673.85175
 20
197.37525
 10
673.914
 20
198.00675
 10
673.917
 20
207.97575
 10
673.85475
 20
209.94375
 10
673.67175
 20
212.22
 10
662.8935
 20
281.91
 10
662.592
 20
284.409
 10
662.4015000000001
 20
286.7505
 10
662.33475
 20
288.77475
 10
662.32575
 20
295.1745
 10
662.2635
 20
295.806
 10
662.079
 20
296.4135
 10
661.77975
 20
296.973
 10
661.377
 20
297.4635
 10
660.8865
 20
297.86625
 10
660.327
 20
298.1655
 10
659.7195
 20
298.35
 10
659.088
 20
298.41225
 10
658.4565
 20
298.35
 10
657.849
 20
298.1655
 10
657.2895
 20
297.86625
 10
656.799
 20
297.4635
 10
656.39625
 20
296.973
 10
656.097
 20
296.4135
 10
655.9125
 20
295.806
 10
655.85025
 20
295.1745
 10
655.8412499999999
 20
288.77475
 10
655.90275
 20
286.7505
 10
656.08875
 20
284.409
 10
656.3865
 20
281.91
 10
667.14975
 20
212.00175
 10
667.35225
 20
209.52675
 10
667.4235
 20
207.387
  0
LWPOLYLINE
  5
51
100
AcDbEntity
  8
profiling
  6
ByLayer
 62
  256
370
   -1
100
AcDbPolyline
 90
  268
 70
    1
 43
0
 10
676.059
 20
130.11525
 10
676.059
 20
130.11525
 10
675.4365
 20
130.329
 10
675.4365
 20
130.329
 10
674.826
 20
130.602
 10
674.826
 20
130.602
 10
674.2335
 20
130.932
 10
674.2335
 20
130.932
 10
673.665
 20
131.31525
 10
673.665
 20
131.31525
 10
673.12575
 20
131.74875
 10
673.12575
 20
131.74875
 10
672.6202500000001
 20
132.228
 10
672.6202500000001
 20
132.228
 10
672.1545
 20
132.74775
 10
672.1545
 20
132.74775
 10
671.73225
 20
133.3035
 10
671.73225
 20
133.3035
 10
671.35725
 20
133.89
 10
671.35725
 20
133.89
 10
671.034
 20
134.502
 10
671.034
 20
134.502
 10
670.76475
 20
135.13275
 10
670.76475
 20
135.13275
 10
670.5525
 20
135.777
 10
670.5525
 20
135.777
 10
670.3995
 20
136.428
 10
670.3995
 20
136.428
 10
670.30725
 20
137.07975
 10
670.30725
 20
137.07975
 10
670.2765000000001
 20
137.7255
 10
670.2765000000001
 20
137.7255
 10
670.2765000000001
 20
165.069
 10
664.878
 20
166.02975
 10
664.878
 20
166.02975
 10
661.87125
 20
166.6425
 10
661.87125
 20
166.6425
 10
658.89375
 20
167.28975
 10
658.89375
 20
167.28975
 10
658.89375
 20
167.28975
 10
658.89375
 20
167.28975
 10
655.97325
 20
168.021
 10
655.97325
 20
168.021
 10
653.139
 20
169.035
 10
653.139
 20
169.035
 10
653.139
 20
169.035
 10
653.139
 20
169.035
 10
650.418
 20
170.322
 10
650.418
 20
170.322
 10
650.418
 20
170.322
 10
647.83575
 20
171.86925
 10
647.83575
 20
171.86925
 10
645.41775
 20
173.6625
 10
645.41775
 20
173.6625
 10
643.1872499999999
 20
175.6845
 10
643.1872499999999
 20
175.6845
 10
641.16525
 20
177.915
 10
641.16525
 20
177.915
 10
641.16525
 20
177.915
 10
639.372
 20
180.333
 10
639.372
 20
180.333
 10
639.372
 20
180.333
 10
637.82475
 20
182.91525
 10
637.82475
 20
182.91525
 10
636.53775
 20
185.63625
 10
636.53775
 20
185.63625
 10
636.53775
 20
185.63625
 10
636.53775
 20
185.63625
 10
635.5237499999999
 20
188.4705
 10
635.5237499999999
 20
188.4705
 10
634.7925
 20
191.391
 10
634.7925
 20
191.391
 10
634.7925
 20
191.391
 10
634.7925
 20
191.391
 10
634.3507499999999
 20
194.3685
 10
634.3507499999999
 20
194.3685
 10
634.203
 20
197.37525
 10
634.203
 20
197.37525
 10
634.203
 20
197.37525
 10
634.203
 20
201.94275
 10
634.203
 20
287.32275
 10
634.203
 20
287.32275
 10
634.203
 20
287.32275
 10
634.3507499999999
 20
290.3295
 10
634.3507499999999
 20
290.3295
 10
634.7925
 20
293.307
 10
634.7925
 20
293.307
 10
634.7925
 20
293.307
 10
634.7925
 20
293.307
 10
635.5237499999999
 20
296.2275
 10
635.5237499999999
 20
296.2275
 10
636.53775
 20
299.06175
 10
636.53775
 20
299.06175
 10
636.53775
 20
299.06175
 10
636.53775
 20
299.06175
 10
637.82475
 20
301.78275
 10
637.82475
 20
301.78275
 10
639.372
 20
304.365
 10
639.372
 20
304.365
 10
639.372
 20
304.365
 10
641.16525
 20
306.783
 10
641.16525
 20
306.783
 10
641.16525
 20
306.783
 10
643.1872499999999
 20
309.0135
 10
643.1872499999999
 20
309.0135
 10
645.41775
 20
311.03475
 10
645.41775
 20
311.03475
 10
647.83575
 20
312.828
 10
647.83575
 20
312.828
 10
647.83575
 20
312.828
 10
650.418
 20
314.37525
 10
650.418
 20
314.37525
 10
653.139
 20
315.66225
 10
653.139
 20
315.66225
 10
655.97325
 20
316.67625
 10
655.97325
 20
316.67625
 10
658.89375
 20
317.4075
 10
658.89375
 20
317.4075
 10
658.89375
 20
317.4075
 10
661.87125
 20
317.84925
 10
661.87125
 20
317.84925
 10
664.878
 20
317.997
 10
664.878
 20
317.997
 10
664.878
 20
317.997
 10
664.878
 20
317.997
 10
688.74675
 20
317.997
 10
688.74675
 20
317.997
 10
688.74675
 20
317.997
 10
691.7535
 20
317.84925
 10
691.7535
 20
317.84925
 10
694.731
 20
317.4075
 10
694.731
 20
317.4075
 10
697.65075
 20
316.67625
 10
697.65075
 20
316.67625
 10
697.65075
 20
316.67625
 10
697.65075
 20
316.67625
 10
700.485
 20
315.66225
 10
700.485
 20
315.66225
 10
703.206
 20
314.37525
 10
703.206
 20
314.37525
 10
703.206
 20
314.37525
 10
703.206
 20
314.37525
 10
705.7882499999999
 20
312.82725
 10
705.7882499999999
 20
312.82725
 10
705.7882499999999
 20
312.82725
 10
708.20625
 20
311.034
 10
708.20625
 20
311.034
 10
708.20625
 20
311.034
 10
710.43675
 20
309.012
 10
710.43675
 20
309.012
 10
712.45875
 20
306.7815
 10
712.45875
 20
306.7815
 10
712.45875
 20
306.7815
 10
712.45875
 20
306.7815
 10
712.45875
 20
306.7815
 10
714.252
 20
304.3635
 10
714.252
 20
304.3635
 10
715.79925
 20
301.78125
 10
715.79925
 20
301.78125
 10
715.79925
 20
301.78125
 10
715.79925
 20
301.78125
 10
717.0862499999999
 20
299.06025
 10
717.0862499999999
 20
299.06025
 10
718.10025
 20
296.226
 10
718.10025
 20
296.226
 10
718.8315
 20
293.30625
 10
718.8315
 20
293.30625
 10
719.27325
 20
290.32875
 10
719.27325
 20
290.32875
 10
719.27325
 20
290.32875
 10
719.421
 20
287.322
 10
719.421
 20
287.322
 10
719.421
 20
201.942
 10
719.42025
 20
162.8505
 10
719.42025
 20
162.8505
 10
719.3895
 20
162.216
 10
719.3895
 20
162.216
 10
719.3895
 20
162.216
 10
719.3895
 20
162.216
 10
719.29725
 20
161.59875
 10
719.29725
 20
161.59875
 10
719.1442500000001
 20
161.00475
 10
719.1442500000001
 20
161.00475
 10
719.1442500000001
 20
161.00475
 10
719.1442500000001
 20
161.00475
 10
719.1442500000001
 20
161.00475
 10
718.932
 20
160.43925
 10
718.932
 20
160.43925
 10
718.662
 20
159.90825
 10
718.662
 20
159.90825
 10
718.662
 20
159.90825
 10
718.662
 20
159.90825
 10
718.662
 20
159.90825
 10
718.338
 20
159.41625
 10
718.338
 20
159.41625
 10
718.338
 20
159.41625
 10
717.96225
 20
158.9685
 10
717.96225
 20
158.9685
 10
717.96225
 20
158.9685
 10
717.96225
 20
158.9685
 10
717.96225
 20
158.9685
 10
717.5385
 20
158.5695
 10
717.5385
 20
158.5695
 10
717.07125
 20
158.22225
 10
717.07125
 20
158.22225
 10
717.07125
 20
158.22225
 10
717.07125
 20
158.22225
 10
717.07125
 20
158.22225
 10
716.5650000000001
 20
157.9305
 10
716.5650000000001
 20
157.9305
 10
716.0242500000001
 20
157.69725
 10
716.0242500000001
 20
157.69725
 10
716.0242500000001
 20
157.69725
 10
716.0242500000001
 20
157.69725
 10
716.0242500000001
 20
157.69725
 10
716.0242500000001
 20
157.69725
 10
715.45425
 20
157.52475
 10
715.45425
 20
157.52475
 10
715.45425
 20
157.52475
 10
714.86025
 20
157.4145
 10
714.86025
 20
157.4145
 10
714.24825
 20
157.368
 10
714.24825
 20
157.368
 10
713.62425
 20
157.38525
 10
713.62425
 20
157.38525
 10
713.62425
 20
157.38525
 10
713.62425
 20
157.38525
 10
712.99425
 20
157.46625
 10
712.99425
 20
157.46625
 10
712.99425
 20
157.46625
 10
683.3317500000001
 20
162.74475
 10
683.3317500000001
 20
131.93175
 10
683.3317500000001
 20
131.93175
 10
683.316
 20
131.616
 10
683.316
 20
131.616
 10
683.27025
 20
131.30925
 10
683.27025
 20
131.30925
 10
683.1944999999999
 20
131.0145
 10
683.1944999999999
 20
131.0145
 10
683.08875
 20
130.73475
 10
683.08875
 20
130.73475
 10
682.9545000000001
 20
130.47225
 10
682.9545000000001
 20
130.47225
 10
682.7932499999999
 20
130.22925
 10
682.7932499999999
 20
130.22925
 10
682.6065
 20
130.00875
 10
682.6065
 20
130.00875
 10
682.39575
 20
129.813
 10
682.39575
 20
129.813
 10
682.1632499999999
 20
129.6435
 10
682.1632499999999
 20
129.6435
 10
681.912
 20
129.50175
 10
681.912
 20
129.50175
 10
681.6435
 20
129.38925
 10
681.6435
 20
129.38925
 10
681.36
 20
129.3075
 10
681.36
 20
129.3075
 10
681.06525
 20
129.2565
 10
681.06525
 20
129.2565
 10
680.7615
 20
129.23775
 10
680.7615
 20
129.23775
 10
680.4517499999999
 20
129.2505
 10
680.4517499999999
 20
129.2505
 10
680.139
 20
129.2955
 10
680.139
 20
129.2955
 10
676.686
 20
129.96075
 10
676.686
 20
129.96075
 10
676.0575
 20
130.113
  0
LWPOLYLINE
  5
52
100
AcDbEntity
  8
profiling
  6
ByLayer
 62
  256
370
   -1
100
AcDbPolyline
 90
   38
 70
    1
 43
0
 10
642.91275
 20
218.01075
 10
642.5055
 20
217.97025
 10
642.114
 20
217.85175
 10
641.9475
 20
217.76325
 10
641.7525000000001
 20
217.659
 10
641.436
 20
217.3995
 10
641.1765
 20
217.083
 10
640.98375
 20
216.72225
 10
640.8645
 20
216.33075
 10
640.824
 20
215.9235
 10
640.8645
 20
215.51625
 10
640.98375
 20
215.12475
 10
641.1765
 20
214.76325
 10
641.436
 20
214.44675
 10
641.7525000000001
 20
214.18725
 10
642.11325
 20
213.9945
 10
642.31875
 20
213.93225
 10
642.5055
 20
213.876
 10
642.5805
 20
213.8685
 10
642.70875
 20
213.85575
 10
642.91275
 20
213.8355
 10
643.3200000000001
 20
213.876
 10
643.7115
 20
213.9945
 10
644.073
 20
214.18725
 10
644.3895
 20
214.44675
 10
644.649
 20
214.76325
 10
644.84175
 20
215.12475
 10
644.961
 20
215.51625
 10
645.0015
 20
215.9235
 10
644.961
 20
216.33075
 10
644.84175
 20
216.72225
 10
644.649
 20
217.08375
 10
644.3895
 20
217.40025
 10
644.073
 20
217.65975
 10
643.7115
 20
217.8525
 10
643.6755000000001
 20
217.863
 10
643.31925
 20
217.971
 10
642.912
 20
218.0115
  0
LWPOLYLINE
  5
53
100
AcDbEntity
  8
profiling
  6
ByLayer
 62
  256
370
   -1
100
AcDbPolyline
 90
   38
 70
    1
 43
0
 10
649.17975
 20
184.3575
 10
648.92025
 20
184.041
 10
648.7275
 20
183.6795
 10
648.60825
 20
183.288
 10
648.56775
 20
182.88075
 10
648.60825
 20
182.4735
 10
648.7275
 20
182.082
 10
648.92025
 20
181.7205
 10
649.17975
 20
181.404
 10
649.49625
 20
181.1445
 10
649.857
 20
180.95175
 10
650.2485
 20
180.83325
 10
650.65575
 20
180.79275
 10
651.063
 20
180.83325
 10
651.4545000000001
 20
180.95175
 10
651.81525
 20
181.1445
 10
652.13175
 20
181.404
 10
652.2165
 20
181.5075
 10
652.39125
 20
181.7205
 10
652.43475
 20
181.8015
 10
652.58475
 20
182.08125
 10
652.6635
 20
182.3415
 10
652.70325
 20
182.47275
 10
652.71675
 20
182.61075
 10
652.7430000000001
 20
182.88
 10
652.71075
 20
183.20625
 10
652.7025
 20
183.28725
 10
652.5839999999999
 20
183.67875
 10
652.39125
 20
184.04025
 10
652.13175
 20
184.35675
 10
651.81525
 20
184.61625
 10
651.4545000000001
 20
184.809
 10
651.063
 20
184.9275
 10
650.65575
 20
184.968
 10
650.2485
 20
184.9275
 10
649.857
 20
184.809
 10
649.49625
 20
184.61625
 10
649.17975
 20
184.35675
  0
LWPOLYLINE
  5
54
100
AcDbEntity
  8
profiling
  6
ByLayer
 62
  256
370
   -1
100
AcDbPolyline
 90
   35
 70
    1
 43
0
 10
650.32125
 20
306.35325
 10
650.53575
 20
306.37425
 10
650.928
 20
306.49275
 10
651.2895
 20
306.6855
 10
651.606
 20
306.945
 10
651.8655
 20
307.2615
 10
652.05825
 20
307.623
 10
652.17675
 20
308.0145
 10
652.21725
 20
308.42175
 10
652.17675
 20
308.829
 10
652.05825
 20
309.2205
 10
651.8655
 20
309.582
 10
651.606
 20
309.8985
 10
651.2895
 20
310.158
 10
650.928
 20
310.35075
 10
650.53575
 20
310.46925
 10
650.1285
 20
310.50975
 10
649.7212500000001
 20
310.46925
 10
649.32975
 20
310.35075
 10
648.96825
 20
310.158
 10
648.65175
 20
309.8985
 10
648.39225
 20
309.582
 10
648.1994999999999
 20
309.2205
 10
648.08025
 20
308.829
 10
648.0405
 20
308.42175
 10
648.08025
 20
308.0145
 10
648.1994999999999
 20
307.623
 10
648.39225
 20
307.2615
 10
648.65175
 20
306.945
 10
648.96825
 20
306.6855
 10
649.05
 20
306.642
 10
649.32975
 20
306.49275
 10
649.7212500000001
 20
306.37425
 10
650.1285
 20
306.33375
 10
650.32125
 20
306.3525
  0
LWPOLYLINE
  5
55
100
AcDbEntity
  8
profiling
  6
ByLayer
 62
  256
370
   -1
100
AcDbPolyline
 90
   35
 70
    1
 43
0
 10
683.88675
 20
289.33425
 10
683.5875
 20
288.34875
 10
683.5605
 20
288.072
 10
683.487
 20
287.3235
 10
683.58825
 20
286.29825
 10
683.8875
 20
285.312
 10
684.3735
 20
284.40375
 10
685.02675
 20
283.60725
 10
685.82325
 20
282.954
 10
686.7315
 20
282.468
 10
687.71775
 20
282.16875
 10
688.15275
 20
282.126
 10
688.7430000000001
 20
282.0675
 10
689.76825
 20
282.16875
 10
690.7545
 20
282.468
 10
691.66275
 20
282.954
 10
692.45925
 20
283.60725
 10
693.1125
 20
284.40375
 10
693.5984999999999
 20
285.312
 10
693.89775
 20
286.2975
 10
693.999
 20
287.32275
 10
693.89775
 20
288.348
 10
693.5984999999999
 20
289.3335
 10
693.1125
 20
290.24175
 10
692.45925
 20
291.03825
 10
691.66275
 20
291.6915
 10
690.7545
 20
292.1775
 10
689.76825
 20
292.47675
 10
688.7430000000001
 20
292.578
 10
687.71775
 20
292.47675
 10
686.7315
 20
292.1775
 10
685.82325
 20
291.6915
 10
685.02675
 20
291.03825
 10
684.3735
 20
290.24175
 10
683.8875
 20
289.3335
  0
LWPOLYLINE
  5
56
100
AcDbEntity
  8
profiling
  6
ByLayer
 62
  256
370
   -1
100
AcDbPolyline
 90
   40
 70
    1
 43
0
 10
703.1055
 20
168.93525
 10
702.846
 20
168.61875
 10
702.65325
 20
168.25725
 10
702.534
 20
167.86575
 10
702.49425
 20
167.4585
 10
702.5205
 20
167.193
 10
702.53475
 20
167.05125
 10
702.62625
 20
166.749
 10
702.65325
 20
166.659
 10
702.846
 20
166.2975
 10
703.1055
 20
165.981
 10
703.422
 20
165.7215
 10
703.7835
 20
165.52875
 10
704.175
 20
165.41025
 10
704.58225
 20
165.36975
 10
704.79675
 20
165.39075
 10
704.9895
 20
165.4095
 10
705.381
 20
165.528
 10
705.7424999999999
 20
165.72075
 10
706.059
 20
165.98025
 10
706.3185
 20
166.29675
 10
706.51125
 20
166.65825
 10
706.58325
 20
166.89525
 10
706.6305
 20
167.0505
 10
706.671
 20
167.45775
 10
706.6305
 20
167.865
 10
706.5119999999999
 20
168.2565
 10
706.31925
 20
168.618
 10
706.05975
 20
168.9345
 10
705.81525
 20
169.13475
 10
705.74325
 20
169.194
 10
705.522
 20
169.3125
 10
705.3825000000001
 20
169.3875
 10
705.255
 20
169.4265
 10
704.991
 20
169.50675
 10
704.58375
 20
169.54725
 10
704.1765
 20
169.50675
 10
703.785
 20
169.38825
 10
703.4235
 20
169.1955
 10
703.107
 20
168.936
  0
LWPOLYLINE
  5
57
100
AcDbEntity
  8
profiling
  6
ByLayer
 62
  256
370
   -1
100
AcDbPolyline
 90
   74
 70
    1
 43
0
 10
713.5305
 20
288.3885
 10
713.649
 20
288.228
 10
713.78325
 20
288.08025
 10
713.931
 20
287.946
 10
714.0915
 20
287.8275
 10
714.2625
 20
287.72475
 10
714.44325
 20
287.63925
 10
714.63075
 20
287.57175
 10
714.82425
 20
287.523
 10
715.0214999999999
 20
287.49375
 10
715.221
 20
287.484
 10
715.4204999999999
 20
287.49375
 10
715.61775
 20
287.523
 10
715.81125
 20
287.57175
 10
715.9995
 20
287.63925
 10
716.18025
 20
287.72475
 10
716.3512500000001
 20
287.8275
 10
716.51175
 20
287.946
 10
716.5192500000001
 20
287.9535
 10
716.6595
 20
288.08025
 10
716.79375
 20
288.228
 10
716.913
 20
288.3885
 10
717.01575
 20
288.5595
 10
717.1012500000001
 20
288.74025
 10
717.12075
 20
288.795
 10
717.16875
 20
288.9285
 10
717.2175
 20
289.122
 10
717.24675
 20
289.31925
 10
717.2565
 20
289.51875
 10
717.24675
 20
289.71825
 10
717.2175
 20
289.9155
 10
717.213
 20
289.93425
 10
717.1695
 20
290.109
 10
717.1215
 20
290.2425
 10
717.102
 20
290.29725
 10
717.0165
 20
290.478
 10
716.9137500000001
 20
290.649
 10
716.88975
 20
290.68125
 10
716.811
 20
290.78775
 10
716.8005000000001
 20
290.802
 10
716.79525
 20
290.8095
 10
716.6609999999999
 20
290.95725
 10
716.51325
 20
291.0915
 10
716.35275
 20
291.21
 10
716.352
 20
291.21
 10
716.18175
 20
291.312
 10
716.001
 20
291.3975
 10
715.8127500000001
 20
291.465
 10
715.61925
 20
291.51375
 10
715.422
 20
291.543
 10
715.38
 20
291.54525
 10
715.2225
 20
291.55275
 10
715.023
 20
291.543
 10
714.82575
 20
291.51375
 10
714.63225
 20
291.465
 10
714.44475
 20
291.3975
 10
714.264
 20
291.312
 10
714.093
 20
291.20925
 10
713.9325
 20
291.09075
 10
713.78475
 20
290.9565
 10
713.6505
 20
290.80875
 10
713.532
 20
290.64825
 10
713.42925
 20
290.47725
 10
713.34375
 20
290.2965
 10
713.27625
 20
290.10825
 10
713.2275
 20
289.91475
 10
713.19825
 20
289.7175
 10
713.1885
 20
289.518
 10
713.19825
 20
289.3185
 10
713.2275
 20
289.12125
 10
713.27625
 20
288.92775
 10
713.34375
 20
288.7395
 10
713.42925
 20
288.55875
 10
713.532
 20
288.38775
  0
ENDSEC
  0
SECTION
  2
OBJECTS
  0
DICTIONARY
  5
C
330
0
100
AcDbDictionary
281
    1
  3
ACAD_GROUP
350
D
  0
DICTIONARY
  5
D
330
C
100
AcDbDictionary
281
    1
  0
ENDSEC
  0
EOF
