999
dxfrw 0.6.3
  0
SECTION
  2
HEADER
  9
$ACADVER
  1
AC1021
  9
$DWGCODEPAGE
  3
ANSI_1252
  9
$INSBASE
 10
0
 20
0
 30
0
  9
$EXTMIN
 10
878.397
 20
441.348
 30
0
  9
$EXTMAX
 10
1046.673
 20
654.504
 30
0
  9
$LIMMIN
 10
0
 20
0
  9
$LIMMAX
 10
420
 20
297
  9
$ORTHOMODE
 70
    0
  9
$REGENMODE
 70
    1
  9
$FILLMODE
 70
    1
  9
$QTEXTMODE
 70
    0
  9
$MIRRTEXT
 70
    0
  9
$LTSCALE
 40
1
  9
$ATTMODE
 70
    0
  9
$TEXTSIZE
 40
2.5
  9
$TRACEWID
 40
15.68
  9
$TEXTSTYLE
  7
STANDARD
  9
$CLAYER
  8
0
  9
$CELTYPE
  6
BYLAYER
  9
$CECOLOR
 62
  256
  9
$CELTSCALE
 40
1
  9
$DISPSILH
 70
    0
  9
$DIMSCALE
 40
2.5
  9
$DIMASZ
 40
2.5
  9
$DIMEXO
 40
0.625
  9
$DIMDLI
 40
3.75
  9
$DIMRND
 40
0
  9
$DIMDLE
 40
0
  9
$DIMEXE
 40
1.25
  9
$DIMTP
 40
0
  9
$DIMTM
 40
0
  9
$DIMTXT
 40
2.5
  9
$DIMCEN
 40
2.5
  9
$DIMTSZ
 40
0
  9
$DIMTOL
 70
    0
  9
$DIMLIM
 70
    0
  9
$DIMTIH
 70
    0
  9
$DIMTOH
 70
    0
  9
$DIMSE1
 70
    0
  9
$DIMSE2
 70
    0
  9
$DIMTAD
 70
    1
  9
$DIMZIN
 70
    8
  9
$DIMBLK
  1

  9
$DIMASO
 70
    1
  9
$DIMSHO
 70
    1
  9
$DIMPOST
  1

  9
$DIMAPOST
  1

  9
$DIMALT
 70
    0
  9
$DIMALTD
 70
    3
  9
$DIMALTF
 40
0.03937
  9
$DIMLFAC
 40
1
  9
$DIMTOFL
 70
    1
  9
$DIMTVP
 40
0
  9
$DIMTIX
 70
    0
  9
$DIMSOXD
 70
    0
  9
$DIMSAH
 70
    0
  9
$DIMBLK1
  1

  9
$DIMBLK2
  1

  9
$DIMSTYLE
  2
Standard
  9
$DIMCLRD
 70
    0
  9
$DIMCLRE
 70
    0
  9
$DIMCLRT
 70
    0
  9
$DIMTFAC
 40
1
  9
$DIMGAP
 40
0.625
  9
$DIMJUST
 70
    0
  9
$DIMSD1
 70
    0
  9
$DIMSD2
 70
    0
  9
$DIMTOLJ
 70
    0
  9
$DIMTZIN
 70
    8
  9
$DIMALTZ
 70
    0
  9
$DIMALTTZ
 70
    0
  9
$DIMUPT
 70
    0
  9
$DIMDEC
 70
    2
  9
$DIMTDEC
 70
    2
  9
$DIMALTU
 70
    2
  9
$DIMALTTD
 70
    3
  9
$DIMTXSTY
  7
STANDARD
  9
$DIMAUNIT
 70
    0
  9
$DIMADEC
 70
    0
  9
$DIMALTRND
 40
0
  9
$DIMAZIN
 70
    0
  9
$DIMDSEP
 70
   44
  9
$DIMATFIT
 70
    3
  9
$DIMFRAC
 70
    0
  9
$DIMLDRBLK
  1
STANDARD
  9
$DIMLUNIT
 70
    2
  9
$DIMLWD
 70
   -2
  9
$DIMLWE
 70
   -2
  9
$DIMTMOVE
 70
    0
  9
$DIMFXL
 40
1
  9
$DIMFXLON
 70
    0
  9
$DIMJOGANG
 40
0.7854
  9
$DIMTFILL
 70
    0
  9
$DIMTFILLCLR
 70
    0
  9
$DIMARCSYM
 70
    0
  9
$DIMLTYPE
  6

  9
$DIMLTEX1
  6

  9
$DIMLTEX2
  6

  9
$LUNITS
 70
    2
  9
$LUPREC
 70
    4
  9
$SKETCHINC
 40
1
  9
$FILLETRAD
 40
0
  9
$AUNITS
 70
    0
  9
$AUPREC
 70
    2
  9
$MENU
  1
.
  9
$ELEVATION
 40
0
  9
$PELEVATION
 40
0
  9
$THICKNESS
 40
0
  9
$LIMCHECK
 70
    0
  9
$CHAMFERA
 40
0
  9
$CHAMFERB
 40
0
  9
$CHAMFERC
 40
0
  9
$CHAMFERD
 40
0
  9
$SKPOLY
 70
    0
  9
$USRTIMER
 70
    1
  9
$ANGBASE
 50
0
  9
$ANGDIR
 70
    0
  9
$PDMODE
 70
   34
  9
$PDSIZE
 40
0
  9
$PLINEWID
 40
0
  9
$SPLFRAME
 70
    0
  9
$SPLINETYPE
 70
    2
  9
$SPLINESEGS
 70
    8
  9
$HANDSEED
  5
20000
  9
$SURFTAB1
 70
    6
  9
$SURFTAB2
 70
    6
  9
$SURFTYPE
 70
    6
  9
$SURFU
 70
    6
  9
$SURFV
 70
    6
  9
$UCSBASE
  2

  9
$UCSNAME
  2

  9
$UCSORG
 10
0
 20
0
 30
0
  9
$UCSXDIR
 10
1
 20
0
 30
0
  9
$UCSYDIR
 10
0
 20
1
 30
0
  9
$UCSORTHOREF
  2

  9
$UCSORTHOVIEW
 70
    0
  9
$UCSORGTOP
 10
0
 20
0
 30
0
  9
$UCSORGBOTTOM
 10
0
 20
0
 30
0
  9
$UCSORGLEFT
 10
0
 20
0
 30
0
  9
$UCSORGRIGHT
 10
0
 20
0
 30
0
  9
$UCSORGFRONT
 10
0
 20
0
 30
0
  9
$UCSORGBACK
 10
0
 20
0
 30
0
  9
$PUCSBASE
  2

  9
$PUCSNAME
  2

  9
$PUCSORG
 10
0
 20
0
 30
0
  9
$PUCSXDIR
 10
1
 20
0
 30
0
  9
$PUCSYDIR
 10
0
 20
1
 30
0
  9
$PUCSORTHOREF
  2

  9
$PUCSORTHOVIEW
 70
    0
  9
$PUCSORGTOP
 10
0
 20
0
 30
0
  9
$PUCSORGBOTTOM
 10
0
 20
0
 30
0
  9
$PUCSORGLEFT
 10
0
 20
0
 30
0
  9
$PUCSORGRIGHT
 10
0
 20
0
 30
0
  9
$PUCSORGFRONT
 10
0
 20
0
 30
0
  9
$PUCSORGBACK
 10
0
 20
0
 30
0
  9
$USERI1
 70
    0
  9
$USERI2
 70
    0
  9
$USERI3
 70
    0
  9
$USERI4
 70
    0
  9
$USERI5
 70
    0
  9
$USERR1
 40
0
  9
$USERR2
 40
0
  9
$USERR3
 40
0
  9
$USERR4
 40
0
  9
$USERR5
 40
0
  9
$WORLDVIEW
 70
    1
  9
$SHADEDGE
 70
    3
  9
$SHADEDIF
 70
   70
  9
$TILEMODE
 70
    1
  9
$MAXACTVP
 70
   64
  9
$PINSBASE
 10
0
 20
0
 30
0
  9
$PLIMCHECK
 70
    0
  9
$PEXTMIN
 10
0
 20
0
 30
0
  9
$PEXTMAX
 10
0
 20
0
 30
0
  9
$GRIDMODE
 70
    0
  9
$SNAPSTYLE
 70
    0
  9
$PLIMMIN
 10
0
 20
0
  9
$PLIMMAX
 10
210
 20
297
  9
$UNITMODE
 70
    0
  9
$VISRETAIN
 70
    1
  9
$PLINEGEN
 70
    0
  9
$PSLTSCALE
 70
    1
  9
$TREEDEPTH
 70
 3020
  9
$CMLSTYLE
  2
Standard
  9
$CMLJUST
 70
    0
  9
$CMLSCALE
 40
20
  9
$PROXYGRAPHICS
 70
    1
  9
$MEASUREMENT
 70
    1
  9
$CELWEIGHT
370
   -1
  9
$ENDCAPS
280
    0
  9
$JOINSTYLE
280
    0
  9
$LWDISPLAY
290
    0
  9
$INSUNITS
 70
    4
  9
$HYPERLINKBASE
  1

  9
$STYLESHEET
  1

  9
$XEDIT
290
    1
  9
$CEPSNTYPE
380
    0
  9
$PSTYLEMODE
290
    1
  9
$EXTNAMES
290
    1
  9
$PSVPSCALE
 40
1
  9
$OLESTARTUP
290
    0
  9
$SORTENTS
280
  127
  9
$INDEXCTL
280
    0
  9
$HIDETEXT
280
    1
  9
$XCLIPFRAME
290
    0
  9
$HALOGAP
280
    0
  9
$OBSCOLOR
 70
  257
  9
$OBSLTYPE
280
    0
  9
$INTERSECTIONDISPLAY
280
    0
  9
$INTERSECTIONCOLOR
 70
  257
  9
$DIMASSOC
280
    1
  9
$PROJECTNAME
  1

  9
$CAMERADISPLAY
290
    0
  9
$LENSLENGTH
 40
50
  9
$CAMERAHEIGHT
 40
0
  9
$STEPSPERSEC
 40
2
  9
$STEPSIZE
 40
50
  9
$3DDWFPREC
 40
2
  9
$PSOLWIDTH
 40
5
  9
$PSOLHEIGHT
 40
80
  9
$LOFTANG1
 40
1.570796326794897
  9
$LOFTANG2
 40
1.570796326794897
  9
$LOFTMAG1
 40
0
  9
$LOFTMAG2
 40
0
  9
$LOFTPARAM
 70
    7
  9
$LOFTNORMALS
280
    1
  9
$LATITUDE
 40
1
  9
$LONGITUDE
 40
1
  9
$NORTHDIRECTION
 40
0
  9
$TIMEZONE
 70
-8000
  9
$LIGHTGLYPHDISPLAY
280
    1
  9
$TILEMODELIGHTSYNCH
280
    1
  9
$SOLIDHIST
280
    1
  9
$SHOWHIST
280
    1
  9
$DWFFRAME
280
    2
  9
$DGNFRAME
280
    0
  9
$REALWORLDSCALE
290
    1
  9
$INTERFERECOLOR
 62
    1
  9
$CSHADOW
280
    0
  9
$SHADOWPLANELOCATION
 40
0
  0
ENDSEC
  0
SECTION
  2
CLASSES
  0
ENDSEC
  0
SECTION
  2
TABLES
  0
TABLE
  2
VPORT
  5
8
330
0
100
AcDbSymbolTable
 70
    1
  0
VPORT
  5
31
330
2
100
AcDbSymbolTableRecord
100
AcDbViewportTableRecord
  2
*ACTIVE
 70
    0
 10
0
 20
0
 11
1
 21
1
 12
656.3650487684945
 22
347.2481241741919
 13
0
 23
0
 14
10
 24
10
 15
10
 25
10
 16
0
 26
0
 36
1
 17
0
 27
0
 37
0
 40
289.1192288146273
 41
2.46189917936694
 42
50
 43
0
 44
0
 50
0
 51
0
 71
    0
 72
  100
 73
    1
 74
    3
 75
    0
 76
    0
 77
    0
 78
    0
281
    0
 65
    1
110
0
120
0
130
0
111
1
121
0
131
0
112
0
122
1
132
0
 79
    0
146
0
348
10020
 60
    7
 61
    5
292
1
282
    1
141
0
142
0
 63
  250
421
3358443
  0
ENDTAB
  0
TABLE
  2
LTYPE
  5
5
330
0
100
AcDbSymbolTable
 70
    4
  0
LTYPE
  5
14
330
5
100
AcDbSymbolTableRecord
100
AcDbLinetypeTableRecord
  2
ByBlock
 70
    0
  3

 72
   65
 73
    0
 40
0
  0
LTYPE
  5
15
330
5
100
AcDbSymbolTableRecord
100
AcDbLinetypeTableRecord
  2
ByLayer
 70
    0
  3

 72
   65
 73
    0
 40
0
  0
LTYPE
  5
16
330
5
100
AcDbSymbolTableRecord
100
AcDbLinetypeTableRecord
  2
Continuous
 70
    0
  3
Solid line
 72
   65
 73
    0
 40
0
  0
LTYPE
  5
32
330
5
100
AcDbSymbolTableRecord
100
AcDbLinetypeTableRecord
  2
DOT
 70
    0
  3
Dot . . . . . . . . . . . . . . . . . . . . . .
 72
   65
 73
    2
 40
6.35
 49
0
 74
    0
 49
-6.35
 74
    0
  0
LTYPE
  5
33
330
5
100
AcDbSymbolTableRecord
100
AcDbLinetypeTableRecord
  2
DOTTINY
 70
    0
  3
Dot (.15x) .....................................
 72
   65
 73
    2
 40
0.9525
 49
0
 74
    0
 49
-0.9525
 74
    0
  0
LTYPE
  5
34
330
5
100
AcDbSymbolTableRecord
100
AcDbLinetypeTableRecord
  2
DOT2
 70
    0
  3
Dot (.5x) .....................................
 72
   65
 73
    2
 40
3.175
 49
0
 74
    0
 49
-3.175
 74
    0
  0
LTYPE
  5
35
330
5
100
AcDbSymbolTableRecord
100
AcDbLinetypeTableRecord
  2
DOTX2
 70
    0
  3
Dot (2x) .  .  .  .  .  .  .  .  .  .  .  .  .
 72
   65
 73
    2
 40
12.7
 49
0
 74
    0
 49
-12.7
 74
    0
  0
LTYPE
  5
36
330
5
100
AcDbSymbolTableRecord
100
AcDbLinetypeTableRecord
  2
DASHED
 70
    0
  3
Dashed _ _ _ _ _ _ _ _ _ _ _ _ _ _ _ _ _
 72
   65
 73
    2
 40
19.05
 49
12.7
 74
    0
 49
-6.35
 74
    0
  0
LTYPE
  5
37
330
5
100
AcDbSymbolTableRecord
100
AcDbLinetypeTableRecord
  2
DASHEDTINY
 70
    0
  3
Dashed (.15x) _ _ _ _ _ _ _ _ _ _ _ _ _ _ _ _ _
 72
   65
 73
    2
 40
2.8575
 49
1.905
 74
    0
 49
-0.9525
 74
    0
  0
LTYPE
  5
38
330
5
100
AcDbSymbolTableRecord
100
AcDbLinetypeTableRecord
  2
DASHED2
 70
    0
  3
Dashed (.5x) _ _ _ _ _ _ _ _ _ _ _ _ _ _ _ _ _
 72
   65
 73
    2
 40
9.524999999999999
 49
6.35
 74
    0
 49
-3.175
 74
    0
  0
LTYPE
  5
39
330
5
100
AcDbSymbolTableRecord
100
AcDbLinetypeTableRecord
  2
DASHEDX2
 70
    0
  3
Dashed (2x) ____  ____  ____  ____  ____  ___
 72
   65
 73
    2
 40
38.09999999999999
 49
25.4
 74
    0
 49
-12.7
 74
    0
  0
LTYPE
  5
3A
330
5
100
AcDbSymbolTableRecord
100
AcDbLinetypeTableRecord
  2
DASHDOT
 70
    0
  3
Dash dot __ . __ . __ . __ . __ . __ . __ . __
 72
   65
 73
    4
 40
25.4
 49
12.7
 74
    0
 49
-6.35
 74
    0
 49
0
 74
    0
 49
-6.35
 74
    0
  0
LTYPE
  5
3B
330
5
100
AcDbSymbolTableRecord
100
AcDbLinetypeTableRecord
  2
DASHDOTTINY
 70
    0
  3
Dash dot (.15x) _._._._._._._._._._._._._._._.
 72
   65
 73
    4
 40
3.81
 49
1.905
 74
    0
 49
-0.9525
 74
    0
 49
0
 74
    0
 49
-0.9525
 74
    0
  0
LTYPE
  5
3C
330
5
100
AcDbSymbolTableRecord
100
AcDbLinetypeTableRecord
  2
DASHDOT2
 70
    0
  3
Dash dot (.5x) _._._._._._._._._._._._._._._.
 72
   65
 73
    4
 40
12.7
 49
6.35
 74
    0
 49
-3.175
 74
    0
 49
0
 74
    0
 49
-3.175
 74
    0
  0
LTYPE
  5
3D
330
5
100
AcDbSymbolTableRecord
100
AcDbLinetypeTableRecord
  2
DASHDOTX2
 70
    0
  3
Dash dot (2x) ____  .  ____  .  ____  .  ___
 72
   65
 73
    4
 40
50.8
 49
25.4
 74
    0
 49
-12.7
 74
    0
 49
0
 74
    0
 49
-12.7
 74
    0
  0
LTYPE
  5
3E
330
5
100
AcDbSymbolTableRecord
100
AcDbLinetypeTableRecord
  2
DIVIDE
 70
    0
  3
Divide ____ . . ____ . . ____ . . ____ . . ____
 72
   65
 73
    6
 40
31.75
 49
12.7
 74
    0
 49
-6.35
 74
    0
 49
0
 74
    0
 49
-6.35
 74
    0
 49
0
 74
    0
 49
-6.35
 74
    0
  0
LTYPE
  5
3F
330
5
100
AcDbSymbolTableRecord
100
AcDbLinetypeTableRecord
  2
DIVIDETINY
 70
    0
  3
Divide (.15x) __..__..__..__..__..__..__..__.._
 72
   65
 73
    6
 40
4.7625
 49
1.905
 74
    0
 49
-0.9525
 74
    0
 49
0
 74
    0
 49
-0.9525
 74
    0
 49
0
 74
    0
 49
-0.9525
 74
    0
  0
LTYPE
  5
40
330
5
100
AcDbSymbolTableRecord
100
AcDbLinetypeTableRecord
  2
DIVIDE2
 70
    0
  3
Divide (.5x) __..__..__..__..__..__..__..__.._
 72
   65
 73
    6
 40
15.875
 49
6.35
 74
    0
 49
-3.175
 74
    0
 49
0
 74
    0
 49
-3.175
 74
    0
 49
0
 74
    0
 49
-3.175
 74
    0
  0
LTYPE
  5
41
330
5
100
AcDbSymbolTableRecord
100
AcDbLinetypeTableRecord
  2
DIVIDEX2
 70
    0
  3
Divide (2x) ________  .  .  ________  .  .  _
 72
   65
 73
    6
 40
63.5
 49
25.4
 74
    0
 49
-12.7
 74
    0
 49
0
 74
    0
 49
-12.7
 74
    0
 49
0
 74
    0
 49
-12.7
 74
    0
  0
LTYPE
  5
42
330
5
100
AcDbSymbolTableRecord
100
AcDbLinetypeTableRecord
  2
BORDER
 70
    0
  3
Border __ __ . __ __ . __ __ . __ __ . __ __ .
 72
   65
 73
    6
 40
44.45
 49
12.7
 74
    0
 49
-6.35
 74
    0
 49
12.7
 74
    0
 49
-6.35
 74
    0
 49
0
 74
    0
 49
-6.35
 74
    0
  0
LTYPE
  5
43
330
5
100
AcDbSymbolTableRecord
100
AcDbLinetypeTableRecord
  2
BORDERTINY
 70
    0
  3
Border (.15x) __.__.__.__.__.__.__.__.__.__.__.
 72
   65
 73
    6
 40
6.6675
 49
1.905
 74
    0
 49
-0.9525
 74
    0
 49
1.905
 74
    0
 49
-0.9525
 74
    0
 49
0
 74
    0
 49
-0.9525
 74
    0
  0
LTYPE
  5
44
330
5
100
AcDbSymbolTableRecord
100
AcDbLinetypeTableRecord
  2
BORDER2
 70
    0
  3
Border (.5x) __.__.__.__.__.__.__.__.__.__.__.
 72
   65
 73
    6
 40
22.225
 49
6.35
 74
    0
 49
-3.175
 74
    0
 49
6.35
 74
    0
 49
-3.175
 74
    0
 49
0
 74
    0
 49
-3.175
 74
    0
  0
LTYPE
  5
45
330
5
100
AcDbSymbolTableRecord
100
AcDbLinetypeTableRecord
  2
BORDERX2
 70
    0
  3
Border (2x) ____  ____  .  ____  ____  .  ___
 72
   65
 73
    6
 40
88.89999999999999
 49
25.4
 74
    0
 49
-12.7
 74
    0
 49
25.4
 74
    0
 49
-12.7
 74
    0
 49
0
 74
    0
 49
-12.7
 74
    0
  0
LTYPE
  5
46
330
5
100
AcDbSymbolTableRecord
100
AcDbLinetypeTableRecord
  2
CENTER
 70
    0
  3
Center ____ _ ____ _ ____ _ ____ _ ____ _ ____
 72
   65
 73
    4
 40
50.8
 49
31.75
 74
    0
 49
-6.35
 74
    0
 49
6.35
 74
    0
 49
-6.35
 74
    0
  0
LTYPE
  5
47
330
5
100
AcDbSymbolTableRecord
100
AcDbLinetypeTableRecord
  2
CENTERTINY
 70
    0
  3
Center (.15x) ___ _ ___ _ ___ _ ___ _ ___ _ ___
 72
   65
 73
    4
 40
7.619999999999999
 49
4.7625
 74
    0
 49
-0.9525
 74
    0
 49
0.9525
 74
    0
 49
-0.9525
 74
    0
  0
LTYPE
  5
48
330
5
100
AcDbSymbolTableRecord
100
AcDbLinetypeTableRecord
  2
CENTER2
 70
    0
  3
Center (.5x) ___ _ ___ _ ___ _ ___ _ ___ _ ___
 72
   65
 73
    4
 40
28.575
 49
19.05
 74
    0
 49
-3.175
 74
    0
 49
3.175
 74
    0
 49
-3.175
 74
    0
  0
LTYPE
  5
49
330
5
100
AcDbSymbolTableRecord
100
AcDbLinetypeTableRecord
  2
CENTERX2
 70
    0
  3
Center (2x) ________  __  ________  __  _____
 72
   65
 73
    4
 40
101.6
 49
63.5
 74
    0
 49
-12.7
 74
    0
 49
12.7
 74
    0
 49
-12.7
 74
    0
  0
ENDTAB
  0
TABLE
  2
LAYER
  5
2
330
0
100
AcDbSymbolTable
 70
    1
  0
LAYER
  5
10
330
2
100
AcDbSymbolTableRecord
100
AcDbLayerTableRecord
  2
0
 70
    0
 62
    7
  6
CONTINUOUS
370
   -3
390
F
  0
LAYER
  5
4A
330
2
100
AcDbSymbolTableRecord
100
AcDbLayerTableRecord
  2
pocket
 70
    0
 62
    4
  6
CONTINUOUS
370
    0
390
F
  0
LAYER
  5
4B
330
2
100
AcDbSymbolTableRecord
100
AcDbLayerTableRecord
  2
profiling
 70
    0
 62
    3
  6
CONTINUOUS
370
    0
390
F
  0
LAYER
  5
4C
330
2
100
AcDbSymbolTableRecord
100
AcDbLayerTableRecord
  2
vcut
 70
    0
 62
    6
  6
CONTINUOUS
370
    0
390
F
  0
ENDTAB
  0
TABLE
  2
STYLE
  5
3
330
0
100
AcDbSymbolTable
 70
    3
  0
STYLE
  5
4D
330
2
100
AcDbSymbolTableRecord
100
AcDbTextStyleTableRecord
  2
Standard
 70
    0
 40
0
 41
1
 50
0
 71
    0
 42
1
  3
txt
  4

  0
ENDTAB
  0
TABLE
  2
VIEW
  5
6
330
0
100
AcDbSymbolTable
 70
    0
  0
ENDTAB
  0
TABLE
  2
UCS
  5
7
330
0
100
AcDbSymbolTable
 70
    0
  0
ENDTAB
  0
TABLE
  2
APPID
  5
9
330
0
100
AcDbSymbolTable
 70
    1
  0
APPID
  5
12
330
9
100
AcDbSymbolTableRecord
100
AcDbRegAppTableRecord
  2
ACAD
 70
    0
  0
APPID
  5
4E
330
9
100
AcDbSymbolTableRecord
100
AcDbRegAppTableRecord
  2
LibreCad
 70
    0
  0
ENDTAB
  0
TABLE
  2
DIMSTYLE
  5
A
330
0
100
AcDbSymbolTable
 70
    1
100
AcDbDimStyleTable
 71
    1
  0
DIMSTYLE
105
4F
330
A
100
AcDbSymbolTableRecord
100
AcDbDimStyleTableRecord
  2
Standard
 70
    0
 40
1
 41
2.5
 42
0.625
 43
0.38
 44
1.25
 45
0
 46
0
 47
0
 48
0
 49
1
140
2.5
141
0.09
142
2.5
143
25.4
144
1
145
0
146
1
147
0.625
148
0
 71
    0
 72
    0
 73
    0
 74
    1
 75
    0
 76
    0
 77
    0
 78
    1
 79
    0
170
    0
171
    2
172
    0
173
    0
174
    0
175
    0
176
    0
177
    0
178
    0
179
    0
271
    2
272
    4
273
    2
274
    2
275
    0
276
    0
277
    2
278
    0
279
    0
280
    0
281
    0
282
    0
283
    1
284
    0
285
    0
286
    0
288
    0
289
    3
340
standard
341

371
   -2
372
   -2
  0
ENDTAB
  0
TABLE
  2
BLOCK_RECORD
  5
1
330
0
100
AcDbSymbolTable
 70
    2
  0
BLOCK_RECORD
  5
1F
330
1
100
AcDbSymbolTableRecord
100
AcDbBlockTableRecord
  2
*Model_Space
 70
    0
280
    1
281
    0
  0
BLOCK_RECORD
  5
1E
330
1
100
AcDbSymbolTableRecord
100
AcDbBlockTableRecord
  2
*Paper_Space
 70
    0
280
    1
281
    0
  0
ENDTAB
  0
ENDSEC
  0
SECTION
  2
BLOCKS
  0
BLOCK
  5
20
330
1F
100
AcDbEntity
  8
0
100
AcDbBlockBegin
  2
*Model_Space
 70
    0
 10
0
 20
0
 30
0
  3
*Model_Space
  1

  0
ENDBLK
  5
21
330
1F
100
AcDbEntity
  8
0
100
AcDbBlockEnd
  0
BLOCK
  5
1C
330
1B
100
AcDbEntity
  8
0
100
AcDbBlockBegin
  2
*Paper_Space
 70
    0
 10
0
 20
0
 30
0
  3
*Paper_Space
  1

  0
ENDBLK
  5
1D
330
1F
100
AcDbEntity
  8
0
100
AcDbBlockEnd
  0
ENDSEC
  0
SECTION
  2
ENTITIES
  0
LWPOLYLINE
  5
50
100
AcDbEntity
  8
vcut
  6
ByLayer
 62
  256
370
   -1
100
AcDbPolyline
 90
    2
 70
    0
 43
0
 10
976.242
 20
647.7825
 10
976.242
 20
441.348
  0
LWPOLYLINE
  5
51
100
AcDbEntity
  8
vcut
  6
ByLayer
 62
  256
370
   -1
100
AcDbPolyline
 90
    2
 70
    0
 43
0
 10
948.825
 20
647.7825
 10
948.825
 20
441.348
  0
LWPOLYLINE
  5
52
100
AcDbEntity
  8
profiling
  6
ByLayer
 62
  256
370
   -1
100
AcDbPolyline
 90
  137
 70
    1
 43
0
 10
950.13075
 20
647.664
 10
974.93625
 20
647.664
 10
978.8355
 20
648.0359999999999
 10
1046.673
 20
654.504
 10
1046.673
 20
654.504
 10
1046.673
 20
654.504
 10
1046.673
 20
654.504
 10
1046.673
 20
654.504
 10
1031.16975
 20
477.52425
 10
1031.16975
 20
477.52425
 10
1031.16975
 20
477.52425
 10
1030.845
 20
474.47325
 10
1030.845
 20
474.47325
 10
1030.845
 20
474.47325
 10
1030.845
 20
474.47325
 10
1030.4835
 20
471.44775
 10
1030.4835
 20
471.44775
 10
1030.4835
 20
471.44775
 10
1030.03275
 20
468.47175
 10
1030.03275
 20
468.47175
 10
1029.2925
 20
465.55425
 10
1029.2925
 20
465.55425
 10
1029.2925
 20
465.55425
 10
1028.2695
 20
462.723
 10
1028.2695
 20
462.723
 10
1028.2695
 20
462.723
 10
1026.97425
 20
460.00575
 10
1026.97425
 20
460.00575
 10
1026.97425
 20
460.00575
 10
1026.97425
 20
460.00575
 10
1025.41875
 20
457.42875
 10
1025.41875
 20
457.42875
 10
1023.618
 20
455.01675
 10
1023.618
 20
455.01675
 10
1023.618
 20
455.01675
 10
1023.618
 20
455.01675
 10
1023.618
 20
455.01675
 10
1021.58925
 20
452.79225
 10
1021.58925
 20
452.79225
 10
1019.35275
 20
450.77775
 10
1019.35275
 20
450.77775
 10
1019.35275
 20
450.77775
 10
1019.35275
 20
450.77775
 10
1016.9295
 20
448.992
 10
1016.9295
 20
448.992
 10
1014.34275
 20
447.45225
 10
1014.34275
 20
447.45225
 10
1014.34275
 20
447.45225
 10
1014.34275
 20
447.45225
 10
1014.34275
 20
447.45225
 10
1014.34275
 20
447.45225
 10
1014.34275
 20
447.45225
 10
1011.61725
 20
446.1735
 10
1011.61725
 20
446.1735
 10
1011.61725
 20
446.1735
 10
1008.78
 20
445.1685
 10
1008.78
 20
445.1685
 10
1008.78
 20
445.1685
 10
1005.858
 20
444.44625
 10
1005.858
 20
444.44625
 10
1005.858
 20
444.44625
 10
1004.961
 20
444.31575
 10
1002.87825
 20
444.0135
 10
1002.87825
 20
444.0135
 10
1002.87825
 20
444.0135
 10
988.356
 20
442.629
 10
978.837
 20
441.7215
 10
974.9377500000001
 20
441.3495
 10
974.9377500000001
 20
441.3495
 10
974.9377500000001
 20
441.3495
 10
974.9377500000001
 20
441.3495
 10
950.13225
 20
441.3495
 10
950.13225
 20
441.3495
 10
950.13225
 20
441.3495
 10
946.2329999999999
 20
441.7215
 10
922.191
 20
444.0135
 10
922.191
 20
444.0135
 10
922.191
 20
444.0135
 10
919.212
 20
444.44625
 10
919.212
 20
444.44625
 10
919.212
 20
444.44625
 10
916.29
 20
445.1685
 10
916.29
 20
445.1685
 10
913.45275
 20
446.1735
 10
913.45275
 20
446.1735
 10
913.45275
 20
446.1735
 10
910.72725
 20
447.45225
 10
910.72725
 20
447.45225
 10
910.72725
 20
447.45225
 10
910.72725
 20
447.45225
 10
910.72725
 20
447.45225
 10
908.1405
 20
448.992
 10
908.1405
 20
448.992
 10
908.1405
 20
448.992
 10
905.71725
 20
450.77775
 10
905.71725
 20
450.77775
 10
905.71725
 20
450.77775
 10
905.71725
 20
450.77775
 10
905.71725
 20
450.77775
 10
903.4807499999999
 20
452.79225
 10
903.4807499999999
 20
452.79225
 10
903.4807499999999
 20
452.79225
 10
903.3652499999999
 20
452.919
 10
901.452
 20
455.01675
 10
901.452
 20
455.01675
 10
901.452
 20
455.01675
 10
901.452
 20
455.01675
 10
899.65125
 20
457.42875
 10
899.65125
 20
457.42875
 10
898.09575
 20
460.00575
 10
898.09575
 20
460.00575
 10
898.09575
 20
460.00575
 10
898.09575
 20
460.00575
 10
896.8005000000001
 20
462.723
 10
896.8005000000001
 20
462.723
 10
896.8005000000001
 20
462.723
 10
895.7775
 20
465.55425
 10
895.7775
 20
465.55425
 10
895.7775
 20
465.55425
 10
895.03725
 20
468.47175
 10
895.03725
 20
468.47175
 10
894.5865
 20
471.44775
 10
894.5865
 20
471.44775
 10
894.5865
 20
471.44775
 10
894.225
 20
474.47325
 10
894.225
 20
474.47325
 10
894.225
 20
474.47325
 10
893.90025
 20
477.52425
 10
893.90025
 20
477.52425
 10
893.90025
 20
477.52425
 10
878.397
 20
654.504
 10
878.397
 20
654.504
 10
878.397
 20
654.504
 10
878.397
 20
654.504
 10
878.397
 20
654.504
 10
946.2345
 20
648.0359999999999
 10
950.13375
 20
647.664
  0
LWPOLYLINE
  5
53
100
AcDbEntity
  8
profiling
  6
ByLayer
 62
  256
370
   -1
100
AcDbPolyline
 90
   37
 70
    1
 43
0
 10
942.0599999999999
 20
448.9185
 10
942.0915
 20
448.92525
 10
942.4695
 20
449.0835
 10
942.80925
 20
449.31225
 10
943.098
 20
449.6025
 10
943.3244999999999
 20
449.94375
 10
943.47975
 20
450.3225
 10
943.5585
 20
450.7245
 10
943.557
 20
451.134
 10
943.55475
 20
451.1445
 10
943.476
 20
451.53525
 10
943.3545
 20
451.827
 10
943.3185
 20
451.91325
 10
943.08975
 20
452.253
 10
942.7995
 20
452.54175
 10
942.45825
 20
452.76825
 10
942.0795000000001
 20
452.9235
 10
941.6775
 20
453.00225
 10
941.268
 20
453.00075
 10
940.86675
 20
452.91975
 10
940.48875
 20
452.76225
 10
940.149
 20
452.5335
 10
939.86025
 20
452.24325
 10
939.63375
 20
451.902
 10
939.4785000000001
 20
451.52325
 10
939.39975
 20
451.12125
 10
939.40125
 20
450.71175
 10
939.48225
 20
450.3105
 10
939.6405
 20
449.9325
 10
939.86925
 20
449.59275
 10
940.1595
 20
449.304
 10
940.50075
 20
449.0775
 10
940.8795
 20
448.92225
 10
941.2815000000001
 20
448.8435
 10
941.4825
 20
448.84425
 10
941.691
 20
448.845
 10
942.06075
 20
448.92
  0
LWPOLYLINE
  5
54
100
AcDbEntity
  8
profiling
  6
ByLayer
 62
  256
370
   -1
100
AcDbPolyline
 90
   39
 70
    1
 43
0
 10
908.343
 20
459.9225
 10
908.72175
 20
459.76725
 10
909.12375
 20
459.6885
 10
909.53325
 20
459.69
 10
909.9345
 20
459.771
 10
910.3125
 20
459.92925
 10
910.65225
 20
460.158
 10
910.941
 20
460.44825
 10
911.05425
 20
460.6185
 10
911.1675
 20
460.78875
 10
911.32275
 20
461.1675
 10
911.4015000000001
 20
461.5695
 10
911.4
 20
461.979
 10
911.319
 20
462.38025
 10
911.16075
 20
462.75825
 10
910.9515
 20
463.06875
 10
910.932
 20
463.098
 10
910.85475
 20
463.1745
 10
910.64175
 20
463.38675
 10
910.3005000000001
 20
463.61325
 10
909.92175
 20
463.7685
 10
909.51975
 20
463.84725
 10
909.11025
 20
463.84575
 10
908.7089999999999
 20
463.76475
 10
908.331
 20
463.6065
 10
908.1735
 20
463.50075
 10
907.99125
 20
463.37775
 10
907.8735
 20
463.25925
 10
907.7025
 20
463.0875
 10
907.59375
 20
462.924
 10
907.476
 20
462.74625
 10
907.32075
 20
462.3675
 10
907.242
 20
461.9655
 10
907.2435
 20
461.556
 10
907.3244999999999
 20
461.15475
 10
907.482
 20
460.77675
 10
907.71075
 20
460.437
 10
908.001
 20
460.14825
 10
908.34225
 20
459.92175
  0
LWPOLYLINE
  5
55
100
AcDbEntity
  8
profiling
  6
ByLayer
 62
  256
370
   -1
100
AcDbPolyline
 90
   44
 70
    1
 43
0
 10
923.1487499999999
 20
454.077
 10
923.77125
 20
453.95475
 10
927.3434999999999
 20
453.61425
 10
928.47225
 20
453.50625
 10
929.10675
 20
453.5085
 10
929.7285000000001
 20
453.6345
 10
930.31425
 20
453.879
 10
930.84075
 20
454.233
 10
931.28775
 20
454.683
 10
931.63875
 20
455.21175
 10
931.8795
 20
455.799
 10
932.001
 20
456.4215
 10
931.99875
 20
457.056
 10
931.87275
 20
457.67775
 10
931.62825
 20
458.2635
 10
931.32525
 20
458.71425
 10
931.2742500000001
 20
458.79
 10
931.0245
 20
459.03825
 10
930.82425
 20
459.23775
 10
930.2954999999999
 20
459.58875
 10
929.70825
 20
459.8295
 10
929.08575
 20
459.951
 10
924.3847500000001
 20
460.3995
 10
923.7502500000001
 20
460.39725
 10
923.4059999999999
 20
460.3275
 10
923.12775
 20
460.27125
 10
922.542
 20
460.02675
 10
922.0155
 20
459.67275
 10
921.5685
 20
459.22275
 10
921.2805
 20
458.7885
 10
921.2805
 20
458.7885
 10
921.2175
 20
458.694
 10
920.97675
 20
458.10675
 10
920.89275
 20
457.6755
 10
920.89275
 20
457.6755
 10
920.89275
 20
457.6755
 10
920.85525
 20
457.48425
 10
920.8575
 20
456.84975
 10
920.9835
 20
456.228
 10
921.228
 20
455.64225
 10
921.582
 20
455.11575
 10
922.032
 20
454.66875
 10
922.56075
 20
454.31775
 10
923.148
 20
454.077
  0
LWPOLYLINE
  5
56
100
AcDbEntity
  8
profiling
  6
ByLayer
 62
  256
370
   -1
100
AcDbPolyline
 90
   35
 70
    1
 43
0
 10
986.2515
 20
637.95975
 10
986.811
 20
637.39725
 10
987.4695
 20
636.95475
 10
988.2015
 20
636.6487499999999
 10
988.97925
 20
636.49125
 10
989.34975
 20
636.48975
 10
989.77275
 20
636.48825
 10
990.55125
 20
636.6405
 10
991.2855
 20
636.942
 10
991.94625
 20
637.38075
 10
992.50875
 20
637.94025
 10
992.95125
 20
638.59875
 10
993.25725
 20
639.33075
 10
993.41475
 20
640.1085
 10
993.417
 20
640.902
 10
993.3825000000001
 20
641.07975
 10
993.26475
 20
641.6805000000001
 10
992.96325
 20
642.41475
 10
992.5245
 20
643.0755
 10
991.965
 20
643.638
 10
991.3065
 20
644.0805
 10
990.5744999999999
 20
644.3865
 10
989.79675
 20
644.544
 10
989.00325
 20
644.54625
 10
988.22475
 20
644.394
 10
987.4905
 20
644.0925
 10
986.82975
 20
643.6537499999999
 10
986.26725
 20
643.09425
 10
985.82475
 20
642.43575
 10
985.51875
 20
641.70375
 10
985.36125
 20
640.926
 10
985.359
 20
640.1325000000001
 10
985.51125
 20
639.354
 10
985.8127500000001
 20
638.61975
 10
986.2515
 20
637.9589999999999
  0
LWPOLYLINE
  5
57
100
AcDbEntity
  8
profiling
  6
ByLayer
 62
  256
370
   -1
100
AcDbPolyline
 90
   36
 70
    1
 43
0
 10
1024.368
 20
518.244
 10
1024.13925
 20
517.90425
 10
1023.98175
 20
517.52625
 10
1023.90075
 20
517.125
 10
1023.89925
 20
516.7155
 10
1023.978
 20
516.3135
 10
1024.13325
 20
515.93475
 10
1024.308
 20
515.67225
 10
1024.35975
 20
515.5934999999999
 10
1024.6485
 20
515.30325
 10
1024.98825
 20
515.0744999999999
 10
1025.36625
 20
514.917
 10
1025.7675
 20
514.836
 10
1026.177
 20
514.8345
 10
1026.579
 20
514.9132499999999
 10
1026.95775
 20
515.0685
 10
1027.299
 20
515.295
 10
1027.58925
 20
515.58375
 10
1027.818
 20
515.9235
 10
1027.9755
 20
516.3015
 10
1028.0565
 20
516.70275
 10
1028.058
 20
517.11225
 10
1027.97925
 20
517.5142499999999
 10
1027.932
 20
517.629
 10
1027.82325
 20
517.893
 10
1027.59675
 20
518.23425
 10
1027.308
 20
518.5245
 10
1026.96825
 20
518.75325
 10
1026.59025
 20
518.91075
 10
1026.189
 20
518.99175
 10
1025.7795
 20
518.99325
 10
1025.502
 20
518.93925
 10
1025.3775
 20
518.91525
 10
1024.99875
 20
518.76
 10
1024.6575
 20
518.5335
 10
1024.36725
 20
518.24475
  0
LWPOLYLINE
  5
58
100
AcDbEntity
  8
profiling
  6
ByLayer
 62
  256
370
   -1
100
AcDbPolyline
 90
   38
 70
    1
 43
0
 10
1014.13425
 20
463.098
 10
1013.9055
 20
462.75825
 10
1013.748
 20
462.38025
 10
1013.667
 20
461.979
 10
1013.6655
 20
461.5695
 10
1013.74425
 20
461.1675
 10
1013.8845
 20
460.8255
 10
1013.8995
 20
460.78875
 10
1014.0165
 20
460.6125
 10
1014.126
 20
460.4475
 10
1014.41475
 20
460.15725
 10
1014.7545
 20
459.9285
 10
1015.1325
 20
459.77025
 10
1015.53375
 20
459.68925
 10
1015.94325
 20
459.68775
 10
1016.34525
 20
459.7665
 10
1016.724
 20
459.92175
 10
1016.937
 20
460.06275
 10
1017.06525
 20
460.14825
 10
1017.3555
 20
460.437
 10
1017.58425
 20
460.77675
 10
1017.7425
 20
461.15475
 10
1017.8235
 20
461.556
 10
1017.825
 20
461.9655
 10
1017.7845
 20
462.1725
 10
1017.74625
 20
462.3675
 10
1017.591
 20
462.74625
 10
1017.3645
 20
463.0875
 10
1017.07575
 20
463.37775
 10
1016.736
 20
463.6065
 10
1016.6715
 20
463.6335
 10
1016.358
 20
463.76475
 10
1015.95675
 20
463.84575
 10
1015.54725
 20
463.84725
 10
1015.14525
 20
463.7685
 10
1014.7665
 20
463.61325
 10
1014.42525
 20
463.38675
 10
1014.135
 20
463.098
  0
LWPOLYLINE
  5
59
100
AcDbEntity
  8
profiling
  6
ByLayer
 62
  256
370
   -1
100
AcDbPolyline
 90
   86
 70
    1
 43
0
 10
983.28975
 20
486.61425
 10
983.457
 20
486.46275
 10
983.6385
 20
486.32775
 10
983.8155
 20
486.222
 10
983.83275
 20
486.2115
 10
984.0375
 20
486.11475
 10
984.2505
 20
486.03825
 10
984.4695
 20
485.9835
 10
984.693
 20
485.9505
 10
984.91875
 20
485.93925
 10
986.115
 20
485.93925
 10
987.42375
 20
485.93925
 10
988.6252500000001
 20
485.9985
 10
989.81475
 20
486.17475
 10
990.66675
 20
486.3885
 10
990.98175
 20
486.46725
 10
991.12875
 20
486.51975
 10
992.11425
 20
486.87225
 10
993.2017499999999
 20
487.38675
 10
994.23375
 20
488.00475
 10
995.19975
 20
488.721
 10
996.09075
 20
489.52875
 10
996.8985
 20
490.41975
 10
997.59075
 20
491.35275
 10
997.6155
 20
491.38575
 10
998.04375
 20
492.1005
 10
998.2335
 20
492.41775
 10
998.46675
 20
492.912
 10
998.74725
 20
493.50525
 10
999.15225
 20
494.63775
 10
999.44475
 20
495.80475
 10
999.621
 20
496.99425
 10
999.68025
 20
498.19575
 10
999.68025
 20
527.00925
 10
999.68025
 20
527.00925
 10
999.669
 20
527.2335
 10
999.6405
 20
527.4225
 10
999.636
 20
527.454
 10
999.58125
 20
527.66775
 10
999.5505000000001
 20
527.751
 10
999.5055
 20
527.87325
 10
999.4095
 20
528.06825
 10
999.294
 20
528.25125
 10
999.2670000000001
 20
528.285
 10
999.15975
 20
528.42
 10
999.009
 20
528.573
 10
998.8425
 20
528.70875
 10
998.66175
 20
528.8265
 10
998.4690000000001
 20
528.924
 10
998.367
 20
528.963
 10
998.265
 20
529.002
 10
998.0527499999999
 20
529.05825
 10
997.8345
 20
529.09275
 10
997.61175
 20
529.10475
 10
997.38675
 20
529.09425
 10
984.9105
 20
527.90475
 10
984.9105
 20
527.90475
 10
984.6855
 20
527.8724999999999
 10
984.46275
 20
527.8185
 10
984.2445
 20
527.74275
 10
984.03225
 20
527.646
 10
983.829
 20
527.52975
 10
983.63625
 20
527.39475
 10
983.4555
 20
527.2424999999999
 10
983.289
 20
527.0744999999999
 10
983.1375
 20
526.89225
 10
983.09175
 20
526.8255
 10
983.00325
 20
526.698
 10
982.91475
 20
526.54125
 10
982.88775
 20
526.49325
 10
982.79175
 20
526.2795
 10
982.716
 20
526.05975
 10
982.66125
 20
525.8355
 10
982.62825
 20
525.609
 10
982.617
 20
525.3825000000001
 10
982.61475
 20
488.24325
 10
982.626
 20
488.0175
 10
982.6275000000001
 20
488.00625
 10
982.659
 20
487.794
 10
982.6935
 20
487.656
 10
982.71375
 20
487.57425
 10
982.79025
 20
487.36125
 10
982.8869999999999
 20
487.1565
 10
983.00325
 20
486.96225
 10
983.13825
 20
486.78075
 10
983.28975
 20
486.6135
  0
LWPOLYLINE
  5
5A
100
AcDbEntity
  8
profiling
  6
ByLayer
 62
  256
370
   -1
100
AcDbPolyline
 90
   36
 70
    1
 43
0
 10
984.9075
 20
449.30325
 10
985.19775
 20
449.592
 10
985.4265
 20
449.93175
 10
985.5839999999999
 20
450.30975
 10
985.61025
 20
450.4395
 10
985.665
 20
450.711
 10
985.6665
 20
451.1205
 10
985.58775
 20
451.5225
 10
985.4325
 20
451.90125
 10
985.206
 20
452.2425
 10
984.91725
 20
452.53275
 10
984.5775
 20
452.7615
 10
984.50175
 20
452.793
 10
984.1994999999999
 20
452.919
 10
983.7982500000001
 20
453
 10
983.38875
 20
453.0015
 10
982.98675
 20
452.92275
 10
982.6079999999999
 20
452.7675
 10
982.26675
 20
452.541
 10
981.9765
 20
452.25225
 10
981.74775
 20
451.9125
 10
981.59025
 20
451.5345
 10
981.5767499999999
 20
451.467
 10
981.50925
 20
451.13325
 10
981.50775
 20
450.72375
 10
981.5865
 20
450.32175
 10
981.74175
 20
449.943
 10
981.96825
 20
449.60175
 10
982.2569999999999
 20
449.3115
 10
982.59675
 20
449.08275
 10
982.97475
 20
448.9245
 10
983.376
 20
448.8435
 10
983.7855
 20
448.842
 10
984.1875
 20
448.92075
 10
984.56625
 20
449.076
 10
984.9075
 20
449.3025
  0
LWPOLYLINE
  5
5B
100
AcDbEntity
  8
profiling
  6
ByLayer
 62
  256
370
   -1
100
AcDbPolyline
 90
   35
 70
    1
 43
0
 10
1031.3685
 20
602.14575
 10
1031.44725
 20
601.74375
 10
1031.6025
 20
601.365
 10
1031.829
 20
601.0237499999999
 10
1032.11775
 20
600.7335
 10
1032.4575
 20
600.5047499999999
 10
1032.8355
 20
600.3465
 10
1032.90975
 20
600.3315
 10
1033.23675
 20
600.2655
 10
1033.64625
 20
600.264
 10
1033.743
 20
600.28275
 10
1034.04825
 20
600.34275
 10
1034.427
 20
600.498
 10
1034.76825
 20
600.7245
 10
1035.0585
 20
601.01325
 10
1035.28725
 20
601.353
 10
1035.44475
 20
601.731
 10
1035.52575
 20
602.13225
 10
1035.52725
 20
602.54175
 10
1035.4485
 20
602.94375
 10
1035.29325
 20
603.3225
 10
1035.06675
 20
603.6637500000001
 10
1034.778
 20
603.954
 10
1034.43825
 20
604.1827500000001
 10
1034.06025
 20
604.341
 10
1033.659
 20
604.422
 10
1033.2495
 20
604.4235
 10
1032.8475
 20
604.34475
 10
1032.46875
 20
604.1895
 10
1032.1275
 20
603.963
 10
1031.83725
 20
603.67425
 10
1031.6085
 20
603.3345
 10
1031.451
 20
602.9565
 10
1031.37
 20
602.55525
 10
1031.3685
 20
602.14575
  0
LWPOLYLINE
  5
5C
100
AcDbEntity
  8
profiling
  6
ByLayer
 62
  256
370
   -1
100
AcDbPolyline
 90
   38
 70
    1
 43
0
 10
1027.74975
 20
560.6107500000001
 10
1027.59225
 20
560.23275
 10
1027.51125
 20
559.8315
 10
1027.50975
 20
559.422
 10
1027.5885
 20
559.02
 10
1027.74375
 20
558.64125
 10
1027.97025
 20
558.3
 10
1028.259
 20
558.0097500000001
 10
1028.59875
 20
557.7809999999999
 10
1028.97675
 20
557.62275
 10
1029.378
 20
557.54175
 10
1029.7875
 20
557.54025
 10
1030.1895
 20
557.619
 10
1030.56825
 20
557.7742500000001
 10
1030.9095
 20
558.00075
 10
1031.17725
 20
558.2670000000001
 10
1031.19975
 20
558.2895
 10
1031.4285
 20
558.62925
 10
1031.58675
 20
559.00725
 10
1031.61225
 20
559.1347500000001
 10
1031.66775
 20
559.4085
 10
1031.66925
 20
559.818
 10
1031.5905
 20
560.22
 10
1031.43525
 20
560.59875
 10
1031.20875
 20
560.9400000000001
 10
1030.92
 20
561.23025
 10
1030.58025
 20
561.4589999999999
 10
1030.2525
 20
561.5962500000001
 10
1030.203
 20
561.61725
 10
1029.80175
 20
561.69825
 10
1029.39225
 20
561.69975
 10
1028.99025
 20
561.621
 10
1028.85075
 20
561.564
 10
1028.6115
 20
561.46575
 10
1028.319
 20
561.2714999999999
 10
1028.271
 20
561.23925
 10
1027.98075
 20
560.9505
 10
1027.752
 20
560.6107500000001
  0
LWPOLYLINE
  5
5D
100
AcDbEntity
  8
profiling
  6
ByLayer
 62
  256
370
   -1
100
AcDbPolyline
 90
   36
 70
    1
 43
0
 10
1031.898
 20
647.95125
 10
1031.3355
 20
647.39175
 10
1030.893
 20
646.73325
 10
1030.587
 20
646.00125
 10
1030.4295
 20
645.2234999999999
 10
1030.42725
 20
644.4299999999999
 10
1030.5795
 20
643.6515000000001
 10
1030.614
 20
643.5675
 10
1030.881
 20
642.918
 10
1031.2995
 20
642.28725
 10
1031.31975
 20
642.2565
 10
1031.87925
 20
641.694
 10
1032.53775
 20
641.2515
 10
1032.62475
 20
641.2155
 10
1033.26975
 20
640.94625
 10
1034.0475
 20
640.7887500000001
 10
1034.841
 20
640.7865
 10
1035.6195
 20
640.93875
 10
1036.35375
 20
641.2402499999999
 10
1037.0145
 20
641.679
 10
1037.577
 20
642.2385
 10
1038.0195
 20
642.897
 10
1038.3255
 20
643.629
 10
1038.483
 20
644.40675
 10
1038.48525
 20
645.20025
 10
1038.333
 20
645.97875
 10
1038.0315
 20
646.713
 10
1037.59275
 20
647.37375
 10
1037.03325
 20
647.93625
 10
1036.37475
 20
648.37875
 10
1035.64275
 20
648.68475
 10
1034.865
 20
648.84225
 10
1034.0715
 20
648.8445
 10
1033.293
 20
648.6922499999999
 10
1032.55875
 20
648.39075
 10
1031.898
 20
647.952
  0
LWPOLYLINE
  5
5E
100
AcDbEntity
  8
profiling
  6
ByLayer
 62
  256
370
   -1
100
AcDbPolyline
 90
   35
 70
    1
 43
0
 10
939.5549999999999
 20
639.35475
 10
939.70725
 20
640.13325
 10
939.705
 20
640.92675
 10
939.5475
 20
641.7045000000001
 10
939.2415
 20
642.4365
 10
938.799
 20
643.095
 10
938.2365
 20
643.6545
 10
937.57575
 20
644.09325
 10
936.8415
 20
644.39475
 10
936.063
 20
644.547
 10
935.2695
 20
644.54475
 10
934.49175
 20
644.38725
 10
933.7597500000001
 20
644.08125
 10
933.1012500000001
 20
643.63875
 10
932.54175
 20
643.07625
 10
932.103
 20
642.4155
 10
931.8015
 20
641.68125
 10
931.6492500000001
 20
640.90275
 10
931.6515000000001
 20
640.10925
 10
931.66575
 20
640.038
 10
931.80825
 20
639.3315
 10
932.11425
 20
638.5995
 10
932.55675
 20
637.941
 10
933.11925
 20
637.3815
 10
933.13575
 20
637.371
 10
933.78075
 20
636.94275
 10
934.515
 20
636.64125
 10
935.2935
 20
636.489
 10
936.087
 20
636.49125
 10
936.86475
 20
636.6487499999999
 10
937.59675
 20
636.95475
 10
938.25525
 20
637.39725
 10
938.81475
 20
637.95975
 10
939.2535
 20
638.6205
 10
939.5549999999999
 20
639.35475
  0
LWPOLYLINE
  5
5F
100
AcDbEntity
  8
profiling
  6
ByLayer
 62
  256
370
   -1
100
AcDbPolyline
 90
   41
 70
    1
 43
0
 10
890.298
 20
600.72525
 10
890.6392499999999
 20
600.49875
 10
891.018
 20
600.3434999999999
 10
891.42
 20
600.26475
 10
891.441
 20
600.26475
 10
891.8295000000001
 20
600.26625
 10
892.2307499999999
 20
600.34725
 10
892.60875
 20
600.5055
 10
892.9485
 20
600.73425
 10
893.23725
 20
601.0245
 10
893.29275
 20
601.10775
 10
893.46375
 20
601.36575
 10
893.619
 20
601.7445
 10
893.6369999999999
 20
601.83525
 10
893.69775
 20
602.1464999999999
 10
893.697
 20
602.421
 10
893.69625
 20
602.556
 10
893.6152499999999
 20
602.95725
 10
893.45775
 20
603.33525
 10
893.229
 20
603.675
 10
892.93875
 20
603.96375
 10
892.5975
 20
604.19025
 10
892.21875
 20
604.3455
 10
891.81675
 20
604.42425
 10
891.40725
 20
604.42275
 10
891.3652499999999
 20
604.4145
 10
891.25575
 20
604.3920000000001
 10
891.006
 20
604.34175
 10
890.628
 20
604.1835
 10
890.2882499999999
 20
603.95475
 10
889.9995
 20
603.6645
 10
889.773
 20
603.32325
 10
889.72425
 20
603.204
 10
889.61775
 20
602.9444999999999
 10
889.6012500000001
 20
602.862
 10
889.539
 20
602.5432499999999
 10
889.5405
 20
602.13375
 10
889.6215
 20
601.7325
 10
889.779
 20
601.3545
 10
890.00775
 20
601.01475
 10
890.298
 20
600.726
  0
LWPOLYLINE
  5
60
100
AcDbEntity
  8
profiling
  6
ByLayer
 62
  256
370
   -1
100
AcDbPolyline
 90
   38
 70
    1
 43
0
 10
893.625
 20
558.66225
 10
893.6385
 20
558.63
 10
893.86725
 20
558.29025
 10
894.1575
 20
558.0015
 10
894.49875
 20
557.775
 10
894.8775000000001
 20
557.61975
 10
895.2795
 20
557.5410000000001
 10
895.689
 20
557.5425
 10
896.09025
 20
557.6235
 10
896.27925
 20
557.70225
 10
896.46825
 20
557.7809999999999
 10
896.808
 20
558.0097500000001
 10
896.9325
 20
558.135
 10
897.09675
 20
558.3
 10
897.32325
 20
558.64125
 10
897.4785000000001
 20
559.02
 10
897.55725
 20
559.422
 10
897.55575
 20
559.8315
 10
897.47475
 20
560.23275
 10
897.3165
 20
560.6107500000001
 10
897.08775
 20
560.9505
 10
896.7975
 20
561.23925
 10
896.45625
 20
561.46575
 10
896.0775
 20
561.621
 10
895.6755000000001
 20
561.69975
 10
895.266
 20
561.69825
 10
894.86475
 20
561.61725
 10
894.48675
 20
561.4589999999999
 10
894.147
 20
561.23025
 10
893.85825
 20
560.9400000000001
 10
893.7855
 20
560.8305
 10
893.63175
 20
560.59875
 10
893.4765
 20
560.22
 10
893.39775
 20
559.818
 10
893.3992500000001
 20
559.4085
 10
893.448
 20
559.16625
 10
893.48025
 20
559.0065
 10
893.625
 20
558.66075
  0
LWPOLYLINE
  5
61
100
AcDbEntity
  8
profiling
  6
ByLayer
 62
  256
370
   -1
100
AcDbPolyline
 90
   34
 70
    1
 43
0
 10
900.06675
 20
518.75925
 10
899.688
 20
518.9145
 10
899.2859999999999
 20
518.99325
 10
898.8765
 20
518.99175
 10
898.47525
 20
518.91075
 10
898.09725
 20
518.7525000000001
 10
897.7575000000001
 20
518.5237499999999
 10
897.46875
 20
518.2335
 10
897.43125
 20
518.17725
 10
897.24225
 20
517.893
 10
897.087
 20
517.5142499999999
 10
897.00825
 20
517.11225
 10
897.0097500000001
 20
516.70275
 10
897.09075
 20
516.3015
 10
897.249
 20
515.9235
 10
897.47775
 20
515.58375
 10
897.768
 20
515.295
 10
898.10925
 20
515.0685
 10
898.4880000000001
 20
514.9132499999999
 10
898.89
 20
514.8345
 10
899.2995
 20
514.836
 10
899.70075
 20
514.917
 10
900.07875
 20
515.07525
 10
900.4185
 20
515.304
 10
900.70725
 20
515.59425
 10
900.93375
 20
515.9355
 10
901.0890000000001
 20
516.31425
 10
901.16775
 20
516.7162499999999
 10
901.16625
 20
517.12575
 10
901.08525
 20
517.527
 10
900.9277499999999
 20
517.905
 10
900.699
 20
518.24475
 10
900.4087500000001
 20
518.5335
 10
900.0675
 20
518.76
  0
LWPOLYLINE
  5
62
100
AcDbEntity
  8
profiling
  6
ByLayer
 62
  256
370
   -1
100
AcDbPolyline
 90
   35
 70
    1
 43
0
 10
891.774
 20
648.6915
 10
890.9955
 20
648.84375
 10
890.202
 20
648.8415
 10
889.42425
 20
648.684
 10
888.6922499999999
 20
648.378
 10
888.0337500000001
 20
647.9355
 10
887.47425
 20
647.373
 10
887.0355
 20
646.71225
 10
886.734
 20
645.978
 10
886.5817500000001
 20
645.1994999999999
 10
886.5839999999999
 20
644.4059999999999
 10
886.7415
 20
643.62825
 10
887.0475
 20
642.89625
 10
887.49
 20
642.23775
 10
888.0525
 20
641.67825
 10
888.1335
 20
641.625
 10
888.7140000000001
 20
641.2402499999999
 10
889.29975
 20
640.9995
 10
889.44825
 20
640.93875
 10
890.22675
 20
640.7865
 10
891.02025
 20
640.7887500000001
 10
891.798
 20
640.94625
 10
892.53
 20
641.25225
 10
893.1885
 20
641.69475
 10
893.748
 20
642.25725
 10
894.18675
 20
642.918
 10
894.48825
 20
643.65225
 10
894.6405
 20
644.43075
 10
894.63825
 20
645.22425
 10
894.4807499999999
 20
646.002
 10
894.17475
 20
646.734
 10
893.73225
 20
647.3925
 10
893.16975
 20
647.952
 10
892.509
 20
648.39075
 10
891.77475
 20
648.6922499999999
  0
ENDSEC
  0
SECTION
  2
OBJECTS
  0
DICTIONARY
  5
C
330
0
100
AcDbDictionary
281
    1
  3
ACAD_GROUP
350
D
  0
DICTIONARY
  5
D
330
C
100
AcDbDictionary
281
    1
  0
ENDSEC
  0
EOF
