999
dxfrw 0.6.3
  0
SECTION
  2
HEADER
  9
$ACADVER
  1
AC1021
  9
$DWGCODEPAGE
  3
ANSI_1252
  9
$INSBASE
 10
0
 20
0
 30
0
  9
$EXTMIN
 10
738.56625
 20
383.586
 30
0
  9
$EXTMAX
 10
895.1865
 20
498.1815
 30
0
  9
$LIMMIN
 10
0
 20
0
  9
$LIMMAX
 10
420
 20
297
  9
$ORTHOMODE
 70
    0
  9
$REGENMODE
 70
    1
  9
$FILLMODE
 70
    1
  9
$QTEXTMODE
 70
    0
  9
$MIRRTEXT
 70
    0
  9
$LTSCALE
 40
1
  9
$ATTMODE
 70
    0
  9
$TEXTSIZE
 40
2.5
  9
$TRACEWID
 40
15.68
  9
$TEXTSTYLE
  7
STANDARD
  9
$CLAYER
  8
0
  9
$CELTYPE
  6
BYLAYER
  9
$CECOLOR
 62
  256
  9
$CELTSCALE
 40
1
  9
$DISPSILH
 70
    0
  9
$DIMSCALE
 40
2.5
  9
$DIMASZ
 40
2.5
  9
$DIMEXO
 40
0.625
  9
$DIMDLI
 40
3.75
  9
$DIMRND
 40
0
  9
$DIMDLE
 40
0
  9
$DIMEXE
 40
1.25
  9
$DIMTP
 40
0
  9
$DIMTM
 40
0
  9
$DIMTXT
 40
2.5
  9
$DIMCEN
 40
2.5
  9
$DIMTSZ
 40
0
  9
$DIMTOL
 70
    0
  9
$DIMLIM
 70
    0
  9
$DIMTIH
 70
    0
  9
$DIMTOH
 70
    0
  9
$DIMSE1
 70
    0
  9
$DIMSE2
 70
    0
  9
$DIMTAD
 70
    1
  9
$DIMZIN
 70
    8
  9
$DIMBLK
  1

  9
$DIMASO
 70
    1
  9
$DIMSHO
 70
    1
  9
$DIMPOST
  1

  9
$DIMAPOST
  1

  9
$DIMALT
 70
    0
  9
$DIMALTD
 70
    3
  9
$DIMALTF
 40
0.03937
  9
$DIMLFAC
 40
1
  9
$DIMTOFL
 70
    1
  9
$DIMTVP
 40
0
  9
$DIMTIX
 70
    0
  9
$DIMSOXD
 70
    0
  9
$DIMSAH
 70
    0
  9
$DIMBLK1
  1

  9
$DIMBLK2
  1

  9
$DIMSTYLE
  2
Standard
  9
$DIMCLRD
 70
    0
  9
$DIMCLRE
 70
    0
  9
$DIMCLRT
 70
    0
  9
$DIMTFAC
 40
1
  9
$DIMGAP
 40
0.625
  9
$DIMJUST
 70
    0
  9
$DIMSD1
 70
    0
  9
$DIMSD2
 70
    0
  9
$DIMTOLJ
 70
    0
  9
$DIMTZIN
 70
    8
  9
$DIMALTZ
 70
    0
  9
$DIMALTTZ
 70
    0
  9
$DIMUPT
 70
    0
  9
$DIMDEC
 70
    2
  9
$DIMTDEC
 70
    2
  9
$DIMALTU
 70
    2
  9
$DIMALTTD
 70
    3
  9
$DIMTXSTY
  7
STANDARD
  9
$DIMAUNIT
 70
    0
  9
$DIMADEC
 70
    0
  9
$DIMALTRND
 40
0
  9
$DIMAZIN
 70
    0
  9
$DIMDSEP
 70
   44
  9
$DIMATFIT
 70
    3
  9
$DIMFRAC
 70
    0
  9
$DIMLDRBLK
  1
STANDARD
  9
$DIMLUNIT
 70
    2
  9
$DIMLWD
 70
   -2
  9
$DIMLWE
 70
   -2
  9
$DIMTMOVE
 70
    0
  9
$DIMFXL
 40
1
  9
$DIMFXLON
 70
    0
  9
$DIMJOGANG
 40
0.7854
  9
$DIMTFILL
 70
    0
  9
$DIMTFILLCLR
 70
    0
  9
$DIMARCSYM
 70
    0
  9
$DIMLTYPE
  6

  9
$DIMLTEX1
  6

  9
$DIMLTEX2
  6

  9
$LUNITS
 70
    2
  9
$LUPREC
 70
    4
  9
$SKETCHINC
 40
1
  9
$FILLETRAD
 40
0
  9
$AUNITS
 70
    0
  9
$AUPREC
 70
    2
  9
$MENU
  1
.
  9
$ELEVATION
 40
0
  9
$PELEVATION
 40
0
  9
$THICKNESS
 40
0
  9
$LIMCHECK
 70
    0
  9
$CHAMFERA
 40
0
  9
$CHAMFERB
 40
0
  9
$CHAMFERC
 40
0
  9
$CHAMFERD
 40
0
  9
$SKPOLY
 70
    0
  9
$USRTIMER
 70
    1
  9
$ANGBASE
 50
0
  9
$ANGDIR
 70
    0
  9
$PDMODE
 70
   34
  9
$PDSIZE
 40
0
  9
$PLINEWID
 40
0
  9
$SPLFRAME
 70
    0
  9
$SPLINETYPE
 70
    2
  9
$SPLINESEGS
 70
    8
  9
$HANDSEED
  5
20000
  9
$SURFTAB1
 70
    6
  9
$SURFTAB2
 70
    6
  9
$SURFTYPE
 70
    6
  9
$SURFU
 70
    6
  9
$SURFV
 70
    6
  9
$UCSBASE
  2

  9
$UCSNAME
  2

  9
$UCSORG
 10
0
 20
0
 30
0
  9
$UCSXDIR
 10
1
 20
0
 30
0
  9
$UCSYDIR
 10
0
 20
1
 30
0
  9
$UCSORTHOREF
  2

  9
$UCSORTHOVIEW
 70
    0
  9
$UCSORGTOP
 10
0
 20
0
 30
0
  9
$UCSORGBOTTOM
 10
0
 20
0
 30
0
  9
$UCSORGLEFT
 10
0
 20
0
 30
0
  9
$UCSORGRIGHT
 10
0
 20
0
 30
0
  9
$UCSORGFRONT
 10
0
 20
0
 30
0
  9
$UCSORGBACK
 10
0
 20
0
 30
0
  9
$PUCSBASE
  2

  9
$PUCSNAME
  2

  9
$PUCSORG
 10
0
 20
0
 30
0
  9
$PUCSXDIR
 10
1
 20
0
 30
0
  9
$PUCSYDIR
 10
0
 20
1
 30
0
  9
$PUCSORTHOREF
  2

  9
$PUCSORTHOVIEW
 70
    0
  9
$PUCSORGTOP
 10
0
 20
0
 30
0
  9
$PUCSORGBOTTOM
 10
0
 20
0
 30
0
  9
$PUCSORGLEFT
 10
0
 20
0
 30
0
  9
$PUCSORGRIGHT
 10
0
 20
0
 30
0
  9
$PUCSORGFRONT
 10
0
 20
0
 30
0
  9
$PUCSORGBACK
 10
0
 20
0
 30
0
  9
$USERI1
 70
    0
  9
$USERI2
 70
    0
  9
$USERI3
 70
    0
  9
$USERI4
 70
    0
  9
$USERI5
 70
    0
  9
$USERR1
 40
0
  9
$USERR2
 40
0
  9
$USERR3
 40
0
  9
$USERR4
 40
0
  9
$USERR5
 40
0
  9
$WORLDVIEW
 70
    1
  9
$SHADEDGE
 70
    3
  9
$SHADEDIF
 70
   70
  9
$TILEMODE
 70
    1
  9
$MAXACTVP
 70
   64
  9
$PINSBASE
 10
0
 20
0
 30
0
  9
$PLIMCHECK
 70
    0
  9
$PEXTMIN
 10
0
 20
0
 30
0
  9
$PEXTMAX
 10
0
 20
0
 30
0
  9
$GRIDMODE
 70
    0
  9
$SNAPSTYLE
 70
    0
  9
$PLIMMIN
 10
0
 20
0
  9
$PLIMMAX
 10
210
 20
297
  9
$UNITMODE
 70
    0
  9
$VISRETAIN
 70
    1
  9
$PLINEGEN
 70
    0
  9
$PSLTSCALE
 70
    1
  9
$TREEDEPTH
 70
 3020
  9
$CMLSTYLE
  2
Standard
  9
$CMLJUST
 70
    0
  9
$CMLSCALE
 40
20
  9
$PROXYGRAPHICS
 70
    1
  9
$MEASUREMENT
 70
    1
  9
$CELWEIGHT
370
   -1
  9
$ENDCAPS
280
    0
  9
$JOINSTYLE
280
    0
  9
$LWDISPLAY
290
    0
  9
$INSUNITS
 70
    4
  9
$HYPERLINKBASE
  1

  9
$STYLESHEET
  1

  9
$XEDIT
290
    1
  9
$CEPSNTYPE
380
    0
  9
$PSTYLEMODE
290
    1
  9
$EXTNAMES
290
    1
  9
$PSVPSCALE
 40
1
  9
$OLESTARTUP
290
    0
  9
$SORTENTS
280
  127
  9
$INDEXCTL
280
    0
  9
$HIDETEXT
280
    1
  9
$XCLIPFRAME
290
    0
  9
$HALOGAP
280
    0
  9
$OBSCOLOR
 70
  257
  9
$OBSLTYPE
280
    0
  9
$INTERSECTIONDISPLAY
280
    0
  9
$INTERSECTIONCOLOR
 70
  257
  9
$DIMASSOC
280
    1
  9
$PROJECTNAME
  1

  9
$CAMERADISPLAY
290
    0
  9
$LENSLENGTH
 40
50
  9
$CAMERAHEIGHT
 40
0
  9
$STEPSPERSEC
 40
2
  9
$STEPSIZE
 40
50
  9
$3DDWFPREC
 40
2
  9
$PSOLWIDTH
 40
5
  9
$PSOLHEIGHT
 40
80
  9
$LOFTANG1
 40
1.570796326794897
  9
$LOFTANG2
 40
1.570796326794897
  9
$LOFTMAG1
 40
0
  9
$LOFTMAG2
 40
0
  9
$LOFTPARAM
 70
    7
  9
$LOFTNORMALS
280
    1
  9
$LATITUDE
 40
1
  9
$LONGITUDE
 40
1
  9
$NORTHDIRECTION
 40
0
  9
$TIMEZONE
 70
-8000
  9
$LIGHTGLYPHDISPLAY
280
    1
  9
$TILEMODELIGHTSYNCH
280
    1
  9
$SOLIDHIST
280
    1
  9
$SHOWHIST
280
    1
  9
$DWFFRAME
280
    2
  9
$DGNFRAME
280
    0
  9
$REALWORLDSCALE
290
    1
  9
$INTERFERECOLOR
 62
    1
  9
$CSHADOW
280
    0
  9
$SHADOWPLANELOCATION
 40
0
  0
ENDSEC
  0
SECTION
  2
CLASSES
  0
ENDSEC
  0
SECTION
  2
TABLES
  0
TABLE
  2
VPORT
  5
8
330
0
100
AcDbSymbolTable
 70
    1
  0
VPORT
  5
31
330
2
100
AcDbSymbolTableRecord
100
AcDbViewportTableRecord
  2
*ACTIVE
 70
    0
 10
0
 20
0
 11
1
 21
1
 12
504.1138416329975
 22
259.6646391928507
 13
0
 23
0
 14
10
 24
10
 15
10
 25
10
 16
0
 26
0
 36
1
 17
0
 27
0
 37
0
 40
155.4343419168432
 41
2.46189917936694
 42
50
 43
0
 44
0
 50
0
 51
0
 71
    0
 72
  100
 73
    1
 74
    3
 75
    0
 76
    0
 77
    0
 78
    0
281
    0
 65
    1
110
0
120
0
130
0
111
1
121
0
131
0
112
0
122
1
132
0
 79
    0
146
0
348
10020
 60
    7
 61
    5
292
1
282
    1
141
0
142
0
 63
  250
421
3358443
  0
ENDTAB
  0
TABLE
  2
LTYPE
  5
5
330
0
100
AcDbSymbolTable
 70
    4
  0
LTYPE
  5
14
330
5
100
AcDbSymbolTableRecord
100
AcDbLinetypeTableRecord
  2
ByBlock
 70
    0
  3

 72
   65
 73
    0
 40
0
  0
LTYPE
  5
15
330
5
100
AcDbSymbolTableRecord
100
AcDbLinetypeTableRecord
  2
ByLayer
 70
    0
  3

 72
   65
 73
    0
 40
0
  0
LTYPE
  5
16
330
5
100
AcDbSymbolTableRecord
100
AcDbLinetypeTableRecord
  2
Continuous
 70
    0
  3
Solid line
 72
   65
 73
    0
 40
0
  0
LTYPE
  5
32
330
5
100
AcDbSymbolTableRecord
100
AcDbLinetypeTableRecord
  2
DOT
 70
    0
  3
Dot . . . . . . . . . . . . . . . . . . . . . .
 72
   65
 73
    2
 40
6.35
 49
0
 74
    0
 49
-6.35
 74
    0
  0
LTYPE
  5
33
330
5
100
AcDbSymbolTableRecord
100
AcDbLinetypeTableRecord
  2
DOTTINY
 70
    0
  3
Dot (.15x) .....................................
 72
   65
 73
    2
 40
0.9525
 49
0
 74
    0
 49
-0.9525
 74
    0
  0
LTYPE
  5
34
330
5
100
AcDbSymbolTableRecord
100
AcDbLinetypeTableRecord
  2
DOT2
 70
    0
  3
Dot (.5x) .....................................
 72
   65
 73
    2
 40
3.175
 49
0
 74
    0
 49
-3.175
 74
    0
  0
LTYPE
  5
35
330
5
100
AcDbSymbolTableRecord
100
AcDbLinetypeTableRecord
  2
DOTX2
 70
    0
  3
Dot (2x) .  .  .  .  .  .  .  .  .  .  .  .  .
 72
   65
 73
    2
 40
12.7
 49
0
 74
    0
 49
-12.7
 74
    0
  0
LTYPE
  5
36
330
5
100
AcDbSymbolTableRecord
100
AcDbLinetypeTableRecord
  2
DASHED
 70
    0
  3
Dashed _ _ _ _ _ _ _ _ _ _ _ _ _ _ _ _ _
 72
   65
 73
    2
 40
19.05
 49
12.7
 74
    0
 49
-6.35
 74
    0
  0
LTYPE
  5
37
330
5
100
AcDbSymbolTableRecord
100
AcDbLinetypeTableRecord
  2
DASHEDTINY
 70
    0
  3
Dashed (.15x) _ _ _ _ _ _ _ _ _ _ _ _ _ _ _ _ _
 72
   65
 73
    2
 40
2.8575
 49
1.905
 74
    0
 49
-0.9525
 74
    0
  0
LTYPE
  5
38
330
5
100
AcDbSymbolTableRecord
100
AcDbLinetypeTableRecord
  2
DASHED2
 70
    0
  3
Dashed (.5x) _ _ _ _ _ _ _ _ _ _ _ _ _ _ _ _ _
 72
   65
 73
    2
 40
9.524999999999999
 49
6.35
 74
    0
 49
-3.175
 74
    0
  0
LTYPE
  5
39
330
5
100
AcDbSymbolTableRecord
100
AcDbLinetypeTableRecord
  2
DASHEDX2
 70
    0
  3
Dashed (2x) ____  ____  ____  ____  ____  ___
 72
   65
 73
    2
 40
38.09999999999999
 49
25.4
 74
    0
 49
-12.7
 74
    0
  0
LTYPE
  5
3A
330
5
100
AcDbSymbolTableRecord
100
AcDbLinetypeTableRecord
  2
DASHDOT
 70
    0
  3
Dash dot __ . __ . __ . __ . __ . __ . __ . __
 72
   65
 73
    4
 40
25.4
 49
12.7
 74
    0
 49
-6.35
 74
    0
 49
0
 74
    0
 49
-6.35
 74
    0
  0
LTYPE
  5
3B
330
5
100
AcDbSymbolTableRecord
100
AcDbLinetypeTableRecord
  2
DASHDOTTINY
 70
    0
  3
Dash dot (.15x) _._._._._._._._._._._._._._._.
 72
   65
 73
    4
 40
3.81
 49
1.905
 74
    0
 49
-0.9525
 74
    0
 49
0
 74
    0
 49
-0.9525
 74
    0
  0
LTYPE
  5
3C
330
5
100
AcDbSymbolTableRecord
100
AcDbLinetypeTableRecord
  2
DASHDOT2
 70
    0
  3
Dash dot (.5x) _._._._._._._._._._._._._._._.
 72
   65
 73
    4
 40
12.7
 49
6.35
 74
    0
 49
-3.175
 74
    0
 49
0
 74
    0
 49
-3.175
 74
    0
  0
LTYPE
  5
3D
330
5
100
AcDbSymbolTableRecord
100
AcDbLinetypeTableRecord
  2
DASHDOTX2
 70
    0
  3
Dash dot (2x) ____  .  ____  .  ____  .  ___
 72
   65
 73
    4
 40
50.8
 49
25.4
 74
    0
 49
-12.7
 74
    0
 49
0
 74
    0
 49
-12.7
 74
    0
  0
LTYPE
  5
3E
330
5
100
AcDbSymbolTableRecord
100
AcDbLinetypeTableRecord
  2
DIVIDE
 70
    0
  3
Divide ____ . . ____ . . ____ . . ____ . . ____
 72
   65
 73
    6
 40
31.75
 49
12.7
 74
    0
 49
-6.35
 74
    0
 49
0
 74
    0
 49
-6.35
 74
    0
 49
0
 74
    0
 49
-6.35
 74
    0
  0
LTYPE
  5
3F
330
5
100
AcDbSymbolTableRecord
100
AcDbLinetypeTableRecord
  2
DIVIDETINY
 70
    0
  3
Divide (.15x) __..__..__..__..__..__..__..__.._
 72
   65
 73
    6
 40
4.7625
 49
1.905
 74
    0
 49
-0.9525
 74
    0
 49
0
 74
    0
 49
-0.9525
 74
    0
 49
0
 74
    0
 49
-0.9525
 74
    0
  0
LTYPE
  5
40
330
5
100
AcDbSymbolTableRecord
100
AcDbLinetypeTableRecord
  2
DIVIDE2
 70
    0
  3
Divide (.5x) __..__..__..__..__..__..__..__.._
 72
   65
 73
    6
 40
15.875
 49
6.35
 74
    0
 49
-3.175
 74
    0
 49
0
 74
    0
 49
-3.175
 74
    0
 49
0
 74
    0
 49
-3.175
 74
    0
  0
LTYPE
  5
41
330
5
100
AcDbSymbolTableRecord
100
AcDbLinetypeTableRecord
  2
DIVIDEX2
 70
    0
  3
Divide (2x) ________  .  .  ________  .  .  _
 72
   65
 73
    6
 40
63.5
 49
25.4
 74
    0
 49
-12.7
 74
    0
 49
0
 74
    0
 49
-12.7
 74
    0
 49
0
 74
    0
 49
-12.7
 74
    0
  0
LTYPE
  5
42
330
5
100
AcDbSymbolTableRecord
100
AcDbLinetypeTableRecord
  2
BORDER
 70
    0
  3
Border __ __ . __ __ . __ __ . __ __ . __ __ .
 72
   65
 73
    6
 40
44.45
 49
12.7
 74
    0
 49
-6.35
 74
    0
 49
12.7
 74
    0
 49
-6.35
 74
    0
 49
0
 74
    0
 49
-6.35
 74
    0
  0
LTYPE
  5
43
330
5
100
AcDbSymbolTableRecord
100
AcDbLinetypeTableRecord
  2
BORDERTINY
 70
    0
  3
Border (.15x) __.__.__.__.__.__.__.__.__.__.__.
 72
   65
 73
    6
 40
6.6675
 49
1.905
 74
    0
 49
-0.9525
 74
    0
 49
1.905
 74
    0
 49
-0.9525
 74
    0
 49
0
 74
    0
 49
-0.9525
 74
    0
  0
LTYPE
  5
44
330
5
100
AcDbSymbolTableRecord
100
AcDbLinetypeTableRecord
  2
BORDER2
 70
    0
  3
Border (.5x) __.__.__.__.__.__.__.__.__.__.__.
 72
   65
 73
    6
 40
22.225
 49
6.35
 74
    0
 49
-3.175
 74
    0
 49
6.35
 74
    0
 49
-3.175
 74
    0
 49
0
 74
    0
 49
-3.175
 74
    0
  0
LTYPE
  5
45
330
5
100
AcDbSymbolTableRecord
100
AcDbLinetypeTableRecord
  2
BORDERX2
 70
    0
  3
Border (2x) ____  ____  .  ____  ____  .  ___
 72
   65
 73
    6
 40
88.89999999999999
 49
25.4
 74
    0
 49
-12.7
 74
    0
 49
25.4
 74
    0
 49
-12.7
 74
    0
 49
0
 74
    0
 49
-12.7
 74
    0
  0
LTYPE
  5
46
330
5
100
AcDbSymbolTableRecord
100
AcDbLinetypeTableRecord
  2
CENTER
 70
    0
  3
Center ____ _ ____ _ ____ _ ____ _ ____ _ ____
 72
   65
 73
    4
 40
50.8
 49
31.75
 74
    0
 49
-6.35
 74
    0
 49
6.35
 74
    0
 49
-6.35
 74
    0
  0
LTYPE
  5
47
330
5
100
AcDbSymbolTableRecord
100
AcDbLinetypeTableRecord
  2
CENTERTINY
 70
    0
  3
Center (.15x) ___ _ ___ _ ___ _ ___ _ ___ _ ___
 72
   65
 73
    4
 40
7.619999999999999
 49
4.7625
 74
    0
 49
-0.9525
 74
    0
 49
0.9525
 74
    0
 49
-0.9525
 74
    0
  0
LTYPE
  5
48
330
5
100
AcDbSymbolTableRecord
100
AcDbLinetypeTableRecord
  2
CENTER2
 70
    0
  3
Center (.5x) ___ _ ___ _ ___ _ ___ _ ___ _ ___
 72
   65
 73
    4
 40
28.575
 49
19.05
 74
    0
 49
-3.175
 74
    0
 49
3.175
 74
    0
 49
-3.175
 74
    0
  0
LTYPE
  5
49
330
5
100
AcDbSymbolTableRecord
100
AcDbLinetypeTableRecord
  2
CENTERX2
 70
    0
  3
Center (2x) ________  __  ________  __  _____
 72
   65
 73
    4
 40
101.6
 49
63.5
 74
    0
 49
-12.7
 74
    0
 49
12.7
 74
    0
 49
-12.7
 74
    0
  0
ENDTAB
  0
TABLE
  2
LAYER
  5
2
330
0
100
AcDbSymbolTable
 70
    1
  0
LAYER
  5
10
330
2
100
AcDbSymbolTableRecord
100
AcDbLayerTableRecord
  2
0
 70
    0
 62
    7
  6
CONTINUOUS
370
   -3
390
F
  0
LAYER
  5
4A
330
2
100
AcDbSymbolTableRecord
100
AcDbLayerTableRecord
  2
pocket
 70
    0
 62
    4
  6
CONTINUOUS
370
    0
390
F
  0
LAYER
  5
4B
330
2
100
AcDbSymbolTableRecord
100
AcDbLayerTableRecord
  2
profiling
 70
    0
 62
    3
  6
CONTINUOUS
370
    0
390
F
  0
LAYER
  5
4C
330
2
100
AcDbSymbolTableRecord
100
AcDbLayerTableRecord
  2
vcut
 70
    0
 62
    6
  6
CONTINUOUS
370
    0
390
F
  0
ENDTAB
  0
TABLE
  2
STYLE
  5
3
330
0
100
AcDbSymbolTable
 70
    3
  0
STYLE
  5
4D
330
2
100
AcDbSymbolTableRecord
100
AcDbTextStyleTableRecord
  2
Standard
 70
    0
 40
0
 41
1
 50
0
 71
    0
 42
1
  3
txt
  4

  0
ENDTAB
  0
TABLE
  2
VIEW
  5
6
330
0
100
AcDbSymbolTable
 70
    0
  0
ENDTAB
  0
TABLE
  2
UCS
  5
7
330
0
100
AcDbSymbolTable
 70
    0
  0
ENDTAB
  0
TABLE
  2
APPID
  5
9
330
0
100
AcDbSymbolTable
 70
    1
  0
APPID
  5
12
330
9
100
AcDbSymbolTableRecord
100
AcDbRegAppTableRecord
  2
ACAD
 70
    0
  0
APPID
  5
4E
330
9
100
AcDbSymbolTableRecord
100
AcDbRegAppTableRecord
  2
LibreCad
 70
    0
  0
ENDTAB
  0
TABLE
  2
DIMSTYLE
  5
A
330
0
100
AcDbSymbolTable
 70
    1
100
AcDbDimStyleTable
 71
    1
  0
DIMSTYLE
105
4F
330
A
100
AcDbSymbolTableRecord
100
AcDbDimStyleTableRecord
  2
Standard
 70
    0
 40
1
 41
2.5
 42
0.625
 43
0.38
 44
1.25
 45
0
 46
0
 47
0
 48
0
 49
1
140
2.5
141
0.09
142
2.5
143
25.4
144
1
145
0
146
1
147
0.625
148
0
 71
    0
 72
    0
 73
    0
 74
    1
 75
    0
 76
    0
 77
    0
 78
    1
 79
    0
170
    0
171
    2
172
    0
173
    0
174
    0
175
    0
176
    0
177
    0
178
    0
179
    0
271
    2
272
    4
273
    2
274
    2
275
    0
276
    0
277
    2
278
    0
279
    0
280
    0
281
    0
282
    0
283
    1
284
    0
285
    0
286
    0
288
    0
289
    3
340
standard
341

371
   -2
372
   -2
  0
ENDTAB
  0
TABLE
  2
BLOCK_RECORD
  5
1
330
0
100
AcDbSymbolTable
 70
    2
  0
BLOCK_RECORD
  5
1F
330
1
100
AcDbSymbolTableRecord
100
AcDbBlockTableRecord
  2
*Model_Space
 70
    0
280
    1
281
    0
  0
BLOCK_RECORD
  5
1E
330
1
100
AcDbSymbolTableRecord
100
AcDbBlockTableRecord
  2
*Paper_Space
 70
    0
280
    1
281
    0
  0
ENDTAB
  0
ENDSEC
  0
SECTION
  2
BLOCKS
  0
BLOCK
  5
20
330
1F
100
AcDbEntity
  8
0
100
AcDbBlockBegin
  2
*Model_Space
 70
    0
 10
0
 20
0
 30
0
  3
*Model_Space
  1

  0
ENDBLK
  5
21
330
1F
100
AcDbEntity
  8
0
100
AcDbBlockEnd
  0
BLOCK
  5
1C
330
1B
100
AcDbEntity
  8
0
100
AcDbBlockBegin
  2
*Paper_Space
 70
    0
 10
0
 20
0
 30
0
  3
*Paper_Space
  1

  0
ENDBLK
  5
1D
330
1F
100
AcDbEntity
  8
0
100
AcDbBlockEnd
  0
ENDSEC
  0
SECTION
  2
ENTITIES
  0
LWPOLYLINE
  5
50
100
AcDbEntity
  8
profiling
  6
ByLayer
 62
  256
370
   -1
100
AcDbPolyline
 90
  166
 70
    1
 43
0
 10
895.18425
 20
383.586
 10
895.18425
 20
383.586
 10
878.2117500000001
 20
383.586
 10
878.2117500000001
 20
383.586
 10
878.2117500000001
 20
383.586
 10
816.8752500000001
 20
383.586
 10
755.5387500000001
 20
383.586
 10
738.56625
 20
383.586
 10
738.56625
 20
383.586
 10
738.56625
 20
390.897
 10
738.56625
 20
390.897
 10
738.56625
 20
390.897
 10
738.59775
 20
391.53675
 10
738.59775
 20
391.53675
 10
738.59775
 20
391.53675
 10
738.59775
 20
391.53675
 10
738.6915
 20
392.1705
 10
738.6915
 20
392.1705
 10
738.6915
 20
392.1705
 10
738.8475
 20
392.79225
 10
738.8475
 20
392.79225
 10
739.0635
 20
393.39525
 10
739.0635
 20
393.39525
 10
739.0635
 20
393.39525
 10
739.0635
 20
393.39525
 10
739.0635
 20
393.39525
 10
739.0635
 20
393.39525
 10
739.0635
 20
393.39525
 10
739.0635
 20
393.39525
 10
739.33725
 20
393.97425
 10
739.33725
 20
393.97425
 10
739.6665
 20
394.524
 10
739.6665
 20
394.524
 10
739.6665
 20
394.524
 10
739.6665
 20
394.524
 10
739.6665
 20
394.524
 10
740.0482500000001
 20
395.0385
 10
740.0482500000001
 20
395.0385
 10
740.47875
 20
395.51325
 10
740.47875
 20
395.51325
 10
740.47875
 20
395.51325
 10
740.47875
 20
395.51325
 10
740.47875
 20
395.51325
 10
740.47875
 20
395.51325
 10
740.47875
 20
395.51325
 10
740.47875
 20
395.51325
 10
740.47875
 20
395.51325
 10
740.47875
 20
395.51325
 10
740.9535
 20
395.94375
 10
740.9535
 20
395.94375
 10
741.468
 20
396.3255
 10
741.468
 20
396.3255
 10
741.468
 20
396.3255
 10
742.01775
 20
396.65475
 10
742.01775
 20
396.65475
 10
742.59675
 20
396.9285
 10
742.59675
 20
396.9285
 10
742.59675
 20
396.9285
 10
743.19975
 20
397.1445
 10
743.19975
 20
397.1445
 10
743.19975
 20
397.1445
 10
743.19975
 20
397.1445
 10
743.8215
 20
397.3005
 10
743.8215
 20
397.3005
 10
743.8215
 20
397.3005
 10
743.8215
 20
397.3005
 10
743.8215
 20
397.3005
 10
743.8215
 20
397.3005
 10
744.45525
 20
397.39425
 10
744.45525
 20
397.39425
 10
745.095
 20
397.42575
 10
745.095
 20
397.42575
 10
745.095
 20
397.42575
 10
745.095
 20
397.42575
 10
745.095
 20
397.42575
 10
745.095
 20
397.42575
 10
745.095
 20
397.42575
 10
755.5395
 20
397.42575
 10
755.5395
 20
498.1815
 10
755.5395
 20
498.1815
 10
755.5395
 20
498.1815
 10
773.817
 20
494.8095
 10
773.817
 20
494.8095
 10
773.817
 20
494.8095
 10
773.817
 20
458.01375
 10
773.8484999999999
 20
457.374
 10
773.9422499999999
 20
456.74025
 10
774.09825
 20
456.1185
 10
774.31425
 20
455.5155
 10
774.588
 20
454.9365
 10
774.91725
 20
454.38675
 10
775.299
 20
453.87225
 10
775.7295
 20
453.3975
 10
776.20425
 20
452.967
 10
776.71875
 20
452.58525
 10
777.2685
 20
452.256
 10
777.8475
 20
451.98225
 10
777.8475
 20
451.98225
 10
778.4505
 20
451.76625
 10
779.0722500000001
 20
451.61025
 10
779.706
 20
451.5165
 10
780.34575
 20
451.485
 10
816.87675
 20
451.485
 10
853.40775
 20
451.485
 10
854.0475
 20
451.5165
 10
854.68125
 20
451.61025
 10
855.303
 20
451.76625
 10
855.9059999999999
 20
451.98225
 10
856.485
 20
452.256
 10
857.03475
 20
452.58525
 10
857.54925
 20
452.967
 10
858.024
 20
453.3975
 10
858.4545000000001
 20
453.87225
 10
858.8362499999999
 20
454.38675
 10
859.1655
 20
454.9365
 10
859.43925
 20
455.5155
 10
859.54425
 20
455.8095
 10
859.6545
 20
456.1185
 10
859.8105
 20
456.74025
 10
859.836
 20
456.91275
 10
859.90425
 20
457.374
 10
859.93575
 20
458.01375
 10
859.93575
 20
494.8095
 10
859.93575
 20
494.8095
 10
859.93575
 20
494.8095
 10
878.21325
 20
498.1815
 10
878.21325
 20
498.1815
 10
878.21325
 20
498.1815
 10
878.21325
 20
397.42575
 10
888.65775
 20
397.42575
 10
888.65775
 20
397.42575
 10
888.65775
 20
397.42575
 10
889.2975
 20
397.39425
 10
889.2975
 20
397.39425
 10
889.93125
 20
397.3005
 10
889.93125
 20
397.3005
 10
890.553
 20
397.1445
 10
890.553
 20
397.1445
 10
891.1559999999999
 20
396.9285
 10
891.1559999999999
 20
396.9285
 10
891.735
 20
396.65475
 10
891.735
 20
396.65475
 10
892.28475
 20
396.3255
 10
892.28475
 20
396.3255
 10
892.79925
 20
395.94375
 10
892.79925
 20
395.94375
 10
893.274
 20
395.51325
 10
893.274
 20
395.51325
 10
893.7045000000001
 20
395.0385
 10
893.7045000000001
 20
395.0385
 10
894.0862499999999
 20
394.524
 10
894.0862499999999
 20
394.524
 10
894.4155
 20
393.97425
 10
894.4155
 20
393.97425
 10
894.68925
 20
393.39525
 10
894.68925
 20
393.39525
 10
894.90525
 20
392.79225
 10
894.90525
 20
392.79225
 10
895.06125
 20
392.1705
 10
895.06125
 20
392.1705
 10
895.155
 20
391.53675
 10
895.155
 20
391.53675
 10
895.1865
 20
390.897
 10
895.1865
 20
390.897
 10
895.1865
 20
390.897
 10
895.1865
 20
383.586
  0
LWPOLYLINE
  5
51
100
AcDbEntity
  8
profiling
  6
ByLayer
 62
  256
370
   -1
100
AcDbPolyline
 90
   35
 70
    1
 43
0
 10
765.8385
 20
462.54375
 10
765.87
 20
462.56925
 10
766.155
 20
462.80325
 10
766.4145
 20
463.11975
 10
766.60725
 20
463.48125
 10
766.7265
 20
463.87275
 10
766.7670000000001
 20
464.28
 10
766.758
 20
464.36925
 10
766.7265
 20
464.68725
 10
766.60725
 20
465.07875
 10
766.4145
 20
465.44025
 10
766.155
 20
465.75675
 10
765.8385
 20
466.01625
 10
765.47775
 20
466.209
 10
765.0862499999999
 20
466.3275
 10
764.679
 20
466.368
 10
764.27175
 20
466.3275
 10
763.88025
 20
466.209
 10
763.51875
 20
466.01625
 10
763.20225
 20
465.75675
 10
762.94275
 20
465.44025
 10
762.75
 20
465.07875
 10
762.63075
 20
464.68725
 10
762.59025
 20
464.28
 10
762.63075
 20
463.87275
 10
762.75
 20
463.48125
 10
762.94275
 20
463.11975
 10
763.20225
 20
462.80325
 10
763.51875
 20
462.54375
 10
763.88025
 20
462.351
 10
764.27175
 20
462.2325
 10
764.679
 20
462.192
 10
765.0862499999999
 20
462.2325
 10
765.47775
 20
462.351
 10
765.8385
 20
462.54375
  0
LWPOLYLINE
  5
52
100
AcDbEntity
  8
profiling
  6
ByLayer
 62
  256
370
   -1
100
AcDbPolyline
 90
   73
 70
    1
 43
0
 10
821.817
 20
408.58875
 10
822.45075
 20
408.6825
 10
823.0725
 20
408.8385
 10
823.6755000000001
 20
409.0545
 10
824.2545
 20
409.32825
 10
824.80425
 20
409.6575
 10
825.31875
 20
410.03925
 10
825.41775
 20
410.12925
 10
825.79275
 20
410.46975
 10
826.03575
 20
410.73825
 10
826.2225
 20
410.9445
 10
826.60425
 20
411.459
 10
826.9335
 20
412.00875
 10
827.20725
 20
412.58775
 10
827.4232500000001
 20
413.19075
 10
827.57925
 20
413.8125
 10
827.673
 20
414.44625
 10
827.7045000000001
 20
415.086
 10
827.7045000000001
 20
416.541
 10
827.673
 20
417.18075
 10
827.57925
 20
417.8145
 10
827.4232500000001
 20
418.43625
 10
827.20725
 20
419.03925
 10
826.9335
 20
419.61825
 10
826.60425
 20
420.168
 10
826.2225
 20
420.6825
 10
825.792
 20
421.15725
 10
825.3172499999999
 20
421.58775
 10
824.8027499999999
 20
421.9695
 10
824.253
 20
422.29875
 10
823.674
 20
422.5725
 10
823.071
 20
422.7885
 10
822.44925
 20
422.9445
 10
821.8155
 20
423.03825
 10
821.17575
 20
423.06975
 10
816.8745
 20
423.06975
 10
812.57325
 20
423.06975
 10
811.9335
 20
423.03825
 10
811.29975
 20
422.9445
 10
810.678
 20
422.7885
 10
810.075
 20
422.5725
 10
809.496
 20
422.29875
 10
808.94625
 20
421.9695
 10
808.43175
 20
421.58775
 10
807.957
 20
421.15725
 10
807.5265000000001
 20
420.6825
 10
807.14475
 20
420.168
 10
806.8155
 20
419.61825
 10
806.54175
 20
419.03925
 10
806.32575
 20
418.43625
 10
806.16975
 20
417.8145
 10
806.076
 20
417.18075
 10
806.0445
 20
416.541
 10
806.0445
 20
415.086
 10
806.076
 20
414.44625
 10
806.16975
 20
413.8125
 10
806.32575
 20
413.19075
 10
806.54175
 20
412.58775
 10
806.8155
 20
412.00875
 10
807.14475
 20
411.459
 10
807.5265000000001
 20
410.9445
 10
807.957
 20
410.46975
 10
808.43175
 20
410.03925
 10
808.94625
 20
409.6575
 10
809.496
 20
409.32825
 10
810.075
 20
409.0545
 10
810.678
 20
408.8385
 10
811.29975
 20
408.6825
 10
811.9335
 20
408.58875
 10
812.57325
 20
408.55725
 10
816.8745
 20
408.55725
 10
821.17575
 20
408.55725
 10
821.8155
 20
408.58875
  0
LWPOLYLINE
  5
53
100
AcDbEntity
  8
profiling
  6
ByLayer
 62
  256
370
   -1
100
AcDbPolyline
 90
   36
 70
    1
 43
0
 10
886.13625
 20
388.953
 10
886.39575
 20
388.6365
 10
886.71225
 20
388.377
 10
887.073
 20
388.18425
 10
887.46525
 20
388.06575
 10
887.8724999999999
 20
388.02525
 10
888.27975
 20
388.06575
 10
888.67125
 20
388.18425
 10
889.03275
 20
388.377
 10
889.224
 20
388.53375
 10
889.34925
 20
388.6365
 10
889.38825
 20
388.68375
 10
889.60875
 20
388.953
 10
889.7655
 20
389.24625
 10
889.8015
 20
389.31375
 10
889.92
 20
389.70525
 10
889.9605
 20
390.1125
 10
889.92
 20
390.51975
 10
889.8015
 20
390.91125
 10
889.60875
 20
391.27275
 10
889.34925
 20
391.58925
 10
889.03275
 20
391.84875
 10
888.67125
 20
392.0415
 10
888.27975
 20
392.16
 10
887.8724999999999
 20
392.2005
 10
887.46525
 20
392.16
 10
887.073
 20
392.0415
 10
886.71225
 20
391.84875
 10
886.39575
 20
391.58925
 10
886.13625
 20
391.27275
 10
885.9435
 20
390.91125
 10
885.82425
 20
390.51975
 10
885.7837500000001
 20
390.1125
 10
885.82425
 20
389.70525
 10
885.9435
 20
389.31375
 10
886.13625
 20
388.95225
  0
LWPOLYLINE
  5
54
100
AcDbEntity
  8
profiling
  6
ByLayer
 62
  256
370
   -1
100
AcDbPolyline
 90
   38
 70
    1
 43
0
 10
747.96675
 20
390.11325
 10
747.92625
 20
390.5205
 10
747.807
 20
390.912
 10
747.61425
 20
391.2735
 10
747.417
 20
391.5135
 10
747.354
 20
391.59
 10
747.0375
 20
391.8495
 10
746.67675
 20
392.04225
 10
746.28525
 20
392.16075
 10
745.878
 20
392.20125
 10
745.47075
 20
392.16075
 10
745.07925
 20
392.04225
 10
744.71775
 20
391.8495
 10
744.40125
 20
391.59
 10
744.14175
 20
391.2735
 10
744.04425
 20
391.09125
 10
743.949
 20
390.91275
 10
743.82975
 20
390.52125
 10
743.78925
 20
390.114
 10
743.82975
 20
389.70675
 10
743.83425
 20
389.6925
 10
743.949
 20
389.31525
 10
744.14175
 20
388.95375
 10
744.40125
 20
388.63725
 10
744.71775
 20
388.37775
 10
745.0785
 20
388.185
 10
745.47
 20
388.0665
 10
745.87725
 20
388.026
 10
746.08125
 20
388.04625
 10
746.28525
 20
388.0665
 10
746.364
 20
388.0905
 10
746.67675
 20
388.18575
 10
747.0375
 20
388.3785
 10
747.354
 20
388.638
 10
747.6135
 20
388.9545
 10
747.80625
 20
389.316
 10
747.9255000000001
 20
389.7075
 10
747.966
 20
390.11475
  0
LWPOLYLINE
  5
55
100
AcDbEntity
  8
profiling
  6
ByLayer
 62
  256
370
   -1
100
AcDbPolyline
 90
   35
 70
    1
 43
0
 10
867.024
 20
464.68725
 10
866.9835
 20
464.28
 10
867.024
 20
463.87275
 10
867.14325
 20
463.48125
 10
867.261
 20
463.2615
 10
867.3367500000001
 20
463.1205
 10
867.5962500000001
 20
462.804
 10
867.91275
 20
462.5445
 10
868.2735
 20
462.35175
 10
868.665
 20
462.23325
 10
869.0722500000001
 20
462.19275
 10
869.4795
 20
462.23325
 10
869.871
 20
462.35175
 10
870.2325
 20
462.5445
 10
870.549
 20
462.804
 10
870.8085
 20
463.1205
 10
871.00125
 20
463.482
 10
871.11975
 20
463.8735
 10
871.16025
 20
464.28075
 10
871.11975
 20
464.688
 10
871.07775
 20
464.82525
 10
871.0005
 20
465.0795
 10
870.8077500000001
 20
465.441
 10
870.5482500000001
 20
465.7575
 10
870.23175
 20
466.017
 10
869.8702500000001
 20
466.20975
 10
869.47875
 20
466.32825
 10
869.0715
 20
466.36875
 10
868.66425
 20
466.32825
 10
868.27275
 20
466.20975
 10
867.912
 20
466.017
 10
867.5955
 20
465.7575
 10
867.336
 20
465.441
 10
867.14325
 20
465.0795
 10
867.024
 20
464.688
  0
LWPOLYLINE
  5
56
100
AcDbEntity
  8
profiling
  6
ByLayer
 62
  256
370
   -1
100
AcDbPolyline
 90
   39
 70
    1
 43
0
 10
870.23325
 20
483.69225
 10
870.54975
 20
483.95175
 10
870.80925
 20
484.26825
 10
870.885
 20
484.40925
 10
871.00275
 20
484.629
 10
871.12125
 20
485.0205
 10
871.16175
 20
485.42775
 10
871.12125
 20
485.835
 10
871.00275
 20
486.2265
 10
870.8099999999999
 20
486.588
 10
870.5505000000001
 20
486.9045
 10
870.234
 20
487.164
 10
870.054
 20
487.26
 10
869.87325
 20
487.35675
 10
869.48175
 20
487.47525
 10
869.0744999999999
 20
487.51575
 10
868.66725
 20
487.47525
 10
868.27575
 20
487.35675
 10
868.07775
 20
487.251
 10
867.915
 20
487.164
 10
867.915
 20
487.164
 10
867.5984999999999
 20
486.9045
 10
867.3390000000001
 20
486.588
 10
867.14625
 20
486.2265
 10
867.027
 20
485.835
 10
866.9865
 20
485.42775
 10
867.027
 20
485.0205
 10
867.0675
 20
484.88775
 10
867.14625
 20
484.629
 10
867.3390000000001
 20
484.2675
 10
867.5984999999999
 20
483.951
 10
867.915
 20
483.6915
 10
867.915
 20
483.6915
 10
868.27575
 20
483.49875
 10
868.66725
 20
483.38025
 10
869.0744999999999
 20
483.33975
 10
869.48175
 20
483.38025
 10
869.87325
 20
483.49875
 10
870.23475
 20
483.6915
  0
LWPOLYLINE
  5
57
100
AcDbEntity
  8
profiling
  6
ByLayer
 62
  256
370
   -1
100
AcDbPolyline
 90
   35
 70
    1
 43
0
 10
764.27025
 20
487.4775
 10
763.87875
 20
487.359
 10
763.51725
 20
487.16625
 10
763.20075
 20
486.90675
 10
762.94125
 20
486.59025
 10
762.7485
 20
486.22875
 10
762.62925
 20
485.83725
 10
762.58875
 20
485.43
 10
762.62925
 20
485.02275
 10
762.7485
 20
484.63125
 10
762.94125
 20
484.26975
 10
763.20075
 20
483.95325
 10
763.51725
 20
483.69375
 10
763.87875
 20
483.501
 10
764.27025
 20
483.3825
 10
764.6775
 20
483.342
 10
765.08475
 20
483.3825
 10
765.4762500000001
 20
483.501
 10
765.837
 20
483.69375
 10
766.1535
 20
483.95325
 10
766.413
 20
484.26975
 10
766.413
 20
484.26975
 10
766.6057499999999
 20
484.63125
 10
766.725
 20
485.02275
 10
766.7655
 20
485.43
 10
766.725
 20
485.83725
 10
766.6057499999999
 20
486.22875
 10
766.413
 20
486.59025
 10
766.1535
 20
486.90675
 10
765.837
 20
487.16625
 10
765.837
 20
487.16625
 10
765.4762500000001
 20
487.359
 10
765.08475
 20
487.47825
 10
764.6775
 20
487.518
 10
764.27025
 20
487.47825
  0
ENDSEC
  0
SECTION
  2
OBJECTS
  0
DICTIONARY
  5
C
330
0
100
AcDbDictionary
281
    1
  3
ACAD_GROUP
350
D
  0
DICTIONARY
  5
D
330
C
100
AcDbDictionary
281
    1
  0
ENDSEC
  0
EOF
