999
dxfrw 0.6.3
  0
SECTION
  2
HEADER
  9
$ACADVER
  1
AC1021
  9
$DWGCODEPAGE
  3
ANSI_1252
  9
$INSBASE
 10
0
 20
0
 30
0
  9
$EXTMIN
 10
752.4225
 20
512.205
 30
0
  9
$EXTMAX
 10
867.018
 20
668.826
 30
0
  9
$LIMMIN
 10
0
 20
0
  9
$LIMMAX
 10
420
 20
297
  9
$ORTHOMODE
 70
    0
  9
$REGENMODE
 70
    1
  9
$FILLMODE
 70
    1
  9
$QTEXTMODE
 70
    0
  9
$MIRRTEXT
 70
    0
  9
$LTSCALE
 40
1
  9
$ATTMODE
 70
    0
  9
$TEXTSIZE
 40
2.5
  9
$TRACEWID
 40
15.68
  9
$TEXTSTYLE
  7
STANDARD
  9
$CLAYER
  8
pocket-1mm
  9
$CELTYPE
  6
BYLAYER
  9
$CECOLOR
 62
  256
  9
$CELTSCALE
 40
1
  9
$DISPSILH
 70
    0
  9
$DIMSCALE
 40
2.5
  9
$DIMASZ
 40
2.5
  9
$DIMEXO
 40
0.625
  9
$DIMDLI
 40
3.75
  9
$DIMRND
 40
0
  9
$DIMDLE
 40
0
  9
$DIMEXE
 40
1.25
  9
$DIMTP
 40
0
  9
$DIMTM
 40
0
  9
$DIMTXT
 40
2.5
  9
$DIMCEN
 40
2.5
  9
$DIMTSZ
 40
0
  9
$DIMTOL
 70
    0
  9
$DIMLIM
 70
    0
  9
$DIMTIH
 70
    0
  9
$DIMTOH
 70
    0
  9
$DIMSE1
 70
    0
  9
$DIMSE2
 70
    0
  9
$DIMTAD
 70
    1
  9
$DIMZIN
 70
    8
  9
$DIMBLK
  1

  9
$DIMASO
 70
    1
  9
$DIMSHO
 70
    1
  9
$DIMPOST
  1

  9
$DIMAPOST
  1

  9
$DIMALT
 70
    0
  9
$DIMALTD
 70
    3
  9
$DIMALTF
 40
0.03937
  9
$DIMLFAC
 40
1
  9
$DIMTOFL
 70
    1
  9
$DIMTVP
 40
0
  9
$DIMTIX
 70
    0
  9
$DIMSOXD
 70
    0
  9
$DIMSAH
 70
    0
  9
$DIMBLK1
  1

  9
$DIMBLK2
  1

  9
$DIMSTYLE
  2
Standard
  9
$DIMCLRD
 70
    0
  9
$DIMCLRE
 70
    0
  9
$DIMCLRT
 70
    0
  9
$DIMTFAC
 40
1
  9
$DIMGAP
 40
0.625
  9
$DIMJUST
 70
    0
  9
$DIMSD1
 70
    0
  9
$DIMSD2
 70
    0
  9
$DIMTOLJ
 70
    0
  9
$DIMTZIN
 70
    8
  9
$DIMALTZ
 70
    0
  9
$DIMALTTZ
 70
    0
  9
$DIMUPT
 70
    0
  9
$DIMDEC
 70
    2
  9
$DIMTDEC
 70
    2
  9
$DIMALTU
 70
    2
  9
$DIMALTTD
 70
    3
  9
$DIMTXSTY
  7
STANDARD
  9
$DIMAUNIT
 70
    0
  9
$DIMADEC
 70
    0
  9
$DIMALTRND
 40
0
  9
$DIMAZIN
 70
    0
  9
$DIMDSEP
 70
   44
  9
$DIMATFIT
 70
    3
  9
$DIMFRAC
 70
    0
  9
$DIMLDRBLK
  1
STANDARD
  9
$DIMLUNIT
 70
    2
  9
$DIMLWD
 70
   -2
  9
$DIMLWE
 70
   -2
  9
$DIMTMOVE
 70
    0
  9
$DIMFXL
 40
1
  9
$DIMFXLON
 70
    0
  9
$DIMJOGANG
 40
0.7854
  9
$DIMTFILL
 70
    0
  9
$DIMTFILLCLR
 70
    0
  9
$DIMARCSYM
 70
    0
  9
$DIMLTYPE
  6

  9
$DIMLTEX1
  6

  9
$DIMLTEX2
  6

  9
$LUNITS
 70
    2
  9
$LUPREC
 70
    4
  9
$SKETCHINC
 40
1
  9
$FILLETRAD
 40
0
  9
$AUNITS
 70
    0
  9
$AUPREC
 70
    2
  9
$MENU
  1
.
  9
$ELEVATION
 40
0
  9
$PELEVATION
 40
0
  9
$THICKNESS
 40
0
  9
$LIMCHECK
 70
    0
  9
$CHAMFERA
 40
0
  9
$CHAMFERB
 40
0
  9
$CHAMFERC
 40
0
  9
$CHAMFERD
 40
0
  9
$SKPOLY
 70
    0
  9
$USRTIMER
 70
    1
  9
$ANGBASE
 50
0
  9
$ANGDIR
 70
    0
  9
$PDMODE
 70
   34
  9
$PDSIZE
 40
0
  9
$PLINEWID
 40
0
  9
$SPLFRAME
 70
    0
  9
$SPLINETYPE
 70
    2
  9
$SPLINESEGS
 70
    8
  9
$HANDSEED
  5
20000
  9
$SURFTAB1
 70
    6
  9
$SURFTAB2
 70
    6
  9
$SURFTYPE
 70
    6
  9
$SURFU
 70
    6
  9
$SURFV
 70
    6
  9
$UCSBASE
  2

  9
$UCSNAME
  2

  9
$UCSORG
 10
0
 20
0
 30
0
  9
$UCSXDIR
 10
1
 20
0
 30
0
  9
$UCSYDIR
 10
0
 20
1
 30
0
  9
$UCSORTHOREF
  2

  9
$UCSORTHOVIEW
 70
    0
  9
$UCSORGTOP
 10
0
 20
0
 30
0
  9
$UCSORGBOTTOM
 10
0
 20
0
 30
0
  9
$UCSORGLEFT
 10
0
 20
0
 30
0
  9
$UCSORGRIGHT
 10
0
 20
0
 30
0
  9
$UCSORGFRONT
 10
0
 20
0
 30
0
  9
$UCSORGBACK
 10
0
 20
0
 30
0
  9
$PUCSBASE
  2

  9
$PUCSNAME
  2

  9
$PUCSORG
 10
0
 20
0
 30
0
  9
$PUCSXDIR
 10
1
 20
0
 30
0
  9
$PUCSYDIR
 10
0
 20
1
 30
0
  9
$PUCSORTHOREF
  2

  9
$PUCSORTHOVIEW
 70
    0
  9
$PUCSORGTOP
 10
0
 20
0
 30
0
  9
$PUCSORGBOTTOM
 10
0
 20
0
 30
0
  9
$PUCSORGLEFT
 10
0
 20
0
 30
0
  9
$PUCSORGRIGHT
 10
0
 20
0
 30
0
  9
$PUCSORGFRONT
 10
0
 20
0
 30
0
  9
$PUCSORGBACK
 10
0
 20
0
 30
0
  9
$USERI1
 70
    0
  9
$USERI2
 70
    0
  9
$USERI3
 70
    0
  9
$USERI4
 70
    0
  9
$USERI5
 70
    0
  9
$USERR1
 40
0
  9
$USERR2
 40
0
  9
$USERR3
 40
0
  9
$USERR4
 40
0
  9
$USERR5
 40
0
  9
$WORLDVIEW
 70
    1
  9
$SHADEDGE
 70
    3
  9
$SHADEDIF
 70
   70
  9
$TILEMODE
 70
    1
  9
$MAXACTVP
 70
   64
  9
$PINSBASE
 10
0
 20
0
 30
0
  9
$PLIMCHECK
 70
    0
  9
$PEXTMIN
 10
0
 20
0
 30
0
  9
$PEXTMAX
 10
0
 20
0
 30
0
  9
$GRIDMODE
 70
    0
  9
$SNAPSTYLE
 70
    0
  9
$PLIMMIN
 10
0
 20
0
  9
$PLIMMAX
 10
210
 20
297
  9
$UNITMODE
 70
    0
  9
$VISRETAIN
 70
    1
  9
$PLINEGEN
 70
    0
  9
$PSLTSCALE
 70
    1
  9
$TREEDEPTH
 70
 3020
  9
$CMLSTYLE
  2
Standard
  9
$CMLJUST
 70
    0
  9
$CMLSCALE
 40
20
  9
$PROXYGRAPHICS
 70
    1
  9
$MEASUREMENT
 70
    1
  9
$CELWEIGHT
370
   -1
  9
$ENDCAPS
280
    0
  9
$JOINSTYLE
280
    0
  9
$LWDISPLAY
290
    0
  9
$INSUNITS
 70
    4
  9
$HYPERLINKBASE
  1

  9
$STYLESHEET
  1

  9
$XEDIT
290
    1
  9
$CEPSNTYPE
380
    0
  9
$PSTYLEMODE
290
    1
  9
$EXTNAMES
290
    1
  9
$PSVPSCALE
 40
1
  9
$OLESTARTUP
290
    0
  9
$SORTENTS
280
  127
  9
$INDEXCTL
280
    0
  9
$HIDETEXT
280
    1
  9
$XCLIPFRAME
290
    0
  9
$HALOGAP
280
    0
  9
$OBSCOLOR
 70
  257
  9
$OBSLTYPE
280
    0
  9
$INTERSECTIONDISPLAY
280
    0
  9
$INTERSECTIONCOLOR
 70
  257
  9
$DIMASSOC
280
    1
  9
$PROJECTNAME
  1

  9
$CAMERADISPLAY
290
    0
  9
$LENSLENGTH
 40
50
  9
$CAMERAHEIGHT
 40
0
  9
$STEPSPERSEC
 40
2
  9
$STEPSIZE
 40
50
  9
$3DDWFPREC
 40
2
  9
$PSOLWIDTH
 40
5
  9
$PSOLHEIGHT
 40
80
  9
$LOFTANG1
 40
1.570796326794897
  9
$LOFTANG2
 40
1.570796326794897
  9
$LOFTMAG1
 40
0
  9
$LOFTMAG2
 40
0
  9
$LOFTPARAM
 70
    7
  9
$LOFTNORMALS
280
    1
  9
$LATITUDE
 40
1
  9
$LONGITUDE
 40
1
  9
$NORTHDIRECTION
 40
0
  9
$TIMEZONE
 70
-8000
  9
$LIGHTGLYPHDISPLAY
280
    1
  9
$TILEMODELIGHTSYNCH
280
    1
  9
$SOLIDHIST
280
    1
  9
$SHOWHIST
280
    1
  9
$DWFFRAME
280
    2
  9
$DGNFRAME
280
    0
  9
$REALWORLDSCALE
290
    1
  9
$INTERFERECOLOR
 62
    1
  9
$CSHADOW
280
    0
  9
$SHADOWPLANELOCATION
 40
0
  0
ENDSEC
  0
SECTION
  2
CLASSES
  0
ENDSEC
  0
SECTION
  2
TABLES
  0
TABLE
  2
VPORT
  5
8
330
0
100
AcDbSymbolTable
 70
    1
  0
VPORT
  5
31
330
2
100
AcDbSymbolTableRecord
100
AcDbViewportTableRecord
  2
*ACTIVE
 70
    0
 10
0
 20
0
 11
1
 21
1
 12
533.5728885648639
 22
342.8966911497924
 13
0
 23
0
 14
10
 24
10
 15
10
 25
10
 16
0
 26
0
 36
1
 17
0
 27
0
 37
0
 40
530.0477823941651
 41
0.9866989117291415
 42
50
 43
0
 44
0
 50
0
 51
0
 71
    0
 72
  100
 73
    1
 74
    3
 75
    0
 76
    0
 77
    0
 78
    0
281
    0
 65
    1
110
0
120
0
130
0
111
1
121
0
131
0
112
0
122
1
132
0
 79
    0
146
0
348
10020
 60
    7
 61
    5
292
1
282
    1
141
0
142
0
 63
  250
421
3358443
  0
ENDTAB
  0
TABLE
  2
LTYPE
  5
5
330
0
100
AcDbSymbolTable
 70
    4
  0
LTYPE
  5
14
330
5
100
AcDbSymbolTableRecord
100
AcDbLinetypeTableRecord
  2
ByBlock
 70
    0
  3

 72
   65
 73
    0
 40
0
  0
LTYPE
  5
15
330
5
100
AcDbSymbolTableRecord
100
AcDbLinetypeTableRecord
  2
ByLayer
 70
    0
  3

 72
   65
 73
    0
 40
0
  0
LTYPE
  5
16
330
5
100
AcDbSymbolTableRecord
100
AcDbLinetypeTableRecord
  2
Continuous
 70
    0
  3
Solid line
 72
   65
 73
    0
 40
0
  0
LTYPE
  5
32
330
5
100
AcDbSymbolTableRecord
100
AcDbLinetypeTableRecord
  2
DOT
 70
    0
  3
Dot . . . . . . . . . . . . . . . . . . . . . .
 72
   65
 73
    2
 40
6.35
 49
0
 74
    0
 49
-6.35
 74
    0
  0
LTYPE
  5
33
330
5
100
AcDbSymbolTableRecord
100
AcDbLinetypeTableRecord
  2
DOTTINY
 70
    0
  3
Dot (.15x) .....................................
 72
   65
 73
    2
 40
0.9525
 49
0
 74
    0
 49
-0.9525
 74
    0
  0
LTYPE
  5
34
330
5
100
AcDbSymbolTableRecord
100
AcDbLinetypeTableRecord
  2
DOT2
 70
    0
  3
Dot (.5x) .....................................
 72
   65
 73
    2
 40
3.175
 49
0
 74
    0
 49
-3.175
 74
    0
  0
LTYPE
  5
35
330
5
100
AcDbSymbolTableRecord
100
AcDbLinetypeTableRecord
  2
DOTX2
 70
    0
  3
Dot (2x) .  .  .  .  .  .  .  .  .  .  .  .  .
 72
   65
 73
    2
 40
12.7
 49
0
 74
    0
 49
-12.7
 74
    0
  0
LTYPE
  5
36
330
5
100
AcDbSymbolTableRecord
100
AcDbLinetypeTableRecord
  2
DASHED
 70
    0
  3
Dashed _ _ _ _ _ _ _ _ _ _ _ _ _ _ _ _ _
 72
   65
 73
    2
 40
19.05
 49
12.7
 74
    0
 49
-6.35
 74
    0
  0
LTYPE
  5
37
330
5
100
AcDbSymbolTableRecord
100
AcDbLinetypeTableRecord
  2
DASHEDTINY
 70
    0
  3
Dashed (.15x) _ _ _ _ _ _ _ _ _ _ _ _ _ _ _ _ _
 72
   65
 73
    2
 40
2.8575
 49
1.905
 74
    0
 49
-0.9525
 74
    0
  0
LTYPE
  5
38
330
5
100
AcDbSymbolTableRecord
100
AcDbLinetypeTableRecord
  2
DASHED2
 70
    0
  3
Dashed (.5x) _ _ _ _ _ _ _ _ _ _ _ _ _ _ _ _ _
 72
   65
 73
    2
 40
9.524999999999999
 49
6.35
 74
    0
 49
-3.175
 74
    0
  0
LTYPE
  5
39
330
5
100
AcDbSymbolTableRecord
100
AcDbLinetypeTableRecord
  2
DASHEDX2
 70
    0
  3
Dashed (2x) ____  ____  ____  ____  ____  ___
 72
   65
 73
    2
 40
38.09999999999999
 49
25.4
 74
    0
 49
-12.7
 74
    0
  0
LTYPE
  5
3A
330
5
100
AcDbSymbolTableRecord
100
AcDbLinetypeTableRecord
  2
DASHDOT
 70
    0
  3
Dash dot __ . __ . __ . __ . __ . __ . __ . __
 72
   65
 73
    4
 40
25.4
 49
12.7
 74
    0
 49
-6.35
 74
    0
 49
0
 74
    0
 49
-6.35
 74
    0
  0
LTYPE
  5
3B
330
5
100
AcDbSymbolTableRecord
100
AcDbLinetypeTableRecord
  2
DASHDOTTINY
 70
    0
  3
Dash dot (.15x) _._._._._._._._._._._._._._._.
 72
   65
 73
    4
 40
3.81
 49
1.905
 74
    0
 49
-0.9525
 74
    0
 49
0
 74
    0
 49
-0.9525
 74
    0
  0
LTYPE
  5
3C
330
5
100
AcDbSymbolTableRecord
100
AcDbLinetypeTableRecord
  2
DASHDOT2
 70
    0
  3
Dash dot (.5x) _._._._._._._._._._._._._._._.
 72
   65
 73
    4
 40
12.7
 49
6.35
 74
    0
 49
-3.175
 74
    0
 49
0
 74
    0
 49
-3.175
 74
    0
  0
LTYPE
  5
3D
330
5
100
AcDbSymbolTableRecord
100
AcDbLinetypeTableRecord
  2
DASHDOTX2
 70
    0
  3
Dash dot (2x) ____  .  ____  .  ____  .  ___
 72
   65
 73
    4
 40
50.8
 49
25.4
 74
    0
 49
-12.7
 74
    0
 49
0
 74
    0
 49
-12.7
 74
    0
  0
LTYPE
  5
3E
330
5
100
AcDbSymbolTableRecord
100
AcDbLinetypeTableRecord
  2
DIVIDE
 70
    0
  3
Divide ____ . . ____ . . ____ . . ____ . . ____
 72
   65
 73
    6
 40
31.75
 49
12.7
 74
    0
 49
-6.35
 74
    0
 49
0
 74
    0
 49
-6.35
 74
    0
 49
0
 74
    0
 49
-6.35
 74
    0
  0
LTYPE
  5
3F
330
5
100
AcDbSymbolTableRecord
100
AcDbLinetypeTableRecord
  2
DIVIDETINY
 70
    0
  3
Divide (.15x) __..__..__..__..__..__..__..__.._
 72
   65
 73
    6
 40
4.7625
 49
1.905
 74
    0
 49
-0.9525
 74
    0
 49
0
 74
    0
 49
-0.9525
 74
    0
 49
0
 74
    0
 49
-0.9525
 74
    0
  0
LTYPE
  5
40
330
5
100
AcDbSymbolTableRecord
100
AcDbLinetypeTableRecord
  2
DIVIDE2
 70
    0
  3
Divide (.5x) __..__..__..__..__..__..__..__.._
 72
   65
 73
    6
 40
15.875
 49
6.35
 74
    0
 49
-3.175
 74
    0
 49
0
 74
    0
 49
-3.175
 74
    0
 49
0
 74
    0
 49
-3.175
 74
    0
  0
LTYPE
  5
41
330
5
100
AcDbSymbolTableRecord
100
AcDbLinetypeTableRecord
  2
DIVIDEX2
 70
    0
  3
Divide (2x) ________  .  .  ________  .  .  _
 72
   65
 73
    6
 40
63.5
 49
25.4
 74
    0
 49
-12.7
 74
    0
 49
0
 74
    0
 49
-12.7
 74
    0
 49
0
 74
    0
 49
-12.7
 74
    0
  0
LTYPE
  5
42
330
5
100
AcDbSymbolTableRecord
100
AcDbLinetypeTableRecord
  2
BORDER
 70
    0
  3
Border __ __ . __ __ . __ __ . __ __ . __ __ .
 72
   65
 73
    6
 40
44.45
 49
12.7
 74
    0
 49
-6.35
 74
    0
 49
12.7
 74
    0
 49
-6.35
 74
    0
 49
0
 74
    0
 49
-6.35
 74
    0
  0
LTYPE
  5
43
330
5
100
AcDbSymbolTableRecord
100
AcDbLinetypeTableRecord
  2
BORDERTINY
 70
    0
  3
Border (.15x) __.__.__.__.__.__.__.__.__.__.__.
 72
   65
 73
    6
 40
6.6675
 49
1.905
 74
    0
 49
-0.9525
 74
    0
 49
1.905
 74
    0
 49
-0.9525
 74
    0
 49
0
 74
    0
 49
-0.9525
 74
    0
  0
LTYPE
  5
44
330
5
100
AcDbSymbolTableRecord
100
AcDbLinetypeTableRecord
  2
BORDER2
 70
    0
  3
Border (.5x) __.__.__.__.__.__.__.__.__.__.__.
 72
   65
 73
    6
 40
22.225
 49
6.35
 74
    0
 49
-3.175
 74
    0
 49
6.35
 74
    0
 49
-3.175
 74
    0
 49
0
 74
    0
 49
-3.175
 74
    0
  0
LTYPE
  5
45
330
5
100
AcDbSymbolTableRecord
100
AcDbLinetypeTableRecord
  2
BORDERX2
 70
    0
  3
Border (2x) ____  ____  .  ____  ____  .  ___
 72
   65
 73
    6
 40
88.89999999999999
 49
25.4
 74
    0
 49
-12.7
 74
    0
 49
25.4
 74
    0
 49
-12.7
 74
    0
 49
0
 74
    0
 49
-12.7
 74
    0
  0
LTYPE
  5
46
330
5
100
AcDbSymbolTableRecord
100
AcDbLinetypeTableRecord
  2
CENTER
 70
    0
  3
Center ____ _ ____ _ ____ _ ____ _ ____ _ ____
 72
   65
 73
    4
 40
50.8
 49
31.75
 74
    0
 49
-6.35
 74
    0
 49
6.35
 74
    0
 49
-6.35
 74
    0
  0
LTYPE
  5
47
330
5
100
AcDbSymbolTableRecord
100
AcDbLinetypeTableRecord
  2
CENTERTINY
 70
    0
  3
Center (.15x) ___ _ ___ _ ___ _ ___ _ ___ _ ___
 72
   65
 73
    4
 40
7.619999999999999
 49
4.7625
 74
    0
 49
-0.9525
 74
    0
 49
0.9525
 74
    0
 49
-0.9525
 74
    0
  0
LTYPE
  5
48
330
5
100
AcDbSymbolTableRecord
100
AcDbLinetypeTableRecord
  2
CENTER2
 70
    0
  3
Center (.5x) ___ _ ___ _ ___ _ ___ _ ___ _ ___
 72
   65
 73
    4
 40
28.575
 49
19.05
 74
    0
 49
-3.175
 74
    0
 49
3.175
 74
    0
 49
-3.175
 74
    0
  0
LTYPE
  5
49
330
5
100
AcDbSymbolTableRecord
100
AcDbLinetypeTableRecord
  2
CENTERX2
 70
    0
  3
Center (2x) ________  __  ________  __  _____
 72
   65
 73
    4
 40
101.6
 49
63.5
 74
    0
 49
-12.7
 74
    0
 49
12.7
 74
    0
 49
-12.7
 74
    0
  0
ENDTAB
  0
TABLE
  2
LAYER
  5
2
330
0
100
AcDbSymbolTable
 70
    1
  0
LAYER
  5
10
330
2
100
AcDbSymbolTableRecord
100
AcDbLayerTableRecord
  2
0
 70
    0
 62
    7
  6
CONTINUOUS
370
   -3
390
F
  0
LAYER
  5
4A
330
2
100
AcDbSymbolTableRecord
100
AcDbLayerTableRecord
  2
pocket-1mm
 70
    0
 62
    4
  6
CONTINUOUS
370
    0
390
F
  0
LAYER
  5
4B
330
2
100
AcDbSymbolTableRecord
100
AcDbLayerTableRecord
  2
profiling
 70
    0
 62
    3
  6
CONTINUOUS
370
    0
390
F
  0
LAYER
  5
4C
330
2
100
AcDbSymbolTableRecord
100
AcDbLayerTableRecord
  2
vcut
 70
    0
 62
    6
  6
CONTINUOUS
370
    0
390
F
  0
ENDTAB
  0
TABLE
  2
STYLE
  5
3
330
0
100
AcDbSymbolTable
 70
    3
  0
STYLE
  5
4D
330
2
100
AcDbSymbolTableRecord
100
AcDbTextStyleTableRecord
  2
Standard
 70
    0
 40
0
 41
1
 50
0
 71
    0
 42
1
  3
txt
  4

  0
ENDTAB
  0
TABLE
  2
VIEW
  5
6
330
0
100
AcDbSymbolTable
 70
    0
  0
ENDTAB
  0
TABLE
  2
UCS
  5
7
330
0
100
AcDbSymbolTable
 70
    0
  0
ENDTAB
  0
TABLE
  2
APPID
  5
9
330
0
100
AcDbSymbolTable
 70
    1
  0
APPID
  5
12
330
9
100
AcDbSymbolTableRecord
100
AcDbRegAppTableRecord
  2
ACAD
 70
    0
  0
APPID
  5
4E
330
9
100
AcDbSymbolTableRecord
100
AcDbRegAppTableRecord
  2
LibreCad
 70
    0
  0
ENDTAB
  0
TABLE
  2
DIMSTYLE
  5
A
330
0
100
AcDbSymbolTable
 70
    1
100
AcDbDimStyleTable
 71
    1
  0
DIMSTYLE
105
4F
330
A
100
AcDbSymbolTableRecord
100
AcDbDimStyleTableRecord
  2
Standard
 70
    0
 40
2.5
 41
2.5
 42
0.625
 43
0.38
 44
1.25
 45
0
 46
0
 47
0
 48
0
 49
1
140
2.5
141
0.09
142
0
143
25.4
144
1
145
0
146
1
147
0.625
148
0
 71
    0
 72
    0
 73
    0
 74
    1
 75
    0
 76
    0
 77
    0
 78
    8
 79
    0
170
    0
171
    2
172
    0
173
    0
174
    0
175
    0
176
    0
177
    0
178
    0
179
    0
271
    2
272
    4
273
    2
274
    2
275
    0
276
    0
277
    2
278
   44
279
    0
280
    0
281
    0
282
    0
283
    1
284
    0
285
    0
286
    0
288
    0
289
    3
340
STANDARD
341

371
   -2
372
   -2
  0
ENDTAB
  0
TABLE
  2
BLOCK_RECORD
  5
1
330
0
100
AcDbSymbolTable
 70
    2
  0
BLOCK_RECORD
  5
1F
330
1
100
AcDbSymbolTableRecord
100
AcDbBlockTableRecord
  2
*Model_Space
 70
    0
280
    1
281
    0
  0
BLOCK_RECORD
  5
1E
330
1
100
AcDbSymbolTableRecord
100
AcDbBlockTableRecord
  2
*Paper_Space
 70
    0
280
    1
281
    0
  0
ENDTAB
  0
ENDSEC
  0
SECTION
  2
BLOCKS
  0
BLOCK
  5
20
330
1F
100
AcDbEntity
  8
0
100
AcDbBlockBegin
  2
*Model_Space
 70
    0
 10
0
 20
0
 30
0
  3
*Model_Space
  1

  0
ENDBLK
  5
21
330
1F
100
AcDbEntity
  8
0
100
AcDbBlockEnd
  0
BLOCK
  5
1C
330
1B
100
AcDbEntity
  8
0
100
AcDbBlockBegin
  2
*Paper_Space
 70
    0
 10
0
 20
0
 30
0
  3
*Paper_Space
  1

  0
ENDBLK
  5
1D
330
1F
100
AcDbEntity
  8
0
100
AcDbBlockEnd
  0
ENDSEC
  0
SECTION
  2
ENTITIES
  0
LWPOLYLINE
  5
50
100
AcDbEntity
  8
pocket-1mm
  6
ByLayer
 62
  256
370
   -1
100
AcDbPolyline
 90
   68
 70
    1
 43
0
 10
778.509
 20
544.0454999999999
 10
778.52175
 20
543.78975
 10
778.55925
 20
543.53625
 10
778.6215
 20
543.288
 10
778.70775
 20
543.0465
 10
778.8172499999999
 20
542.81475
 10
778.94925
 20
542.595
 10
779.10225
 20
542.3895
 10
779.274
 20
542.19975
 10
779.46375
 20
542.028
 10
779.66925
 20
541.875
 10
779.889
 20
541.7430000000001
 10
780.12075
 20
541.6335
 10
780.36225
 20
541.54725
 10
780.6105
 20
541.485
 10
780.864
 20
541.4475
 10
781.11975
 20
541.43475
 10
786.67575
 20
541.43475
 10
786.9315
 20
541.4475
 10
787.1849999999999
 20
541.485
 10
787.43325
 20
541.54725
 10
787.67475
 20
541.6335
 10
787.9065000000001
 20
541.7430000000001
 10
788.12625
 20
541.875
 10
788.3317500000001
 20
542.028
 10
788.5214999999999
 20
542.19975
 10
788.69325
 20
542.3895
 10
788.8462500000001
 20
542.595
 10
788.97825
 20
542.81475
 10
789.08775
 20
543.0465
 10
789.174
 20
543.288
 10
789.23625
 20
543.53625
 10
789.2737499999999
 20
543.78975
 10
789.2865
 20
544.0454999999999
 10
789.2865
 20
562.578
 10
789.2737499999999
 20
562.83375
 10
789.23625
 20
563.08725
 10
789.174
 20
563.3355
 10
789.08775
 20
563.577
 10
788.97825
 20
563.80875
 10
788.8462500000001
 20
564.0285
 10
788.69325
 20
564.234
 10
788.5214999999999
 20
564.42375
 10
788.3317500000001
 20
564.5955
 10
788.12625
 20
564.7485
 10
787.9065000000001
 20
564.8805
 10
787.67475
 20
564.99
 10
787.43325
 20
565.07625
 10
787.1849999999999
 20
565.1385
 10
786.9315
 20
565.176
 10
786.67575
 20
565.18875
 10
781.11975
 20
565.18875
 10
780.864
 20
565.176
 10
780.6105
 20
565.1385
 10
780.36225
 20
565.07625
 10
780.12075
 20
564.99
 10
779.889
 20
564.8805
 10
779.66925
 20
564.7485
 10
779.46375
 20
564.5955
 10
779.274
 20
564.42375
 10
779.10225
 20
564.234
 10
778.94925
 20
564.0285
 10
778.8172499999999
 20
563.80875
 10
778.70775
 20
563.577
 10
778.6215
 20
563.3355
 10
778.55925
 20
563.08725
 10
778.52175
 20
562.83375
 10
778.509
 20
562.578
  0
LWPOLYLINE
  5
51
100
AcDbEntity
  8
pocket-1mm
  6
ByLayer
 62
  256
370
   -1
100
AcDbPolyline
 90
   68
 70
    1
 43
0
 10
765.37875
 20
569.1704999999999
 10
765.3915
 20
568.91475
 10
765.429
 20
568.66125
 10
765.49125
 20
568.413
 10
765.5775
 20
568.1715
 10
765.687
 20
567.93975
 10
765.819
 20
567.72
 10
765.972
 20
567.5145
 10
766.14375
 20
567.32475
 10
766.3335
 20
567.153
 10
766.539
 20
567.00075
 10
766.75875
 20
566.86875
 10
766.9905
 20
566.75925
 10
767.232
 20
566.673
 10
767.48025
 20
566.6107500000001
 10
767.73375
 20
566.57325
 10
767.9895
 20
566.5605
 10
771.9525
 20
566.5605
 10
772.20825
 20
566.57325
 10
772.4617500000001
 20
566.6107500000001
 10
772.71
 20
566.673
 10
772.9515
 20
566.75925
 10
773.18325
 20
566.86875
 10
773.403
 20
567.00075
 10
773.6085
 20
567.153
 10
773.7982500000001
 20
567.32475
 10
773.97
 20
567.5145
 10
774.123
 20
567.72
 10
774.255
 20
567.93975
 10
774.3645
 20
568.1715
 10
774.45075
 20
568.413
 10
774.513
 20
568.66125
 10
774.5505000000001
 20
568.91475
 10
774.56325
 20
569.1704999999999
 10
774.56325
 20
611.6295
 10
774.5505000000001
 20
611.88525
 10
774.513
 20
612.13875
 10
774.45075
 20
612.3869999999999
 10
774.3645
 20
612.6285
 10
774.255
 20
612.86025
 10
774.123
 20
613.08
 10
773.97
 20
613.2855
 10
773.7982500000001
 20
613.47525
 10
773.6085
 20
613.647
 10
773.403
 20
613.8
 10
773.18325
 20
613.932
 10
772.9515
 20
614.0415
 10
772.71
 20
614.12775
 10
772.4617500000001
 20
614.1900000000001
 10
772.20825
 20
614.2275
 10
771.9525
 20
614.2402499999999
 10
767.9895
 20
614.2402499999999
 10
767.73375
 20
614.2275
 10
767.48025
 20
614.1900000000001
 10
767.232
 20
614.12775
 10
766.9905
 20
614.0415
 10
766.75875
 20
613.932
 10
766.539
 20
613.8
 10
766.3335
 20
613.647
 10
766.14375
 20
613.47525
 10
765.972
 20
613.2855
 10
765.819
 20
613.08
 10
765.687
 20
612.86025
 10
765.5775
 20
612.6285
 10
765.49125
 20
612.3869999999999
 10
765.429
 20
612.13875
 10
765.3915
 20
611.88525
 10
765.37875
 20
611.6295
  0
LWPOLYLINE
  5
52
100
AcDbEntity
  8
pocket-1mm
  6
ByLayer
 62
  256
370
   -1
100
AcDbPolyline
 90
   68
 70
    1
 43
0
 10
776.4974999999999
 20
603.9795
 10
776.51025
 20
603.72375
 10
776.54775
 20
603.47025
 10
776.61
 20
603.222
 10
776.69625
 20
602.9805
 10
776.80575
 20
602.74875
 10
776.9377500000001
 20
602.529
 10
777.09075
 20
602.3235
 10
777.2625
 20
602.13375
 10
777.45225
 20
601.962
 10
777.65775
 20
601.809
 10
777.8775000000001
 20
601.677
 10
778.10925
 20
601.5675
 10
778.3507499999999
 20
601.48125
 10
778.599
 20
601.419
 10
778.8525
 20
601.3815
 10
779.10825
 20
601.36875
 10
783.07125
 20
601.36875
 10
783.327
 20
601.3815
 10
783.5805
 20
601.419
 10
783.82875
 20
601.48125
 10
784.07025
 20
601.5675
 10
784.302
 20
601.677
 10
784.52175
 20
601.809
 10
784.72725
 20
601.962
 10
784.917
 20
602.13375
 10
785.08875
 20
602.3235
 10
785.24175
 20
602.529
 10
785.37375
 20
602.74875
 10
785.48325
 20
602.9805
 10
785.5694999999999
 20
603.222
 10
785.63175
 20
603.47025
 10
785.66925
 20
603.72375
 10
785.682
 20
603.9795
 10
785.682
 20
639.7635
 10
785.66925
 20
640.0192500000001
 10
785.63175
 20
640.27275
 10
785.5694999999999
 20
640.521
 10
785.48325
 20
640.7625
 10
785.37375
 20
640.99425
 10
785.24175
 20
641.2140000000001
 10
785.08875
 20
641.4195
 10
784.917
 20
641.60925
 10
784.72725
 20
641.7809999999999
 10
784.52175
 20
641.93325
 10
784.302
 20
642.06525
 10
784.07025
 20
642.17475
 10
783.82875
 20
642.261
 10
783.5805
 20
642.32325
 10
783.327
 20
642.3607500000001
 10
783.07125
 20
642.3735
 10
779.10825
 20
642.3735
 10
778.8525
 20
642.3607500000001
 10
778.599
 20
642.32325
 10
778.3507499999999
 20
642.261
 10
778.10925
 20
642.17475
 10
777.8775000000001
 20
642.06525
 10
777.65775
 20
641.93325
 10
777.45225
 20
641.7809999999999
 10
777.2625
 20
641.60925
 10
777.09075
 20
641.4195
 10
776.9377500000001
 20
641.2140000000001
 10
776.80575
 20
640.99425
 10
776.69625
 20
640.7625
 10
776.61
 20
640.521
 10
776.54775
 20
640.27275
 10
776.51025
 20
640.0192500000001
 10
776.4974999999999
 20
639.7635
  0
LWPOLYLINE
  5
53
100
AcDbEntity
  8
profiling
  6
ByLayer
 62
  256
370
   -1
100
AcDbPolyline
 90
  139
 70
    1
 43
0
 10
752.4225
 20
529.1805000000001
 10
752.4225
 20
529.1805000000001
 10
752.4225
 20
529.1805000000001
 10
752.4225
 20
590.5170000000001
 10
752.4225
 20
651.8535000000001
 10
752.4225
 20
668.826
 10
752.4225
 20
668.826
 10
759.7335
 20
668.826
 10
759.7335
 20
668.826
 10
759.7335
 20
668.826
 10
760.37325
 20
668.7945
 10
760.37325
 20
668.7945
 10
761.0069999999999
 20
668.70075
 10
761.0069999999999
 20
668.70075
 10
761.62875
 20
668.5454999999999
 10
761.62875
 20
668.5454999999999
 10
762.23175
 20
668.3295000000001
 10
762.23175
 20
668.3295000000001
 10
762.81075
 20
668.05575
 10
762.81075
 20
668.05575
 10
763.3605
 20
667.7265
 10
763.3605
 20
667.7265
 10
763.875
 20
667.34475
 10
763.875
 20
667.34475
 10
764.34975
 20
666.91425
 10
764.34975
 20
666.91425
 10
764.78025
 20
666.4395
 10
764.78025
 20
666.4395
 10
765.162
 20
665.925
 10
765.162
 20
665.925
 10
765.49125
 20
665.3752500000001
 10
765.49125
 20
665.3752500000001
 10
765.765
 20
664.79625
 10
765.765
 20
664.79625
 10
765.981
 20
664.19325
 10
765.981
 20
664.19325
 10
766.1369999999999
 20
663.5715
 10
766.1369999999999
 20
663.5715
 10
766.2307499999999
 20
662.9377500000001
 10
766.2307499999999
 20
662.9377500000001
 10
766.26225
 20
662.298
 10
766.26225
 20
662.298
 10
766.26225
 20
662.298
 10
766.26225
 20
651.8535000000001
 10
867.018
 20
651.8535000000001
 10
867.018
 20
651.8535000000001
 10
867.018
 20
651.8535000000001
 10
863.646
 20
633.576
 10
863.646
 20
633.576
 10
863.646
 20
633.576
 10
826.85025
 20
633.576
 10
826.2105
 20
633.5445
 10
825.5767499999999
 20
633.45075
 10
824.955
 20
633.29475
 10
824.352
 20
633.07875
 10
823.773
 20
632.8049999999999
 10
823.22325
 20
632.4757499999999
 10
822.70875
 20
632.0940000000001
 10
822.234
 20
631.6635
 10
821.8035
 20
631.18875
 10
821.7435
 20
631.10775
 10
821.42175
 20
630.67425
 10
821.0925
 20
630.1245
 10
820.81875
 20
629.5454999999999
 10
820.60275
 20
628.9425
 10
820.44675
 20
628.32075
 10
820.353
 20
627.687
 10
820.3215
 20
627.04725
 10
820.3215
 20
590.51625
 10
820.3215
 20
553.98525
 10
820.353
 20
553.3455
 10
820.44675
 20
552.7117500000001
 10
820.60275
 20
552.09
 10
820.716
 20
551.7735
 10
820.81875
 20
551.487
 10
821.0925
 20
550.908
 10
821.42175
 20
550.35825
 10
821.8035
 20
549.84375
 10
822.234
 20
549.369
 10
822.70875
 20
548.9385
 10
823.22325
 20
548.55675
 10
823.773
 20
548.2275
 10
824.352
 20
547.95375
 10
824.955
 20
547.73775
 10
825.5767499999999
 20
547.5817500000001
 10
825.9645
 20
547.524
 10
826.2105
 20
547.48725
 10
826.85025
 20
547.45575
 10
863.646
 20
547.45575
 10
863.646
 20
547.45575
 10
863.646
 20
547.45575
 10
867.018
 20
529.17825
 10
867.018
 20
529.17825
 10
867.018
 20
529.17825
 10
867.018
 20
529.17825
 10
867.018
 20
529.17825
 10
867.018
 20
529.17825
 10
766.26225
 20
529.17825
 10
766.26225
 20
518.73375
 10
766.26225
 20
518.73375
 10
766.26225
 20
518.73375
 10
766.2307499999999
 20
518.0940000000001
 10
766.2307499999999
 20
518.0940000000001
 10
766.1369999999999
 20
517.46025
 10
766.1369999999999
 20
517.46025
 10
765.981
 20
516.8385
 10
765.981
 20
516.8385
 10
765.765
 20
516.2355
 10
765.765
 20
516.2355
 10
765.49125
 20
515.6565000000001
 10
765.49125
 20
515.6565000000001
 10
765.162
 20
515.10675
 10
765.162
 20
515.10675
 10
764.78025
 20
514.59225
 10
764.78025
 20
514.59225
 10
764.34975
 20
514.1174999999999
 10
764.34975
 20
514.1174999999999
 10
763.875
 20
513.687
 10
763.875
 20
513.687
 10
763.3605
 20
513.30525
 10
763.3605
 20
513.30525
 10
762.81075
 20
512.976
 10
762.81075
 20
512.976
 10
762.23175
 20
512.70225
 10
762.23175
 20
512.70225
 10
761.62875
 20
512.48625
 10
761.62875
 20
512.48625
 10
761.0069999999999
 20
512.33025
 10
761.0069999999999
 20
512.33025
 10
760.37325
 20
512.2365
 10
760.37325
 20
512.2365
 10
759.7335
 20
512.205
 10
759.7335
 20
512.205
 10
759.7335
 20
512.205
 10
752.4225
 20
512.205
 10
752.4225
 20
512.205
 10
752.4225
 20
512.205
 10
752.4225
 20
512.205
 10
752.4225
 20
529.1775
  0
LWPOLYLINE
  5
54
100
AcDbEntity
  8
profiling
  6
ByLayer
 62
  256
370
   -1
100
AcDbPolyline
 90
   41
 70
    1
 43
0
 10
832.31775
 20
644.6445
 10
831.957
 20
644.4517499999999
 10
831.9045
 20
644.409
 10
831.6405
 20
644.1922499999999
 10
831.381
 20
643.87575
 10
831.21075
 20
643.557
 10
831.18825
 20
643.515
 10
831.069
 20
643.1235
 10
831.0285
 20
642.7162499999999
 10
831.069
 20
642.309
 10
831.18825
 20
641.91675
 10
831.381
 20
641.55525
 10
831.6405
 20
641.23875
 10
831.957
 20
640.97925
 10
832.31775
 20
640.7865
 10
832.70925
 20
640.668
 10
833.1165
 20
640.6275000000001
 10
833.5237499999999
 20
640.668
 10
833.91525
 20
640.7865
 10
834.276
 20
640.97925
 10
834.5925
 20
641.23875
 10
834.852
 20
641.55525
 10
835.04475
 20
641.91675
 10
835.056
 20
641.955
 10
835.1632499999999
 20
642.309
 10
835.20375
 20
642.7162499999999
 10
835.1632499999999
 20
643.1235
 10
835.044
 20
643.515
 10
834.93825
 20
643.713
 10
834.8512500000001
 20
643.87575
 10
834.708
 20
644.0505000000001
 10
834.59175
 20
644.1922499999999
 10
834.4109999999999
 20
644.34075
 10
834.27525
 20
644.4517499999999
 10
834.246
 20
644.4675
 10
833.9137500000001
 20
644.64525
 10
833.52225
 20
644.76375
 10
833.1615
 20
644.799
 10
833.115
 20
644.8035
 10
832.70775
 20
644.763
 10
832.31625
 20
644.6445
  0
LWPOLYLINE
  5
55
100
AcDbEntity
  8
profiling
  6
ByLayer
 62
  256
370
   -1
100
AcDbPolyline
 90
   37
 70
    1
 43
0
 10
800.59425
 20
598.9095
 10
798.957
 20
598.74825
 10
797.38275
 20
598.2705
 10
795.9315
 20
597.495
 10
794.6595
 20
596.451
 10
793.6155
 20
595.179
 10
793.34475
 20
594.672
 10
792.84
 20
593.72775
 10
792.36225
 20
592.1535
 10
792.201
 20
590.51625
 10
792.36225
 20
588.879
 10
792.84
 20
587.30475
 10
793.6155
 20
585.8535000000001
 10
794.6595
 20
584.5815
 10
795.9315
 20
583.5375
 10
797.38275
 20
582.7619999999999
 10
798.957
 20
582.28425
 10
800.59425
 20
582.123
 10
802.2315
 20
582.28425
 10
803.80575
 20
582.7619999999999
 10
805.2569999999999
 20
583.5375
 10
806.529
 20
584.5815
 10
807.07425
 20
585.246
 10
807.573
 20
585.8535000000001
 10
808.3484999999999
 20
587.30475
 10
808.70475
 20
588.47925
 10
808.82625
 20
588.879
 10
808.9875
 20
590.51625
 10
808.82625
 20
592.1535
 10
808.3484999999999
 20
593.72775
 10
807.573
 20
595.179
 10
807.3585
 20
595.4400000000001
 10
806.529
 20
596.451
 10
805.2569999999999
 20
597.495
 10
803.80575
 20
598.2705
 10
802.2315
 20
598.74825
 10
800.59425
 20
598.9095
  0
LWPOLYLINE
  5
56
100
AcDbEntity
  8
profiling
  6
ByLayer
 62
  256
370
   -1
100
AcDbPolyline
 90
   43
 70
    1
 43
0
 10
757.104
 20
635.574
 10
757.5
 20
635.24925
 10
757.9515
 20
635.00775
 10
758.44125
 20
634.85925
 10
758.9505
 20
634.809
 10
759.45975
 20
634.85925
 10
759.9494999999999
 20
635.00775
 10
760.401
 20
635.24925
 10
760.797
 20
635.574
 10
761.12175
 20
635.97
 10
761.12175
 20
635.97
 10
761.36325
 20
636.4215
 10
761.51175
 20
636.91125
 10
761.562
 20
637.4204999999999
 10
761.51175
 20
637.92975
 10
761.3819999999999
 20
638.3565
 10
761.36325
 20
638.4195
 10
761.31975
 20
638.50125
 10
761.1224999999999
 20
638.871
 10
760.79775
 20
639.2670000000001
 10
760.40175
 20
639.59175
 10
759.95025
 20
639.83325
 10
759.4605
 20
639.98175
 10
759.4605
 20
639.98175
 10
759.3225
 20
639.9952500000001
 10
758.95125
 20
640.032
 10
758.62125
 20
639.9997499999999
 10
758.442
 20
639.98175
 10
758.442
 20
639.98175
 10
757.95225
 20
639.83325
 10
757.50075
 20
639.59175
 10
757.10475
 20
639.2670000000001
 10
756.78
 20
638.871
 10
756.5385
 20
638.4195
 10
756.51975
 20
638.3565
 10
756.39
 20
637.92975
 10
756.35625
 20
637.587
 10
756.33975
 20
637.4204999999999
 10
756.35625
 20
637.254
 10
756.39
 20
636.91125
 10
756.5385
 20
636.4215
 10
756.78
 20
635.97
 10
757.10475
 20
635.574
  0
LWPOLYLINE
  5
57
100
AcDbEntity
  8
profiling
  6
ByLayer
 62
  256
370
   -1
100
AcDbPolyline
 90
   33
 70
    1
 43
0
 10
759.45975
 20
541.053
 10
759.9494999999999
 20
541.2015
 10
760.401
 20
541.443
 10
760.797
 20
541.76775
 10
761.12175
 20
542.1637500000001
 10
761.36325
 20
542.6152499999999
 10
761.51175
 20
543.105
 10
761.562
 20
543.61425
 10
761.51175
 20
544.1235
 10
761.36325
 20
544.61325
 10
761.12175
 20
545.06475
 10
760.797
 20
545.46075
 10
760.401
 20
545.7855
 10
759.9494999999999
 20
546.027
 10
759.45975
 20
546.1755000000001
 10
758.9505
 20
546.2257499999999
 10
758.44125
 20
546.1755000000001
 10
757.9515
 20
546.027
 10
757.5
 20
545.7855
 10
757.104
 20
545.46075
 10
756.77925
 20
545.06475
 10
756.53775
 20
544.61325
 10
756.3892499999999
 20
544.1235
 10
756.3390000000001
 20
543.61425
 10
756.3892499999999
 20
543.105
 10
756.53775
 20
542.6152499999999
 10
756.77925
 20
542.1637500000001
 10
757.104
 20
541.76775
 10
757.5
 20
541.443
 10
757.9515
 20
541.2015
 10
758.44125
 20
541.053
 10
758.9505
 20
541.00275
 10
759.45975
 20
541.053
  0
LWPOLYLINE
  5
58
100
AcDbEntity
  8
profiling
  6
ByLayer
 62
  256
370
   -1
100
AcDbPolyline
 90
   35
 70
    1
 43
0
 10
758.9505
 20
521.6085
 10
758.5432499999999
 20
521.568
 10
758.151
 20
521.4494999999999
 10
757.79025
 20
521.25675
 10
757.47375
 20
520.99725
 10
757.21425
 20
520.68075
 10
757.0214999999999
 20
520.31925
 10
756.90225
 20
519.9277499999999
 10
756.86175
 20
519.5205
 10
756.90225
 20
519.11325
 10
757.0214999999999
 20
518.72175
 10
757.21425
 20
518.36025
 10
757.47375
 20
518.04375
 10
757.79025
 20
517.78425
 10
758.151
 20
517.5915
 10
758.5432499999999
 20
517.473
 10
758.9505
 20
517.4325
 10
759.35775
 20
517.473
 10
759.74925
 20
517.59225
 10
760.1107500000001
 20
517.785
 10
760.42725
 20
518.0445
 10
760.68675
 20
518.361
 10
760.8795
 20
518.72175
 10
760.998
 20
519.11325
 10
761.0235
 20
519.372
 10
761.0385
 20
519.5205
 10
760.99875
 20
519.9277499999999
 10
760.88025
 20
520.31925
 10
760.734
 20
520.59225
 10
760.68675
 20
520.6799999999999
 10
760.42725
 20
520.9965
 10
760.1107500000001
 20
521.256
 10
759.74925
 20
521.44875
 10
759.35775
 20
521.5672499999999
 10
758.9505
 20
521.60775
  0
LWPOLYLINE
  5
59
100
AcDbEntity
  8
profiling
  6
ByLayer
 62
  256
370
   -1
100
AcDbPolyline
 90
   35
 70
    1
 43
0
 10
756.86175
 20
661.5142499999999
 10
756.90225
 20
661.107
 10
757.02075
 20
660.7155
 10
757.2135
 20
660.354
 10
757.473
 20
660.0375
 10
757.7895
 20
659.778
 10
758.151
 20
659.58525
 10
758.5425
 20
659.46675
 10
758.94975
 20
659.42625
 10
759.357
 20
659.46675
 10
759.7485
 20
659.58525
 10
760.10925
 20
659.778
 10
760.42575
 20
660.0375
 10
760.68525
 20
660.354
 10
760.878
 20
660.7155
 10
760.9965
 20
661.107
 10
761.037
 20
661.5142499999999
 10
760.9965
 20
661.9215
 10
760.878
 20
662.313
 10
760.68525
 20
662.6745
 10
760.42575
 20
662.991
 10
760.24425
 20
663.1395
 10
760.10925
 20
663.2505
 10
759.7485
 20
663.44325
 10
759.357
 20
663.56175
 10
758.94975
 20
663.6015
 10
758.5425
 20
663.56175
 10
758.151
 20
663.44325
 10
757.7895
 20
663.2505
 10
757.473
 20
662.991
 10
757.2135
 20
662.6745
 10
757.02075
 20
662.313
 10
756.96375
 20
662.12625
 10
756.9015000000001
 20
661.9215
 10
756.861
 20
661.5142499999999
  0
LWPOLYLINE
  5
5A
100
AcDbEntity
  8
profiling
  6
ByLayer
 62
  256
370
   -1
100
AcDbPolyline
 90
   38
 70
    1
 43
0
 10
853.10625
 20
540.05625
 10
852.9405
 20
539.91975
 10
852.78975
 20
539.796
 10
852.53025
 20
539.4795
 10
852.3375
 20
539.11875
 10
852.21825
 20
538.72725
 10
852.1777499999999
 20
538.3200000000001
 10
852.21825
 20
537.91275
 10
852.3375
 20
537.52125
 10
852.53025
 20
537.1605
 10
852.6165
 20
537.0555000000001
 10
852.78975
 20
536.8440000000001
 10
852.98775
 20
536.682
 10
853.107
 20
536.5845
 10
853.46775
 20
536.39175
 10
853.86
 20
536.27325
 10
854.26725
 20
536.23275
 10
854.6745
 20
536.27325
 10
855.066
 20
536.39175
 10
855.42675
 20
536.5845
 10
855.74325
 20
536.8440000000001
 10
856.00275
 20
537.1605
 10
856.1955
 20
537.522
 10
856.314
 20
537.9135
 10
856.3545
 20
538.32075
 10
856.314
 20
538.728
 10
856.19475
 20
539.1195
 10
856.002
 20
539.48025
 10
855.7424999999999
 20
539.79675
 10
855.711
 20
539.8222500000001
 10
855.426
 20
540.05625
 10
855.06525
 20
540.249
 10
854.67375
 20
540.3674999999999
 10
854.2665
 20
540.408
 10
853.85925
 20
540.3674999999999
 10
853.46775
 20
540.249
 10
853.188
 20
540.09975
 10
853.107
 20
540.05625
  0
LWPOLYLINE
  5
5B
100
AcDbEntity
  8
profiling
  6
ByLayer
 62
  256
370
   -1
100
AcDbPolyline
 90
   39
 70
    1
 43
0
 10
834.85425
 20
539.48025
 10
834.732
 20
539.62875
 10
834.59475
 20
539.79675
 10
834.39675
 20
539.95875
 10
834.2775
 20
540.05625
 10
833.9160000000001
 20
540.249
 10
833.5245
 20
540.3674999999999
 10
833.11725
 20
540.408
 10
832.71
 20
540.3674999999999
 10
832.3185
 20
540.249
 10
831.95775
 20
540.05625
 10
831.801
 20
539.928
 10
831.64125
 20
539.79675
 10
831.38175
 20
539.48025
 10
831.189
 20
539.11875
 10
831.06975
 20
538.72725
 10
831.02925
 20
538.3200000000001
 10
831.06975
 20
537.91275
 10
831.189
 20
537.52125
 10
831.38175
 20
537.15975
 10
831.64125
 20
536.84325
 10
831.95775
 20
536.58375
 10
832.3185
 20
536.391
 10
832.71
 20
536.2725
 10
833.11725
 20
536.232
 10
833.27175
 20
536.247
 10
833.5245
 20
536.27175
 10
833.9160000000001
 20
536.39025
 10
834.2775
 20
536.583
 10
834.31575
 20
536.6145
 10
834.5940000000001
 20
536.8425
 10
834.8535000000001
 20
537.159
 10
835.04625
 20
537.5205
 10
835.09275
 20
537.6735
 10
835.1655
 20
537.91275
 10
835.206
 20
538.3200000000001
 10
835.1655
 20
538.72725
 10
835.04625
 20
539.11875
 10
834.8535000000001
 20
539.4795
  0
LWPOLYLINE
  5
5C
100
AcDbEntity
  8
profiling
  6
ByLayer
 62
  256
370
   -1
100
AcDbPolyline
 90
   38
 70
    1
 43
0
 10
852.4785000000001
 20
641.6505
 10
852.53025
 20
641.5545
 10
852.5925
 20
641.47875
 10
852.7905
 20
641.2380000000001
 10
853.0275
 20
641.04375
 10
853.107
 20
640.9785000000001
 10
853.4684999999999
 20
640.78575
 10
853.86
 20
640.66725
 10
854.26725
 20
640.62675
 10
854.6745
 20
640.66725
 10
855.066
 20
640.78575
 10
855.4275
 20
640.9785000000001
 10
855.5069999999999
 20
641.04375
 10
855.744
 20
641.2380000000001
 10
856.0035
 20
641.5545
 10
856.19625
 20
641.9160000000001
 10
856.3155
 20
642.30825
 10
856.35525
 20
642.7155
 10
856.3155
 20
643.12275
 10
856.19625
 20
643.5142499999999
 10
856.0035
 20
643.87575
 10
855.744
 20
644.1922499999999
 10
855.4275
 20
644.4517499999999
 10
855.066
 20
644.6445
 10
854.6745
 20
644.763
 10
854.26725
 20
644.8035
 10
853.86
 20
644.763
 10
853.4684999999999
 20
644.6445
 10
853.107
 20
644.4517499999999
 10
852.7905
 20
644.1922499999999
 10
852.5309999999999
 20
643.87575
 10
852.33825
 20
643.5142499999999
 10
852.327
 20
643.476
 10
852.21975
 20
643.122
 10
852.17925
 20
642.71475
 10
852.21975
 20
642.3075
 10
852.3390000000001
 20
641.91525
 10
852.4807499999999
 20
641.6505
  0
ENDSEC
  0
SECTION
  2
OBJECTS
  0
DICTIONARY
  5
C
330
0
100
AcDbDictionary
281
    1
  3
ACAD_GROUP
350
D
  0
DICTIONARY
  5
D
330
C
100
AcDbDictionary
281
    1
  0
ENDSEC
  0
EOF
