999
dxfrw 0.6.3
  0
SECTION
  2
HEADER
  9
$ACADVER
  1
AC1021
  9
$DWGCODEPAGE
  3
ANSI_1252
  9
$INSBASE
 10
0
 20
0
 30
0
  9
$EXTMIN
 10
418.55925
 20
730.79475
 30
0
  9
$EXTMAX
 10
754.992
 20
792.159
 30
0
  9
$LIMMIN
 10
0
 20
0
  9
$LIMMAX
 10
420
 20
297
  9
$ORTHOMODE
 70
    0
  9
$REGENMODE
 70
    1
  9
$FILLMODE
 70
    1
  9
$QTEXTMODE
 70
    0
  9
$MIRRTEXT
 70
    0
  9
$LTSCALE
 40
1
  9
$ATTMODE
 70
    0
  9
$TEXTSIZE
 40
2.5
  9
$TRACEWID
 40
15.68
  9
$TEXTSTYLE
  7
STANDARD
  9
$CLAYER
  8
0
  9
$CELTYPE
  6
BYLAYER
  9
$CECOLOR
 62
  256
  9
$CELTSCALE
 40
1
  9
$DISPSILH
 70
    0
  9
$DIMSCALE
 40
2.5
  9
$DIMASZ
 40
2.5
  9
$DIMEXO
 40
0.625
  9
$DIMDLI
 40
3.75
  9
$DIMRND
 40
0
  9
$DIMDLE
 40
0
  9
$DIMEXE
 40
1.25
  9
$DIMTP
 40
0
  9
$DIMTM
 40
0
  9
$DIMTXT
 40
2.5
  9
$DIMCEN
 40
2.5
  9
$DIMTSZ
 40
0
  9
$DIMTOL
 70
    0
  9
$DIMLIM
 70
    0
  9
$DIMTIH
 70
    0
  9
$DIMTOH
 70
    0
  9
$DIMSE1
 70
    0
  9
$DIMSE2
 70
    0
  9
$DIMTAD
 70
    1
  9
$DIMZIN
 70
    8
  9
$DIMBLK
  1

  9
$DIMASO
 70
    1
  9
$DIMSHO
 70
    1
  9
$DIMPOST
  1

  9
$DIMAPOST
  1

  9
$DIMALT
 70
    0
  9
$DIMALTD
 70
    3
  9
$DIMALTF
 40
0.03937
  9
$DIMLFAC
 40
1
  9
$DIMTOFL
 70
    1
  9
$DIMTVP
 40
0
  9
$DIMTIX
 70
    0
  9
$DIMSOXD
 70
    0
  9
$DIMSAH
 70
    0
  9
$DIMBLK1
  1

  9
$DIMBLK2
  1

  9
$DIMSTYLE
  2
Standard
  9
$DIMCLRD
 70
    0
  9
$DIMCLRE
 70
    0
  9
$DIMCLRT
 70
    0
  9
$DIMTFAC
 40
1
  9
$DIMGAP
 40
0.625
  9
$DIMJUST
 70
    0
  9
$DIMSD1
 70
    0
  9
$DIMSD2
 70
    0
  9
$DIMTOLJ
 70
    0
  9
$DIMTZIN
 70
    8
  9
$DIMALTZ
 70
    0
  9
$DIMALTTZ
 70
    0
  9
$DIMUPT
 70
    0
  9
$DIMDEC
 70
    2
  9
$DIMTDEC
 70
    2
  9
$DIMALTU
 70
    2
  9
$DIMALTTD
 70
    3
  9
$DIMTXSTY
  7
STANDARD
  9
$DIMAUNIT
 70
    0
  9
$DIMADEC
 70
    0
  9
$DIMALTRND
 40
0
  9
$DIMAZIN
 70
    0
  9
$DIMDSEP
 70
   44
  9
$DIMATFIT
 70
    3
  9
$DIMFRAC
 70
    0
  9
$DIMLDRBLK
  1
STANDARD
  9
$DIMLUNIT
 70
    2
  9
$DIMLWD
 70
   -2
  9
$DIMLWE
 70
   -2
  9
$DIMTMOVE
 70
    0
  9
$DIMFXL
 40
1
  9
$DIMFXLON
 70
    0
  9
$DIMJOGANG
 40
0.7854
  9
$DIMTFILL
 70
    0
  9
$DIMTFILLCLR
 70
    0
  9
$DIMARCSYM
 70
    0
  9
$DIMLTYPE
  6

  9
$DIMLTEX1
  6

  9
$DIMLTEX2
  6

  9
$LUNITS
 70
    2
  9
$LUPREC
 70
    4
  9
$SKETCHINC
 40
1
  9
$FILLETRAD
 40
0
  9
$AUNITS
 70
    0
  9
$AUPREC
 70
    2
  9
$MENU
  1
.
  9
$ELEVATION
 40
0
  9
$PELEVATION
 40
0
  9
$THICKNESS
 40
0
  9
$LIMCHECK
 70
    0
  9
$CHAMFERA
 40
0
  9
$CHAMFERB
 40
0
  9
$CHAMFERC
 40
0
  9
$CHAMFERD
 40
0
  9
$SKPOLY
 70
    0
  9
$USRTIMER
 70
    1
  9
$ANGBASE
 50
0
  9
$ANGDIR
 70
    0
  9
$PDMODE
 70
   34
  9
$PDSIZE
 40
0
  9
$PLINEWID
 40
0
  9
$SPLFRAME
 70
    0
  9
$SPLINETYPE
 70
    2
  9
$SPLINESEGS
 70
    8
  9
$HANDSEED
  5
20000
  9
$SURFTAB1
 70
    6
  9
$SURFTAB2
 70
    6
  9
$SURFTYPE
 70
    6
  9
$SURFU
 70
    6
  9
$SURFV
 70
    6
  9
$UCSBASE
  2

  9
$UCSNAME
  2

  9
$UCSORG
 10
0
 20
0
 30
0
  9
$UCSXDIR
 10
1
 20
0
 30
0
  9
$UCSYDIR
 10
0
 20
1
 30
0
  9
$UCSORTHOREF
  2

  9
$UCSORTHOVIEW
 70
    0
  9
$UCSORGTOP
 10
0
 20
0
 30
0
  9
$UCSORGBOTTOM
 10
0
 20
0
 30
0
  9
$UCSORGLEFT
 10
0
 20
0
 30
0
  9
$UCSORGRIGHT
 10
0
 20
0
 30
0
  9
$UCSORGFRONT
 10
0
 20
0
 30
0
  9
$UCSORGBACK
 10
0
 20
0
 30
0
  9
$PUCSBASE
  2

  9
$PUCSNAME
  2

  9
$PUCSORG
 10
0
 20
0
 30
0
  9
$PUCSXDIR
 10
1
 20
0
 30
0
  9
$PUCSYDIR
 10
0
 20
1
 30
0
  9
$PUCSORTHOREF
  2

  9
$PUCSORTHOVIEW
 70
    0
  9
$PUCSORGTOP
 10
0
 20
0
 30
0
  9
$PUCSORGBOTTOM
 10
0
 20
0
 30
0
  9
$PUCSORGLEFT
 10
0
 20
0
 30
0
  9
$PUCSORGRIGHT
 10
0
 20
0
 30
0
  9
$PUCSORGFRONT
 10
0
 20
0
 30
0
  9
$PUCSORGBACK
 10
0
 20
0
 30
0
  9
$USERI1
 70
    0
  9
$USERI2
 70
    0
  9
$USERI3
 70
    0
  9
$USERI4
 70
    0
  9
$USERI5
 70
    0
  9
$USERR1
 40
0
  9
$USERR2
 40
0
  9
$USERR3
 40
0
  9
$USERR4
 40
0
  9
$USERR5
 40
0
  9
$WORLDVIEW
 70
    1
  9
$SHADEDGE
 70
    3
  9
$SHADEDIF
 70
   70
  9
$TILEMODE
 70
    1
  9
$MAXACTVP
 70
   64
  9
$PINSBASE
 10
0
 20
0
 30
0
  9
$PLIMCHECK
 70
    0
  9
$PEXTMIN
 10
0
 20
0
 30
0
  9
$PEXTMAX
 10
0
 20
0
 30
0
  9
$GRIDMODE
 70
    0
  9
$SNAPSTYLE
 70
    0
  9
$PLIMMIN
 10
0
 20
0
  9
$PLIMMAX
 10
210
 20
297
  9
$UNITMODE
 70
    0
  9
$VISRETAIN
 70
    1
  9
$PLINEGEN
 70
    0
  9
$PSLTSCALE
 70
    1
  9
$TREEDEPTH
 70
 3020
  9
$CMLSTYLE
  2
Standard
  9
$CMLJUST
 70
    0
  9
$CMLSCALE
 40
20
  9
$PROXYGRAPHICS
 70
    1
  9
$MEASUREMENT
 70
    1
  9
$CELWEIGHT
370
   -1
  9
$ENDCAPS
280
    0
  9
$JOINSTYLE
280
    0
  9
$LWDISPLAY
290
    0
  9
$INSUNITS
 70
    4
  9
$HYPERLINKBASE
  1

  9
$STYLESHEET
  1

  9
$XEDIT
290
    1
  9
$CEPSNTYPE
380
    0
  9
$PSTYLEMODE
290
    1
  9
$EXTNAMES
290
    1
  9
$PSVPSCALE
 40
1
  9
$OLESTARTUP
290
    0
  9
$SORTENTS
280
  127
  9
$INDEXCTL
280
    0
  9
$HIDETEXT
280
    1
  9
$XCLIPFRAME
290
    0
  9
$HALOGAP
280
    0
  9
$OBSCOLOR
 70
  257
  9
$OBSLTYPE
280
    0
  9
$INTERSECTIONDISPLAY
280
    0
  9
$INTERSECTIONCOLOR
 70
  257
  9
$DIMASSOC
280
    1
  9
$PROJECTNAME
  1

  9
$CAMERADISPLAY
290
    0
  9
$LENSLENGTH
 40
50
  9
$CAMERAHEIGHT
 40
0
  9
$STEPSPERSEC
 40
2
  9
$STEPSIZE
 40
50
  9
$3DDWFPREC
 40
2
  9
$PSOLWIDTH
 40
5
  9
$PSOLHEIGHT
 40
80
  9
$LOFTANG1
 40
1.570796326794897
  9
$LOFTANG2
 40
1.570796326794897
  9
$LOFTMAG1
 40
0
  9
$LOFTMAG2
 40
0
  9
$LOFTPARAM
 70
    7
  9
$LOFTNORMALS
280
    1
  9
$LATITUDE
 40
1
  9
$LONGITUDE
 40
1
  9
$NORTHDIRECTION
 40
0
  9
$TIMEZONE
 70
-8000
  9
$LIGHTGLYPHDISPLAY
280
    1
  9
$TILEMODELIGHTSYNCH
280
    1
  9
$SOLIDHIST
280
    1
  9
$SHOWHIST
280
    1
  9
$DWFFRAME
280
    2
  9
$DGNFRAME
280
    0
  9
$REALWORLDSCALE
290
    1
  9
$INTERFERECOLOR
 62
    1
  9
$CSHADOW
280
    0
  9
$SHADOWPLANELOCATION
 40
0
  0
ENDSEC
  0
SECTION
  2
CLASSES
  0
ENDSEC
  0
SECTION
  2
TABLES
  0
TABLE
  2
VPORT
  5
8
330
0
100
AcDbSymbolTable
 70
    1
  0
VPORT
  5
31
330
2
100
AcDbSymbolTableRecord
100
AcDbViewportTableRecord
  2
*ACTIVE
 70
    0
 10
0
 20
0
 11
1
 21
1
 12
390.0641740128609
 22
420.4086288512023
 13
0
 23
0
 14
10
 24
10
 15
10
 25
10
 16
0
 26
0
 36
1
 17
0
 27
0
 37
0
 40
156.8716362248799
 41
2.46189917936694
 42
50
 43
0
 44
0
 50
0
 51
0
 71
    0
 72
  100
 73
    1
 74
    3
 75
    0
 76
    0
 77
    0
 78
    0
281
    0
 65
    1
110
0
120
0
130
0
111
1
121
0
131
0
112
0
122
1
132
0
 79
    0
146
0
348
10020
 60
    7
 61
    5
292
1
282
    1
141
0
142
0
 63
  250
421
3358443
  0
ENDTAB
  0
TABLE
  2
LTYPE
  5
5
330
0
100
AcDbSymbolTable
 70
    4
  0
LTYPE
  5
14
330
5
100
AcDbSymbolTableRecord
100
AcDbLinetypeTableRecord
  2
ByBlock
 70
    0
  3

 72
   65
 73
    0
 40
0
  0
LTYPE
  5
15
330
5
100
AcDbSymbolTableRecord
100
AcDbLinetypeTableRecord
  2
ByLayer
 70
    0
  3

 72
   65
 73
    0
 40
0
  0
LTYPE
  5
16
330
5
100
AcDbSymbolTableRecord
100
AcDbLinetypeTableRecord
  2
Continuous
 70
    0
  3
Solid line
 72
   65
 73
    0
 40
0
  0
LTYPE
  5
32
330
5
100
AcDbSymbolTableRecord
100
AcDbLinetypeTableRecord
  2
DOT
 70
    0
  3
Dot . . . . . . . . . . . . . . . . . . . . . .
 72
   65
 73
    2
 40
6.35
 49
0
 74
    0
 49
-6.35
 74
    0
  0
LTYPE
  5
33
330
5
100
AcDbSymbolTableRecord
100
AcDbLinetypeTableRecord
  2
DOTTINY
 70
    0
  3
Dot (.15x) .....................................
 72
   65
 73
    2
 40
0.9525
 49
0
 74
    0
 49
-0.9525
 74
    0
  0
LTYPE
  5
34
330
5
100
AcDbSymbolTableRecord
100
AcDbLinetypeTableRecord
  2
DOT2
 70
    0
  3
Dot (.5x) .....................................
 72
   65
 73
    2
 40
3.175
 49
0
 74
    0
 49
-3.175
 74
    0
  0
LTYPE
  5
35
330
5
100
AcDbSymbolTableRecord
100
AcDbLinetypeTableRecord
  2
DOTX2
 70
    0
  3
Dot (2x) .  .  .  .  .  .  .  .  .  .  .  .  .
 72
   65
 73
    2
 40
12.7
 49
0
 74
    0
 49
-12.7
 74
    0
  0
LTYPE
  5
36
330
5
100
AcDbSymbolTableRecord
100
AcDbLinetypeTableRecord
  2
DASHED
 70
    0
  3
Dashed _ _ _ _ _ _ _ _ _ _ _ _ _ _ _ _ _
 72
   65
 73
    2
 40
19.05
 49
12.7
 74
    0
 49
-6.35
 74
    0
  0
LTYPE
  5
37
330
5
100
AcDbSymbolTableRecord
100
AcDbLinetypeTableRecord
  2
DASHEDTINY
 70
    0
  3
Dashed (.15x) _ _ _ _ _ _ _ _ _ _ _ _ _ _ _ _ _
 72
   65
 73
    2
 40
2.8575
 49
1.905
 74
    0
 49
-0.9525
 74
    0
  0
LTYPE
  5
38
330
5
100
AcDbSymbolTableRecord
100
AcDbLinetypeTableRecord
  2
DASHED2
 70
    0
  3
Dashed (.5x) _ _ _ _ _ _ _ _ _ _ _ _ _ _ _ _ _
 72
   65
 73
    2
 40
9.524999999999999
 49
6.35
 74
    0
 49
-3.175
 74
    0
  0
LTYPE
  5
39
330
5
100
AcDbSymbolTableRecord
100
AcDbLinetypeTableRecord
  2
DASHEDX2
 70
    0
  3
Dashed (2x) ____  ____  ____  ____  ____  ___
 72
   65
 73
    2
 40
38.09999999999999
 49
25.4
 74
    0
 49
-12.7
 74
    0
  0
LTYPE
  5
3A
330
5
100
AcDbSymbolTableRecord
100
AcDbLinetypeTableRecord
  2
DASHDOT
 70
    0
  3
Dash dot __ . __ . __ . __ . __ . __ . __ . __
 72
   65
 73
    4
 40
25.4
 49
12.7
 74
    0
 49
-6.35
 74
    0
 49
0
 74
    0
 49
-6.35
 74
    0
  0
LTYPE
  5
3B
330
5
100
AcDbSymbolTableRecord
100
AcDbLinetypeTableRecord
  2
DASHDOTTINY
 70
    0
  3
Dash dot (.15x) _._._._._._._._._._._._._._._.
 72
   65
 73
    4
 40
3.81
 49
1.905
 74
    0
 49
-0.9525
 74
    0
 49
0
 74
    0
 49
-0.9525
 74
    0
  0
LTYPE
  5
3C
330
5
100
AcDbSymbolTableRecord
100
AcDbLinetypeTableRecord
  2
DASHDOT2
 70
    0
  3
Dash dot (.5x) _._._._._._._._._._._._._._._.
 72
   65
 73
    4
 40
12.7
 49
6.35
 74
    0
 49
-3.175
 74
    0
 49
0
 74
    0
 49
-3.175
 74
    0
  0
LTYPE
  5
3D
330
5
100
AcDbSymbolTableRecord
100
AcDbLinetypeTableRecord
  2
DASHDOTX2
 70
    0
  3
Dash dot (2x) ____  .  ____  .  ____  .  ___
 72
   65
 73
    4
 40
50.8
 49
25.4
 74
    0
 49
-12.7
 74
    0
 49
0
 74
    0
 49
-12.7
 74
    0
  0
LTYPE
  5
3E
330
5
100
AcDbSymbolTableRecord
100
AcDbLinetypeTableRecord
  2
DIVIDE
 70
    0
  3
Divide ____ . . ____ . . ____ . . ____ . . ____
 72
   65
 73
    6
 40
31.75
 49
12.7
 74
    0
 49
-6.35
 74
    0
 49
0
 74
    0
 49
-6.35
 74
    0
 49
0
 74
    0
 49
-6.35
 74
    0
  0
LTYPE
  5
3F
330
5
100
AcDbSymbolTableRecord
100
AcDbLinetypeTableRecord
  2
DIVIDETINY
 70
    0
  3
Divide (.15x) __..__..__..__..__..__..__..__.._
 72
   65
 73
    6
 40
4.7625
 49
1.905
 74
    0
 49
-0.9525
 74
    0
 49
0
 74
    0
 49
-0.9525
 74
    0
 49
0
 74
    0
 49
-0.9525
 74
    0
  0
LTYPE
  5
40
330
5
100
AcDbSymbolTableRecord
100
AcDbLinetypeTableRecord
  2
DIVIDE2
 70
    0
  3
Divide (.5x) __..__..__..__..__..__..__..__.._
 72
   65
 73
    6
 40
15.875
 49
6.35
 74
    0
 49
-3.175
 74
    0
 49
0
 74
    0
 49
-3.175
 74
    0
 49
0
 74
    0
 49
-3.175
 74
    0
  0
LTYPE
  5
41
330
5
100
AcDbSymbolTableRecord
100
AcDbLinetypeTableRecord
  2
DIVIDEX2
 70
    0
  3
Divide (2x) ________  .  .  ________  .  .  _
 72
   65
 73
    6
 40
63.5
 49
25.4
 74
    0
 49
-12.7
 74
    0
 49
0
 74
    0
 49
-12.7
 74
    0
 49
0
 74
    0
 49
-12.7
 74
    0
  0
LTYPE
  5
42
330
5
100
AcDbSymbolTableRecord
100
AcDbLinetypeTableRecord
  2
BORDER
 70
    0
  3
Border __ __ . __ __ . __ __ . __ __ . __ __ .
 72
   65
 73
    6
 40
44.45
 49
12.7
 74
    0
 49
-6.35
 74
    0
 49
12.7
 74
    0
 49
-6.35
 74
    0
 49
0
 74
    0
 49
-6.35
 74
    0
  0
LTYPE
  5
43
330
5
100
AcDbSymbolTableRecord
100
AcDbLinetypeTableRecord
  2
BORDERTINY
 70
    0
  3
Border (.15x) __.__.__.__.__.__.__.__.__.__.__.
 72
   65
 73
    6
 40
6.6675
 49
1.905
 74
    0
 49
-0.9525
 74
    0
 49
1.905
 74
    0
 49
-0.9525
 74
    0
 49
0
 74
    0
 49
-0.9525
 74
    0
  0
LTYPE
  5
44
330
5
100
AcDbSymbolTableRecord
100
AcDbLinetypeTableRecord
  2
BORDER2
 70
    0
  3
Border (.5x) __.__.__.__.__.__.__.__.__.__.__.
 72
   65
 73
    6
 40
22.225
 49
6.35
 74
    0
 49
-3.175
 74
    0
 49
6.35
 74
    0
 49
-3.175
 74
    0
 49
0
 74
    0
 49
-3.175
 74
    0
  0
LTYPE
  5
45
330
5
100
AcDbSymbolTableRecord
100
AcDbLinetypeTableRecord
  2
BORDERX2
 70
    0
  3
Border (2x) ____  ____  .  ____  ____  .  ___
 72
   65
 73
    6
 40
88.89999999999999
 49
25.4
 74
    0
 49
-12.7
 74
    0
 49
25.4
 74
    0
 49
-12.7
 74
    0
 49
0
 74
    0
 49
-12.7
 74
    0
  0
LTYPE
  5
46
330
5
100
AcDbSymbolTableRecord
100
AcDbLinetypeTableRecord
  2
CENTER
 70
    0
  3
Center ____ _ ____ _ ____ _ ____ _ ____ _ ____
 72
   65
 73
    4
 40
50.8
 49
31.75
 74
    0
 49
-6.35
 74
    0
 49
6.35
 74
    0
 49
-6.35
 74
    0
  0
LTYPE
  5
47
330
5
100
AcDbSymbolTableRecord
100
AcDbLinetypeTableRecord
  2
CENTERTINY
 70
    0
  3
Center (.15x) ___ _ ___ _ ___ _ ___ _ ___ _ ___
 72
   65
 73
    4
 40
7.619999999999999
 49
4.7625
 74
    0
 49
-0.9525
 74
    0
 49
0.9525
 74
    0
 49
-0.9525
 74
    0
  0
LTYPE
  5
48
330
5
100
AcDbSymbolTableRecord
100
AcDbLinetypeTableRecord
  2
CENTER2
 70
    0
  3
Center (.5x) ___ _ ___ _ ___ _ ___ _ ___ _ ___
 72
   65
 73
    4
 40
28.575
 49
19.05
 74
    0
 49
-3.175
 74
    0
 49
3.175
 74
    0
 49
-3.175
 74
    0
  0
LTYPE
  5
49
330
5
100
AcDbSymbolTableRecord
100
AcDbLinetypeTableRecord
  2
CENTERX2
 70
    0
  3
Center (2x) ________  __  ________  __  _____
 72
   65
 73
    4
 40
101.6
 49
63.5
 74
    0
 49
-12.7
 74
    0
 49
12.7
 74
    0
 49
-12.7
 74
    0
  0
ENDTAB
  0
TABLE
  2
LAYER
  5
2
330
0
100
AcDbSymbolTable
 70
    1
  0
LAYER
  5
10
330
2
100
AcDbSymbolTableRecord
100
AcDbLayerTableRecord
  2
0
 70
    0
 62
    7
  6
CONTINUOUS
370
   -3
390
F
  0
LAYER
  5
4A
330
2
100
AcDbSymbolTableRecord
100
AcDbLayerTableRecord
  2
pocket
 70
    0
 62
    4
  6
CONTINUOUS
370
    0
390
F
  0
LAYER
  5
4B
330
2
100
AcDbSymbolTableRecord
100
AcDbLayerTableRecord
  2
profiling
 70
    0
 62
    3
  6
CONTINUOUS
370
    0
390
F
  0
LAYER
  5
4C
330
2
100
AcDbSymbolTableRecord
100
AcDbLayerTableRecord
  2
vcut
 70
    0
 62
    6
  6
CONTINUOUS
370
    0
390
F
  0
ENDTAB
  0
TABLE
  2
STYLE
  5
3
330
0
100
AcDbSymbolTable
 70
    3
  0
STYLE
  5
4D
330
2
100
AcDbSymbolTableRecord
100
AcDbTextStyleTableRecord
  2
Standard
 70
    0
 40
0
 41
1
 50
0
 71
    0
 42
1
  3
txt
  4

  0
ENDTAB
  0
TABLE
  2
VIEW
  5
6
330
0
100
AcDbSymbolTable
 70
    0
  0
ENDTAB
  0
TABLE
  2
UCS
  5
7
330
0
100
AcDbSymbolTable
 70
    0
  0
ENDTAB
  0
TABLE
  2
APPID
  5
9
330
0
100
AcDbSymbolTable
 70
    1
  0
APPID
  5
12
330
9
100
AcDbSymbolTableRecord
100
AcDbRegAppTableRecord
  2
ACAD
 70
    0
  0
APPID
  5
4E
330
9
100
AcDbSymbolTableRecord
100
AcDbRegAppTableRecord
  2
LibreCad
 70
    0
  0
ENDTAB
  0
TABLE
  2
DIMSTYLE
  5
A
330
0
100
AcDbSymbolTable
 70
    1
100
AcDbDimStyleTable
 71
    1
  0
DIMSTYLE
105
4F
330
A
100
AcDbSymbolTableRecord
100
AcDbDimStyleTableRecord
  2
Standard
 70
    0
 40
1
 41
2.5
 42
0.625
 43
0.38
 44
1.25
 45
0
 46
0
 47
0
 48
0
 49
1
140
2.5
141
0.09
142
2.5
143
25.4
144
1
145
0
146
1
147
0.625
148
0
 71
    0
 72
    0
 73
    0
 74
    1
 75
    0
 76
    0
 77
    0
 78
    1
 79
    0
170
    0
171
    2
172
    0
173
    0
174
    0
175
    0
176
    0
177
    0
178
    0
179
    0
271
    2
272
    4
273
    2
274
    2
275
    0
276
    0
277
    2
278
    0
279
    0
280
    0
281
    0
282
    0
283
    1
284
    0
285
    0
286
    0
288
    0
289
    3
340
standard
341

371
   -2
372
   -2
  0
ENDTAB
  0
TABLE
  2
BLOCK_RECORD
  5
1
330
0
100
AcDbSymbolTable
 70
    2
  0
BLOCK_RECORD
  5
1F
330
1
100
AcDbSymbolTableRecord
100
AcDbBlockTableRecord
  2
*Model_Space
 70
    0
280
    1
281
    0
  0
BLOCK_RECORD
  5
1E
330
1
100
AcDbSymbolTableRecord
100
AcDbBlockTableRecord
  2
*Paper_Space
 70
    0
280
    1
281
    0
  0
ENDTAB
  0
ENDSEC
  0
SECTION
  2
BLOCKS
  0
BLOCK
  5
20
330
1F
100
AcDbEntity
  8
0
100
AcDbBlockBegin
  2
*Model_Space
 70
    0
 10
0
 20
0
 30
0
  3
*Model_Space
  1

  0
ENDBLK
  5
21
330
1F
100
AcDbEntity
  8
0
100
AcDbBlockEnd
  0
BLOCK
  5
1C
330
1B
100
AcDbEntity
  8
0
100
AcDbBlockBegin
  2
*Paper_Space
 70
    0
 10
0
 20
0
 30
0
  3
*Paper_Space
  1

  0
ENDBLK
  5
1D
330
1F
100
AcDbEntity
  8
0
100
AcDbBlockEnd
  0
ENDSEC
  0
SECTION
  2
ENTITIES
  0
LWPOLYLINE
  5
50
100
AcDbEntity
  8
vcut
  6
ByLayer
 62
  256
370
   -1
100
AcDbPolyline
 90
    2
 70
    0
 43
0
 10
502.14225
 20
730.79475
 10
502.14225
 20
792.15525
  0
LWPOLYLINE
  5
51
100
AcDbEntity
  8
vcut
  6
ByLayer
 62
  256
370
   -1
100
AcDbPolyline
 90
    2
 70
    0
 43
0
 10
671.409
 20
730.79475
 10
671.409
 20
792.15525
  0
LWPOLYLINE
  5
52
100
AcDbEntity
  8
profiling
  6
ByLayer
 62
  256
370
   -1
100
AcDbPolyline
 90
  291
 70
    1
 43
0
 10
502.14225
 20
730.79475
 10
449.202
 20
730.79475
 10
449.202
 20
730.79475
 10
449.202
 20
730.79475
 10
447.69825
 20
730.87575
 10
447.69825
 20
730.87575
 10
446.19825
 20
730.98675
 10
446.19825
 20
730.98675
 10
444.70575
 20
731.1704999999999
 10
444.70575
 20
731.1704999999999
 10
443.22375
 20
731.4277499999999
 10
443.22375
 20
731.4277499999999
 10
441.756
 20
731.7569999999999
 10
441.756
 20
731.7569999999999
 10
440.30625
 20
732.15825
 10
440.30625
 20
732.15825
 10
438.87825
 20
732.63
 10
438.87825
 20
732.63
 10
437.475
 20
733.1715
 10
437.475
 20
733.1715
 10
436.10025
 20
733.78125
 10
436.10025
 20
733.78125
 10
434.757
 20
734.45775
 10
434.757
 20
734.45775
 10
433.44825
 20
735.19875
 10
433.44825
 20
735.19875
 10
432.17775
 20
736.0035
 10
432.17775
 20
736.0035
 10
430.9485
 20
736.86975
 10
430.9485
 20
736.86975
 10
429.76275
 20
737.79525
 10
429.76275
 20
737.79525
 10
428.62425
 20
738.77775
 10
428.62425
 20
738.77775
 10
427.53525
 20
739.8150000000001
 10
427.53525
 20
739.8150000000001
 10
426.498
 20
740.904
 10
426.498
 20
740.904
 10
425.5155
 20
742.0425
 10
425.5155
 20
742.0425
 10
424.59
 20
743.22825
 10
424.59
 20
743.22825
 10
423.72375
 20
744.45825
 10
423.72375
 20
744.45825
 10
422.919
 20
745.72875
 10
422.919
 20
745.72875
 10
422.178
 20
747.0375
 10
422.178
 20
747.0375
 10
421.5015
 20
748.38075
 10
421.5015
 20
748.38075
 10
420.89175
 20
749.7555
 10
420.89175
 20
749.7555
 10
420.35025
 20
751.1587500000001
 10
420.35025
 20
751.1587500000001
 10
419.8785
 20
752.5867500000001
 10
419.8785
 20
752.5867500000001
 10
419.47725
 20
754.0365
 10
419.47725
 20
754.0365
 10
419.148
 20
755.50425
 10
419.148
 20
755.50425
 10
418.89075
 20
756.98625
 10
418.89075
 20
756.98625
 10
418.707
 20
758.47875
 10
418.707
 20
758.47875
 10
418.707
 20
758.47875
 10
418.596
 20
759.97875
 10
418.596
 20
759.97875
 10
418.55925
 20
761.47725
 10
418.55925
 20
761.47725
 10
418.55925
 20
761.47725
 10
418.55925
 20
761.47725
 10
418.55925
 20
761.47725
 10
418.596
 20
762.9757499999999
 10
418.596
 20
762.9757499999999
 10
418.707
 20
764.4757499999999
 10
418.707
 20
764.4757499999999
 10
418.707
 20
764.4757499999999
 10
418.89075
 20
765.96825
 10
418.89075
 20
765.96825
 10
419.148
 20
767.45025
 10
419.148
 20
767.45025
 10
419.47725
 20
768.918
 10
419.47725
 20
768.918
 10
419.8785
 20
770.36775
 10
419.8785
 20
770.36775
 10
420.35025
 20
771.79575
 10
420.35025
 20
771.79575
 10
420.89175
 20
773.199
 10
420.89175
 20
773.199
 10
421.5015
 20
774.57375
 10
421.5015
 20
774.57375
 10
422.178
 20
775.917
 10
422.178
 20
775.917
 10
422.919
 20
777.2257499999999
 10
422.919
 20
777.2257499999999
 10
423.72375
 20
778.49625
 10
423.72375
 20
778.49625
 10
424.59
 20
779.7255
 10
424.59
 20
779.7255
 10
425.5155
 20
780.91125
 10
425.5155
 20
780.91125
 10
426.498
 20
782.04975
 10
426.498
 20
782.04975
 10
427.53525
 20
783.13875
 10
427.53525
 20
783.13875
 10
428.62425
 20
784.176
 10
428.62425
 20
784.176
 10
429.76275
 20
785.1585
 10
429.76275
 20
785.1585
 10
430.9485
 20
786.0839999999999
 10
430.9485
 20
786.0839999999999
 10
432.17775
 20
786.95025
 10
432.17775
 20
786.95025
 10
433.44825
 20
787.755
 10
433.44825
 20
787.755
 10
434.757
 20
788.496
 10
434.757
 20
788.496
 10
436.10025
 20
789.1725
 10
436.10025
 20
789.1725
 10
437.475
 20
789.78225
 10
437.475
 20
789.78225
 10
438.87825
 20
790.32375
 10
438.87825
 20
790.32375
 10
440.30625
 20
790.7954999999999
 10
440.30625
 20
790.7954999999999
 10
441.756
 20
791.19675
 10
441.756
 20
791.19675
 10
443.22375
 20
791.526
 10
443.22375
 20
791.526
 10
444.70575
 20
791.78325
 10
444.70575
 20
791.78325
 10
444.70575
 20
791.78325
 10
446.19825
 20
791.967
 10
446.19825
 20
791.967
 10
447.69825
 20
792.078
 10
447.69825
 20
792.078
 10
447.69825
 20
792.078
 10
449.202
 20
792.159
 10
449.202
 20
792.159
 10
449.202
 20
792.159
 10
502.14225
 20
792.159
 10
586.776
 20
792.159
 10
671.409
 20
792.159
 10
724.34925
 20
792.159
 10
724.34925
 20
792.159
 10
724.34925
 20
792.159
 10
725.853
 20
792.078
 10
725.853
 20
792.078
 10
727.353
 20
791.967
 10
727.353
 20
791.967
 10
728.8455
 20
791.78325
 10
728.8455
 20
791.78325
 10
728.8455
 20
791.78325
 10
730.3275
 20
791.526
 10
730.3275
 20
791.526
 10
731.79525
 20
791.19675
 10
731.79525
 20
791.19675
 10
731.79525
 20
791.19675
 10
733.245
 20
790.7954999999999
 10
733.245
 20
790.7954999999999
 10
734.673
 20
790.32375
 10
734.673
 20
790.32375
 10
736.07625
 20
789.78225
 10
736.07625
 20
789.78225
 10
737.451
 20
789.1725
 10
737.451
 20
789.1725
 10
738.79425
 20
788.496
 10
738.79425
 20
788.496
 10
738.79425
 20
788.496
 10
740.103
 20
787.755
 10
740.103
 20
787.755
 10
741.3735
 20
786.95025
 10
741.3735
 20
786.95025
 10
742.60275
 20
786.0839999999999
 10
742.60275
 20
786.0839999999999
 10
743.7885
 20
785.1585
 10
743.7885
 20
785.1585
 10
744.927
 20
784.176
 10
744.927
 20
784.176
 10
746.016
 20
783.13875
 10
746.016
 20
783.13875
 10
747.05325
 20
782.04975
 10
747.05325
 20
782.04975
 10
748.03575
 20
780.91125
 10
748.03575
 20
780.91125
 10
748.9612499999999
 20
779.7255
 10
748.9612499999999
 20
779.7255
 10
749.8275
 20
778.49625
 10
749.8275
 20
778.49625
 10
750.63225
 20
777.2257499999999
 10
750.63225
 20
777.2257499999999
 10
751.37325
 20
775.917
 10
751.37325
 20
775.917
 10
752.04975
 20
774.57375
 10
752.04975
 20
774.57375
 10
752.6595
 20
773.199
 10
752.6595
 20
773.199
 10
753.201
 20
771.79575
 10
753.201
 20
771.79575
 10
753.67275
 20
770.36775
 10
753.67275
 20
770.36775
 10
754.074
 20
768.918
 10
754.074
 20
768.918
 10
754.40325
 20
767.45025
 10
754.40325
 20
767.45025
 10
754.6605
 20
765.96825
 10
754.6605
 20
765.96825
 10
754.84425
 20
764.4757499999999
 10
754.84425
 20
764.4757499999999
 10
754.84425
 20
764.4757499999999
 10
754.95525
 20
762.9757499999999
 10
754.95525
 20
762.9757499999999
 10
754.992
 20
761.47725
 10
754.992
 20
761.47725
 10
754.992
 20
761.47725
 10
754.992
 20
761.47725
 10
754.992
 20
761.47725
 10
754.95525
 20
759.97875
 10
754.95525
 20
759.97875
 10
754.84425
 20
758.47875
 10
754.84425
 20
758.47875
 10
754.84425
 20
758.47875
 10
754.6605
 20
756.98625
 10
754.6605
 20
756.98625
 10
754.40325
 20
755.50425
 10
754.40325
 20
755.50425
 10
754.074
 20
754.0365
 10
754.074
 20
754.0365
 10
753.67275
 20
752.5867500000001
 10
753.67275
 20
752.5867500000001
 10
753.201
 20
751.1587500000001
 10
753.201
 20
751.1587500000001
 10
752.6595
 20
749.7555
 10
752.6595
 20
749.7555
 10
752.04975
 20
748.38075
 10
752.04975
 20
748.38075
 10
751.37325
 20
747.0375
 10
751.37325
 20
747.0375
 10
750.63225
 20
745.72875
 10
750.63225
 20
745.72875
 10
749.8275
 20
744.45825
 10
749.8275
 20
744.45825
 10
748.9612499999999
 20
743.229
 10
748.9612499999999
 20
743.229
 10
748.03575
 20
742.0432499999999
 10
748.03575
 20
742.0432499999999
 10
747.05325
 20
740.90475
 10
747.05325
 20
740.90475
 10
746.016
 20
739.81575
 10
746.016
 20
739.81575
 10
744.927
 20
738.7785
 10
744.927
 20
738.7785
 10
743.7885
 20
737.796
 10
743.7885
 20
737.796
 10
742.60275
 20
736.8705
 10
742.60275
 20
736.8705
 10
741.3735
 20
736.00425
 10
741.3735
 20
736.00425
 10
740.103
 20
735.1994999999999
 10
740.103
 20
735.1994999999999
 10
738.79425
 20
734.4585
 10
738.79425
 20
734.4585
 10
738.79425
 20
734.4585
 10
737.451
 20
733.782
 10
737.451
 20
733.782
 10
736.07625
 20
733.17225
 10
736.07625
 20
733.17225
 10
734.673
 20
732.63075
 10
734.673
 20
732.63075
 10
733.245
 20
732.159
 10
733.245
 20
732.159
 10
731.79525
 20
731.75775
 10
731.79525
 20
731.75775
 10
731.79525
 20
731.75775
 10
730.3275
 20
731.4285
 10
730.3275
 20
731.4285
 10
730.3275
 20
731.4285
 10
730.3275
 20
731.4285
 10
728.8455
 20
731.17125
 10
728.8455
 20
731.17125
 10
728.8455
 20
731.17125
 10
727.353
 20
730.9875
 10
727.353
 20
730.9875
 10
725.853
 20
730.8765
 10
725.853
 20
730.8765
 10
724.34925
 20
730.7954999999999
 10
724.34925
 20
730.7954999999999
 10
724.34925
 20
730.7954999999999
 10
671.409
 20
730.7954999999999
 10
586.776
 20
730.7954999999999
 10
502.14225
 20
730.7954999999999
  0
LWPOLYLINE
  5
53
100
AcDbEntity
  8
profiling
  6
ByLayer
 62
  256
370
   -1
100
AcDbPolyline
 90
   33
 70
    1
 43
0
 10
599.64975
 20
751.32525
 10
599.259
 20
751.44375
 10
598.8525
 20
751.4835
 10
598.446
 20
751.44375
 10
598.0545
 20
751.32525
 10
597.69375
 20
751.1325000000001
 10
597.378
 20
750.873
 10
597.1185
 20
750.55725
 10
596.92575
 20
750.1965
 10
596.80725
 20
749.8049999999999
 10
596.7675
 20
749.3985
 10
596.80725
 20
748.992
 10
596.92575
 20
748.6012500000001
 10
597.1185
 20
748.2405
 10
597.378
 20
747.92475
 10
597.69375
 20
747.66525
 10
598.0545
 20
747.4725
 10
598.446
 20
747.354
 10
598.8525
 20
747.31425
 10
599.259
 20
747.354
 10
599.64975
 20
747.4725
 10
600.0105
 20
747.66525
 10
600.32625
 20
747.92475
 10
600.58575
 20
748.2405
 10
600.7785
 20
748.6012500000001
 10
600.897
 20
748.992
 10
600.93675
 20
749.3985
 10
600.897
 20
749.8049999999999
 10
600.7785
 20
750.1965
 10
600.58575
 20
750.55725
 10
600.32625
 20
750.873
 10
600.0105
 20
751.1325000000001
 10
599.64975
 20
751.32525
  0
LWPOLYLINE
  5
54
100
AcDbEntity
  8
profiling
  6
ByLayer
 62
  256
370
   -1
100
AcDbPolyline
 90
   42
 70
    1
 43
0
 10
449.24625
 20
777.7402499999999
 10
449.20125
 20
777.7357500000001
 10
448.737
 20
777.6900000000001
 10
448.44975
 20
777.603
 10
448.24725
 20
777.5415
 10
447.84225
 20
777.32475
 10
447.79575
 20
777.3
 10
447.7665
 20
777.276
 10
447.4005
 20
776.976
 10
447.07575
 20
776.58075
 10
446.83425
 20
776.12925
 10
446.68575
 20
775.6395
 10
446.6355
 20
775.13025
 10
446.68575
 20
774.621
 10
446.83425
 20
774.13125
 10
447.07575
 20
773.67975
 10
447.4005
 20
773.2845
 10
447.79575
 20
772.95975
 10
448.24725
 20
772.71825
 10
448.44975
 20
772.65675
 10
448.737
 20
772.56975
 10
449.20125
 20
772.524
 10
449.24625
 20
772.5195
 10
449.7555
 20
772.56975
 10
450.24525
 20
772.71825
 10
450.69675
 20
772.95975
 10
451.092
 20
773.2845
 10
451.41675
 20
773.67975
 10
451.42725
 20
773.69925
 10
451.6575
 20
774.1305
 10
451.8
 20
774.59925
 10
451.80675
 20
774.6202500000001
 10
451.857
 20
775.1295
 10
451.80675
 20
775.63875
 10
451.79325
 20
775.68375
 10
451.65825
 20
776.1285
 10
451.41675
 20
776.58
 10
451.092
 20
776.97525
 10
450.69675
 20
777.3
 10
450.24525
 20
777.5415
 10
449.7555
 20
777.6900000000001
 10
449.24625
 20
777.7402499999999
  0
LWPOLYLINE
  5
55
100
AcDbEntity
  8
profiling
  6
ByLayer
 62
  256
370
   -1
100
AcDbPolyline
 90
   33
 70
    1
 43
0
 10
573.225
 20
775.026
 10
572.9655
 20
774.71025
 10
572.77275
 20
774.3495
 10
572.65425
 20
773.95875
 10
572.6145
 20
773.55225
 10
572.65425
 20
773.14575
 10
572.77275
 20
772.75425
 10
572.9655
 20
772.3935
 10
573.225
 20
772.07775
 10
573.54075
 20
771.81825
 10
573.9015000000001
 20
771.6255
 10
574.293
 20
771.5069999999999
 10
574.6994999999999
 20
771.46725
 10
575.106
 20
771.5069999999999
 10
575.49675
 20
771.6255
 10
575.8575
 20
771.81825
 10
576.1732500000001
 20
772.07775
 10
576.4327500000001
 20
772.3935
 10
576.6255
 20
772.75425
 10
576.744
 20
773.14575
 10
576.7837500000001
 20
773.55225
 10
576.744
 20
773.95875
 10
576.6255
 20
774.3495
 10
576.4327500000001
 20
774.71025
 10
576.1732500000001
 20
775.026
 10
575.8575
 20
775.2855
 10
575.49675
 20
775.47825
 10
575.106
 20
775.59675
 10
574.6994999999999
 20
775.6365
 10
574.293
 20
775.59675
 10
573.90225
 20
775.47825
 10
573.5415
 20
775.2855
 10
573.2257499999999
 20
775.026
  0
LWPOLYLINE
  5
56
100
AcDbEntity
  8
profiling
  6
ByLayer
 62
  256
370
   -1
100
AcDbPolyline
 90
   41
 70
    1
 43
0
 10
709.44375
 20
776.86725
 10
709.12725
 20
776.60775
 10
708.86775
 20
776.29125
 10
708.819
 20
776.199
 10
708.675
 20
775.92975
 10
708.55575
 20
775.5382499999999
 10
708.54
 20
775.3755
 10
708.516
 20
775.13025
 10
708.5565
 20
774.723
 10
708.6224999999999
 20
774.5055
 10
708.67575
 20
774.33075
 10
708.8685
 20
773.96925
 10
709.128
 20
773.65275
 10
709.4444999999999
 20
773.39325
 10
709.806
 20
773.2005
 10
710.1975
 20
773.082
 10
710.60475
 20
773.04225
 10
710.81925
 20
773.06325
 10
711.0119999999999
 20
773.082
 10
711.4035
 20
773.2005
 10
711.7642499999999
 20
773.39325
 10
712.08075
 20
773.65275
 10
712.34025
 20
773.96925
 10
712.431
 20
774.1395
 10
712.533
 20
774.33075
 10
712.6515000000001
 20
774.72225
 10
712.692
 20
775.1295
 10
712.66875
 20
775.36575
 10
712.6515000000001
 20
775.5375
 10
712.61475
 20
775.659
 10
712.533
 20
775.929
 10
712.443
 20
776.097
 10
712.3395
 20
776.2905
 10
712.08
 20
776.607
 10
711.7635
 20
776.8665
 10
711.40275
 20
777.05925
 10
711.01125
 20
777.1777499999999
 10
710.604
 20
777.2175
 10
710.19675
 20
777.1777499999999
 10
709.8045
 20
777.05925
 10
709.443
 20
776.8665
  0
LWPOLYLINE
  5
57
100
AcDbEntity
  8
profiling
  6
ByLayer
 62
  256
370
   -1
100
AcDbPolyline
 90
   33
 70
    1
 43
0
 10
687.1777499999999
 20
774.33075
 10
687.297
 20
774.72225
 10
687.3375
 20
775.1295
 10
687.297
 20
775.53675
 10
687.1777499999999
 20
775.92825
 10
686.985
 20
776.28975
 10
686.7255
 20
776.60625
 10
686.409
 20
776.86575
 10
686.0482500000001
 20
777.0585
 10
685.65675
 20
777.177
 10
685.2495
 20
777.2175
 10
684.84225
 20
777.177
 10
684.45075
 20
777.0585
 10
684.09
 20
776.86575
 10
683.7735
 20
776.60625
 10
683.514
 20
776.28975
 10
683.32125
 20
775.92825
 10
683.202
 20
775.53675
 10
683.1615
 20
775.1295
 10
683.202
 20
774.72225
 10
683.32125
 20
774.33075
 10
683.514
 20
773.96925
 10
683.7735
 20
773.65275
 10
684.09
 20
773.39325
 10
684.45075
 20
773.2005
 10
684.84225
 20
773.082
 10
685.2495
 20
773.04225
 10
685.65675
 20
773.082
 10
686.0482500000001
 20
773.2005
 10
686.409
 20
773.39325
 10
686.7255
 20
773.65275
 10
686.985
 20
773.96925
 10
687.1777499999999
 20
774.33075
  0
LWPOLYLINE
  5
58
100
AcDbEntity
  8
profiling
  6
ByLayer
 62
  256
370
   -1
100
AcDbPolyline
 90
   47
 70
    1
 43
0
 10
685.5119999999999
 20
767.8244999999999
 10
684.28725
 20
767.45325
 10
683.1585
 20
766.85025
 10
682.16925
 20
766.0387500000001
 10
681.35775
 20
765.0495
 10
680.7547499999999
 20
763.92075
 10
680.3835
 20
762.696
 10
680.2635
 20
761.4757499999999
 10
680.2635
 20
761.4757499999999
 10
680.2635
 20
761.4757499999999
 10
680.25825
 20
761.4225
 10
680.3362499999999
 20
760.6335
 10
680.38425
 20
760.149
 10
680.7555
 20
758.92425
 10
681.3585
 20
757.7954999999999
 10
682.17
 20
756.80625
 10
683.15925
 20
755.99475
 10
684.288
 20
755.39175
 10
684.8557499999999
 20
755.22
 10
685.51275
 20
755.0205
 10
686.78625
 20
754.89525
 10
716.60025
 20
754.89525
 10
724.31325
 20
754.89525
 10
724.35
 20
754.899
 10
725.235
 20
754.986
 10
725.5867500000001
 20
755.0205
 10
726.8115
 20
755.39175
 10
727.94025
 20
755.99475
 10
728.9295
 20
756.80625
 10
729.741
 20
757.7954999999999
 10
730.3440000000001
 20
758.92425
 10
730.71525
 20
760.149
 10
730.8405
 20
761.4225
 10
730.83525
 20
761.4757499999999
 10
730.71525
 20
762.696
 10
730.3440000000001
 20
763.92075
 10
729.741
 20
765.0495
 10
729.2625
 20
765.63225
 10
728.92875
 20
766.0387500000001
 10
727.9395
 20
766.85025
 10
726.81075
 20
767.45325
 10
725.586
 20
767.8244999999999
 10
724.34925
 20
767.946
 10
724.3125
 20
767.94975
 10
716.655
 20
767.94975
 10
686.7855
 20
767.94975
 10
685.5119999999999
 20
767.8244999999999
  0
LWPOLYLINE
  5
59
100
AcDbEntity
  8
profiling
  6
ByLayer
 62
  256
370
   -1
100
AcDbPolyline
 90
   35
 70
    1
 43
0
 10
685.248
 20
749.8027499999999
 10
685.0335
 20
749.78175
 10
684.84075
 20
749.763
 10
684.44925
 20
749.6445
 10
684.0885
 20
749.4517499999999
 10
683.772
 20
749.1922499999999
 10
683.5125
 20
748.87575
 10
683.31975
 20
748.5142499999999
 10
683.2665
 20
748.3395
 10
683.2005
 20
748.122
 10
683.16
 20
747.71475
 10
683.2005
 20
747.3075
 10
683.31975
 20
746.9160000000001
 10
683.5125
 20
746.5545
 10
683.772
 20
746.2380000000001
 10
684.0885
 20
745.9785000000001
 10
684.44925
 20
745.78575
 10
684.84075
 20
745.66725
 10
685.248
 20
745.6275000000001
 10
685.65525
 20
745.66725
 10
686.04675
 20
745.78575
 10
686.4075
 20
745.9785000000001
 10
686.724
 20
746.2380000000001
 10
686.9835
 20
746.5545
 10
687.17625
 20
746.9160000000001
 10
687.2954999999999
 20
747.3075
 10
687.336
 20
747.71475
 10
687.2954999999999
 20
748.122
 10
687.17625
 20
748.5135
 10
686.9835
 20
748.875
 10
686.724
 20
749.1915
 10
686.4075
 20
749.451
 10
686.04675
 20
749.64375
 10
685.65525
 20
749.76225
 10
685.248
 20
749.8027499999999
  0
LWPOLYLINE
  5
5A
100
AcDbEntity
  8
profiling
  6
ByLayer
 62
  256
370
   -1
100
AcDbPolyline
 90
   45
 70
    1
 43
0
 10
656.7615
 20
749.64375
 10
656.4
 20
749.451
 10
656.0835
 20
749.1915
 10
655.824
 20
748.875
 10
655.63125
 20
748.5135
 10
655.578
 20
748.33875
 10
655.5119999999999
 20
748.12125
 10
655.4715
 20
747.7140000000001
 10
655.4955
 20
747.46875
 10
655.51125
 20
747.306
 10
655.6305
 20
746.9145
 10
655.82325
 20
746.553
 10
656.08275
 20
746.2365
 10
656.3992500000001
 20
745.977
 10
656.76075
 20
745.78425
 10
656.841
 20
745.7595
 10
657.15225
 20
745.665
 10
657.5595
 20
745.6252500000001
 10
657.96675
 20
745.665
 10
658.01325
 20
745.67925
 10
658.35825
 20
745.78425
 10
658.57575
 20
745.9005
 10
658.71975
 20
745.977
 10
658.79925
 20
746.04225
 10
659.03625
 20
746.2365
 10
659.29575
 20
746.553
 10
659.3445
 20
746.64525
 10
659.4885
 20
746.9145
 10
659.5605
 20
747.153
 10
659.607
 20
747.306
 10
659.64675
 20
747.71325
 10
659.607
 20
748.1205
 10
659.48775
 20
748.5119999999999
 10
659.34375
 20
748.78125
 10
659.295
 20
748.8735
 10
659.0355
 20
749.1900000000001
 10
658.7985
 20
749.38425
 10
658.7190000000001
 20
749.4494999999999
 10
658.575
 20
749.526
 10
658.3575
 20
749.64225
 10
657.966
 20
749.76075
 10
657.6922499999999
 20
749.78775
 10
657.55875
 20
749.80125
 10
657.1515000000001
 20
749.76075
 10
656.76
 20
749.64225
  0
LWPOLYLINE
  5
5B
100
AcDbEntity
  8
profiling
  6
ByLayer
 62
  256
370
   -1
100
AcDbPolyline
 90
   40
 70
    1
 43
0
 10
636.1185
 20
749.64375
 10
635.727
 20
749.76225
 10
635.53425
 20
749.7809999999999
 10
635.31975
 20
749.802
 10
634.9125
 20
749.7615
 10
634.521
 20
749.643
 10
634.45275
 20
749.60625
 10
634.16025
 20
749.4494999999999
 10
633.84375
 20
749.1900000000001
 10
633.58425
 20
748.8735
 10
633.3915
 20
748.5119999999999
 10
633.27225
 20
748.1205
 10
633.23175
 20
747.71325
 10
633.27225
 20
747.306
 10
633.32175
 20
747.14325
 10
633.3915
 20
746.9137500000001
 10
633.58425
 20
746.55225
 10
633.84375
 20
746.2357500000001
 10
634.16025
 20
745.9762500000001
 10
634.52175
 20
745.7835
 10
634.70475
 20
745.728
 10
634.914
 20
745.66425
 10
635.32125
 20
745.6245
 10
635.7285000000001
 20
745.66425
 10
635.9377500000001
 20
745.728
 10
636.12075
 20
745.7835
 10
636.4815
 20
745.9762500000001
 10
636.798
 20
746.2357500000001
 10
637.0575
 20
746.55225
 10
637.2502500000001
 20
746.9137500000001
 10
637.3695
 20
747.30525
 10
637.398
 20
747.59175
 10
637.41
 20
747.7125
 10
637.3695
 20
748.11975
 10
637.3035
 20
748.33725
 10
637.2502500000001
 20
748.5119999999999
 10
637.0575
 20
748.8735
 10
636.798
 20
749.1900000000001
 10
636.4815
 20
749.4494999999999
 10
636.12075
 20
749.64225
  0
LWPOLYLINE
  5
5C
100
AcDbEntity
  8
profiling
  6
ByLayer
 62
  256
370
   -1
100
AcDbPolyline
 90
   43
 70
    1
 43
0
 10
646.3095
 20
761.4757499999999
 10
646.1895
 20
762.696
 10
645.81825
 20
763.92075
 10
645.21525
 20
765.0495
 10
644.4037499999999
 20
766.0387500000001
 10
643.4145
 20
766.85025
 10
642.28575
 20
767.45325
 10
641.061
 20
767.8244999999999
 10
639.7875
 20
767.94975
 10
639.057
 20
767.87775
 10
638.514
 20
767.8244999999999
 10
637.28925
 20
767.45325
 10
636.1605
 20
766.85025
 10
635.17125
 20
766.0387500000001
 10
634.35975
 20
765.0495
 10
633.75675
 20
763.92075
 10
633.3855
 20
762.696
 10
633.2655
 20
761.4757499999999
 10
633.2655
 20
761.4757499999999
 10
633.2655
 20
761.4757499999999
 10
633.26025
 20
761.4225
 10
633.3855
 20
760.149
 10
633.75675
 20
758.92425
 10
634.35975
 20
757.7954999999999
 10
634.95
 20
757.07625
 10
635.17125
 20
756.80625
 10
635.27325
 20
756.72225
 10
636.1605
 20
755.994
 10
637.28925
 20
755.391
 10
638.514
 20
755.01975
 10
639.7875
 20
754.8945
 10
641.061
 20
755.01975
 10
641.18625
 20
755.058
 10
642.285
 20
755.391
 10
643.4137500000001
 20
755.994
 10
644.403
 20
756.8055000000001
 10
645.2145
 20
757.79475
 10
645.8175
 20
758.9235
 10
646.18875
 20
760.14825
 10
646.314
 20
761.42175
 10
646.30875
 20
761.475
 10
646.30875
 20
761.475
 10
646.30875
 20
761.475
  0
LWPOLYLINE
  5
5D
100
AcDbEntity
  8
profiling
  6
ByLayer
 62
  256
370
   -1
100
AcDbPolyline
 90
   33
 70
    1
 43
0
 10
597.378
 20
775.026
 10
597.1185
 20
774.71025
 10
596.92575
 20
774.3495
 10
596.80725
 20
773.95875
 10
596.7675
 20
773.55225
 10
596.80725
 20
773.14575
 10
596.92575
 20
772.75425
 10
597.1185
 20
772.3935
 10
597.378
 20
772.07775
 10
597.69375
 20
771.81825
 10
598.0545
 20
771.6255
 10
598.446
 20
771.5069999999999
 10
598.8525
 20
771.46725
 10
599.259
 20
771.5069999999999
 10
599.64975
 20
771.6255
 10
600.0105
 20
771.81825
 10
600.32625
 20
772.07775
 10
600.58575
 20
772.3935
 10
600.7785
 20
772.75425
 10
600.897
 20
773.14575
 10
600.93675
 20
773.55225
 10
600.897
 20
773.95875
 10
600.7785
 20
774.3495
 10
600.58575
 20
774.71025
 10
600.32625
 20
775.026
 10
600.0105
 20
775.2855
 10
599.64975
 20
775.47825
 10
599.259
 20
775.59675
 10
598.8525
 20
775.6365
 10
598.446
 20
775.59675
 10
598.0545
 20
775.47825
 10
597.69375
 20
775.2855
 10
597.378
 20
775.026
  0
LWPOLYLINE
  5
5E
100
AcDbEntity
  8
profiling
  6
ByLayer
 62
  256
370
   -1
100
AcDbPolyline
 90
   43
 70
    1
 43
0
 10
450.19425
 20
756.61575
 10
451.113
 20
756.894
 10
451.95975
 20
757.3462500000001
 10
452.7015
 20
757.95525
 10
453.3105
 20
758.697
 10
453.76275
 20
759.54375
 10
454.041
 20
760.4625
 10
454.13475
 20
761.418
 10
454.041
 20
762.37275
 10
453.76275
 20
763.2915
 10
453.3105
 20
764.13825
 10
452.7015
 20
764.88
 10
451.95975
 20
765.489
 10
451.113
 20
765.94125
 10
450.19425
 20
766.2195
 10
449.2395
 20
766.31325
 10
449.2305
 20
766.3125
 10
449.20275
 20
766.3095
 10
448.28475
 20
766.21875
 10
447.366
 20
765.9405
 10
446.51925
 20
765.48825
 10
445.7775
 20
764.87925
 10
445.1685
 20
764.1375
 10
445.11225
 20
764.03175
 10
444.71625
 20
763.29075
 10
444.50475
 20
762.5940000000001
 10
444.43725
 20
762.37275
 10
444.34875
 20
761.4757499999999
 10
444.34875
 20
761.4757499999999
 10
444.34875
 20
761.4757499999999
 10
444.34275
 20
761.418
 10
444.4365
 20
760.4625
 10
444.71475
 20
759.54375
 10
445.167
 20
758.697
 10
445.776
 20
757.95525
 10
446.51775
 20
757.3462500000001
 10
447.3645
 20
756.894
 10
448.28325
 20
756.61575
 10
449.20125
 20
756.525
 10
449.20125
 20
756.525
 10
449.20125
 20
756.525
 10
449.23875
 20
756.52125
 10
450.1935
 20
756.615
  0
LWPOLYLINE
  5
5F
100
AcDbEntity
  8
profiling
  6
ByLayer
 62
  256
370
   -1
100
AcDbPolyline
 90
   35
 70
    1
 43
0
 10
573.225
 20
750.873
 10
572.9655
 20
750.55725
 10
572.77275
 20
750.1965
 10
572.65425
 20
749.8049999999999
 10
572.6145
 20
749.3985
 10
572.65425
 20
748.992
 10
572.77275
 20
748.6012500000001
 10
572.9655
 20
748.2405
 10
573.1079999999999
 20
748.0672499999999
 10
573.225
 20
747.92475
 10
573.54075
 20
747.66525
 10
573.9015000000001
 20
747.4725
 10
574.293
 20
747.354
 10
574.6994999999999
 20
747.31425
 10
575.106
 20
747.354
 10
575.49675
 20
747.4725
 10
575.8575
 20
747.66525
 10
576.1732500000001
 20
747.92475
 10
576.4327500000001
 20
748.2405
 10
576.6255
 20
748.6012500000001
 10
576.744
 20
748.992
 10
576.7837500000001
 20
749.3985
 10
576.744
 20
749.8049999999999
 10
576.6255
 20
750.1950000000001
 10
576.6247499999999
 20
750.1965
 10
576.432
 20
750.55725
 10
576.1725
 20
750.873
 10
575.85675
 20
751.1325000000001
 10
575.496
 20
751.32525
 10
575.10525
 20
751.44375
 10
574.69875
 20
751.4835
 10
574.29225
 20
751.44375
 10
573.9015000000001
 20
751.32525
 10
573.54075
 20
751.1325000000001
 10
573.225
 20
750.873
  0
LWPOLYLINE
  5
60
100
AcDbEntity
  8
profiling
  6
ByLayer
 62
  256
370
   -1
100
AcDbPolyline
 90
   37
 70
    1
 43
0
 10
451.806
 20
747.204
 10
451.85625
 20
747.71325
 10
451.806
 20
748.2225
 10
451.6575
 20
748.71225
 10
451.416
 20
749.1637500000001
 10
451.09125
 20
749.559
 10
450.696
 20
749.88375
 10
450.2445
 20
750.1252500000001
 10
449.75475
 20
750.2737499999999
 10
449.2455
 20
750.324
 10
449.2005
 20
750.3194999999999
 10
449.2005
 20
750.3194999999999
 10
448.73625
 20
750.2737499999999
 10
448.2465
 20
750.1252500000001
 10
447.795
 20
749.88375
 10
447.39975
 20
749.559
 10
447.075
 20
749.1637500000001
 10
446.8335
 20
748.71225
 10
446.685
 20
748.2225
 10
446.63475
 20
747.71325
 10
446.685
 20
747.204
 10
446.8335
 20
746.71425
 10
447.075
 20
746.26275
 10
447.39975
 20
745.8674999999999
 10
447.795
 20
745.54275
 10
448.2465
 20
745.30125
 10
448.656
 20
745.17675
 10
448.7355
 20
745.15275
 10
449.24475
 20
745.1025
 10
449.754
 20
745.15275
 10
450.24375
 20
745.30125
 10
450.69525
 20
745.54275
 10
451.0905
 20
745.8674999999999
 10
451.19475
 20
745.99425
 10
451.41525
 20
746.26275
 10
451.65675
 20
746.71425
 10
451.80525
 20
747.204
  0
LWPOLYLINE
  5
61
100
AcDbEntity
  8
profiling
  6
ByLayer
 62
  256
370
   -1
100
AcDbPolyline
 90
   37
 70
    1
 43
0
 10
633.84075
 20
776.607
 10
633.58125
 20
776.2905
 10
633.3885
 20
775.929
 10
633.2692500000001
 20
775.5375
 10
633.22875
 20
775.13025
 10
633.2692500000001
 20
774.723
 10
633.3885
 20
774.3315
 10
633.49275
 20
774.13575
 10
633.58125
 20
773.97
 10
633.84075
 20
773.6535
 10
634.15725
 20
773.394
 10
634.51875
 20
773.20125
 10
634.91025
 20
773.08275
 10
635.3175
 20
773.043
 10
635.72475
 20
773.08275
 10
636.11625
 20
773.20125
 10
636.477
 20
773.394
 10
636.7935
 20
773.6535
 10
637.053
 20
773.97
 10
637.24575
 20
774.3315
 10
637.365
 20
774.723
 10
637.38075
 20
774.88575
 10
637.40475
 20
775.131
 10
637.36425
 20
775.5382499999999
 10
637.2982500000001
 20
775.75575
 10
637.245
 20
775.9305000000001
 10
637.05225
 20
776.292
 10
636.79275
 20
776.6085
 10
636.4762500000001
 20
776.8680000000001
 10
636.1155
 20
777.06075
 10
635.724
 20
777.17925
 10
635.53125
 20
777.198
 10
635.31675
 20
777.2190000000001
 10
634.9095
 20
777.1785
 10
634.518
 20
777.0599999999999
 10
634.1565000000001
 20
776.86725
 10
633.84
 20
776.60775
  0
LWPOLYLINE
  5
62
100
AcDbEntity
  8
profiling
  6
ByLayer
 62
  256
370
   -1
100
AcDbPolyline
 90
   38
 70
    1
 43
0
 10
657.3630000000001
 20
773.06025
 10
657.5595
 20
773.04075
 10
657.96675
 20
773.0805
 10
658.35825
 20
773.199
 10
658.71975
 20
773.39175
 10
659.03625
 20
773.65125
 10
659.29575
 20
773.96775
 10
659.4885
 20
774.32925
 10
659.60775
 20
774.72075
 10
659.6475
 20
775.128
 10
659.60775
 20
775.53525
 10
659.4885
 20
775.92675
 10
659.29575
 20
776.2882499999999
 10
659.03625
 20
776.60475
 10
658.71975
 20
776.86425
 10
658.35825
 20
777.057
 10
657.96675
 20
777.1755000000001
 10
657.5595
 20
777.216
 10
657.15225
 20
777.1755000000001
 10
656.76075
 20
777.057
 10
656.5432499999999
 20
776.94075
 10
656.3992500000001
 20
776.86425
 10
656.31975
 20
776.799
 10
656.08275
 20
776.60475
 10
655.8847500000001
 20
776.364
 10
655.8225
 20
776.2882499999999
 10
655.6297499999999
 20
775.92675
 10
655.5105
 20
775.53525
 10
655.47
 20
775.128
 10
655.5105
 20
774.72075
 10
655.6297499999999
 20
774.32925
 10
655.8225
 20
773.96775
 10
656.082
 20
773.65125
 10
656.319
 20
773.457
 10
656.3985
 20
773.39175
 10
656.76
 20
773.199
 10
657.1515000000001
 20
773.0805
 10
657.36225
 20
773.0595
  0
LWPOLYLINE
  5
63
100
AcDbEntity
  8
profiling
  6
ByLayer
 62
  256
370
   -1
100
AcDbPolyline
 90
   36
 70
    1
 43
0
 10
709.1265
 20
749.1900000000001
 10
709.0237499999999
 20
749.06475
 10
708.867
 20
748.8735
 10
708.67425
 20
748.5119999999999
 10
708.621
 20
748.33725
 10
708.5549999999999
 20
748.11975
 10
708.52575
 20
747.81975
 10
708.51525
 20
747.7125
 10
708.55575
 20
747.30525
 10
708.675
 20
746.9137500000001
 10
708.86775
 20
746.55225
 10
709.12725
 20
746.2357500000001
 10
709.44375
 20
745.9762500000001
 10
709.80525
 20
745.7835
 10
710.19675
 20
745.665
 10
710.604
 20
745.6245
 10
711.01125
 20
745.665
 10
711.40275
 20
745.7835
 10
711.7635
 20
745.9762500000001
 10
712.08
 20
746.2357500000001
 10
712.3395
 20
746.55225
 10
712.53225
 20
746.9137500000001
 10
712.65075
 20
747.30525
 10
712.69125
 20
747.7125
 10
712.65075
 20
748.11975
 10
712.53225
 20
748.51125
 10
712.3395
 20
748.87275
 10
712.08
 20
749.18925
 10
711.7635
 20
749.44875
 10
711.40275
 20
749.6415
 10
711.01125
 20
749.76
 10
710.604
 20
749.8005000000001
 10
710.19675
 20
749.76
 10
709.8045
 20
749.6415
 10
709.443
 20
749.44875
 10
709.1265
 20
749.18925
  0
LWPOLYLINE
  5
64
100
AcDbEntity
  8
profiling
  6
ByLayer
 62
  256
370
   -1
100
AcDbPolyline
 90
   36
 70
    1
 43
0
 10
736.54275
 20
749.1900000000001
 10
736.28325
 20
748.8735
 10
736.0905
 20
748.5119999999999
 10
735.972
 20
748.1205
 10
735.9315
 20
747.71325
 10
735.972
 20
747.306
 10
736.0905
 20
746.9145
 10
736.28325
 20
746.553
 10
736.54275
 20
746.2365
 10
736.77975
 20
746.04225
 10
736.85925
 20
745.977
 10
737.22075
 20
745.78425
 10
737.61225
 20
745.66575
 10
738.0195
 20
745.6252500000001
 10
738.42675
 20
745.66575
 10
738.672
 20
745.74
 10
738.819
 20
745.78425
 10
739.17975
 20
745.977
 10
739.49625
 20
746.2365
 10
739.75575
 20
746.553
 10
739.9485
 20
746.9145
 10
740.06775
 20
747.306
 10
740.10825
 20
747.71325
 10
740.06775
 20
748.1205
 10
739.9485
 20
748.5119999999999
 10
739.75575
 20
748.8735
 10
739.49625
 20
749.1900000000001
 10
739.17975
 20
749.4494999999999
 10
738.819
 20
749.64225
 10
738.42675
 20
749.76075
 10
738.0675
 20
749.796
 10
738.0195
 20
749.8005000000001
 10
737.61225
 20
749.76
 10
737.22075
 20
749.6415
 10
736.85925
 20
749.44875
 10
736.54275
 20
749.18925
  0
LWPOLYLINE
  5
65
100
AcDbEntity
  8
profiling
  6
ByLayer
 62
  256
370
   -1
100
AcDbPolyline
 90
   34
 70
    1
 43
0
 10
739.1805000000001
 20
773.3925
 10
739.497
 20
773.652
 10
739.7565
 20
773.9684999999999
 10
739.94925
 20
774.33
 10
740.0685
 20
774.7215
 10
740.109
 20
775.12875
 10
740.0685
 20
775.5359999999999
 10
739.94925
 20
775.9275
 10
739.7565
 20
776.289
 10
739.497
 20
776.6055
 10
739.1805000000001
 20
776.865
 10
738.81975
 20
777.0577500000001
 10
738.4275
 20
777.17625
 10
738.02025
 20
777.216
 10
737.6130000000001
 20
777.17625
 10
737.2215
 20
777.0577500000001
 10
736.86
 20
776.865
 10
736.5435
 20
776.6055
 10
736.284
 20
776.289
 10
736.0912499999999
 20
775.9275
 10
735.97275
 20
775.5359999999999
 10
735.93225
 20
775.12875
 10
735.97275
 20
774.7215
 10
736.0912499999999
 20
774.33
 10
736.284
 20
773.9684999999999
 10
736.5435
 20
773.652
 10
736.7805
 20
773.45775
 10
736.86
 20
773.3925
 10
737.2215
 20
773.19975
 10
737.6130000000001
 20
773.08125
 10
738.02025
 20
773.0415
 10
738.4275
 20
773.08125
 10
738.81975
 20
773.19975
 10
739.1805000000001
 20
773.3925
  0
ENDSEC
  0
SECTION
  2
OBJECTS
  0
DICTIONARY
  5
C
330
0
100
AcDbDictionary
281
    1
  3
ACAD_GROUP
350
D
  0
DICTIONARY
  5
D
330
C
100
AcDbDictionary
281
    1
  0
ENDSEC
  0
EOF
