999
dxfrw 0.6.3
  0
SECTION
  2
HEADER
  9
$ACADVER
  1
AC1021
  9
$DWGCODEPAGE
  3
ANSI_1252
  9
$INSBASE
 10
0
 20
0
 30
0
  9
$EXTMIN
 10
0.5344700217247009
 20
0.04205647110939026
 30
0
  9
$EXTMAX
 10
0.5814713835716248
 20
0.3117494583129883
 30
0
  9
$LIMMIN
 10
0
 20
0
  9
$LIMMAX
 10
420
 20
297
  9
$ORTHOMODE
 70
    0
  9
$REGENMODE
 70
    1
  9
$FILLMODE
 70
    1
  9
$QTEXTMODE
 70
    0
  9
$MIRRTEXT
 70
    0
  9
$LTSCALE
 40
1
  9
$ATTMODE
 70
    0
  9
$TEXTSIZE
 40
2.5
  9
$TRACEWID
 40
15.68
  9
$TEXTSTYLE
  7
STANDARD
  9
$CLAYER
  8
profiling
  9
$CELTYPE
  6
BYLAYER
  9
$CECOLOR
 62
  256
  9
$CELTSCALE
 40
1
  9
$DISPSILH
 70
    0
  9
$DIMSCALE
 40
2.5
  9
$DIMASZ
 40
2.5
  9
$DIMEXO
 40
0.625
  9
$DIMDLI
 40
3.75
  9
$DIMRND
 40
0
  9
$DIMDLE
 40
0
  9
$DIMEXE
 40
1.25
  9
$DIMTP
 40
0
  9
$DIMTM
 40
0
  9
$DIMTXT
 40
2.5
  9
$DIMCEN
 40
2.5
  9
$DIMTSZ
 40
0
  9
$DIMTOL
 70
    0
  9
$DIMLIM
 70
    0
  9
$DIMTIH
 70
    0
  9
$DIMTOH
 70
    0
  9
$DIMSE1
 70
    0
  9
$DIMSE2
 70
    0
  9
$DIMTAD
 70
    1
  9
$DIMZIN
 70
    8
  9
$DIMBLK
  1

  9
$DIMASO
 70
    1
  9
$DIMSHO
 70
    1
  9
$DIMPOST
  1

  9
$DIMAPOST
  1

  9
$DIMALT
 70
    0
  9
$DIMALTD
 70
    3
  9
$DIMALTF
 40
0.03937
  9
$DIMLFAC
 40
1
  9
$DIMTOFL
 70
    1
  9
$DIMTVP
 40
0
  9
$DIMTIX
 70
    0
  9
$DIMSOXD
 70
    0
  9
$DIMSAH
 70
    0
  9
$DIMBLK1
  1

  9
$DIMBLK2
  1

  9
$DIMSTYLE
  2
Standard
  9
$DIMCLRD
 70
    0
  9
$DIMCLRE
 70
    0
  9
$DIMCLRT
 70
    0
  9
$DIMTFAC
 40
1
  9
$DIMGAP
 40
0.625
  9
$DIMJUST
 70
    0
  9
$DIMSD1
 70
    0
  9
$DIMSD2
 70
    0
  9
$DIMTOLJ
 70
    0
  9
$DIMTZIN
 70
    8
  9
$DIMALTZ
 70
    0
  9
$DIMALTTZ
 70
    0
  9
$DIMUPT
 70
    0
  9
$DIMDEC
 70
    2
  9
$DIMTDEC
 70
    2
  9
$DIMALTU
 70
    2
  9
$DIMALTTD
 70
    3
  9
$DIMTXSTY
  7
STANDARD
  9
$DIMAUNIT
 70
    0
  9
$DIMADEC
 70
    0
  9
$DIMALTRND
 40
0
  9
$DIMAZIN
 70
    0
  9
$DIMDSEP
 70
   44
  9
$DIMATFIT
 70
    3
  9
$DIMFRAC
 70
    0
  9
$DIMLDRBLK
  1
STANDARD
  9
$DIMLUNIT
 70
    2
  9
$DIMLWD
 70
   -2
  9
$DIMLWE
 70
   -2
  9
$DIMTMOVE
 70
    0
  9
$DIMFXL
 40
1
  9
$DIMFXLON
 70
    0
  9
$DIMJOGANG
 40
0.7854
  9
$DIMTFILL
 70
    0
  9
$DIMTFILLCLR
 70
    0
  9
$DIMARCSYM
 70
    0
  9
$DIMLTYPE
  6

  9
$DIMLTEX1
  6

  9
$DIMLTEX2
  6

  9
$LUNITS
 70
    2
  9
$LUPREC
 70
    4
  9
$SKETCHINC
 40
1
  9
$FILLETRAD
 40
0
  9
$AUNITS
 70
    0
  9
$AUPREC
 70
    2
  9
$MENU
  1
.
  9
$ELEVATION
 40
0
  9
$PELEVATION
 40
0
  9
$THICKNESS
 40
0
  9
$LIMCHECK
 70
    0
  9
$CHAMFERA
 40
0
  9
$CHAMFERB
 40
0
  9
$CHAMFERC
 40
0
  9
$CHAMFERD
 40
0
  9
$SKPOLY
 70
    0
  9
$USRTIMER
 70
    1
  9
$ANGBASE
 50
0
  9
$ANGDIR
 70
    0
  9
$PDMODE
 70
   34
  9
$PDSIZE
 40
0
  9
$PLINEWID
 40
0
  9
$SPLFRAME
 70
    0
  9
$SPLINETYPE
 70
    2
  9
$SPLINESEGS
 70
    8
  9
$HANDSEED
  5
20000
  9
$SURFTAB1
 70
    6
  9
$SURFTAB2
 70
    6
  9
$SURFTYPE
 70
    6
  9
$SURFU
 70
    6
  9
$SURFV
 70
    6
  9
$UCSBASE
  2

  9
$UCSNAME
  2

  9
$UCSORG
 10
0
 20
0
 30
0
  9
$UCSXDIR
 10
1
 20
0
 30
0
  9
$UCSYDIR
 10
0
 20
1
 30
0
  9
$UCSORTHOREF
  2

  9
$UCSORTHOVIEW
 70
    0
  9
$UCSORGTOP
 10
0
 20
0
 30
0
  9
$UCSORGBOTTOM
 10
0
 20
0
 30
0
  9
$UCSORGLEFT
 10
0
 20
0
 30
0
  9
$UCSORGRIGHT
 10
0
 20
0
 30
0
  9
$UCSORGFRONT
 10
0
 20
0
 30
0
  9
$UCSORGBACK
 10
0
 20
0
 30
0
  9
$PUCSBASE
  2

  9
$PUCSNAME
  2

  9
$PUCSORG
 10
0
 20
0
 30
0
  9
$PUCSXDIR
 10
1
 20
0
 30
0
  9
$PUCSYDIR
 10
0
 20
1
 30
0
  9
$PUCSORTHOREF
  2

  9
$PUCSORTHOVIEW
 70
    0
  9
$PUCSORGTOP
 10
0
 20
0
 30
0
  9
$PUCSORGBOTTOM
 10
0
 20
0
 30
0
  9
$PUCSORGLEFT
 10
0
 20
0
 30
0
  9
$PUCSORGRIGHT
 10
0
 20
0
 30
0
  9
$PUCSORGFRONT
 10
0
 20
0
 30
0
  9
$PUCSORGBACK
 10
0
 20
0
 30
0
  9
$USERI1
 70
    0
  9
$USERI2
 70
    0
  9
$USERI3
 70
    0
  9
$USERI4
 70
    0
  9
$USERI5
 70
    0
  9
$USERR1
 40
0
  9
$USERR2
 40
0
  9
$USERR3
 40
0
  9
$USERR4
 40
0
  9
$USERR5
 40
0
  9
$WORLDVIEW
 70
    1
  9
$SHADEDGE
 70
    3
  9
$SHADEDIF
 70
   70
  9
$TILEMODE
 70
    1
  9
$MAXACTVP
 70
   64
  9
$PINSBASE
 10
0
 20
0
 30
0
  9
$PLIMCHECK
 70
    0
  9
$PEXTMIN
 10
0
 20
0
 30
0
  9
$PEXTMAX
 10
0
 20
0
 30
0
  9
$GRIDMODE
 70
    0
  9
$SNAPSTYLE
 70
    0
  9
$PLIMMIN
 10
0
 20
0
  9
$PLIMMAX
 10
210
 20
297
  9
$UNITMODE
 70
    0
  9
$VISRETAIN
 70
    1
  9
$PLINEGEN
 70
    0
  9
$PSLTSCALE
 70
    1
  9
$TREEDEPTH
 70
 3020
  9
$CMLSTYLE
  2
Standard
  9
$CMLJUST
 70
    0
  9
$CMLSCALE
 40
20
  9
$PROXYGRAPHICS
 70
    1
  9
$MEASUREMENT
 70
    1
  9
$CELWEIGHT
370
   -1
  9
$ENDCAPS
280
    0
  9
$JOINSTYLE
280
    0
  9
$LWDISPLAY
290
    0
  9
$INSUNITS
 70
    4
  9
$HYPERLINKBASE
  1

  9
$STYLESHEET
  1

  9
$XEDIT
290
    1
  9
$CEPSNTYPE
380
    0
  9
$PSTYLEMODE
290
    1
  9
$EXTNAMES
290
    1
  9
$PSVPSCALE
 40
1
  9
$OLESTARTUP
290
    0
  9
$SORTENTS
280
  127
  9
$INDEXCTL
280
    0
  9
$HIDETEXT
280
    1
  9
$XCLIPFRAME
290
    0
  9
$HALOGAP
280
    0
  9
$OBSCOLOR
 70
  257
  9
$OBSLTYPE
280
    0
  9
$INTERSECTIONDISPLAY
280
    0
  9
$INTERSECTIONCOLOR
 70
  257
  9
$DIMASSOC
280
    1
  9
$PROJECTNAME
  1

  9
$CAMERADISPLAY
290
    0
  9
$LENSLENGTH
 40
50
  9
$CAMERAHEIGHT
 40
0
  9
$STEPSPERSEC
 40
2
  9
$STEPSIZE
 40
50
  9
$3DDWFPREC
 40
2
  9
$PSOLWIDTH
 40
5
  9
$PSOLHEIGHT
 40
80
  9
$LOFTANG1
 40
1.570796326794897
  9
$LOFTANG2
 40
1.570796326794897
  9
$LOFTMAG1
 40
0
  9
$LOFTMAG2
 40
0
  9
$LOFTPARAM
 70
    7
  9
$LOFTNORMALS
280
    1
  9
$LATITUDE
 40
1
  9
$LONGITUDE
 40
1
  9
$NORTHDIRECTION
 40
0
  9
$TIMEZONE
 70
-8000
  9
$LIGHTGLYPHDISPLAY
280
    1
  9
$TILEMODELIGHTSYNCH
280
    1
  9
$SOLIDHIST
280
    1
  9
$SHOWHIST
280
    1
  9
$DWFFRAME
280
    2
  9
$DGNFRAME
280
    0
  9
$REALWORLDSCALE
290
    1
  9
$INTERFERECOLOR
 62
    1
  9
$CSHADOW
280
    0
  9
$SHADOWPLANELOCATION
 40
0
  0
ENDSEC
  0
SECTION
  2
CLASSES
  0
ENDSEC
  0
SECTION
  2
TABLES
  0
TABLE
  2
VPORT
  5
8
330
0
100
AcDbSymbolTable
 70
    1
  0
VPORT
  5
31
330
2
100
AcDbSymbolTableRecord
100
AcDbViewportTableRecord
  2
*ACTIVE
 70
    0
 10
0
 20
0
 11
1
 21
1
 12
0.3345988090091169
 22
0.1692944570284629
 13
0
 23
0
 14
10
 24
10
 15
10
 25
10
 16
0
 26
0
 36
1
 17
0
 27
0
 37
0
 40
0.3298486839522016
 41
0.8790322580645161
 42
50
 43
0
 44
0
 50
0
 51
0
 71
    0
 72
  100
 73
    1
 74
    3
 75
    0
 76
    0
 77
    0
 78
    0
281
    0
 65
    1
110
0
120
0
130
0
111
1
121
0
131
0
112
0
122
1
132
0
 79
    0
146
0
348
10020
 60
    7
 61
    5
292
1
282
    1
141
0
142
0
 63
  250
421
3358443
  0
ENDTAB
  0
TABLE
  2
LTYPE
  5
5
330
0
100
AcDbSymbolTable
 70
    4
  0
LTYPE
  5
14
330
5
100
AcDbSymbolTableRecord
100
AcDbLinetypeTableRecord
  2
ByBlock
 70
    0
  3

 72
   65
 73
    0
 40
0
  0
LTYPE
  5
15
330
5
100
AcDbSymbolTableRecord
100
AcDbLinetypeTableRecord
  2
ByLayer
 70
    0
  3

 72
   65
 73
    0
 40
0
  0
LTYPE
  5
16
330
5
100
AcDbSymbolTableRecord
100
AcDbLinetypeTableRecord
  2
Continuous
 70
    0
  3
Solid line
 72
   65
 73
    0
 40
0
  0
LTYPE
  5
32
330
5
100
AcDbSymbolTableRecord
100
AcDbLinetypeTableRecord
  2
DOT
 70
    0
  3
Dot . . . . . . . . . . . . . . . . . . . . . .
 72
   65
 73
    2
 40
6.35
 49
0
 74
    0
 49
-6.35
 74
    0
  0
LTYPE
  5
33
330
5
100
AcDbSymbolTableRecord
100
AcDbLinetypeTableRecord
  2
DOTTINY
 70
    0
  3
Dot (.15x) .....................................
 72
   65
 73
    2
 40
0.9525
 49
0
 74
    0
 49
-0.9525
 74
    0
  0
LTYPE
  5
34
330
5
100
AcDbSymbolTableRecord
100
AcDbLinetypeTableRecord
  2
DOT2
 70
    0
  3
Dot (.5x) .....................................
 72
   65
 73
    2
 40
3.175
 49
0
 74
    0
 49
-3.175
 74
    0
  0
LTYPE
  5
35
330
5
100
AcDbSymbolTableRecord
100
AcDbLinetypeTableRecord
  2
DOTX2
 70
    0
  3
Dot (2x) .  .  .  .  .  .  .  .  .  .  .  .  .
 72
   65
 73
    2
 40
12.7
 49
0
 74
    0
 49
-12.7
 74
    0
  0
LTYPE
  5
36
330
5
100
AcDbSymbolTableRecord
100
AcDbLinetypeTableRecord
  2
DASHED
 70
    0
  3
Dashed _ _ _ _ _ _ _ _ _ _ _ _ _ _ _ _ _
 72
   65
 73
    2
 40
19.05
 49
12.7
 74
    0
 49
-6.35
 74
    0
  0
LTYPE
  5
37
330
5
100
AcDbSymbolTableRecord
100
AcDbLinetypeTableRecord
  2
DASHEDTINY
 70
    0
  3
Dashed (.15x) _ _ _ _ _ _ _ _ _ _ _ _ _ _ _ _ _
 72
   65
 73
    2
 40
2.8575
 49
1.905
 74
    0
 49
-0.9525
 74
    0
  0
LTYPE
  5
38
330
5
100
AcDbSymbolTableRecord
100
AcDbLinetypeTableRecord
  2
DASHED2
 70
    0
  3
Dashed (.5x) _ _ _ _ _ _ _ _ _ _ _ _ _ _ _ _ _
 72
   65
 73
    2
 40
9.524999999999999
 49
6.35
 74
    0
 49
-3.175
 74
    0
  0
LTYPE
  5
39
330
5
100
AcDbSymbolTableRecord
100
AcDbLinetypeTableRecord
  2
DASHEDX2
 70
    0
  3
Dashed (2x) ____  ____  ____  ____  ____  ___
 72
   65
 73
    2
 40
38.09999999999999
 49
25.4
 74
    0
 49
-12.7
 74
    0
  0
LTYPE
  5
3A
330
5
100
AcDbSymbolTableRecord
100
AcDbLinetypeTableRecord
  2
DASHDOT
 70
    0
  3
Dash dot __ . __ . __ . __ . __ . __ . __ . __
 72
   65
 73
    4
 40
25.4
 49
12.7
 74
    0
 49
-6.35
 74
    0
 49
0
 74
    0
 49
-6.35
 74
    0
  0
LTYPE
  5
3B
330
5
100
AcDbSymbolTableRecord
100
AcDbLinetypeTableRecord
  2
DASHDOTTINY
 70
    0
  3
Dash dot (.15x) _._._._._._._._._._._._._._._.
 72
   65
 73
    4
 40
3.81
 49
1.905
 74
    0
 49
-0.9525
 74
    0
 49
0
 74
    0
 49
-0.9525
 74
    0
  0
LTYPE
  5
3C
330
5
100
AcDbSymbolTableRecord
100
AcDbLinetypeTableRecord
  2
DASHDOT2
 70
    0
  3
Dash dot (.5x) _._._._._._._._._._._._._._._.
 72
   65
 73
    4
 40
12.7
 49
6.35
 74
    0
 49
-3.175
 74
    0
 49
0
 74
    0
 49
-3.175
 74
    0
  0
LTYPE
  5
3D
330
5
100
AcDbSymbolTableRecord
100
AcDbLinetypeTableRecord
  2
DASHDOTX2
 70
    0
  3
Dash dot (2x) ____  .  ____  .  ____  .  ___
 72
   65
 73
    4
 40
50.8
 49
25.4
 74
    0
 49
-12.7
 74
    0
 49
0
 74
    0
 49
-12.7
 74
    0
  0
LTYPE
  5
3E
330
5
100
AcDbSymbolTableRecord
100
AcDbLinetypeTableRecord
  2
DIVIDE
 70
    0
  3
Divide ____ . . ____ . . ____ . . ____ . . ____
 72
   65
 73
    6
 40
31.75
 49
12.7
 74
    0
 49
-6.35
 74
    0
 49
0
 74
    0
 49
-6.35
 74
    0
 49
0
 74
    0
 49
-6.35
 74
    0
  0
LTYPE
  5
3F
330
5
100
AcDbSymbolTableRecord
100
AcDbLinetypeTableRecord
  2
DIVIDETINY
 70
    0
  3
Divide (.15x) __..__..__..__..__..__..__..__.._
 72
   65
 73
    6
 40
4.7625
 49
1.905
 74
    0
 49
-0.9525
 74
    0
 49
0
 74
    0
 49
-0.9525
 74
    0
 49
0
 74
    0
 49
-0.9525
 74
    0
  0
LTYPE
  5
40
330
5
100
AcDbSymbolTableRecord
100
AcDbLinetypeTableRecord
  2
DIVIDE2
 70
    0
  3
Divide (.5x) __..__..__..__..__..__..__..__.._
 72
   65
 73
    6
 40
15.875
 49
6.35
 74
    0
 49
-3.175
 74
    0
 49
0
 74
    0
 49
-3.175
 74
    0
 49
0
 74
    0
 49
-3.175
 74
    0
  0
LTYPE
  5
41
330
5
100
AcDbSymbolTableRecord
100
AcDbLinetypeTableRecord
  2
DIVIDEX2
 70
    0
  3
Divide (2x) ________  .  .  ________  .  .  _
 72
   65
 73
    6
 40
63.5
 49
25.4
 74
    0
 49
-12.7
 74
    0
 49
0
 74
    0
 49
-12.7
 74
    0
 49
0
 74
    0
 49
-12.7
 74
    0
  0
LTYPE
  5
42
330
5
100
AcDbSymbolTableRecord
100
AcDbLinetypeTableRecord
  2
BORDER
 70
    0
  3
Border __ __ . __ __ . __ __ . __ __ . __ __ .
 72
   65
 73
    6
 40
44.45
 49
12.7
 74
    0
 49
-6.35
 74
    0
 49
12.7
 74
    0
 49
-6.35
 74
    0
 49
0
 74
    0
 49
-6.35
 74
    0
  0
LTYPE
  5
43
330
5
100
AcDbSymbolTableRecord
100
AcDbLinetypeTableRecord
  2
BORDERTINY
 70
    0
  3
Border (.15x) __.__.__.__.__.__.__.__.__.__.__.
 72
   65
 73
    6
 40
6.6675
 49
1.905
 74
    0
 49
-0.9525
 74
    0
 49
1.905
 74
    0
 49
-0.9525
 74
    0
 49
0
 74
    0
 49
-0.9525
 74
    0
  0
LTYPE
  5
44
330
5
100
AcDbSymbolTableRecord
100
AcDbLinetypeTableRecord
  2
BORDER2
 70
    0
  3
Border (.5x) __.__.__.__.__.__.__.__.__.__.__.
 72
   65
 73
    6
 40
22.225
 49
6.35
 74
    0
 49
-3.175
 74
    0
 49
6.35
 74
    0
 49
-3.175
 74
    0
 49
0
 74
    0
 49
-3.175
 74
    0
  0
LTYPE
  5
45
330
5
100
AcDbSymbolTableRecord
100
AcDbLinetypeTableRecord
  2
BORDERX2
 70
    0
  3
Border (2x) ____  ____  .  ____  ____  .  ___
 72
   65
 73
    6
 40
88.89999999999999
 49
25.4
 74
    0
 49
-12.7
 74
    0
 49
25.4
 74
    0
 49
-12.7
 74
    0
 49
0
 74
    0
 49
-12.7
 74
    0
  0
LTYPE
  5
46
330
5
100
AcDbSymbolTableRecord
100
AcDbLinetypeTableRecord
  2
CENTER
 70
    0
  3
Center ____ _ ____ _ ____ _ ____ _ ____ _ ____
 72
   65
 73
    4
 40
50.8
 49
31.75
 74
    0
 49
-6.35
 74
    0
 49
6.35
 74
    0
 49
-6.35
 74
    0
  0
LTYPE
  5
47
330
5
100
AcDbSymbolTableRecord
100
AcDbLinetypeTableRecord
  2
CENTERTINY
 70
    0
  3
Center (.15x) ___ _ ___ _ ___ _ ___ _ ___ _ ___
 72
   65
 73
    4
 40
7.619999999999999
 49
4.7625
 74
    0
 49
-0.9525
 74
    0
 49
0.9525
 74
    0
 49
-0.9525
 74
    0
  0
LTYPE
  5
48
330
5
100
AcDbSymbolTableRecord
100
AcDbLinetypeTableRecord
  2
CENTER2
 70
    0
  3
Center (.5x) ___ _ ___ _ ___ _ ___ _ ___ _ ___
 72
   65
 73
    4
 40
28.575
 49
19.05
 74
    0
 49
-3.175
 74
    0
 49
3.175
 74
    0
 49
-3.175
 74
    0
  0
LTYPE
  5
49
330
5
100
AcDbSymbolTableRecord
100
AcDbLinetypeTableRecord
  2
CENTERX2
 70
    0
  3
Center (2x) ________  __  ________  __  _____
 72
   65
 73
    4
 40
101.6
 49
63.5
 74
    0
 49
-12.7
 74
    0
 49
12.7
 74
    0
 49
-12.7
 74
    0
  0
ENDTAB
  0
TABLE
  2
LAYER
  5
2
330
0
100
AcDbSymbolTable
 70
    1
  0
LAYER
  5
10
330
2
100
AcDbSymbolTableRecord
100
AcDbLayerTableRecord
  2
0
 70
    0
 62
    7
  6
CONTINUOUS
370
    0
390
F
  0
LAYER
  5
4A
330
2
100
AcDbSymbolTableRecord
100
AcDbLayerTableRecord
  2
PYDXF
 70
    0
 62
    7
  6
CONTINUOUS
370
   -3
390
F
  0
LAYER
  5
4B
330
2
100
AcDbSymbolTableRecord
100
AcDbLayerTableRecord
  2
pocket
 70
    0
 62
    4
  6
CONTINUOUS
370
    0
390
F
  0
LAYER
  5
4C
330
2
100
AcDbSymbolTableRecord
100
AcDbLayerTableRecord
  2
profiling
 70
    0
 62
    3
  6
CONTINUOUS
370
    0
390
F
  0
LAYER
  5
4D
330
2
100
AcDbSymbolTableRecord
100
AcDbLayerTableRecord
  2
vcut
 70
    0
 62
    6
  6
CONTINUOUS
370
    0
390
F
  0
ENDTAB
  0
TABLE
  2
STYLE
  5
3
330
0
100
AcDbSymbolTable
 70
    3
  0
STYLE
  5
4E
330
2
100
AcDbSymbolTableRecord
100
AcDbTextStyleTableRecord
  2
Standard
 70
    0
 40
0
 41
1
 50
0
 71
    0
 42
1
  3
txt
  4

  0
ENDTAB
  0
TABLE
  2
VIEW
  5
6
330
0
100
AcDbSymbolTable
 70
    0
  0
ENDTAB
  0
TABLE
  2
UCS
  5
7
330
0
100
AcDbSymbolTable
 70
    0
  0
ENDTAB
  0
TABLE
  2
APPID
  5
9
330
0
100
AcDbSymbolTable
 70
    1
  0
APPID
  5
12
330
9
100
AcDbSymbolTableRecord
100
AcDbRegAppTableRecord
  2
ACAD
 70
    0
  0
APPID
  5
4F
330
9
100
AcDbSymbolTableRecord
100
AcDbRegAppTableRecord
  2
LibreCad
 70
    0
  0
ENDTAB
  0
TABLE
  2
DIMSTYLE
  5
A
330
0
100
AcDbSymbolTable
 70
    1
100
AcDbDimStyleTable
 71
    1
  0
DIMSTYLE
105
50
330
A
100
AcDbSymbolTableRecord
100
AcDbDimStyleTableRecord
  2
Standard
 70
    0
 40
2.5
 41
2.5
 42
0.625
 43
0.38
 44
1.25
 45
0
 46
0
 47
0
 48
0
 49
1
140
2.5
141
0.09
142
0
143
25.4
144
1
145
0
146
1
147
0.625
148
0
 71
    0
 72
    0
 73
    0
 74
    1
 75
    0
 76
    0
 77
    0
 78
    8
 79
    0
170
    0
171
    2
172
    0
173
    0
174
    0
175
    0
176
    0
177
    0
178
    0
179
    0
271
    2
272
    4
273
    2
274
    2
275
    0
276
    0
277
    2
278
   44
279
    0
280
    0
281
    0
282
    0
283
    1
284
    0
285
    0
286
    0
288
    0
289
    3
340
STANDARD
341

371
   -2
372
   -2
  0
ENDTAB
  0
TABLE
  2
BLOCK_RECORD
  5
1
330
0
100
AcDbSymbolTable
 70
    2
  0
BLOCK_RECORD
  5
1F
330
1
100
AcDbSymbolTableRecord
100
AcDbBlockTableRecord
  2
*Model_Space
 70
    0
280
    1
281
    0
  0
BLOCK_RECORD
  5
1E
330
1
100
AcDbSymbolTableRecord
100
AcDbBlockTableRecord
  2
*Paper_Space
 70
    0
280
    1
281
    0
  0
ENDTAB
  0
ENDSEC
  0
SECTION
  2
BLOCKS
  0
BLOCK
  5
20
330
1F
100
AcDbEntity
  8
0
100
AcDbBlockBegin
  2
*Model_Space
 70
    0
 10
0
 20
0
 30
0
  3
*Model_Space
  1

  0
ENDBLK
  5
21
330
1F
100
AcDbEntity
  8
0
100
AcDbBlockEnd
  0
BLOCK
  5
1C
330
1B
100
AcDbEntity
  8
0
100
AcDbBlockBegin
  2
*Paper_Space
 70
    0
 10
0
 20
0
 30
0
  3
*Paper_Space
  1

  0
ENDBLK
  5
1D
330
1F
100
AcDbEntity
  8
0
100
AcDbBlockEnd
  0
ENDSEC
  0
SECTION
  2
ENTITIES
  0
LINE
  5
51
100
AcDbEntity
  8
vcut
  6
ByLayer
 62
  256
370
   -1
100
AcDbLine
 10
0.5344700813293457
 20
0.2447288185358047
 11
0.5814700126647949
 21
0.2447288036346436
  0
LINE
  5
52
100
AcDbEntity
  8
vcut
  6
ByLayer
 62
  256
370
   -1
100
AcDbLine
 10
0.5344700217247009
 20
0.1090771034359932
 11
0.5814699530601501
 21
0.109077088534832
  0
LINE
  5
53
100
AcDbEntity
  8
profiling
  6
ByLayer
 62
  256
370
   -1
100
AcDbLine
 10
0.5470617413520813
 20
0.2902076542377472
 11
0.5470404028892517
 21
0.2902055382728577
  0
LINE
  5
54
100
AcDbEntity
  8
profiling
  6
ByLayer
 62
  256
370
   -1
100
AcDbLine
 10
0.5700089931488037
 20
0.07627147436141968
 11
0.5699995756149292
 21
0.07636711001396179
  0
LINE
  5
55
100
AcDbEntity
  8
profiling
  6
ByLayer
 62
  256
370
   -1
100
AcDbLine
 10
0.5704295039176941
 20
0.2882448434829712
 11
0.5704261660575867
 21
0.2882792353630066
  0
LWPOLYLINE
  5
56
100
AcDbEntity
  8
profiling
  6
ByLayer
 62
  256
370
   -1
100
AcDbPolyline
 90
  136
 70
    1
 43
0
 10
0.5344713926315308
 20
0.1090771555900574
 10
0.5344713926315308
 20
0.1769029945135117
 10
0.5344713926315308
 20
0.2447288483381271
 10
0.5344713926315308
 20
0.2882792353630066
 10
0.5345334410667419
 20
0.2894308567047119
 10
0.5346181988716125
 20
0.2905797362327576
 10
0.5347592234611511
 20
0.2917230427265167
 10
0.534956157207489
 20
0.2928580641746521
 10
0.5352085828781128
 20
0.2939820289611816
 10
0.5355157852172852
 20
0.2950922846794128
 10
0.5358771681785583
 20
0.2961861193180084
 10
0.5362917184829712
 20
0.2972609102725983
 10
0.5367586016654968
 20
0.2983140647411346
 10
0.5372765064239502
 20
0.2993430495262146
 10
0.5378443002700806
 20
0.3003453612327576
 10
0.5384606122970581
 20
0.3013186156749725
 10
0.5391239523887634
 20
0.3022604584693909
 10
0.5398327112197876
 20
0.3031685948371887
 10
0.5405851006507874
 20
0.3040408790111542
 10
0.541379451751709
 20
0.3048751950263977
 10
0.5422137379646301
 20
0.3056695461273193
 10
0.543086051940918
 20
0.3064219653606415
 10
0.5439942479133606
 20
0.3071306943893433
 10
0.5449360609054565
 20
0.3077940046787262
 10
0.5459092855453491
 20
0.3084103167057037
 10
0.5469115972518921
 20
0.3089781403541565
 10
0.5479406118392944
 20
0.3094960749149323
 10
0.548993706703186
 20
0.3099628984928131
 10
0.5500684976577759
 20
0.3103774785995483
 10
0.5511623620986938
 20
0.3107388317584991
 10
0.552272617816925
 20
0.3110460937023163
 10
0.5533965826034546
 20
0.3112984895706177
 10
0.5545315742492676
 20
0.3114954233169556
 10
0.5556749105453491
 20
0.3116364479064941
 10
0.5568237900733948
 20
0.3117212057113647
 10
0.5579714179039001
 20
0.3117494583129883
 10
0.5591190457344055
 20
0.3117212057113647
 10
0.5602679252624512
 20
0.3116364479064941
 10
0.5614112019538879
 20
0.3114954233169556
 10
0.5625462532043457
 20
0.3112984895706177
 10
0.5636702179908752
 20
0.3110460937023163
 10
0.5647804737091064
 20
0.3107388317584991
 10
0.5658743381500244
 20
0.3103774785995483
 10
0.5669490694999695
 20
0.3099628984928131
 10
0.5680022239685059
 20
0.3094960749149323
 10
0.5690311789512634
 20
0.3089781403541565
 10
0.5700334906578064
 20
0.3084103167057037
 10
0.5710067749023438
 20
0.3077940046787262
 10
0.5719485878944397
 20
0.3071306943893433
 10
0.5728567838668823
 20
0.3064219653606415
 10
0.5737290382385254
 20
0.3056695163249969
 10
0.5745633840560913
 20
0.3048751950263977
 10
0.5753577351570129
 20
0.3040408790111542
 10
0.5761101245880127
 20
0.3031685948371887
 10
0.5768188834190369
 20
0.3022604286670685
 10
0.5774822235107422
 20
0.3013185858726501
 10
0.578098475933075
 20
0.3003453314304352
 10
0.5786663293838501
 20
0.2993430197238922
 10
0.5791842341423035
 20
0.2983140349388123
 10
0.5796510577201843
 20
0.2972608804702759
 10
0.5800656676292419
 20
0.2961861193180084
 10
0.5804270505905151
 20
0.2950922846794128
 10
0.5807342529296875
 20
0.2939820289611816
 10
0.5809866189956665
 20
0.2928580343723297
 10
0.5811836123466492
 20
0.2917230129241943
 10
0.5813246369361877
 20
0.2905797064304352
 10
0.5814093351364136
 20
0.2894308567047119
 10
0.5814713835716248
 20
0.2882792353630066
 10
0.5814713835716248
 20
0.2447288334369659
 10
0.58147132396698
 20
0.1769029796123505
 10
0.58147132396698
 20
0.1090770959854126
 10
0.58147132396698
 20
0.06552670896053314
 10
0.5814092755317688
 20
0.06437507271766663
 10
0.581324577331543
 20
0.06322622299194336
 10
0.5811834931373596
 20
0.06208290159702301
 10
0.5809865593910217
 20
0.06094789505004883
 10
0.5807341933250427
 20
0.0598239004611969
 10
0.5804269313812256
 20
0.05871367454528809
 10
0.5800656080245972
 20
0.05761981010437012
 10
0.5796509981155396
 20
0.05654501914978027
 10
0.5791841745376587
 20
0.05549189448356628
 10
0.5786662101745605
 20
0.05446290969848633
 10
0.5780984163284302
 20
0.05346059799194336
 10
0.5774821043014526
 20
0.05248734354972839
 10
0.5768187642097473
 20
0.05154550075531006
 10
0.5761100649833679
 20
0.05063736438751221
 10
0.5753576159477234
 20
0.04976505041122437
 10
0.5745632648468018
 20
0.04893076419830322
 10
0.5737289786338806
 20
0.04813641309738159
 10
0.5728566646575928
 20
0.04738399386405945
 10
0.5719485282897949
 20
0.04667526483535767
 10
0.5710066556930542
 20
0.04601192474365234
 10
0.5700334310531616
 20
0.04539564251899719
 10
0.5690311193466187
 20
0.04482781887054443
 10
0.5680021643638611
 20
0.04430988430976868
 10
0.5669490098953247
 20
0.04384306073188782
 10
0.5658742189407349
 20
0.04342848062515259
 10
0.5647803544998169
 20
0.04306709766387939
 10
0.5636701583862305
 20
0.04275983572006226
 10
0.5625461339950562
 20
0.04250746965408325
 10
0.5614111423492432
 20
0.04231053590774536
 10
0.5602678060531616
 20
0.04216951131820679
 10
0.559118926525116
 20
0.04208475351333618
 10
0.5579713582992554
 20
0.04205647110939026
 10
0.5568236708641052
 20
0.04208475351333618
 10
0.5556748509407043
 20
0.04216951131820679
 10
0.5545315146446228
 20
0.04231053590774536
 10
0.553396463394165
 20
0.04250746965408325
 10
0.5522725582122803
 20
0.04275986552238464
 10
0.5511622428894043
 20
0.04306712746620178
 10
0.5500684380531311
 20
0.04342848062515259
 10
0.5489936470985413
 20
0.04384306073188782
 10
0.5479405522346497
 20
0.04430988430976868
 10
0.5469115376472473
 20
0.04482784867286682
 10
0.5459092259407043
 20
0.04539564251899719
 10
0.544935941696167
 20
0.04601195454597473
 10
0.543994128704071
 20
0.04667526483535767
 10
0.5430859923362732
 20
0.04738399386405945
 10
0.5422136783599854
 20
0.04813644289970398
 10
0.5413793921470642
 20
0.04893076419830322
 10
0.5405850410461426
 20
0.04976508021354675
 10
0.539832592010498
 20
0.05063736438751221
 10
0.5391238331794739
 20
0.05154553055763245
 10
0.5384605526924133
 20
0.05248737335205078
 10
0.5378442406654358
 20
0.05346062779426575
 10
0.5372764468193054
 20
0.05446293950080872
 10
0.5367585420608521
 20
0.05549192428588867
 10
0.5362916588783264
 20
0.05654504895210266
 10
0.5358771085739136
 20
0.0576198399066925
 10
0.5355157256126404
 20
0.05871367454528809
 10
0.5352084636688232
 20
0.05982393026351929
 10
0.5349560976028442
 20
0.06094792485237122
 10
0.5347591638565063
 20
0.0620829164981842
 10
0.5346181392669678
 20
0.06322623789310455
 10
0.5345333814620972
 20
0.06437508761882782
 10
0.534471333026886
 20
0.06552672386169434
  0
LWPOLYLINE
  5
57
100
AcDbEntity
  8
profiling
  6
ByLayer
 62
  256
370
   -1
100
AcDbPolyline
 90
   42
 70
    1
 43
0
 10
0.5454313158988953
 20
0.2882448434829712
 10
0.5454768538475037
 20
0.2878313958644867
 10
0.5455834865570068
 20
0.2874798178672791
 10
0.5456621050834656
 20
0.2873326539993286
 10
0.5457682013511658
 20
0.287134200334549
 10
0.5460168123245239
 20
0.286831259727478
 10
0.5463197827339172
 20
0.2865826189517975
 10
0.546665370464325
 20
0.2863979041576385
 10
0.5470404028892517
 20
0.2862841188907623
 10
0.5474303960800171
 20
0.2862457036972046
 10
0.5478204488754272
 20
0.2862841188907623
 10
0.548195481300354
 20
0.2863979041576385
 10
0.5485410690307617
 20
0.2865826189517975
 10
0.548844039440155
 20
0.286831259727478
 10
0.5489593744277954
 20
0.2869718074798584
 10
0.5489683151245117
 20
0.2869827151298523
 10
0.5490926504135132
 20
0.287134200334549
 10
0.5492773652076721
 20
0.2874798178672791
 10
0.5493345260620117
 20
0.2876682579517365
 10
0.5493911504745483
 20
0.2878548204898834
 10
0.5494295358657837
 20
0.2882448434829712
 10
0.5494261384010315
 20
0.2882792353630066
 10
0.5493911504745483
 20
0.288634866476059
 10
0.5492773652076721
 20
0.2890098690986633
 10
0.5492429137229919
 20
0.2890743613243103
 10
0.5490926504135132
 20
0.2893554866313934
 10
0.548844039440155
 20
0.2896584272384644
 10
0.5485410690307617
 20
0.2899070680141449
 10
0.5483837723731995
 20
0.2899911403656006
 10
0.548195481300354
 20
0.2900917828083038
 10
0.5479347109794617
 20
0.2901708781719208
 10
0.5478204488754272
 20
0.2902055382728577
 10
0.5474303960800171
 20
0.2902439534664154
 10
0.5473766922950745
 20
0.2902386784553528
 10
0.5470404028892517
 20
0.2902055382728577
 10
0.5469351410865784
 20
0.2901736199855804
 10
0.546665370464325
 20
0.2900917828083038
 10
0.5463197827339172
 20
0.2899070680141449
 10
0.5460168123245239
 20
0.2896584272384644
 10
0.5457682013511658
 20
0.2893554866313934
 10
0.5455834865570068
 20
0.2890098690986633
 10
0.5454697012901306
 20
0.2886346876621246
  0
LWPOLYLINE
  5
58
100
AcDbEntity
  8
profiling
  6
ByLayer
 62
  256
370
   -1
100
AcDbPolyline
 90
   47
 70
    1
 43
0
 10
0.5668663382530212
 20
0.2870146036148071
 10
0.5670168399810791
 20
0.2868312299251556
 10
0.5671874284744263
 20
0.2866912186145782
 10
0.5673197507858276
 20
0.2865826189517975
 10
0.5676653385162354
 20
0.2863978743553162
 10
0.5677868723869324
 20
0.2863610088825226
 10
0.5680403709411621
 20
0.2862841188907623
 10
0.5684303641319275
 20
0.2862457036972046
 10
0.5686417818069458
 20
0.2862665355205536
 10
0.5688204169273376
 20
0.2862841188907623
 10
0.5691208839416504
 20
0.2863752841949463
 10
0.5691954493522644
 20
0.2863978743553162
 10
0.5695410966873169
 20
0.2865826189517975
 10
0.5698440074920654
 20
0.2868312299251556
 10
0.5700926184654236
 20
0.2871341705322266
 10
0.5702773332595825
 20
0.2874798178672791
 10
0.5703911185264587
 20
0.2878548204898834
 10
0.5704156756401062
 20
0.2881042957305908
 10
0.5704261660575867
 20
0.2882792353630066
 10
0.5703911185264587
 20
0.2886348366737366
 10
0.5702773332595825
 20
0.2890098690986633
 10
0.5700926184654236
 20
0.2893554866313934
 10
0.5699576735496521
 20
0.289519876241684
 10
0.5698440074920654
 20
0.2896584272384644
 10
0.5695410966873169
 20
0.2899070382118225
 10
0.5693659782409668
 20
0.2900006175041199
 10
0.5691954493522644
 20
0.2900917828083038
 10
0.5688204169273376
 20
0.2902055382728577
 10
0.5684303641319275
 20
0.2902439534664154
 10
0.5680617094039917
 20
0.2902076542377472
 10
0.5680403709411621
 20
0.2902055382728577
 10
0.5677976012229919
 20
0.2901318967342377
 10
0.5676653385162354
 20
0.2900917828083038
 10
0.5675176382064819
 20
0.2900128066539764
 10
0.5673197507858276
 20
0.2899070382118225
 10
0.5670168399810791
 20
0.2896584272384644
 10
0.5667681694030762
 20
0.2893554866313934
 10
0.5666848421096802
 20
0.2891995906829834
 10
0.5665834546089172
 20
0.2890098690986633
 10
0.566469669342041
 20
0.2886348366737366
 10
0.5664346814155579
 20
0.2882792353630066
 10
0.5664312839508057
 20
0.2882448434829712
 10
0.566469669342041
 20
0.2878548204898834
 10
0.5664748549461365
 20
0.2878377139568329
 10
0.5664768218994141
 20
0.2878313958644867
 10
0.5665834546089172
 20
0.2874798178672791
 10
0.5667681694030762
 20
0.2871341705322266
  0
LWPOLYLINE
  5
59
100
AcDbEntity
  8
profiling
  6
ByLayer
 62
  256
370
   -1
100
AcDbPolyline
 90
    1
 70
    1
 43
0
 10
0.5454697012901306
 20
0.2878548204898834
  0
LWPOLYLINE
  5
5A
100
AcDbEntity
  8
profiling
  6
ByLayer
 62
  256
370
   -1
100
AcDbPolyline
 90
   32
 70
    1
 43
0
 10
0.5530197024345398
 20
0.2872699797153473
 10
0.5533041954040527
 20
0.2863321900367737
 10
0.553766131401062
 20
0.2854679524898529
 10
0.5543878078460693
 20
0.2847104072570801
 10
0.5551453828811646
 20
0.2840887010097504
 10
0.5560095906257629
 20
0.2836267650127411
 10
0.5569473505020142
 20
0.2833422720432281
 10
0.5579226016998291
 20
0.283246248960495
 10
0.558897852897644
 20
0.2833422720432281
 10
0.55983567237854
 20
0.2836267650127411
 10
0.5606999397277832
 20
0.2840887010097504
 10
0.5614573955535889
 20
0.2847104072570801
 10
0.562079131603241
 20
0.2854679226875305
 10
0.562541127204895
 20
0.2863321900367737
 10
0.5628198385238647
 20
0.2872509956359863
 10
0.5629216432571411
 20
0.2882452011108398
 10
0.5628255605697632
 20
0.2892204523086548
 10
0.562541127204895
 20
0.2901582419872284
 10
0.562079131603241
 20
0.2910225093364716
 10
0.5614574551582336
 20
0.291780024766922
 10
0.5606999397277832
 20
0.2924017310142517
 10
0.55983567237854
 20
0.2928636968135834
 10
0.558897852897644
 20
0.2931481599807739
 10
0.5579226016998291
 20
0.2932442128658295
 10
0.5569473505020142
 20
0.2931481599807739
 10
0.5560095906257629
 20
0.2928636968135834
 10
0.5551453828811646
 20
0.2924017310142517
 10
0.5543878078460693
 20
0.291780024766922
 10
0.553766131401062
 20
0.2910225093364716
 10
0.5533041954040527
 20
0.2901582419872284
 10
0.5530197024345398
 20
0.2892204523086548
 10
0.5529236793518066
 20
0.2882452309131622
  0
LWPOLYLINE
  5
5B
100
AcDbEntity
  8
profiling
  6
ByLayer
 62
  256
370
   -1
100
AcDbPolyline
 90
   38
 70
    1
 43
0
 10
0.5493324995040894
 20
0.1876283586025238
 10
0.5490329265594482
 20
0.1877192258834839
 10
0.5487213730812073
 20
0.1877499222755432
 10
0.5484098196029663
 20
0.1877192407846451
 10
0.5481102466583252
 20
0.1876283586025238
 10
0.5478341579437256
 20
0.1874807924032211
 10
0.5476192831993103
 20
0.1873044520616531
 10
0.5475921630859375
 20
0.1872821897268295
 10
0.5474915504455566
 20
0.1871595978736877
 10
0.5473935604095459
 20
0.1870402097702026
 10
0.5473546385765076
 20
0.1869673579931259
 10
0.547245979309082
 20
0.186764121055603
 10
0.5471551418304443
 20
0.1864645481109619
 10
0.5471243858337402
 20
0.1861530095338821
 10
0.5471551418304443
 20
0.1858414560556412
 10
0.547245979309082
 20
0.1855418682098389
 10
0.5473935604095459
 20
0.1852657943964005
 10
0.5475921630859375
 20
0.1850238144397736
 10
0.5476215481758118
 20
0.1849997043609619
 10
0.5478341579437256
 20
0.1848251968622208
 10
0.5481102466583252
 20
0.1846776306629181
 10
0.5484098196029663
 20
0.184586763381958
 10
0.5487213730812073
 20
0.1845560669898987
 10
0.5490329265594482
 20
0.184586763381958
 10
0.5493324398994446
 20
0.1846776157617569
 10
0.549608588218689
 20
0.1848251819610596
 10
0.5498505830764771
 20
0.1850237995386124
 10
0.5498766899108887
 20
0.1850556284189224
 10
0.5500491857528687
 20
0.1852657794952393
 10
0.5501967668533325
 20
0.1855418682098389
 10
0.5502876043319702
 20
0.18584144115448
 10
0.5503183007240295
 20
0.1861529797315598
 10
0.5502876043319702
 20
0.1864645481109619
 10
0.5501967668533325
 20
0.186764121055603
 10
0.5500491857528687
 20
0.1870401799678802
 10
0.5500392317771912
 20
0.1870523393154144
 10
0.5498505830764771
 20
0.1872821897268295
 10
0.549608588218689
 20
0.1874807775020599
  0
LWPOLYLINE
  5
5C
100
AcDbEntity
  8
profiling
  6
ByLayer
 62
  256
370
   -1
100
AcDbPolyline
 90
   37
 70
    1
 43
0
 10
0.5498505830764771
 20
0.1665238738059998
 10
0.5500491857528687
 20
0.1667658537626266
 10
0.5501967072486877
 20
0.1670419275760651
 10
0.5502876043319702
 20
0.1673415154218674
 10
0.5503183007240295
 20
0.1676530539989471
 10
0.5502876043319702
 20
0.1679646074771881
 10
0.5501967072486877
 20
0.1682641804218292
 10
0.5500491857528687
 20
0.1685402542352676
 10
0.5498505830764771
 20
0.1687822490930557
 10
0.549608588218689
 20
0.1689808517694473
 10
0.5493324398994446
 20
0.1691284328699112
 10
0.5492363572120667
 20
0.1691575795412064
 10
0.5490329265594482
 20
0.1692193001508713
 10
0.548812210559845
 20
0.1692410409450531
 10
0.5487213730812073
 20
0.1692499965429306
 10
0.5485370755195618
 20
0.1692318469285965
 10
0.5484098196029663
 20
0.1692193150520325
 10
0.5481102466583252
 20
0.1691284328699112
 10
0.5478341579437256
 20
0.1689808666706085
 10
0.5475921630859375
 20
0.1687822639942169
 10
0.5473935604095459
 20
0.1685402691364288
 10
0.547245979309082
 20
0.1682641953229904
 10
0.5471551418304443
 20
0.1679646223783493
 10
0.5471543073654175
 20
0.1679562330245972
 10
0.5471243858337402
 20
0.1676530689001083
 10
0.547142505645752
 20
0.1674692332744598
 10
0.5471551418304443
 20
0.1673415154218674
 10
0.547245979309082
 20
0.1670419573783875
 10
0.5473935604095459
 20
0.1667658686637878
 10
0.5475921630859375
 20
0.1665238738059998
 10
0.5478341579437256
 20
0.1663252711296082
 10
0.5481102466583252
 20
0.1661776900291443
 10
0.5484098196029663
 20
0.1660868376493454
 10
0.5487213730812073
 20
0.1660561412572861
 10
0.5490329265594482
 20
0.1660868376493454
 10
0.5493324398994446
 20
0.1661776900291443
 10
0.549608588218689
 20
0.1663252711296082
  0
LWPOLYLINE
  5
5D
100
AcDbEntity
  8
profiling
  6
ByLayer
 62
  256
370
   -1
100
AcDbPolyline
 90
   33
 70
    1
 43
0
 10
0.5661422610282898
 20
0.1688233762979507
 10
0.5660921335220337
 20
0.1687822490930557
 10
0.5658935308456421
 20
0.1685402542352676
 10
0.565746009349823
 20
0.1682641804218292
 10
0.5656551122665405
 20
0.1679646074771881
 10
0.5656244158744812
 20
0.1676530539989471
 10
0.5656551122665405
 20
0.1673415154218674
 10
0.565746009349823
 20
0.1670419424772263
 10
0.5658935308456421
 20
0.1667658537626266
 10
0.5660921335220337
 20
0.1665238738059998
 10
0.5663341283798218
 20
0.1663252711296082
 10
0.5666102170944214
 20
0.1661776900291443
 10
0.5669097900390625
 20
0.1660868227481842
 10
0.5672213435173035
 20
0.1660561263561249
 10
0.5675328969955444
 20
0.1660868227481842
 10
0.5678324699401855
 20
0.1661776900291443
 10
0.5681085586547852
 20
0.1663252711296082
 10
0.5683505535125732
 20
0.1665238738059998
 10
0.5685491561889648
 20
0.1667658537626266
 10
0.5686967372894287
 20
0.1670419424772263
 10
0.5687875747680664
 20
0.1673415154218674
 10
0.5688183307647705
 20
0.1676530539989471
 10
0.5687875747680664
 20
0.1679646074771881
 10
0.5686967372894287
 20
0.1682641804218292
 10
0.5685491561889648
 20
0.1685402542352676
 10
0.5683505535125732
 20
0.1687822490930557
 10
0.5681085586547852
 20
0.1689808517694473
 10
0.5678324699401855
 20
0.1691284328699112
 10
0.5675328969955444
 20
0.1692193001508713
 10
0.5672213435173035
 20
0.1692499965429306
 10
0.5669097900390625
 20
0.1692193001508713
 10
0.5666102170944214
 20
0.1691284328699112
 10
0.5663341283798218
 20
0.1689808517694473
  0
LWPOLYLINE
  5
5E
100
AcDbEntity
  8
profiling
  6
ByLayer
 62
  256
370
   -1
100
AcDbPolyline
 90
   37
 70
    0
 43
0
 10
0.565746009349823
 20
0.1855418682098389
 10
0.5658935308456421
 20
0.1852657794952393
 10
0.5660921931266785
 20
0.1850237995386124
 10
0.5663341283798218
 20
0.1848251819610596
 10
0.5666102170944214
 20
0.1846776157617569
 10
0.5669097900390625
 20
0.1845867484807968
 10
0.5672213435173035
 20
0.1845560669898987
 10
0.5675328969955444
 20
0.1845867484807968
 10
0.5678324699401855
 20
0.1846776157617569
 10
0.5681085586547852
 20
0.1848251819610596
 10
0.5683505535125732
 20
0.1850237846374512
 10
0.5685491561889648
 20
0.1852657794952393
 10
0.5685830116271973
 20
0.1853290945291519
 10
0.5686967372894287
 20
0.1855418682098389
 10
0.5687413811683655
 20
0.1856890320777893
 10
0.5687875747680664
 20
0.18584144115448
 10
0.5688183307647705
 20
0.1861529797315598
 10
0.5687875747680664
 20
0.1864645332098007
 10
0.5686967372894287
 20
0.186764121055603
 10
0.5685491561889648
 20
0.1870401799678802
 10
0.5683505535125732
 20
0.1872821748256683
 10
0.5681085586547852
 20
0.1874807775020599
 10
0.5678324699401855
 20
0.1876283586025238
 10
0.5675328969955444
 20
0.1877192258834839
 10
0.5672213435173035
 20
0.1877499222755432
 10
0.566954493522644
 20
0.1877236366271973
 10
0.5669097900390625
 20
0.1877192258834839
 10
0.5667063593864441
 20
0.187657505273819
 10
0.5666102170944214
 20
0.1876283586025238
 10
0.5663341283798218
 20
0.1874807775020599
 10
0.5660921931266785
 20
0.1872821897268295
 10
0.5658935308456421
 20
0.1870401799678802
 10
0.565746009349823
 20
0.186764121055603
 10
0.5656551122665405
 20
0.1864645481109619
 10
0.5656244158744812
 20
0.1861529797315598
 10
0.5656551122665405
 20
0.18584144115448
 10
0.565746009349823
 20
0.1855418682098389
  0
LWPOLYLINE
  5
5F
100
AcDbEntity
  8
profiling
  6
ByLayer
 62
  256
370
   -1
100
AcDbPolyline
 90
   34
 70
    1
 43
0
 10
0.5459521412849426
 20
0.1391087770462036
 10
0.5461000204086304
 20
0.138832151889801
 10
0.5462989807128906
 20
0.1385896950960159
 10
0.5465414524078369
 20
0.1383907198905945
 10
0.5468180775642395
 20
0.1382428556680679
 10
0.5471182465553284
 20
0.1381517946720123
 10
0.5474303960800171
 20
0.138121098279953
 10
0.547742486000061
 20
0.1381517946720123
 10
0.5480426549911499
 20
0.1382428556680679
 10
0.5483192801475525
 20
0.1383907198905945
 10
0.5485617518424988
 20
0.1385896950960159
 10
0.548760712146759
 20
0.138832151889801
 10
0.5489085912704468
 20
0.1391087770462036
 10
0.5489996075630188
 20
0.1394089162349701
 10
0.5490303635597229
 20
0.1397210508584976
 10
0.5489996075630188
 20
0.1400332003831863
 10
0.5489085912704468
 20
0.140333354473114
 10
0.548760712146759
 20
0.1406099498271942
 10
0.5486177802085876
 20
0.1407841295003891
 10
0.5485617518424988
 20
0.1408524066209793
 10
0.5483192801475525
 20
0.1410513818264008
 10
0.5480426549911499
 20
0.1411992460489273
 10
0.547742486000061
 20
0.1412903070449829
 10
0.5474303960800171
 20
0.1413210481405258
 10
0.5471182465553284
 20
0.1412903070449829
 10
0.5468180775642395
 20
0.1411992460489273
 10
0.5465414524078369
 20
0.1410513818264008
 10
0.5462989807128906
 20
0.1408524066209793
 10
0.5461000204086304
 20
0.1406099498271942
 10
0.5459521412849426
 20
0.140333354473114
 10
0.5458968877792358
 20
0.1401511579751968
 10
0.5458611249923706
 20
0.1400332003831863
 10
0.5458303689956665
 20
0.1397210508584976
 10
0.5458611249923706
 20
0.1394089162349701
  0
LWPOLYLINE
  5
60
100
AcDbEntity
  8
profiling
  6
ByLayer
 62
  256
370
   -1
100
AcDbPolyline
 90
   36
 70
    1
 43
0
 10
0.5675414800643921
 20
0.1383907198905945
 10
0.5678180456161499
 20
0.1382428556680679
 10
0.5681182146072388
 20
0.1381517946720123
 10
0.5684303641319275
 20
0.1381210684776306
 10
0.5687425136566162
 20
0.1381517946720123
 10
0.5690426230430603
 20
0.1382428556680679
 10
0.5693192481994629
 20
0.1383907198905945
 10
0.5694679021835327
 20
0.1385126709938049
 10
0.5695617198944092
 20
0.1385896950960159
 10
0.5697014927864075
 20
0.1387600153684616
 10
0.5697606801986694
 20
0.138832151889801
 10
0.5699085593223572
 20
0.1391087472438812
 10
0.5699995756149292
 20
0.1394089013338089
 10
0.5700303316116333
 20
0.1397210508584976
 10
0.5699995756149292
 20
0.1400332003831863
 10
0.5699085593223572
 20
0.140333354473114
 10
0.5697606801986694
 20
0.1406099498271942
 10
0.5695617198944092
 20
0.1408524066209793
 10
0.5693192481994629
 20
0.1410513818264008
 10
0.5690426230430603
 20
0.1411992460489273
 10
0.5687425136566162
 20
0.1412903070449829
 10
0.5684303641319275
 20
0.1413210481405258
 10
0.5681182146072388
 20
0.1412903070449829
 10
0.5678180456161499
 20
0.1411992460489273
 10
0.5675414800643921
 20
0.1410513818264008
 10
0.5672990083694458
 20
0.1408524066209793
 10
0.5670999884605408
 20
0.1406099498271942
 10
0.567067563533783
 20
0.1405491828918457
 10
0.5669521689414978
 20
0.140333354473114
 10
0.566861093044281
 20
0.1400332003831863
 10
0.5668303370475769
 20
0.1397210508584976
 10
0.566861093044281
 20
0.1394089013338089
 10
0.5669013857841492
 20
0.1392761766910553
 10
0.5669521689414978
 20
0.1391087472438812
 10
0.5670999884605408
 20
0.138832151889801
 10
0.5672990083694458
 20
0.1385896950960159
  0
LWPOLYLINE
  5
61
100
AcDbEntity
  8
profiling
  6
ByLayer
 62
  256
370
   -1
100
AcDbPolyline
 90
   37
 70
    1
 43
0
 10
0.5485617518424988
 20
0.1238160282373428
 10
0.5483192801475525
 20
0.1240150034427643
 10
0.5480426549911499
 20
0.1241628676652908
 10
0.547742486000061
 20
0.124253898859024
 10
0.5474303364753723
 20
0.124284639954567
 10
0.5471182465553284
 20
0.124253898859024
 10
0.5468180775642395
 20
0.1241628676652908
 10
0.5465414524078369
 20
0.1240150034427643
 10
0.5462989807128906
 20
0.1238160282373428
 10
0.5461000204086304
 20
0.1235735714435577
 10
0.5459521412849426
 20
0.1232969462871552
 10
0.5458611249923706
 20
0.1229968070983887
 10
0.5458303689956665
 20
0.1226846426725388
 10
0.5458611249923706
 20
0.1223725080490112
 10
0.5459521412849426
 20
0.1220723688602448
 10
0.5461000204086304
 20
0.1217957437038422
 10
0.5462989807128906
 20
0.1215532869100571
 10
0.5465414524078369
 20
0.1213543117046356
 10
0.5466515421867371
 20
0.1212954670190811
 10
0.5468180775642395
 20
0.1212064474821091
 10
0.5470824837684631
 20
0.1211262494325638
 10
0.5471182465553284
 20
0.1211154162883759
 10
0.5474303364753723
 20
0.1210846900939941
 10
0.547742486000061
 20
0.1211154162883759
 10
0.5480426549911499
 20
0.1212064474821091
 10
0.5482091903686523
 20
0.1212954670190811
 10
0.5483192801475525
 20
0.1213543117046356
 10
0.5483801960945129
 20
0.121404305100441
 10
0.5485617518424988
 20
0.1215532869100571
 10
0.548760712146759
 20
0.1217957437038422
 10
0.5489085912704468
 20
0.1220723688602448
 10
0.5489996075630188
 20
0.1223725080490112
 10
0.5490303635597229
 20
0.1226846724748611
 10
0.5489996075630188
 20
0.1229968070983887
 10
0.5489479303359985
 20
0.1231671720743179
 10
0.5489085912704468
 20
0.1232969462871552
 10
0.548760712146759
 20
0.1235735714435577
  0
LWPOLYLINE
  5
62
100
AcDbEntity
  8
profiling
  6
ByLayer
 62
  256
370
   -1
100
AcDbPolyline
 90
   37
 70
    1
 43
0
 10
0.5678180456161499
 20
0.1241628378629684
 10
0.5675414800643921
 20
0.1240149885416031
 10
0.5672990083694458
 20
0.1238160133361816
 10
0.5670999884605408
 20
0.1235735416412354
 10
0.5669521689414978
 20
0.123296931385994
 10
0.5668988823890686
 20
0.1231213212013245
 10
0.566861093044281
 20
0.1229967921972275
 10
0.5668303370475769
 20
0.1226846277713776
 10
0.566861093044281
 20
0.12237249314785
 10
0.5669521689414978
 20
0.1220723539590836
 10
0.5670623779296875
 20
0.1218661367893219
 10
0.5670999884605408
 20
0.121795728802681
 10
0.5672990083694458
 20
0.1215532720088959
 10
0.5675414800643921
 20
0.1213542968034744
 10
0.5678180456161499
 20
0.1212064325809479
 10
0.5681182146072388
 20
0.1211154013872147
 10
0.5684303641319275
 20
0.1210846751928329
 10
0.5686129331588745
 20
0.1211026310920715
 10
0.5687425136566162
 20
0.1211154013872147
 10
0.5690426230430603
 20
0.1212064325809479
 10
0.5693192481994629
 20
0.1213542968034744
 10
0.5695617198944092
 20
0.1215532720088959
 10
0.5697606801986694
 20
0.121795728802681
 10
0.5697982907295227
 20
0.1218661367893219
 10
0.5699085593223572
 20
0.1220723539590836
 10
0.5699995756149292
 20
0.12237249314785
 10
0.5700118541717529
 20
0.1224969476461411
 10
0.5700303316116333
 20
0.1226846426725388
 10
0.5699995756149292
 20
0.1229967921972275
 10
0.5699085593223572
 20
0.123296931385994
 10
0.5697606801986694
 20
0.1235735416412354
 10
0.5695617198944092
 20
0.1238160133361816
 10
0.5693192481994629
 20
0.1240149885416031
 10
0.5690426230430603
 20
0.1241628378629684
 10
0.5687425136566162
 20
0.1242538839578629
 10
0.5684303641319275
 20
0.1242846250534058
 10
0.5681182146072388
 20
0.1242538839578629
  0
LWPOLYLINE
  5
63
100
AcDbEntity
  8
profiling
  6
ByLayer
 62
  256
370
   -1
100
AcDbPolyline
 90
   63
 70
    1
 43
0
 10
0.5607477426528931
 20
0.1838063448667526
 10
0.5603353977203369
 20
0.184053510427475
 10
0.5599007606506348
 20
0.1842590570449829
 10
0.5594481229782104
 20
0.18442103266716
 10
0.5589817762374878
 20
0.1845378428697586
 10
0.5585062503814697
 20
0.1846083849668503
 10
0.5580260157585144
 20
0.1846319884061813
 10
0.557826042175293
 20
0.1846319884061813
 10
0.5573458671569824
 20
0.1846083849668503
 10
0.5568703413009644
 20
0.1845378428697586
 10
0.5564039945602417
 20
0.18442103266716
 10
0.5559512972831726
 20
0.1842590719461441
 10
0.5555167198181152
 20
0.1840535253286362
 10
0.5551043152809143
 20
0.1838063448667526
 10
0.5547181367874146
 20
0.1835199594497681
 10
0.5543619394302368
 20
0.1831970810890198
 10
0.5540390610694885
 20
0.1828408688306808
 10
0.5537526607513428
 20
0.1824547201395035
 10
0.553505539894104
 20
0.1820423603057861
 10
0.5532999634742737
 20
0.1816077530384064
 10
0.5531380176544189
 20
0.1811550855636597
 10
0.5530211925506592
 20
0.1806887239217758
 10
0.5529506206512451
 20
0.1802131682634354
 10
0.5529270172119141
 20
0.1797329485416412
 10
0.5529270172119141
 20
0.1768975704908371
 10
0.5529270172119141
 20
0.1713975071907043
 10
0.5529270172119141
 20
0.1669919639825821
 10
0.5529282689094543
 20
0.1362808346748352
 10
0.553023099899292
 20
0.1353181749582291
 10
0.5531648397445679
 20
0.134850949048996
 10
0.5533075332641602
 20
0.1343804001808167
 10
0.5536514520645142
 20
0.1337370127439499
 10
0.5537695288658142
 20
0.1335161328315735
 10
0.5538413524627686
 20
0.133428618311882
 10
0.5543912649154663
 20
0.132758617401123
 10
0.555148720741272
 20
0.1321369111537933
 10
0.5560129880905151
 20
0.1316749453544617
 10
0.5569508075714111
 20
0.1313904821872711
 10
0.5579260587692261
 20
0.1312944144010544
 10
0.558901309967041
 20
0.1313904821872711
 10
0.5598390698432922
 20
0.1316749453544617
 10
0.5607032775878906
 20
0.1321369111537933
 10
0.5614608526229858
 20
0.132758617401123
 10
0.5618085861206055
 20
0.1331823766231537
 10
0.5620825290679932
 20
0.1335161328315735
 10
0.562281608581543
 20
0.1338885575532913
 10
0.5625444650650024
 20
0.1343804001808167
 10
0.5627384781837463
 20
0.1350198537111282
 10
0.5628289580345154
 20
0.1353181749582291
 10
0.5629249811172485
 20
0.1362934708595276
 10
0.5629249811172485
 20
0.1669919490814209
 10
0.5629249811172485
 20
0.1713975071907043
 10
0.5629249811172485
 20
0.1768975704908371
 10
0.5629249811172485
 20
0.1797329485416412
 10
0.562901496887207
 20
0.1802131533622742
 10
0.562830924987793
 20
0.1806887239217758
 10
0.5627140998840332
 20
0.1811550706624985
 10
0.5625520944595337
 20
0.1816077381372452
 10
0.5623465776443481
 20
0.1820423454046249
 10
0.5620993971824646
 20
0.1824547201395035
 10
0.5618129968643188
 20
0.1828408688306808
 10
0.5614901781082153
 20
0.1831970810890198
 10
0.5611339807510376
 20
0.1835199594497681
  0
LWPOLYLINE
  5
64
100
AcDbEntity
  8
profiling
  6
ByLayer
 62
  256
370
   -1
100
AcDbPolyline
 90
   37
 70
    1
 43
0
 10
0.5681182146072388
 20
0.09704634547233582
 10
0.5678180456161499
 20
0.09695532917976379
 10
0.5675414204597473
 20
0.09680746495723724
 10
0.5672990083694458
 20
0.0966084897518158
 10
0.5670999884605408
 20
0.0963660329580307
 10
0.566952109336853
 20
0.09608940780162811
 10
0.566861093044281
 20
0.09578926861286163
 10
0.5668303370475769
 20
0.09547710418701172
 10
0.566861093044281
 20
0.09516496956348419
 10
0.566952109336853
 20
0.09486481547355652
 10
0.5670999884605408
 20
0.09458820521831512
 10
0.567298948764801
 20
0.09434574842453003
 10
0.5675414204597473
 20
0.09414675831794739
 10
0.5678180456161499
 20
0.09399890899658203
 10
0.5680937170982361
 20
0.09391529858112335
 10
0.5681182146072388
 20
0.09390787780284882
 10
0.5684303641319275
 20
0.09387713670730591
 10
0.5687424540519714
 20
0.09390787780284882
 10
0.5689223408699036
 20
0.09396243095397949
 10
0.5690426230430603
 20
0.09399890899658203
 10
0.5692068934440613
 20
0.09408673644065857
 10
0.5693192481994629
 20
0.09414675831794739
 10
0.5695617198944092
 20
0.09434574842453003
 10
0.5697606801986694
 20
0.09458820521831512
 10
0.5699085593223572
 20
0.09486481547355652
 10
0.5699995756149292
 20
0.09516496956348419
 10
0.5700303316116333
 20
0.09547710418701172
 10
0.5700118541717529
 20
0.09566481411457062
 10
0.5699995756149292
 20
0.09578926861286163
 10
0.5699085593223572
 20
0.09608940780162811
 10
0.5697982907295227
 20
0.09629562497138977
 10
0.5697606801986694
 20
0.0963660329580307
 10
0.5695617198944092
 20
0.0966084897518158
 10
0.5693192481994629
 20
0.09680746495723724
 10
0.5690426230430603
 20
0.09695532917976379
 10
0.5687424540519714
 20
0.09704634547233582
 10
0.5684303641319275
 20
0.09707708656787872
  0
LWPOLYLINE
  5
65
100
AcDbEntity
  8
profiling
  6
ByLayer
 62
  256
370
   -1
100
AcDbPolyline
 90
   38
 70
    1
 43
0
 10
0.566952109336853
 20
0.07544268667697906
 10
0.5670999884605408
 20
0.07516606152057648
 10
0.567298948764801
 20
0.07492358982563019
 10
0.5675414204597473
 20
0.07472459971904755
 10
0.567654013633728
 20
0.07466444373130798
 10
0.5678180456161499
 20
0.07457676529884338
 10
0.5681182146072388
 20
0.07448573410511017
 10
0.5684303045272827
 20
0.07445497810840607
 10
0.5685328245162964
 20
0.0744650661945343
 10
0.5687424540519714
 20
0.07448573410511017
 10
0.5690426230430603
 20
0.07457676529884338
 10
0.5692066550254822
 20
0.07466444373130798
 10
0.5693192481994629
 20
0.07472459971904755
 10
0.5695617198944092
 20
0.07492358982563019
 10
0.5697262287139893
 20
0.07512404024600983
 10
0.5697606801986694
 20
0.07516606152057648
 10
0.5699085593223572
 20
0.07544268667697906
 10
0.5699478983879089
 20
0.07557246088981628
 10
0.5699995756149292
 20
0.07574282586574554
 10
0.5700303316116333
 20
0.07605496048927307
 10
0.5699995756149292
 20
0.07636711001396179
 10
0.5699085593223572
 20
0.07666724920272827
 10
0.5697606801986694
 20
0.07694387435913086
 10
0.5695617198944092
 20
0.07718634605407715
 10
0.5693192481994629
 20
0.0773853212594986
 10
0.5690426230430603
 20
0.07753317058086395
 10
0.5687782168388367
 20
0.07761336863040924
 10
0.5687424540519714
 20
0.07762421667575836
 10
0.5684303641319275
 20
0.07765494287014008
 10
0.5681182146072388
 20
0.07762421667575836
 10
0.5678180456161499
 20
0.07753317058086395
 10
0.5675414204597473
 20
0.0773853212594986
 10
0.567298948764801
 20
0.07718634605407715
 10
0.5670999884605408
 20
0.07694387435913086
 10
0.566952109336853
 20
0.07666724920272827
 10
0.5668610334396362
 20
0.07636711001396179
 10
0.5668303370475769
 20
0.07605496048927307
 10
0.5668610334396362
 20
0.07574282586574554
  0
LWPOLYLINE
  5
66
100
AcDbEntity
  8
profiling
  6
ByLayer
 62
  256
370
   -1
100
AcDbPolyline
 90
   41
 70
    1
 43
0
 10
0.548561692237854
 20
0.07492361962795258
 10
0.548760712146759
 20
0.07516607642173767
 10
0.548908531665802
 20
0.07544270157814026
 10
0.5489996075630188
 20
0.07574284076690674
 10
0.5490303635597229
 20
0.07605497539043427
 10
0.5490212440490723
 20
0.07614755630493164
 10
0.5489996075630188
 20
0.07636713981628418
 10
0.548908531665802
 20
0.07666727900505066
 10
0.548760712146759
 20
0.07694390416145325
 10
0.548561692237854
 20
0.07718636095523834
 10
0.5483192205429077
 20
0.07738533616065979
 10
0.5481038689613342
 20
0.07750046253204346
 10
0.5480426549911499
 20
0.07753318548202515
 10
0.547742486000061
 20
0.07762423157691956
 10
0.5474303364753723
 20
0.07765495777130127
 10
0.5472477674484253
 20
0.07763698697090149
 10
0.5471181869506836
 20
0.07762423157691956
 10
0.5468797087669373
 20
0.07755188643932343
 10
0.5468180775642395
 20
0.07753318548202515
 10
0.5465414524078369
 20
0.07738533616065979
 10
0.5464224815368652
 20
0.07728767395019531
 10
0.5462989807128906
 20
0.07718636095523834
 10
0.5461000204086304
 20
0.07694390416145325
 10
0.5459521412849426
 20
0.07666727900505066
 10
0.5458989143371582
 20
0.07649166882038116
 10
0.5458611249923706
 20
0.07636713981628418
 10
0.5458488464355469
 20
0.07624268531799316
 10
0.5458303689956665
 20
0.07605497539043427
 10
0.5458611249923706
 20
0.07574284076690674
 10
0.5459521412849426
 20
0.07544270157814026
 10
0.5461000204086304
 20
0.07516607642173767
 10
0.5461344718933105
 20
0.07512405514717102
 10
0.5462989807128906
 20
0.07492361962795258
 10
0.5464964509010315
 20
0.07476155459880829
 10
0.5465414524078369
 20
0.07472462952136993
 10
0.5468180775642395
 20
0.07457678020000458
 10
0.5471181869506836
 20
0.07448574900627136
 10
0.5474303364753723
 20
0.07445499300956726
 10
0.547742486000061
 20
0.07448574900627136
 10
0.5480426549911499
 20
0.07457678020000458
 10
0.5483192205429077
 20
0.07472462952136993
  0
LWPOLYLINE
  5
67
100
AcDbEntity
  8
profiling
  6
ByLayer
 62
  256
370
   -1
100
AcDbPolyline
 90
   36
 70
    1
 43
0
 10
0.5486317276954651
 20
0.09652315080165863
 10
0.548561692237854
 20
0.09660850465297699
 10
0.5483192801475525
 20
0.09680747985839844
 10
0.5480426549911499
 20
0.09695534408092499
 10
0.547742486000061
 20
0.09704636037349701
 10
0.5474303364753723
 20
0.09707710146903992
 10
0.5471182465553284
 20
0.09704636037349701
 10
0.5468180775642395
 20
0.09695534408092499
 10
0.5465414524078369
 20
0.09680747985839844
 10
0.5462989807128906
 20
0.09660850465297699
 10
0.5461000204086304
 20
0.09636604785919189
 10
0.5460624098777771
 20
0.09629563987255096
 10
0.5459521412849426
 20
0.09608942270278931
 10
0.5458611249923706
 20
0.09578928351402283
 10
0.5458303689956665
 20
0.09547713398933411
 10
0.5458611249923706
 20
0.09516498446464539
 10
0.5459521412849426
 20
0.09486483037471771
 10
0.5461000204086304
 20
0.09458823502063751
 10
0.5462989807128906
 20
0.09434576332569122
 10
0.5465414524078369
 20
0.09414677321910858
 10
0.5468180775642395
 20
0.09399893879890442
 10
0.5471182465553284
 20
0.09390789270401001
 10
0.5474303364753723
 20
0.0938771516084671
 10
0.547742486000061
 20
0.09390789270401001
 10
0.5480426549911499
 20
0.09399893879890442
 10
0.5483192205429077
 20
0.09414677321910858
 10
0.548561692237854
 20
0.09434576332569122
 10
0.548760712146759
 20
0.09458823502063751
 10
0.5489085912704468
 20
0.09486483037471771
 10
0.5489996075630188
 20
0.09516498446464539
 10
0.5490218997001648
 20
0.0953914076089859
 10
0.5490303635597229
 20
0.09547713398933411
 10
0.5490097999572754
 20
0.09568582475185394
 10
0.5489996075630188
 20
0.09578928351402283
 10
0.5489085912704468
 20
0.09608942270278931
 10
0.548760712146759
 20
0.09636604785919189
  0
LWPOLYLINE
  5
68
100
AcDbEntity
  8
profiling
  6
ByLayer
 62
  256
370
   -1
100
AcDbPolyline
 90
   33
 70
    1
 43
0
 10
0.5681182146072388
 20
0.05662423372268677
 10
0.5678180456161499
 20
0.05653318762779236
 10
0.5675414204597473
 20
0.056385338306427
 10
0.567298948764801
 20
0.05618634819984436
 10
0.5670999884605408
 20
0.05594390630722046
 10
0.566952109336853
 20
0.05566728115081787
 10
0.5668610334396362
 20
0.05536714196205139
 10
0.5668303370475769
 20
0.05505499243736267
 10
0.5668610334396362
 20
0.05474284291267395
 10
0.566952109336853
 20
0.05444270372390747
 10
0.5670999884605408
 20
0.05416607856750488
 10
0.567298948764801
 20
0.05392360687255859
 10
0.5675414204597473
 20
0.05372464656829834
 10
0.5678180456161499
 20
0.0535767674446106
 10
0.5681182146072388
 20
0.05348575115203857
 10
0.5684303045272827
 20
0.05345499515533447
 10
0.5687424540519714
 20
0.05348575115203857
 10
0.5690426230430603
 20
0.0535767674446106
 10
0.5693192481994629
 20
0.05372464656829834
 10
0.5695617198944092
 20
0.05392360687255859
 10
0.5697606801986694
 20
0.05416607856750488
 10
0.5699085593223572
 20
0.05444270372390747
 10
0.5699995756149292
 20
0.05474284291267395
 10
0.5700303316116333
 20
0.05505496263504028
 10
0.5699995756149292
 20
0.05536714196205139
 10
0.5699085593223572
 20
0.05566728115081787
 10
0.569794237613678
 20
0.05588105320930481
 10
0.5697606801986694
 20
0.05594390630722046
 10
0.5695617198944092
 20
0.05618634819984436
 10
0.5693192481994629
 20
0.056385338306427
 10
0.5690426230430603
 20
0.05653318762779236
 10
0.5687424540519714
 20
0.05662423372268677
 10
0.5684303045272827
 20
0.05665495991706848
  0
LWPOLYLINE
  5
69
100
AcDbEntity
  8
profiling
  6
ByLayer
 62
  256
370
   -1
100
AcDbPolyline
 90
   34
 70
    1
 43
0
 10
0.5474303364753723
 20
0.05345502495765686
 10
0.547742486000061
 20
0.05348575115203857
 10
0.5480426549911499
 20
0.05357679724693298
 10
0.5483192205429077
 20
0.05372464656829834
 10
0.548561692237854
 20
0.05392363667488098
 10
0.548760712146759
 20
0.05416610836982727
 10
0.548908531665802
 20
0.05444270372390747
 10
0.5489996075630188
 20
0.05474284291267395
 10
0.5490303635597229
 20
0.05505499243736267
 10
0.5489996075630188
 20
0.05536714196205139
 10
0.548908531665802
 20
0.05566728115081787
 10
0.548760712146759
 20
0.05594390630722046
 10
0.548561692237854
 20
0.05618637800216675
 10
0.5483192205429077
 20
0.056385338306427
 10
0.5480426549911499
 20
0.05653321743011475
 10
0.547742486000061
 20
0.05662423372268677
 10
0.5474303364753723
 20
0.05665495991706848
 10
0.5471181869506836
 20
0.05662423372268677
 10
0.5468180775642395
 20
0.05653321743011475
 10
0.5465414524078369
 20
0.056385338306427
 10
0.5462989807128906
 20
0.05618637800216675
 10
0.5461000204086304
 20
0.05594390630722046
 10
0.5459521412849426
 20
0.05566728115081787
 10
0.5458611249923706
 20
0.05536714196205139
 10
0.5458303689956665
 20
0.05505502223968506
 10
0.5458611249923706
 20
0.05474284291267395
 10
0.5459133982658386
 20
0.05457046627998352
 10
0.5459521412849426
 20
0.05444270372390747
 10
0.5460984706878662
 20
0.05416899919509888
 10
0.5460999608039856
 20
0.05416610836982727
 10
0.5462989807128906
 20
0.05392363667488098
 10
0.5465413928031921
 20
0.05372464656829834
 10
0.5468180775642395
 20
0.05357679724693298
 10
0.5471181869506836
 20
0.05348575115203857
  0
ENDSEC
  0
SECTION
  2
OBJECTS
  0
DICTIONARY
  5
C
330
0
100
AcDbDictionary
281
    1
  3
ACAD_GROUP
350
D
  0
DICTIONARY
  5
D
330
C
100
AcDbDictionary
281
    1
  0
ENDSEC
  0
EOF
