999
dxfrw 0.6.3
  0
SECTION
  2
HEADER
  9
$ACADVER
  1
AC1021
  9
$DWGCODEPAGE
  3
ANSI_1252
  9
$INSBASE
 10
0
 20
0
 30
0
  9
$EXTMIN
 10
957.91425
 20
82.16249999999999
 30
0
  9
$EXTMAX
 10
1019.277
 20
434.2635
 30
0
  9
$LIMMIN
 10
0
 20
0
  9
$LIMMAX
 10
420
 20
297
  9
$ORTHOMODE
 70
    0
  9
$REGENMODE
 70
    1
  9
$FILLMODE
 70
    1
  9
$QTEXTMODE
 70
    0
  9
$MIRRTEXT
 70
    0
  9
$LTSCALE
 40
1
  9
$ATTMODE
 70
    0
  9
$TEXTSIZE
 40
2.5
  9
$TRACEWID
 40
15.68
  9
$TEXTSTYLE
  7
STANDARD
  9
$CLAYER
  8
0
  9
$CELTYPE
  6
BYLAYER
  9
$CECOLOR
 62
  256
  9
$CELTSCALE
 40
1
  9
$DISPSILH
 70
    0
  9
$DIMSCALE
 40
2.5
  9
$DIMASZ
 40
2.5
  9
$DIMEXO
 40
0.625
  9
$DIMDLI
 40
3.75
  9
$DIMRND
 40
0
  9
$DIMDLE
 40
0
  9
$DIMEXE
 40
1.25
  9
$DIMTP
 40
0
  9
$DIMTM
 40
0
  9
$DIMTXT
 40
2.5
  9
$DIMCEN
 40
2.5
  9
$DIMTSZ
 40
0
  9
$DIMTOL
 70
    0
  9
$DIMLIM
 70
    0
  9
$DIMTIH
 70
    0
  9
$DIMTOH
 70
    0
  9
$DIMSE1
 70
    0
  9
$DIMSE2
 70
    0
  9
$DIMTAD
 70
    1
  9
$DIMZIN
 70
    8
  9
$DIMBLK
  1

  9
$DIMASO
 70
    1
  9
$DIMSHO
 70
    1
  9
$DIMPOST
  1

  9
$DIMAPOST
  1

  9
$DIMALT
 70
    0
  9
$DIMALTD
 70
    3
  9
$DIMALTF
 40
0.03937
  9
$DIMLFAC
 40
1
  9
$DIMTOFL
 70
    1
  9
$DIMTVP
 40
0
  9
$DIMTIX
 70
    0
  9
$DIMSOXD
 70
    0
  9
$DIMSAH
 70
    0
  9
$DIMBLK1
  1

  9
$DIMBLK2
  1

  9
$DIMSTYLE
  2
Standard
  9
$DIMCLRD
 70
    0
  9
$DIMCLRE
 70
    0
  9
$DIMCLRT
 70
    0
  9
$DIMTFAC
 40
1
  9
$DIMGAP
 40
0.625
  9
$DIMJUST
 70
    0
  9
$DIMSD1
 70
    0
  9
$DIMSD2
 70
    0
  9
$DIMTOLJ
 70
    0
  9
$DIMTZIN
 70
    8
  9
$DIMALTZ
 70
    0
  9
$DIMALTTZ
 70
    0
  9
$DIMUPT
 70
    0
  9
$DIMDEC
 70
    2
  9
$DIMTDEC
 70
    2
  9
$DIMALTU
 70
    2
  9
$DIMALTTD
 70
    3
  9
$DIMTXSTY
  7
STANDARD
  9
$DIMAUNIT
 70
    0
  9
$DIMADEC
 70
    0
  9
$DIMALTRND
 40
0
  9
$DIMAZIN
 70
    0
  9
$DIMDSEP
 70
   44
  9
$DIMATFIT
 70
    3
  9
$DIMFRAC
 70
    0
  9
$DIMLDRBLK
  1
STANDARD
  9
$DIMLUNIT
 70
    2
  9
$DIMLWD
 70
   -2
  9
$DIMLWE
 70
   -2
  9
$DIMTMOVE
 70
    0
  9
$DIMFXL
 40
1
  9
$DIMFXLON
 70
    0
  9
$DIMJOGANG
 40
0.7854
  9
$DIMTFILL
 70
    0
  9
$DIMTFILLCLR
 70
    0
  9
$DIMARCSYM
 70
    0
  9
$DIMLTYPE
  6

  9
$DIMLTEX1
  6

  9
$DIMLTEX2
  6

  9
$LUNITS
 70
    2
  9
$LUPREC
 70
    4
  9
$SKETCHINC
 40
1
  9
$FILLETRAD
 40
0
  9
$AUNITS
 70
    0
  9
$AUPREC
 70
    2
  9
$MENU
  1
.
  9
$ELEVATION
 40
0
  9
$PELEVATION
 40
0
  9
$THICKNESS
 40
0
  9
$LIMCHECK
 70
    0
  9
$CHAMFERA
 40
0
  9
$CHAMFERB
 40
0
  9
$CHAMFERC
 40
0
  9
$CHAMFERD
 40
0
  9
$SKPOLY
 70
    0
  9
$USRTIMER
 70
    1
  9
$ANGBASE
 50
0
  9
$ANGDIR
 70
    0
  9
$PDMODE
 70
   34
  9
$PDSIZE
 40
0
  9
$PLINEWID
 40
0
  9
$SPLFRAME
 70
    0
  9
$SPLINETYPE
 70
    2
  9
$SPLINESEGS
 70
    8
  9
$HANDSEED
  5
20000
  9
$SURFTAB1
 70
    6
  9
$SURFTAB2
 70
    6
  9
$SURFTYPE
 70
    6
  9
$SURFU
 70
    6
  9
$SURFV
 70
    6
  9
$UCSBASE
  2

  9
$UCSNAME
  2

  9
$UCSORG
 10
0
 20
0
 30
0
  9
$UCSXDIR
 10
1
 20
0
 30
0
  9
$UCSYDIR
 10
0
 20
1
 30
0
  9
$UCSORTHOREF
  2

  9
$UCSORTHOVIEW
 70
    0
  9
$UCSORGTOP
 10
0
 20
0
 30
0
  9
$UCSORGBOTTOM
 10
0
 20
0
 30
0
  9
$UCSORGLEFT
 10
0
 20
0
 30
0
  9
$UCSORGRIGHT
 10
0
 20
0
 30
0
  9
$UCSORGFRONT
 10
0
 20
0
 30
0
  9
$UCSORGBACK
 10
0
 20
0
 30
0
  9
$PUCSBASE
  2

  9
$PUCSNAME
  2

  9
$PUCSORG
 10
0
 20
0
 30
0
  9
$PUCSXDIR
 10
1
 20
0
 30
0
  9
$PUCSYDIR
 10
0
 20
1
 30
0
  9
$PUCSORTHOREF
  2

  9
$PUCSORTHOVIEW
 70
    0
  9
$PUCSORGTOP
 10
0
 20
0
 30
0
  9
$PUCSORGBOTTOM
 10
0
 20
0
 30
0
  9
$PUCSORGLEFT
 10
0
 20
0
 30
0
  9
$PUCSORGRIGHT
 10
0
 20
0
 30
0
  9
$PUCSORGFRONT
 10
0
 20
0
 30
0
  9
$PUCSORGBACK
 10
0
 20
0
 30
0
  9
$USERI1
 70
    0
  9
$USERI2
 70
    0
  9
$USERI3
 70
    0
  9
$USERI4
 70
    0
  9
$USERI5
 70
    0
  9
$USERR1
 40
0
  9
$USERR2
 40
0
  9
$USERR3
 40
0
  9
$USERR4
 40
0
  9
$USERR5
 40
0
  9
$WORLDVIEW
 70
    1
  9
$SHADEDGE
 70
    3
  9
$SHADEDIF
 70
   70
  9
$TILEMODE
 70
    1
  9
$MAXACTVP
 70
   64
  9
$PINSBASE
 10
0
 20
0
 30
0
  9
$PLIMCHECK
 70
    0
  9
$PEXTMIN
 10
0
 20
0
 30
0
  9
$PEXTMAX
 10
0
 20
0
 30
0
  9
$GRIDMODE
 70
    0
  9
$SNAPSTYLE
 70
    0
  9
$PLIMMIN
 10
0
 20
0
  9
$PLIMMAX
 10
210
 20
297
  9
$UNITMODE
 70
    0
  9
$VISRETAIN
 70
    1
  9
$PLINEGEN
 70
    0
  9
$PSLTSCALE
 70
    1
  9
$TREEDEPTH
 70
 3020
  9
$CMLSTYLE
  2
Standard
  9
$CMLJUST
 70
    0
  9
$CMLSCALE
 40
20
  9
$PROXYGRAPHICS
 70
    1
  9
$MEASUREMENT
 70
    1
  9
$CELWEIGHT
370
   -1
  9
$ENDCAPS
280
    0
  9
$JOINSTYLE
280
    0
  9
$LWDISPLAY
290
    0
  9
$INSUNITS
 70
    4
  9
$HYPERLINKBASE
  1

  9
$STYLESHEET
  1

  9
$XEDIT
290
    1
  9
$CEPSNTYPE
380
    0
  9
$PSTYLEMODE
290
    1
  9
$EXTNAMES
290
    1
  9
$PSVPSCALE
 40
1
  9
$OLESTARTUP
290
    0
  9
$SORTENTS
280
  127
  9
$INDEXCTL
280
    0
  9
$HIDETEXT
280
    1
  9
$XCLIPFRAME
290
    0
  9
$HALOGAP
280
    0
  9
$OBSCOLOR
 70
  257
  9
$OBSLTYPE
280
    0
  9
$INTERSECTIONDISPLAY
280
    0
  9
$INTERSECTIONCOLOR
 70
  257
  9
$DIMASSOC
280
    1
  9
$PROJECTNAME
  1

  9
$CAMERADISPLAY
290
    0
  9
$LENSLENGTH
 40
50
  9
$CAMERAHEIGHT
 40
0
  9
$STEPSPERSEC
 40
2
  9
$STEPSIZE
 40
50
  9
$3DDWFPREC
 40
2
  9
$PSOLWIDTH
 40
5
  9
$PSOLHEIGHT
 40
80
  9
$LOFTANG1
 40
1.570796326794897
  9
$LOFTANG2
 40
1.570796326794897
  9
$LOFTMAG1
 40
0
  9
$LOFTMAG2
 40
0
  9
$LOFTPARAM
 70
    7
  9
$LOFTNORMALS
280
    1
  9
$LATITUDE
 40
1
  9
$LONGITUDE
 40
1
  9
$NORTHDIRECTION
 40
0
  9
$TIMEZONE
 70
-8000
  9
$LIGHTGLYPHDISPLAY
280
    1
  9
$TILEMODELIGHTSYNCH
280
    1
  9
$SOLIDHIST
280
    1
  9
$SHOWHIST
280
    1
  9
$DWFFRAME
280
    2
  9
$DGNFRAME
280
    0
  9
$REALWORLDSCALE
290
    1
  9
$INTERFERECOLOR
 62
    1
  9
$CSHADOW
280
    0
  9
$SHADOWPLANELOCATION
 40
0
  0
ENDSEC
  0
SECTION
  2
CLASSES
  0
ENDSEC
  0
SECTION
  2
TABLES
  0
TABLE
  2
VPORT
  5
8
330
0
100
AcDbSymbolTable
 70
    1
  0
VPORT
  5
31
330
2
100
AcDbSymbolTableRecord
100
AcDbViewportTableRecord
  2
*ACTIVE
 70
    0
 10
0
 20
0
 11
1
 21
1
 12
751.9279263210333
 22
234.8851479077491
 13
0
 23
0
 14
10
 24
10
 15
10
 25
10
 16
0
 26
0
 36
1
 17
0
 27
0
 37
0
 40
420.0357047490775
 41
2.46189917936694
 42
50
 43
0
 44
0
 50
0
 51
0
 71
    0
 72
  100
 73
    1
 74
    3
 75
    0
 76
    0
 77
    0
 78
    0
281
    0
 65
    1
110
0
120
0
130
0
111
1
121
0
131
0
112
0
122
1
132
0
 79
    0
146
0
348
10020
 60
    7
 61
    5
292
1
282
    1
141
0
142
0
 63
  250
421
3358443
  0
ENDTAB
  0
TABLE
  2
LTYPE
  5
5
330
0
100
AcDbSymbolTable
 70
    4
  0
LTYPE
  5
14
330
5
100
AcDbSymbolTableRecord
100
AcDbLinetypeTableRecord
  2
ByBlock
 70
    0
  3

 72
   65
 73
    0
 40
0
  0
LTYPE
  5
15
330
5
100
AcDbSymbolTableRecord
100
AcDbLinetypeTableRecord
  2
ByLayer
 70
    0
  3

 72
   65
 73
    0
 40
0
  0
LTYPE
  5
16
330
5
100
AcDbSymbolTableRecord
100
AcDbLinetypeTableRecord
  2
Continuous
 70
    0
  3
Solid line
 72
   65
 73
    0
 40
0
  0
LTYPE
  5
32
330
5
100
AcDbSymbolTableRecord
100
AcDbLinetypeTableRecord
  2
DOT
 70
    0
  3
Dot . . . . . . . . . . . . . . . . . . . . . .
 72
   65
 73
    2
 40
6.35
 49
0
 74
    0
 49
-6.35
 74
    0
  0
LTYPE
  5
33
330
5
100
AcDbSymbolTableRecord
100
AcDbLinetypeTableRecord
  2
DOTTINY
 70
    0
  3
Dot (.15x) .....................................
 72
   65
 73
    2
 40
0.9525
 49
0
 74
    0
 49
-0.9525
 74
    0
  0
LTYPE
  5
34
330
5
100
AcDbSymbolTableRecord
100
AcDbLinetypeTableRecord
  2
DOT2
 70
    0
  3
Dot (.5x) .....................................
 72
   65
 73
    2
 40
3.175
 49
0
 74
    0
 49
-3.175
 74
    0
  0
LTYPE
  5
35
330
5
100
AcDbSymbolTableRecord
100
AcDbLinetypeTableRecord
  2
DOTX2
 70
    0
  3
Dot (2x) .  .  .  .  .  .  .  .  .  .  .  .  .
 72
   65
 73
    2
 40
12.7
 49
0
 74
    0
 49
-12.7
 74
    0
  0
LTYPE
  5
36
330
5
100
AcDbSymbolTableRecord
100
AcDbLinetypeTableRecord
  2
DASHED
 70
    0
  3
Dashed _ _ _ _ _ _ _ _ _ _ _ _ _ _ _ _ _
 72
   65
 73
    2
 40
19.05
 49
12.7
 74
    0
 49
-6.35
 74
    0
  0
LTYPE
  5
37
330
5
100
AcDbSymbolTableRecord
100
AcDbLinetypeTableRecord
  2
DASHEDTINY
 70
    0
  3
Dashed (.15x) _ _ _ _ _ _ _ _ _ _ _ _ _ _ _ _ _
 72
   65
 73
    2
 40
2.8575
 49
1.905
 74
    0
 49
-0.9525
 74
    0
  0
LTYPE
  5
38
330
5
100
AcDbSymbolTableRecord
100
AcDbLinetypeTableRecord
  2
DASHED2
 70
    0
  3
Dashed (.5x) _ _ _ _ _ _ _ _ _ _ _ _ _ _ _ _ _
 72
   65
 73
    2
 40
9.524999999999999
 49
6.35
 74
    0
 49
-3.175
 74
    0
  0
LTYPE
  5
39
330
5
100
AcDbSymbolTableRecord
100
AcDbLinetypeTableRecord
  2
DASHEDX2
 70
    0
  3
Dashed (2x) ____  ____  ____  ____  ____  ___
 72
   65
 73
    2
 40
38.09999999999999
 49
25.4
 74
    0
 49
-12.7
 74
    0
  0
LTYPE
  5
3A
330
5
100
AcDbSymbolTableRecord
100
AcDbLinetypeTableRecord
  2
DASHDOT
 70
    0
  3
Dash dot __ . __ . __ . __ . __ . __ . __ . __
 72
   65
 73
    4
 40
25.4
 49
12.7
 74
    0
 49
-6.35
 74
    0
 49
0
 74
    0
 49
-6.35
 74
    0
  0
LTYPE
  5
3B
330
5
100
AcDbSymbolTableRecord
100
AcDbLinetypeTableRecord
  2
DASHDOTTINY
 70
    0
  3
Dash dot (.15x) _._._._._._._._._._._._._._._.
 72
   65
 73
    4
 40
3.81
 49
1.905
 74
    0
 49
-0.9525
 74
    0
 49
0
 74
    0
 49
-0.9525
 74
    0
  0
LTYPE
  5
3C
330
5
100
AcDbSymbolTableRecord
100
AcDbLinetypeTableRecord
  2
DASHDOT2
 70
    0
  3
Dash dot (.5x) _._._._._._._._._._._._._._._.
 72
   65
 73
    4
 40
12.7
 49
6.35
 74
    0
 49
-3.175
 74
    0
 49
0
 74
    0
 49
-3.175
 74
    0
  0
LTYPE
  5
3D
330
5
100
AcDbSymbolTableRecord
100
AcDbLinetypeTableRecord
  2
DASHDOTX2
 70
    0
  3
Dash dot (2x) ____  .  ____  .  ____  .  ___
 72
   65
 73
    4
 40
50.8
 49
25.4
 74
    0
 49
-12.7
 74
    0
 49
0
 74
    0
 49
-12.7
 74
    0
  0
LTYPE
  5
3E
330
5
100
AcDbSymbolTableRecord
100
AcDbLinetypeTableRecord
  2
DIVIDE
 70
    0
  3
Divide ____ . . ____ . . ____ . . ____ . . ____
 72
   65
 73
    6
 40
31.75
 49
12.7
 74
    0
 49
-6.35
 74
    0
 49
0
 74
    0
 49
-6.35
 74
    0
 49
0
 74
    0
 49
-6.35
 74
    0
  0
LTYPE
  5
3F
330
5
100
AcDbSymbolTableRecord
100
AcDbLinetypeTableRecord
  2
DIVIDETINY
 70
    0
  3
Divide (.15x) __..__..__..__..__..__..__..__.._
 72
   65
 73
    6
 40
4.7625
 49
1.905
 74
    0
 49
-0.9525
 74
    0
 49
0
 74
    0
 49
-0.9525
 74
    0
 49
0
 74
    0
 49
-0.9525
 74
    0
  0
LTYPE
  5
40
330
5
100
AcDbSymbolTableRecord
100
AcDbLinetypeTableRecord
  2
DIVIDE2
 70
    0
  3
Divide (.5x) __..__..__..__..__..__..__..__.._
 72
   65
 73
    6
 40
15.875
 49
6.35
 74
    0
 49
-3.175
 74
    0
 49
0
 74
    0
 49
-3.175
 74
    0
 49
0
 74
    0
 49
-3.175
 74
    0
  0
LTYPE
  5
41
330
5
100
AcDbSymbolTableRecord
100
AcDbLinetypeTableRecord
  2
DIVIDEX2
 70
    0
  3
Divide (2x) ________  .  .  ________  .  .  _
 72
   65
 73
    6
 40
63.5
 49
25.4
 74
    0
 49
-12.7
 74
    0
 49
0
 74
    0
 49
-12.7
 74
    0
 49
0
 74
    0
 49
-12.7
 74
    0
  0
LTYPE
  5
42
330
5
100
AcDbSymbolTableRecord
100
AcDbLinetypeTableRecord
  2
BORDER
 70
    0
  3
Border __ __ . __ __ . __ __ . __ __ . __ __ .
 72
   65
 73
    6
 40
44.45
 49
12.7
 74
    0
 49
-6.35
 74
    0
 49
12.7
 74
    0
 49
-6.35
 74
    0
 49
0
 74
    0
 49
-6.35
 74
    0
  0
LTYPE
  5
43
330
5
100
AcDbSymbolTableRecord
100
AcDbLinetypeTableRecord
  2
BORDERTINY
 70
    0
  3
Border (.15x) __.__.__.__.__.__.__.__.__.__.__.
 72
   65
 73
    6
 40
6.6675
 49
1.905
 74
    0
 49
-0.9525
 74
    0
 49
1.905
 74
    0
 49
-0.9525
 74
    0
 49
0
 74
    0
 49
-0.9525
 74
    0
  0
LTYPE
  5
44
330
5
100
AcDbSymbolTableRecord
100
AcDbLinetypeTableRecord
  2
BORDER2
 70
    0
  3
Border (.5x) __.__.__.__.__.__.__.__.__.__.__.
 72
   65
 73
    6
 40
22.225
 49
6.35
 74
    0
 49
-3.175
 74
    0
 49
6.35
 74
    0
 49
-3.175
 74
    0
 49
0
 74
    0
 49
-3.175
 74
    0
  0
LTYPE
  5
45
330
5
100
AcDbSymbolTableRecord
100
AcDbLinetypeTableRecord
  2
BORDERX2
 70
    0
  3
Border (2x) ____  ____  .  ____  ____  .  ___
 72
   65
 73
    6
 40
88.89999999999999
 49
25.4
 74
    0
 49
-12.7
 74
    0
 49
25.4
 74
    0
 49
-12.7
 74
    0
 49
0
 74
    0
 49
-12.7
 74
    0
  0
LTYPE
  5
46
330
5
100
AcDbSymbolTableRecord
100
AcDbLinetypeTableRecord
  2
CENTER
 70
    0
  3
Center ____ _ ____ _ ____ _ ____ _ ____ _ ____
 72
   65
 73
    4
 40
50.8
 49
31.75
 74
    0
 49
-6.35
 74
    0
 49
6.35
 74
    0
 49
-6.35
 74
    0
  0
LTYPE
  5
47
330
5
100
AcDbSymbolTableRecord
100
AcDbLinetypeTableRecord
  2
CENTERTINY
 70
    0
  3
Center (.15x) ___ _ ___ _ ___ _ ___ _ ___ _ ___
 72
   65
 73
    4
 40
7.619999999999999
 49
4.7625
 74
    0
 49
-0.9525
 74
    0
 49
0.9525
 74
    0
 49
-0.9525
 74
    0
  0
LTYPE
  5
48
330
5
100
AcDbSymbolTableRecord
100
AcDbLinetypeTableRecord
  2
CENTER2
 70
    0
  3
Center (.5x) ___ _ ___ _ ___ _ ___ _ ___ _ ___
 72
   65
 73
    4
 40
28.575
 49
19.05
 74
    0
 49
-3.175
 74
    0
 49
3.175
 74
    0
 49
-3.175
 74
    0
  0
LTYPE
  5
49
330
5
100
AcDbSymbolTableRecord
100
AcDbLinetypeTableRecord
  2
CENTERX2
 70
    0
  3
Center (2x) ________  __  ________  __  _____
 72
   65
 73
    4
 40
101.6
 49
63.5
 74
    0
 49
-12.7
 74
    0
 49
12.7
 74
    0
 49
-12.7
 74
    0
  0
ENDTAB
  0
TABLE
  2
LAYER
  5
2
330
0
100
AcDbSymbolTable
 70
    1
  0
LAYER
  5
10
330
2
100
AcDbSymbolTableRecord
100
AcDbLayerTableRecord
  2
0
 70
    0
 62
    7
  6
CONTINUOUS
370
   -3
390
F
  0
LAYER
  5
4A
330
2
100
AcDbSymbolTableRecord
100
AcDbLayerTableRecord
  2
pocket
 70
    0
 62
    4
  6
CONTINUOUS
370
    0
390
F
  0
LAYER
  5
4B
330
2
100
AcDbSymbolTableRecord
100
AcDbLayerTableRecord
  2
profiling
 70
    0
 62
    3
  6
CONTINUOUS
370
    0
390
F
  0
LAYER
  5
4C
330
2
100
AcDbSymbolTableRecord
100
AcDbLayerTableRecord
  2
vcut
 70
    0
 62
    6
  6
CONTINUOUS
370
    0
390
F
  0
ENDTAB
  0
TABLE
  2
STYLE
  5
3
330
0
100
AcDbSymbolTable
 70
    3
  0
STYLE
  5
4D
330
2
100
AcDbSymbolTableRecord
100
AcDbTextStyleTableRecord
  2
Standard
 70
    0
 40
0
 41
1
 50
0
 71
    0
 42
1
  3
txt
  4

  0
ENDTAB
  0
TABLE
  2
VIEW
  5
6
330
0
100
AcDbSymbolTable
 70
    0
  0
ENDTAB
  0
TABLE
  2
UCS
  5
7
330
0
100
AcDbSymbolTable
 70
    0
  0
ENDTAB
  0
TABLE
  2
APPID
  5
9
330
0
100
AcDbSymbolTable
 70
    1
  0
APPID
  5
12
330
9
100
AcDbSymbolTableRecord
100
AcDbRegAppTableRecord
  2
ACAD
 70
    0
  0
APPID
  5
4E
330
9
100
AcDbSymbolTableRecord
100
AcDbRegAppTableRecord
  2
LibreCad
 70
    0
  0
ENDTAB
  0
TABLE
  2
DIMSTYLE
  5
A
330
0
100
AcDbSymbolTable
 70
    1
100
AcDbDimStyleTable
 71
    1
  0
DIMSTYLE
105
4F
330
A
100
AcDbSymbolTableRecord
100
AcDbDimStyleTableRecord
  2
Standard
 70
    0
 40
1
 41
2.5
 42
0.625
 43
0.38
 44
1.25
 45
0
 46
0
 47
0
 48
0
 49
1
140
2.5
141
0.09
142
2.5
143
25.4
144
1
145
0
146
1
147
0.625
148
0
 71
    0
 72
    0
 73
    0
 74
    1
 75
    0
 76
    0
 77
    0
 78
    1
 79
    0
170
    0
171
    2
172
    0
173
    0
174
    0
175
    0
176
    0
177
    0
178
    0
179
    0
271
    2
272
    4
273
    2
274
    2
275
    0
276
    0
277
    2
278
    0
279
    0
280
    0
281
    0
282
    0
283
    1
284
    0
285
    0
286
    0
288
    0
289
    3
340
standard
341

371
   -2
372
   -2
  0
ENDTAB
  0
TABLE
  2
BLOCK_RECORD
  5
1
330
0
100
AcDbSymbolTable
 70
    2
  0
BLOCK_RECORD
  5
1F
330
1
100
AcDbSymbolTableRecord
100
AcDbBlockTableRecord
  2
*Model_Space
 70
    0
280
    1
281
    0
  0
BLOCK_RECORD
  5
1E
330
1
100
AcDbSymbolTableRecord
100
AcDbBlockTableRecord
  2
*Paper_Space
 70
    0
280
    1
281
    0
  0
ENDTAB
  0
ENDSEC
  0
SECTION
  2
BLOCKS
  0
BLOCK
  5
20
330
1F
100
AcDbEntity
  8
0
100
AcDbBlockBegin
  2
*Model_Space
 70
    0
 10
0
 20
0
 30
0
  3
*Model_Space
  1

  0
ENDBLK
  5
21
330
1F
100
AcDbEntity
  8
0
100
AcDbBlockEnd
  0
BLOCK
  5
1C
330
1B
100
AcDbEntity
  8
0
100
AcDbBlockBegin
  2
*Paper_Space
 70
    0
 10
0
 20
0
 30
0
  3
*Paper_Space
  1

  0
ENDBLK
  5
1D
330
1F
100
AcDbEntity
  8
0
100
AcDbBlockEnd
  0
ENDSEC
  0
SECTION
  2
ENTITIES
  0
LWPOLYLINE
  5
50
100
AcDbEntity
  8
vcut
  6
ByLayer
 62
  256
370
   -1
100
AcDbPolyline
 90
    2
 70
    0
 43
0
 10
957.9165
 20
346.761
 10
1019.277
 20
346.761
  0
LWPOLYLINE
  5
51
100
AcDbEntity
  8
vcut
  6
ByLayer
 62
  256
370
   -1
100
AcDbPolyline
 90
    2
 70
    0
 43
0
 10
957.9165
 20
169.66125
 10
1019.277
 20
169.66125
  0
LWPOLYLINE
  5
52
100
AcDbEntity
  8
profiling
  6
ByLayer
 62
  256
370
   -1
100
AcDbPolyline
 90
  339
 70
    1
 43
0
 10
987.09825
 20
82.19925000000001
 10
985.59825
 20
82.31025
 10
985.59825
 20
82.31025
 10
985.59825
 20
82.31025
 10
984.1057499999999
 20
82.494
 10
984.1057499999999
 20
82.494
 10
982.62375
 20
82.75125
 10
982.62375
 20
82.75125
 10
981.1559999999999
 20
83.0805
 10
981.1559999999999
 20
83.0805
 10
979.70625
 20
83.48175000000001
 10
979.70625
 20
83.48175000000001
 10
978.27825
 20
83.95350000000001
 10
978.27825
 20
83.95350000000001
 10
976.875
 20
84.495
 10
976.875
 20
84.495
 10
975.5002500000001
 20
85.10475
 10
975.5002500000001
 20
85.10475
 10
974.157
 20
85.78125
 10
974.157
 20
85.78125
 10
972.84825
 20
86.52225
 10
972.84825
 20
86.52225
 10
971.57775
 20
87.327
 10
971.57775
 20
87.327
 10
970.34775
 20
88.19325000000001
 10
970.34775
 20
88.19325000000001
 10
969.162
 20
89.11875000000001
 10
969.162
 20
89.11875000000001
 10
968.0235
 20
90.10124999999999
 10
968.0235
 20
90.10124999999999
 10
966.9345
 20
91.13849999999999
 10
966.9345
 20
91.13849999999999
 10
965.89725
 20
92.22750000000001
 10
965.89725
 20
92.22750000000001
 10
964.91475
 20
93.366
 10
964.91475
 20
93.366
 10
963.98925
 20
94.55175
 10
963.98925
 20
94.55175
 10
963.123
 20
95.78100000000001
 10
963.123
 20
95.78100000000001
 10
962.31825
 20
97.0515
 10
962.31825
 20
97.0515
 10
961.57725
 20
98.36024999999999
 10
961.57725
 20
98.36024999999999
 10
961.57725
 20
98.36024999999999
 10
960.90075
 20
99.70350000000001
 10
960.90075
 20
99.70350000000001
 10
960.90075
 20
99.70350000000001
 10
960.90075
 20
99.70350000000001
 10
960.2910000000001
 20
101.07825
 10
960.2910000000001
 20
101.07825
 10
959.7495
 20
102.4815
 10
959.7495
 20
102.4815
 10
959.7495
 20
102.4815
 10
959.7495
 20
102.4815
 10
959.27775
 20
103.9095
 10
959.27775
 20
103.9095
 10
958.8765
 20
105.35925
 10
958.8765
 20
105.35925
 10
958.8765
 20
105.35925
 10
958.8765
 20
105.35925
 10
958.54725
 20
106.827
 10
958.54725
 20
106.827
 10
958.29
 20
108.309
 10
958.29
 20
108.309
 10
958.29
 20
108.309
 10
958.29
 20
108.309
 10
958.10625
 20
109.8015
 10
958.10625
 20
109.8015
 10
957.9952500000001
 20
111.3015
 10
957.9952500000001
 20
111.3015
 10
957.9952500000001
 20
111.3015
 10
957.91425
 20
112.80525
 10
957.91425
 20
112.80525
 10
957.91425
 20
112.80525
 10
957.91425
 20
169.66275
 10
957.91425
 20
258.213
 10
957.91425
 20
258.213
 10
957.91425
 20
258.213
 10
957.91425
 20
346.76325
 10
957.91425
 20
403.62075
 10
957.91425
 20
403.62075
 10
957.91425
 20
403.62075
 10
957.91425
 20
403.62075
 10
957.9952500000001
 20
405.1245
 10
957.9952500000001
 20
405.1245
 10
957.9952500000001
 20
405.1245
 10
958.10625
 20
406.6245
 10
958.10625
 20
406.6245
 10
958.10625
 20
406.6245
 10
958.10625
 20
406.6245
 10
958.10625
 20
406.6245
 10
958.29
 20
408.117
 10
958.29
 20
408.117
 10
958.54725
 20
409.599
 10
958.54725
 20
409.599
 10
958.54725
 20
409.599
 10
958.8765
 20
411.06675
 10
958.8765
 20
411.06675
 10
959.27775
 20
412.5165
 10
959.27775
 20
412.5165
 10
959.7495
 20
413.9445
 10
959.7495
 20
413.9445
 10
960.2910000000001
 20
415.34775
 10
960.2910000000001
 20
415.34775
 10
960.90075
 20
416.7225
 10
960.90075
 20
416.7225
 10
961.57725
 20
418.06575
 10
961.57725
 20
418.06575
 10
962.31825
 20
419.3745
 10
962.31825
 20
419.3745
 10
963.123
 20
420.645
 10
963.123
 20
420.645
 10
963.98925
 20
421.87425
 10
963.98925
 20
421.87425
 10
963.98925
 20
421.87425
 10
963.98925
 20
421.87425
 10
963.98925
 20
421.87425
 10
964.91475
 20
423.06
 10
964.91475
 20
423.06
 10
964.91475
 20
423.06
 10
964.91475
 20
423.06
 10
965.89725
 20
424.1985
 10
965.89725
 20
424.1985
 10
966.9345
 20
425.2875
 10
966.9345
 20
425.2875
 10
968.0235
 20
426.32475
 10
968.0235
 20
426.32475
 10
969.162
 20
427.30725
 10
969.162
 20
427.30725
 10
970.34775
 20
428.23275
 10
970.34775
 20
428.23275
 10
971.577
 20
429.099
 10
971.577
 20
429.099
 10
972.8475
 20
429.90375
 10
972.8475
 20
429.90375
 10
972.8475
 20
429.90375
 10
972.8475
 20
429.90375
 10
972.8475
 20
429.90375
 10
974.15625
 20
430.64475
 10
974.15625
 20
430.64475
 10
974.15625
 20
430.64475
 10
974.15625
 20
430.64475
 10
975.4995
 20
431.32125
 10
975.4995
 20
431.32125
 10
976.87425
 20
431.931
 10
976.87425
 20
431.931
 10
978.2775
 20
432.4725
 10
978.2775
 20
432.4725
 10
979.7055
 20
432.94425
 10
979.7055
 20
432.94425
 10
981.15525
 20
433.3455
 10
981.15525
 20
433.3455
 10
982.623
 20
433.67475
 10
982.623
 20
433.67475
 10
984.105
 20
433.932
 10
984.105
 20
433.932
 10
985.5975
 20
434.11575
 10
985.5975
 20
434.11575
 10
985.5975
 20
434.11575
 10
987.0975
 20
434.22675
 10
987.0975
 20
434.22675
 10
988.596
 20
434.2635
 10
988.596
 20
434.2635
 10
988.596
 20
434.2635
 10
988.596
 20
434.2635
 10
988.596
 20
434.2635
 10
990.0945
 20
434.22675
 10
990.0945
 20
434.22675
 10
991.5945
 20
434.11575
 10
991.5945
 20
434.11575
 10
991.5945
 20
434.11575
 10
993.087
 20
433.932
 10
993.087
 20
433.932
 10
994.569
 20
433.67475
 10
994.569
 20
433.67475
 10
996.03675
 20
433.3455
 10
996.03675
 20
433.3455
 10
997.4865
 20
432.94425
 10
997.4865
 20
432.94425
 10
998.9145
 20
432.4725
 10
998.9145
 20
432.4725
 10
1000.31775
 20
431.931
 10
1000.31775
 20
431.931
 10
1001.6925
 20
431.32125
 10
1001.6925
 20
431.32125
 10
1003.03575
 20
430.64475
 10
1003.03575
 20
430.64475
 10
1004.3445
 20
429.90375
 10
1004.3445
 20
429.90375
 10
1004.3445
 20
429.90375
 10
1005.615
 20
429.099
 10
1005.615
 20
429.099
 10
1006.84425
 20
428.23275
 10
1006.84425
 20
428.23275
 10
1006.84425
 20
428.23275
 10
1006.84425
 20
428.23275
 10
1008.03
 20
427.30725
 10
1008.03
 20
427.30725
 10
1009.1685
 20
426.32475
 10
1009.1685
 20
426.32475
 10
1009.1685
 20
426.32475
 10
1010.2575
 20
425.2875
 10
1010.2575
 20
425.2875
 10
1011.29475
 20
424.1985
 10
1011.29475
 20
424.1985
 10
1012.27725
 20
423.06
 10
1012.27725
 20
423.06
 10
1013.20275
 20
421.87425
 10
1013.20275
 20
421.87425
 10
1014.069
 20
420.645
 10
1014.069
 20
420.645
 10
1014.87375
 20
419.3745
 10
1014.87375
 20
419.3745
 10
1015.61475
 20
418.06575
 10
1015.61475
 20
418.06575
 10
1015.61475
 20
418.06575
 10
1016.29125
 20
416.7225
 10
1016.29125
 20
416.7225
 10
1016.29125
 20
416.7225
 10
1016.29125
 20
416.7225
 10
1016.901
 20
415.34775
 10
1016.901
 20
415.34775
 10
1017.4425
 20
413.9445
 10
1017.4425
 20
413.9445
 10
1017.91425
 20
412.5165
 10
1017.91425
 20
412.5165
 10
1018.3155
 20
411.06675
 10
1018.3155
 20
411.06675
 10
1018.64475
 20
409.599
 10
1018.64475
 20
409.599
 10
1018.64475
 20
409.599
 10
1018.902
 20
408.117
 10
1018.902
 20
408.117
 10
1018.902
 20
408.117
 10
1018.902
 20
408.117
 10
1019.08575
 20
406.6245
 10
1019.08575
 20
406.6245
 10
1019.196
 20
405.1245
 10
1019.196
 20
405.1245
 10
1019.196
 20
405.1245
 10
1019.277
 20
403.62075
 10
1019.277
 20
403.62075
 10
1019.277
 20
403.62075
 10
1019.277
 20
346.76325
 10
1019.277
 20
346.76325
 10
1019.277
 20
346.76325
 10
1019.277
 20
258.213
 10
1019.277
 20
169.66275
 10
1019.277
 20
169.66275
 10
1019.277
 20
169.66275
 10
1019.277
 20
169.66275
 10
1019.277
 20
112.80525
 10
1019.277
 20
112.80525
 10
1019.277
 20
112.80525
 10
1019.196
 20
111.3015
 10
1019.196
 20
111.3015
 10
1019.196
 20
111.3015
 10
1019.08575
 20
109.8015
 10
1019.08575
 20
109.8015
 10
1018.902
 20
108.309
 10
1018.902
 20
108.309
 10
1018.902
 20
108.309
 10
1018.902
 20
108.309
 10
1018.64475
 20
106.827
 10
1018.64475
 20
106.827
 10
1018.3155
 20
105.35925
 10
1018.3155
 20
105.35925
 10
1018.3155
 20
105.35925
 10
1018.3155
 20
105.35925
 10
1017.91425
 20
103.9095
 10
1017.91425
 20
103.9095
 10
1017.4425
 20
102.4815
 10
1017.4425
 20
102.4815
 10
1017.4425
 20
102.4815
 10
1017.4425
 20
102.4815
 10
1016.901
 20
101.07825
 10
1016.901
 20
101.07825
 10
1016.29125
 20
99.70350000000001
 10
1016.29125
 20
99.70350000000001
 10
1016.29125
 20
99.70350000000001
 10
1016.29125
 20
99.70350000000001
 10
1015.61475
 20
98.36024999999999
 10
1015.61475
 20
98.36024999999999
 10
1015.61475
 20
98.36024999999999
 10
1014.87375
 20
97.0515
 10
1014.87375
 20
97.0515
 10
1014.069
 20
95.78100000000001
 10
1014.069
 20
95.78100000000001
 10
1013.20275
 20
94.55175
 10
1013.20275
 20
94.55175
 10
1012.27725
 20
93.366
 10
1012.27725
 20
93.366
 10
1011.29475
 20
92.22750000000001
 10
1011.29475
 20
92.22750000000001
 10
1010.2575
 20
91.13849999999999
 10
1010.2575
 20
91.13849999999999
 10
1009.1685
 20
90.10124999999999
 10
1009.1685
 20
90.10124999999999
 10
1008.03
 20
89.11875000000001
 10
1008.03
 20
89.11875000000001
 10
1006.84425
 20
88.19325000000001
 10
1006.84425
 20
88.19325000000001
 10
1005.61425
 20
87.327
 10
1005.61425
 20
87.327
 10
1004.34375
 20
86.52225
 10
1004.34375
 20
86.52225
 10
1003.035
 20
85.78125
 10
1003.035
 20
85.78125
 10
1001.69175
 20
85.10475
 10
1001.69175
 20
85.10475
 10
1000.317
 20
84.495
 10
1000.317
 20
84.495
 10
998.9137500000001
 20
83.95350000000001
 10
998.9137500000001
 20
83.95350000000001
 10
997.4857500000001
 20
83.48175000000001
 10
997.4857500000001
 20
83.48175000000001
 10
996.0359999999999
 20
83.0805
 10
996.0359999999999
 20
83.0805
 10
996.0359999999999
 20
83.0805
 10
996.0359999999999
 20
83.0805
 10
994.56825
 20
82.75125
 10
994.56825
 20
82.75125
 10
994.56825
 20
82.75125
 10
994.56825
 20
82.75125
 10
993.0862499999999
 20
82.494
 10
993.0862499999999
 20
82.494
 10
991.59375
 20
82.31025
 10
991.59375
 20
82.31025
 10
991.59375
 20
82.31025
 10
990.09375
 20
82.19925000000001
 10
990.09375
 20
82.19925000000001
 10
988.59525
 20
82.16249999999999
 10
988.59525
 20
82.16249999999999
 10
988.59525
 20
82.16249999999999
 10
988.59525
 20
82.16249999999999
 10
988.59525
 20
82.16249999999999
 10
987.09675
 20
82.19925000000001
 10
987.09675
 20
82.19925000000001
  0
LWPOLYLINE
  5
53
100
AcDbEntity
  8
profiling
  6
ByLayer
 62
  256
370
   -1
100
AcDbPolyline
 90
   51
 70
    1
 43
0
 10
973.38525
 20
405.744
 10
972.99
 20
405.41925
 10
972.66525
 20
405.024
 10
972.42375
 20
404.5725
 10
972.27525
 20
404.08275
 10
972.27525
 20
404.08275
 10
972.225
 20
403.5735
 10
972.225
 20
403.5735
 10
972.27525
 20
403.06425
 10
972.27525
 20
403.06425
 10
972.28425
 20
403.0335
 10
972.42375
 20
402.5745
 10
972.5265000000001
 20
402.3825
 10
972.66525
 20
402.12375
 10
972.99
 20
401.7285
 10
973.38525
 20
401.40375
 10
973.8367500000001
 20
401.16225
 10
974.3265
 20
401.01375
 10
974.83575
 20
400.9635
 10
975.345
 20
401.01375
 10
975.83475
 20
401.16225
 10
976.28625
 20
401.40375
 10
976.6815
 20
401.7285
 10
976.83225
 20
401.91225
 10
976.84425
 20
401.9265
 10
977.00625
 20
402.1245
 10
977.24775
 20
402.576
 10
977.322
 20
402.822
 10
977.39625
 20
403.06575
 10
977.4465
 20
403.575
 10
977.442
 20
403.62
 10
977.442
 20
403.62
 10
977.39625
 20
404.08425
 10
977.24775
 20
404.574
 10
977.20275
 20
404.658
 10
977.00625
 20
405.02475
 10
976.6815
 20
405.42
 10
976.28625
 20
405.74475
 10
976.08075
 20
405.85425
 10
975.83475
 20
405.9855
 10
975.49425
 20
406.089
 10
975.345
 20
406.134
 10
975.345
 20
406.134
 10
974.83575
 20
406.18425
 10
974.76525
 20
406.1775
 10
974.35425
 20
406.137
 10
974.35425
 20
406.137
 10
974.3265
 20
406.134
 10
974.18925
 20
406.092
 10
973.8367500000001
 20
405.9855
 10
973.38525
 20
405.744
  0
LWPOLYLINE
  5
54
100
AcDbEntity
  8
profiling
  6
ByLayer
 62
  256
370
   -1
100
AcDbPolyline
 90
   56
 70
    1
 43
0
 10
982.17825
 20
402.17175
 10
982.4265
 20
401.3535
 10
982.50825
 20
401.08275
 10
983.11125
 20
399.954
 10
983.92275
 20
398.96475
 10
984.912
 20
398.15325
 10
986.04075
 20
397.55025
 10
987.2655
 20
397.179
 10
987.31125
 20
397.1745
 10
987.51975
 20
397.15425
 10
988.5382499999999
 20
397.05375
 10
988.596
 20
397.05975
 10
988.596
 20
397.05975
 10
988.596
 20
397.05975
 10
989.81175
 20
397.17975
 10
991.0365
 20
397.551
 10
992.16525
 20
398.154
 10
993.1545
 20
398.9655
 10
993.966
 20
399.95475
 10
994.569
 20
401.0835
 10
994.94025
 20
402.30825
 10
994.94025
 20
402.30825
 10
995.0655
 20
403.58175
 10
995.06175
 20
403.617
 10
995.06175
 20
403.617
 10
995.06175
 20
403.61925
 10
995.06175
 20
403.61925
 10
995.06175
 20
403.61925
 10
994.94025
 20
404.85525
 10
994.94025
 20
404.85525
 10
994.569
 20
406.08
 10
994.55025
 20
406.1145
 10
993.96525
 20
407.20875
 10
993.1537499999999
 20
408.198
 10
992.1645
 20
409.0095
 10
991.599
 20
409.31175
 10
991.03575
 20
409.61325
 10
989.811
 20
409.9845
 10
988.59525
 20
410.1045
 10
988.5375
 20
410.1105
 10
987.264
 20
409.98525
 10
986.03925
 20
409.614
 10
984.97725
 20
409.04625
 10
984.9105
 20
409.011
 10
983.92125
 20
408.1995
 10
983.10975
 20
407.21025
 10
982.50675
 20
406.0815
 10
982.2525000000001
 20
405.243
 10
982.1355
 20
404.85675
 10
982.1355
 20
404.85675
 10
982.014
 20
403.62075
 10
982.014
 20
403.62075
 10
982.01025
 20
403.58325
 10
982.1355
 20
402.30975
 10
982.155
 20
402.24675
 10
982.17675
 20
402.174
  0
LWPOLYLINE
  5
55
100
AcDbEntity
  8
profiling
  6
ByLayer
 62
  256
370
   -1
100
AcDbPolyline
 90
   38
 70
    1
 43
0
 10
998.62875
 20
270.6945
 10
998.5890000000001
 20
270.288
 10
998.62875
 20
269.8815
 10
998.74725
 20
269.49075
 10
998.9400000000001
 20
269.13
 10
999.1994999999999
 20
268.81425
 10
999.51525
 20
268.55475
 10
999.876
 20
268.362
 10
1000.26675
 20
268.2435
 10
1000.67325
 20
268.20375
 10
1001.07975
 20
268.2435
 10
1001.4705
 20
268.362
 10
1001.83125
 20
268.55475
 10
1002.147
 20
268.81425
 10
1002.4065
 20
269.13
 10
1002.4065
 20
269.13
 10
1002.45075
 20
269.2125
 10
1002.59925
 20
269.49
 10
1002.65775
 20
269.682
 10
1002.71775
 20
269.88075
 10
1002.7575
 20
270.28725
 10
1002.71775
 20
270.69375
 10
1002.59925
 20
271.0845
 10
1002.4065
 20
271.44525
 10
1002.147
 20
271.761
 10
1001.83125
 20
272.0205
 10
1001.4705
 20
272.21325
 10
1001.07975
 20
272.33175
 10
1000.67325
 20
272.3715
 10
1000.32525
 20
272.337
 10
1000.26675
 20
272.331
 10
1000.00125
 20
272.25075
 10
999.876
 20
272.2125
 10
999.51525
 20
272.01975
 10
999.1994999999999
 20
271.76025
 10
998.9400000000001
 20
271.4445
 10
998.74725
 20
271.08375
 10
998.62875
 20
270.693
  0
LWPOLYLINE
  5
56
100
AcDbEntity
  8
profiling
  6
ByLayer
 62
  256
370
   -1
100
AcDbPolyline
 90
   73
 70
    1
 43
0
 10
992.66625
 20
262.4025
 10
992.3362499999999
 20
262.59975
 10
991.989
 20
262.764
 10
991.6275000000001
 20
262.89375
 10
991.3095
 20
262.97325
 10
991.2547499999999
 20
262.98675
 10
990.8745
 20
263.043
 10
990.54075
 20
263.0595
 10
990.4905
 20
263.06175
 10
988.5975
 20
263.06175
 10
986.7045000000001
 20
263.06175
 10
986.3205
 20
263.043
 10
985.94025
 20
262.98675
 10
985.5675
 20
262.893
 10
985.206
 20
262.76325
 10
984.85875
 20
262.599
 10
984.5287499999999
 20
262.40175
 10
984.5287499999999
 20
262.40175
 10
984.24675
 20
262.1925
 10
984.21975
 20
262.17225
 10
984.21825
 20
262.17075
 10
983.9355
 20
261.91425
 10
983.6775
 20
261.62925
 10
983.44875
 20
261.32025
 10
983.2515
 20
260.99025
 10
983.08725
 20
260.643
 10
982.9575
 20
260.28075
 10
982.86375
 20
259.908
 10
982.8075
 20
259.52775
 10
982.7887500000001
 20
259.14375
 10
982.7887500000001
 20
258.20925
 10
982.7887500000001
 20
251.02875
 10
982.7887500000001
 20
251.02875
 10
982.7887500000001
 20
251.02875
 10
982.0170000000001
 20
245.277
 10
982.0170000000001
 20
205.1985
 10
982.14225
 20
203.925
 10
982.5135
 20
202.70025
 10
983.1165
 20
201.5715
 10
983.1165
 20
201.5715
 10
983.928
 20
200.58225
 10
984.91725
 20
199.77075
 10
986.046
 20
199.16775
 10
987.27075
 20
198.7965
 10
988.54425
 20
198.67125
 10
988.54575
 20
198.67125
 10
988.59825
 20
198.6765
 10
988.59825
 20
198.6765
 10
988.59825
 20
198.6765
 10
989.8185
 20
198.7965
 10
991.0432499999999
 20
199.16775
 10
992.172
 20
199.77075
 10
993.16125
 20
200.58225
 10
993.97275
 20
201.5715
 10
994.57575
 20
202.70025
 10
994.947
 20
203.925
 10
995.0722500000001
 20
205.1985
 10
995.0722500000001
 20
245.277
 10
994.40775
 20
251.02875
 10
994.40775
 20
251.02875
 10
994.40775
 20
251.02875
 10
994.40775
 20
258.20925
 10
994.40775
 20
259.14375
 10
994.389
 20
259.52775
 10
994.33275
 20
259.908
 10
994.23975
 20
260.28075
 10
994.11
 20
260.643
 10
993.94575
 20
260.99025
 10
993.7485
 20
261.32025
 10
993.51975
 20
261.62925
 10
993.26175
 20
261.91425
 10
992.97675
 20
262.17225
 10
992.66775
 20
262.401
  0
LWPOLYLINE
  5
57
100
AcDbEntity
  8
profiling
  6
ByLayer
 62
  256
370
   -1
100
AcDbPolyline
 90
   37
 70
    1
 43
0
 10
1000.515
 20
208.50825
 10
1000.7745
 20
208.19175
 10
1001.091
 20
207.93225
 10
1001.45175
 20
207.7395
 10
1001.84325
 20
207.62025
 10
1002.2505
 20
207.5805
 10
1002.65775
 20
207.62025
 10
1003.04925
 20
207.7395
 10
1003.41
 20
207.93225
 10
1003.60425
 20
208.09125
 10
1003.7265
 20
208.19175
 10
1003.90875
 20
208.4145
 10
1003.986
 20
208.509
 10
1004.17875
 20
208.86975
 10
1004.298
 20
209.26125
 10
1004.3385
 20
209.6685
 10
1004.298
 20
210.07575
 10
1004.17875
 20
210.46725
 10
1003.986
 20
210.82875
 10
1003.7265
 20
211.14525
 10
1003.41
 20
211.40475
 10
1003.04925
 20
211.5975
 10
1002.65775
 20
211.716
 10
1002.2505
 20
211.7565
 10
1001.84325
 20
211.716
 10
1001.45175
 20
211.5975
 10
1001.091
 20
211.40475
 10
1000.7745
 20
211.14525
 10
1000.515
 20
210.82875
 10
1000.47225
 20
210.74925
 10
1000.3215
 20
210.46725
 10
1000.20225
 20
210.07575
 10
1000.16175
 20
209.6685
 10
1000.20225
 20
209.26125
 10
1000.25475
 20
209.088
 10
1000.32075
 20
208.86975
 10
1000.5135
 20
208.509
  0
LWPOLYLINE
  5
58
100
AcDbEntity
  8
profiling
  6
ByLayer
 62
  256
370
   -1
100
AcDbPolyline
 90
   40
 70
    1
 43
0
 10
1003.0515
 20
189.357
 10
1002.66
 20
189.4755
 10
1002.25275
 20
189.516
 10
1001.8455
 20
189.4755
 10
1001.454
 20
189.357
 10
1001.09325
 20
189.16425
 10
1000.77675
 20
188.90475
 10
1000.51725
 20
188.58825
 10
1000.3245
 20
188.22675
 10
1000.25475
 20
187.99725
 10
1000.20525
 20
187.8345
 10
1000.20525
 20
187.8345
 10
1000.16475
 20
187.42725
 10
1000.20525
 20
187.02
 10
1000.3245
 20
186.6285
 10
1000.4685
 20
186.35925
 10
1000.51725
 20
186.267
 10
1000.77675
 20
185.9505
 10
1001.09325
 20
185.691
 10
1001.454
 20
185.49825
 10
1001.8455
 20
185.37975
 10
1002.25275
 20
185.33925
 10
1002.49125
 20
185.3625
 10
1002.66075
 20
185.379
 10
1003.05225
 20
185.4975
 10
1003.413
 20
185.69025
 10
1003.7295
 20
185.94975
 10
1003.989
 20
186.26625
 10
1004.03775
 20
186.3585
 10
1004.18175
 20
186.62775
 10
1004.301
 20
187.01925
 10
1004.301
 20
187.01925
 10
1004.31675
 20
187.182
 10
1004.34075
 20
187.42725
 10
1004.30025
 20
187.8345
 10
1004.181
 20
188.226
 10
1003.98825
 20
188.5875
 10
1003.72875
 20
188.904
 10
1003.41225
 20
189.1635
 10
1003.0515
 20
189.35625
  0
LWPOLYLINE
  5
59
100
AcDbEntity
  8
profiling
  6
ByLayer
 62
  256
370
   -1
100
AcDbPolyline
 90
   39
 70
    1
 43
0
 10
1003.0515
 20
153.83625
 10
1002.65925
 20
153.95475
 10
1002.252
 20
153.99525
 10
1001.84475
 20
153.95475
 10
1001.45325
 20
153.83625
 10
1001.09175
 20
153.6435
 10
1000.77525
 20
153.384
 10
1000.51575
 20
153.0675
 10
1000.323
 20
152.706
 10
1000.2045
 20
152.3145
 10
1000.164
 20
151.90725
 10
1000.2045
 20
151.5
 10
1000.323
 20
151.10775
 10
1000.51575
 20
150.747
 10
1000.77525
 20
150.4305
 10
1001.09175
 20
150.171
 10
1001.45325
 20
149.97825
 10
1001.81325
 20
149.86875
 10
1001.8455
 20
149.859
 10
1002.25275
 20
149.8185
 10
1002.66
 20
149.859
 10
1002.89475
 20
149.93025
 10
1003.0515
 20
149.97825
 10
1003.266
 20
150.093
 10
1003.413
 20
150.171
 10
1003.7295
 20
150.4305
 10
1003.989
 20
150.747
 10
1004.18175
 20
151.10775
 10
1004.301
 20
151.5
 10
1004.3415
 20
151.90725
 10
1004.3175
 20
152.1525
 10
1004.30175
 20
152.31525
 10
1004.30175
 20
152.31525
 10
1004.1825
 20
152.70675
 10
1004.0385
 20
152.976
 10
1003.98975
 20
153.06825
 10
1003.73025
 20
153.38475
 10
1003.41375
 20
153.64425
 10
1003.053
 20
153.837
  0
LWPOLYLINE
  5
5A
100
AcDbEntity
  8
profiling
  6
ByLayer
 62
  256
370
   -1
100
AcDbPolyline
 90
   41
 70
    1
 43
0
 10
1000.16325
 20
126.54975
 10
1000.20375
 20
126.1425
 10
1000.323
 20
125.751
 10
1000.51575
 20
125.3895
 10
1000.77525
 20
125.073
 10
1001.09175
 20
124.8135
 10
1001.23875
 20
124.73475
 10
1001.45325
 20
124.62
 10
1001.84475
 20
124.5015
 10
1002.252
 20
124.461
 10
1002.3855
 20
124.4745
 10
1002.65925
 20
124.5015
 10
1003.05075
 20
124.62
 10
1003.26525
 20
124.73475
 10
1003.41225
 20
124.8135
 10
1003.72875
 20
125.073
 10
1003.94325
 20
125.33475
 10
1003.98825
 20
125.3895
 10
1004.181
 20
125.751
 10
1004.23275
 20
125.9205
 10
1004.30025
 20
126.14325
 10
1004.34
 20
126.5505
 10
1004.31225
 20
126.83325
 10
1004.30025
 20
126.95775
 10
1004.30025
 20
126.95775
 10
1004.181
 20
127.34925
 10
1003.98825
 20
127.71075
 10
1003.72875
 20
128.02725
 10
1003.41225
 20
128.28675
 10
1003.05075
 20
128.4795
 10
1002.70575
 20
128.5845
 10
1002.65925
 20
128.59875
 10
1002.252
 20
128.6385
 10
1001.84475
 20
128.59875
 10
1001.45325
 20
128.48025
 10
1001.09175
 20
128.2875
 10
1000.77525
 20
128.028
 10
1000.51575
 20
127.7115
 10
1000.323
 20
127.35
 10
1000.20375
 20
126.9585
 10
1000.16325
 20
126.55125
  0
LWPOLYLINE
  5
5B
100
AcDbEntity
  8
profiling
  6
ByLayer
 62
  256
370
   -1
100
AcDbPolyline
 90
   34
 70
    1
 43
0
 10
1002.252
 20
101.22225
 10
1001.84475
 20
101.1825
 10
1001.4525
 20
101.064
 10
1001.09175
 20
100.87125
 10
1000.77525
 20
100.61175
 10
1000.51575
 20
100.29525
 10
1000.323
 20
99.93375
 10
1000.20375
 20
99.54225
 10
1000.16325
 20
99.13500000000001
 10
1000.20375
 20
98.72775
 10
1000.323
 20
98.33625000000001
 10
1000.51575
 20
97.97475
 10
1000.77525
 20
97.65825
 10
1001.09175
 20
97.39875000000001
 10
1001.4525
 20
97.206
 10
1001.84475
 20
97.08750000000001
 10
1002.252
 20
97.047
 10
1002.65925
 20
97.08750000000001
 10
1003.05075
 20
97.206
 10
1003.41225
 20
97.39875000000001
 10
1003.72875
 20
97.65825
 10
1003.98825
 20
97.97475
 10
1004.181
 20
98.33625000000001
 10
1004.2995
 20
98.72775
 10
1004.34
 20
99.13500000000001
 10
1004.2995
 20
99.54225
 10
1004.181
 20
99.93375
 10
1004.03175
 20
100.21275
 10
1003.98825
 20
100.2945
 10
1003.72875
 20
100.611
 10
1003.41225
 20
100.8705
 10
1003.05075
 20
101.06325
 10
1002.65925
 20
101.18175
 10
1002.252
 20
101.2215
  0
LWPOLYLINE
  5
5C
100
AcDbEntity
  8
profiling
  6
ByLayer
 62
  256
370
   -1
100
AcDbPolyline
 90
   37
 70
    1
 43
0
 10
972.78675
 20
210.0765
 10
972.78675
 20
210.0765
 10
972.747
 20
209.66925
 10
972.78675
 20
209.262
 10
972.9059999999999
 20
208.8705
 10
973.09875
 20
208.509
 10
973.09875
 20
208.509
 10
973.35825
 20
208.1925
 10
973.67475
 20
207.933
 10
974.03625
 20
207.74025
 10
974.4277499999999
 20
207.621
 10
974.835
 20
207.58125
 10
975.24225
 20
207.621
 10
975.63375
 20
207.74025
 10
975.9952500000001
 20
207.933
 10
976.31175
 20
208.1925
 10
976.57125
 20
208.509
 10
976.764
 20
208.8705
 10
976.8825000000001
 20
209.262
 10
976.923
 20
209.66925
 10
976.8825000000001
 20
210.0765
 10
976.764
 20
210.468
 10
976.57125
 20
210.8295
 10
976.3845
 20
211.05675
 10
976.311
 20
211.146
 10
975.9945
 20
211.4055
 10
975.633
 20
211.59825
 10
975.2415
 20
211.71675
 10
974.83425
 20
211.75725
 10
974.427
 20
211.71675
 10
974.0355
 20
211.59825
 10
973.674
 20
211.4055
 10
973.3575
 20
211.146
 10
973.098
 20
210.8295
 10
972.90525
 20
210.468
 10
972.83325
 20
210.23025
 10
972.78675
 20
210.0765
  0
LWPOLYLINE
  5
5D
100
AcDbEntity
  8
profiling
  6
ByLayer
 62
  256
370
   -1
100
AcDbPolyline
 90
   38
 70
    1
 43
0
 10
976.572
 20
188.5875
 10
976.3125
 20
188.904
 10
975.996
 20
189.1635
 10
975.6345
 20
189.35625
 10
975.2430000000001
 20
189.47475
 10
974.83575
 20
189.51525
 10
974.4285
 20
189.47475
 10
974.03625
 20
189.35625
 10
973.6755000000001
 20
189.1635
 10
973.359
 20
188.904
 10
973.0995
 20
188.5875
 10
972.90675
 20
188.226
 10
972.7875
 20
187.8345
 10
972.747
 20
187.42725
 10
972.7875
 20
187.02
 10
972.90675
 20
186.6285
 10
973.0995
 20
186.267
 10
973.359
 20
185.9505
 10
973.6755000000001
 20
185.691
 10
973.8194999999999
 20
185.6145
 10
974.037
 20
185.49825
 10
974.3819999999999
 20
185.39325
 10
974.4285
 20
185.379
 10
974.83575
 20
185.3385
 10
975.2430000000001
 20
185.379
 10
975.6345
 20
185.4975
 10
975.852
 20
185.61375
 10
975.996
 20
185.69025
 10
976.0755
 20
185.7555
 10
976.3125
 20
185.94975
 10
976.572
 20
186.26625
 10
976.76475
 20
186.62775
 10
976.88325
 20
187.01925
 10
976.923
 20
187.4265
 10
976.88325
 20
187.83375
 10
976.81575
 20
188.0565
 10
976.764
 20
188.226
 10
976.57125
 20
188.5875
  0
LWPOLYLINE
  5
5E
100
AcDbEntity
  8
profiling
  6
ByLayer
 62
  256
370
   -1
100
AcDbPolyline
 90
   35
 70
    1
 43
0
 10
974.4277499999999
 20
97.08450000000001
 10
974.835
 20
97.044
 10
975.24225
 20
97.08450000000001
 10
975.63375
 20
97.203
 10
975.9945
 20
97.39575000000001
 10
976.311
 20
97.65525
 10
976.5705
 20
97.97175
 10
976.76325
 20
98.33325000000001
 10
976.8825000000001
 20
98.72475
 10
976.923
 20
99.13200000000001
 10
976.8825000000001
 20
99.53925
 10
976.76325
 20
99.93075
 10
976.5705
 20
100.29225
 10
976.311
 20
100.60875
 10
975.9945
 20
100.86825
 10
975.63375
 20
101.061
 10
975.24225
 20
101.1795
 10
974.835
 20
101.21925
 10
974.4277499999999
 20
101.1795
 10
974.03625
 20
101.061
 10
973.6755000000001
 20
100.86825
 10
973.359
 20
100.60875
 10
973.0995
 20
100.29225
 10
972.90675
 20
99.93075
 10
972.7875
 20
99.53925
 10
972.747
 20
99.13200000000001
 10
972.7875
 20
98.72475
 10
972.8557499999999
 20
98.49975000000001
 10
972.9059999999999
 20
98.33325000000001
 10
973.09725
 20
97.97624999999999
 10
973.0995
 20
97.9725
 10
973.359
 20
97.65600000000001
 10
973.6755000000001
 20
97.3965
 10
974.037
 20
97.20375
 10
974.4285
 20
97.08525
  0
LWPOLYLINE
  5
5F
100
AcDbEntity
  8
profiling
  6
ByLayer
 62
  256
370
   -1
100
AcDbPolyline
 90
   43
 70
    1
 43
0
 10
975.6345
 20
124.62
 10
975.9952500000001
 20
124.81275
 10
976.31175
 20
125.07225
 10
976.57125
 20
125.38875
 10
976.764
 20
125.75025
 10
976.88325
 20
126.14175
 10
976.92375
 20
126.549
 10
976.91175
 20
126.66975
 10
976.88325
 20
126.95625
 10
976.764
 20
127.34775
 10
976.57125
 20
127.70925
 10
976.31175
 20
128.02575
 10
975.9952500000001
 20
128.28525
 10
975.7140000000001
 20
128.43525
 10
975.63375
 20
128.478
 10
975.24225
 20
128.5965
 10
974.835
 20
128.63625
 10
974.5965
 20
128.613
 10
974.427
 20
128.5965
 10
974.11575
 20
128.502
 10
974.0355
 20
128.47725
 10
973.67475
 20
128.2845
 10
973.5195
 20
128.157
 10
973.35825
 20
128.025
 10
973.09875
 20
127.7085
 10
972.9059999999999
 20
127.347
 10
972.8362499999999
 20
127.1175
 10
972.78675
 20
126.95475
 10
972.78675
 20
126.95475
 10
972.771
 20
126.792
 10
972.747
 20
126.54675
 10
972.7875
 20
126.1395
 10
972.90675
 20
125.748
 10
973.0995
 20
125.3865
 10
973.1445
 20
125.33175
 10
973.359
 20
125.07
 10
973.617
 20
124.8585
 10
973.6755000000001
 20
124.8105
 10
974.03625
 20
124.61775
 10
974.4277499999999
 20
124.49925
 10
974.835
 20
124.45875
 10
975.24225
 20
124.49925
 10
975.63375
 20
124.61775
  0
LWPOLYLINE
  5
60
100
AcDbEntity
  8
profiling
  6
ByLayer
 62
  256
370
   -1
100
AcDbPolyline
 90
   39
 70
    1
 43
0
 10
976.8975
 20
152.17875
 10
976.884
 20
152.31375
 10
976.884
 20
152.31375
 10
976.7655
 20
152.70525
 10
976.57275
 20
153.06675
 10
976.404
 20
153.2715
 10
976.3125
 20
153.38325
 10
975.996
 20
153.64275
 10
975.6345
 20
153.8355
 10
975.2430000000001
 20
153.954
 10
974.83575
 20
153.9945
 10
974.4285
 20
153.954
 10
974.03625
 20
153.8355
 10
973.6755000000001
 20
153.64275
 10
973.359
 20
153.38325
 10
973.0995
 20
153.06675
 10
973.05075
 20
152.9745
 10
972.90675
 20
152.70525
 10
972.7875
 20
152.31375
 10
972.7875
 20
152.31375
 10
972.747
 20
151.9065
 10
972.7875
 20
151.49925
 10
972.90675
 20
151.10775
 10
973.0995
 20
150.74625
 10
973.359
 20
150.42975
 10
973.6755000000001
 20
150.17025
 10
974.03625
 20
149.9775
 10
974.4285
 20
149.859
 10
974.83575
 20
149.8185
 10
975.2430000000001
 20
149.859
 10
975.6345
 20
149.9775
 10
975.9952500000001
 20
150.17025
 10
976.31175
 20
150.42975
 10
976.57125
 20
150.74625
 10
976.764
 20
151.10775
 10
976.8825000000001
 20
151.49925
 10
976.91175
 20
151.79475
 10
976.923
 20
151.9065
 10
976.896
 20
152.17875
  0
LWPOLYLINE
  5
61
100
AcDbEntity
  8
profiling
  6
ByLayer
 62
  256
370
   -1
100
AcDbPolyline
 90
   38
 70
    1
 43
0
 10
977.319
 20
244.20975
 10
977.67975
 20
244.4025
 10
977.9955
 20
244.662
 10
978.255
 20
244.97775
 10
978.44775
 20
245.3385
 10
978.56625
 20
245.72925
 10
978.606
 20
246.13575
 10
978.56625
 20
246.54225
 10
978.44775
 20
246.933
 10
978.255
 20
247.29375
 10
977.9955
 20
247.6095
 10
977.67975
 20
247.869
 10
977.319
 20
248.06175
 10
977.19375
 20
248.1
 10
976.92825
 20
248.18025
 10
976.64025
 20
248.20875
 10
976.52175
 20
248.22075
 10
976.2809999999999
 20
248.19675
 10
976.1145
 20
248.18025
 10
975.72375
 20
248.06175
 10
975.3630000000001
 20
247.869
 10
975.04725
 20
247.6095
 10
974.78775
 20
247.29375
 10
974.595
 20
246.933
 10
974.4765
 20
246.54225
 10
974.4757499999999
 20
246.531
 10
974.43675
 20
246.135
 10
974.46075
 20
245.895
 10
974.47725
 20
245.7285
 10
974.59575
 20
245.33775
 10
974.7885
 20
244.977
 10
975.048
 20
244.66125
 10
975.36375
 20
244.40175
 10
975.7245
 20
244.209
 10
976.1152499999999
 20
244.0905
 10
976.52175
 20
244.05075
 10
976.92825
 20
244.0905
 10
977.319
 20
244.209
  0
LWPOLYLINE
  5
62
100
AcDbEntity
  8
profiling
  6
ByLayer
 62
  256
370
   -1
100
AcDbPolyline
 90
   39
 70
    1
 43
0
 10
977.9955
 20
271.7625
 10
977.67975
 20
272.022
 10
977.319
 20
272.21475
 10
976.9275
 20
272.33325
 10
976.521
 20
272.373
 10
976.1145
 20
272.33325
 10
975.72375
 20
272.21475
 10
975.3630000000001
 20
272.022
 10
975.0825
 20
271.79175
 10
975.04725
 20
271.7625
 10
974.9160000000001
 20
271.60275
 10
974.78775
 20
271.44675
 10
974.73675
 20
271.3515
 10
974.595
 20
271.086
 10
974.4765
 20
270.69525
 10
974.43675
 20
270.28875
 10
974.4765
 20
269.88225
 10
974.595
 20
269.4915
 10
974.78775
 20
269.13075
 10
975.04725
 20
268.815
 10
975.0855
 20
268.7835
 10
975.3630000000001
 20
268.5555
 10
975.72375
 20
268.36275
 10
976.1145
 20
268.24425
 10
976.521
 20
268.2045
 10
976.9275
 20
268.24425
 10
977.31825
 20
268.36275
 10
977.679
 20
268.5555
 10
977.99475
 20
268.815
 10
978.0285
 20
268.85625
 10
978.2535
 20
269.13075
 10
978.44625
 20
269.4915
 10
978.56475
 20
269.88225
 10
978.6045
 20
270.28875
 10
978.56475
 20
270.69525
 10
978.44625
 20
271.086
 10
978.2535
 20
271.44675
 10
978.24075
 20
271.4625
 10
977.99475
 20
271.7625
  0
LWPOLYLINE
  5
63
100
AcDbEntity
  8
profiling
  6
ByLayer
 62
  256
370
   -1
100
AcDbPolyline
 90
   34
 70
    1
 43
0
 10
999.51525
 20
247.869
 10
999.26475
 20
247.6635
 10
999.1994999999999
 20
247.6095
 10
998.9400000000001
 20
247.29375
 10
998.74725
 20
246.933
 10
998.62875
 20
246.54225
 10
998.5890000000001
 20
246.13575
 10
998.62875
 20
245.72925
 10
998.74725
 20
245.3385
 10
998.9400000000001
 20
244.97775
 10
999.1994999999999
 20
244.662
 10
999.51525
 20
244.4025
 10
999.876
 20
244.20975
 10
1000.26675
 20
244.09125
 10
1000.67325
 20
244.0515
 10
1001.07975
 20
244.09125
 10
1001.4705
 20
244.20975
 10
1001.83125
 20
244.4025
 10
1002.147
 20
244.662
 10
1002.4065
 20
244.97775
 10
1002.59925
 20
245.3385
 10
1002.71775
 20
245.72925
 10
1002.7575
 20
246.13575
 10
1002.71775
 20
246.54225
 10
1002.59925
 20
246.933
 10
1002.4065
 20
247.29375
 10
1002.147
 20
247.6095
 10
1001.83125
 20
247.869
 10
1001.4705
 20
248.06175
 10
1001.07975
 20
248.18025
 10
1000.67325
 20
248.22
 10
1000.26675
 20
248.18025
 10
999.876
 20
248.06175
 10
999.51525
 20
247.869
  0
LWPOLYLINE
  5
64
100
AcDbEntity
  8
profiling
  6
ByLayer
 62
  256
370
   -1
100
AcDbPolyline
 90
   51
 70
    1
 43
0
 10
999.70125
 20
403.03425
 10
999.84075
 20
402.57525
 10
1000.08225
 20
402.12375
 10
1000.2105
 20
401.96775
 10
1000.407
 20
401.7285
 10
1000.62975
 20
401.5455
 10
1000.80225
 20
401.40375
 10
1001.25375
 20
401.16225
 10
1001.41275
 20
401.11425
 10
1001.7435
 20
401.01375
 10
1002.25275
 20
400.9635
 10
1002.52875
 20
400.9905
 10
1002.762
 20
401.01375
 10
1003.15425
 20
401.133
 10
1003.25175
 20
401.16225
 10
1003.70325
 20
401.40375
 10
1004.0985
 20
401.7285
 10
1004.42325
 20
402.12375
 10
1004.66475
 20
402.57525
 10
1004.81325
 20
403.065
 10
1004.8455
 20
403.3905
 10
1004.8635
 20
403.57425
 10
1004.859
 20
403.61925
 10
1004.859
 20
403.61925
 10
1004.81325
 20
404.0835
 10
1004.66475
 20
404.57325
 10
1004.42325
 20
405.02475
 10
1004.247
 20
405.23925
 10
1004.0985
 20
405.42
 10
1003.70325
 20
405.74475
 10
1003.4745
 20
405.867
 10
1003.25175
 20
405.98625
 10
1002.762
 20
406.13475
 10
1002.25275
 20
406.185
 10
1001.77125
 20
406.13775
 10
1001.7435
 20
406.13475
 10
1001.42625
 20
406.03875
 10
1001.25375
 20
405.98625
 10
1001.061
 20
405.8835
 10
1000.803
 20
405.7455
 10
1000.40775
 20
405.42075
 10
1000.083
 20
405.0255
 10
999.97425
 20
404.82225
 10
999.8415
 20
404.57475
 10
999.693
 20
404.085
 10
999.64725
 20
403.62075
 10
999.64725
 20
403.62075
 10
999.64275
 20
403.57575
 10
999.693
 20
403.0665
 10
999.69975
 20
403.044
 10
999.702
 20
403.03575
  0
ENDSEC
  0
SECTION
  2
OBJECTS
  0
DICTIONARY
  5
C
330
0
100
AcDbDictionary
281
    1
  3
ACAD_GROUP
350
D
  0
DICTIONARY
  5
D
330
C
100
AcDbDictionary
281
    1
  0
ENDSEC
  0
EOF
