999
dxfrw 0.6.3
  0
SECTION
  2
HEADER
  9
$ACADVER
  1
AC1021
  9
$DWGCODEPAGE
  3
ANSI_1252
  9
$INSBASE
 10
0
 20
0
 30
0
  9
$EXTMIN
 10
1034.625
 20
42.444
 30
0
  9
$EXTMAX
 10
1116.92025
 20
280.8975
 30
0
  9
$LIMMIN
 10
0
 20
0
  9
$LIMMAX
 10
420
 20
297
  9
$ORTHOMODE
 70
    0
  9
$REGENMODE
 70
    1
  9
$FILLMODE
 70
    1
  9
$QTEXTMODE
 70
    0
  9
$MIRRTEXT
 70
    0
  9
$LTSCALE
 40
1
  9
$ATTMODE
 70
    0
  9
$TEXTSIZE
 40
2.5
  9
$TRACEWID
 40
15.68
  9
$TEXTSTYLE
  7
STANDARD
  9
$CLAYER
  8
pocket-0.95mm
  9
$CELTYPE
  6
BYLAYER
  9
$CECOLOR
 62
  256
  9
$CELTSCALE
 40
1
  9
$DISPSILH
 70
    0
  9
$DIMSCALE
 40
2.5
  9
$DIMASZ
 40
2.5
  9
$DIMEXO
 40
0.625
  9
$DIMDLI
 40
3.75
  9
$DIMRND
 40
0
  9
$DIMDLE
 40
0
  9
$DIMEXE
 40
1.25
  9
$DIMTP
 40
0
  9
$DIMTM
 40
0
  9
$DIMTXT
 40
2.5
  9
$DIMCEN
 40
2.5
  9
$DIMTSZ
 40
0
  9
$DIMTOL
 70
    0
  9
$DIMLIM
 70
    0
  9
$DIMTIH
 70
    0
  9
$DIMTOH
 70
    0
  9
$DIMSE1
 70
    0
  9
$DIMSE2
 70
    0
  9
$DIMTAD
 70
    1
  9
$DIMZIN
 70
    8
  9
$DIMBLK
  1

  9
$DIMASO
 70
    1
  9
$DIMSHO
 70
    1
  9
$DIMPOST
  1

  9
$DIMAPOST
  1

  9
$DIMALT
 70
    0
  9
$DIMALTD
 70
    3
  9
$DIMALTF
 40
0.03937
  9
$DIMLFAC
 40
1
  9
$DIMTOFL
 70
    1
  9
$DIMTVP
 40
0
  9
$DIMTIX
 70
    0
  9
$DIMSOXD
 70
    0
  9
$DIMSAH
 70
    0
  9
$DIMBLK1
  1

  9
$DIMBLK2
  1

  9
$DIMSTYLE
  2
Standard
  9
$DIMCLRD
 70
    0
  9
$DIMCLRE
 70
    0
  9
$DIMCLRT
 70
    0
  9
$DIMTFAC
 40
1
  9
$DIMGAP
 40
0.625
  9
$DIMJUST
 70
    0
  9
$DIMSD1
 70
    0
  9
$DIMSD2
 70
    0
  9
$DIMTOLJ
 70
    0
  9
$DIMTZIN
 70
    8
  9
$DIMALTZ
 70
    0
  9
$DIMALTTZ
 70
    0
  9
$DIMUPT
 70
    0
  9
$DIMDEC
 70
    2
  9
$DIMTDEC
 70
    2
  9
$DIMALTU
 70
    2
  9
$DIMALTTD
 70
    3
  9
$DIMTXSTY
  7
STANDARD
  9
$DIMAUNIT
 70
    0
  9
$DIMADEC
 70
    0
  9
$DIMALTRND
 40
0
  9
$DIMAZIN
 70
    0
  9
$DIMDSEP
 70
   44
  9
$DIMATFIT
 70
    3
  9
$DIMFRAC
 70
    0
  9
$DIMLDRBLK
  1
STANDARD
  9
$DIMLUNIT
 70
    2
  9
$DIMLWD
 70
   -2
  9
$DIMLWE
 70
   -2
  9
$DIMTMOVE
 70
    0
  9
$DIMFXL
 40
1
  9
$DIMFXLON
 70
    0
  9
$DIMJOGANG
 40
0.7854
  9
$DIMTFILL
 70
    0
  9
$DIMTFILLCLR
 70
    0
  9
$DIMARCSYM
 70
    0
  9
$DIMLTYPE
  6

  9
$DIMLTEX1
  6

  9
$DIMLTEX2
  6

  9
$LUNITS
 70
    2
  9
$LUPREC
 70
    4
  9
$SKETCHINC
 40
1
  9
$FILLETRAD
 40
0
  9
$AUNITS
 70
    0
  9
$AUPREC
 70
    2
  9
$MENU
  1
.
  9
$ELEVATION
 40
0
  9
$PELEVATION
 40
0
  9
$THICKNESS
 40
0
  9
$LIMCHECK
 70
    0
  9
$CHAMFERA
 40
0
  9
$CHAMFERB
 40
0
  9
$CHAMFERC
 40
0
  9
$CHAMFERD
 40
0
  9
$SKPOLY
 70
    0
  9
$USRTIMER
 70
    1
  9
$ANGBASE
 50
0
  9
$ANGDIR
 70
    0
  9
$PDMODE
 70
   34
  9
$PDSIZE
 40
0
  9
$PLINEWID
 40
0
  9
$SPLFRAME
 70
    0
  9
$SPLINETYPE
 70
    2
  9
$SPLINESEGS
 70
    8
  9
$HANDSEED
  5
20000
  9
$SURFTAB1
 70
    6
  9
$SURFTAB2
 70
    6
  9
$SURFTYPE
 70
    6
  9
$SURFU
 70
    6
  9
$SURFV
 70
    6
  9
$UCSBASE
  2

  9
$UCSNAME
  2

  9
$UCSORG
 10
0
 20
0
 30
0
  9
$UCSXDIR
 10
1
 20
0
 30
0
  9
$UCSYDIR
 10
0
 20
1
 30
0
  9
$UCSORTHOREF
  2

  9
$UCSORTHOVIEW
 70
    0
  9
$UCSORGTOP
 10
0
 20
0
 30
0
  9
$UCSORGBOTTOM
 10
0
 20
0
 30
0
  9
$UCSORGLEFT
 10
0
 20
0
 30
0
  9
$UCSORGRIGHT
 10
0
 20
0
 30
0
  9
$UCSORGFRONT
 10
0
 20
0
 30
0
  9
$UCSORGBACK
 10
0
 20
0
 30
0
  9
$PUCSBASE
  2

  9
$PUCSNAME
  2

  9
$PUCSORG
 10
0
 20
0
 30
0
  9
$PUCSXDIR
 10
1
 20
0
 30
0
  9
$PUCSYDIR
 10
0
 20
1
 30
0
  9
$PUCSORTHOREF
  2

  9
$PUCSORTHOVIEW
 70
    0
  9
$PUCSORGTOP
 10
0
 20
0
 30
0
  9
$PUCSORGBOTTOM
 10
0
 20
0
 30
0
  9
$PUCSORGLEFT
 10
0
 20
0
 30
0
  9
$PUCSORGRIGHT
 10
0
 20
0
 30
0
  9
$PUCSORGFRONT
 10
0
 20
0
 30
0
  9
$PUCSORGBACK
 10
0
 20
0
 30
0
  9
$USERI1
 70
    0
  9
$USERI2
 70
    0
  9
$USERI3
 70
    0
  9
$USERI4
 70
    0
  9
$USERI5
 70
    0
  9
$USERR1
 40
0
  9
$USERR2
 40
0
  9
$USERR3
 40
0
  9
$USERR4
 40
0
  9
$USERR5
 40
0
  9
$WORLDVIEW
 70
    1
  9
$SHADEDGE
 70
    3
  9
$SHADEDIF
 70
   70
  9
$TILEMODE
 70
    1
  9
$MAXACTVP
 70
   64
  9
$PINSBASE
 10
0
 20
0
 30
0
  9
$PLIMCHECK
 70
    0
  9
$PEXTMIN
 10
0
 20
0
 30
0
  9
$PEXTMAX
 10
0
 20
0
 30
0
  9
$GRIDMODE
 70
    0
  9
$SNAPSTYLE
 70
    0
  9
$PLIMMIN
 10
0
 20
0
  9
$PLIMMAX
 10
210
 20
297
  9
$UNITMODE
 70
    0
  9
$VISRETAIN
 70
    1
  9
$PLINEGEN
 70
    0
  9
$PSLTSCALE
 70
    1
  9
$TREEDEPTH
 70
 3020
  9
$CMLSTYLE
  2
Standard
  9
$CMLJUST
 70
    0
  9
$CMLSCALE
 40
20
  9
$PROXYGRAPHICS
 70
    1
  9
$MEASUREMENT
 70
    1
  9
$CELWEIGHT
370
   -1
  9
$ENDCAPS
280
    0
  9
$JOINSTYLE
280
    0
  9
$LWDISPLAY
290
    0
  9
$INSUNITS
 70
    4
  9
$HYPERLINKBASE
  1

  9
$STYLESHEET
  1

  9
$XEDIT
290
    1
  9
$CEPSNTYPE
380
    0
  9
$PSTYLEMODE
290
    1
  9
$EXTNAMES
290
    1
  9
$PSVPSCALE
 40
1
  9
$OLESTARTUP
290
    0
  9
$SORTENTS
280
  127
  9
$INDEXCTL
280
    0
  9
$HIDETEXT
280
    1
  9
$XCLIPFRAME
290
    0
  9
$HALOGAP
280
    0
  9
$OBSCOLOR
 70
  257
  9
$OBSLTYPE
280
    0
  9
$INTERSECTIONDISPLAY
280
    0
  9
$INTERSECTIONCOLOR
 70
  257
  9
$DIMASSOC
280
    1
  9
$PROJECTNAME
  1

  9
$CAMERADISPLAY
290
    0
  9
$LENSLENGTH
 40
50
  9
$CAMERAHEIGHT
 40
0
  9
$STEPSPERSEC
 40
2
  9
$STEPSIZE
 40
50
  9
$3DDWFPREC
 40
2
  9
$PSOLWIDTH
 40
5
  9
$PSOLHEIGHT
 40
80
  9
$LOFTANG1
 40
1.570796326794897
  9
$LOFTANG2
 40
1.570796326794897
  9
$LOFTMAG1
 40
0
  9
$LOFTMAG2
 40
0
  9
$LOFTPARAM
 70
    7
  9
$LOFTNORMALS
280
    1
  9
$LATITUDE
 40
1
  9
$LONGITUDE
 40
1
  9
$NORTHDIRECTION
 40
0
  9
$TIMEZONE
 70
-8000
  9
$LIGHTGLYPHDISPLAY
280
    1
  9
$TILEMODELIGHTSYNCH
280
    1
  9
$SOLIDHIST
280
    1
  9
$SHOWHIST
280
    1
  9
$DWFFRAME
280
    2
  9
$DGNFRAME
280
    0
  9
$REALWORLDSCALE
290
    1
  9
$INTERFERECOLOR
 62
    1
  9
$CSHADOW
280
    0
  9
$SHADOWPLANELOCATION
 40
0
  0
ENDSEC
  0
SECTION
  2
CLASSES
  0
ENDSEC
  0
SECTION
  2
TABLES
  0
TABLE
  2
VPORT
  5
8
330
0
100
AcDbSymbolTable
 70
    1
  0
VPORT
  5
31
330
2
100
AcDbSymbolTableRecord
100
AcDbViewportTableRecord
  2
*ACTIVE
 70
    0
 10
0
 20
0
 11
1
 21
1
 12
711.9002521940116
 22
140.7494169497503
 13
0
 23
0
 14
10
 24
10
 15
10
 25
10
 16
0
 26
0
 36
1
 17
0
 27
0
 37
0
 40
709.75468181368
 41
0.9866989117291415
 42
50
 43
0
 44
0
 50
0
 51
0
 71
    0
 72
  100
 73
    1
 74
    3
 75
    0
 76
    0
 77
    0
 78
    0
281
    0
 65
    1
110
0
120
0
130
0
111
1
121
0
131
0
112
0
122
1
132
0
 79
    0
146
0
348
10020
 60
    7
 61
    5
292
1
282
    1
141
0
142
0
 63
  250
421
3358443
  0
ENDTAB
  0
TABLE
  2
LTYPE
  5
5
330
0
100
AcDbSymbolTable
 70
    4
  0
LTYPE
  5
14
330
5
100
AcDbSymbolTableRecord
100
AcDbLinetypeTableRecord
  2
ByBlock
 70
    0
  3

 72
   65
 73
    0
 40
0
  0
LTYPE
  5
15
330
5
100
AcDbSymbolTableRecord
100
AcDbLinetypeTableRecord
  2
ByLayer
 70
    0
  3

 72
   65
 73
    0
 40
0
  0
LTYPE
  5
16
330
5
100
AcDbSymbolTableRecord
100
AcDbLinetypeTableRecord
  2
Continuous
 70
    0
  3
Solid line
 72
   65
 73
    0
 40
0
  0
LTYPE
  5
32
330
5
100
AcDbSymbolTableRecord
100
AcDbLinetypeTableRecord
  2
DOT
 70
    0
  3
Dot . . . . . . . . . . . . . . . . . . . . . .
 72
   65
 73
    2
 40
6.35
 49
0
 74
    0
 49
-6.35
 74
    0
  0
LTYPE
  5
33
330
5
100
AcDbSymbolTableRecord
100
AcDbLinetypeTableRecord
  2
DOTTINY
 70
    0
  3
Dot (.15x) .....................................
 72
   65
 73
    2
 40
0.9525
 49
0
 74
    0
 49
-0.9525
 74
    0
  0
LTYPE
  5
34
330
5
100
AcDbSymbolTableRecord
100
AcDbLinetypeTableRecord
  2
DOT2
 70
    0
  3
Dot (.5x) .....................................
 72
   65
 73
    2
 40
3.175
 49
0
 74
    0
 49
-3.175
 74
    0
  0
LTYPE
  5
35
330
5
100
AcDbSymbolTableRecord
100
AcDbLinetypeTableRecord
  2
DOTX2
 70
    0
  3
Dot (2x) .  .  .  .  .  .  .  .  .  .  .  .  .
 72
   65
 73
    2
 40
12.7
 49
0
 74
    0
 49
-12.7
 74
    0
  0
LTYPE
  5
36
330
5
100
AcDbSymbolTableRecord
100
AcDbLinetypeTableRecord
  2
DASHED
 70
    0
  3
Dashed _ _ _ _ _ _ _ _ _ _ _ _ _ _ _ _ _
 72
   65
 73
    2
 40
19.05
 49
12.7
 74
    0
 49
-6.35
 74
    0
  0
LTYPE
  5
37
330
5
100
AcDbSymbolTableRecord
100
AcDbLinetypeTableRecord
  2
DASHEDTINY
 70
    0
  3
Dashed (.15x) _ _ _ _ _ _ _ _ _ _ _ _ _ _ _ _ _
 72
   65
 73
    2
 40
2.8575
 49
1.905
 74
    0
 49
-0.9525
 74
    0
  0
LTYPE
  5
38
330
5
100
AcDbSymbolTableRecord
100
AcDbLinetypeTableRecord
  2
DASHED2
 70
    0
  3
Dashed (.5x) _ _ _ _ _ _ _ _ _ _ _ _ _ _ _ _ _
 72
   65
 73
    2
 40
9.524999999999999
 49
6.35
 74
    0
 49
-3.175
 74
    0
  0
LTYPE
  5
39
330
5
100
AcDbSymbolTableRecord
100
AcDbLinetypeTableRecord
  2
DASHEDX2
 70
    0
  3
Dashed (2x) ____  ____  ____  ____  ____  ___
 72
   65
 73
    2
 40
38.09999999999999
 49
25.4
 74
    0
 49
-12.7
 74
    0
  0
LTYPE
  5
3A
330
5
100
AcDbSymbolTableRecord
100
AcDbLinetypeTableRecord
  2
DASHDOT
 70
    0
  3
Dash dot __ . __ . __ . __ . __ . __ . __ . __
 72
   65
 73
    4
 40
25.4
 49
12.7
 74
    0
 49
-6.35
 74
    0
 49
0
 74
    0
 49
-6.35
 74
    0
  0
LTYPE
  5
3B
330
5
100
AcDbSymbolTableRecord
100
AcDbLinetypeTableRecord
  2
DASHDOTTINY
 70
    0
  3
Dash dot (.15x) _._._._._._._._._._._._._._._.
 72
   65
 73
    4
 40
3.81
 49
1.905
 74
    0
 49
-0.9525
 74
    0
 49
0
 74
    0
 49
-0.9525
 74
    0
  0
LTYPE
  5
3C
330
5
100
AcDbSymbolTableRecord
100
AcDbLinetypeTableRecord
  2
DASHDOT2
 70
    0
  3
Dash dot (.5x) _._._._._._._._._._._._._._._.
 72
   65
 73
    4
 40
12.7
 49
6.35
 74
    0
 49
-3.175
 74
    0
 49
0
 74
    0
 49
-3.175
 74
    0
  0
LTYPE
  5
3D
330
5
100
AcDbSymbolTableRecord
100
AcDbLinetypeTableRecord
  2
DASHDOTX2
 70
    0
  3
Dash dot (2x) ____  .  ____  .  ____  .  ___
 72
   65
 73
    4
 40
50.8
 49
25.4
 74
    0
 49
-12.7
 74
    0
 49
0
 74
    0
 49
-12.7
 74
    0
  0
LTYPE
  5
3E
330
5
100
AcDbSymbolTableRecord
100
AcDbLinetypeTableRecord
  2
DIVIDE
 70
    0
  3
Divide ____ . . ____ . . ____ . . ____ . . ____
 72
   65
 73
    6
 40
31.75
 49
12.7
 74
    0
 49
-6.35
 74
    0
 49
0
 74
    0
 49
-6.35
 74
    0
 49
0
 74
    0
 49
-6.35
 74
    0
  0
LTYPE
  5
3F
330
5
100
AcDbSymbolTableRecord
100
AcDbLinetypeTableRecord
  2
DIVIDETINY
 70
    0
  3
Divide (.15x) __..__..__..__..__..__..__..__.._
 72
   65
 73
    6
 40
4.7625
 49
1.905
 74
    0
 49
-0.9525
 74
    0
 49
0
 74
    0
 49
-0.9525
 74
    0
 49
0
 74
    0
 49
-0.9525
 74
    0
  0
LTYPE
  5
40
330
5
100
AcDbSymbolTableRecord
100
AcDbLinetypeTableRecord
  2
DIVIDE2
 70
    0
  3
Divide (.5x) __..__..__..__..__..__..__..__.._
 72
   65
 73
    6
 40
15.875
 49
6.35
 74
    0
 49
-3.175
 74
    0
 49
0
 74
    0
 49
-3.175
 74
    0
 49
0
 74
    0
 49
-3.175
 74
    0
  0
LTYPE
  5
41
330
5
100
AcDbSymbolTableRecord
100
AcDbLinetypeTableRecord
  2
DIVIDEX2
 70
    0
  3
Divide (2x) ________  .  .  ________  .  .  _
 72
   65
 73
    6
 40
63.5
 49
25.4
 74
    0
 49
-12.7
 74
    0
 49
0
 74
    0
 49
-12.7
 74
    0
 49
0
 74
    0
 49
-12.7
 74
    0
  0
LTYPE
  5
42
330
5
100
AcDbSymbolTableRecord
100
AcDbLinetypeTableRecord
  2
BORDER
 70
    0
  3
Border __ __ . __ __ . __ __ . __ __ . __ __ .
 72
   65
 73
    6
 40
44.45
 49
12.7
 74
    0
 49
-6.35
 74
    0
 49
12.7
 74
    0
 49
-6.35
 74
    0
 49
0
 74
    0
 49
-6.35
 74
    0
  0
LTYPE
  5
43
330
5
100
AcDbSymbolTableRecord
100
AcDbLinetypeTableRecord
  2
BORDERTINY
 70
    0
  3
Border (.15x) __.__.__.__.__.__.__.__.__.__.__.
 72
   65
 73
    6
 40
6.6675
 49
1.905
 74
    0
 49
-0.9525
 74
    0
 49
1.905
 74
    0
 49
-0.9525
 74
    0
 49
0
 74
    0
 49
-0.9525
 74
    0
  0
LTYPE
  5
44
330
5
100
AcDbSymbolTableRecord
100
AcDbLinetypeTableRecord
  2
BORDER2
 70
    0
  3
Border (.5x) __.__.__.__.__.__.__.__.__.__.__.
 72
   65
 73
    6
 40
22.225
 49
6.35
 74
    0
 49
-3.175
 74
    0
 49
6.35
 74
    0
 49
-3.175
 74
    0
 49
0
 74
    0
 49
-3.175
 74
    0
  0
LTYPE
  5
45
330
5
100
AcDbSymbolTableRecord
100
AcDbLinetypeTableRecord
  2
BORDERX2
 70
    0
  3
Border (2x) ____  ____  .  ____  ____  .  ___
 72
   65
 73
    6
 40
88.89999999999999
 49
25.4
 74
    0
 49
-12.7
 74
    0
 49
25.4
 74
    0
 49
-12.7
 74
    0
 49
0
 74
    0
 49
-12.7
 74
    0
  0
LTYPE
  5
46
330
5
100
AcDbSymbolTableRecord
100
AcDbLinetypeTableRecord
  2
CENTER
 70
    0
  3
Center ____ _ ____ _ ____ _ ____ _ ____ _ ____
 72
   65
 73
    4
 40
50.8
 49
31.75
 74
    0
 49
-6.35
 74
    0
 49
6.35
 74
    0
 49
-6.35
 74
    0
  0
LTYPE
  5
47
330
5
100
AcDbSymbolTableRecord
100
AcDbLinetypeTableRecord
  2
CENTERTINY
 70
    0
  3
Center (.15x) ___ _ ___ _ ___ _ ___ _ ___ _ ___
 72
   65
 73
    4
 40
7.619999999999999
 49
4.7625
 74
    0
 49
-0.9525
 74
    0
 49
0.9525
 74
    0
 49
-0.9525
 74
    0
  0
LTYPE
  5
48
330
5
100
AcDbSymbolTableRecord
100
AcDbLinetypeTableRecord
  2
CENTER2
 70
    0
  3
Center (.5x) ___ _ ___ _ ___ _ ___ _ ___ _ ___
 72
   65
 73
    4
 40
28.575
 49
19.05
 74
    0
 49
-3.175
 74
    0
 49
3.175
 74
    0
 49
-3.175
 74
    0
  0
LTYPE
  5
49
330
5
100
AcDbSymbolTableRecord
100
AcDbLinetypeTableRecord
  2
CENTERX2
 70
    0
  3
Center (2x) ________  __  ________  __  _____
 72
   65
 73
    4
 40
101.6
 49
63.5
 74
    0
 49
-12.7
 74
    0
 49
12.7
 74
    0
 49
-12.7
 74
    0
  0
ENDTAB
  0
TABLE
  2
LAYER
  5
2
330
0
100
AcDbSymbolTable
 70
    1
  0
LAYER
  5
10
330
2
100
AcDbSymbolTableRecord
100
AcDbLayerTableRecord
  2
0
 70
    0
 62
    7
  6
CONTINUOUS
370
   -3
390
F
  0
LAYER
  5
4A
330
2
100
AcDbSymbolTableRecord
100
AcDbLayerTableRecord
  2
pocket-0.95mm
 70
    0
 62
    4
  6
CONTINUOUS
370
    0
390
F
  0
LAYER
  5
4B
330
2
100
AcDbSymbolTableRecord
100
AcDbLayerTableRecord
  2
profiling
 70
    0
 62
    3
  6
CONTINUOUS
370
    0
390
F
  0
LAYER
  5
4C
330
2
100
AcDbSymbolTableRecord
100
AcDbLayerTableRecord
  2
vcut
 70
    0
 62
    6
  6
CONTINUOUS
370
    0
390
F
  0
ENDTAB
  0
TABLE
  2
STYLE
  5
3
330
0
100
AcDbSymbolTable
 70
    3
  0
STYLE
  5
4D
330
2
100
AcDbSymbolTableRecord
100
AcDbTextStyleTableRecord
  2
Standard
 70
    0
 40
0
 41
1
 50
0
 71
    0
 42
1
  3
txt
  4

  0
ENDTAB
  0
TABLE
  2
VIEW
  5
6
330
0
100
AcDbSymbolTable
 70
    0
  0
ENDTAB
  0
TABLE
  2
UCS
  5
7
330
0
100
AcDbSymbolTable
 70
    0
  0
ENDTAB
  0
TABLE
  2
APPID
  5
9
330
0
100
AcDbSymbolTable
 70
    1
  0
APPID
  5
12
330
9
100
AcDbSymbolTableRecord
100
AcDbRegAppTableRecord
  2
ACAD
 70
    0
  0
APPID
  5
4E
330
9
100
AcDbSymbolTableRecord
100
AcDbRegAppTableRecord
  2
LibreCad
 70
    0
  0
ENDTAB
  0
TABLE
  2
DIMSTYLE
  5
A
330
0
100
AcDbSymbolTable
 70
    1
100
AcDbDimStyleTable
 71
    1
  0
DIMSTYLE
105
4F
330
A
100
AcDbSymbolTableRecord
100
AcDbDimStyleTableRecord
  2
Standard
 70
    0
 40
2.5
 41
2.5
 42
0.625
 43
0.38
 44
1.25
 45
0
 46
0
 47
0
 48
0
 49
1
140
2.5
141
0.09
142
0
143
25.4
144
1
145
0
146
1
147
0.625
148
0
 71
    0
 72
    0
 73
    0
 74
    1
 75
    0
 76
    0
 77
    0
 78
    8
 79
    0
170
    0
171
    2
172
    0
173
    0
174
    0
175
    0
176
    0
177
    0
178
    0
179
    0
271
    2
272
    4
273
    2
274
    2
275
    0
276
    0
277
    2
278
   44
279
    0
280
    0
281
    0
282
    0
283
    1
284
    0
285
    0
286
    0
288
    0
289
    3
340
STANDARD
341

371
   -2
372
   -2
  0
ENDTAB
  0
TABLE
  2
BLOCK_RECORD
  5
1
330
0
100
AcDbSymbolTable
 70
    2
  0
BLOCK_RECORD
  5
1F
330
1
100
AcDbSymbolTableRecord
100
AcDbBlockTableRecord
  2
*Model_Space
 70
    0
280
    1
281
    0
  0
BLOCK_RECORD
  5
1E
330
1
100
AcDbSymbolTableRecord
100
AcDbBlockTableRecord
  2
*Paper_Space
 70
    0
280
    1
281
    0
  0
ENDTAB
  0
ENDSEC
  0
SECTION
  2
BLOCKS
  0
BLOCK
  5
20
330
1F
100
AcDbEntity
  8
0
100
AcDbBlockBegin
  2
*Model_Space
 70
    0
 10
0
 20
0
 30
0
  3
*Model_Space
  1

  0
ENDBLK
  5
21
330
1F
100
AcDbEntity
  8
0
100
AcDbBlockEnd
  0
BLOCK
  5
1C
330
1B
100
AcDbEntity
  8
0
100
AcDbBlockBegin
  2
*Paper_Space
 70
    0
 10
0
 20
0
 30
0
  3
*Paper_Space
  1

  0
ENDBLK
  5
1D
330
1F
100
AcDbEntity
  8
0
100
AcDbBlockEnd
  0
ENDSEC
  0
SECTION
  2
ENTITIES
  0
LWPOLYLINE
  5
50
100
AcDbEntity
  8
vcut
  6
ByLayer
 62
  256
370
   -1
100
AcDbPolyline
 90
    2
 70
    0
 43
0
 10
1034.625
 20
220.08975
 10
1116.92025
 20
220.08975
  0
LWPOLYLINE
  5
51
100
AcDbEntity
  8
vcut
  6
ByLayer
 62
  256
370
   -1
100
AcDbPolyline
 90
    2
 70
    0
 43
0
 10
1034.625
 20
103.25175
 10
1116.92025
 20
103.25175
  0
LWPOLYLINE
  5
52
100
AcDbEntity
  8
pocket-0.95mm
  6
ByLayer
 62
  256
370
   -1
100
AcDbPolyline
 90
   32
 70
    1
 43
0
 10
1101.045
 20
135.52575
 10
1100.64375
 20
134.8875
 10
1100.1105
 20
134.35425
 10
1099.47225
 20
133.953
 10
1098.7605
 20
133.704
 10
1098.01125
 20
133.61925
 10
1053.576
 20
133.61925
 10
1052.82675
 20
133.704
 10
1052.115
 20
133.953
 10
1051.47675
 20
134.35425
 10
1050.9435
 20
134.8875
 10
1050.54225
 20
135.52575
 10
1050.29325
 20
136.2375
 10
1050.2085
 20
136.98675
 10
1050.2085
 20
181.422
 10
1050.29325
 20
182.17125
 10
1050.54225
 20
182.883
 10
1050.9435
 20
183.52125
 10
1051.47675
 20
184.0545
 10
1052.115
 20
184.45575
 10
1052.82675
 20
184.70475
 10
1053.576
 20
184.7895
 10
1098.01125
 20
184.7895
 10
1098.7605
 20
184.70475
 10
1099.47225
 20
184.45575
 10
1100.1105
 20
184.0545
 10
1100.64375
 20
183.52125
 10
1101.045
 20
182.883
 10
1101.294
 20
182.17125
 10
1101.37875
 20
181.422
 10
1101.37875
 20
136.98675
 10
1101.294
 20
136.2375
  0
LWPOLYLINE
  5
53
100
AcDbEntity
  8
profiling
  6
ByLayer
 62
  256
370
   -1
100
AcDbPolyline
 90
  184
 70
    1
 43
0
 10
1054.8525
 20
44.93775
 10
1054.8525
 20
44.93775
 10
1054.8525
 20
44.93775
 10
1054.8525
 20
44.93775
 10
1051.9455
 20
46.3125
 10
1051.9455
 20
46.3125
 10
1049.18775
 20
47.9655
 10
1049.18775
 20
47.9655
 10
1049.18775
 20
47.9655
 10
1049.18775
 20
47.9655
 10
1046.60475
 20
49.881
 10
1046.60475
 20
49.881
 10
1044.222
 20
52.04025
 10
1044.222
 20
52.04025
 10
1044.222
 20
52.04025
 10
1044.222
 20
52.04025
 10
1042.06275
 20
54.423
 10
1042.06275
 20
54.423
 10
1040.14725
 20
57.006
 10
1040.14725
 20
57.006
 10
1040.14725
 20
57.006
 10
1038.49425
 20
59.76375
 10
1038.49425
 20
59.76375
 10
1038.49425
 20
59.76375
 10
1038.49425
 20
59.76375
 10
1037.1195
 20
62.67075
 10
1037.1195
 20
62.67075
 10
1036.0365
 20
65.6985
 10
1036.0365
 20
65.6985
 10
1036.0365
 20
65.6985
 10
1036.0365
 20
65.6985
 10
1035.255
 20
68.81775
 10
1035.255
 20
68.81775
 10
1034.78325
 20
71.99850000000001
 10
1034.78325
 20
71.99850000000001
 10
1034.78325
 20
71.99850000000001
 10
1034.62575
 20
75.20999999999999
 10
1034.62575
 20
75.20999999999999
 10
1034.62575
 20
75.20999999999999
 10
1034.62575
 20
103.25175
 10
1034.62575
 20
161.67075
 10
1034.62575
 20
220.08975
 10
1034.62575
 20
220.08975
 10
1034.62575
 20
220.08975
 10
1034.62575
 20
248.1315
 10
1034.62575
 20
248.1315
 10
1034.78325
 20
251.343
 10
1034.78325
 20
251.343
 10
1034.78325
 20
251.343
 10
1035.255
 20
254.52375
 10
1035.255
 20
254.52375
 10
1036.0365
 20
257.643
 10
1036.0365
 20
257.643
 10
1037.1195
 20
260.67075
 10
1037.1195
 20
260.67075
 10
1038.49425
 20
263.57775
 10
1038.49425
 20
263.57775
 10
1040.14725
 20
266.3355
 10
1040.14725
 20
266.3355
 10
1042.06275
 20
268.9185
 10
1042.06275
 20
268.9185
 10
1044.222
 20
271.30125
 10
1044.222
 20
271.30125
 10
1046.60475
 20
273.4605
 10
1046.60475
 20
273.4605
 10
1049.18775
 20
275.376
 10
1049.18775
 20
275.376
 10
1051.9455
 20
277.029
 10
1051.9455
 20
277.029
 10
1051.9455
 20
277.029
 10
1051.9455
 20
277.029
 10
1054.8525
 20
278.40375
 10
1054.8525
 20
278.40375
 10
1057.88025
 20
279.48675
 10
1057.88025
 20
279.48675
 10
1060.9995
 20
280.26825
 10
1060.9995
 20
280.26825
 10
1064.18025
 20
280.74
 10
1064.18025
 20
280.74
 10
1067.39175
 20
280.8975
 10
1067.39175
 20
280.8975
 10
1075.77225
 20
280.8975
 10
1084.15275
 20
280.8975
 10
1084.15275
 20
280.8975
 10
1087.36425
 20
280.74
 10
1087.36425
 20
280.74
 10
1090.545
 20
280.26825
 10
1090.545
 20
280.26825
 10
1093.66425
 20
279.48675
 10
1093.66425
 20
279.48675
 10
1096.692
 20
278.40375
 10
1096.692
 20
278.40375
 10
1099.599
 20
277.029
 10
1099.599
 20
277.029
 10
1102.35675
 20
275.376
 10
1102.35675
 20
275.376
 10
1104.93975
 20
273.4605
 10
1104.93975
 20
273.4605
 10
1107.3225
 20
271.30125
 10
1107.3225
 20
271.30125
 10
1109.48175
 20
268.9185
 10
1109.48175
 20
268.9185
 10
1111.39725
 20
266.3355
 10
1111.39725
 20
266.3355
 10
1113.05025
 20
263.57775
 10
1113.05025
 20
263.57775
 10
1114.425
 20
260.67075
 10
1114.425
 20
260.67075
 10
1115.508
 20
257.643
 10
1115.508
 20
257.643
 10
1116.2895
 20
254.52375
 10
1116.2895
 20
254.52375
 10
1116.76125
 20
251.343
 10
1116.76125
 20
251.343
 10
1116.76125
 20
251.343
 10
1116.91875
 20
248.1315
 10
1116.91875
 20
248.1315
 10
1116.91875
 20
220.08975
 10
1116.91875
 20
161.67075
 10
1116.91875
 20
103.25175
 10
1116.91875
 20
103.25175
 10
1116.91875
 20
75.20999999999999
 10
1116.91875
 20
75.20999999999999
 10
1116.91875
 20
75.20999999999999
 10
1116.76125
 20
71.99850000000001
 10
1116.76125
 20
71.99850000000001
 10
1116.76125
 20
71.99850000000001
 10
1116.2895
 20
68.81775
 10
1116.2895
 20
68.81775
 10
1115.508
 20
65.6985
 10
1115.508
 20
65.6985
 10
1115.508
 20
65.6985
 10
1115.508
 20
65.6985
 10
1114.425
 20
62.67075
 10
1114.425
 20
62.67075
 10
1113.05025
 20
59.76375
 10
1113.05025
 20
59.76375
 10
1113.05025
 20
59.76375
 10
1113.05025
 20
59.76375
 10
1111.39725
 20
57.006
 10
1111.39725
 20
57.006
 10
1111.39725
 20
57.006
 10
1109.48175
 20
54.423
 10
1109.48175
 20
54.423
 10
1107.3225
 20
52.04025
 10
1107.3225
 20
52.04025
 10
1107.3225
 20
52.04025
 10
1107.3225
 20
52.04025
 10
1104.93975
 20
49.881
 10
1104.93975
 20
49.881
 10
1102.35675
 20
47.9655
 10
1102.35675
 20
47.9655
 10
1102.35675
 20
47.9655
 10
1102.35675
 20
47.9655
 10
1099.599
 20
46.3125
 10
1099.599
 20
46.3125
 10
1096.692
 20
44.93775
 10
1096.692
 20
44.93775
 10
1096.692
 20
44.93775
 10
1096.692
 20
44.93775
 10
1093.66425
 20
43.85475
 10
1093.66425
 20
43.85475
 10
1090.545
 20
43.07325
 10
1090.545
 20
43.07325
 10
1090.545
 20
43.07325
 10
1090.545
 20
43.07325
 10
1087.36425
 20
42.6015
 10
1087.36425
 20
42.6015
 10
1084.15275
 20
42.444
 10
1084.15275
 20
42.444
 10
1084.15275
 20
42.444
 10
1075.77225
 20
42.444
 10
1067.39175
 20
42.444
 10
1067.39175
 20
42.444
 10
1067.39175
 20
42.444
 10
1064.18025
 20
42.6015
 10
1064.18025
 20
42.6015
 10
1060.9995
 20
43.07325
 10
1060.9995
 20
43.07325
 10
1060.9995
 20
43.07325
 10
1060.9995
 20
43.07325
 10
1057.88025
 20
43.85475
 10
1057.88025
 20
43.85475
 10
1054.8525
 20
44.93775
  0
LWPOLYLINE
  5
54
100
AcDbEntity
  8
profiling
  6
ByLayer
 62
  256
370
   -1
100
AcDbPolyline
 90
   37
 70
    1
 43
0
 10
1039.08525
 20
159.9345
 10
1039.44675
 20
159.74175
 10
1039.4565
 20
159.73875
 10
1039.83825
 20
159.6225
 10
1040.2455
 20
159.582
 10
1040.65275
 20
159.6225
 10
1041.04425
 20
159.741
 10
1041.405
 20
159.93375
 10
1041.7215
 20
160.19325
 10
1041.981
 20
160.50975
 10
1042.17375
 20
160.87125
 10
1042.293
 20
161.26275
 10
1042.3005
 20
161.343
 10
1042.33275
 20
161.67075
 10
1042.29225
 20
162.078
 10
1042.173
 20
162.4695
 10
1041.98025
 20
162.831
 10
1041.72075
 20
163.1475
 10
1041.40425
 20
163.407
 10
1041.1125
 20
163.563
 10
1041.04275
 20
163.6005
 10
1040.65125
 20
163.719
 10
1040.244
 20
163.7595
 10
1039.83675
 20
163.719
 10
1039.44525
 20
163.6005
 10
1039.08375
 20
163.40775
 10
1038.78825
 20
163.1655
 10
1038.76725
 20
163.14825
 10
1038.50775
 20
162.83175
 10
1038.315
 20
162.47025
 10
1038.1965
 20
162.07875
 10
1038.156
 20
161.6715
 10
1038.1965
 20
161.26425
 10
1038.315
 20
160.87275
 10
1038.50775
 20
160.51125
 10
1038.76725
 20
160.19475
 10
1039.08375
 20
159.93525
  0
LWPOLYLINE
  5
55
100
AcDbEntity
  8
profiling
  6
ByLayer
 62
  256
370
   -1
100
AcDbPolyline
 90
   27
 70
    1
 43
0
 10
1057.3875
 20
141.38475
 10
1056.93525
 20
141.62175
 10
1056.4395
 20
141.744
 10
1055.92875
 20
141.744
 10
1055.433
 20
141.62175
 10
1054.98075
 20
141.38475
 10
1054.59825
 20
141.0465
 10
1054.308
 20
140.6265
 10
1054.12725
 20
140.14875
 10
1054.06575
 20
139.64175
 10
1054.12725
 20
139.13475
 10
1054.308
 20
138.657
 10
1054.59825
 20
138.237
 10
1054.98075
 20
137.89875
 10
1055.433
 20
137.66175
 10
1055.92875
 20
137.5395
 10
1056.4395
 20
137.5395
 10
1056.93525
 20
137.66175
 10
1057.3875
 20
137.89875
 10
1057.77
 20
138.237
 10
1058.06025
 20
138.657
 10
1058.241
 20
139.13475
 10
1058.3025
 20
139.64175
 10
1058.241
 20
140.14875
 10
1058.06025
 20
140.6265
 10
1057.77
 20
141.0465
 10
1057.38825
 20
141.38475
  0
LWPOLYLINE
  5
56
100
AcDbEntity
  8
profiling
  6
ByLayer
 62
  256
370
   -1
100
AcDbPolyline
 90
  102
 70
    1
 43
0
 10
1067.13375
 20
137.16375
 10
1068.82125
 20
136.64325
 10
1070.50875
 20
136.12275
 10
1072.25475
 20
135.8595
 10
1074.00075
 20
135.59625
 10
1075.767
 20
135.59625
 10
1077.53325
 20
135.59625
 10
1079.27925
 20
135.8595
 10
1081.026
 20
136.12275
 10
1082.7135
 20
136.64325
 10
1084.401
 20
137.16375
 10
1085.99175
 20
137.93025
 10
1085.99175
 20
137.93025
 10
1085.99175
 20
137.93025
 10
1087.58325
 20
138.69675
 10
1089.04275
 20
139.69125
 10
1089.04275
 20
139.69125
 10
1089.04275
 20
139.69125
 10
1090.50225
 20
140.68575
 10
1091.79675
 20
141.88725
 10
1093.09125
 20
143.08875
 10
1095.29325
 20
145.85025
 10
1096.176
 20
147.3795
 10
1096.176
 20
147.3795
 10
1096.176
 20
147.3795
 10
1097.05875
 20
148.90875
 10
1097.70375
 20
150.55275
 10
1097.70375
 20
150.55275
 10
1098.34875
 20
152.19675
 10
1098.74175
 20
153.91875
 10
1098.74175
 20
153.91875
 10
1098.74175
 20
153.91875
 10
1099.13475
 20
155.64075
 10
1099.26675
 20
157.40175
 10
1099.39875
 20
159.16275
 10
1099.26675
 20
160.92375
 10
1099.26675
 20
160.92375
 10
1099.2105
 20
161.6715
 10
1099.2105
 20
161.6715
 10
1099.2105
 20
161.6715
 10
1099.13475
 20
162.68475
 10
1098.74175
 20
164.40675
 10
1098.74175
 20
164.40675
 10
1098.74175
 20
164.40675
 10
1098.34875
 20
166.12875
 10
1097.70375
 20
167.77275
 10
1097.70375
 20
167.77275
 10
1097.70375
 20
167.77275
 10
1097.05875
 20
169.41675
 10
1095.2925
 20
172.47525
 10
1093.0905
 20
175.23675
 10
1090.5015
 20
177.639
 10
1089.042
 20
178.6335
 10
1089.042
 20
178.6335
 10
1089.042
 20
178.6335
 10
1089.042
 20
178.6335
 10
1087.5825
 20
179.628
 10
1085.991
 20
180.3945
 10
1084.40025
 20
181.161
 10
1082.71275
 20
181.6815
 10
1081.02525
 20
182.202
 10
1079.2785
 20
182.46525
 10
1079.2785
 20
182.46525
 10
1077.5325
 20
182.7285
 10
1075.7715
 20
182.7285
 10
1074.00075
 20
182.7285
 10
1070.508
 20
182.202
 10
1067.133
 20
181.161
 10
1063.95075
 20
179.62875
 10
1062.49125
 20
178.63425
 10
1062.49125
 20
178.63425
 10
1061.0325
 20
177.63975
 10
1059.738
 20
176.43825
 10
1058.4435
 20
175.23675
 10
1057.3425
 20
173.856
 10
1056.2415
 20
172.47525
 10
1055.35875
 20
170.946
 10
1054.476
 20
169.41675
 10
1053.18525
 20
166.12875
 10
1052.39925
 20
162.6855
 10
1052.3235
 20
161.67225
 10
1052.2965
 20
161.316
 10
1052.26725
 20
160.9245
 10
1052.26725
 20
160.9245
 10
1052.13525
 20
159.1635
 10
1052.39925
 20
155.6415
 10
1053.18525
 20
152.19825
 10
1053.83025
 20
150.55425
 10
1053.83025
 20
150.55425
 10
1053.83025
 20
150.55425
 10
1054.47525
 20
148.91025
 10
1056.2415
 20
145.85175
 10
1057.3425
 20
144.471
 10
1057.3425
 20
144.471
 10
1057.3425
 20
144.471
 10
1058.4435
 20
143.09025
 10
1059.738
 20
141.88875
 10
1061.0325
 20
140.68725
 10
1062.49125
 20
139.69275
 10
1062.49125
 20
139.69275
 10
1063.95075
 20
138.69825
 10
1067.133
 20
137.166
  0
LWPOLYLINE
  5
57
100
AcDbEntity
  8
profiling
  6
ByLayer
 62
  256
370
   -1
100
AcDbPolyline
 90
   27
 70
    1
 43
0
 10
1095.606
 20
137.5395
 10
1096.10175
 20
137.66175
 10
1096.554
 20
137.89875
 10
1096.93575
 20
138.237
 10
1097.226
 20
138.657
 10
1097.40675
 20
139.13475
 10
1097.46825
 20
139.64175
 10
1097.40675
 20
140.14875
 10
1097.226
 20
140.6265
 10
1096.93575
 20
141.0465
 10
1096.554
 20
141.38475
 10
1096.10175
 20
141.62175
 10
1095.606
 20
141.744
 10
1095.09525
 20
141.744
 10
1094.5995
 20
141.62175
 10
1094.14725
 20
141.38475
 10
1093.76475
 20
141.0465
 10
1093.4745
 20
140.6265
 10
1093.29375
 20
140.14875
 10
1093.23225
 20
139.64175
 10
1093.29375
 20
139.13475
 10
1093.4745
 20
138.657
 10
1093.76475
 20
138.237
 10
1094.14725
 20
137.89875
 10
1094.5995
 20
137.66175
 10
1095.09525
 20
137.5395
 10
1095.606
 20
137.5395
  0
LWPOLYLINE
  5
58
100
AcDbEntity
  8
profiling
  6
ByLayer
 62
  256
370
   -1
100
AcDbPolyline
 90
   41
 70
    1
 43
0
 10
1109.32275
 20
161.2635
 10
1109.44125
 20
160.872
 10
1109.634
 20
160.5105
 10
1109.8935
 20
160.194
 10
1110.21
 20
159.9345
 10
1110.5715
 20
159.74175
 10
1110.963
 20
159.62325
 10
1111.224
 20
159.59775
 10
1111.37025
 20
159.5835
 10
1111.7775
 20
159.624
 10
1112.169
 20
159.7425
 10
1112.5305
 20
159.93525
 10
1112.56875
 20
159.96675
 10
1112.847
 20
160.1955
 10
1112.9925
 20
160.3725
 10
1113.10725
 20
160.512
 10
1113.3
 20
160.8735
 10
1113.414
 20
161.25
 10
1113.4185
 20
161.265
 10
1113.45375
 20
161.62575
 10
1113.45825
 20
161.673
 10
1113.41775
 20
162.08025
 10
1113.29925
 20
162.47175
 10
1113.1065
 20
162.83325
 10
1112.847
 20
163.14975
 10
1112.5305
 20
163.40925
 10
1112.517
 20
163.41675
 10
1112.16975
 20
163.60275
 10
1111.923
 20
163.67775
 10
1111.7775
 20
163.722
 10
1111.7715
 20
163.72275
 10
1111.37025
 20
163.7625
 10
1110.963
 20
163.722
 10
1110.5715
 20
163.6035
 10
1110.21075
 20
163.41075
 10
1109.89425
 20
163.15125
 10
1109.63475
 20
162.83475
 10
1109.442
 20
162.47325
 10
1109.3235
 20
162.08175
 10
1109.283
 20
161.6745
 10
1109.3235
 20
161.26725
  0
LWPOLYLINE
  5
59
100
AcDbEntity
  8
profiling
  6
ByLayer
 62
  256
370
   -1
100
AcDbPolyline
 90
   14
 70
    1
 43
0
 10
1067.32275
 20
100.63275
 10
1067.32275
 20
93.057
 10
1070.8935
 20
93.057
 10
1072.5105
 20
93.057
 10
1075.809
 20
93.057
 10
1079.1075
 20
93.057
 10
1081.73775
 20
93.057
 10
1081.73775
 20
93.057
 10
1084.29525
 20
93.057
 10
1084.29525
 20
100.63275
 10
1079.1075
 20
100.63275
 10
1075.809
 20
100.63275
 10
1072.5105
 20
100.63275
 10
1067.32275
 20
100.63275
  0
LWPOLYLINE
  5
5A
100
AcDbEntity
  8
profiling
  6
ByLayer
 62
  256
370
   -1
100
AcDbPolyline
 90
   40
 70
    1
 43
0
 10
1061.70075
 20
84.79125000000001
 10
1061.81925
 20
84.39975
 10
1061.9205
 20
84.21075
 10
1062.01275
 20
84.039
 10
1062.20925
 20
83.79975
 10
1062.27225
 20
83.7225
 10
1062.58875
 20
83.46299999999999
 10
1062.95025
 20
83.27025
 10
1063.34175
 20
83.15175000000001
 10
1063.749
 20
83.11199999999999
 10
1063.8435
 20
83.121
 10
1064.15625
 20
83.15175000000001
 10
1064.54775
 20
83.27025
 10
1064.90925
 20
83.46299999999999
 10
1065.22575
 20
83.7225
 10
1065.48525
 20
84.039
 10
1065.678
 20
84.40049999999999
 10
1065.7965
 20
84.792
 10
1065.837
 20
85.19925000000001
 10
1065.7965
 20
85.6065
 10
1065.678
 20
85.998
 10
1065.48525
 20
86.35875
 10
1065.22575
 20
86.67525000000001
 10
1065.162
 20
86.72775
 10
1064.90925
 20
86.93474999999999
 10
1064.54775
 20
87.1275
 10
1064.15625
 20
87.246
 10
1063.749
 20
87.2865
 10
1063.34175
 20
87.246
 10
1062.95025
 20
87.1275
 10
1062.58875
 20
86.93474999999999
 10
1062.27225
 20
86.67525000000001
 10
1062.01275
 20
86.35875
 10
1061.82
 20
85.998
 10
1061.71725
 20
85.65825
 10
1061.7015
 20
85.60575
 10
1061.661
 20
85.1985
 10
1061.68425
 20
84.96225
 10
1061.70075
 20
84.79049999999999
 10
1061.70075
 20
84.79049999999999
  0
LWPOLYLINE
  5
5B
100
AcDbEntity
  8
profiling
  6
ByLayer
 62
  256
370
   -1
100
AcDbPolyline
 90
   36
 70
    1
 43
0
 10
1062.95025
 20
62.976
 10
1062.58875
 20
62.78325
 10
1062.27225
 20
62.52375
 10
1062.01275
 20
62.20725
 10
1061.82
 20
61.84575
 10
1061.7015
 20
61.45425
 10
1061.661
 20
61.047
 10
1061.7015
 20
60.63975
 10
1061.82
 20
60.2475
 10
1062.01275
 20
59.886
 10
1062.27225
 20
59.5695
 10
1062.58875
 20
59.31
 10
1062.9495
 20
59.11725
 10
1063.341
 20
58.99875
 10
1063.74825
 20
58.95825
 10
1064.1555
 20
58.99875
 10
1064.547
 20
59.11725
 10
1064.9085
 20
59.31
 10
1065.225
 20
59.5695
 10
1065.4845
 20
59.886
 10
1065.67725
 20
60.24675
 10
1065.79575
 20
60.639
 10
1065.83625
 20
61.04625
 10
1065.79575
 20
61.4535
 10
1065.789
 20
61.4745
 10
1065.6765
 20
61.845
 10
1065.561
 20
62.061
 10
1065.483
 20
62.2065
 10
1065.2235
 20
62.523
 10
1064.907
 20
62.7825
 10
1064.7075
 20
62.889
 10
1064.5455
 20
62.97525
 10
1064.154
 20
63.09375
 10
1063.74675
 20
63.13425
 10
1063.3395
 20
63.09375
 10
1062.948
 20
62.97525
  0
LWPOLYLINE
  5
5C
100
AcDbEntity
  8
profiling
  6
ByLayer
 62
  256
370
   -1
100
AcDbPolyline
 90
   36
 70
    1
 43
0
 10
1085.97225
 20
60.24675
 10
1086.165
 20
59.88525
 10
1086.4245
 20
59.56875
 10
1086.741
 20
59.30925
 10
1087.1025
 20
59.1165
 10
1087.494
 20
58.998
 10
1087.90125
 20
58.9575
 10
1088.3085
 20
58.998
 10
1088.7
 20
59.1165
 10
1089.0615
 20
59.30925
 10
1089.378
 20
59.56875
 10
1089.6375
 20
59.88525
 10
1089.8265
 20
60.2385
 10
1089.831
 20
60.24675
 10
1089.95025
 20
60.63825
 10
1089.99
 20
61.0455
 10
1089.95025
 20
61.45275
 10
1089.95025
 20
61.45275
 10
1089.831
 20
61.84425
 10
1089.63825
 20
62.20575
 10
1089.37875
 20
62.52225
 10
1089.06225
 20
62.78175
 10
1088.70075
 20
62.9745
 10
1088.30925
 20
63.093
 10
1087.902
 20
63.1335
 10
1087.49475
 20
63.093
 10
1087.10325
 20
62.9745
 10
1086.76125
 20
62.7915
 10
1086.7425
 20
62.781
 10
1086.426
 20
62.5215
 10
1086.1665
 20
62.205
 10
1085.97375
 20
61.8435
 10
1085.8545
 20
61.452
 10
1085.814
 20
61.04475
 10
1085.8545
 20
60.6375
 10
1085.97375
 20
60.246
  0
LWPOLYLINE
  5
5D
100
AcDbEntity
  8
profiling
  6
ByLayer
 62
  256
370
   -1
100
AcDbPolyline
 90
   36
 70
    1
 43
0
 10
1088.30925
 20
83.15025
 10
1088.70075
 20
83.26875
 10
1089.06225
 20
83.4615
 10
1089.37875
 20
83.721
 10
1089.63825
 20
84.03749999999999
 10
1089.831
 20
84.399
 10
1089.9495
 20
84.79049999999999
 10
1089.99
 20
85.19775
 10
1089.9495
 20
85.605
 10
1089.831
 20
85.9965
 10
1089.63825
 20
86.358
 10
1089.37875
 20
86.67449999999999
 10
1089.06225
 20
86.934
 10
1088.70075
 20
87.12675
 10
1088.30925
 20
87.24525
 10
1088.02425
 20
87.273
 10
1087.902
 20
87.285
 10
1087.49475
 20
87.2445
 10
1087.1025
 20
87.126
 10
1086.74175
 20
86.93325
 10
1086.42525
 20
86.67375
 10
1086.16575
 20
86.35724999999999
 10
1085.973
 20
85.99575
 10
1085.85375
 20
85.60424999999999
 10
1085.81325
 20
85.197
 10
1085.85375
 20
84.78975
 10
1085.973
 20
84.39825
 10
1086.09375
 20
84.17325
 10
1086.1665
 20
84.03749999999999
 10
1086.426
 20
83.721
 10
1086.7425
 20
83.4615
 10
1087.10325
 20
83.26875
 10
1087.2375
 20
83.22825
 10
1087.4955
 20
83.15025
 10
1087.90275
 20
83.10975000000001
 10
1088.31
 20
83.15025
  0
LWPOLYLINE
  5
5E
100
AcDbEntity
  8
profiling
  6
ByLayer
 62
  256
370
   -1
100
AcDbPolyline
 90
   36
 70
    1
 43
0
 10
1075.0305
 20
252.15075
 10
1074.669
 20
251.958
 10
1074.3525
 20
251.6985
 10
1074.093
 20
251.382
 10
1073.90025
 20
251.0205
 10
1073.781
 20
250.629
 10
1073.7405
 20
250.22175
 10
1073.781
 20
249.8145
 10
1073.781
 20
249.8145
 10
1073.90025
 20
249.423
 10
1074.093
 20
249.0615
 10
1074.3525
 20
248.745
 10
1074.669
 20
248.4855
 10
1075.0305
 20
248.29275
 10
1075.422
 20
248.17425
 10
1075.82925
 20
248.13375
 10
1076.2365
 20
248.17425
 10
1076.628
 20
248.29275
 10
1076.9895
 20
248.4855
 10
1077.306
 20
248.745
 10
1077.5655
 20
249.0615
 10
1077.75825
 20
249.423
 10
1077.75825
 20
249.423
 10
1077.85275
 20
249.735
 10
1077.87675
 20
249.8145
 10
1077.9165
 20
250.22175
 10
1077.87675
 20
250.629
 10
1077.7575
 20
251.0205
 10
1077.56475
 20
251.382
 10
1077.30525
 20
251.6985
 10
1076.98875
 20
251.958
 10
1076.62725
 20
252.15075
 10
1076.23575
 20
252.26925
 10
1075.77
 20
252.30375
 10
1075.4205
 20
252.26925
 10
1075.029
 20
252.15075
  0
LWPOLYLINE
  5
5F
100
AcDbEntity
  8
profiling
  6
ByLayer
 62
  256
370
   -1
100
AcDbPolyline
 90
   27
 70
    1
 43
0
 10
1055.92875
 20
176.706
 10
1056.4395
 20
176.706
 10
1056.93525
 20
176.82825
 10
1057.3875
 20
177.06525
 10
1057.77
 20
177.4035
 10
1058.06025
 20
177.8235
 10
1058.241
 20
178.3005
 10
1058.3025
 20
178.8075
 10
1058.241
 20
179.3145
 10
1058.06025
 20
179.79225
 10
1057.77
 20
180.21225
 10
1057.3875
 20
180.5505
 10
1056.93525
 20
180.7875
 10
1056.4395
 20
180.90975
 10
1055.92875
 20
180.90975
 10
1055.433
 20
180.7875
 10
1054.98075
 20
180.5505
 10
1054.59825
 20
180.21225
 10
1054.308
 20
179.79225
 10
1054.12725
 20
179.3145
 10
1054.06575
 20
178.8075
 10
1054.12725
 20
178.3005
 10
1054.308
 20
177.8235
 10
1054.59825
 20
177.4035
 10
1054.98075
 20
177.06525
 10
1055.433
 20
176.82825
 10
1055.92875
 20
176.706
  0
LWPOLYLINE
  5
60
100
AcDbEntity
  8
profiling
  6
ByLayer
 62
  256
370
   -1
100
AcDbPolyline
 90
   27
 70
    1
 43
0
 10
1096.10175
 20
176.82825
 10
1096.554
 20
177.06525
 10
1096.93575
 20
177.4035
 10
1097.226
 20
177.8235
 10
1097.40675
 20
178.3005
 10
1097.46825
 20
178.8075
 10
1097.40675
 20
179.3145
 10
1097.226
 20
179.7915
 10
1096.93575
 20
180.2115
 10
1096.554
 20
180.54975
 10
1096.10175
 20
180.78675
 10
1095.606
 20
180.909
 10
1095.09525
 20
180.909
 10
1094.5995
 20
180.78675
 10
1094.14725
 20
180.54975
 10
1093.76475
 20
180.2115
 10
1093.4745
 20
179.7915
 10
1093.29375
 20
179.31375
 10
1093.23225
 20
178.80675
 10
1093.29375
 20
178.29975
 10
1093.4745
 20
177.82275
 10
1093.76475
 20
177.40275
 10
1094.14725
 20
177.0645
 10
1094.5995
 20
176.8275
 10
1095.09525
 20
176.70525
 10
1095.606
 20
176.70525
 10
1096.10175
 20
176.8275
  0
ENDSEC
  0
SECTION
  2
OBJECTS
  0
DICTIONARY
  5
C
330
0
100
AcDbDictionary
281
    1
  3
ACAD_GROUP
350
D
  0
DICTIONARY
  5
D
330
C
100
AcDbDictionary
281
    1
  0
ENDSEC
  0
EOF
