999
dxfrw 0.6.3
  0
SECTION
  2
HEADER
  9
$ACADVER
  1
AC1021
  9
$DWGCODEPAGE
  3
ANSI_1252
  9
$INSBASE
 10
0
 20
0
 30
0
  9
$EXTMIN
 10
-1.02556836605072
 20
0.1120990216732025
 30
0
  9
$EXTMAX
 10
-0.05755138397216797
 20
0.582101047039032
 30
0
  9
$LIMMIN
 10
0
 20
0
  9
$LIMMAX
 10
420
 20
297
  9
$ORTHOMODE
 70
    0
  9
$REGENMODE
 70
    1
  9
$FILLMODE
 70
    1
  9
$QTEXTMODE
 70
    0
  9
$MIRRTEXT
 70
    0
  9
$LTSCALE
 40
1
  9
$ATTMODE
 70
    0
  9
$TEXTSIZE
 40
2.5
  9
$TRACEWID
 40
15.68
  9
$TEXTSTYLE
  7
STANDARD
  9
$CLAYER
  8
profiling
  9
$CELTYPE
  6
BYLAYER
  9
$CECOLOR
 62
  256
  9
$CELTSCALE
 40
1
  9
$DISPSILH
 70
    0
  9
$DIMSCALE
 40
2.5
  9
$DIMASZ
 40
2.5
  9
$DIMEXO
 40
0.625
  9
$DIMDLI
 40
3.75
  9
$DIMRND
 40
0
  9
$DIMDLE
 40
0
  9
$DIMEXE
 40
1.25
  9
$DIMTP
 40
0
  9
$DIMTM
 40
0
  9
$DIMTXT
 40
2.5
  9
$DIMCEN
 40
2.5
  9
$DIMTSZ
 40
0
  9
$DIMTOL
 70
    0
  9
$DIMLIM
 70
    0
  9
$DIMTIH
 70
    0
  9
$DIMTOH
 70
    0
  9
$DIMSE1
 70
    0
  9
$DIMSE2
 70
    0
  9
$DIMTAD
 70
    1
  9
$DIMZIN
 70
    8
  9
$DIMBLK
  1

  9
$DIMASO
 70
    1
  9
$DIMSHO
 70
    1
  9
$DIMPOST
  1

  9
$DIMAPOST
  1

  9
$DIMALT
 70
    0
  9
$DIMALTD
 70
    3
  9
$DIMALTF
 40
0.03937
  9
$DIMLFAC
 40
1
  9
$DIMTOFL
 70
    1
  9
$DIMTVP
 40
0
  9
$DIMTIX
 70
    0
  9
$DIMSOXD
 70
    0
  9
$DIMSAH
 70
    0
  9
$DIMBLK1
  1

  9
$DIMBLK2
  1

  9
$DIMSTYLE
  2
Standard
  9
$DIMCLRD
 70
    0
  9
$DIMCLRE
 70
    0
  9
$DIMCLRT
 70
    0
  9
$DIMTFAC
 40
1
  9
$DIMGAP
 40
0.625
  9
$DIMJUST
 70
    0
  9
$DIMSD1
 70
    0
  9
$DIMSD2
 70
    0
  9
$DIMTOLJ
 70
    0
  9
$DIMTZIN
 70
    8
  9
$DIMALTZ
 70
    0
  9
$DIMALTTZ
 70
    0
  9
$DIMUPT
 70
    0
  9
$DIMDEC
 70
    2
  9
$DIMTDEC
 70
    2
  9
$DIMALTU
 70
    2
  9
$DIMALTTD
 70
    3
  9
$DIMTXSTY
  7
STANDARD
  9
$DIMAUNIT
 70
    0
  9
$DIMADEC
 70
    0
  9
$DIMALTRND
 40
0
  9
$DIMAZIN
 70
    0
  9
$DIMDSEP
 70
   44
  9
$DIMATFIT
 70
    3
  9
$DIMFRAC
 70
    0
  9
$DIMLDRBLK
  1
STANDARD
  9
$DIMLUNIT
 70
    2
  9
$DIMLWD
 70
   -2
  9
$DIMLWE
 70
   -2
  9
$DIMTMOVE
 70
    0
  9
$DIMFXL
 40
1
  9
$DIMFXLON
 70
    0
  9
$DIMJOGANG
 40
0.7854
  9
$DIMTFILL
 70
    0
  9
$DIMTFILLCLR
 70
    0
  9
$DIMARCSYM
 70
    0
  9
$DIMLTYPE
  6

  9
$DIMLTEX1
  6

  9
$DIMLTEX2
  6

  9
$LUNITS
 70
    2
  9
$LUPREC
 70
    4
  9
$SKETCHINC
 40
1
  9
$FILLETRAD
 40
0
  9
$AUNITS
 70
    0
  9
$AUPREC
 70
    2
  9
$MENU
  1
.
  9
$ELEVATION
 40
0
  9
$PELEVATION
 40
0
  9
$THICKNESS
 40
0
  9
$LIMCHECK
 70
    0
  9
$CHAMFERA
 40
0
  9
$CHAMFERB
 40
0
  9
$CHAMFERC
 40
0
  9
$CHAMFERD
 40
0
  9
$SKPOLY
 70
    0
  9
$USRTIMER
 70
    1
  9
$ANGBASE
 50
0
  9
$ANGDIR
 70
    0
  9
$PDMODE
 70
   34
  9
$PDSIZE
 40
0
  9
$PLINEWID
 40
0
  9
$SPLFRAME
 70
    0
  9
$SPLINETYPE
 70
    2
  9
$SPLINESEGS
 70
    8
  9
$HANDSEED
  5
20000
  9
$SURFTAB1
 70
    6
  9
$SURFTAB2
 70
    6
  9
$SURFTYPE
 70
    6
  9
$SURFU
 70
    6
  9
$SURFV
 70
    6
  9
$UCSBASE
  2

  9
$UCSNAME
  2

  9
$UCSORG
 10
0
 20
0
 30
0
  9
$UCSXDIR
 10
1
 20
0
 30
0
  9
$UCSYDIR
 10
0
 20
1
 30
0
  9
$UCSORTHOREF
  2

  9
$UCSORTHOVIEW
 70
    0
  9
$UCSORGTOP
 10
0
 20
0
 30
0
  9
$UCSORGBOTTOM
 10
0
 20
0
 30
0
  9
$UCSORGLEFT
 10
0
 20
0
 30
0
  9
$UCSORGRIGHT
 10
0
 20
0
 30
0
  9
$UCSORGFRONT
 10
0
 20
0
 30
0
  9
$UCSORGBACK
 10
0
 20
0
 30
0
  9
$PUCSBASE
  2

  9
$PUCSNAME
  2

  9
$PUCSORG
 10
0
 20
0
 30
0
  9
$PUCSXDIR
 10
1
 20
0
 30
0
  9
$PUCSYDIR
 10
0
 20
1
 30
0
  9
$PUCSORTHOREF
  2

  9
$PUCSORTHOVIEW
 70
    0
  9
$PUCSORGTOP
 10
0
 20
0
 30
0
  9
$PUCSORGBOTTOM
 10
0
 20
0
 30
0
  9
$PUCSORGLEFT
 10
0
 20
0
 30
0
  9
$PUCSORGRIGHT
 10
0
 20
0
 30
0
  9
$PUCSORGFRONT
 10
0
 20
0
 30
0
  9
$PUCSORGBACK
 10
0
 20
0
 30
0
  9
$USERI1
 70
    0
  9
$USERI2
 70
    0
  9
$USERI3
 70
    0
  9
$USERI4
 70
    0
  9
$USERI5
 70
    0
  9
$USERR1
 40
0
  9
$USERR2
 40
0
  9
$USERR3
 40
0
  9
$USERR4
 40
0
  9
$USERR5
 40
0
  9
$WORLDVIEW
 70
    1
  9
$SHADEDGE
 70
    3
  9
$SHADEDIF
 70
   70
  9
$TILEMODE
 70
    1
  9
$MAXACTVP
 70
   64
  9
$PINSBASE
 10
0
 20
0
 30
0
  9
$PLIMCHECK
 70
    0
  9
$PEXTMIN
 10
0
 20
0
 30
0
  9
$PEXTMAX
 10
0
 20
0
 30
0
  9
$GRIDMODE
 70
    0
  9
$SNAPSTYLE
 70
    0
  9
$PLIMMIN
 10
0
 20
0
  9
$PLIMMAX
 10
210
 20
297
  9
$UNITMODE
 70
    0
  9
$VISRETAIN
 70
    1
  9
$PLINEGEN
 70
    0
  9
$PSLTSCALE
 70
    1
  9
$TREEDEPTH
 70
 3020
  9
$CMLSTYLE
  2
Standard
  9
$CMLJUST
 70
    0
  9
$CMLSCALE
 40
20
  9
$PROXYGRAPHICS
 70
    1
  9
$MEASUREMENT
 70
    1
  9
$CELWEIGHT
370
   -1
  9
$ENDCAPS
280
    0
  9
$JOINSTYLE
280
    0
  9
$LWDISPLAY
290
    0
  9
$INSUNITS
 70
    4
  9
$HYPERLINKBASE
  1

  9
$STYLESHEET
  1

  9
$XEDIT
290
    1
  9
$CEPSNTYPE
380
    0
  9
$PSTYLEMODE
290
    1
  9
$EXTNAMES
290
    1
  9
$PSVPSCALE
 40
1
  9
$OLESTARTUP
290
    0
  9
$SORTENTS
280
  127
  9
$INDEXCTL
280
    0
  9
$HIDETEXT
280
    1
  9
$XCLIPFRAME
290
    0
  9
$HALOGAP
280
    0
  9
$OBSCOLOR
 70
  257
  9
$OBSLTYPE
280
    0
  9
$INTERSECTIONDISPLAY
280
    0
  9
$INTERSECTIONCOLOR
 70
  257
  9
$DIMASSOC
280
    1
  9
$PROJECTNAME
  1

  9
$CAMERADISPLAY
290
    0
  9
$LENSLENGTH
 40
50
  9
$CAMERAHEIGHT
 40
0
  9
$STEPSPERSEC
 40
2
  9
$STEPSIZE
 40
50
  9
$3DDWFPREC
 40
2
  9
$PSOLWIDTH
 40
5
  9
$PSOLHEIGHT
 40
80
  9
$LOFTANG1
 40
1.570796326794897
  9
$LOFTANG2
 40
1.570796326794897
  9
$LOFTMAG1
 40
0
  9
$LOFTMAG2
 40
0
  9
$LOFTPARAM
 70
    7
  9
$LOFTNORMALS
280
    1
  9
$LATITUDE
 40
1
  9
$LONGITUDE
 40
1
  9
$NORTHDIRECTION
 40
0
  9
$TIMEZONE
 70
-8000
  9
$LIGHTGLYPHDISPLAY
280
    1
  9
$TILEMODELIGHTSYNCH
280
    1
  9
$SOLIDHIST
280
    1
  9
$SHOWHIST
280
    1
  9
$DWFFRAME
280
    2
  9
$DGNFRAME
280
    0
  9
$REALWORLDSCALE
290
    1
  9
$INTERFERECOLOR
 62
    1
  9
$CSHADOW
280
    0
  9
$SHADOWPLANELOCATION
 40
0
  0
ENDSEC
  0
SECTION
  2
CLASSES
  0
ENDSEC
  0
SECTION
  2
TABLES
  0
TABLE
  2
VPORT
  5
8
330
0
100
AcDbSymbolTable
 70
    1
  0
VPORT
  5
31
330
2
100
AcDbSymbolTableRecord
100
AcDbViewportTableRecord
  2
*ACTIVE
 70
    0
 10
0
 20
0
 11
1
 21
1
 12
0.0901247800237127
 22
0.3192612133681336
 13
0
 23
0
 14
10
 24
10
 15
10
 25
10
 16
0
 26
0
 36
1
 17
0
 27
0
 37
0
 40
0.5826517143968437
 41
2.527397260273973
 42
50
 43
0
 44
0
 50
0
 51
0
 71
    0
 72
  100
 73
    1
 74
    3
 75
    0
 76
    0
 77
    0
 78
    0
281
    0
 65
    1
110
0
120
0
130
0
111
1
121
0
131
0
112
0
122
1
132
0
 79
    0
146
0
348
10020
 60
    7
 61
    5
292
1
282
    1
141
0
142
0
 63
  250
421
3358443
  0
ENDTAB
  0
TABLE
  2
LTYPE
  5
5
330
0
100
AcDbSymbolTable
 70
    4
  0
LTYPE
  5
14
330
5
100
AcDbSymbolTableRecord
100
AcDbLinetypeTableRecord
  2
ByBlock
 70
    0
  3

 72
   65
 73
    0
 40
0
  0
LTYPE
  5
15
330
5
100
AcDbSymbolTableRecord
100
AcDbLinetypeTableRecord
  2
ByLayer
 70
    0
  3

 72
   65
 73
    0
 40
0
  0
LTYPE
  5
16
330
5
100
AcDbSymbolTableRecord
100
AcDbLinetypeTableRecord
  2
Continuous
 70
    0
  3
Solid line
 72
   65
 73
    0
 40
0
  0
LTYPE
  5
32
330
5
100
AcDbSymbolTableRecord
100
AcDbLinetypeTableRecord
  2
DOT
 70
    0
  3
Dot . . . . . . . . . . . . . . . . . . . . . .
 72
   65
 73
    2
 40
6.35
 49
0
 74
    0
 49
-6.35
 74
    0
  0
LTYPE
  5
33
330
5
100
AcDbSymbolTableRecord
100
AcDbLinetypeTableRecord
  2
DOTTINY
 70
    0
  3
Dot (.15x) .....................................
 72
   65
 73
    2
 40
0.9525
 49
0
 74
    0
 49
-0.9525
 74
    0
  0
LTYPE
  5
34
330
5
100
AcDbSymbolTableRecord
100
AcDbLinetypeTableRecord
  2
DOT2
 70
    0
  3
Dot (.5x) .....................................
 72
   65
 73
    2
 40
3.175
 49
0
 74
    0
 49
-3.175
 74
    0
  0
LTYPE
  5
35
330
5
100
AcDbSymbolTableRecord
100
AcDbLinetypeTableRecord
  2
DOTX2
 70
    0
  3
Dot (2x) .  .  .  .  .  .  .  .  .  .  .  .  .
 72
   65
 73
    2
 40
12.7
 49
0
 74
    0
 49
-12.7
 74
    0
  0
LTYPE
  5
36
330
5
100
AcDbSymbolTableRecord
100
AcDbLinetypeTableRecord
  2
DASHED
 70
    0
  3
Dashed _ _ _ _ _ _ _ _ _ _ _ _ _ _ _ _ _
 72
   65
 73
    2
 40
19.05
 49
12.7
 74
    0
 49
-6.35
 74
    0
  0
LTYPE
  5
37
330
5
100
AcDbSymbolTableRecord
100
AcDbLinetypeTableRecord
  2
DASHEDTINY
 70
    0
  3
Dashed (.15x) _ _ _ _ _ _ _ _ _ _ _ _ _ _ _ _ _
 72
   65
 73
    2
 40
2.8575
 49
1.905
 74
    0
 49
-0.9525
 74
    0
  0
LTYPE
  5
38
330
5
100
AcDbSymbolTableRecord
100
AcDbLinetypeTableRecord
  2
DASHED2
 70
    0
  3
Dashed (.5x) _ _ _ _ _ _ _ _ _ _ _ _ _ _ _ _ _
 72
   65
 73
    2
 40
9.524999999999999
 49
6.35
 74
    0
 49
-3.175
 74
    0
  0
LTYPE
  5
39
330
5
100
AcDbSymbolTableRecord
100
AcDbLinetypeTableRecord
  2
DASHEDX2
 70
    0
  3
Dashed (2x) ____  ____  ____  ____  ____  ___
 72
   65
 73
    2
 40
38.09999999999999
 49
25.4
 74
    0
 49
-12.7
 74
    0
  0
LTYPE
  5
3A
330
5
100
AcDbSymbolTableRecord
100
AcDbLinetypeTableRecord
  2
DASHDOT
 70
    0
  3
Dash dot __ . __ . __ . __ . __ . __ . __ . __
 72
   65
 73
    4
 40
25.4
 49
12.7
 74
    0
 49
-6.35
 74
    0
 49
0
 74
    0
 49
-6.35
 74
    0
  0
LTYPE
  5
3B
330
5
100
AcDbSymbolTableRecord
100
AcDbLinetypeTableRecord
  2
DASHDOTTINY
 70
    0
  3
Dash dot (.15x) _._._._._._._._._._._._._._._.
 72
   65
 73
    4
 40
3.81
 49
1.905
 74
    0
 49
-0.9525
 74
    0
 49
0
 74
    0
 49
-0.9525
 74
    0
  0
LTYPE
  5
3C
330
5
100
AcDbSymbolTableRecord
100
AcDbLinetypeTableRecord
  2
DASHDOT2
 70
    0
  3
Dash dot (.5x) _._._._._._._._._._._._._._._.
 72
   65
 73
    4
 40
12.7
 49
6.35
 74
    0
 49
-3.175
 74
    0
 49
0
 74
    0
 49
-3.175
 74
    0
  0
LTYPE
  5
3D
330
5
100
AcDbSymbolTableRecord
100
AcDbLinetypeTableRecord
  2
DASHDOTX2
 70
    0
  3
Dash dot (2x) ____  .  ____  .  ____  .  ___
 72
   65
 73
    4
 40
50.8
 49
25.4
 74
    0
 49
-12.7
 74
    0
 49
0
 74
    0
 49
-12.7
 74
    0
  0
LTYPE
  5
3E
330
5
100
AcDbSymbolTableRecord
100
AcDbLinetypeTableRecord
  2
DIVIDE
 70
    0
  3
Divide ____ . . ____ . . ____ . . ____ . . ____
 72
   65
 73
    6
 40
31.75
 49
12.7
 74
    0
 49
-6.35
 74
    0
 49
0
 74
    0
 49
-6.35
 74
    0
 49
0
 74
    0
 49
-6.35
 74
    0
  0
LTYPE
  5
3F
330
5
100
AcDbSymbolTableRecord
100
AcDbLinetypeTableRecord
  2
DIVIDETINY
 70
    0
  3
Divide (.15x) __..__..__..__..__..__..__..__.._
 72
   65
 73
    6
 40
4.7625
 49
1.905
 74
    0
 49
-0.9525
 74
    0
 49
0
 74
    0
 49
-0.9525
 74
    0
 49
0
 74
    0
 49
-0.9525
 74
    0
  0
LTYPE
  5
40
330
5
100
AcDbSymbolTableRecord
100
AcDbLinetypeTableRecord
  2
DIVIDE2
 70
    0
  3
Divide (.5x) __..__..__..__..__..__..__..__.._
 72
   65
 73
    6
 40
15.875
 49
6.35
 74
    0
 49
-3.175
 74
    0
 49
0
 74
    0
 49
-3.175
 74
    0
 49
0
 74
    0
 49
-3.175
 74
    0
  0
LTYPE
  5
41
330
5
100
AcDbSymbolTableRecord
100
AcDbLinetypeTableRecord
  2
DIVIDEX2
 70
    0
  3
Divide (2x) ________  .  .  ________  .  .  _
 72
   65
 73
    6
 40
63.5
 49
25.4
 74
    0
 49
-12.7
 74
    0
 49
0
 74
    0
 49
-12.7
 74
    0
 49
0
 74
    0
 49
-12.7
 74
    0
  0
LTYPE
  5
42
330
5
100
AcDbSymbolTableRecord
100
AcDbLinetypeTableRecord
  2
BORDER
 70
    0
  3
Border __ __ . __ __ . __ __ . __ __ . __ __ .
 72
   65
 73
    6
 40
44.45
 49
12.7
 74
    0
 49
-6.35
 74
    0
 49
12.7
 74
    0
 49
-6.35
 74
    0
 49
0
 74
    0
 49
-6.35
 74
    0
  0
LTYPE
  5
43
330
5
100
AcDbSymbolTableRecord
100
AcDbLinetypeTableRecord
  2
BORDERTINY
 70
    0
  3
Border (.15x) __.__.__.__.__.__.__.__.__.__.__.
 72
   65
 73
    6
 40
6.6675
 49
1.905
 74
    0
 49
-0.9525
 74
    0
 49
1.905
 74
    0
 49
-0.9525
 74
    0
 49
0
 74
    0
 49
-0.9525
 74
    0
  0
LTYPE
  5
44
330
5
100
AcDbSymbolTableRecord
100
AcDbLinetypeTableRecord
  2
BORDER2
 70
    0
  3
Border (.5x) __.__.__.__.__.__.__.__.__.__.__.
 72
   65
 73
    6
 40
22.225
 49
6.35
 74
    0
 49
-3.175
 74
    0
 49
6.35
 74
    0
 49
-3.175
 74
    0
 49
0
 74
    0
 49
-3.175
 74
    0
  0
LTYPE
  5
45
330
5
100
AcDbSymbolTableRecord
100
AcDbLinetypeTableRecord
  2
BORDERX2
 70
    0
  3
Border (2x) ____  ____  .  ____  ____  .  ___
 72
   65
 73
    6
 40
88.89999999999999
 49
25.4
 74
    0
 49
-12.7
 74
    0
 49
25.4
 74
    0
 49
-12.7
 74
    0
 49
0
 74
    0
 49
-12.7
 74
    0
  0
LTYPE
  5
46
330
5
100
AcDbSymbolTableRecord
100
AcDbLinetypeTableRecord
  2
CENTER
 70
    0
  3
Center ____ _ ____ _ ____ _ ____ _ ____ _ ____
 72
   65
 73
    4
 40
50.8
 49
31.75
 74
    0
 49
-6.35
 74
    0
 49
6.35
 74
    0
 49
-6.35
 74
    0
  0
LTYPE
  5
47
330
5
100
AcDbSymbolTableRecord
100
AcDbLinetypeTableRecord
  2
CENTERTINY
 70
    0
  3
Center (.15x) ___ _ ___ _ ___ _ ___ _ ___ _ ___
 72
   65
 73
    4
 40
7.619999999999999
 49
4.7625
 74
    0
 49
-0.9525
 74
    0
 49
0.9525
 74
    0
 49
-0.9525
 74
    0
  0
LTYPE
  5
48
330
5
100
AcDbSymbolTableRecord
100
AcDbLinetypeTableRecord
  2
CENTER2
 70
    0
  3
Center (.5x) ___ _ ___ _ ___ _ ___ _ ___ _ ___
 72
   65
 73
    4
 40
28.575
 49
19.05
 74
    0
 49
-3.175
 74
    0
 49
3.175
 74
    0
 49
-3.175
 74
    0
  0
LTYPE
  5
49
330
5
100
AcDbSymbolTableRecord
100
AcDbLinetypeTableRecord
  2
CENTERX2
 70
    0
  3
Center (2x) ________  __  ________  __  _____
 72
   65
 73
    4
 40
101.6
 49
63.5
 74
    0
 49
-12.7
 74
    0
 49
12.7
 74
    0
 49
-12.7
 74
    0
  0
ENDTAB
  0
TABLE
  2
LAYER
  5
2
330
0
100
AcDbSymbolTable
 70
    1
  0
LAYER
  5
10
330
2
100
AcDbSymbolTableRecord
100
AcDbLayerTableRecord
  2
0
 70
    0
 62
    7
  6
CONTINUOUS
370
    0
390
F
  0
LAYER
  5
4A
330
2
100
AcDbSymbolTableRecord
100
AcDbLayerTableRecord
  2
profiling
 70
    0
 62
    3
  6
CONTINUOUS
370
    0
390
F
  0
ENDTAB
  0
TABLE
  2
STYLE
  5
3
330
0
100
AcDbSymbolTable
 70
    3
  0
STYLE
  5
4B
330
2
100
AcDbSymbolTableRecord
100
AcDbTextStyleTableRecord
  2
Standard
 70
    0
 40
0
 41
1
 50
0
 71
    0
 42
1
  3
txt
  4

  0
ENDTAB
  0
TABLE
  2
VIEW
  5
6
330
0
100
AcDbSymbolTable
 70
    0
  0
ENDTAB
  0
TABLE
  2
UCS
  5
7
330
0
100
AcDbSymbolTable
 70
    0
  0
ENDTAB
  0
TABLE
  2
APPID
  5
9
330
0
100
AcDbSymbolTable
 70
    1
  0
APPID
  5
12
330
9
100
AcDbSymbolTableRecord
100
AcDbRegAppTableRecord
  2
ACAD
 70
    0
  0
APPID
  5
4C
330
9
100
AcDbSymbolTableRecord
100
AcDbRegAppTableRecord
  2
LibreCad
 70
    0
  0
ENDTAB
  0
TABLE
  2
DIMSTYLE
  5
A
330
0
100
AcDbSymbolTable
 70
    1
100
AcDbDimStyleTable
 71
    1
  0
DIMSTYLE
105
4D
330
A
100
AcDbSymbolTableRecord
100
AcDbDimStyleTableRecord
  2
Standard
 70
    0
 40
1
 41
2.5
 42
0.625
 43
0.38
 44
1.25
 45
0
 46
0
 47
0
 48
0
 49
1
140
2.5
141
0.09
142
2.5
143
25.4
144
1
145
0
146
1
147
0.625
148
0
 71
    0
 72
    0
 73
    0
 74
    1
 75
    0
 76
    0
 77
    0
 78
    1
 79
    0
170
    0
171
    2
172
    0
173
    0
174
    0
175
    0
176
    0
177
    0
178
    0
179
    0
271
    2
272
    4
273
    2
274
    2
275
    0
276
    0
277
    2
278
    0
279
    0
280
    0
281
    0
282
    0
283
    1
284
    0
285
    0
286
    0
288
    0
289
    3
340
standard
341

371
   -2
372
   -2
  0
ENDTAB
  0
TABLE
  2
BLOCK_RECORD
  5
1
330
0
100
AcDbSymbolTable
 70
    2
  0
BLOCK_RECORD
  5
1F
330
1
100
AcDbSymbolTableRecord
100
AcDbBlockTableRecord
  2
*Model_Space
 70
    0
280
    1
281
    0
  0
BLOCK_RECORD
  5
1E
330
1
100
AcDbSymbolTableRecord
100
AcDbBlockTableRecord
  2
*Paper_Space
 70
    0
280
    1
281
    0
  0
ENDTAB
  0
ENDSEC
  0
SECTION
  2
BLOCKS
  0
BLOCK
  5
20
330
1F
100
AcDbEntity
  8
0
100
AcDbBlockBegin
  2
*Model_Space
 70
    0
 10
0
 20
0
 30
0
  3
*Model_Space
  1

  0
ENDBLK
  5
21
330
1F
100
AcDbEntity
  8
0
100
AcDbBlockEnd
  0
BLOCK
  5
1C
330
1B
100
AcDbEntity
  8
0
100
AcDbBlockBegin
  2
*Paper_Space
 70
    0
 10
0
 20
0
 30
0
  3
*Paper_Space
  1

  0
ENDBLK
  5
1D
330
1F
100
AcDbEntity
  8
0
100
AcDbBlockEnd
  0
ENDSEC
  0
SECTION
  2
ENTITIES
  0
LINE
  5
4E
100
AcDbEntity
  8
profiling
  6
ByLayer
 62
  256
370
   -1
100
AcDbLine
 10
-0.5236647129058838
 20
0.1196680665016174
 11
-0.5239646434783936
 21
0.1195770800113678
  0
LINE
  5
4F
100
AcDbEntity
  8
profiling
  6
ByLayer
 62
  256
370
   -1
100
AcDbLine
 10
-0.5239646434783936
 20
0.1195770800113678
 11
-0.5242410898208618
 21
0.1194293051958084
  0
LINE
  5
50
100
AcDbEntity
  8
profiling
  6
ByLayer
 62
  256
370
   -1
100
AcDbLine
 10
-0.5242410898208618
 20
0.1194293051958084
 11
-0.524483323097229
 21
0.1192304491996765
  0
LINE
  5
51
100
AcDbEntity
  8
profiling
  6
ByLayer
 62
  256
370
   -1
100
AcDbLine
 10
-0.524483323097229
 20
0.1192304491996765
 11
-0.5246822834014893
 21
0.1189881563186646
  0
LINE
  5
52
100
AcDbEntity
  8
profiling
  6
ByLayer
 62
  256
370
   -1
100
AcDbLine
 10
-0.5246822834014893
 20
0.1189881563186646
 11
-0.5248299837112427
 21
0.1187117099761963
  0
LINE
  5
53
100
AcDbEntity
  8
profiling
  6
ByLayer
 62
  256
370
   -1
100
AcDbLine
 10
-0.5248299837112427
 20
0.1187117099761963
 11
-0.5249209403991699
 21
0.1184117496013641
  0
LINE
  5
54
100
AcDbEntity
  8
profiling
  6
ByLayer
 62
  256
370
   -1
100
AcDbLine
 10
-0.5249209403991699
 20
0.1184117496013641
 11
-0.524951696395874
 21
0.1180997937917709
  0
LINE
  5
55
100
AcDbEntity
  8
profiling
  6
ByLayer
 62
  256
370
   -1
100
AcDbLine
 10
-0.524951696395874
 20
0.1180997937917709
 11
-0.5249209403991699
 21
0.1177878528833389
  0
LINE
  5
56
100
AcDbEntity
  8
profiling
  6
ByLayer
 62
  256
370
   -1
100
AcDbLine
 10
-0.5249209403991699
 20
0.1177878528833389
 11
-0.5248299837112427
 21
0.1174878925085068
  0
LINE
  5
57
100
AcDbEntity
  8
profiling
  6
ByLayer
 62
  256
370
   -1
100
AcDbLine
 10
-0.5248299837112427
 20
0.1174878925085068
 11
-0.5246822834014893
 21
0.1172114312648773
  0
LINE
  5
58
100
AcDbEntity
  8
profiling
  6
ByLayer
 62
  256
370
   -1
100
AcDbLine
 10
-0.5246822834014893
 20
0.1172114312648773
 11
-0.5245096683502197
 21
0.1170011609792709
  0
LINE
  5
59
100
AcDbEntity
  8
profiling
  6
ByLayer
 62
  256
370
   -1
100
AcDbLine
 10
-0.5245096683502197
 20
0.1170011609792709
 11
-0.5242410898208618
 21
0.1167702823877335
  0
LINE
  5
5A
100
AcDbEntity
  8
profiling
  6
ByLayer
 62
  256
370
   -1
100
AcDbLine
 10
-0.5242410898208618
 20
0.1167702823877335
 11
-0.5239646434783936
 21
0.1166225075721741
  0
LINE
  5
5B
100
AcDbEntity
  8
profiling
  6
ByLayer
 62
  256
370
   -1
100
AcDbLine
 10
-0.5239646434783936
 20
0.1166225075721741
 11
-0.5236997604370117
 21
0.1165421605110168
  0
LINE
  5
5C
100
AcDbEntity
  8
profiling
  6
ByLayer
 62
  256
370
   -1
100
AcDbLine
 10
-0.5236997604370117
 20
0.1165421605110168
 11
-0.5233527421951294
 21
0.1165007948875427
  0
LINE
  5
5D
100
AcDbEntity
  8
profiling
  6
ByLayer
 62
  256
370
   -1
100
AcDbLine
 10
-0.5233527421951294
 20
0.1165007948875427
 11
-0.523040771484375
 21
0.1165315210819244
  0
LINE
  5
5E
100
AcDbEntity
  8
profiling
  6
ByLayer
 62
  256
370
   -1
100
AcDbLine
 10
-0.523040771484375
 20
0.1165315210819244
 11
-0.5227408409118652
 21
0.1166225075721741
  0
LINE
  5
5F
100
AcDbEntity
  8
profiling
  6
ByLayer
 62
  256
370
   -1
100
AcDbLine
 10
-0.5227408409118652
 20
0.1166225075721741
 11
-0.522464394569397
 21
0.1167702823877335
  0
LINE
  5
60
100
AcDbEntity
  8
profiling
  6
ByLayer
 62
  256
370
   -1
100
AcDbLine
 10
-0.522464394569397
 20
0.1167702823877335
 11
-0.5222373008728027
 21
0.1169566810131073
  0
LINE
  5
61
100
AcDbEntity
  8
profiling
  6
ByLayer
 62
  256
370
   -1
100
AcDbLine
 10
-0.5222373008728027
 20
0.1169566810131073
 11
-0.5220232009887695
 21
0.1172114312648773
  0
LINE
  5
62
100
AcDbEntity
  8
profiling
  6
ByLayer
 62
  256
370
   -1
100
AcDbLine
 10
-0.5220232009887695
 20
0.1172114312648773
 11
-0.5218755006790161
 21
0.1174878925085068
  0
LINE
  5
63
100
AcDbEntity
  8
profiling
  6
ByLayer
 62
  256
370
   -1
100
AcDbLine
 10
-0.5218755006790161
 20
0.1174878925085068
 11
-0.5217845439910889
 21
0.1177878528833389
  0
LINE
  5
64
100
AcDbEntity
  8
profiling
  6
ByLayer
 62
  256
370
   -1
100
AcDbLine
 10
-0.5217845439910889
 20
0.1177878528833389
 11
-0.5217537879943848
 21
0.1180997937917709
  0
LINE
  5
65
100
AcDbEntity
  8
profiling
  6
ByLayer
 62
  256
370
   -1
100
AcDbLine
 10
-0.5217537879943848
 20
0.1180997937917709
 11
-0.5217844247817993
 21
0.1184117496013641
  0
LINE
  5
66
100
AcDbEntity
  8
profiling
  6
ByLayer
 62
  256
370
   -1
100
AcDbLine
 10
-0.5217844247817993
 20
0.1184117496013641
 11
-0.5218755006790161
 21
0.1187117099761963
  0
LINE
  5
67
100
AcDbEntity
  8
profiling
  6
ByLayer
 62
  256
370
   -1
100
AcDbLine
 10
-0.5218755006790161
 20
0.1187117099761963
 11
-0.5220232009887695
 21
0.1189881563186646
  0
LINE
  5
68
100
AcDbEntity
  8
profiling
  6
ByLayer
 62
  256
370
   -1
100
AcDbLine
 10
-0.5220232009887695
 20
0.1189881563186646
 11
-0.5222220420837402
 21
0.1192304491996765
  0
LINE
  5
69
100
AcDbEntity
  8
profiling
  6
ByLayer
 62
  256
370
   -1
100
AcDbLine
 10
-0.5222220420837402
 20
0.1192304491996765
 11
-0.522464394569397
 21
0.1194293051958084
  0
LINE
  5
6A
100
AcDbEntity
  8
profiling
  6
ByLayer
 62
  256
370
   -1
100
AcDbLine
 10
-0.522464394569397
 20
0.1194293051958084
 11
-0.5227408409118652
 21
0.1195770800113678
  0
LINE
  5
6B
100
AcDbEntity
  8
profiling
  6
ByLayer
 62
  256
370
   -1
100
AcDbLine
 10
-0.5227408409118652
 20
0.1195770800113678
 11
-0.523040771484375
 21
0.1196680665016174
  0
LINE
  5
6C
100
AcDbEntity
  8
profiling
  6
ByLayer
 62
  256
370
   -1
100
AcDbLine
 10
-0.523040771484375
 20
0.1196680665016174
 11
-0.5233527421951294
 21
0.1196987926959991
  0
LINE
  5
6D
100
AcDbEntity
  8
profiling
  6
ByLayer
 62
  256
370
   -1
100
AcDbLine
 10
-0.5236647129058838
 20
0.1196680665016174
 11
-0.5233527421951294
 21
0.1196987926959991
  0
LINE
  5
6E
100
AcDbEntity
  8
profiling
  6
ByLayer
 62
  256
370
   -1
100
AcDbLine
 10
-0.07734799385070801
 20
0.5701765418052673
 11
-0.07695794105529785
 21
0.5700581669807434
  0
LINE
  5
6F
100
AcDbEntity
  8
profiling
  6
ByLayer
 62
  256
370
   -1
100
AcDbLine
 10
-0.07695794105529785
 20
0.5700581669807434
 11
-0.07655239105224609
 21
0.5700182318687439
  0
LINE
  5
70
100
AcDbEntity
  8
profiling
  6
ByLayer
 62
  256
370
   -1
100
AcDbLine
 10
-0.07655239105224609
 20
0.5700182318687439
 11
-0.07614672183990479
 21
0.5700581669807434
  0
LINE
  5
71
100
AcDbEntity
  8
profiling
  6
ByLayer
 62
  256
370
   -1
100
AcDbLine
 10
-0.07614672183990479
 20
0.5700581669807434
 11
-0.07575678825378418
 21
0.5701765418052673
  0
LINE
  5
72
100
AcDbEntity
  8
profiling
  6
ByLayer
 62
  256
370
   -1
100
AcDbLine
 10
-0.07575678825378418
 20
0.5701765418052673
 11
-0.07539725303649902
 21
0.5703685879707336
  0
LINE
  5
73
100
AcDbEntity
  8
profiling
  6
ByLayer
 62
  256
370
   -1
100
AcDbLine
 10
-0.07539725303649902
 20
0.5703685879707336
 11
-0.07508230209350586
 21
0.5706272125244141
  0
LINE
  5
74
100
AcDbEntity
  8
profiling
  6
ByLayer
 62
  256
370
   -1
100
AcDbLine
 10
-0.07508230209350586
 20
0.5706272125244141
 11
-0.07482373714447021
 21
0.5709421634674072
  0
LINE
  5
75
100
AcDbEntity
  8
profiling
  6
ByLayer
 62
  256
370
   -1
100
AcDbLine
 10
-0.07482373714447021
 20
0.5709421634674072
 11
-0.07463169097900391
 21
0.5713015794754028
  0
LINE
  5
76
100
AcDbEntity
  8
profiling
  6
ByLayer
 62
  256
370
   -1
100
AcDbLine
 10
-0.07463169097900391
 20
0.5713015794754028
 11
-0.07451331615447998
 21
0.571691632270813
  0
LINE
  5
77
100
AcDbEntity
  8
profiling
  6
ByLayer
 62
  256
370
   -1
100
AcDbLine
 10
-0.07451331615447998
 20
0.571691632270813
 11
-0.07447338104248047
 21
0.5720972418785095
  0
LINE
  5
78
100
AcDbEntity
  8
profiling
  6
ByLayer
 62
  256
370
   -1
100
AcDbLine
 10
-0.07447338104248047
 20
0.5720972418785095
 11
-0.07451331615447998
 21
0.5725028514862061
  0
LINE
  5
79
100
AcDbEntity
  8
profiling
  6
ByLayer
 62
  256
370
   -1
100
AcDbLine
 10
-0.07451331615447998
 20
0.5725028514862061
 11
-0.07463169097900391
 21
0.5728927850723267
  0
LINE
  5
7A
100
AcDbEntity
  8
profiling
  6
ByLayer
 62
  256
370
   -1
100
AcDbLine
 10
-0.07463169097900391
 20
0.5728927850723267
 11
-0.07482373714447021
 21
0.573252260684967
  0
LINE
  5
7B
100
AcDbEntity
  8
profiling
  6
ByLayer
 62
  256
370
   -1
100
AcDbLine
 10
-0.07482373714447021
 20
0.573252260684967
 11
-0.07508230209350586
 21
0.573567271232605
  0
LINE
  5
7C
100
AcDbEntity
  8
profiling
  6
ByLayer
 62
  256
370
   -1
100
AcDbLine
 10
-0.07508230209350586
 20
0.573567271232605
 11
-0.07539725303649902
 21
0.5738258361816406
  0
LINE
  5
7D
100
AcDbEntity
  8
profiling
  6
ByLayer
 62
  256
370
   -1
100
AcDbLine
 10
-0.07539725303649902
 20
0.5738258361816406
 11
-0.07558166980743408
 21
0.5739243626594543
  0
LINE
  5
7E
100
AcDbEntity
  8
profiling
  6
ByLayer
 62
  256
370
   -1
100
AcDbLine
 10
-0.07558166980743408
 20
0.5739243626594543
 11
-0.07575678825378418
 21
0.5740179419517517
  0
LINE
  5
7F
100
AcDbEntity
  8
profiling
  6
ByLayer
 62
  256
370
   -1
100
AcDbLine
 10
-0.07575678825378418
 20
0.5740179419517517
 11
-0.07614672183990479
 21
0.5741362571716309
  0
LINE
  5
80
100
AcDbEntity
  8
profiling
  6
ByLayer
 62
  256
370
   -1
100
AcDbLine
 10
-0.07614672183990479
 20
0.5741362571716309
 11
-0.07655239105224609
 21
0.5741761922836304
  0
LINE
  5
81
100
AcDbEntity
  8
profiling
  6
ByLayer
 62
  256
370
   -1
100
AcDbLine
 10
-0.07655239105224609
 20
0.5741761922836304
 11
-0.07695794105529785
 21
0.5741362571716309
  0
LINE
  5
82
100
AcDbEntity
  8
profiling
  6
ByLayer
 62
  256
370
   -1
100
AcDbLine
 10
-0.07695794105529785
 20
0.5741362571716309
 11
-0.07734799385070801
 21
0.5740179419517517
  0
LINE
  5
83
100
AcDbEntity
  8
profiling
  6
ByLayer
 62
  256
370
   -1
100
AcDbLine
 10
-0.07734799385070801
 20
0.5740179419517517
 11
-0.07770740985870361
 21
0.5738258361816406
  0
LINE
  5
84
100
AcDbEntity
  8
profiling
  6
ByLayer
 62
  256
370
   -1
100
AcDbLine
 10
-0.07770740985870361
 20
0.5738258361816406
 11
-0.07802248001098633
 21
0.573567271232605
  0
LINE
  5
85
100
AcDbEntity
  8
profiling
  6
ByLayer
 62
  256
370
   -1
100
AcDbLine
 10
-0.07802248001098633
 20
0.573567271232605
 11
-0.07828092575073242
 21
0.573252260684967
  0
LINE
  5
86
100
AcDbEntity
  8
profiling
  6
ByLayer
 62
  256
370
   -1
100
AcDbLine
 10
-0.07828092575073242
 20
0.573252260684967
 11
-0.07847309112548828
 21
0.5728927850723267
  0
LINE
  5
87
100
AcDbEntity
  8
profiling
  6
ByLayer
 62
  256
370
   -1
100
AcDbLine
 10
-0.07847309112548828
 20
0.5728927850723267
 11
-0.07859134674072266
 21
0.5725028514862061
  0
LINE
  5
88
100
AcDbEntity
  8
profiling
  6
ByLayer
 62
  256
370
   -1
100
AcDbLine
 10
-0.07859134674072266
 20
0.5725028514862061
 11
-0.07863128185272217
 21
0.5720972418785095
  0
LINE
  5
89
100
AcDbEntity
  8
profiling
  6
ByLayer
 62
  256
370
   -1
100
AcDbLine
 10
-0.07863128185272217
 20
0.5720972418785095
 11
-0.07859134674072266
 21
0.571691632270813
  0
LINE
  5
8A
100
AcDbEntity
  8
profiling
  6
ByLayer
 62
  256
370
   -1
100
AcDbLine
 10
-0.07859134674072266
 20
0.571691632270813
 11
-0.07847309112548828
 21
0.5713015794754028
  0
LINE
  5
8B
100
AcDbEntity
  8
profiling
  6
ByLayer
 62
  256
370
   -1
100
AcDbLine
 10
-0.07847309112548828
 20
0.5713015794754028
 11
-0.07828092575073242
 21
0.5709421634674072
  0
LINE
  5
8C
100
AcDbEntity
  8
profiling
  6
ByLayer
 62
  256
370
   -1
100
AcDbLine
 10
-0.07828092575073242
 20
0.5709421634674072
 11
-0.07802248001098633
 21
0.5706272125244141
  0
LINE
  5
8D
100
AcDbEntity
  8
profiling
  6
ByLayer
 62
  256
370
   -1
100
AcDbLine
 10
-0.07802248001098633
 20
0.5706272125244141
 11
-0.07770740985870361
 21
0.5703685879707336
  0
LINE
  5
8E
100
AcDbEntity
  8
profiling
  6
ByLayer
 62
  256
370
   -1
100
AcDbLine
 10
-0.07734799385070801
 20
0.5701765418052673
 11
-0.07770740985870361
 21
0.5703685879707336
  0
LINE
  5
8F
100
AcDbEntity
  8
profiling
  6
ByLayer
 62
  256
370
   -1
100
AcDbLine
 10
-0.2957074344158173
 20
0.5703685879707336
 11
-0.2953480184078217
 21
0.5701765418052673
  0
LINE
  5
90
100
AcDbEntity
  8
profiling
  6
ByLayer
 62
  256
370
   -1
100
AcDbLine
 10
-0.2953480184078217
 20
0.5701765418052673
 11
-0.2949579656124115
 21
0.5700581669807434
  0
LINE
  5
91
100
AcDbEntity
  8
profiling
  6
ByLayer
 62
  256
370
   -1
100
AcDbLine
 10
-0.2949579656124115
 20
0.5700581669807434
 11
-0.294552356004715
 21
0.5700182318687439
  0
LINE
  5
92
100
AcDbEntity
  8
profiling
  6
ByLayer
 62
  256
370
   -1
100
AcDbLine
 10
-0.294552356004715
 20
0.5700182318687439
 11
-0.2941467463970184
 21
0.5700581669807434
  0
LINE
  5
93
100
AcDbEntity
  8
profiling
  6
ByLayer
 62
  256
370
   -1
100
AcDbLine
 10
-0.2941467463970184
 20
0.5700581669807434
 11
-0.2937567532062531
 21
0.5701765418052673
  0
LINE
  5
94
100
AcDbEntity
  8
profiling
  6
ByLayer
 62
  256
370
   -1
100
AcDbLine
 10
-0.2937567532062531
 20
0.5701765418052673
 11
-0.2933973371982574
 21
0.5703685879707336
  0
LINE
  5
95
100
AcDbEntity
  8
profiling
  6
ByLayer
 62
  256
370
   -1
100
AcDbLine
 10
-0.2933973371982574
 20
0.5703685879707336
 11
-0.2930822670459747
 21
0.5706272125244141
  0
LINE
  5
96
100
AcDbEntity
  8
profiling
  6
ByLayer
 62
  256
370
   -1
100
AcDbLine
 10
-0.2930822670459747
 20
0.5706272125244141
 11
-0.2928237617015839
 21
0.5709421634674072
  0
LINE
  5
97
100
AcDbEntity
  8
profiling
  6
ByLayer
 62
  256
370
   -1
100
AcDbLine
 10
-0.2928237617015839
 20
0.5709421634674072
 11
-0.2926316559314728
 21
0.5713015794754028
  0
LINE
  5
98
100
AcDbEntity
  8
profiling
  6
ByLayer
 62
  256
370
   -1
100
AcDbLine
 10
-0.2926316559314728
 20
0.5713015794754028
 11
-0.2925133407115936
 21
0.571691632270813
  0
LINE
  5
99
100
AcDbEntity
  8
profiling
  6
ByLayer
 62
  256
370
   -1
100
AcDbLine
 10
-0.2925133407115936
 20
0.571691632270813
 11
-0.2924890220165253
 21
0.5719378590583801
  0
LINE
  5
9A
100
AcDbEntity
  8
profiling
  6
ByLayer
 62
  256
370
   -1
100
AcDbLine
 10
-0.2924890220165253
 20
0.5719378590583801
 11
-0.2924733459949493
 21
0.5720972418785095
  0
LINE
  5
9B
100
AcDbEntity
  8
profiling
  6
ByLayer
 62
  256
370
   -1
100
AcDbLine
 10
-0.2924733459949493
 20
0.5720972418785095
 11
-0.2925133407115936
 21
0.5725028514862061
  0
LINE
  5
9C
100
AcDbEntity
  8
profiling
  6
ByLayer
 62
  256
370
   -1
100
AcDbLine
 10
-0.2925133407115936
 20
0.5725028514862061
 11
-0.2926316559314728
 21
0.5728927850723267
  0
LINE
  5
9D
100
AcDbEntity
  8
profiling
  6
ByLayer
 62
  256
370
   -1
100
AcDbLine
 10
-0.2926316559314728
 20
0.5728927850723267
 11
-0.2928237617015839
 21
0.573252260684967
  0
LINE
  5
9E
100
AcDbEntity
  8
profiling
  6
ByLayer
 62
  256
370
   -1
100
AcDbLine
 10
-0.2928237617015839
 20
0.573252260684967
 11
-0.2930822670459747
 21
0.573567271232605
  0
LINE
  5
9F
100
AcDbEntity
  8
profiling
  6
ByLayer
 62
  256
370
   -1
100
AcDbLine
 10
-0.2930822670459747
 20
0.573567271232605
 11
-0.2933973371982574
 21
0.5738258361816406
  0
LINE
  5
A0
100
AcDbEntity
  8
profiling
  6
ByLayer
 62
  256
370
   -1
100
AcDbLine
 10
-0.2933973371982574
 20
0.5738258361816406
 11
-0.2937567532062531
 21
0.5740179419517517
  0
LINE
  5
A1
100
AcDbEntity
  8
profiling
  6
ByLayer
 62
  256
370
   -1
100
AcDbLine
 10
-0.2937567532062531
 20
0.5740179419517517
 11
-0.2941467463970184
 21
0.5741362571716309
  0
LINE
  5
A2
100
AcDbEntity
  8
profiling
  6
ByLayer
 62
  256
370
   -1
100
AcDbLine
 10
-0.2941467463970184
 20
0.5741362571716309
 11
-0.294552356004715
 21
0.5741761922836304
  0
LINE
  5
A3
100
AcDbEntity
  8
profiling
  6
ByLayer
 62
  256
370
   -1
100
AcDbLine
 10
-0.294552356004715
 20
0.5741761922836304
 11
-0.2949579656124115
 21
0.5741362571716309
  0
LINE
  5
A4
100
AcDbEntity
  8
profiling
  6
ByLayer
 62
  256
370
   -1
100
AcDbLine
 10
-0.2949579656124115
 20
0.5741362571716309
 11
-0.2953480184078217
 21
0.5740179419517517
  0
LINE
  5
A5
100
AcDbEntity
  8
profiling
  6
ByLayer
 62
  256
370
   -1
100
AcDbLine
 10
-0.2953480184078217
 20
0.5740179419517517
 11
-0.2957074344158173
 21
0.5738258361816406
  0
LINE
  5
A6
100
AcDbEntity
  8
profiling
  6
ByLayer
 62
  256
370
   -1
100
AcDbLine
 10
-0.2957074344158173
 20
0.5738258361816406
 11
-0.2960224449634552
 21
0.573567271232605
  0
LINE
  5
A7
100
AcDbEntity
  8
profiling
  6
ByLayer
 62
  256
370
   -1
100
AcDbLine
 10
-0.2960224449634552
 20
0.573567271232605
 11
-0.2962810099124908
 21
0.573252260684967
  0
LINE
  5
A8
100
AcDbEntity
  8
profiling
  6
ByLayer
 62
  256
370
   -1
100
AcDbLine
 10
-0.2962810099124908
 20
0.573252260684967
 11
-0.2964730560779572
 21
0.5728927850723267
  0
LINE
  5
A9
100
AcDbEntity
  8
profiling
  6
ByLayer
 62
  256
370
   -1
100
AcDbLine
 10
-0.2964730560779572
 20
0.5728927850723267
 11
-0.2965913712978363
 21
0.5725028514862061
  0
LINE
  5
AA
100
AcDbEntity
  8
profiling
  6
ByLayer
 62
  256
370
   -1
100
AcDbLine
 10
-0.2965913712978363
 20
0.5725028514862061
 11
-0.2966313660144806
 21
0.5720972418785095
  0
LINE
  5
AB
100
AcDbEntity
  8
profiling
  6
ByLayer
 62
  256
370
   -1
100
AcDbLine
 10
-0.2966313660144806
 20
0.5720972418785095
 11
-0.2965913712978363
 21
0.571691632270813
  0
LINE
  5
AC
100
AcDbEntity
  8
profiling
  6
ByLayer
 62
  256
370
   -1
100
AcDbLine
 10
-0.2965913712978363
 20
0.571691632270813
 11
-0.2964730560779572
 21
0.5713015794754028
  0
LINE
  5
AD
100
AcDbEntity
  8
profiling
  6
ByLayer
 62
  256
370
   -1
100
AcDbLine
 10
-0.2964730560779572
 20
0.5713015794754028
 11
-0.2962810099124908
 21
0.5709421634674072
  0
LINE
  5
AE
100
AcDbEntity
  8
profiling
  6
ByLayer
 62
  256
370
   -1
100
AcDbLine
 10
-0.2962810099124908
 20
0.5709421634674072
 11
-0.2960224449634552
 21
0.5706272125244141
  0
LINE
  5
AF
100
AcDbEntity
  8
profiling
  6
ByLayer
 62
  256
370
   -1
100
AcDbLine
 10
-0.2957074344158173
 20
0.5703685879707336
 11
-0.2960224449634552
 21
0.5706272125244141
  0
LINE
  5
B0
100
AcDbEntity
  8
profiling
  6
ByLayer
 62
  256
370
   -1
100
AcDbLine
 10
-0.5137073993682861
 20
0.5738258361816406
 11
-0.5140224695205688
 21
0.573567271232605
  0
LINE
  5
B1
100
AcDbEntity
  8
profiling
  6
ByLayer
 62
  256
370
   -1
100
AcDbLine
 10
-0.5140224695205688
 20
0.573567271232605
 11
-0.5141818523406982
 21
0.5733730792999268
  0
LINE
  5
B2
100
AcDbEntity
  8
profiling
  6
ByLayer
 62
  256
370
   -1
100
AcDbLine
 10
-0.5141818523406982
 20
0.5733730792999268
 11
-0.5142810344696045
 21
0.573252260684967
  0
LINE
  5
B3
100
AcDbEntity
  8
profiling
  6
ByLayer
 62
  256
370
   -1
100
AcDbLine
 10
-0.5142810344696045
 20
0.573252260684967
 11
-0.5144031047821045
 21
0.5730236768722534
  0
LINE
  5
B4
100
AcDbEntity
  8
profiling
  6
ByLayer
 62
  256
370
   -1
100
AcDbLine
 10
-0.5144031047821045
 20
0.5730236768722534
 11
-0.5144730806350708
 21
0.5728927850723267
  0
LINE
  5
B5
100
AcDbEntity
  8
profiling
  6
ByLayer
 62
  256
370
   -1
100
AcDbLine
 10
-0.5144730806350708
 20
0.5728927850723267
 11
-0.5145913362503052
 21
0.5725028514862061
  0
LINE
  5
B6
100
AcDbEntity
  8
profiling
  6
ByLayer
 62
  256
370
   -1
100
AcDbLine
 10
-0.5145913362503052
 20
0.5725028514862061
 11
-0.5146313905715942
 21
0.5720972418785095
  0
LINE
  5
B7
100
AcDbEntity
  8
profiling
  6
ByLayer
 62
  256
370
   -1
100
AcDbLine
 10
-0.5146313905715942
 20
0.5720972418785095
 11
-0.5145913362503052
 21
0.571691632270813
  0
LINE
  5
B8
100
AcDbEntity
  8
profiling
  6
ByLayer
 62
  256
370
   -1
100
AcDbLine
 10
-0.5145913362503052
 20
0.571691632270813
 11
-0.5145537853240967
 21
0.5715676546096802
  0
LINE
  5
B9
100
AcDbEntity
  8
profiling
  6
ByLayer
 62
  256
370
   -1
100
AcDbLine
 10
-0.5145537853240967
 20
0.5715676546096802
 11
-0.5144730806350708
 21
0.5713015794754028
  0
LINE
  5
BA
100
AcDbEntity
  8
profiling
  6
ByLayer
 62
  256
370
   -1
100
AcDbLine
 10
-0.5144730806350708
 20
0.5713015794754028
 11
-0.5143598318099976
 21
0.5710896849632263
  0
LINE
  5
BB
100
AcDbEntity
  8
profiling
  6
ByLayer
 62
  256
370
   -1
100
AcDbLine
 10
-0.5143598318099976
 20
0.5710896849632263
 11
-0.5142810344696045
 21
0.5709421634674072
  0
LINE
  5
BC
100
AcDbEntity
  8
profiling
  6
ByLayer
 62
  256
370
   -1
100
AcDbLine
 10
-0.5142810344696045
 20
0.5709421634674072
 11
-0.5140224695205688
 21
0.5706272125244141
  0
LINE
  5
BD
100
AcDbEntity
  8
profiling
  6
ByLayer
 62
  256
370
   -1
100
AcDbLine
 10
-0.5140224695205688
 20
0.5706272125244141
 11
-0.5137073993682861
 21
0.5703685879707336
  0
LINE
  5
BE
100
AcDbEntity
  8
profiling
  6
ByLayer
 62
  256
370
   -1
100
AcDbLine
 10
-0.5137073993682861
 20
0.5703685879707336
 11
-0.5133479833602905
 21
0.5701765418052673
  0
LINE
  5
BF
100
AcDbEntity
  8
profiling
  6
ByLayer
 62
  256
370
   -1
100
AcDbLine
 10
-0.5133479833602905
 20
0.5701765418052673
 11
-0.5129579305648804
 21
0.5700581669807434
  0
LINE
  5
C0
100
AcDbEntity
  8
profiling
  6
ByLayer
 62
  256
370
   -1
100
AcDbLine
 10
-0.5129579305648804
 20
0.5700581669807434
 11
-0.5125523805618286
 21
0.5700182318687439
  0
LINE
  5
C1
100
AcDbEntity
  8
profiling
  6
ByLayer
 62
  256
370
   -1
100
AcDbLine
 10
-0.5125523805618286
 20
0.5700182318687439
 11
-0.5121468305587769
 21
0.5700581669807434
  0
LINE
  5
C2
100
AcDbEntity
  8
profiling
  6
ByLayer
 62
  256
370
   -1
100
AcDbLine
 10
-0.5121468305587769
 20
0.5700581669807434
 11
-0.5117567777633667
 21
0.5701765418052673
  0
LINE
  5
C3
100
AcDbEntity
  8
profiling
  6
ByLayer
 62
  256
370
   -1
100
AcDbLine
 10
-0.5117567777633667
 20
0.5701765418052673
 11
-0.5113973617553711
 21
0.5703685879707336
  0
LINE
  5
C4
100
AcDbEntity
  8
profiling
  6
ByLayer
 62
  256
370
   -1
100
AcDbLine
 10
-0.5113973617553711
 20
0.5703685879707336
 11
-0.5110822916030884
 21
0.5706272125244141
  0
LINE
  5
C5
100
AcDbEntity
  8
profiling
  6
ByLayer
 62
  256
370
   -1
100
AcDbLine
 10
-0.5110822916030884
 20
0.5706272125244141
 11
-0.5108237266540527
 21
0.5709421634674072
  0
LINE
  5
C6
100
AcDbEntity
  8
profiling
  6
ByLayer
 62
  256
370
   -1
100
AcDbLine
 10
-0.5108237266540527
 20
0.5709421634674072
 11
-0.5107449293136597
 21
0.5710896849632263
  0
LINE
  5
C7
100
AcDbEntity
  8
profiling
  6
ByLayer
 62
  256
370
   -1
100
AcDbLine
 10
-0.5107449293136597
 20
0.5710896849632263
 11
-0.5106316804885864
 21
0.5713015794754028
  0
LINE
  5
C8
100
AcDbEntity
  8
profiling
  6
ByLayer
 62
  256
370
   -1
100
AcDbLine
 10
-0.5106316804885864
 20
0.5713015794754028
 11
-0.5105134248733521
 21
0.571691632270813
  0
LINE
  5
C9
100
AcDbEntity
  8
profiling
  6
ByLayer
 62
  256
370
   -1
100
AcDbLine
 10
-0.5105134248733521
 20
0.571691632270813
 11
-0.510473370552063
 21
0.5720972418785095
  0
LINE
  5
CA
100
AcDbEntity
  8
profiling
  6
ByLayer
 62
  256
370
   -1
100
AcDbLine
 10
-0.510473370552063
 20
0.5720972418785095
 11
-0.5105133056640625
 21
0.5725028514862061
  0
LINE
  5
CB
100
AcDbEntity
  8
profiling
  6
ByLayer
 62
  256
370
   -1
100
AcDbLine
 10
-0.5105133056640625
 20
0.5725028514862061
 11
-0.5106316804885864
 21
0.5728927850723267
  0
LINE
  5
CC
100
AcDbEntity
  8
profiling
  6
ByLayer
 62
  256
370
   -1
100
AcDbLine
 10
-0.5106316804885864
 20
0.5728927850723267
 11
-0.5108237266540527
 21
0.573252260684967
  0
LINE
  5
CD
100
AcDbEntity
  8
profiling
  6
ByLayer
 62
  256
370
   -1
100
AcDbLine
 10
-0.5108237266540527
 20
0.573252260684967
 11
-0.5110822916030884
 21
0.573567271232605
  0
LINE
  5
CE
100
AcDbEntity
  8
profiling
  6
ByLayer
 62
  256
370
   -1
100
AcDbLine
 10
-0.5110822916030884
 20
0.573567271232605
 11
-0.5113973617553711
 21
0.5738258361816406
  0
LINE
  5
CF
100
AcDbEntity
  8
profiling
  6
ByLayer
 62
  256
370
   -1
100
AcDbLine
 10
-0.5113973617553711
 20
0.5738258361816406
 11
-0.5117567777633667
 21
0.5740179419517517
  0
LINE
  5
D0
100
AcDbEntity
  8
profiling
  6
ByLayer
 62
  256
370
   -1
100
AcDbLine
 10
-0.5117567777633667
 20
0.5740179419517517
 11
-0.5121468305587769
 21
0.5741362571716309
  0
LINE
  5
D1
100
AcDbEntity
  8
profiling
  6
ByLayer
 62
  256
370
   -1
100
AcDbLine
 10
-0.5121468305587769
 20
0.5741362571716309
 11
-0.5125523805618286
 21
0.5741761922836304
  0
LINE
  5
D2
100
AcDbEntity
  8
profiling
  6
ByLayer
 62
  256
370
   -1
100
AcDbLine
 10
-0.5125523805618286
 20
0.5741761922836304
 11
-0.5129579305648804
 21
0.5741362571716309
  0
LINE
  5
D3
100
AcDbEntity
  8
profiling
  6
ByLayer
 62
  256
370
   -1
100
AcDbLine
 10
-0.5129579305648804
 20
0.5741362571716309
 11
-0.5131797790527344
 21
0.5740690231323242
  0
LINE
  5
D4
100
AcDbEntity
  8
profiling
  6
ByLayer
 62
  256
370
   -1
100
AcDbLine
 10
-0.5131797790527344
 20
0.5740690231323242
 11
-0.5133479833602905
 21
0.5740179419517517
  0
LINE
  5
D5
100
AcDbEntity
  8
profiling
  6
ByLayer
 62
  256
370
   -1
100
AcDbLine
 10
-0.5137073993682861
 20
0.5738258361816406
 11
-0.5133479833602905
 21
0.5740179419517517
  0
LINE
  5
D6
100
AcDbEntity
  8
profiling
  6
ByLayer
 62
  256
370
   -1
100
AcDbLine
 10
-0.0607903003692627
 20
0.294488251209259
 11
-0.06177866458892822
 21
0.2891799509525299
  0
LINE
  5
D7
100
AcDbEntity
  8
profiling
  6
ByLayer
 62
  256
370
   -1
100
AcDbLine
 10
-0.06177866458892822
 20
0.2891799509525299
 11
-0.0628969669342041
 21
0.2838975489139557
  0
LINE
  5
D8
100
AcDbEntity
  8
profiling
  6
ByLayer
 62
  256
370
   -1
100
AcDbLine
 10
-0.0628969669342041
 20
0.2838975489139557
 11
-0.06414449214935303
 21
0.2786441445350647
  0
LINE
  5
D9
100
AcDbEntity
  8
profiling
  6
ByLayer
 62
  256
370
   -1
100
AcDbLine
 10
-0.06414449214935303
 20
0.2786441445350647
 11
-0.06552064418792725
 21
0.2734229564666748
  0
LINE
  5
DA
100
AcDbEntity
  8
profiling
  6
ByLayer
 62
  256
370
   -1
100
AcDbLine
 10
-0.06552064418792725
 20
0.2734229564666748
 11
-0.0670245885848999
 21
0.2682371139526367
  0
LINE
  5
DB
100
AcDbEntity
  8
profiling
  6
ByLayer
 62
  256
370
   -1
100
AcDbLine
 10
-0.0670245885848999
 20
0.2682371139526367
 11
-0.06865525245666504
 21
0.2630897164344788
  0
LINE
  5
DC
100
AcDbEntity
  8
profiling
  6
ByLayer
 62
  256
370
   -1
100
AcDbLine
 10
-0.06865525245666504
 20
0.2630897164344788
 11
-0.07041168212890625
 21
0.2579838931560516
  0
LINE
  5
DD
100
AcDbEntity
  8
profiling
  6
ByLayer
 62
  256
370
   -1
100
AcDbLine
 10
-0.07041168212890625
 20
0.2579838931560516
 11
-0.07229304313659668
 21
0.2529227733612061
  0
LINE
  5
DE
100
AcDbEntity
  8
profiling
  6
ByLayer
 62
  256
370
   -1
100
AcDbLine
 10
-0.07229304313659668
 20
0.2529227733612061
 11
-0.07429802417755127
 21
0.247909277677536
  0
LINE
  5
DF
100
AcDbEntity
  8
profiling
  6
ByLayer
 62
  256
370
   -1
100
AcDbLine
 10
-0.07429802417755127
 20
0.247909277677536
 11
-0.07642531394958496
 21
0.242946520447731
  0
LINE
  5
E0
100
AcDbEntity
  8
profiling
  6
ByLayer
 62
  256
370
   -1
100
AcDbLine
 10
-0.07642531394958496
 20
0.242946520447731
 11
-0.0786738395690918
 21
0.2380374819040298
  0
LINE
  5
E1
100
AcDbEntity
  8
profiling
  6
ByLayer
 62
  256
370
   -1
100
AcDbLine
 10
-0.0786738395690918
 20
0.2380374819040298
 11
-0.08104217052459717
 21
0.2331850677728653
  0
LINE
  5
E2
100
AcDbEntity
  8
profiling
  6
ByLayer
 62
  256
370
   -1
100
AcDbLine
 10
-0.08104217052459717
 20
0.2331850677728653
 11
-0.08352875709533691
 21
0.2283922880887985
  0
LINE
  5
E3
100
AcDbEntity
  8
profiling
  6
ByLayer
 62
  256
370
   -1
100
AcDbLine
 10
-0.08352875709533691
 20
0.2283922880887985
 11
-0.08613240718841553
 21
0.2236619144678116
  0
LINE
  5
E4
100
AcDbEntity
  8
profiling
  6
ByLayer
 62
  256
370
   -1
100
AcDbLine
 10
-0.08613240718841553
 20
0.2236619144678116
 11
-0.0888512134552002
 21
0.2189969122409821
  0
LINE
  5
E5
100
AcDbEntity
  8
profiling
  6
ByLayer
 62
  256
370
   -1
100
AcDbLine
 10
-0.0888512134552002
 20
0.2189969122409821
 11
-0.09168374538421631
 21
0.2144000232219696
  0
LINE
  5
E6
100
AcDbEntity
  8
profiling
  6
ByLayer
 62
  256
370
   -1
100
AcDbLine
 10
-0.09168374538421631
 20
0.2144000232219696
 11
-0.09462821483612061
 21
0.2098740041255951
  0
LINE
  5
E7
100
AcDbEntity
  8
profiling
  6
ByLayer
 62
  256
370
   -1
100
AcDbLine
 10
-0.09462821483612061
 20
0.2098740041255951
 11
-0.09768283367156982
 21
0.205421656370163
  0
LINE
  5
E8
100
AcDbEntity
  8
profiling
  6
ByLayer
 62
  256
370
   -1
100
AcDbLine
 10
-0.09768283367156982
 20
0.205421656370163
 11
-0.1008459329605103
 21
0.2010456025600433
  0
LINE
  5
E9
100
AcDbEntity
  8
profiling
  6
ByLayer
 62
  256
370
   -1
100
AcDbLine
 10
-0.1008459329605103
 20
0.2010456025600433
 11
-0.10411536693573
 21
0.1967484503984451
  0
LINE
  5
EA
100
AcDbEntity
  8
profiling
  6
ByLayer
 62
  256
370
   -1
100
AcDbLine
 10
-0.10411536693573
 20
0.1967484503984451
 11
-0.1074893474578857
 21
0.1925328820943832
  0
LINE
  5
EB
100
AcDbEntity
  8
profiling
  6
ByLayer
 62
  256
370
   -1
100
AcDbLine
 10
-0.1074893474578857
 20
0.1925328820943832
 11
-0.1109656095504761
 21
0.1884013414382935
  0
LINE
  5
EC
100
AcDbEntity
  8
profiling
  6
ByLayer
 62
  256
370
   -1
100
AcDbLine
 10
-0.1109656095504761
 20
0.1884013414382935
 11
-0.1145423650741577
 21
0.1843563616275787
  0
LINE
  5
ED
100
AcDbEntity
  8
profiling
  6
ByLayer
 62
  256
370
   -1
100
AcDbLine
 10
-0.1145423650741577
 20
0.1843563616275787
 11
-0.1182173490524292
 21
0.1804004013538361
  0
LINE
  5
EE
100
AcDbEntity
  8
profiling
  6
ByLayer
 62
  256
370
   -1
100
AcDbLine
 10
-0.1182173490524292
 20
0.1804004013538361
 11
-0.1219881772994995
 21
0.1765358299016953
  0
LINE
  5
EF
100
AcDbEntity
  8
profiling
  6
ByLayer
 62
  256
370
   -1
100
AcDbLine
 10
-0.1219881772994995
 20
0.1765358299016953
 11
-0.1258528232574463
 21
0.172764927148819
  0
LINE
  5
F0
100
AcDbEntity
  8
profiling
  6
ByLayer
 62
  256
370
   -1
100
AcDbLine
 10
-0.1258528232574463
 20
0.172764927148819
 11
-0.129808783531189
 21
0.1690900325775146
  0
LINE
  5
F1
100
AcDbEntity
  8
profiling
  6
ByLayer
 62
  256
370
   -1
100
AcDbLine
 10
-0.129808783531189
 20
0.1690900325775146
 11
-0.1338536739349365
 21
0.1655133217573166
  0
LINE
  5
F2
100
AcDbEntity
  8
profiling
  6
ByLayer
 62
  256
370
   -1
100
AcDbLine
 10
-0.1338536739349365
 20
0.1655133217573166
 11
-0.1379852294921875
 21
0.1620369553565979
  0
LINE
  5
F3
100
AcDbEntity
  8
profiling
  6
ByLayer
 62
  256
370
   -1
100
AcDbLine
 10
-0.1379852294921875
 20
0.1620369553565979
 11
-0.1422008275985718
 21
0.1586630195379257
  0
LINE
  5
F4
100
AcDbEntity
  8
profiling
  6
ByLayer
 62
  256
370
   -1
100
AcDbLine
 10
-0.1422008275985718
 20
0.1586630195379257
 11
-0.1464979648590088
 21
0.1553935706615448
  0
LINE
  5
F5
100
AcDbEntity
  8
profiling
  6
ByLayer
 62
  256
370
   -1
100
AcDbLine
 10
-0.1464979648590088
 20
0.1553935706615448
 11
-0.1508740186691284
 21
0.1522305458784103
  0
LINE
  5
F6
100
AcDbEntity
  8
profiling
  6
ByLayer
 62
  256
370
   -1
100
AcDbLine
 10
-0.1508740186691284
 20
0.1522305458784103
 11
-0.1553263664245605
 21
0.1491758823394775
  0
LINE
  5
F7
100
AcDbEntity
  8
profiling
  6
ByLayer
 62
  256
370
   -1
100
AcDbLine
 10
-0.1553263664245605
 20
0.1491758823394775
 11
-0.1598523855209351
 21
0.146231397986412
  0
LINE
  5
F8
100
AcDbEntity
  8
profiling
  6
ByLayer
 62
  256
370
   -1
100
AcDbLine
 10
-0.1598523855209351
 20
0.146231397986412
 11
-0.1644492149353027
 21
0.1433988809585571
  0
LINE
  5
F9
100
AcDbEntity
  8
profiling
  6
ByLayer
 62
  256
370
   -1
100
AcDbLine
 10
-0.1644492149353027
 20
0.1433988809585571
 11
-0.169114351272583
 21
0.1406800299882889
  0
LINE
  5
FA
100
AcDbEntity
  8
profiling
  6
ByLayer
 62
  256
370
   -1
100
AcDbLine
 10
-0.169114351272583
 20
0.1406800299882889
 11
-0.173844575881958
 21
0.1380764544010162
  0
LINE
  5
FB
100
AcDbEntity
  8
profiling
  6
ByLayer
 62
  256
370
   -1
100
AcDbLine
 10
-0.173844575881958
 20
0.1380764544010162
 11
-0.1786375045776367
 21
0.1355897784233093
  0
LINE
  5
FC
100
AcDbEntity
  8
profiling
  6
ByLayer
 62
  256
370
   -1
100
AcDbLine
 10
-0.1786375045776367
 20
0.1355897784233093
 11
-0.1834897994995117
 21
0.1332214623689651
  0
LINE
  5
FD
100
AcDbEntity
  8
profiling
  6
ByLayer
 62
  256
370
   -1
100
AcDbLine
 10
-0.1834897994995117
 20
0.1332214623689651
 11
-0.1883988380432129
 21
0.1309729665517807
  0
LINE
  5
FE
100
AcDbEntity
  8
profiling
  6
ByLayer
 62
  256
370
   -1
100
AcDbLine
 10
-0.1883988380432129
 20
0.1309729665517807
 11
-0.1933616399765015
 21
0.128845602273941
  0
LINE
  5
FF
100
AcDbEntity
  8
profiling
  6
ByLayer
 62
  256
370
   -1
100
AcDbLine
 10
-0.1933616399765015
 20
0.128845602273941
 11
-0.1983751058578491
 21
0.12684066593647
  0
LINE
  5
100
100
AcDbEntity
  8
profiling
  6
ByLayer
 62
  256
370
   -1
100
AcDbLine
 10
-0.1983751058578491
 20
0.12684066593647
 11
-0.2034362554550171
 21
0.1249593943357468
  0
LINE
  5
101
100
AcDbEntity
  8
profiling
  6
ByLayer
 62
  256
370
   -1
100
AcDbLine
 10
-0.2034362554550171
 20
0.1249593943357468
 11
-0.2085421085357666
 21
0.1232028752565384
  0
LINE
  5
102
100
AcDbEntity
  8
profiling
  6
ByLayer
 62
  256
370
   -1
100
AcDbLine
 10
-0.2085421085357666
 20
0.1232028752565384
 11
-0.2136894464492798
 21
0.1215721964836121
  0
LINE
  5
103
100
AcDbEntity
  8
profiling
  6
ByLayer
 62
  256
370
   -1
100
AcDbLine
 10
-0.2136894464492798
 20
0.1215721964836121
 11
-0.2188752889633179
 21
0.1200683414936066
  0
LINE
  5
104
100
AcDbEntity
  8
profiling
  6
ByLayer
 62
  256
370
   -1
100
AcDbLine
 10
-0.2188752889633179
 20
0.1200683414936066
 11
-0.2240965366363525
 21
0.1186921745538712
  0
LINE
  5
105
100
AcDbEntity
  8
profiling
  6
ByLayer
 62
  256
370
   -1
100
AcDbLine
 10
-0.2240965366363525
 20
0.1186921745538712
 11
-0.2293499708175659
 21
0.1174445748329163
  0
LINE
  5
106
100
AcDbEntity
  8
profiling
  6
ByLayer
 62
  256
370
   -1
100
AcDbLine
 10
-0.2293499708175659
 20
0.1174445748329163
 11
-0.2346323728561401
 21
0.1163263022899628
  0
LINE
  5
107
100
AcDbEntity
  8
profiling
  6
ByLayer
 62
  256
370
   -1
100
AcDbLine
 10
-0.2346323728561401
 20
0.1163263022899628
 11
-0.2399406433105469
 21
0.1153379380702972
  0
LINE
  5
108
100
AcDbEntity
  8
profiling
  6
ByLayer
 62
  256
370
   -1
100
AcDbLine
 10
-0.2399406433105469
 20
0.1153379380702972
 11
-0.2452715635299683
 21
0.114480197429657
  0
LINE
  5
109
100
AcDbEntity
  8
profiling
  6
ByLayer
 62
  256
370
   -1
100
AcDbLine
 10
-0.2452715635299683
 20
0.114480197429657
 11
-0.2506219148635864
 21
0.1137535274028778
  0
LINE
  5
10A
100
AcDbEntity
  8
profiling
  6
ByLayer
 62
  256
370
   -1
100
AcDbLine
 10
-0.2506219148635864
 20
0.1137535274028778
 11
-0.255988597869873
 21
0.1131583899259567
  0
LINE
  5
10B
100
AcDbEntity
  8
profiling
  6
ByLayer
 62
  256
370
   -1
100
AcDbLine
 10
-0.255988597869873
 20
0.1131583899259567
 11
-0.2613681554794312
 21
0.1126951277256012
  0
LINE
  5
10C
100
AcDbEntity
  8
profiling
  6
ByLayer
 62
  256
370
   -1
100
AcDbLine
 10
-0.2613681554794312
 20
0.1126951277256012
 11
-0.2667574882507324
 21
0.1123640239238739
  0
LINE
  5
10D
100
AcDbEntity
  8
profiling
  6
ByLayer
 62
  256
370
   -1
100
AcDbLine
 10
-0.2667574882507324
 20
0.1123640239238739
 11
-0.2721532583236694
 21
0.1121652871370316
  0
LINE
  5
10E
100
AcDbEntity
  8
profiling
  6
ByLayer
 62
  256
370
   -1
100
AcDbLine
 10
-0.2721532583236694
 20
0.1121652871370316
 11
-0.2775523662567139
 21
0.1120990216732025
  0
LINE
  5
10F
100
AcDbEntity
  8
profiling
  6
ByLayer
 62
  256
370
   -1
100
AcDbLine
 10
-0.2775523662567139
 20
0.1120990216732025
 11
-0.5325531959533691
 21
0.1120994687080383
  0
LINE
  5
110
100
AcDbEntity
  8
profiling
  6
ByLayer
 62
  256
370
   -1
100
AcDbLine
 10
-0.5325531959533691
 20
0.1120994687080383
 11
-0.5325534343719482
 21
0.5821000337600708
  0
LINE
  5
111
100
AcDbEntity
  8
profiling
  6
ByLayer
 62
  256
370
   -1
100
AcDbLine
 10
-0.5325534343719482
 20
0.5821000337600708
 11
-0.05755233764648438
 21
0.582101047039032
  0
LINE
  5
112
100
AcDbEntity
  8
profiling
  6
ByLayer
 62
  256
370
   -1
100
AcDbLine
 10
-0.05755233764648438
 20
0.582101047039032
 11
-0.05755138397216797
 21
0.3321000337600708
  0
LINE
  5
113
100
AcDbEntity
  8
profiling
  6
ByLayer
 62
  256
370
   -1
100
AcDbLine
 10
-0.05755138397216797
 20
0.3321000337600708
 11
-0.0576176643371582
 21
0.3267009258270264
  0
LINE
  5
114
100
AcDbEntity
  8
profiling
  6
ByLayer
 62
  256
370
   -1
100
AcDbLine
 10
-0.0576176643371582
 20
0.3267009258270264
 11
-0.05781638622283936
 21
0.3213050961494446
  0
LINE
  5
115
100
AcDbEntity
  8
profiling
  6
ByLayer
 62
  256
370
   -1
100
AcDbLine
 10
-0.05781638622283936
 20
0.3213050961494446
 11
-0.05814743041992188
 21
0.3159157633781433
  0
LINE
  5
116
100
AcDbEntity
  8
profiling
  6
ByLayer
 62
  256
370
   -1
100
AcDbLine
 10
-0.05814743041992188
 20
0.3159157633781433
 11
-0.05861067771911621
 21
0.3105361759662628
  0
LINE
  5
117
100
AcDbEntity
  8
profiling
  6
ByLayer
 62
  256
370
   -1
100
AcDbLine
 10
-0.05861067771911621
 20
0.3105361759662628
 11
-0.05920588970184326
 21
0.3051695227622986
  0
LINE
  5
118
100
AcDbEntity
  8
profiling
  6
ByLayer
 62
  256
370
   -1
100
AcDbLine
 10
-0.05920588970184326
 20
0.3051695227622986
 11
-0.05993247032165527
 21
0.2998191714286804
  0
LINE
  5
119
100
AcDbEntity
  8
profiling
  6
ByLayer
 62
  256
370
   -1
100
AcDbLine
 10
-0.0607903003692627
 20
0.294488251209259
 11
-0.05993247032165527
 21
0.2998191714286804
  0
LINE
  5
11A
100
AcDbEntity
  8
profiling
  6
ByLayer
 62
  256
370
   -1
100
AcDbLine
 10
-1.023913860321045
 20
0.3051695227622986
 11
-1.024508953094482
 21
0.3105361461639404
  0
LINE
  5
11B
100
AcDbEntity
  8
profiling
  6
ByLayer
 62
  256
370
   -1
100
AcDbLine
 10
-1.024508953094482
 20
0.3105361461639404
 11
-1.024972200393677
 21
0.3159157633781433
  0
LINE
  5
11C
100
AcDbEntity
  8
profiling
  6
ByLayer
 62
  256
370
   -1
100
AcDbLine
 10
-1.024972200393677
 20
0.3159157633781433
 11
-1.025303363800049
 21
0.3213050961494446
  0
LINE
  5
11D
100
AcDbEntity
  8
profiling
  6
ByLayer
 62
  256
370
   -1
100
AcDbLine
 10
-1.025303363800049
 20
0.3213050961494446
 11
-1.02550208568573
 21
0.3267009258270264
  0
LINE
  5
11E
100
AcDbEntity
  8
profiling
  6
ByLayer
 62
  256
370
   -1
100
AcDbLine
 10
-1.02550208568573
 20
0.3267009258270264
 11
-1.02556836605072
 21
0.3321000337600708
  0
LINE
  5
11F
100
AcDbEntity
  8
profiling
  6
ByLayer
 62
  256
370
   -1
100
AcDbLine
 10
-1.02556836605072
 20
0.3321000337600708
 11
-1.02556836605072
 21
0.5821000933647156
  0
LINE
  5
120
100
AcDbEntity
  8
profiling
  6
ByLayer
 62
  256
370
   -1
100
AcDbLine
 10
-1.02556836605072
 20
0.5821000933647156
 11
-0.5505664348602295
 21
0.5821004509925842
  0
LINE
  5
121
100
AcDbEntity
  8
profiling
  6
ByLayer
 62
  256
370
   -1
100
AcDbLine
 10
-0.5505664348602295
 20
0.5821004509925842
 11
-0.5505669116973877
 21
0.1120993345975876
  0
LINE
  5
122
100
AcDbEntity
  8
profiling
  6
ByLayer
 62
  256
370
   -1
100
AcDbLine
 10
-0.5505669116973877
 20
0.1120993345975876
 11
-0.8055673837661743
 21
0.1120990216732025
  0
LINE
  5
123
100
AcDbEntity
  8
profiling
  6
ByLayer
 62
  256
370
   -1
100
AcDbLine
 10
-0.8055673837661743
 20
0.1120990216732025
 11
-0.810966432094574
 21
0.1121652871370316
  0
LINE
  5
124
100
AcDbEntity
  8
profiling
  6
ByLayer
 62
  256
370
   -1
100
AcDbLine
 10
-0.810966432094574
 20
0.1121652871370316
 11
-0.8163622617721558
 21
0.1123640239238739
  0
LINE
  5
125
100
AcDbEntity
  8
profiling
  6
ByLayer
 62
  256
370
   -1
100
AcDbLine
 10
-0.8163622617721558
 20
0.1123640239238739
 11
-0.821751594543457
 21
0.1126951277256012
  0
LINE
  5
126
100
AcDbEntity
  8
profiling
  6
ByLayer
 62
  256
370
   -1
100
AcDbLine
 10
-0.821751594543457
 20
0.1126951277256012
 11
-0.8271311521530151
 21
0.1131583899259567
  0
LINE
  5
127
100
AcDbEntity
  8
profiling
  6
ByLayer
 62
  256
370
   -1
100
AcDbLine
 10
-0.8271311521530151
 20
0.1131583899259567
 11
-0.8324978351593018
 21
0.1137535274028778
  0
LINE
  5
128
100
AcDbEntity
  8
profiling
  6
ByLayer
 62
  256
370
   -1
100
AcDbLine
 10
-0.8324978351593018
 20
0.1137535274028778
 11
-0.8378481864929199
 21
0.114480197429657
  0
LINE
  5
129
100
AcDbEntity
  8
profiling
  6
ByLayer
 62
  256
370
   -1
100
AcDbLine
 10
-0.8378481864929199
 20
0.114480197429657
 11
-0.8431791067123413
 21
0.1153379380702972
  0
LINE
  5
12A
100
AcDbEntity
  8
profiling
  6
ByLayer
 62
  256
370
   -1
100
AcDbLine
 10
-0.8431791067123413
 20
0.1153379380702972
 11
-0.848487377166748
 21
0.1163263022899628
  0
LINE
  5
12B
100
AcDbEntity
  8
profiling
  6
ByLayer
 62
  256
370
   -1
100
AcDbLine
 10
-0.848487377166748
 20
0.1163263022899628
 11
-0.853769838809967
 21
0.1174445748329163
  0
LINE
  5
12C
100
AcDbEntity
  8
profiling
  6
ByLayer
 62
  256
370
   -1
100
AcDbLine
 10
-0.853769838809967
 20
0.1174445748329163
 11
-0.8590232133865356
 21
0.11869215965271
  0
LINE
  5
12D
100
AcDbEntity
  8
profiling
  6
ByLayer
 62
  256
370
   -1
100
AcDbLine
 10
-0.8590232133865356
 20
0.11869215965271
 11
-0.8642444014549255
 21
0.1200683414936066
  0
LINE
  5
12E
100
AcDbEntity
  8
profiling
  6
ByLayer
 62
  256
370
   -1
100
AcDbLine
 10
-0.8642444014549255
 20
0.1200683414936066
 11
-0.8694302439689636
 21
0.1215721964836121
  0
LINE
  5
12F
100
AcDbEntity
  8
profiling
  6
ByLayer
 62
  256
370
   -1
100
AcDbLine
 10
-0.8694302439689636
 20
0.1215721964836121
 11
-0.8745776414871216
 21
0.1232028752565384
  0
LINE
  5
130
100
AcDbEntity
  8
profiling
  6
ByLayer
 62
  256
370
   -1
100
AcDbLine
 10
-0.8745776414871216
 20
0.1232028752565384
 11
-0.8796834349632263
 21
0.1249593943357468
  0
LINE
  5
131
100
AcDbEntity
  8
profiling
  6
ByLayer
 62
  256
370
   -1
100
AcDbLine
 10
-0.8796834349632263
 20
0.1249593943357468
 11
-0.8847446441650391
 21
0.1268406808376312
  0
LINE
  5
132
100
AcDbEntity
  8
profiling
  6
ByLayer
 62
  256
370
   -1
100
AcDbLine
 10
-0.8847446441650391
 20
0.1268406808376312
 11
-0.8897580504417419
 21
0.128845602273941
  0
LINE
  5
133
100
AcDbEntity
  8
profiling
  6
ByLayer
 62
  256
370
   -1
100
AcDbLine
 10
-0.8897580504417419
 20
0.128845602273941
 11
-0.8947207927703857
 21
0.1309729516506195
  0
LINE
  5
134
100
AcDbEntity
  8
profiling
  6
ByLayer
 62
  256
370
   -1
100
AcDbLine
 10
-0.8947207927703857
 20
0.1309729516506195
 11
-0.8996298909187317
 21
0.1332214772701263
  0
LINE
  5
135
100
AcDbEntity
  8
profiling
  6
ByLayer
 62
  256
370
   -1
100
AcDbLine
 10
-0.8996298909187317
 20
0.1332214772701263
 11
-0.9044823050498962
 21
0.1355897784233093
  0
LINE
  5
136
100
AcDbEntity
  8
profiling
  6
ByLayer
 62
  256
370
   -1
100
AcDbLine
 10
-0.9044823050498962
 20
0.1355897784233093
 11
-0.9092751145362854
 21
0.1380764544010162
  0
LINE
  5
137
100
AcDbEntity
  8
profiling
  6
ByLayer
 62
  256
370
   -1
100
AcDbLine
 10
-0.9092751145362854
 20
0.1380764544010162
 11
-0.9140053987503052
 21
0.1406800150871277
  0
LINE
  5
138
100
AcDbEntity
  8
profiling
  6
ByLayer
 62
  256
370
   -1
100
AcDbLine
 10
-0.9140053987503052
 20
0.1406800150871277
 11
-0.9186704754829407
 21
0.1433988809585571
  0
LINE
  5
139
100
AcDbEntity
  8
profiling
  6
ByLayer
 62
  256
370
   -1
100
AcDbLine
 10
-0.9186704754829407
 20
0.1433988809585571
 11
-0.9232673645019531
 21
0.146231397986412
  0
LINE
  5
13A
100
AcDbEntity
  8
profiling
  6
ByLayer
 62
  256
370
   -1
100
AcDbLine
 10
-0.9232673645019531
 20
0.146231397986412
 11
-0.9277933239936829
 21
0.1491758823394775
  0
LINE
  5
13B
100
AcDbEntity
  8
profiling
  6
ByLayer
 62
  256
370
   -1
100
AcDbLine
 10
-0.9277933239936829
 20
0.1491758823394775
 11
-0.9322457313537598
 21
0.1522305458784103
  0
LINE
  5
13C
100
AcDbEntity
  8
profiling
  6
ByLayer
 62
  256
370
   -1
100
AcDbLine
 10
-0.9322457313537598
 20
0.1522305458784103
 11
-0.9366217851638794
 21
0.1553935706615448
  0
LINE
  5
13D
100
AcDbEntity
  8
profiling
  6
ByLayer
 62
  256
370
   -1
100
AcDbLine
 10
-0.9366217851638794
 20
0.1553935706615448
 11
-0.9409189224243164
 21
0.1586630344390869
  0
LINE
  5
13E
100
AcDbEntity
  8
profiling
  6
ByLayer
 62
  256
370
   -1
100
AcDbLine
 10
-0.9409189224243164
 20
0.1586630344390869
 11
-0.9451345205307007
 21
0.1620369702577591
  0
LINE
  5
13F
100
AcDbEntity
  8
profiling
  6
ByLayer
 62
  256
370
   -1
100
AcDbLine
 10
-0.9451345205307007
 20
0.1620369702577591
 11
-0.9492660164833069
 21
0.1655133366584778
  0
LINE
  5
140
100
AcDbEntity
  8
profiling
  6
ByLayer
 62
  256
370
   -1
100
AcDbLine
 10
-0.9492660164833069
 20
0.1655133366584778
 11
-0.9533109664916992
 21
0.1690900325775146
  0
LINE
  5
141
100
AcDbEntity
  8
profiling
  6
ByLayer
 62
  256
370
   -1
100
AcDbLine
 10
-0.9533109664916992
 20
0.1690900325775146
 11
-0.9572669267654419
 21
0.1727649420499802
  0
LINE
  5
142
100
AcDbEntity
  8
profiling
  6
ByLayer
 62
  256
370
   -1
100
AcDbLine
 10
-0.9572669267654419
 20
0.1727649420499802
 11
-0.9611315727233887
 21
0.1765358299016953
  0
LINE
  5
143
100
AcDbEntity
  8
profiling
  6
ByLayer
 62
  256
370
   -1
100
AcDbLine
 10
-0.9611315727233887
 20
0.1765358299016953
 11
-0.964902400970459
 21
0.1804004013538361
  0
LINE
  5
144
100
AcDbEntity
  8
profiling
  6
ByLayer
 62
  256
370
   -1
100
AcDbLine
 10
-0.964902400970459
 20
0.1804004013538361
 11
-0.9685773253440857
 21
0.1843563616275787
  0
LINE
  5
145
100
AcDbEntity
  8
profiling
  6
ByLayer
 62
  256
370
   -1
100
AcDbLine
 10
-0.9685773253440857
 20
0.1843563616275787
 11
-0.9721540212631226
 21
0.1884013414382935
  0
LINE
  5
146
100
AcDbEntity
  8
profiling
  6
ByLayer
 62
  256
370
   -1
100
AcDbLine
 10
-0.9721540212631226
 20
0.1884013414382935
 11
-0.9756304025650024
 21
0.1925328820943832
  0
LINE
  5
147
100
AcDbEntity
  8
profiling
  6
ByLayer
 62
  256
370
   -1
100
AcDbLine
 10
-0.9756304025650024
 20
0.1925328820943832
 11
-0.9790043234825134
 21
0.1967484503984451
  0
LINE
  5
148
100
AcDbEntity
  8
profiling
  6
ByLayer
 62
  256
370
   -1
100
AcDbLine
 10
-0.9790043234825134
 20
0.1967484503984451
 11
-0.9822738170623779
 21
0.2010456025600433
  0
LINE
  5
149
100
AcDbEntity
  8
profiling
  6
ByLayer
 62
  256
370
   -1
100
AcDbLine
 10
-0.9822738170623779
 20
0.2010456025600433
 11
-0.9854367971420288
 21
0.205421656370163
  0
LINE
  5
14A
100
AcDbEntity
  8
profiling
  6
ByLayer
 62
  256
370
   -1
100
AcDbLine
 10
-0.9854367971420288
 20
0.205421656370163
 11
-0.9884914755821228
 21
0.2098740190267563
  0
LINE
  5
14B
100
AcDbEntity
  8
profiling
  6
ByLayer
 62
  256
370
   -1
100
AcDbLine
 10
-0.9884914755821228
 20
0.2098740190267563
 11
-0.9914360046386719
 21
0.2144000232219696
  0
LINE
  5
14C
100
AcDbEntity
  8
profiling
  6
ByLayer
 62
  256
370
   -1
100
AcDbLine
 10
-0.9914360046386719
 20
0.2144000232219696
 11
-0.9942684769630432
 21
0.2189968973398209
  0
LINE
  5
14D
100
AcDbEntity
  8
profiling
  6
ByLayer
 62
  256
370
   -1
100
AcDbLine
 10
-0.9942684769630432
 20
0.2189968973398209
 11
-0.9969873428344727
 21
0.2236619144678116
  0
LINE
  5
14E
100
AcDbEntity
  8
profiling
  6
ByLayer
 62
  256
370
   -1
100
AcDbLine
 10
-0.9969873428344727
 20
0.2236619144678116
 11
-0.9995908737182617
 21
0.2283922731876373
  0
LINE
  5
14F
100
AcDbEntity
  8
profiling
  6
ByLayer
 62
  256
370
   -1
100
AcDbLine
 10
-0.9995908737182617
 20
0.2283922731876373
 11
-1.002077579498291
 21
0.2331850677728653
  0
LINE
  5
150
100
AcDbEntity
  8
profiling
  6
ByLayer
 62
  256
370
   -1
100
AcDbLine
 10
-1.002077579498291
 20
0.2331850677728653
 11
-1.004445910453796
 21
0.2380374819040298
  0
LINE
  5
151
100
AcDbEntity
  8
profiling
  6
ByLayer
 62
  256
370
   -1
100
AcDbLine
 10
-1.004445910453796
 20
0.2380374819040298
 11
-1.006694436073303
 21
0.2429465502500534
  0
LINE
  5
152
100
AcDbEntity
  8
profiling
  6
ByLayer
 62
  256
370
   -1
100
AcDbLine
 10
-1.006694436073303
 20
0.2429465502500534
 11
-1.008821725845337
 21
0.2479092925786972
  0
LINE
  5
153
100
AcDbEntity
  8
profiling
  6
ByLayer
 62
  256
370
   -1
100
AcDbLine
 10
-1.008821725845337
 20
0.2479092925786972
 11
-1.010826706886292
 21
0.2529227733612061
  0
LINE
  5
154
100
AcDbEntity
  8
profiling
  6
ByLayer
 62
  256
370
   -1
100
AcDbLine
 10
-1.010826706886292
 20
0.2529227733612061
 11
-1.012707948684692
 21
0.257983922958374
  0
LINE
  5
155
100
AcDbEntity
  8
profiling
  6
ByLayer
 62
  256
370
   -1
100
AcDbLine
 10
-1.012707948684692
 20
0.257983922958374
 11
-1.014464497566223
 21
0.2630897462368011
  0
LINE
  5
156
100
AcDbEntity
  8
profiling
  6
ByLayer
 62
  256
370
   -1
100
AcDbLine
 10
-1.014464497566223
 20
0.2630897462368011
 11
-1.016095161437988
 21
0.2682371139526367
  0
LINE
  5
157
100
AcDbEntity
  8
profiling
  6
ByLayer
 62
  256
370
   -1
100
AcDbLine
 10
-1.016095161437988
 20
0.2682371139526367
 11
-1.017598986625671
 21
0.2734229564666748
  0
LINE
  5
158
100
AcDbEntity
  8
profiling
  6
ByLayer
 62
  256
370
   -1
100
AcDbLine
 10
-1.017598986625671
 20
0.2734229564666748
 11
-1.018975138664246
 21
0.2786441147327423
  0
LINE
  5
159
100
AcDbEntity
  8
profiling
  6
ByLayer
 62
  256
370
   -1
100
AcDbLine
 10
-1.018975138664246
 20
0.2786441147327423
 11
-1.020222783088684
 21
0.2838975489139557
  0
LINE
  5
15A
100
AcDbEntity
  8
profiling
  6
ByLayer
 62
  256
370
   -1
100
AcDbLine
 10
-1.020222783088684
 20
0.2838975489139557
 11
-1.02134108543396
 21
0.2891799509525299
  0
LINE
  5
15B
100
AcDbEntity
  8
profiling
  6
ByLayer
 62
  256
370
   -1
100
AcDbLine
 10
-1.02134108543396
 20
0.2891799509525299
 11
-1.022329449653625
 21
0.294488251209259
  0
LINE
  5
15C
100
AcDbEntity
  8
profiling
  6
ByLayer
 62
  256
370
   -1
100
AcDbLine
 10
-1.022329449653625
 20
0.294488251209259
 11
-1.023187160491943
 21
0.2998191714286804
  0
LINE
  5
15D
100
AcDbEntity
  8
profiling
  6
ByLayer
 62
  256
370
   -1
100
AcDbLine
 10
-1.023913860321045
 20
0.3051695227622986
 11
-1.023187160491943
 21
0.2998191714286804
  0
LINE
  5
15E
100
AcDbEntity
  8
profiling
  6
ByLayer
 62
  256
370
   -1
100
AcDbLine
 10
-0.5713629722595215
 20
0.5740179419517517
 11
-0.5717223882675171
 21
0.5738258361816406
  0
LINE
  5
15F
100
AcDbEntity
  8
profiling
  6
ByLayer
 62
  256
370
   -1
100
AcDbLine
 10
-0.5717223882675171
 20
0.5738258361816406
 11
-0.5720374584197998
 21
0.573567271232605
  0
LINE
  5
160
100
AcDbEntity
  8
profiling
  6
ByLayer
 62
  256
370
   -1
100
AcDbLine
 10
-0.5720374584197998
 20
0.573567271232605
 11
-0.5722959637641907
 21
0.573252260684967
  0
LINE
  5
161
100
AcDbEntity
  8
profiling
  6
ByLayer
 62
  256
370
   -1
100
AcDbLine
 10
-0.5722959637641907
 20
0.573252260684967
 11
-0.5724880695343018
 21
0.5728927850723267
  0
LINE
  5
162
100
AcDbEntity
  8
profiling
  6
ByLayer
 62
  256
370
   -1
100
AcDbLine
 10
-0.5724880695343018
 20
0.5728927850723267
 11
-0.5726063847541809
 21
0.5725028514862061
  0
LINE
  5
163
100
AcDbEntity
  8
profiling
  6
ByLayer
 62
  256
370
   -1
100
AcDbLine
 10
-0.5726063847541809
 20
0.5725028514862061
 11
-0.5726463198661804
 21
0.5720972418785095
  0
LINE
  5
164
100
AcDbEntity
  8
profiling
  6
ByLayer
 62
  256
370
   -1
100
AcDbLine
 10
-0.5726463198661804
 20
0.5720972418785095
 11
-0.5726285576820374
 21
0.5719167590141296
  0
LINE
  5
165
100
AcDbEntity
  8
profiling
  6
ByLayer
 62
  256
370
   -1
100
AcDbLine
 10
-0.5726285576820374
 20
0.5719167590141296
 11
-0.5726063847541809
 21
0.571691632270813
  0
LINE
  5
166
100
AcDbEntity
  8
profiling
  6
ByLayer
 62
  256
370
   -1
100
AcDbLine
 10
-0.5726063847541809
 20
0.571691632270813
 11
-0.5724880695343018
 21
0.5713015794754028
  0
LINE
  5
167
100
AcDbEntity
  8
profiling
  6
ByLayer
 62
  256
370
   -1
100
AcDbLine
 10
-0.5724880695343018
 20
0.5713015794754028
 11
-0.5722959637641907
 21
0.5709421634674072
  0
LINE
  5
168
100
AcDbEntity
  8
profiling
  6
ByLayer
 62
  256
370
   -1
100
AcDbLine
 10
-0.5722959637641907
 20
0.5709421634674072
 11
-0.5720374584197998
 21
0.5706272125244141
  0
LINE
  5
169
100
AcDbEntity
  8
profiling
  6
ByLayer
 62
  256
370
   -1
100
AcDbLine
 10
-0.5720374584197998
 20
0.5706272125244141
 11
-0.5717223286628723
 21
0.5703685879707336
  0
LINE
  5
16A
100
AcDbEntity
  8
profiling
  6
ByLayer
 62
  256
370
   -1
100
AcDbLine
 10
-0.5717223286628723
 20
0.5703685879707336
 11
-0.5713629126548767
 21
0.5701765418052673
  0
LINE
  5
16B
100
AcDbEntity
  8
profiling
  6
ByLayer
 62
  256
370
   -1
100
AcDbLine
 10
-0.5713629126548767
 20
0.5701765418052673
 11
-0.5709729194641113
 21
0.5700581669807434
  0
LINE
  5
16C
100
AcDbEntity
  8
profiling
  6
ByLayer
 62
  256
370
   -1
100
AcDbLine
 10
-0.5709729194641113
 20
0.5700581669807434
 11
-0.5705673694610596
 21
0.5700182318687439
  0
LINE
  5
16D
100
AcDbEntity
  8
profiling
  6
ByLayer
 62
  256
370
   -1
100
AcDbLine
 10
-0.5705673694610596
 20
0.5700182318687439
 11
-0.570161759853363
 21
0.5700581669807434
  0
LINE
  5
16E
100
AcDbEntity
  8
profiling
  6
ByLayer
 62
  256
370
   -1
100
AcDbLine
 10
-0.570161759853363
 20
0.5700581669807434
 11
-0.5697717666625977
 21
0.5701765418052673
  0
LINE
  5
16F
100
AcDbEntity
  8
profiling
  6
ByLayer
 62
  256
370
   -1
100
AcDbLine
 10
-0.5697717666625977
 20
0.5701765418052673
 11
-0.5694123506546021
 21
0.5703685879707336
  0
LINE
  5
170
100
AcDbEntity
  8
profiling
  6
ByLayer
 62
  256
370
   -1
100
AcDbLine
 10
-0.5694123506546021
 20
0.5703685879707336
 11
-0.5690972805023193
 21
0.5706272125244141
  0
LINE
  5
171
100
AcDbEntity
  8
profiling
  6
ByLayer
 62
  256
370
   -1
100
AcDbLine
 10
-0.5690972805023193
 20
0.5706272125244141
 11
-0.5688387155532837
 21
0.5709421634674072
  0
LINE
  5
172
100
AcDbEntity
  8
profiling
  6
ByLayer
 62
  256
370
   -1
100
AcDbLine
 10
-0.5688387155532837
 20
0.5709421634674072
 11
-0.5686466097831726
 21
0.5713015794754028
  0
LINE
  5
173
100
AcDbEntity
  8
profiling
  6
ByLayer
 62
  256
370
   -1
100
AcDbLine
 10
-0.5686466097831726
 20
0.5713015794754028
 11
-0.5685282945632935
 21
0.571691632270813
  0
LINE
  5
174
100
AcDbEntity
  8
profiling
  6
ByLayer
 62
  256
370
   -1
100
AcDbLine
 10
-0.5685282945632935
 20
0.571691632270813
 11
-0.5684883594512939
 21
0.5720972418785095
  0
LINE
  5
175
100
AcDbEntity
  8
profiling
  6
ByLayer
 62
  256
370
   -1
100
AcDbLine
 10
-0.5684883594512939
 20
0.5720972418785095
 11
-0.5685282945632935
 21
0.5725028514862061
  0
LINE
  5
176
100
AcDbEntity
  8
profiling
  6
ByLayer
 62
  256
370
   -1
100
AcDbLine
 10
-0.5685282945632935
 20
0.5725028514862061
 11
-0.5686466097831726
 21
0.5728927850723267
  0
LINE
  5
177
100
AcDbEntity
  8
profiling
  6
ByLayer
 62
  256
370
   -1
100
AcDbLine
 10
-0.5686466097831726
 20
0.5728927850723267
 11
-0.5688387155532837
 21
0.573252260684967
  0
LINE
  5
178
100
AcDbEntity
  8
profiling
  6
ByLayer
 62
  256
370
   -1
100
AcDbLine
 10
-0.5688387155532837
 20
0.573252260684967
 11
-0.5690972805023193
 21
0.573567271232605
  0
LINE
  5
179
100
AcDbEntity
  8
profiling
  6
ByLayer
 62
  256
370
   -1
100
AcDbLine
 10
-0.5690972805023193
 20
0.573567271232605
 11
-0.5693843364715576
 21
0.5738028287887573
  0
LINE
  5
17A
100
AcDbEntity
  8
profiling
  6
ByLayer
 62
  256
370
   -1
100
AcDbLine
 10
-0.5693843364715576
 20
0.5738028287887573
 11
-0.5697717666625977
 21
0.5740179419517517
  0
LINE
  5
17B
100
AcDbEntity
  8
profiling
  6
ByLayer
 62
  256
370
   -1
100
AcDbLine
 10
-0.5697717666625977
 20
0.5740179419517517
 11
-0.570161759853363
 21
0.5741362571716309
  0
LINE
  5
17C
100
AcDbEntity
  8
profiling
  6
ByLayer
 62
  256
370
   -1
100
AcDbLine
 10
-0.570161759853363
 20
0.5741362571716309
 11
-0.5705673694610596
 21
0.5741761922836304
  0
LINE
  5
17D
100
AcDbEntity
  8
profiling
  6
ByLayer
 62
  256
370
   -1
100
AcDbLine
 10
-0.5705673694610596
 20
0.5741761922836304
 11
-0.5709729194641113
 21
0.5741362571716309
  0
LINE
  5
17E
100
AcDbEntity
  8
profiling
  6
ByLayer
 62
  256
370
   -1
100
AcDbLine
 10
-0.5713629722595215
 20
0.5740179419517517
 11
-0.5709729194641113
 21
0.5741362571716309
  0
LINE
  5
17F
100
AcDbEntity
  8
profiling
  6
ByLayer
 62
  256
370
   -1
100
AcDbLine
 10
-0.5612442493438721
 20
0.1187117099761963
 11
-0.5613352656364441
 21
0.1184117496013641
  0
LINE
  5
180
100
AcDbEntity
  8
profiling
  6
ByLayer
 62
  256
370
   -1
100
AcDbLine
 10
-0.5613352656364441
 20
0.1184117496013641
 11
-0.5613659620285034
 21
0.1180997937917709
  0
LINE
  5
181
100
AcDbEntity
  8
profiling
  6
ByLayer
 62
  256
370
   -1
100
AcDbLine
 10
-0.5613659620285034
 20
0.1180997937917709
 11
-0.5613352060317993
 21
0.1177878528833389
  0
LINE
  5
182
100
AcDbEntity
  8
profiling
  6
ByLayer
 62
  256
370
   -1
100
AcDbLine
 10
-0.5613352060317993
 20
0.1177878528833389
 11
-0.5612442493438721
 21
0.1174878925085068
  0
LINE
  5
183
100
AcDbEntity
  8
profiling
  6
ByLayer
 62
  256
370
   -1
100
AcDbLine
 10
-0.5612442493438721
 20
0.1174878925085068
 11
-0.5610964894294739
 21
0.1172114312648773
  0
LINE
  5
184
100
AcDbEntity
  8
profiling
  6
ByLayer
 62
  256
370
   -1
100
AcDbLine
 10
-0.5610964894294739
 20
0.1172114312648773
 11
-0.5608976483345032
 21
0.1169691383838654
  0
LINE
  5
185
100
AcDbEntity
  8
profiling
  6
ByLayer
 62
  256
370
   -1
100
AcDbLine
 10
-0.5608976483345032
 20
0.1169691383838654
 11
-0.5606553554534912
 21
0.1167702823877335
  0
LINE
  5
186
100
AcDbEntity
  8
profiling
  6
ByLayer
 62
  256
370
   -1
100
AcDbLine
 10
-0.5606553554534912
 20
0.1167702823877335
 11
-0.5603789091110229
 21
0.1166225075721741
  0
LINE
  5
187
100
AcDbEntity
  8
profiling
  6
ByLayer
 62
  256
370
   -1
100
AcDbLine
 10
-0.5603789091110229
 20
0.1166225075721741
 11
-0.5600789189338684
 21
0.1165315210819244
  0
LINE
  5
188
100
AcDbEntity
  8
profiling
  6
ByLayer
 62
  256
370
   -1
100
AcDbLine
 10
-0.5600789189338684
 20
0.1165315210819244
 11
-0.5597670078277588
 21
0.1165007948875427
  0
LINE
  5
189
100
AcDbEntity
  8
profiling
  6
ByLayer
 62
  256
370
   -1
100
AcDbLine
 10
-0.5597670078277588
 20
0.1165007948875427
 11
-0.5596308708190918
 21
0.1165142059326172
  0
LINE
  5
18A
100
AcDbEntity
  8
profiling
  6
ByLayer
 62
  256
370
   -1
100
AcDbLine
 10
-0.5596308708190918
 20
0.1165142059326172
 11
-0.5594550371170044
 21
0.1165315210819244
  0
LINE
  5
18B
100
AcDbEntity
  8
profiling
  6
ByLayer
 62
  256
370
   -1
100
AcDbLine
 10
-0.5594550371170044
 20
0.1165315210819244
 11
-0.5591551065444946
 21
0.1166225075721741
  0
LINE
  5
18C
100
AcDbEntity
  8
profiling
  6
ByLayer
 62
  256
370
   -1
100
AcDbLine
 10
-0.5591551065444946
 20
0.1166225075721741
 11
-0.5588786602020264
 21
0.1167702823877335
  0
LINE
  5
18D
100
AcDbEntity
  8
profiling
  6
ByLayer
 62
  256
370
   -1
100
AcDbLine
 10
-0.5588786602020264
 20
0.1167702823877335
 11
-0.5586363077163696
 21
0.1169691383838654
  0
LINE
  5
18E
100
AcDbEntity
  8
profiling
  6
ByLayer
 62
  256
370
   -1
100
AcDbLine
 10
-0.5586363077163696
 20
0.1169691383838654
 11
-0.5585346221923828
 21
0.117093026638031
  0
LINE
  5
18F
100
AcDbEntity
  8
profiling
  6
ByLayer
 62
  256
370
   -1
100
AcDbLine
 10
-0.5585346221923828
 20
0.117093026638031
 11
-0.5584374666213989
 21
0.1172114312648773
  0
LINE
  5
190
100
AcDbEntity
  8
profiling
  6
ByLayer
 62
  256
370
   -1
100
AcDbLine
 10
-0.5584374666213989
 20
0.1172114312648773
 11
-0.5582897067070007
 21
0.1174878925085068
  0
LINE
  5
191
100
AcDbEntity
  8
profiling
  6
ByLayer
 62
  256
370
   -1
100
AcDbLine
 10
-0.5582897067070007
 20
0.1174878925085068
 11
-0.5581986904144287
 21
0.1177878528833389
  0
LINE
  5
192
100
AcDbEntity
  8
profiling
  6
ByLayer
 62
  256
370
   -1
100
AcDbLine
 10
-0.5581986904144287
 20
0.1177878528833389
 11
-0.5581679940223694
 21
0.1180997937917709
  0
LINE
  5
193
100
AcDbEntity
  8
profiling
  6
ByLayer
 62
  256
370
   -1
100
AcDbLine
 10
-0.5581679940223694
 20
0.1180997937917709
 11
-0.5581986904144287
 21
0.1184117496013641
  0
LINE
  5
194
100
AcDbEntity
  8
profiling
  6
ByLayer
 62
  256
370
   -1
100
AcDbLine
 10
-0.5581986904144287
 20
0.1184117496013641
 11
-0.5582897067070007
 21
0.1187117099761963
  0
LINE
  5
195
100
AcDbEntity
  8
profiling
  6
ByLayer
 62
  256
370
   -1
100
AcDbLine
 10
-0.5582897067070007
 20
0.1187117099761963
 11
-0.5584374666213989
 21
0.1189881563186646
  0
LINE
  5
196
100
AcDbEntity
  8
profiling
  6
ByLayer
 62
  256
370
   -1
100
AcDbLine
 10
-0.5584374666213989
 20
0.1189881563186646
 11
-0.5586363077163696
 21
0.1192304491996765
  0
LINE
  5
197
100
AcDbEntity
  8
profiling
  6
ByLayer
 62
  256
370
   -1
100
AcDbLine
 10
-0.5586363077163696
 20
0.1192304491996765
 11
-0.5588786602020264
 21
0.1194293051958084
  0
LINE
  5
198
100
AcDbEntity
  8
profiling
  6
ByLayer
 62
  256
370
   -1
100
AcDbLine
 10
-0.5588786602020264
 20
0.1194293051958084
 11
-0.5591551065444946
 21
0.1195770800113678
  0
LINE
  5
199
100
AcDbEntity
  8
profiling
  6
ByLayer
 62
  256
370
   -1
100
AcDbLine
 10
-0.5591551065444946
 20
0.1195770800113678
 11
-0.5594550371170044
 21
0.1196680665016174
  0
LINE
  5
19A
100
AcDbEntity
  8
profiling
  6
ByLayer
 62
  256
370
   -1
100
AcDbLine
 10
-0.5594550371170044
 20
0.1196680665016174
 11
-0.5597670078277588
 21
0.1196987926959991
  0
LINE
  5
19B
100
AcDbEntity
  8
profiling
  6
ByLayer
 62
  256
370
   -1
100
AcDbLine
 10
-0.5597670078277588
 20
0.1196987926959991
 11
-0.5600789189338684
 21
0.1196680665016174
  0
LINE
  5
19C
100
AcDbEntity
  8
profiling
  6
ByLayer
 62
  256
370
   -1
100
AcDbLine
 10
-0.5600789189338684
 20
0.1196680665016174
 11
-0.5603789091110229
 21
0.1195770800113678
  0
LINE
  5
19D
100
AcDbEntity
  8
profiling
  6
ByLayer
 62
  256
370
   -1
100
AcDbLine
 10
-0.5603789091110229
 20
0.1195770800113678
 11
-0.5606553554534912
 21
0.1194293051958084
  0
LINE
  5
19E
100
AcDbEntity
  8
profiling
  6
ByLayer
 62
  256
370
   -1
100
AcDbLine
 10
-0.5606553554534912
 20
0.1194293051958084
 11
-0.5608976483345032
 21
0.1192304491996765
  0
LINE
  5
19F
100
AcDbEntity
  8
profiling
  6
ByLayer
 62
  256
370
   -1
100
AcDbLine
 10
-0.5608976483345032
 20
0.1192304491996765
 11
-0.5610964894294739
 21
0.1189881563186646
  0
LINE
  5
1A0
100
AcDbEntity
  8
profiling
  6
ByLayer
 62
  256
370
   -1
100
AcDbLine
 10
-0.5612442493438721
 20
0.1187117099761963
 11
-0.5610964894294739
 21
0.1189881563186646
  0
LINE
  5
1A1
100
AcDbEntity
  8
profiling
  6
ByLayer
 62
  256
370
   -1
100
AcDbLine
 10
-1.008037447929382
 20
0.5706272125244141
 11
-1.0077223777771
 21
0.5703685879707336
  0
LINE
  5
1A2
100
AcDbEntity
  8
profiling
  6
ByLayer
 62
  256
370
   -1
100
AcDbLine
 10
-1.0077223777771
 20
0.5703685879707336
 11
-1.007362961769104
 21
0.5701765418052673
  0
LINE
  5
1A3
100
AcDbEntity
  8
profiling
  6
ByLayer
 62
  256
370
   -1
100
AcDbLine
 10
-1.007362961769104
 20
0.5701765418052673
 11
-1.006972908973694
 21
0.5700581669807434
  0
LINE
  5
1A4
100
AcDbEntity
  8
profiling
  6
ByLayer
 62
  256
370
   -1
100
AcDbLine
 10
-1.006972908973694
 20
0.5700581669807434
 11
-1.006567358970642
 21
0.5700182318687439
  0
LINE
  5
1A5
100
AcDbEntity
  8
profiling
  6
ByLayer
 62
  256
370
   -1
100
AcDbLine
 10
-1.006567358970642
 20
0.5700182318687439
 11
-1.00616180896759
 21
0.5700581669807434
  0
LINE
  5
1A6
100
AcDbEntity
  8
profiling
  6
ByLayer
 62
  256
370
   -1
100
AcDbLine
 10
-1.00616180896759
 20
0.5700581669807434
 11
-1.00577175617218
 21
0.5701765418052673
  0
LINE
  5
1A7
100
AcDbEntity
  8
profiling
  6
ByLayer
 62
  256
370
   -1
100
AcDbLine
 10
-1.00577175617218
 20
0.5701765418052673
 11
-1.005412340164185
 21
0.5703685879707336
  0
LINE
  5
1A8
100
AcDbEntity
  8
profiling
  6
ByLayer
 62
  256
370
   -1
100
AcDbLine
 10
-1.005412340164185
 20
0.5703685879707336
 11
-1.005097270011902
 21
0.5706272125244141
  0
LINE
  5
1A9
100
AcDbEntity
  8
profiling
  6
ByLayer
 62
  256
370
   -1
100
AcDbLine
 10
-1.005097270011902
 20
0.5706272125244141
 11
-1.004838705062866
 21
0.5709421634674072
  0
LINE
  5
1AA
100
AcDbEntity
  8
profiling
  6
ByLayer
 62
  256
370
   -1
100
AcDbLine
 10
-1.004838705062866
 20
0.5709421634674072
 11
-1.00464653968811
 21
0.5713015794754028
  0
LINE
  5
1AB
100
AcDbEntity
  8
profiling
  6
ByLayer
 62
  256
370
   -1
100
AcDbLine
 10
-1.00464653968811
 20
0.5713015794754028
 11
-1.004528284072876
 21
0.571691632270813
  0
LINE
  5
1AC
100
AcDbEntity
  8
profiling
  6
ByLayer
 62
  256
370
   -1
100
AcDbLine
 10
-1.004528284072876
 20
0.571691632270813
 11
-1.004488348960876
 21
0.5720972418785095
  0
LINE
  5
1AD
100
AcDbEntity
  8
profiling
  6
ByLayer
 62
  256
370
   -1
100
AcDbLine
 10
-1.004488348960876
 20
0.5720972418785095
 11
-1.004528284072876
 21
0.5725028514862061
  0
LINE
  5
1AE
100
AcDbEntity
  8
profiling
  6
ByLayer
 62
  256
370
   -1
100
AcDbLine
 10
-1.004528284072876
 20
0.5725028514862061
 11
-1.00464653968811
 21
0.5728927850723267
  0
LINE
  5
1AF
100
AcDbEntity
  8
profiling
  6
ByLayer
 62
  256
370
   -1
100
AcDbLine
 10
-1.00464653968811
 20
0.5728927850723267
 11
-1.004838705062866
 21
0.573252260684967
  0
LINE
  5
1B0
100
AcDbEntity
  8
profiling
  6
ByLayer
 62
  256
370
   -1
100
AcDbLine
 10
-1.004838705062866
 20
0.573252260684967
 11
-1.005097270011902
 21
0.573567271232605
  0
LINE
  5
1B1
100
AcDbEntity
  8
profiling
  6
ByLayer
 62
  256
370
   -1
100
AcDbLine
 10
-1.005097270011902
 20
0.573567271232605
 11
-1.005412340164185
 21
0.5738258361816406
  0
LINE
  5
1B2
100
AcDbEntity
  8
profiling
  6
ByLayer
 62
  256
370
   -1
100
AcDbLine
 10
-1.005412340164185
 20
0.5738258361816406
 11
-1.00577175617218
 21
0.5740179419517517
  0
LINE
  5
1B3
100
AcDbEntity
  8
profiling
  6
ByLayer
 62
  256
370
   -1
100
AcDbLine
 10
-1.00577175617218
 20
0.5740179419517517
 11
-1.00616180896759
 21
0.5741362571716309
  0
LINE
  5
1B4
100
AcDbEntity
  8
profiling
  6
ByLayer
 62
  256
370
   -1
100
AcDbLine
 10
-1.00616180896759
 20
0.5741362571716309
 11
-1.006567358970642
 21
0.5741761922836304
  0
LINE
  5
1B5
100
AcDbEntity
  8
profiling
  6
ByLayer
 62
  256
370
   -1
100
AcDbLine
 10
-1.006567358970642
 20
0.5741761922836304
 11
-1.006972908973694
 21
0.5741362571716309
  0
LINE
  5
1B6
100
AcDbEntity
  8
profiling
  6
ByLayer
 62
  256
370
   -1
100
AcDbLine
 10
-1.006972908973694
 20
0.5741362571716309
 11
-1.007362961769104
 21
0.5740179419517517
  0
LINE
  5
1B7
100
AcDbEntity
  8
profiling
  6
ByLayer
 62
  256
370
   -1
100
AcDbLine
 10
-1.007362961769104
 20
0.5740179419517517
 11
-1.0077223777771
 21
0.5738258361816406
  0
LINE
  5
1B8
100
AcDbEntity
  8
profiling
  6
ByLayer
 62
  256
370
   -1
100
AcDbLine
 10
-1.0077223777771
 20
0.5738258361816406
 11
-1.008037447929382
 21
0.573567271232605
  0
LINE
  5
1B9
100
AcDbEntity
  8
profiling
  6
ByLayer
 62
  256
370
   -1
100
AcDbLine
 10
-1.008037447929382
 20
0.573567271232605
 11
-1.008296012878418
 21
0.573252260684967
  0
LINE
  5
1BA
100
AcDbEntity
  8
profiling
  6
ByLayer
 62
  256
370
   -1
100
AcDbLine
 10
-1.008296012878418
 20
0.573252260684967
 11
-1.008514642715454
 21
0.5728054642677307
  0
LINE
  5
1BB
100
AcDbEntity
  8
profiling
  6
ByLayer
 62
  256
370
   -1
100
AcDbLine
 10
-1.008514642715454
 20
0.5728054642677307
 11
-1.008606433868408
 21
0.5725028514862061
  0
LINE
  5
1BC
100
AcDbEntity
  8
profiling
  6
ByLayer
 62
  256
370
   -1
100
AcDbLine
 10
-1.008606433868408
 20
0.5725028514862061
 11
-1.008646368980408
 21
0.5720972418785095
  0
LINE
  5
1BD
100
AcDbEntity
  8
profiling
  6
ByLayer
 62
  256
370
   -1
100
AcDbLine
 10
-1.008646368980408
 20
0.5720972418785095
 11
-1.008606433868408
 21
0.571691632270813
  0
LINE
  5
1BE
100
AcDbEntity
  8
profiling
  6
ByLayer
 62
  256
370
   -1
100
AcDbLine
 10
-1.008606433868408
 20
0.571691632270813
 11
-1.008488059043884
 21
0.5713015794754028
  0
LINE
  5
1BF
100
AcDbEntity
  8
profiling
  6
ByLayer
 62
  256
370
   -1
100
AcDbLine
 10
-1.008488059043884
 20
0.5713015794754028
 11
-1.008296012878418
 21
0.5709421634674072
  0
LINE
  5
1C0
100
AcDbEntity
  8
profiling
  6
ByLayer
 62
  256
370
   -1
100
AcDbLine
 10
-1.008037447929382
 20
0.5706272125244141
 11
-1.008296012878418
 21
0.5709421634674072
  0
LINE
  5
1C1
100
AcDbEntity
  8
profiling
  6
ByLayer
 62
  256
370
   -1
100
AcDbLine
 10
-0.7897223234176636
 20
0.5738258361816406
 11
-0.7900373935699463
 21
0.573567271232605
  0
LINE
  5
1C2
100
AcDbEntity
  8
profiling
  6
ByLayer
 62
  256
370
   -1
100
AcDbLine
 10
-0.7900373935699463
 20
0.573567271232605
 11
-0.7902959585189819
 21
0.573252260684967
  0
LINE
  5
1C3
100
AcDbEntity
  8
profiling
  6
ByLayer
 62
  256
370
   -1
100
AcDbLine
 10
-0.7902959585189819
 20
0.573252260684967
 11
-0.7904881238937378
 21
0.5728927850723267
  0
LINE
  5
1C4
100
AcDbEntity
  8
profiling
  6
ByLayer
 62
  256
370
   -1
100
AcDbLine
 10
-0.7904881238937378
 20
0.5728927850723267
 11
-0.7906063795089722
 21
0.5725028514862061
  0
LINE
  5
1C5
100
AcDbEntity
  8
profiling
  6
ByLayer
 62
  256
370
   -1
100
AcDbLine
 10
-0.7906063795089722
 20
0.5725028514862061
 11
-0.7906463146209717
 21
0.5720972418785095
  0
LINE
  5
1C6
100
AcDbEntity
  8
profiling
  6
ByLayer
 62
  256
370
   -1
100
AcDbLine
 10
-0.7906463146209717
 20
0.5720972418785095
 11
-0.7906063795089722
 21
0.571691632270813
  0
LINE
  5
1C7
100
AcDbEntity
  8
profiling
  6
ByLayer
 62
  256
370
   -1
100
AcDbLine
 10
-0.7906063795089722
 20
0.571691632270813
 11
-0.7904881238937378
 21
0.5713015794754028
  0
LINE
  5
1C8
100
AcDbEntity
  8
profiling
  6
ByLayer
 62
  256
370
   -1
100
AcDbLine
 10
-0.7904881238937378
 20
0.5713015794754028
 11
-0.7902959585189819
 21
0.5709421634674072
  0
LINE
  5
1C9
100
AcDbEntity
  8
profiling
  6
ByLayer
 62
  256
370
   -1
100
AcDbLine
 10
-0.7902959585189819
 20
0.5709421634674072
 11
-0.7900373935699463
 21
0.5706272125244141
  0
LINE
  5
1CA
100
AcDbEntity
  8
profiling
  6
ByLayer
 62
  256
370
   -1
100
AcDbLine
 10
-0.7900373935699463
 20
0.5706272125244141
 11
-0.7897223234176636
 21
0.5703685879707336
  0
LINE
  5
1CB
100
AcDbEntity
  8
profiling
  6
ByLayer
 62
  256
370
   -1
100
AcDbLine
 10
-0.7897223234176636
 20
0.5703685879707336
 11
-0.789362907409668
 21
0.5701765418052673
  0
LINE
  5
1CC
100
AcDbEntity
  8
profiling
  6
ByLayer
 62
  256
370
   -1
100
AcDbLine
 10
-0.789362907409668
 20
0.5701765418052673
 11
-0.7889729142189026
 21
0.5700581669807434
  0
LINE
  5
1CD
100
AcDbEntity
  8
profiling
  6
ByLayer
 62
  256
370
   -1
100
AcDbLine
 10
-0.7889729142189026
 20
0.5700581669807434
 11
-0.7885673046112061
 21
0.5700182318687439
  0
LINE
  5
1CE
100
AcDbEntity
  8
profiling
  6
ByLayer
 62
  256
370
   -1
100
AcDbLine
 10
-0.7885673046112061
 20
0.5700182318687439
 11
-0.7881617546081543
 21
0.5700581669807434
  0
LINE
  5
1CF
100
AcDbEntity
  8
profiling
  6
ByLayer
 62
  256
370
   -1
100
AcDbLine
 10
-0.7881617546081543
 20
0.5700581669807434
 11
-0.7877717614173889
 21
0.5701765418052673
  0
LINE
  5
1D0
100
AcDbEntity
  8
profiling
  6
ByLayer
 62
  256
370
   -1
100
AcDbLine
 10
-0.7877717614173889
 20
0.5701765418052673
 11
-0.7874122858047485
 21
0.5703685879707336
  0
LINE
  5
1D1
100
AcDbEntity
  8
profiling
  6
ByLayer
 62
  256
370
   -1
100
AcDbLine
 10
-0.7874122858047485
 20
0.5703685879707336
 11
-0.7870973348617554
 21
0.5706272125244141
  0
LINE
  5
1D2
100
AcDbEntity
  8
profiling
  6
ByLayer
 62
  256
370
   -1
100
AcDbLine
 10
-0.7870973348617554
 20
0.5706272125244141
 11
-0.7868387699127197
 21
0.5709421634674072
  0
LINE
  5
1D3
100
AcDbEntity
  8
profiling
  6
ByLayer
 62
  256
370
   -1
100
AcDbLine
 10
-0.7868387699127197
 20
0.5709421634674072
 11
-0.7866466045379639
 21
0.5713015794754028
  0
LINE
  5
1D4
100
AcDbEntity
  8
profiling
  6
ByLayer
 62
  256
370
   -1
100
AcDbLine
 10
-0.7866466045379639
 20
0.5713015794754028
 11
-0.7865283489227295
 21
0.571691632270813
  0
LINE
  5
1D5
100
AcDbEntity
  8
profiling
  6
ByLayer
 62
  256
370
   -1
100
AcDbLine
 10
-0.7865283489227295
 20
0.571691632270813
 11
-0.7864883542060852
 21
0.5720972418785095
  0
LINE
  5
1D6
100
AcDbEntity
  8
profiling
  6
ByLayer
 62
  256
370
   -1
100
AcDbLine
 10
-0.7864883542060852
 20
0.5720972418785095
 11
-0.7865283489227295
 21
0.5725028514862061
  0
LINE
  5
1D7
100
AcDbEntity
  8
profiling
  6
ByLayer
 62
  256
370
   -1
100
AcDbLine
 10
-0.7865283489227295
 20
0.5725028514862061
 11
-0.7866466045379639
 21
0.5728927850723267
  0
LINE
  5
1D8
100
AcDbEntity
  8
profiling
  6
ByLayer
 62
  256
370
   -1
100
AcDbLine
 10
-0.7866466045379639
 20
0.5728927850723267
 11
-0.7868387699127197
 21
0.573252260684967
  0
LINE
  5
1D9
100
AcDbEntity
  8
profiling
  6
ByLayer
 62
  256
370
   -1
100
AcDbLine
 10
-0.7868387699127197
 20
0.573252260684967
 11
-0.7870973348617554
 21
0.573567271232605
  0
LINE
  5
1DA
100
AcDbEntity
  8
profiling
  6
ByLayer
 62
  256
370
   -1
100
AcDbLine
 10
-0.7870973348617554
 20
0.573567271232605
 11
-0.7874122858047485
 21
0.5738258361816406
  0
LINE
  5
1DB
100
AcDbEntity
  8
profiling
  6
ByLayer
 62
  256
370
   -1
100
AcDbLine
 10
-0.7874122858047485
 20
0.5738258361816406
 11
-0.7875796556472778
 21
0.5739153027534485
  0
LINE
  5
1DC
100
AcDbEntity
  8
profiling
  6
ByLayer
 62
  256
370
   -1
100
AcDbLine
 10
-0.7875796556472778
 20
0.5739153027534485
 11
-0.7877717614173889
 21
0.5740179419517517
  0
LINE
  5
1DD
100
AcDbEntity
  8
profiling
  6
ByLayer
 62
  256
370
   -1
100
AcDbLine
 10
-0.7877717614173889
 20
0.5740179419517517
 11
-0.7881617546081543
 21
0.5741362571716309
  0
LINE
  5
1DE
100
AcDbEntity
  8
profiling
  6
ByLayer
 62
  256
370
   -1
100
AcDbLine
 10
-0.7881617546081543
 20
0.5741362571716309
 11
-0.7885673046112061
 21
0.5741761922836304
  0
LINE
  5
1DF
100
AcDbEntity
  8
profiling
  6
ByLayer
 62
  256
370
   -1
100
AcDbLine
 10
-0.7885673046112061
 20
0.5741761922836304
 11
-0.7889729142189026
 21
0.5741362571716309
  0
LINE
  5
1E0
100
AcDbEntity
  8
profiling
  6
ByLayer
 62
  256
370
   -1
100
AcDbLine
 10
-0.7889729142189026
 20
0.5741362571716309
 11
-0.789362907409668
 21
0.5740179419517517
  0
LINE
  5
1E1
100
AcDbEntity
  8
profiling
  6
ByLayer
 62
  256
370
   -1
100
AcDbLine
 10
-0.7897223234176636
 20
0.5738258361816406
 11
-0.789362907409668
 21
0.5740179419517517
  0
ENDSEC
  0
SECTION
  2
OBJECTS
  0
DICTIONARY
  5
C
330
0
100
AcDbDictionary
281
    1
  3
ACAD_GROUP
350
D
  0
DICTIONARY
  5
D
330
C
100
AcDbDictionary
281
    1
  0
ENDSEC
  0
EOF
