999
dxfrw 0.6.3
  0
SECTION
  2
HEADER
  9
$ACADVER
  1
AC1021
  9
$DWGCODEPAGE
  3
ANSI_1252
  9
$INSBASE
 10
0
 20
0
 30
0
  9
$EXTMIN
 10
-0.5011215209960938
 20
0.08923332393169403
 30
0
  9
$EXTMAX
 10
-0.3211202025413513
 20
0.5886190533638
 30
0
  9
$LIMMIN
 10
0
 20
0
  9
$LIMMAX
 10
420
 20
297
  9
$ORTHOMODE
 70
    0
  9
$REGENMODE
 70
    1
  9
$FILLMODE
 70
    1
  9
$QTEXTMODE
 70
    0
  9
$MIRRTEXT
 70
    0
  9
$LTSCALE
 40
1
  9
$ATTMODE
 70
    0
  9
$TEXTSIZE
 40
2.5
  9
$TRACEWID
 40
15.68
  9
$TEXTSTYLE
  7
STANDARD
  9
$CLAYER
  8
0
  9
$CELTYPE
  6
BYLAYER
  9
$CECOLOR
 62
  256
  9
$CELTSCALE
 40
1
  9
$DISPSILH
 70
    0
  9
$DIMSCALE
 40
2.5
  9
$DIMASZ
 40
2.5
  9
$DIMEXO
 40
0.625
  9
$DIMDLI
 40
3.75
  9
$DIMRND
 40
0
  9
$DIMDLE
 40
0
  9
$DIMEXE
 40
1.25
  9
$DIMTP
 40
0
  9
$DIMTM
 40
0
  9
$DIMTXT
 40
2.5
  9
$DIMCEN
 40
2.5
  9
$DIMTSZ
 40
0
  9
$DIMTOL
 70
    0
  9
$DIMLIM
 70
    0
  9
$DIMTIH
 70
    0
  9
$DIMTOH
 70
    0
  9
$DIMSE1
 70
    0
  9
$DIMSE2
 70
    0
  9
$DIMTAD
 70
    1
  9
$DIMZIN
 70
    8
  9
$DIMBLK
  1

  9
$DIMASO
 70
    1
  9
$DIMSHO
 70
    1
  9
$DIMPOST
  1

  9
$DIMAPOST
  1

  9
$DIMALT
 70
    0
  9
$DIMALTD
 70
    3
  9
$DIMALTF
 40
0.03937
  9
$DIMLFAC
 40
1
  9
$DIMTOFL
 70
    1
  9
$DIMTVP
 40
0
  9
$DIMTIX
 70
    0
  9
$DIMSOXD
 70
    0
  9
$DIMSAH
 70
    0
  9
$DIMBLK1
  1

  9
$DIMBLK2
  1

  9
$DIMSTYLE
  2
Standard
  9
$DIMCLRD
 70
    0
  9
$DIMCLRE
 70
    0
  9
$DIMCLRT
 70
    0
  9
$DIMTFAC
 40
1
  9
$DIMGAP
 40
0.625
  9
$DIMJUST
 70
    0
  9
$DIMSD1
 70
    0
  9
$DIMSD2
 70
    0
  9
$DIMTOLJ
 70
    0
  9
$DIMTZIN
 70
    8
  9
$DIMALTZ
 70
    0
  9
$DIMALTTZ
 70
    0
  9
$DIMUPT
 70
    0
  9
$DIMDEC
 70
    2
  9
$DIMTDEC
 70
    2
  9
$DIMALTU
 70
    2
  9
$DIMALTTD
 70
    3
  9
$DIMTXSTY
  7
STANDARD
  9
$DIMAUNIT
 70
    0
  9
$DIMADEC
 70
    0
  9
$DIMALTRND
 40
0
  9
$DIMAZIN
 70
    0
  9
$DIMDSEP
 70
   44
  9
$DIMATFIT
 70
    3
  9
$DIMFRAC
 70
    0
  9
$DIMLDRBLK
  1
STANDARD
  9
$DIMLUNIT
 70
    2
  9
$DIMLWD
 70
   -2
  9
$DIMLWE
 70
   -2
  9
$DIMTMOVE
 70
    0
  9
$DIMFXL
 40
1
  9
$DIMFXLON
 70
    0
  9
$DIMJOGANG
 40
0.7854
  9
$DIMTFILL
 70
    0
  9
$DIMTFILLCLR
 70
    0
  9
$DIMARCSYM
 70
    0
  9
$DIMLTYPE
  6

  9
$DIMLTEX1
  6

  9
$DIMLTEX2
  6

  9
$LUNITS
 70
    2
  9
$LUPREC
 70
    4
  9
$SKETCHINC
 40
1
  9
$FILLETRAD
 40
0
  9
$AUNITS
 70
    0
  9
$AUPREC
 70
    2
  9
$MENU
  1
.
  9
$ELEVATION
 40
0
  9
$PELEVATION
 40
0
  9
$THICKNESS
 40
0
  9
$LIMCHECK
 70
    0
  9
$CHAMFERA
 40
0
  9
$CHAMFERB
 40
0
  9
$CHAMFERC
 40
0
  9
$CHAMFERD
 40
0
  9
$SKPOLY
 70
    0
  9
$USRTIMER
 70
    1
  9
$ANGBASE
 50
0
  9
$ANGDIR
 70
    0
  9
$PDMODE
 70
   34
  9
$PDSIZE
 40
0
  9
$PLINEWID
 40
0
  9
$SPLFRAME
 70
    0
  9
$SPLINETYPE
 70
    2
  9
$SPLINESEGS
 70
    8
  9
$HANDSEED
  5
20000
  9
$SURFTAB1
 70
    6
  9
$SURFTAB2
 70
    6
  9
$SURFTYPE
 70
    6
  9
$SURFU
 70
    6
  9
$SURFV
 70
    6
  9
$UCSBASE
  2

  9
$UCSNAME
  2

  9
$UCSORG
 10
0
 20
0
 30
0
  9
$UCSXDIR
 10
1
 20
0
 30
0
  9
$UCSYDIR
 10
0
 20
1
 30
0
  9
$UCSORTHOREF
  2

  9
$UCSORTHOVIEW
 70
    0
  9
$UCSORGTOP
 10
0
 20
0
 30
0
  9
$UCSORGBOTTOM
 10
0
 20
0
 30
0
  9
$UCSORGLEFT
 10
0
 20
0
 30
0
  9
$UCSORGRIGHT
 10
0
 20
0
 30
0
  9
$UCSORGFRONT
 10
0
 20
0
 30
0
  9
$UCSORGBACK
 10
0
 20
0
 30
0
  9
$PUCSBASE
  2

  9
$PUCSNAME
  2

  9
$PUCSORG
 10
0
 20
0
 30
0
  9
$PUCSXDIR
 10
1
 20
0
 30
0
  9
$PUCSYDIR
 10
0
 20
1
 30
0
  9
$PUCSORTHOREF
  2

  9
$PUCSORTHOVIEW
 70
    0
  9
$PUCSORGTOP
 10
0
 20
0
 30
0
  9
$PUCSORGBOTTOM
 10
0
 20
0
 30
0
  9
$PUCSORGLEFT
 10
0
 20
0
 30
0
  9
$PUCSORGRIGHT
 10
0
 20
0
 30
0
  9
$PUCSORGFRONT
 10
0
 20
0
 30
0
  9
$PUCSORGBACK
 10
0
 20
0
 30
0
  9
$USERI1
 70
    0
  9
$USERI2
 70
    0
  9
$USERI3
 70
    0
  9
$USERI4
 70
    0
  9
$USERI5
 70
    0
  9
$USERR1
 40
0
  9
$USERR2
 40
0
  9
$USERR3
 40
0
  9
$USERR4
 40
0
  9
$USERR5
 40
0
  9
$WORLDVIEW
 70
    1
  9
$SHADEDGE
 70
    3
  9
$SHADEDIF
 70
   70
  9
$TILEMODE
 70
    1
  9
$MAXACTVP
 70
   64
  9
$PINSBASE
 10
0
 20
0
 30
0
  9
$PLIMCHECK
 70
    0
  9
$PEXTMIN
 10
0
 20
0
 30
0
  9
$PEXTMAX
 10
0
 20
0
 30
0
  9
$GRIDMODE
 70
    0
  9
$SNAPSTYLE
 70
    0
  9
$PLIMMIN
 10
0
 20
0
  9
$PLIMMAX
 10
210
 20
297
  9
$UNITMODE
 70
    0
  9
$VISRETAIN
 70
    1
  9
$PLINEGEN
 70
    0
  9
$PSLTSCALE
 70
    1
  9
$TREEDEPTH
 70
 3020
  9
$CMLSTYLE
  2
Standard
  9
$CMLJUST
 70
    0
  9
$CMLSCALE
 40
20
  9
$PROXYGRAPHICS
 70
    1
  9
$MEASUREMENT
 70
    1
  9
$CELWEIGHT
370
   -1
  9
$ENDCAPS
280
    0
  9
$JOINSTYLE
280
    0
  9
$LWDISPLAY
290
    0
  9
$INSUNITS
 70
    4
  9
$HYPERLINKBASE
  1

  9
$STYLESHEET
  1

  9
$XEDIT
290
    1
  9
$CEPSNTYPE
380
    0
  9
$PSTYLEMODE
290
    1
  9
$EXTNAMES
290
    1
  9
$PSVPSCALE
 40
1
  9
$OLESTARTUP
290
    0
  9
$SORTENTS
280
  127
  9
$INDEXCTL
280
    0
  9
$HIDETEXT
280
    1
  9
$XCLIPFRAME
290
    0
  9
$HALOGAP
280
    0
  9
$OBSCOLOR
 70
  257
  9
$OBSLTYPE
280
    0
  9
$INTERSECTIONDISPLAY
280
    0
  9
$INTERSECTIONCOLOR
 70
  257
  9
$DIMASSOC
280
    1
  9
$PROJECTNAME
  1

  9
$CAMERADISPLAY
290
    0
  9
$LENSLENGTH
 40
50
  9
$CAMERAHEIGHT
 40
0
  9
$STEPSPERSEC
 40
2
  9
$STEPSIZE
 40
50
  9
$3DDWFPREC
 40
2
  9
$PSOLWIDTH
 40
5
  9
$PSOLHEIGHT
 40
80
  9
$LOFTANG1
 40
1.570796326794897
  9
$LOFTANG2
 40
1.570796326794897
  9
$LOFTMAG1
 40
0
  9
$LOFTMAG2
 40
0
  9
$LOFTPARAM
 70
    7
  9
$LOFTNORMALS
280
    1
  9
$LATITUDE
 40
1
  9
$LONGITUDE
 40
1
  9
$NORTHDIRECTION
 40
0
  9
$TIMEZONE
 70
-8000
  9
$LIGHTGLYPHDISPLAY
280
    1
  9
$TILEMODELIGHTSYNCH
280
    1
  9
$SOLIDHIST
280
    1
  9
$SHOWHIST
280
    1
  9
$DWFFRAME
280
    2
  9
$DGNFRAME
280
    0
  9
$REALWORLDSCALE
290
    1
  9
$INTERFERECOLOR
 62
    1
  9
$CSHADOW
280
    0
  9
$SHADOWPLANELOCATION
 40
0
  0
ENDSEC
  0
SECTION
  2
CLASSES
  0
ENDSEC
  0
SECTION
  2
TABLES
  0
TABLE
  2
VPORT
  5
8
330
0
100
AcDbSymbolTable
 70
    1
  0
VPORT
  5
31
330
2
100
AcDbSymbolTableRecord
100
AcDbViewportTableRecord
  2
*ACTIVE
 70
    0
 10
0
 20
0
 11
1
 21
1
 12
0.164951626906869
 22
0.3142727569092564
 13
0
 23
0
 14
10
 24
10
 15
10
 25
10
 16
0
 26
0
 36
1
 17
0
 27
0
 37
0
 40
0.5826517143968437
 41
2.527397260273973
 42
50
 43
0
 44
0
 50
0
 51
0
 71
    0
 72
  100
 73
    1
 74
    3
 75
    0
 76
    0
 77
    0
 78
    0
281
    0
 65
    1
110
0
120
0
130
0
111
1
121
0
131
0
112
0
122
1
132
0
 79
    0
146
0
348
10020
 60
    7
 61
    5
292
1
282
    1
141
0
142
0
 63
  250
421
3358443
  0
ENDTAB
  0
TABLE
  2
LTYPE
  5
5
330
0
100
AcDbSymbolTable
 70
    4
  0
LTYPE
  5
14
330
5
100
AcDbSymbolTableRecord
100
AcDbLinetypeTableRecord
  2
ByBlock
 70
    0
  3

 72
   65
 73
    0
 40
0
  0
LTYPE
  5
15
330
5
100
AcDbSymbolTableRecord
100
AcDbLinetypeTableRecord
  2
ByLayer
 70
    0
  3

 72
   65
 73
    0
 40
0
  0
LTYPE
  5
16
330
5
100
AcDbSymbolTableRecord
100
AcDbLinetypeTableRecord
  2
Continuous
 70
    0
  3
Solid line
 72
   65
 73
    0
 40
0
  0
LTYPE
  5
32
330
5
100
AcDbSymbolTableRecord
100
AcDbLinetypeTableRecord
  2
DOT
 70
    0
  3
Dot . . . . . . . . . . . . . . . . . . . . . .
 72
   65
 73
    2
 40
6.35
 49
0
 74
    0
 49
-6.35
 74
    0
  0
LTYPE
  5
33
330
5
100
AcDbSymbolTableRecord
100
AcDbLinetypeTableRecord
  2
DOTTINY
 70
    0
  3
Dot (.15x) .....................................
 72
   65
 73
    2
 40
0.9525
 49
0
 74
    0
 49
-0.9525
 74
    0
  0
LTYPE
  5
34
330
5
100
AcDbSymbolTableRecord
100
AcDbLinetypeTableRecord
  2
DOT2
 70
    0
  3
Dot (.5x) .....................................
 72
   65
 73
    2
 40
3.175
 49
0
 74
    0
 49
-3.175
 74
    0
  0
LTYPE
  5
35
330
5
100
AcDbSymbolTableRecord
100
AcDbLinetypeTableRecord
  2
DOTX2
 70
    0
  3
Dot (2x) .  .  .  .  .  .  .  .  .  .  .  .  .
 72
   65
 73
    2
 40
12.7
 49
0
 74
    0
 49
-12.7
 74
    0
  0
LTYPE
  5
36
330
5
100
AcDbSymbolTableRecord
100
AcDbLinetypeTableRecord
  2
DASHED
 70
    0
  3
Dashed _ _ _ _ _ _ _ _ _ _ _ _ _ _ _ _ _
 72
   65
 73
    2
 40
19.05
 49
12.7
 74
    0
 49
-6.35
 74
    0
  0
LTYPE
  5
37
330
5
100
AcDbSymbolTableRecord
100
AcDbLinetypeTableRecord
  2
DASHEDTINY
 70
    0
  3
Dashed (.15x) _ _ _ _ _ _ _ _ _ _ _ _ _ _ _ _ _
 72
   65
 73
    2
 40
2.8575
 49
1.905
 74
    0
 49
-0.9525
 74
    0
  0
LTYPE
  5
38
330
5
100
AcDbSymbolTableRecord
100
AcDbLinetypeTableRecord
  2
DASHED2
 70
    0
  3
Dashed (.5x) _ _ _ _ _ _ _ _ _ _ _ _ _ _ _ _ _
 72
   65
 73
    2
 40
9.524999999999999
 49
6.35
 74
    0
 49
-3.175
 74
    0
  0
LTYPE
  5
39
330
5
100
AcDbSymbolTableRecord
100
AcDbLinetypeTableRecord
  2
DASHEDX2
 70
    0
  3
Dashed (2x) ____  ____  ____  ____  ____  ___
 72
   65
 73
    2
 40
38.09999999999999
 49
25.4
 74
    0
 49
-12.7
 74
    0
  0
LTYPE
  5
3A
330
5
100
AcDbSymbolTableRecord
100
AcDbLinetypeTableRecord
  2
DASHDOT
 70
    0
  3
Dash dot __ . __ . __ . __ . __ . __ . __ . __
 72
   65
 73
    4
 40
25.4
 49
12.7
 74
    0
 49
-6.35
 74
    0
 49
0
 74
    0
 49
-6.35
 74
    0
  0
LTYPE
  5
3B
330
5
100
AcDbSymbolTableRecord
100
AcDbLinetypeTableRecord
  2
DASHDOTTINY
 70
    0
  3
Dash dot (.15x) _._._._._._._._._._._._._._._.
 72
   65
 73
    4
 40
3.81
 49
1.905
 74
    0
 49
-0.9525
 74
    0
 49
0
 74
    0
 49
-0.9525
 74
    0
  0
LTYPE
  5
3C
330
5
100
AcDbSymbolTableRecord
100
AcDbLinetypeTableRecord
  2
DASHDOT2
 70
    0
  3
Dash dot (.5x) _._._._._._._._._._._._._._._.
 72
   65
 73
    4
 40
12.7
 49
6.35
 74
    0
 49
-3.175
 74
    0
 49
0
 74
    0
 49
-3.175
 74
    0
  0
LTYPE
  5
3D
330
5
100
AcDbSymbolTableRecord
100
AcDbLinetypeTableRecord
  2
DASHDOTX2
 70
    0
  3
Dash dot (2x) ____  .  ____  .  ____  .  ___
 72
   65
 73
    4
 40
50.8
 49
25.4
 74
    0
 49
-12.7
 74
    0
 49
0
 74
    0
 49
-12.7
 74
    0
  0
LTYPE
  5
3E
330
5
100
AcDbSymbolTableRecord
100
AcDbLinetypeTableRecord
  2
DIVIDE
 70
    0
  3
Divide ____ . . ____ . . ____ . . ____ . . ____
 72
   65
 73
    6
 40
31.75
 49
12.7
 74
    0
 49
-6.35
 74
    0
 49
0
 74
    0
 49
-6.35
 74
    0
 49
0
 74
    0
 49
-6.35
 74
    0
  0
LTYPE
  5
3F
330
5
100
AcDbSymbolTableRecord
100
AcDbLinetypeTableRecord
  2
DIVIDETINY
 70
    0
  3
Divide (.15x) __..__..__..__..__..__..__..__.._
 72
   65
 73
    6
 40
4.7625
 49
1.905
 74
    0
 49
-0.9525
 74
    0
 49
0
 74
    0
 49
-0.9525
 74
    0
 49
0
 74
    0
 49
-0.9525
 74
    0
  0
LTYPE
  5
40
330
5
100
AcDbSymbolTableRecord
100
AcDbLinetypeTableRecord
  2
DIVIDE2
 70
    0
  3
Divide (.5x) __..__..__..__..__..__..__..__.._
 72
   65
 73
    6
 40
15.875
 49
6.35
 74
    0
 49
-3.175
 74
    0
 49
0
 74
    0
 49
-3.175
 74
    0
 49
0
 74
    0
 49
-3.175
 74
    0
  0
LTYPE
  5
41
330
5
100
AcDbSymbolTableRecord
100
AcDbLinetypeTableRecord
  2
DIVIDEX2
 70
    0
  3
Divide (2x) ________  .  .  ________  .  .  _
 72
   65
 73
    6
 40
63.5
 49
25.4
 74
    0
 49
-12.7
 74
    0
 49
0
 74
    0
 49
-12.7
 74
    0
 49
0
 74
    0
 49
-12.7
 74
    0
  0
LTYPE
  5
42
330
5
100
AcDbSymbolTableRecord
100
AcDbLinetypeTableRecord
  2
BORDER
 70
    0
  3
Border __ __ . __ __ . __ __ . __ __ . __ __ .
 72
   65
 73
    6
 40
44.45
 49
12.7
 74
    0
 49
-6.35
 74
    0
 49
12.7
 74
    0
 49
-6.35
 74
    0
 49
0
 74
    0
 49
-6.35
 74
    0
  0
LTYPE
  5
43
330
5
100
AcDbSymbolTableRecord
100
AcDbLinetypeTableRecord
  2
BORDERTINY
 70
    0
  3
Border (.15x) __.__.__.__.__.__.__.__.__.__.__.
 72
   65
 73
    6
 40
6.6675
 49
1.905
 74
    0
 49
-0.9525
 74
    0
 49
1.905
 74
    0
 49
-0.9525
 74
    0
 49
0
 74
    0
 49
-0.9525
 74
    0
  0
LTYPE
  5
44
330
5
100
AcDbSymbolTableRecord
100
AcDbLinetypeTableRecord
  2
BORDER2
 70
    0
  3
Border (.5x) __.__.__.__.__.__.__.__.__.__.__.
 72
   65
 73
    6
 40
22.225
 49
6.35
 74
    0
 49
-3.175
 74
    0
 49
6.35
 74
    0
 49
-3.175
 74
    0
 49
0
 74
    0
 49
-3.175
 74
    0
  0
LTYPE
  5
45
330
5
100
AcDbSymbolTableRecord
100
AcDbLinetypeTableRecord
  2
BORDERX2
 70
    0
  3
Border (2x) ____  ____  .  ____  ____  .  ___
 72
   65
 73
    6
 40
88.89999999999999
 49
25.4
 74
    0
 49
-12.7
 74
    0
 49
25.4
 74
    0
 49
-12.7
 74
    0
 49
0
 74
    0
 49
-12.7
 74
    0
  0
LTYPE
  5
46
330
5
100
AcDbSymbolTableRecord
100
AcDbLinetypeTableRecord
  2
CENTER
 70
    0
  3
Center ____ _ ____ _ ____ _ ____ _ ____ _ ____
 72
   65
 73
    4
 40
50.8
 49
31.75
 74
    0
 49
-6.35
 74
    0
 49
6.35
 74
    0
 49
-6.35
 74
    0
  0
LTYPE
  5
47
330
5
100
AcDbSymbolTableRecord
100
AcDbLinetypeTableRecord
  2
CENTERTINY
 70
    0
  3
Center (.15x) ___ _ ___ _ ___ _ ___ _ ___ _ ___
 72
   65
 73
    4
 40
7.619999999999999
 49
4.7625
 74
    0
 49
-0.9525
 74
    0
 49
0.9525
 74
    0
 49
-0.9525
 74
    0
  0
LTYPE
  5
48
330
5
100
AcDbSymbolTableRecord
100
AcDbLinetypeTableRecord
  2
CENTER2
 70
    0
  3
Center (.5x) ___ _ ___ _ ___ _ ___ _ ___ _ ___
 72
   65
 73
    4
 40
28.575
 49
19.05
 74
    0
 49
-3.175
 74
    0
 49
3.175
 74
    0
 49
-3.175
 74
    0
  0
LTYPE
  5
49
330
5
100
AcDbSymbolTableRecord
100
AcDbLinetypeTableRecord
  2
CENTERX2
 70
    0
  3
Center (2x) ________  __  ________  __  _____
 72
   65
 73
    4
 40
101.6
 49
63.5
 74
    0
 49
-12.7
 74
    0
 49
12.7
 74
    0
 49
-12.7
 74
    0
  0
ENDTAB
  0
TABLE
  2
LAYER
  5
2
330
0
100
AcDbSymbolTable
 70
    1
  0
LAYER
  5
10
330
2
100
AcDbSymbolTableRecord
100
AcDbLayerTableRecord
  2
0
 70
    0
 62
    7
  6
CONTINUOUS
370
    0
390
F
  0
LAYER
  5
4A
330
2
100
AcDbSymbolTableRecord
100
AcDbLayerTableRecord
  2
profiling
 70
    0
 62
    3
  6
CONTINUOUS
370
    0
390
F
  0
ENDTAB
  0
TABLE
  2
STYLE
  5
3
330
0
100
AcDbSymbolTable
 70
    3
  0
STYLE
  5
4B
330
2
100
AcDbSymbolTableRecord
100
AcDbTextStyleTableRecord
  2
Standard
 70
    0
 40
0
 41
1
 50
0
 71
    0
 42
1
  3
txt
  4

  0
ENDTAB
  0
TABLE
  2
VIEW
  5
6
330
0
100
AcDbSymbolTable
 70
    0
  0
ENDTAB
  0
TABLE
  2
UCS
  5
7
330
0
100
AcDbSymbolTable
 70
    0
  0
ENDTAB
  0
TABLE
  2
APPID
  5
9
330
0
100
AcDbSymbolTable
 70
    1
  0
APPID
  5
12
330
9
100
AcDbSymbolTableRecord
100
AcDbRegAppTableRecord
  2
ACAD
 70
    0
  0
APPID
  5
4C
330
9
100
AcDbSymbolTableRecord
100
AcDbRegAppTableRecord
  2
LibreCad
 70
    0
  0
ENDTAB
  0
TABLE
  2
DIMSTYLE
  5
A
330
0
100
AcDbSymbolTable
 70
    1
100
AcDbDimStyleTable
 71
    1
  0
DIMSTYLE
105
4D
330
A
100
AcDbSymbolTableRecord
100
AcDbDimStyleTableRecord
  2
Standard
 70
    0
 40
1
 41
2.5
 42
0.625
 43
0.38
 44
1.25
 45
0
 46
0
 47
0
 48
0
 49
1
140
2.5
141
0.09
142
2.5
143
25.4
144
1
145
0
146
1
147
0.625
148
0
 71
    0
 72
    0
 73
    0
 74
    1
 75
    0
 76
    0
 77
    0
 78
    1
 79
    0
170
    0
171
    2
172
    0
173
    0
174
    0
175
    0
176
    0
177
    0
178
    0
179
    0
271
    2
272
    4
273
    2
274
    2
275
    0
276
    0
277
    2
278
    0
279
    0
280
    0
281
    0
282
    0
283
    1
284
    0
285
    0
286
    0
288
    0
289
    3
340
standard
341

371
   -2
372
   -2
  0
ENDTAB
  0
TABLE
  2
BLOCK_RECORD
  5
1
330
0
100
AcDbSymbolTable
 70
    2
  0
BLOCK_RECORD
  5
1F
330
1
100
AcDbSymbolTableRecord
100
AcDbBlockTableRecord
  2
*Model_Space
 70
    0
280
    1
281
    0
  0
BLOCK_RECORD
  5
1E
330
1
100
AcDbSymbolTableRecord
100
AcDbBlockTableRecord
  2
*Paper_Space
 70
    0
280
    1
281
    0
  0
ENDTAB
  0
ENDSEC
  0
SECTION
  2
BLOCKS
  0
BLOCK
  5
20
330
1F
100
AcDbEntity
  8
0
100
AcDbBlockBegin
  2
*Model_Space
 70
    0
 10
0
 20
0
 30
0
  3
*Model_Space
  1

  0
ENDBLK
  5
21
330
1F
100
AcDbEntity
  8
0
100
AcDbBlockEnd
  0
BLOCK
  5
1C
330
1B
100
AcDbEntity
  8
0
100
AcDbBlockBegin
  2
*Paper_Space
 70
    0
 10
0
 20
0
 30
0
  3
*Paper_Space
  1

  0
ENDBLK
  5
1D
330
1F
100
AcDbEntity
  8
0
100
AcDbBlockEnd
  0
ENDSEC
  0
SECTION
  2
ENTITIES
  0
LINE
  5
4E
100
AcDbEntity
  8
profiling
  6
ByLayer
 62
  256
370
   -1
100
AcDbLine
 10
-0.4136195480823517
 20
0.489379346370697
 11
-0.4136075377464294
 21
0.4891343712806702
  0
LINE
  5
4F
100
AcDbEntity
  8
profiling
  6
ByLayer
 62
  256
370
   -1
100
AcDbLine
 10
-0.4136075377464294
 20
0.4891343712806702
 11
-0.4135715365409851
 21
0.4888918399810791
  0
LINE
  5
50
100
AcDbEntity
  8
profiling
  6
ByLayer
 62
  256
370
   -1
100
AcDbLine
 10
-0.4135715365409851
 20
0.4888918399810791
 11
-0.4135119318962097
 21
0.4886538982391357
  0
LINE
  5
51
100
AcDbEntity
  8
profiling
  6
ByLayer
 62
  256
370
   -1
100
AcDbLine
 10
-0.4135119318962097
 20
0.4886538982391357
 11
-0.413429319858551
 21
0.4884229898452759
  0
LINE
  5
52
100
AcDbEntity
  8
profiling
  6
ByLayer
 62
  256
370
   -1
100
AcDbLine
 10
-0.413429319858551
 20
0.4884229898452759
 11
-0.4133244752883911
 21
0.4882013201713562
  0
LINE
  5
53
100
AcDbEntity
  8
profiling
  6
ByLayer
 62
  256
370
   -1
100
AcDbLine
 10
-0.4133244752883911
 20
0.4882013201713562
 11
-0.4131984114646912
 21
0.4879909753799438
  0
LINE
  5
54
100
AcDbEntity
  8
profiling
  6
ByLayer
 62
  256
370
   -1
100
AcDbLine
 10
-0.4131984114646912
 20
0.4879909753799438
 11
-0.4130523204803467
 21
0.4877939820289612
  0
LINE
  5
55
100
AcDbEntity
  8
profiling
  6
ByLayer
 62
  256
370
   -1
100
AcDbLine
 10
-0.4128496646881104
 20
0.4875778555870056
 11
-0.4127058982849121
 21
0.4874475598335266
  0
LINE
  5
56
100
AcDbEntity
  8
profiling
  6
ByLayer
 62
  256
370
   -1
100
AcDbLine
 10
-0.4127058982849121
 20
0.4874475598335266
 11
-0.4125089347362518
 21
0.4873014688491821
  0
LINE
  5
57
100
AcDbEntity
  8
profiling
  6
ByLayer
 62
  256
370
   -1
100
AcDbLine
 10
-0.4125089347362518
 20
0.4873014688491821
 11
-0.4122985899448395
 21
0.4871754050254822
  0
LINE
  5
58
100
AcDbEntity
  8
profiling
  6
ByLayer
 62
  256
370
   -1
100
AcDbLine
 10
-0.4122985899448395
 20
0.4871754050254822
 11
-0.4120768904685974
 21
0.4870705604553223
  0
LINE
  5
59
100
AcDbEntity
  8
profiling
  6
ByLayer
 62
  256
370
   -1
100
AcDbLine
 10
-0.4120768904685974
 20
0.4870705604553223
 11
-0.4118459820747375
 21
0.4869879484176636
  0
LINE
  5
5A
100
AcDbEntity
  8
profiling
  6
ByLayer
 62
  256
370
   -1
100
AcDbLine
 10
-0.4118459820747375
 20
0.4869879484176636
 11
-0.411608099937439
 21
0.4869283437728882
  0
LINE
  5
5B
100
AcDbEntity
  8
profiling
  6
ByLayer
 62
  256
370
   -1
100
AcDbLine
 10
-0.411608099937439
 20
0.4869283437728882
 11
-0.4113655090332031
 21
0.4868923425674438
  0
LINE
  5
5C
100
AcDbEntity
  8
profiling
  6
ByLayer
 62
  256
370
   -1
100
AcDbLine
 10
-0.4113655090332031
 20
0.4868923425674438
 11
-0.4111205637454987
 21
0.486880362033844
  0
LINE
  5
5D
100
AcDbEntity
  8
profiling
  6
ByLayer
 62
  256
370
   -1
100
AcDbLine
 10
-0.4111205637454987
 20
0.486880362033844
 11
-0.4108756184577942
 21
0.4868923425674438
  0
LINE
  5
5E
100
AcDbEntity
  8
profiling
  6
ByLayer
 62
  256
370
   -1
100
AcDbLine
 10
-0.4108756184577942
 20
0.4868923425674438
 11
-0.4106330275535583
 21
0.4869283437728882
  0
LINE
  5
5F
100
AcDbEntity
  8
profiling
  6
ByLayer
 62
  256
370
   -1
100
AcDbLine
 10
-0.4106330275535583
 20
0.4869283437728882
 11
-0.4105192422866821
 21
0.4869568347930908
  0
LINE
  5
60
100
AcDbEntity
  8
profiling
  6
ByLayer
 62
  256
370
   -1
100
AcDbLine
 10
-0.4105192422866821
 20
0.4869568347930908
 11
-0.4103951454162598
 21
0.4869879484176636
  0
LINE
  5
61
100
AcDbEntity
  8
profiling
  6
ByLayer
 62
  256
370
   -1
100
AcDbLine
 10
-0.4103951454162598
 20
0.4869879484176636
 11
-0.4101642370223999
 21
0.4870705604553223
  0
LINE
  5
62
100
AcDbEntity
  8
profiling
  6
ByLayer
 62
  256
370
   -1
100
AcDbLine
 10
-0.4101642370223999
 20
0.4870705604553223
 11
-0.4099425375461578
 21
0.4871754050254822
  0
LINE
  5
63
100
AcDbEntity
  8
profiling
  6
ByLayer
 62
  256
370
   -1
100
AcDbLine
 10
-0.4099425375461578
 20
0.4871754050254822
 11
-0.4097321927547455
 21
0.4873014688491821
  0
LINE
  5
64
100
AcDbEntity
  8
profiling
  6
ByLayer
 62
  256
370
   -1
100
AcDbLine
 10
-0.4097321927547455
 20
0.4873014688491821
 11
-0.4095351994037628
 21
0.4874475598335266
  0
LINE
  5
65
100
AcDbEntity
  8
profiling
  6
ByLayer
 62
  256
370
   -1
100
AcDbLine
 10
-0.4095351994037628
 20
0.4874475598335266
 11
-0.409353494644165
 21
0.4876123070716858
  0
LINE
  5
66
100
AcDbEntity
  8
profiling
  6
ByLayer
 62
  256
370
   -1
100
AcDbLine
 10
-0.409353494644165
 20
0.4876123070716858
 11
-0.4091888070106506
 21
0.4877939820289612
  0
LINE
  5
67
100
AcDbEntity
  8
profiling
  6
ByLayer
 62
  256
370
   -1
100
AcDbLine
 10
-0.4091888070106506
 20
0.4877939820289612
 11
-0.4090427160263062
 21
0.4879909753799438
  0
LINE
  5
68
100
AcDbEntity
  8
profiling
  6
ByLayer
 62
  256
370
   -1
100
AcDbLine
 10
-0.4090427160263062
 20
0.4879909753799438
 11
-0.4089166522026062
 21
0.4882013201713562
  0
LINE
  5
69
100
AcDbEntity
  8
profiling
  6
ByLayer
 62
  256
370
   -1
100
AcDbLine
 10
-0.4089166522026062
 20
0.4882013201713562
 11
-0.4088117778301239
 21
0.4884229898452759
  0
LINE
  5
6A
100
AcDbEntity
  8
profiling
  6
ByLayer
 62
  256
370
   -1
100
AcDbLine
 10
-0.4088117778301239
 20
0.4884229898452759
 11
-0.4087291657924652
 21
0.4886538982391357
  0
LINE
  5
6B
100
AcDbEntity
  8
profiling
  6
ByLayer
 62
  256
370
   -1
100
AcDbLine
 10
-0.4087291657924652
 20
0.4886538982391357
 11
-0.4086695909500122
 21
0.4888918399810791
  0
LINE
  5
6C
100
AcDbEntity
  8
profiling
  6
ByLayer
 62
  256
370
   -1
100
AcDbLine
 10
-0.4086695909500122
 20
0.4888918399810791
 11
-0.4086335897445679
 21
0.4891343712806702
  0
LINE
  5
6D
100
AcDbEntity
  8
profiling
  6
ByLayer
 62
  256
370
   -1
100
AcDbLine
 10
-0.4086335897445679
 20
0.4891343712806702
 11
-0.4086215496063232
 21
0.489379346370697
  0
LINE
  5
6E
100
AcDbEntity
  8
profiling
  6
ByLayer
 62
  256
370
   -1
100
AcDbLine
 10
-0.4069640636444092
 20
0.4551775455474854
 11
-0.4075857400894165
 21
0.4559350609779358
  0
LINE
  5
6F
100
AcDbEntity
  8
profiling
  6
ByLayer
 62
  256
370
   -1
100
AcDbLine
 10
-0.4075857400894165
 20
0.4559350609779358
 11
-0.4083432555198669
 21
0.4565567970275879
  0
LINE
  5
70
100
AcDbEntity
  8
profiling
  6
ByLayer
 62
  256
370
   -1
100
AcDbLine
 10
-0.4083432555198669
 20
0.4565567970275879
 11
-0.4092075228691101
 21
0.4570187330245972
  0
LINE
  5
71
100
AcDbEntity
  8
profiling
  6
ByLayer
 62
  256
370
   -1
100
AcDbLine
 10
-0.4092075228691101
 20
0.4570187330245972
 11
-0.4101452827453613
 21
0.4573032259941101
  0
LINE
  5
72
100
AcDbEntity
  8
profiling
  6
ByLayer
 62
  256
370
   -1
100
AcDbLine
 10
-0.4101452827453613
 20
0.4573032259941101
 11
-0.4111205637454987
 21
0.4573992490768433
  0
LINE
  5
73
100
AcDbEntity
  8
profiling
  6
ByLayer
 62
  256
370
   -1
100
AcDbLine
 10
-0.4111205637454987
 20
0.4573992490768433
 11
-0.4120958149433136
 21
0.4573032259941101
  0
LINE
  5
74
100
AcDbEntity
  8
profiling
  6
ByLayer
 62
  256
370
   -1
100
AcDbLine
 10
-0.4120958149433136
 20
0.4573032259941101
 11
-0.4130336046218872
 21
0.4570187330245972
  0
LINE
  5
75
100
AcDbEntity
  8
profiling
  6
ByLayer
 62
  256
370
   -1
100
AcDbLine
 10
-0.4130336046218872
 20
0.4570187330245972
 11
-0.4132912158966064
 21
0.456881046295166
  0
LINE
  5
76
100
AcDbEntity
  8
profiling
  6
ByLayer
 62
  256
370
   -1
100
AcDbLine
 10
-0.4132912158966064
 20
0.456881046295166
 11
-0.413897842168808
 21
0.4565567970275879
  0
LINE
  5
77
100
AcDbEntity
  8
profiling
  6
ByLayer
 62
  256
370
   -1
100
AcDbLine
 10
-0.413897842168808
 20
0.4565567970275879
 11
-0.4146553874015808
 21
0.4559350609779358
  0
LINE
  5
78
100
AcDbEntity
  8
profiling
  6
ByLayer
 62
  256
370
   -1
100
AcDbLine
 10
-0.4146553874015808
 20
0.4559350609779358
 11
-0.4152770638465881
 21
0.4551775455474854
  0
LINE
  5
79
100
AcDbEntity
  8
profiling
  6
ByLayer
 62
  256
370
   -1
100
AcDbLine
 10
-0.4152770638465881
 20
0.4551775455474854
 11
-0.4157390296459198
 21
0.4543132781982422
  0
LINE
  5
7A
100
AcDbEntity
  8
profiling
  6
ByLayer
 62
  256
370
   -1
100
AcDbLine
 10
-0.4157390296459198
 20
0.4543132781982422
 11
-0.4160234928131104
 21
0.453375518321991
  0
LINE
  5
7B
100
AcDbEntity
  8
profiling
  6
ByLayer
 62
  256
370
   -1
100
AcDbLine
 10
-0.4160234928131104
 20
0.453375518321991
 11
-0.4161195456981659
 21
0.452400267124176
  0
LINE
  5
7C
100
AcDbEntity
  8
profiling
  6
ByLayer
 62
  256
370
   -1
100
AcDbLine
 10
-0.4161195456981659
 20
0.452400267124176
 11
-0.4160234928131104
 21
0.4514250159263611
  0
LINE
  5
7D
100
AcDbEntity
  8
profiling
  6
ByLayer
 62
  256
370
   -1
100
AcDbLine
 10
-0.4160234928131104
 20
0.4514250159263611
 11
-0.4157390296459198
 21
0.4504872560501099
  0
LINE
  5
7E
100
AcDbEntity
  8
profiling
  6
ByLayer
 62
  256
370
   -1
100
AcDbLine
 10
-0.4157390296459198
 20
0.4504872560501099
 11
-0.4152770638465881
 21
0.4496229887008667
  0
LINE
  5
7F
100
AcDbEntity
  8
profiling
  6
ByLayer
 62
  256
370
   -1
100
AcDbLine
 10
-0.4152770638465881
 20
0.4496229887008667
 11
-0.4146553874015808
 21
0.4488654732704163
  0
LINE
  5
80
100
AcDbEntity
  8
profiling
  6
ByLayer
 62
  256
370
   -1
100
AcDbLine
 10
-0.4146553874015808
 20
0.4488654732704163
 11
-0.413897842168808
 21
0.4482437372207642
  0
LINE
  5
81
100
AcDbEntity
  8
profiling
  6
ByLayer
 62
  256
370
   -1
100
AcDbLine
 10
-0.413897842168808
 20
0.4482437372207642
 11
-0.4130336046218872
 21
0.4477818012237549
  0
LINE
  5
82
100
AcDbEntity
  8
profiling
  6
ByLayer
 62
  256
370
   -1
100
AcDbLine
 10
-0.4130336046218872
 20
0.4477818012237549
 11
-0.4120958149433136
 21
0.4474973082542419
  0
LINE
  5
83
100
AcDbEntity
  8
profiling
  6
ByLayer
 62
  256
370
   -1
100
AcDbLine
 10
-0.4120958149433136
 20
0.4474973082542419
 11
-0.4111205637454987
 21
0.4474012851715088
  0
LINE
  5
84
100
AcDbEntity
  8
profiling
  6
ByLayer
 62
  256
370
   -1
100
AcDbLine
 10
-0.4111205637454987
 20
0.4474012851715088
 11
-0.4101452827453613
 21
0.4474973082542419
  0
LINE
  5
85
100
AcDbEntity
  8
profiling
  6
ByLayer
 62
  256
370
   -1
100
AcDbLine
 10
-0.4101452827453613
 20
0.4474973082542419
 11
-0.4098065197467804
 21
0.4476000666618347
  0
LINE
  5
86
100
AcDbEntity
  8
profiling
  6
ByLayer
 62
  256
370
   -1
100
AcDbLine
 10
-0.4098065197467804
 20
0.4476000666618347
 11
-0.4092075228691101
 21
0.4477818012237549
  0
LINE
  5
87
100
AcDbEntity
  8
profiling
  6
ByLayer
 62
  256
370
   -1
100
AcDbLine
 10
-0.4092075228691101
 20
0.4477818012237549
 11
-0.4083432555198669
 21
0.4482437372207642
  0
LINE
  5
88
100
AcDbEntity
  8
profiling
  6
ByLayer
 62
  256
370
   -1
100
AcDbLine
 10
-0.4083432555198669
 20
0.4482437372207642
 11
-0.4075857400894165
 21
0.4488654732704163
  0
LINE
  5
89
100
AcDbEntity
  8
profiling
  6
ByLayer
 62
  256
370
   -1
100
AcDbLine
 10
-0.4075857400894165
 20
0.4488654732704163
 11
-0.4069640636444092
 21
0.4496229887008667
  0
LINE
  5
8A
100
AcDbEntity
  8
profiling
  6
ByLayer
 62
  256
370
   -1
100
AcDbLine
 10
-0.4069640636444092
 20
0.4496229887008667
 11
-0.4065020978450775
 21
0.4504872560501099
  0
LINE
  5
8B
100
AcDbEntity
  8
profiling
  6
ByLayer
 62
  256
370
   -1
100
AcDbLine
 10
-0.4065020978450775
 20
0.4504872560501099
 11
-0.4062176048755646
 21
0.4514250159263611
  0
LINE
  5
8C
100
AcDbEntity
  8
profiling
  6
ByLayer
 62
  256
370
   -1
100
AcDbLine
 10
-0.4062176048755646
 20
0.4514250159263611
 11
-0.406121551990509
 21
0.452400267124176
  0
LINE
  5
8D
100
AcDbEntity
  8
profiling
  6
ByLayer
 62
  256
370
   -1
100
AcDbLine
 10
-0.406121551990509
 20
0.452400267124176
 11
-0.4062176048755646
 21
0.453375518321991
  0
LINE
  5
8E
100
AcDbEntity
  8
profiling
  6
ByLayer
 62
  256
370
   -1
100
AcDbLine
 10
-0.4062176048755646
 20
0.453375518321991
 11
-0.4065020978450775
 21
0.4543132781982422
  0
LINE
  5
8F
100
AcDbEntity
  8
profiling
  6
ByLayer
 62
  256
370
   -1
100
AcDbLine
 10
-0.4735795259475708
 20
0.5620600581169128
 11
-0.4735487997531891
 21
0.5617480874061584
  0
LINE
  5
90
100
AcDbEntity
  8
profiling
  6
ByLayer
 62
  256
370
   -1
100
AcDbLine
 10
-0.4735487997531891
 20
0.5617480874061584
 11
-0.4734578132629395
 21
0.5614481568336487
  0
LINE
  5
91
100
AcDbEntity
  8
profiling
  6
ByLayer
 62
  256
370
   -1
100
AcDbLine
 10
-0.4734578132629395
 20
0.5614481568336487
 11
-0.4733100533485413
 21
0.5611717104911804
  0
LINE
  5
92
100
AcDbEntity
  8
profiling
  6
ByLayer
 62
  256
370
   -1
100
AcDbLine
 10
-0.4733100533485413
 20
0.5611717104911804
 11
-0.4731112122535706
 21
0.5609294176101685
  0
LINE
  5
93
100
AcDbEntity
  8
profiling
  6
ByLayer
 62
  256
370
   -1
100
AcDbLine
 10
-0.4731112122535706
 20
0.5609294176101685
 11
-0.4728688895702362
 21
0.5607305765151978
  0
LINE
  5
94
100
AcDbEntity
  8
profiling
  6
ByLayer
 62
  256
370
   -1
100
AcDbLine
 10
-0.4728688895702362
 20
0.5607305765151978
 11
-0.4725924432277679
 21
0.5605828166007996
  0
LINE
  5
95
100
AcDbEntity
  8
profiling
  6
ByLayer
 62
  256
370
   -1
100
AcDbLine
 10
-0.4722924828529358
 20
0.5604918003082275
 11
-0.4719805419445038
 21
0.5604611039161682
  0
LINE
  5
96
100
AcDbEntity
  8
profiling
  6
ByLayer
 62
  256
370
   -1
100
AcDbLine
 10
-0.4719805419445038
 20
0.5604611039161682
 11
-0.4716686010360718
 21
0.5604918003082275
  0
LINE
  5
97
100
AcDbEntity
  8
profiling
  6
ByLayer
 62
  256
370
   -1
100
AcDbLine
 10
-0.4716686010360718
 20
0.5604918003082275
 11
-0.4713686406612396
 21
0.5605828166007996
  0
LINE
  5
98
100
AcDbEntity
  8
profiling
  6
ByLayer
 62
  256
370
   -1
100
AcDbLine
 10
-0.4713686406612396
 20
0.5605828166007996
 11
-0.4710921943187714
 21
0.5607305765151978
  0
LINE
  5
99
100
AcDbEntity
  8
profiling
  6
ByLayer
 62
  256
370
   -1
100
AcDbLine
 10
-0.4710921943187714
 20
0.5607305765151978
 11
-0.470849871635437
 21
0.5609294176101685
  0
LINE
  5
9A
100
AcDbEntity
  8
profiling
  6
ByLayer
 62
  256
370
   -1
100
AcDbLine
 10
-0.470849871635437
 20
0.5609294176101685
 11
-0.4706510305404663
 21
0.5611717104911804
  0
LINE
  5
9B
100
AcDbEntity
  8
profiling
  6
ByLayer
 62
  256
370
   -1
100
AcDbLine
 10
-0.4706510305404663
 20
0.5611717104911804
 11
-0.4705032706260681
 21
0.5614481568336487
  0
LINE
  5
9C
100
AcDbEntity
  8
profiling
  6
ByLayer
 62
  256
370
   -1
100
AcDbLine
 10
-0.4705032706260681
 20
0.5614481568336487
 11
-0.4704122841358185
 21
0.5617480874061584
  0
LINE
  5
9D
100
AcDbEntity
  8
profiling
  6
ByLayer
 62
  256
370
   -1
100
AcDbLine
 10
-0.4704122841358185
 20
0.5617480874061584
 11
-0.4703815579414368
 21
0.5620600581169128
  0
LINE
  5
9E
100
AcDbEntity
  8
profiling
  6
ByLayer
 62
  256
370
   -1
100
AcDbLine
 10
-0.4703815579414368
 20
0.5620600581169128
 11
-0.4704098105430603
 21
0.5623469948768616
  0
LINE
  5
9F
100
AcDbEntity
  8
profiling
  6
ByLayer
 62
  256
370
   -1
100
AcDbLine
 10
-0.4704603552818298
 20
0.562530517578125
 11
-0.4705032706260681
 21
0.5626720190048218
  0
LINE
  5
A0
100
AcDbEntity
  8
profiling
  6
ByLayer
 62
  256
370
   -1
100
AcDbLine
 10
-0.4705032706260681
 20
0.5626720190048218
 11
-0.4706510305404663
 21
0.56294846534729
  0
LINE
  5
A1
100
AcDbEntity
  8
profiling
  6
ByLayer
 62
  256
370
   -1
100
AcDbLine
 10
-0.4706510305404663
 20
0.56294846534729
 11
-0.470849871635437
 21
0.5631906986236572
  0
LINE
  5
A2
100
AcDbEntity
  8
profiling
  6
ByLayer
 62
  256
370
   -1
100
AcDbLine
 10
-0.470849871635437
 20
0.5631906986236572
 11
-0.4710921943187714
 21
0.5633895993232727
  0
LINE
  5
A3
100
AcDbEntity
  8
profiling
  6
ByLayer
 62
  256
370
   -1
100
AcDbLine
 10
-0.4710921943187714
 20
0.5633895993232727
 11
-0.4713686406612396
 21
0.5635372996330261
  0
LINE
  5
A4
100
AcDbEntity
  8
profiling
  6
ByLayer
 62
  256
370
   -1
100
AcDbLine
 10
-0.4713686406612396
 20
0.5635372996330261
 11
-0.4716686010360718
 21
0.5636283159255981
  0
LINE
  5
A5
100
AcDbEntity
  8
profiling
  6
ByLayer
 62
  256
370
   -1
100
AcDbLine
 10
-0.4716686010360718
 20
0.5636283159255981
 11
-0.4719805419445038
 21
0.5636590719223022
  0
LINE
  5
A6
100
AcDbEntity
  8
profiling
  6
ByLayer
 62
  256
370
   -1
100
AcDbLine
 10
-0.4719805419445038
 20
0.5636590719223022
 11
-0.4722924828529358
 21
0.5636283159255981
  0
LINE
  5
A7
100
AcDbEntity
  8
profiling
  6
ByLayer
 62
  256
370
   -1
100
AcDbLine
 10
-0.4722924828529358
 20
0.5636283159255981
 11
-0.4725924432277679
 21
0.5635372996330261
  0
LINE
  5
A8
100
AcDbEntity
  8
profiling
  6
ByLayer
 62
  256
370
   -1
100
AcDbLine
 10
-0.4725924432277679
 20
0.5635372996330261
 11
-0.4728688895702362
 21
0.5633895993232727
  0
LINE
  5
A9
100
AcDbEntity
  8
profiling
  6
ByLayer
 62
  256
370
   -1
100
AcDbLine
 10
-0.4728688895702362
 20
0.5633895993232727
 11
-0.4731112122535706
 21
0.5631906986236572
  0
LINE
  5
AA
100
AcDbEntity
  8
profiling
  6
ByLayer
 62
  256
370
   -1
100
AcDbLine
 10
-0.4731112122535706
 20
0.5631906986236572
 11
-0.4733100533485413
 21
0.56294846534729
  0
LINE
  5
AB
100
AcDbEntity
  8
profiling
  6
ByLayer
 62
  256
370
   -1
100
AcDbLine
 10
-0.4733100533485413
 20
0.56294846534729
 11
-0.47340327501297
 21
0.5627740621566772
  0
LINE
  5
AC
100
AcDbEntity
  8
profiling
  6
ByLayer
 62
  256
370
   -1
100
AcDbLine
 10
-0.47340327501297
 20
0.5627740621566772
 11
-0.4734578132629395
 21
0.5626720190048218
  0
LINE
  5
AD
100
AcDbEntity
  8
profiling
  6
ByLayer
 62
  256
370
   -1
100
AcDbLine
 10
-0.4734578132629395
 20
0.5626720190048218
 11
-0.4735487997531891
 21
0.5623720288276672
  0
LINE
  5
AE
100
AcDbEntity
  8
profiling
  6
ByLayer
 62
  256
370
   -1
100
AcDbLine
 10
-0.4903171956539154
 20
0.5470662117004395
 11
-0.4907110035419464
 21
0.5471856594085693
  0
LINE
  5
AF
100
AcDbEntity
  8
profiling
  6
ByLayer
 62
  256
370
   -1
100
AcDbLine
 10
-0.4907110035419464
 20
0.5471856594085693
 11
-0.4911204874515533
 21
0.5472260117530823
  0
LINE
  5
B0
100
AcDbEntity
  8
profiling
  6
ByLayer
 62
  256
370
   -1
100
AcDbLine
 10
-0.4911204874515533
 20
0.5472260117530823
 11
-0.4915299713611603
 21
0.5471856594085693
  0
LINE
  5
B1
100
AcDbEntity
  8
profiling
  6
ByLayer
 62
  256
370
   -1
100
AcDbLine
 10
-0.4915299713611603
 20
0.5471856594085693
 11
-0.4919236898422241
 21
0.5470662117004395
  0
LINE
  5
B2
100
AcDbEntity
  8
profiling
  6
ByLayer
 62
  256
370
   -1
100
AcDbLine
 10
-0.4919236898422241
 20
0.5470662117004395
 11
-0.4920419156551361
 21
0.5470030307769775
  0
LINE
  5
B3
100
AcDbEntity
  8
profiling
  6
ByLayer
 62
  256
370
   -1
100
AcDbLine
 10
-0.4920419156551361
 20
0.5470030307769775
 11
-0.4922865927219391
 21
0.5468722581863403
  0
LINE
  5
B4
100
AcDbEntity
  8
profiling
  6
ByLayer
 62
  256
370
   -1
100
AcDbLine
 10
-0.4922865927219391
 20
0.5468722581863403
 11
-0.4924960732460022
 21
0.5467003583908081
  0
LINE
  5
B5
100
AcDbEntity
  8
profiling
  6
ByLayer
 62
  256
370
   -1
100
AcDbLine
 10
-0.4924960732460022
 20
0.5467003583908081
 11
-0.4926047027111053
 21
0.5466112494468689
  0
LINE
  5
B6
100
AcDbEntity
  8
profiling
  6
ByLayer
 62
  256
370
   -1
100
AcDbLine
 10
-0.4926047027111053
 20
0.5466112494468689
 11
-0.4928657114505768
 21
0.5462931990623474
  0
LINE
  5
B7
100
AcDbEntity
  8
profiling
  6
ByLayer
 62
  256
370
   -1
100
AcDbLine
 10
-0.4928657114505768
 20
0.5462931990623474
 11
-0.4930596947669983
 21
0.5459303259849548
  0
LINE
  5
B8
100
AcDbEntity
  8
profiling
  6
ByLayer
 62
  256
370
   -1
100
AcDbLine
 10
-0.4930596947669983
 20
0.5459303259849548
 11
-0.4931791126728058
 21
0.5455365777015686
  0
LINE
  5
B9
100
AcDbEntity
  8
profiling
  6
ByLayer
 62
  256
370
   -1
100
AcDbLine
 10
-0.4931791126728058
 20
0.5455365777015686
 11
-0.4932194650173187
 21
0.5451270341873169
  0
LINE
  5
BA
100
AcDbEntity
  8
profiling
  6
ByLayer
 62
  256
370
   -1
100
AcDbLine
 10
-0.4932194650173187
 20
0.5451270341873169
 11
-0.4931791126728058
 21
0.54471755027771
  0
LINE
  5
BB
100
AcDbEntity
  8
profiling
  6
ByLayer
 62
  256
370
   -1
100
AcDbLine
 10
-0.4931791126728058
 20
0.54471755027771
 11
-0.4930596947669983
 21
0.5443238019943237
  0
LINE
  5
BC
100
AcDbEntity
  8
profiling
  6
ByLayer
 62
  256
370
   -1
100
AcDbLine
 10
-0.4930596947669983
 20
0.5443238019943237
 11
-0.4928657114505768
 21
0.5439608693122864
  0
LINE
  5
BD
100
AcDbEntity
  8
profiling
  6
ByLayer
 62
  256
370
   -1
100
AcDbLine
 10
-0.4928657114505768
 20
0.5439608693122864
 11
-0.4926047027111053
 21
0.5436428189277649
  0
LINE
  5
BE
100
AcDbEntity
  8
profiling
  6
ByLayer
 62
  256
370
   -1
100
AcDbLine
 10
-0.4926047027111053
 20
0.5436428189277649
 11
-0.4922865927219391
 21
0.5433818101882935
  0
LINE
  5
BF
100
AcDbEntity
  8
profiling
  6
ByLayer
 62
  256
370
   -1
100
AcDbLine
 10
-0.4922865927219391
 20
0.5433818101882935
 11
-0.4919236898422241
 21
0.5431878566741943
  0
LINE
  5
C0
100
AcDbEntity
  8
profiling
  6
ByLayer
 62
  256
370
   -1
100
AcDbLine
 10
-0.4919236898422241
 20
0.5431878566741943
 11
-0.4915299713611603
 21
0.5430684089660645
  0
LINE
  5
C1
100
AcDbEntity
  8
profiling
  6
ByLayer
 62
  256
370
   -1
100
AcDbLine
 10
-0.4915299713611603
 20
0.5430684089660645
 11
-0.4912777841091156
 21
0.5430435538291931
  0
LINE
  5
C2
100
AcDbEntity
  8
profiling
  6
ByLayer
 62
  256
370
   -1
100
AcDbLine
 10
-0.4912777841091156
 20
0.5430435538291931
 11
-0.4911204874515533
 21
0.5430280566215515
  0
LINE
  5
C3
100
AcDbEntity
  8
profiling
  6
ByLayer
 62
  256
370
   -1
100
AcDbLine
 10
-0.4911204874515533
 20
0.5430280566215515
 11
-0.4907110035419464
 21
0.5430684089660645
  0
LINE
  5
C4
100
AcDbEntity
  8
profiling
  6
ByLayer
 62
  256
370
   -1
100
AcDbLine
 10
-0.4907110035419464
 20
0.5430684089660645
 11
-0.4903171956539154
 21
0.5431878566741943
  0
LINE
  5
C5
100
AcDbEntity
  8
profiling
  6
ByLayer
 62
  256
370
   -1
100
AcDbLine
 10
-0.4903171956539154
 20
0.5431878566741943
 11
-0.4899543225765228
 21
0.5433818101882935
  0
LINE
  5
C6
100
AcDbEntity
  8
profiling
  6
ByLayer
 62
  256
370
   -1
100
AcDbLine
 10
-0.4899543225765228
 20
0.5433818101882935
 11
-0.489636242389679
 21
0.5436428189277649
  0
LINE
  5
C7
100
AcDbEntity
  8
profiling
  6
ByLayer
 62
  256
370
   -1
100
AcDbLine
 10
-0.489636242389679
 20
0.5436428189277649
 11
-0.4893752038478851
 21
0.5439608693122864
  0
LINE
  5
C8
100
AcDbEntity
  8
profiling
  6
ByLayer
 62
  256
370
   -1
100
AcDbLine
 10
-0.4893752038478851
 20
0.5439608693122864
 11
-0.4891812801361084
 21
0.5443238019943237
  0
LINE
  5
C9
100
AcDbEntity
  8
profiling
  6
ByLayer
 62
  256
370
   -1
100
AcDbLine
 10
-0.4891812801361084
 20
0.5443238019943237
 11
-0.4890618026256561
 21
0.54471755027771
  0
LINE
  5
CA
100
AcDbEntity
  8
profiling
  6
ByLayer
 62
  256
370
   -1
100
AcDbLine
 10
-0.4890618026256561
 20
0.54471755027771
 11
-0.4890214502811432
 21
0.5451270341873169
  0
LINE
  5
CB
100
AcDbEntity
  8
profiling
  6
ByLayer
 62
  256
370
   -1
100
AcDbLine
 10
-0.4890214502811432
 20
0.5451270341873169
 11
-0.4890618026256561
 21
0.5455365777015686
  0
LINE
  5
CC
100
AcDbEntity
  8
profiling
  6
ByLayer
 62
  256
370
   -1
100
AcDbLine
 10
-0.4890618026256561
 20
0.5455365777015686
 11
-0.4891812801361084
 21
0.5459303259849548
  0
LINE
  5
CD
100
AcDbEntity
  8
profiling
  6
ByLayer
 62
  256
370
   -1
100
AcDbLine
 10
-0.4891812801361084
 20
0.5459303259849548
 11
-0.4893752038478851
 21
0.5462931990623474
  0
LINE
  5
CE
100
AcDbEntity
  8
profiling
  6
ByLayer
 62
  256
370
   -1
100
AcDbLine
 10
-0.4893752038478851
 20
0.5462931990623474
 11
-0.489636242389679
 21
0.5466112494468689
  0
LINE
  5
CF
100
AcDbEntity
  8
profiling
  6
ByLayer
 62
  256
370
   -1
100
AcDbLine
 10
-0.489636242389679
 20
0.5466112494468689
 11
-0.4899543225765228
 21
0.5468722581863403
  0
LINE
  5
D0
100
AcDbEntity
  8
profiling
  6
ByLayer
 62
  256
370
   -1
100
AcDbLine
 10
-0.4893752038478851
 20
0.3282931447029114
 11
-0.4896362721920013
 21
0.3286111950874329
  0
LINE
  5
D1
100
AcDbEntity
  8
profiling
  6
ByLayer
 62
  256
370
   -1
100
AcDbLine
 10
-0.4896362721920013
 20
0.3286111950874329
 11
-0.4899543225765228
 21
0.3288722634315491
  0
LINE
  5
D2
100
AcDbEntity
  8
profiling
  6
ByLayer
 62
  256
370
   -1
100
AcDbLine
 10
-0.4899543225765228
 20
0.3288722634315491
 11
-0.4903171956539154
 21
0.3290662169456482
  0
LINE
  5
D3
100
AcDbEntity
  8
profiling
  6
ByLayer
 62
  256
370
   -1
100
AcDbLine
 10
-0.4903171956539154
 20
0.3290662169456482
 11
-0.4907110035419464
 21
0.3291856646537781
  0
LINE
  5
D4
100
AcDbEntity
  8
profiling
  6
ByLayer
 62
  256
370
   -1
100
AcDbLine
 10
-0.4907110035419464
 20
0.3291856646537781
 11
-0.4911204874515533
 21
0.329226016998291
  0
LINE
  5
D5
100
AcDbEntity
  8
profiling
  6
ByLayer
 62
  256
370
   -1
100
AcDbLine
 10
-0.4911204874515533
 20
0.329226016998291
 11
-0.4912904798984528
 21
0.3292092680931091
  0
LINE
  5
D6
100
AcDbEntity
  8
profiling
  6
ByLayer
 62
  256
370
   -1
100
AcDbLine
 10
-0.4915300011634827
 20
0.3291856646537781
 11
-0.4919237196445465
 21
0.3290662169456482
  0
LINE
  5
D7
100
AcDbEntity
  8
profiling
  6
ByLayer
 62
  256
370
   -1
100
AcDbLine
 10
-0.4919237196445465
 20
0.3290662169456482
 11
-0.4922865927219391
 21
0.3288722634315491
  0
LINE
  5
D8
100
AcDbEntity
  8
profiling
  6
ByLayer
 62
  256
370
   -1
100
AcDbLine
 10
-0.4922865927219391
 20
0.3288722634315491
 11
-0.4926047027111053
 21
0.3286111950874329
  0
LINE
  5
D9
100
AcDbEntity
  8
profiling
  6
ByLayer
 62
  256
370
   -1
100
AcDbLine
 10
-0.4926047027111053
 20
0.3286111950874329
 11
-0.4928657114505768
 21
0.3282931447029114
  0
LINE
  5
DA
100
AcDbEntity
  8
profiling
  6
ByLayer
 62
  256
370
   -1
100
AcDbLine
 10
-0.4928657114505768
 20
0.3282931447029114
 11
-0.4930597245693207
 21
0.3279302716255188
  0
LINE
  5
DB
100
AcDbEntity
  8
profiling
  6
ByLayer
 62
  256
370
   -1
100
AcDbLine
 10
-0.4930597245693207
 20
0.3279302716255188
 11
-0.4931791424751282
 21
0.3275365233421326
  0
LINE
  5
DC
100
AcDbEntity
  8
profiling
  6
ByLayer
 62
  256
370
   -1
100
AcDbLine
 10
-0.4931791424751282
 20
0.3275365233421326
 11
-0.4932194650173187
 21
0.3271269798278809
  0
LINE
  5
DD
100
AcDbEntity
  8
profiling
  6
ByLayer
 62
  256
370
   -1
100
AcDbLine
 10
-0.4932194650173187
 20
0.3271269798278809
 11
-0.4932036697864532
 21
0.3269665241241455
  0
LINE
  5
DE
100
AcDbEntity
  8
profiling
  6
ByLayer
 62
  256
370
   -1
100
AcDbLine
 10
-0.4932036697864532
 20
0.3269665241241455
 11
-0.4931791424751282
 21
0.3267175555229187
  0
LINE
  5
DF
100
AcDbEntity
  8
profiling
  6
ByLayer
 62
  256
370
   -1
100
AcDbLine
 10
-0.4931791424751282
 20
0.3267175555229187
 11
-0.4930990934371948
 21
0.3264536261558533
  0
LINE
  5
E0
100
AcDbEntity
  8
profiling
  6
ByLayer
 62
  256
370
   -1
100
AcDbLine
 10
-0.4930990934371948
 20
0.3264536261558533
 11
-0.4930597245693207
 21
0.3263237476348877
  0
LINE
  5
E1
100
AcDbEntity
  8
profiling
  6
ByLayer
 62
  256
370
   -1
100
AcDbLine
 10
-0.4930597245693207
 20
0.3263237476348877
 11
-0.4928657114505768
 21
0.3259608745574951
  0
LINE
  5
E2
100
AcDbEntity
  8
profiling
  6
ByLayer
 62
  256
370
   -1
100
AcDbLine
 10
-0.4928657114505768
 20
0.3259608745574951
 11
-0.4926047027111053
 21
0.3256428241729736
  0
LINE
  5
E3
100
AcDbEntity
  8
profiling
  6
ByLayer
 62
  256
370
   -1
100
AcDbLine
 10
-0.4926047027111053
 20
0.3256428241729736
 11
-0.4922865927219391
 21
0.3253817558288574
  0
LINE
  5
E4
100
AcDbEntity
  8
profiling
  6
ByLayer
 62
  256
370
   -1
100
AcDbLine
 10
-0.4922865927219391
 20
0.3253817558288574
 11
-0.4919237196445465
 21
0.3251878023147583
  0
LINE
  5
E5
100
AcDbEntity
  8
profiling
  6
ByLayer
 62
  256
370
   -1
100
AcDbLine
 10
-0.4919237196445465
 20
0.3251878023147583
 11
-0.4915300011634827
 21
0.3250683546066284
  0
LINE
  5
E6
100
AcDbEntity
  8
profiling
  6
ByLayer
 62
  256
370
   -1
100
AcDbLine
 10
-0.4915300011634827
 20
0.3250683546066284
 11
-0.4911204874515533
 21
0.3250280022621155
  0
LINE
  5
E7
100
AcDbEntity
  8
profiling
  6
ByLayer
 62
  256
370
   -1
100
AcDbLine
 10
-0.4911204874515533
 20
0.3250280022621155
 11
-0.4907110035419464
 21
0.3250683546066284
  0
LINE
  5
E8
100
AcDbEntity
  8
profiling
  6
ByLayer
 62
  256
370
   -1
100
AcDbLine
 10
-0.4907110035419464
 20
0.3250683546066284
 11
-0.4903171956539154
 21
0.3251878023147583
  0
LINE
  5
E9
100
AcDbEntity
  8
profiling
  6
ByLayer
 62
  256
370
   -1
100
AcDbLine
 10
-0.4903171956539154
 20
0.3251878023147583
 11
-0.4899543225765228
 21
0.3253817558288574
  0
LINE
  5
EA
100
AcDbEntity
  8
profiling
  6
ByLayer
 62
  256
370
   -1
100
AcDbLine
 10
-0.4899543225765228
 20
0.3253817558288574
 11
-0.4896362721920013
 21
0.3256428241729736
  0
LINE
  5
EB
100
AcDbEntity
  8
profiling
  6
ByLayer
 62
  256
370
   -1
100
AcDbLine
 10
-0.4896362721920013
 20
0.3256428241729736
 11
-0.4893752038478851
 21
0.3259608745574951
  0
LINE
  5
EC
100
AcDbEntity
  8
profiling
  6
ByLayer
 62
  256
370
   -1
100
AcDbLine
 10
-0.4893752038478851
 20
0.3259608745574951
 11
-0.4891813099384308
 21
0.3263237476348877
  0
LINE
  5
ED
100
AcDbEntity
  8
profiling
  6
ByLayer
 62
  256
370
   -1
100
AcDbLine
 10
-0.4891813099384308
 20
0.3263237476348877
 11
-0.4890618026256561
 21
0.3267175555229187
  0
LINE
  5
EE
100
AcDbEntity
  8
profiling
  6
ByLayer
 62
  256
370
   -1
100
AcDbLine
 10
-0.4890618026256561
 20
0.3267175555229187
 11
-0.4890214502811432
 21
0.3271270394325256
  0
LINE
  5
EF
100
AcDbEntity
  8
profiling
  6
ByLayer
 62
  256
370
   -1
100
AcDbLine
 10
-0.4890214502811432
 20
0.3271270394325256
 11
-0.4890618026256561
 21
0.3275365233421326
  0
LINE
  5
F0
100
AcDbEntity
  8
profiling
  6
ByLayer
 62
  256
370
   -1
100
AcDbLine
 10
-0.4890618026256561
 20
0.3275365233421326
 11
-0.4891813099384308
 21
0.3279302716255188
  0
LINE
  5
F1
100
AcDbEntity
  8
profiling
  6
ByLayer
 62
  256
370
   -1
100
AcDbLine
 10
-0.4896362721920013
 20
0.1106111854314804
 11
-0.4899543225765228
 21
0.1108722537755966
  0
LINE
  5
F2
100
AcDbEntity
  8
profiling
  6
ByLayer
 62
  256
370
   -1
100
AcDbLine
 10
-0.4899543225765228
 20
0.1108722537755966
 11
-0.4903172254562378
 21
0.1110662072896957
  0
LINE
  5
F3
100
AcDbEntity
  8
profiling
  6
ByLayer
 62
  256
370
   -1
100
AcDbLine
 10
-0.4903172254562378
 20
0.1110662072896957
 11
-0.4907110035419464
 21
0.1111856549978256
  0
LINE
  5
F4
100
AcDbEntity
  8
profiling
  6
ByLayer
 62
  256
370
   -1
100
AcDbLine
 10
-0.4907110035419464
 20
0.1111856549978256
 11
-0.4911205172538757
 21
0.1112259775400162
  0
LINE
  5
F5
100
AcDbEntity
  8
profiling
  6
ByLayer
 62
  256
370
   -1
100
AcDbLine
 10
-0.4911205172538757
 20
0.1112259775400162
 11
-0.4915300011634827
 21
0.1111856549978256
  0
LINE
  5
F6
100
AcDbEntity
  8
profiling
  6
ByLayer
 62
  256
370
   -1
100
AcDbLine
 10
-0.4915300011634827
 20
0.1111856549978256
 11
-0.4919237196445465
 21
0.1110662072896957
  0
LINE
  5
F7
100
AcDbEntity
  8
profiling
  6
ByLayer
 62
  256
370
   -1
100
AcDbLine
 10
-0.4919237196445465
 20
0.1110662072896957
 11
-0.4922865927219391
 21
0.1108722537755966
  0
LINE
  5
F8
100
AcDbEntity
  8
profiling
  6
ByLayer
 62
  256
370
   -1
100
AcDbLine
 10
-0.4922865927219391
 20
0.1108722537755966
 11
-0.4926047027111053
 21
0.1106111854314804
  0
LINE
  5
F9
100
AcDbEntity
  8
profiling
  6
ByLayer
 62
  256
370
   -1
100
AcDbLine
 10
-0.4926047027111053
 20
0.1106111854314804
 11
-0.4928657114505768
 21
0.1102931350469589
  0
LINE
  5
FA
100
AcDbEntity
  8
profiling
  6
ByLayer
 62
  256
370
   -1
100
AcDbLine
 10
-0.4928657114505768
 20
0.1102931350469589
 11
-0.4930597245693207
 21
0.1099302470684052
  0
LINE
  5
FB
100
AcDbEntity
  8
profiling
  6
ByLayer
 62
  256
370
   -1
100
AcDbLine
 10
-0.4930597245693207
 20
0.1099302470684052
 11
-0.4931791424751282
 21
0.1095364987850189
  0
LINE
  5
FC
100
AcDbEntity
  8
profiling
  6
ByLayer
 62
  256
370
   -1
100
AcDbLine
 10
-0.4931791424751282
 20
0.1095364987850189
 11
-0.4932194650173187
 21
0.1091269999742508
  0
LINE
  5
FD
100
AcDbEntity
  8
profiling
  6
ByLayer
 62
  256
370
   -1
100
AcDbLine
 10
-0.4932194650173187
 20
0.1091269999742508
 11
-0.4931791424751282
 21
0.1087175011634827
  0
LINE
  5
FE
100
AcDbEntity
  8
profiling
  6
ByLayer
 62
  256
370
   -1
100
AcDbLine
 10
-0.4931791424751282
 20
0.1087175011634827
 11
-0.4930597245693207
 21
0.1083237528800964
  0
LINE
  5
FF
100
AcDbEntity
  8
profiling
  6
ByLayer
 62
  256
370
   -1
100
AcDbLine
 10
-0.4930597245693207
 20
0.1083237528800964
 11
-0.4928657114505768
 21
0.1079608649015427
  0
LINE
  5
100
100
AcDbEntity
  8
profiling
  6
ByLayer
 62
  256
370
   -1
100
AcDbLine
 10
-0.4928657114505768
 20
0.1079608649015427
 11
-0.4927874207496643
 21
0.1078654676675797
  0
LINE
  5
101
100
AcDbEntity
  8
profiling
  6
ByLayer
 62
  256
370
   -1
100
AcDbLine
 10
-0.4927874207496643
 20
0.1078654676675797
 11
-0.4926047027111053
 21
0.1076427847146988
  0
LINE
  5
102
100
AcDbEntity
  8
profiling
  6
ByLayer
 62
  256
370
   -1
100
AcDbLine
 10
-0.4926047027111053
 20
0.1076427847146988
 11
-0.4922865927219391
 21
0.107381746172905
  0
LINE
  5
103
100
AcDbEntity
  8
profiling
  6
ByLayer
 62
  256
370
   -1
100
AcDbLine
 10
-0.4922865927219391
 20
0.107381746172905
 11
-0.4919237196445465
 21
0.1071877926588058
  0
LINE
  5
104
100
AcDbEntity
  8
profiling
  6
ByLayer
 62
  256
370
   -1
100
AcDbLine
 10
-0.4919237196445465
 20
0.1071877926588058
 11
-0.4915300011634827
 21
0.1070683300495148
  0
LINE
  5
105
100
AcDbEntity
  8
profiling
  6
ByLayer
 62
  256
370
   -1
100
AcDbLine
 10
-0.4915300011634827
 20
0.1070683300495148
 11
-0.4911205172538757
 21
0.1070280224084854
  0
LINE
  5
106
100
AcDbEntity
  8
profiling
  6
ByLayer
 62
  256
370
   -1
100
AcDbLine
 10
-0.4911205172538757
 20
0.1070280224084854
 11
-0.4907110035419464
 21
0.107068344950676
  0
LINE
  5
107
100
AcDbEntity
  8
profiling
  6
ByLayer
 62
  256
370
   -1
100
AcDbLine
 10
-0.4907110035419464
 20
0.107068344950676
 11
-0.4903172254562378
 21
0.1071877926588058
  0
LINE
  5
108
100
AcDbEntity
  8
profiling
  6
ByLayer
 62
  256
370
   -1
100
AcDbLine
 10
-0.4903172254562378
 20
0.1071877926588058
 11
-0.4899543225765228
 21
0.107381746172905
  0
LINE
  5
109
100
AcDbEntity
  8
profiling
  6
ByLayer
 62
  256
370
   -1
100
AcDbLine
 10
-0.4899543225765228
 20
0.107381746172905
 11
-0.4896362721920013
 21
0.1076427847146988
  0
LINE
  5
10A
100
AcDbEntity
  8
profiling
  6
ByLayer
 62
  256
370
   -1
100
AcDbLine
 10
-0.4896362721920013
 20
0.1076427847146988
 11
-0.4893752038478851
 21
0.1079608649015427
  0
LINE
  5
10B
100
AcDbEntity
  8
profiling
  6
ByLayer
 62
  256
370
   -1
100
AcDbLine
 10
-0.4893752038478851
 20
0.1079608649015427
 11
-0.4892903864383698
 21
0.1081196218729019
  0
LINE
  5
10C
100
AcDbEntity
  8
profiling
  6
ByLayer
 62
  256
370
   -1
100
AcDbLine
 10
-0.4892903864383698
 20
0.1081196218729019
 11
-0.4891813099384308
 21
0.1083237528800964
  0
LINE
  5
10D
100
AcDbEntity
  8
profiling
  6
ByLayer
 62
  256
370
   -1
100
AcDbLine
 10
-0.4891813099384308
 20
0.1083237528800964
 11
-0.4890618026256561
 21
0.1087175011634827
  0
LINE
  5
10E
100
AcDbEntity
  8
profiling
  6
ByLayer
 62
  256
370
   -1
100
AcDbLine
 10
-0.4890618026256561
 20
0.1087175011634827
 11
-0.4890214800834656
 21
0.1091269999742508
  0
LINE
  5
10F
100
AcDbEntity
  8
profiling
  6
ByLayer
 62
  256
370
   -1
100
AcDbLine
 10
-0.4890214800834656
 20
0.1091269999742508
 11
-0.4890618026256561
 21
0.1095364987850189
  0
LINE
  5
110
100
AcDbEntity
  8
profiling
  6
ByLayer
 62
  256
370
   -1
100
AcDbLine
 10
-0.4890618026256561
 20
0.1095364987850189
 11
-0.4891813099384308
 21
0.1099302470684052
  0
LINE
  5
111
100
AcDbEntity
  8
profiling
  6
ByLayer
 62
  256
370
   -1
100
AcDbLine
 10
-0.4891813099384308
 20
0.1099302470684052
 11
-0.4893752038478851
 21
0.1102931350469589
  0
LINE
  5
112
100
AcDbEntity
  8
profiling
  6
ByLayer
 62
  256
370
   -1
100
AcDbLine
 10
-0.3505725264549255
 20
0.5636283159255981
 11
-0.3508724570274353
 21
0.5635372996330261
  0
LINE
  5
113
100
AcDbEntity
  8
profiling
  6
ByLayer
 62
  256
370
   -1
100
AcDbLine
 10
-0.3508724570274353
 20
0.5635372996330261
 11
-0.351148933172226
 21
0.5633895397186279
  0
LINE
  5
114
100
AcDbEntity
  8
profiling
  6
ByLayer
 62
  256
370
   -1
100
AcDbLine
 10
-0.351148933172226
 20
0.5633895397186279
 11
-0.3513912260532379
 21
0.5631906986236572
  0
LINE
  5
115
100
AcDbEntity
  8
profiling
  6
ByLayer
 62
  256
370
   -1
100
AcDbLine
 10
-0.3513912260532379
 20
0.5631906986236572
 11
-0.3515900671482086
 21
0.5629484057426453
  0
LINE
  5
116
100
AcDbEntity
  8
profiling
  6
ByLayer
 62
  256
370
   -1
100
AcDbLine
 10
-0.3515900671482086
 20
0.5629484057426453
 11
-0.3517378568649292
 21
0.562671959400177
  0
LINE
  5
117
100
AcDbEntity
  8
profiling
  6
ByLayer
 62
  256
370
   -1
100
AcDbLine
 10
-0.3517378568649292
 20
0.562671959400177
 11
-0.3518288433551788
 21
0.5623720288276672
  0
LINE
  5
118
100
AcDbEntity
  8
profiling
  6
ByLayer
 62
  256
370
   -1
100
AcDbLine
 10
-0.3518288433551788
 20
0.5623720288276672
 11
-0.3518595695495605
 21
0.5620600581169128
  0
LINE
  5
119
100
AcDbEntity
  8
profiling
  6
ByLayer
 62
  256
370
   -1
100
AcDbLine
 10
-0.3518595695495605
 20
0.5620600581169128
 11
-0.3518288433551788
 21
0.5617480874061584
  0
LINE
  5
11A
100
AcDbEntity
  8
profiling
  6
ByLayer
 62
  256
370
   -1
100
AcDbLine
 10
-0.3518288433551788
 20
0.5617480874061584
 11
-0.3517378568649292
 21
0.5614480972290039
  0
LINE
  5
11B
100
AcDbEntity
  8
profiling
  6
ByLayer
 62
  256
370
   -1
100
AcDbLine
 10
-0.3517378568649292
 20
0.5614480972290039
 11
-0.3515900671482086
 21
0.5611716508865356
  0
LINE
  5
11C
100
AcDbEntity
  8
profiling
  6
ByLayer
 62
  256
370
   -1
100
AcDbLine
 10
-0.3515900671482086
 20
0.5611716508865356
 11
-0.3513912260532379
 21
0.5609294176101685
  0
LINE
  5
11D
100
AcDbEntity
  8
profiling
  6
ByLayer
 62
  256
370
   -1
100
AcDbLine
 10
-0.3513912260532379
 20
0.5609294176101685
 11
-0.351148933172226
 21
0.560730516910553
  0
LINE
  5
11E
100
AcDbEntity
  8
profiling
  6
ByLayer
 62
  256
370
   -1
100
AcDbLine
 10
-0.351148933172226
 20
0.560730516910553
 11
-0.3508724570274353
 21
0.5605828166007996
  0
LINE
  5
11F
100
AcDbEntity
  8
profiling
  6
ByLayer
 62
  256
370
   -1
100
AcDbLine
 10
-0.3505725264549255
 20
0.5604918003082275
 11
-0.3502605557441711
 21
0.5604610443115234
  0
LINE
  5
120
100
AcDbEntity
  8
profiling
  6
ByLayer
 62
  256
370
   -1
100
AcDbLine
 10
-0.349940150976181
 20
0.5604943633079529
 11
-0.349648654460907
 21
0.5605828166007996
  0
LINE
  5
121
100
AcDbEntity
  8
profiling
  6
ByLayer
 62
  256
370
   -1
100
AcDbLine
 10
-0.349648654460907
 20
0.5605828166007996
 11
-0.3493722081184387
 21
0.560730516910553
  0
LINE
  5
122
100
AcDbEntity
  8
profiling
  6
ByLayer
 62
  256
370
   -1
100
AcDbLine
 10
-0.3493722081184387
 20
0.560730516910553
 11
-0.3491299152374268
 21
0.5609294176101685
  0
LINE
  5
123
100
AcDbEntity
  8
profiling
  6
ByLayer
 62
  256
370
   -1
100
AcDbLine
 10
-0.3491299152374268
 20
0.5609294176101685
 11
-0.3489310443401337
 21
0.5611716508865356
  0
LINE
  5
124
100
AcDbEntity
  8
profiling
  6
ByLayer
 62
  256
370
   -1
100
AcDbLine
 10
-0.3489310443401337
 20
0.5611716508865356
 11
-0.3487832844257355
 21
0.5614480972290039
  0
LINE
  5
125
100
AcDbEntity
  8
profiling
  6
ByLayer
 62
  256
370
   -1
100
AcDbLine
 10
-0.3487832844257355
 20
0.5614480972290039
 11
-0.3486922979354858
 21
0.5617480874061584
  0
LINE
  5
126
100
AcDbEntity
  8
profiling
  6
ByLayer
 62
  256
370
   -1
100
AcDbLine
 10
-0.3486922979354858
 20
0.5617480874061584
 11
-0.3486615717411041
 21
0.5620600581169128
  0
LINE
  5
127
100
AcDbEntity
  8
profiling
  6
ByLayer
 62
  256
370
   -1
100
AcDbLine
 10
-0.3486615717411041
 20
0.5620600581169128
 11
-0.3486922979354858
 21
0.5623720288276672
  0
LINE
  5
128
100
AcDbEntity
  8
profiling
  6
ByLayer
 62
  256
370
   -1
100
AcDbLine
 10
-0.3486922979354858
 20
0.5623720288276672
 11
-0.3487832844257355
 21
0.562671959400177
  0
LINE
  5
129
100
AcDbEntity
  8
profiling
  6
ByLayer
 62
  256
370
   -1
100
AcDbLine
 10
-0.3489310443401337
 20
0.5629484057426453
 11
-0.3491299152374268
 21
0.5631906986236572
  0
LINE
  5
12A
100
AcDbEntity
  8
profiling
  6
ByLayer
 62
  256
370
   -1
100
AcDbLine
 10
-0.3491299152374268
 20
0.5631906986236572
 11
-0.3493722081184387
 21
0.5633895397186279
  0
LINE
  5
12B
100
AcDbEntity
  8
profiling
  6
ByLayer
 62
  256
370
   -1
100
AcDbLine
 10
-0.3493722081184387
 20
0.5633895397186279
 11
-0.349648654460907
 21
0.5635372996330261
  0
LINE
  5
12C
100
AcDbEntity
  8
profiling
  6
ByLayer
 62
  256
370
   -1
100
AcDbLine
 10
-0.3499486148357391
 20
0.5636283159255981
 11
-0.3502605557441711
 21
0.5636590123176575
  0
LINE
  5
12D
100
AcDbEntity
  8
profiling
  6
ByLayer
 62
  256
370
   -1
100
AcDbLine
 10
-0.3331440687179565
 20
0.5456519722938538
 11
-0.3331790864467621
 21
0.5455365180969238
  0
LINE
  5
12E
100
AcDbEntity
  8
profiling
  6
ByLayer
 62
  256
370
   -1
100
AcDbLine
 10
-0.3331790864467621
 20
0.5455365180969238
 11
-0.333219438791275
 21
0.5451270341873169
  0
LINE
  5
12F
100
AcDbEntity
  8
profiling
  6
ByLayer
 62
  256
370
   -1
100
AcDbLine
 10
-0.333219438791275
 20
0.5451270341873169
 11
-0.3331790864467621
 21
0.5447174906730652
  0
LINE
  5
130
100
AcDbEntity
  8
profiling
  6
ByLayer
 62
  256
370
   -1
100
AcDbLine
 10
-0.3331790864467621
 20
0.5447174906730652
 11
-0.3330596089363098
 21
0.544323742389679
  0
LINE
  5
131
100
AcDbEntity
  8
profiling
  6
ByLayer
 62
  256
370
   -1
100
AcDbLine
 10
-0.3330596089363098
 20
0.544323742389679
 11
-0.3328656852245331
 21
0.5439608693122864
  0
LINE
  5
132
100
AcDbEntity
  8
profiling
  6
ByLayer
 62
  256
370
   -1
100
AcDbLine
 10
-0.3328656852245331
 20
0.5439608693122864
 11
-0.3326046466827393
 21
0.5436428189277649
  0
LINE
  5
133
100
AcDbEntity
  8
profiling
  6
ByLayer
 62
  256
370
   -1
100
AcDbLine
 10
-0.3326046466827393
 20
0.5436428189277649
 11
-0.3322865962982178
 21
0.5433817505836487
  0
LINE
  5
134
100
AcDbEntity
  8
profiling
  6
ByLayer
 62
  256
370
   -1
100
AcDbLine
 10
-0.3322865962982178
 20
0.5433817505836487
 11
-0.3319236934185028
 21
0.5431878566741943
  0
LINE
  5
135
100
AcDbEntity
  8
profiling
  6
ByLayer
 62
  256
370
   -1
100
AcDbLine
 10
-0.3319236934185028
 20
0.5431878566741943
 11
-0.3315299153327942
 21
0.5430684089660645
  0
LINE
  5
136
100
AcDbEntity
  8
profiling
  6
ByLayer
 62
  256
370
   -1
100
AcDbLine
 10
-0.3315299153327942
 20
0.5430684089660645
 11
-0.3311204016208649
 21
0.5430280566215515
  0
LINE
  5
137
100
AcDbEntity
  8
profiling
  6
ByLayer
 62
  256
370
   -1
100
AcDbLine
 10
-0.3311204016208649
 20
0.5430280566215515
 11
-0.3307109177112579
 21
0.5430684089660645
  0
LINE
  5
138
100
AcDbEntity
  8
profiling
  6
ByLayer
 62
  256
370
   -1
100
AcDbLine
 10
-0.3307109177112579
 20
0.5430684089660645
 11
-0.3303171992301941
 21
0.5431878566741943
  0
LINE
  5
139
100
AcDbEntity
  8
profiling
  6
ByLayer
 62
  256
370
   -1
100
AcDbLine
 10
-0.3303171992301941
 20
0.5431878566741943
 11
-0.3299542963504791
 21
0.5433817505836487
  0
LINE
  5
13A
100
AcDbEntity
  8
profiling
  6
ByLayer
 62
  256
370
   -1
100
AcDbLine
 10
-0.3299542963504791
 20
0.5433817505836487
 11
-0.3296362161636353
 21
0.5436428189277649
  0
LINE
  5
13B
100
AcDbEntity
  8
profiling
  6
ByLayer
 62
  256
370
   -1
100
AcDbLine
 10
-0.3296362161636353
 20
0.5436428189277649
 11
-0.3293752074241638
 21
0.5439608693122864
  0
LINE
  5
13C
100
AcDbEntity
  8
profiling
  6
ByLayer
 62
  256
370
   -1
100
AcDbLine
 10
-0.3293752074241638
 20
0.5439608693122864
 11
-0.3291811943054199
 21
0.544323742389679
  0
LINE
  5
13D
100
AcDbEntity
  8
profiling
  6
ByLayer
 62
  256
370
   -1
100
AcDbLine
 10
-0.3291811943054199
 20
0.544323742389679
 11
-0.3290617763996124
 21
0.5447174906730652
  0
LINE
  5
13E
100
AcDbEntity
  8
profiling
  6
ByLayer
 62
  256
370
   -1
100
AcDbLine
 10
-0.3290617763996124
 20
0.5447174906730652
 11
-0.3290214538574219
 21
0.5451270341873169
  0
LINE
  5
13F
100
AcDbEntity
  8
profiling
  6
ByLayer
 62
  256
370
   -1
100
AcDbLine
 10
-0.3290214538574219
 20
0.5451270341873169
 11
-0.3290617763996124
 21
0.5455365180969238
  0
LINE
  5
140
100
AcDbEntity
  8
profiling
  6
ByLayer
 62
  256
370
   -1
100
AcDbLine
 10
-0.3290617763996124
 20
0.5455365180969238
 11
-0.3291811943054199
 21
0.5459303259849548
  0
LINE
  5
141
100
AcDbEntity
  8
profiling
  6
ByLayer
 62
  256
370
   -1
100
AcDbLine
 10
-0.3291811943054199
 20
0.5459303259849548
 11
-0.3293752074241638
 21
0.5462931990623474
  0
LINE
  5
142
100
AcDbEntity
  8
profiling
  6
ByLayer
 62
  256
370
   -1
100
AcDbLine
 10
-0.3293752074241638
 20
0.5462931990623474
 11
-0.3296362161636353
 21
0.5466111898422241
  0
LINE
  5
143
100
AcDbEntity
  8
profiling
  6
ByLayer
 62
  256
370
   -1
100
AcDbLine
 10
-0.3296362161636353
 20
0.5466111898422241
 11
-0.3299542963504791
 21
0.5468722581863403
  0
LINE
  5
144
100
AcDbEntity
  8
profiling
  6
ByLayer
 62
  256
370
   -1
100
AcDbLine
 10
-0.3299542963504791
 20
0.5468722581863403
 11
-0.3303171992301941
 21
0.5470662117004395
  0
LINE
  5
145
100
AcDbEntity
  8
profiling
  6
ByLayer
 62
  256
370
   -1
100
AcDbLine
 10
-0.3303171992301941
 20
0.5470662117004395
 11
-0.3307109177112579
 21
0.5471856594085693
  0
LINE
  5
146
100
AcDbEntity
  8
profiling
  6
ByLayer
 62
  256
370
   -1
100
AcDbLine
 10
-0.3307109177112579
 20
0.5471856594085693
 11
-0.3311204016208649
 21
0.5472260117530823
  0
LINE
  5
147
100
AcDbEntity
  8
profiling
  6
ByLayer
 62
  256
370
   -1
100
AcDbLine
 10
-0.3311204016208649
 20
0.5472260117530823
 11
-0.3315299153327942
 21
0.5471856594085693
  0
LINE
  5
148
100
AcDbEntity
  8
profiling
  6
ByLayer
 62
  256
370
   -1
100
AcDbLine
 10
-0.3315299153327942
 20
0.5471856594085693
 11
-0.3319236934185028
 21
0.5470662117004395
  0
LINE
  5
149
100
AcDbEntity
  8
profiling
  6
ByLayer
 62
  256
370
   -1
100
AcDbLine
 10
-0.3319236934185028
 20
0.5470662117004395
 11
-0.3322865962982178
 21
0.5468722581863403
  0
LINE
  5
14A
100
AcDbEntity
  8
profiling
  6
ByLayer
 62
  256
370
   -1
100
AcDbLine
 10
-0.3322865962982178
 20
0.5468722581863403
 11
-0.3326046466827393
 21
0.5466111898422241
  0
LINE
  5
14B
100
AcDbEntity
  8
profiling
  6
ByLayer
 62
  256
370
   -1
100
AcDbLine
 10
-0.3326046466827393
 20
0.5466111898422241
 11
-0.3328656852245331
 21
0.5462931990623474
  0
LINE
  5
14C
100
AcDbEntity
  8
profiling
  6
ByLayer
 62
  256
370
   -1
100
AcDbLine
 10
-0.3328656852245331
 20
0.5462931990623474
 11
-0.3329422175884247
 21
0.5461499691009521
  0
LINE
  5
14D
100
AcDbEntity
  8
profiling
  6
ByLayer
 62
  256
370
   -1
100
AcDbLine
 10
-0.3329422175884247
 20
0.5461499691009521
 11
-0.3330596089363098
 21
0.5459303259849548
  0
LINE
  5
14E
100
AcDbEntity
  8
profiling
  6
ByLayer
 62
  256
370
   -1
100
AcDbLine
 10
-0.3309504389762878
 20
0.3292092680931091
 11
-0.3311204314231873
 21
0.329226016998291
  0
LINE
  5
14F
100
AcDbEntity
  8
profiling
  6
ByLayer
 62
  256
370
   -1
100
AcDbLine
 10
-0.3311204314231873
 20
0.329226016998291
 11
-0.3315299153327942
 21
0.3291856646537781
  0
LINE
  5
150
100
AcDbEntity
  8
profiling
  6
ByLayer
 62
  256
370
   -1
100
AcDbLine
 10
-0.3315299153327942
 20
0.3291856646537781
 11
-0.3319236934185028
 21
0.3290662169456482
  0
LINE
  5
151
100
AcDbEntity
  8
profiling
  6
ByLayer
 62
  256
370
   -1
100
AcDbLine
 10
-0.3319236934185028
 20
0.3290662169456482
 11
-0.3322866261005402
 21
0.3288722634315491
  0
LINE
  5
152
100
AcDbEntity
  8
profiling
  6
ByLayer
 62
  256
370
   -1
100
AcDbLine
 10
-0.3322866261005402
 20
0.3288722634315491
 11
-0.3326046764850616
 21
0.3286111950874329
  0
LINE
  5
153
100
AcDbEntity
  8
profiling
  6
ByLayer
 62
  256
370
   -1
100
AcDbLine
 10
-0.3326046764850616
 20
0.3286111950874329
 11
-0.3328657150268555
 21
0.3282931447029114
  0
LINE
  5
154
100
AcDbEntity
  8
profiling
  6
ByLayer
 62
  256
370
   -1
100
AcDbLine
 10
-0.3328657150268555
 20
0.3282931447029114
 11
-0.3330596387386322
 21
0.3279302716255188
  0
LINE
  5
155
100
AcDbEntity
  8
profiling
  6
ByLayer
 62
  256
370
   -1
100
AcDbLine
 10
-0.3330596387386322
 20
0.3279302716255188
 11
-0.3331791162490845
 21
0.3275364637374878
  0
LINE
  5
156
100
AcDbEntity
  8
profiling
  6
ByLayer
 62
  256
370
   -1
100
AcDbLine
 10
-0.3331791162490845
 20
0.3275364637374878
 11
-0.3332194685935974
 21
0.3271270394325256
  0
LINE
  5
157
100
AcDbEntity
  8
profiling
  6
ByLayer
 62
  256
370
   -1
100
AcDbLine
 10
-0.3332194685935974
 20
0.3271270394325256
 11
-0.3331978023052216
 21
0.326907217502594
  0
LINE
  5
158
100
AcDbEntity
  8
profiling
  6
ByLayer
 62
  256
370
   -1
100
AcDbLine
 10
-0.3331978023052216
 20
0.326907217502594
 11
-0.3331791162490845
 21
0.3267174959182739
  0
LINE
  5
159
100
AcDbEntity
  8
profiling
  6
ByLayer
 62
  256
370
   -1
100
AcDbLine
 10
-0.3331791162490845
 20
0.3267174959182739
 11
-0.3330596387386322
 21
0.3263237476348877
  0
LINE
  5
15A
100
AcDbEntity
  8
profiling
  6
ByLayer
 62
  256
370
   -1
100
AcDbLine
 10
-0.3330596387386322
 20
0.3263237476348877
 11
-0.3329422771930695
 21
0.3261041641235352
  0
LINE
  5
15B
100
AcDbEntity
  8
profiling
  6
ByLayer
 62
  256
370
   -1
100
AcDbLine
 10
-0.3329422771930695
 20
0.3261041641235352
 11
-0.3328657150268555
 21
0.3259608745574951
  0
LINE
  5
15C
100
AcDbEntity
  8
profiling
  6
ByLayer
 62
  256
370
   -1
100
AcDbLine
 10
-0.3328657150268555
 20
0.3259608745574951
 11
-0.3326046764850616
 21
0.3256428241729736
  0
LINE
  5
15D
100
AcDbEntity
  8
profiling
  6
ByLayer
 62
  256
370
   -1
100
AcDbLine
 10
-0.3326046764850616
 20
0.3256428241729736
 11
-0.3322866261005402
 21
0.3253817558288574
  0
LINE
  5
15E
100
AcDbEntity
  8
profiling
  6
ByLayer
 62
  256
370
   -1
100
AcDbLine
 10
-0.3322866261005402
 20
0.3253817558288574
 11
-0.3319236934185028
 21
0.3251878023147583
  0
LINE
  5
15F
100
AcDbEntity
  8
profiling
  6
ByLayer
 62
  256
370
   -1
100
AcDbLine
 10
-0.3319236934185028
 20
0.3251878023147583
 11
-0.3315299153327942
 21
0.3250683546066284
  0
LINE
  5
160
100
AcDbEntity
  8
profiling
  6
ByLayer
 62
  256
370
   -1
100
AcDbLine
 10
-0.331244945526123
 20
0.3250402808189392
 11
-0.331121414899826
 21
0.325028121471405
  0
LINE
  5
161
100
AcDbEntity
  8
profiling
  6
ByLayer
 62
  256
370
   -1
100
AcDbLine
 10
-0.3307109177112579
 20
0.3250683546066284
 11
-0.3303172290325165
 21
0.3251878023147583
  0
LINE
  5
162
100
AcDbEntity
  8
profiling
  6
ByLayer
 62
  256
370
   -1
100
AcDbLine
 10
-0.3303172290325165
 20
0.3251878023147583
 11
-0.3299543261528015
 21
0.3253817558288574
  0
LINE
  5
163
100
AcDbEntity
  8
profiling
  6
ByLayer
 62
  256
370
   -1
100
AcDbLine
 10
-0.3299543261528015
 20
0.3253817558288574
 11
-0.3296362161636353
 21
0.3256428241729736
  0
LINE
  5
164
100
AcDbEntity
  8
profiling
  6
ByLayer
 62
  256
370
   -1
100
AcDbLine
 10
-0.3296362161636353
 20
0.3256428241729736
 11
-0.3293752074241638
 21
0.3259608745574951
  0
LINE
  5
165
100
AcDbEntity
  8
profiling
  6
ByLayer
 62
  256
370
   -1
100
AcDbLine
 10
-0.3293752074241638
 20
0.3259608745574951
 11
-0.3291812241077423
 21
0.3263237476348877
  0
LINE
  5
166
100
AcDbEntity
  8
profiling
  6
ByLayer
 62
  256
370
   -1
100
AcDbLine
 10
-0.3291812241077423
 20
0.3263237476348877
 11
-0.3290617763996124
 21
0.3267175555229187
  0
LINE
  5
167
100
AcDbEntity
  8
profiling
  6
ByLayer
 62
  256
370
   -1
100
AcDbLine
 10
-0.3290617763996124
 20
0.3267175555229187
 11
-0.3290214538574219
 21
0.3271269798278809
  0
LINE
  5
168
100
AcDbEntity
  8
profiling
  6
ByLayer
 62
  256
370
   -1
100
AcDbLine
 10
-0.3290214538574219
 20
0.3271269798278809
 11
-0.3290617763996124
 21
0.3275364637374878
  0
LINE
  5
169
100
AcDbEntity
  8
profiling
  6
ByLayer
 62
  256
370
   -1
100
AcDbLine
 10
-0.3290617763996124
 20
0.3275364637374878
 11
-0.3291812241077423
 21
0.3279302716255188
  0
LINE
  5
16A
100
AcDbEntity
  8
profiling
  6
ByLayer
 62
  256
370
   -1
100
AcDbLine
 10
-0.3291812241077423
 20
0.3279302716255188
 11
-0.3293752074241638
 21
0.3282931447029114
  0
LINE
  5
16B
100
AcDbEntity
  8
profiling
  6
ByLayer
 62
  256
370
   -1
100
AcDbLine
 10
-0.3293752074241638
 20
0.3282931447029114
 11
-0.3296362161636353
 21
0.3286111950874329
  0
LINE
  5
16C
100
AcDbEntity
  8
profiling
  6
ByLayer
 62
  256
370
   -1
100
AcDbLine
 10
-0.3296362161636353
 20
0.3286111950874329
 11
-0.3299543261528015
 21
0.3288722634315491
  0
LINE
  5
16D
100
AcDbEntity
  8
profiling
  6
ByLayer
 62
  256
370
   -1
100
AcDbLine
 10
-0.3299543261528015
 20
0.3288722634315491
 11
-0.3303172290325165
 21
0.3290662169456482
  0
LINE
  5
16E
100
AcDbEntity
  8
profiling
  6
ByLayer
 62
  256
370
   -1
100
AcDbLine
 10
-0.3332194685935974
 20
0.1091269999742508
 11
-0.3331791162490845
 21
0.1087175011634827
  0
LINE
  5
16F
100
AcDbEntity
  8
profiling
  6
ByLayer
 62
  256
370
   -1
100
AcDbLine
 10
-0.3331791162490845
 20
0.1087175011634827
 11
-0.3330596387386322
 21
0.1083237528800964
  0
LINE
  5
170
100
AcDbEntity
  8
profiling
  6
ByLayer
 62
  256
370
   -1
100
AcDbLine
 10
-0.3330596387386322
 20
0.1083237528800964
 11
-0.3330090939998627
 21
0.1082291454076767
  0
LINE
  5
171
100
AcDbEntity
  8
profiling
  6
ByLayer
 62
  256
370
   -1
100
AcDbLine
 10
-0.3330090939998627
 20
0.1082291454076767
 11
-0.3328657150268555
 21
0.1079608649015427
  0
LINE
  5
172
100
AcDbEntity
  8
profiling
  6
ByLayer
 62
  256
370
   -1
100
AcDbLine
 10
-0.3328657150268555
 20
0.1079608649015427
 11
-0.3326046764850616
 21
0.1076427847146988
  0
LINE
  5
173
100
AcDbEntity
  8
profiling
  6
ByLayer
 62
  256
370
   -1
100
AcDbLine
 10
-0.3326046764850616
 20
0.1076427847146988
 11
-0.3322866261005402
 21
0.107381746172905
  0
LINE
  5
174
100
AcDbEntity
  8
profiling
  6
ByLayer
 62
  256
370
   -1
100
AcDbLine
 10
-0.3322866261005402
 20
0.107381746172905
 11
-0.3319237232208252
 21
0.1071877926588058
  0
LINE
  5
175
100
AcDbEntity
  8
profiling
  6
ByLayer
 62
  256
370
   -1
100
AcDbLine
 10
-0.3319237232208252
 20
0.1071877926588058
 11
-0.3316936194896698
 21
0.1071179956197739
  0
LINE
  5
176
100
AcDbEntity
  8
profiling
  6
ByLayer
 62
  256
370
   -1
100
AcDbLine
 10
-0.3316936194896698
 20
0.1071179956197739
 11
-0.3315299451351166
 21
0.107068344950676
  0
LINE
  5
177
100
AcDbEntity
  8
profiling
  6
ByLayer
 62
  256
370
   -1
100
AcDbLine
 10
-0.3315299451351166
 20
0.107068344950676
 11
-0.3311204314231873
 21
0.1070280224084854
  0
LINE
  5
178
100
AcDbEntity
  8
profiling
  6
ByLayer
 62
  256
370
   -1
100
AcDbLine
 10
-0.3311204314231873
 20
0.1070280224084854
 11
-0.3307109177112579
 21
0.1070683300495148
  0
LINE
  5
179
100
AcDbEntity
  8
profiling
  6
ByLayer
 62
  256
370
   -1
100
AcDbLine
 10
-0.3307109177112579
 20
0.1070683300495148
 11
-0.3303172290325165
 21
0.1071877926588058
  0
LINE
  5
17A
100
AcDbEntity
  8
profiling
  6
ByLayer
 62
  256
370
   -1
100
AcDbLine
 10
-0.3303172290325165
 20
0.1071877926588058
 11
-0.3299543261528015
 21
0.107381746172905
  0
LINE
  5
17B
100
AcDbEntity
  8
profiling
  6
ByLayer
 62
  256
370
   -1
100
AcDbLine
 10
-0.3299543261528015
 20
0.107381746172905
 11
-0.3296362459659576
 21
0.1076427847146988
  0
LINE
  5
17C
100
AcDbEntity
  8
profiling
  6
ByLayer
 62
  256
370
   -1
100
AcDbLine
 10
-0.3293752372264862
 20
0.1079608649015427
 11
-0.3291812241077423
 21
0.1083237528800964
  0
LINE
  5
17D
100
AcDbEntity
  8
profiling
  6
ByLayer
 62
  256
370
   -1
100
AcDbLine
 10
-0.3291812241077423
 20
0.1083237528800964
 11
-0.3290618062019348
 21
0.1087175011634827
  0
LINE
  5
17E
100
AcDbEntity
  8
profiling
  6
ByLayer
 62
  256
370
   -1
100
AcDbLine
 10
-0.3290618062019348
 20
0.1087175011634827
 11
-0.3290214836597443
 21
0.1091269999742508
  0
LINE
  5
17F
100
AcDbEntity
  8
profiling
  6
ByLayer
 62
  256
370
   -1
100
AcDbLine
 10
-0.3290618062019348
 20
0.1095364987850189
 11
-0.3291812241077423
 21
0.1099302470684052
  0
LINE
  5
180
100
AcDbEntity
  8
profiling
  6
ByLayer
 62
  256
370
   -1
100
AcDbLine
 10
-0.3291812241077423
 20
0.1099302470684052
 11
-0.3293752372264862
 21
0.1102931350469589
  0
LINE
  5
181
100
AcDbEntity
  8
profiling
  6
ByLayer
 62
  256
370
   -1
100
AcDbLine
 10
-0.3293752372264862
 20
0.1102931350469589
 11
-0.3296362459659576
 21
0.1106111854314804
  0
LINE
  5
182
100
AcDbEntity
  8
profiling
  6
ByLayer
 62
  256
370
   -1
100
AcDbLine
 10
-0.3296362459659576
 20
0.1106111854314804
 11
-0.3299543261528015
 21
0.1108722537755966
  0
LINE
  5
183
100
AcDbEntity
  8
profiling
  6
ByLayer
 62
  256
370
   -1
100
AcDbLine
 10
-0.3299543261528015
 20
0.1108722537755966
 11
-0.3303172290325165
 21
0.1110662072896957
  0
LINE
  5
184
100
AcDbEntity
  8
profiling
  6
ByLayer
 62
  256
370
   -1
100
AcDbLine
 10
-0.3303172290325165
 20
0.1110662072896957
 11
-0.3307109177112579
 21
0.1111856549978256
  0
LINE
  5
185
100
AcDbEntity
  8
profiling
  6
ByLayer
 62
  256
370
   -1
100
AcDbLine
 10
-0.3311204314231873
 20
0.1112259775400162
 11
-0.3315299451351166
 21
0.1111856549978256
  0
LINE
  5
186
100
AcDbEntity
  8
profiling
  6
ByLayer
 62
  256
370
   -1
100
AcDbLine
 10
-0.3315299451351166
 20
0.1111856549978256
 11
-0.3319237232208252
 21
0.1110662072896957
  0
LINE
  5
187
100
AcDbEntity
  8
profiling
  6
ByLayer
 62
  256
370
   -1
100
AcDbLine
 10
-0.3319237232208252
 20
0.1110662072896957
 11
-0.3322866261005402
 21
0.1108722537755966
  0
LINE
  5
188
100
AcDbEntity
  8
profiling
  6
ByLayer
 62
  256
370
   -1
100
AcDbLine
 10
-0.3322866261005402
 20
0.1108722537755966
 11
-0.3326046764850616
 21
0.1106111854314804
  0
LINE
  5
189
100
AcDbEntity
  8
profiling
  6
ByLayer
 62
  256
370
   -1
100
AcDbLine
 10
-0.3328657150268555
 20
0.1102931350469589
 11
-0.3330596387386322
 21
0.1099302470684052
  0
LINE
  5
18A
100
AcDbEntity
  8
profiling
  6
ByLayer
 62
  256
370
   -1
100
AcDbLine
 10
-0.3330596387386322
 20
0.1099302470684052
 11
-0.3331791162490845
 21
0.1095364987850189
  0
LINE
  5
18B
100
AcDbEntity
  8
profiling
  6
ByLayer
 62
  256
370
   -1
100
AcDbLine
 10
-0.4136196374893188
 20
0.5886190533638
 11
-0.5011215209960938
 21
0.5651271343231201
  0
LINE
  5
18C
100
AcDbEntity
  8
profiling
  6
ByLayer
 62
  256
370
   -1
100
AcDbLine
 10
-0.4136196374893188
 20
0.5886190533638
 11
-0.4136195480823517
 21
0.489379346370697
  0
LINE
  5
18D
100
AcDbEntity
  8
profiling
  6
ByLayer
 62
  256
370
   -1
100
AcDbLine
 10
-0.4130523204803467
 20
0.4877939820289612
 11
-0.4128496646881104
 21
0.4875778555870056
  0
LINE
  5
18E
100
AcDbEntity
  8
profiling
  6
ByLayer
 62
  256
370
   -1
100
AcDbLine
 10
-0.4086215496063232
 20
0.489379346370697
 11
-0.4086214601993561
 21
0.5886190533638
  0
LINE
  5
18F
100
AcDbEntity
  8
profiling
  6
ByLayer
 62
  256
370
   -1
100
AcDbLine
 10
-0.4086214601993561
 20
0.5886190533638
 11
-0.3211202919483185
 21
0.565127968788147
  0
LINE
  5
190
100
AcDbEntity
  8
profiling
  6
ByLayer
 62
  256
370
   -1
100
AcDbLine
 10
-0.3211202919483185
 20
0.565127968788147
 11
-0.3211202025413513
 21
0.08923338353633881
  0
LINE
  5
191
100
AcDbEntity
  8
profiling
  6
ByLayer
 62
  256
370
   -1
100
AcDbLine
 10
-0.3211202025413513
 20
0.08923338353633881
 11
-0.4111205637454987
 21
0.08923332393169403
  0
LINE
  5
192
100
AcDbEntity
  8
profiling
  6
ByLayer
 62
  256
370
   -1
100
AcDbLine
 10
-0.4111205637454987
 20
0.08923332393169403
 11
-0.5011208057403564
 21
0.08923332393169403
  0
LINE
  5
193
100
AcDbEntity
  8
profiling
  6
ByLayer
 62
  256
370
   -1
100
AcDbLine
 10
-0.5011208057403564
 20
0.08923332393169403
 11
-0.5011215209960938
 21
0.5651271343231201
  0
LINE
  5
194
100
AcDbEntity
  8
profiling
  6
ByLayer
 62
  256
370
   -1
100
AcDbLine
 10
-0.4069640636444092
 20
0.4551775455474854
 11
-0.4065020978450775
 21
0.4543132781982422
  0
LINE
  5
195
100
AcDbEntity
  8
profiling
  6
ByLayer
 62
  256
370
   -1
100
AcDbLine
 10
-0.4725924432277679
 20
0.5605828166007996
 11
-0.4722924828529358
 21
0.5604918003082275
  0
LINE
  5
196
100
AcDbEntity
  8
profiling
  6
ByLayer
 62
  256
370
   -1
100
AcDbLine
 10
-0.4704098105430603
 20
0.5623469948768616
 11
-0.4704603552818298
 21
0.562530517578125
  0
LINE
  5
197
100
AcDbEntity
  8
profiling
  6
ByLayer
 62
  256
370
   -1
100
AcDbLine
 10
-0.4735795259475708
 20
0.5620600581169128
 11
-0.4735487997531891
 21
0.5623720288276672
  0
LINE
  5
198
100
AcDbEntity
  8
profiling
  6
ByLayer
 62
  256
370
   -1
100
AcDbLine
 10
-0.4903171956539154
 20
0.5470662117004395
 11
-0.4899543225765228
 21
0.5468722581863403
  0
LINE
  5
199
100
AcDbEntity
  8
profiling
  6
ByLayer
 62
  256
370
   -1
100
AcDbLine
 10
-0.4912904798984528
 20
0.3292092680931091
 11
-0.4915300011634827
 21
0.3291856646537781
  0
LINE
  5
19A
100
AcDbEntity
  8
profiling
  6
ByLayer
 62
  256
370
   -1
100
AcDbLine
 10
-0.4893752038478851
 20
0.3282931447029114
 11
-0.4891813099384308
 21
0.3279302716255188
  0
LINE
  5
19B
100
AcDbEntity
  8
profiling
  6
ByLayer
 62
  256
370
   -1
100
AcDbLine
 10
-0.4896362721920013
 20
0.1106111854314804
 11
-0.4893752038478851
 21
0.1102931350469589
  0
LINE
  5
19C
100
AcDbEntity
  8
profiling
  6
ByLayer
 62
  256
370
   -1
100
AcDbLine
 10
-0.3505725264549255
 20
0.5636283159255981
 11
-0.3502605557441711
 21
0.5636590123176575
  0
LINE
  5
19D
100
AcDbEntity
  8
profiling
  6
ByLayer
 62
  256
370
   -1
100
AcDbLine
 10
-0.3508724570274353
 20
0.5605828166007996
 11
-0.3505725264549255
 21
0.5604918003082275
  0
LINE
  5
19E
100
AcDbEntity
  8
profiling
  6
ByLayer
 62
  256
370
   -1
100
AcDbLine
 10
-0.3502605557441711
 20
0.5604610443115234
 11
-0.349940150976181
 21
0.5604943633079529
  0
LINE
  5
19F
100
AcDbEntity
  8
profiling
  6
ByLayer
 62
  256
370
   -1
100
AcDbLine
 10
-0.3487832844257355
 20
0.562671959400177
 11
-0.3489310443401337
 21
0.5629484057426453
  0
LINE
  5
1A0
100
AcDbEntity
  8
profiling
  6
ByLayer
 62
  256
370
   -1
100
AcDbLine
 10
-0.349648654460907
 20
0.5635372996330261
 11
-0.3499486148357391
 21
0.5636283159255981
  0
LINE
  5
1A1
100
AcDbEntity
  8
profiling
  6
ByLayer
 62
  256
370
   -1
100
AcDbLine
 10
-0.3331440687179565
 20
0.5456519722938538
 11
-0.3330596089363098
 21
0.5459303259849548
  0
LINE
  5
1A2
100
AcDbEntity
  8
profiling
  6
ByLayer
 62
  256
370
   -1
100
AcDbLine
 10
-0.3307109177112579
 20
0.3291856646537781
 11
-0.3309504389762878
 21
0.3292092680931091
  0
LINE
  5
1A3
100
AcDbEntity
  8
profiling
  6
ByLayer
 62
  256
370
   -1
100
AcDbLine
 10
-0.3315299153327942
 20
0.3250683546066284
 11
-0.331244945526123
 21
0.3250402808189392
  0
LINE
  5
1A4
100
AcDbEntity
  8
profiling
  6
ByLayer
 62
  256
370
   -1
100
AcDbLine
 10
-0.331121414899826
 20
0.325028121471405
 11
-0.3307109177112579
 21
0.3250683546066284
  0
LINE
  5
1A5
100
AcDbEntity
  8
profiling
  6
ByLayer
 62
  256
370
   -1
100
AcDbLine
 10
-0.3307109177112579
 20
0.3291856646537781
 11
-0.3303172290325165
 21
0.3290662169456482
  0
LINE
  5
1A6
100
AcDbEntity
  8
profiling
  6
ByLayer
 62
  256
370
   -1
100
AcDbLine
 10
-0.3296362459659576
 20
0.1076427847146988
 11
-0.3293752372264862
 21
0.1079608649015427
  0
LINE
  5
1A7
100
AcDbEntity
  8
profiling
  6
ByLayer
 62
  256
370
   -1
100
AcDbLine
 10
-0.3290214836597443
 20
0.1091269999742508
 11
-0.3290618062019348
 21
0.1095364987850189
  0
LINE
  5
1A8
100
AcDbEntity
  8
profiling
  6
ByLayer
 62
  256
370
   -1
100
AcDbLine
 10
-0.3307109177112579
 20
0.1111856549978256
 11
-0.3309959173202515
 21
0.1112137138843536
  0
LINE
  5
1A9
100
AcDbEntity
  8
profiling
  6
ByLayer
 62
  256
370
   -1
100
AcDbLine
 10
-0.3309959173202515
 20
0.1112137138843536
 11
-0.3311204314231873
 21
0.1112259775400162
  0
LINE
  5
1AA
100
AcDbEntity
  8
profiling
  6
ByLayer
 62
  256
370
   -1
100
AcDbLine
 10
-0.3326046764850616
 20
0.1106111854314804
 11
-0.3328657150268555
 21
0.1102931350469589
  0
LINE
  5
1AB
100
AcDbEntity
  8
profiling
  6
ByLayer
 62
  256
370
   -1
100
AcDbLine
 10
-0.3332194685935974
 20
0.1091269999742508
 11
-0.3331791162490845
 21
0.1095364987850189
  0
ENDSEC
  0
SECTION
  2
OBJECTS
  0
DICTIONARY
  5
C
330
0
100
AcDbDictionary
281
    1
  3
ACAD_GROUP
350
D
  0
DICTIONARY
  5
D
330
C
100
AcDbDictionary
281
    1
  0
ENDSEC
  0
EOF
