999
dxfrw 0.6.3
  0
SECTION
  2
HEADER
  9
$ACADVER
  1
AC1021
  9
$DWGCODEPAGE
  3
ANSI_1252
  9
$INSBASE
 10
0
 20
0
 30
0
  9
$EXTMIN
 10
-0.3903641402721405
 20
0.08762013912200928
 30
0
  9
$EXTMAX
 10
-0.1523620933294296
 20
0.5885339975357056
 30
0
  9
$LIMMIN
 10
0
 20
0
  9
$LIMMAX
 10
420
 20
297
  9
$ORTHOMODE
 70
    0
  9
$REGENMODE
 70
    1
  9
$FILLMODE
 70
    1
  9
$QTEXTMODE
 70
    0
  9
$MIRRTEXT
 70
    0
  9
$LTSCALE
 40
1
  9
$ATTMODE
 70
    0
  9
$TEXTSIZE
 40
2.5
  9
$TRACEWID
 40
15.68
  9
$TEXTSTYLE
  7
STANDARD
  9
$CLAYER
  8
vcut
  9
$CELTYPE
  6
BYLAYER
  9
$CECOLOR
 62
  256
  9
$CELTSCALE
 40
1
  9
$DISPSILH
 70
    0
  9
$DIMSCALE
 40
2.5
  9
$DIMASZ
 40
2.5
  9
$DIMEXO
 40
0.625
  9
$DIMDLI
 40
3.75
  9
$DIMRND
 40
0
  9
$DIMDLE
 40
0
  9
$DIMEXE
 40
1.25
  9
$DIMTP
 40
0
  9
$DIMTM
 40
0
  9
$DIMTXT
 40
2.5
  9
$DIMCEN
 40
2.5
  9
$DIMTSZ
 40
0
  9
$DIMTOL
 70
    0
  9
$DIMLIM
 70
    0
  9
$DIMTIH
 70
    0
  9
$DIMTOH
 70
    0
  9
$DIMSE1
 70
    0
  9
$DIMSE2
 70
    0
  9
$DIMTAD
 70
    1
  9
$DIMZIN
 70
    8
  9
$DIMBLK
  1

  9
$DIMASO
 70
    1
  9
$DIMSHO
 70
    1
  9
$DIMPOST
  1

  9
$DIMAPOST
  1

  9
$DIMALT
 70
    0
  9
$DIMALTD
 70
    3
  9
$DIMALTF
 40
0.03937
  9
$DIMLFAC
 40
1
  9
$DIMTOFL
 70
    1
  9
$DIMTVP
 40
0
  9
$DIMTIX
 70
    0
  9
$DIMSOXD
 70
    0
  9
$DIMSAH
 70
    0
  9
$DIMBLK1
  1

  9
$DIMBLK2
  1

  9
$DIMSTYLE
  2
Standard
  9
$DIMCLRD
 70
    0
  9
$DIMCLRE
 70
    0
  9
$DIMCLRT
 70
    0
  9
$DIMTFAC
 40
1
  9
$DIMGAP
 40
0.625
  9
$DIMJUST
 70
    0
  9
$DIMSD1
 70
    0
  9
$DIMSD2
 70
    0
  9
$DIMTOLJ
 70
    0
  9
$DIMTZIN
 70
    8
  9
$DIMALTZ
 70
    0
  9
$DIMALTTZ
 70
    0
  9
$DIMUPT
 70
    0
  9
$DIMDEC
 70
    2
  9
$DIMTDEC
 70
    2
  9
$DIMALTU
 70
    2
  9
$DIMALTTD
 70
    3
  9
$DIMTXSTY
  7
STANDARD
  9
$DIMAUNIT
 70
    0
  9
$DIMADEC
 70
    0
  9
$DIMALTRND
 40
0
  9
$DIMAZIN
 70
    0
  9
$DIMDSEP
 70
   44
  9
$DIMATFIT
 70
    3
  9
$DIMFRAC
 70
    0
  9
$DIMLDRBLK
  1
STANDARD
  9
$DIMLUNIT
 70
    2
  9
$DIMLWD
 70
   -2
  9
$DIMLWE
 70
   -2
  9
$DIMTMOVE
 70
    0
  9
$DIMFXL
 40
1
  9
$DIMFXLON
 70
    0
  9
$DIMJOGANG
 40
0.7854
  9
$DIMTFILL
 70
    0
  9
$DIMTFILLCLR
 70
    0
  9
$DIMARCSYM
 70
    0
  9
$DIMLTYPE
  6

  9
$DIMLTEX1
  6

  9
$DIMLTEX2
  6

  9
$LUNITS
 70
    2
  9
$LUPREC
 70
    4
  9
$SKETCHINC
 40
1
  9
$FILLETRAD
 40
0
  9
$AUNITS
 70
    0
  9
$AUPREC
 70
    2
  9
$MENU
  1
.
  9
$ELEVATION
 40
0
  9
$PELEVATION
 40
0
  9
$THICKNESS
 40
0
  9
$LIMCHECK
 70
    0
  9
$CHAMFERA
 40
0
  9
$CHAMFERB
 40
0
  9
$CHAMFERC
 40
0
  9
$CHAMFERD
 40
0
  9
$SKPOLY
 70
    0
  9
$USRTIMER
 70
    1
  9
$ANGBASE
 50
0
  9
$ANGDIR
 70
    0
  9
$PDMODE
 70
   34
  9
$PDSIZE
 40
0
  9
$PLINEWID
 40
0
  9
$SPLFRAME
 70
    0
  9
$SPLINETYPE
 70
    2
  9
$SPLINESEGS
 70
    8
  9
$HANDSEED
  5
20000
  9
$SURFTAB1
 70
    6
  9
$SURFTAB2
 70
    6
  9
$SURFTYPE
 70
    6
  9
$SURFU
 70
    6
  9
$SURFV
 70
    6
  9
$UCSBASE
  2

  9
$UCSNAME
  2

  9
$UCSORG
 10
0
 20
0
 30
0
  9
$UCSXDIR
 10
1
 20
0
 30
0
  9
$UCSYDIR
 10
0
 20
1
 30
0
  9
$UCSORTHOREF
  2

  9
$UCSORTHOVIEW
 70
    0
  9
$UCSORGTOP
 10
0
 20
0
 30
0
  9
$UCSORGBOTTOM
 10
0
 20
0
 30
0
  9
$UCSORGLEFT
 10
0
 20
0
 30
0
  9
$UCSORGRIGHT
 10
0
 20
0
 30
0
  9
$UCSORGFRONT
 10
0
 20
0
 30
0
  9
$UCSORGBACK
 10
0
 20
0
 30
0
  9
$PUCSBASE
  2

  9
$PUCSNAME
  2

  9
$PUCSORG
 10
0
 20
0
 30
0
  9
$PUCSXDIR
 10
1
 20
0
 30
0
  9
$PUCSYDIR
 10
0
 20
1
 30
0
  9
$PUCSORTHOREF
  2

  9
$PUCSORTHOVIEW
 70
    0
  9
$PUCSORGTOP
 10
0
 20
0
 30
0
  9
$PUCSORGBOTTOM
 10
0
 20
0
 30
0
  9
$PUCSORGLEFT
 10
0
 20
0
 30
0
  9
$PUCSORGRIGHT
 10
0
 20
0
 30
0
  9
$PUCSORGFRONT
 10
0
 20
0
 30
0
  9
$PUCSORGBACK
 10
0
 20
0
 30
0
  9
$USERI1
 70
    0
  9
$USERI2
 70
    0
  9
$USERI3
 70
    0
  9
$USERI4
 70
    0
  9
$USERI5
 70
    0
  9
$USERR1
 40
0
  9
$USERR2
 40
0
  9
$USERR3
 40
0
  9
$USERR4
 40
0
  9
$USERR5
 40
0
  9
$WORLDVIEW
 70
    1
  9
$SHADEDGE
 70
    3
  9
$SHADEDIF
 70
   70
  9
$TILEMODE
 70
    1
  9
$MAXACTVP
 70
   64
  9
$PINSBASE
 10
0
 20
0
 30
0
  9
$PLIMCHECK
 70
    0
  9
$PEXTMIN
 10
0
 20
0
 30
0
  9
$PEXTMAX
 10
0
 20
0
 30
0
  9
$GRIDMODE
 70
    0
  9
$SNAPSTYLE
 70
    0
  9
$PLIMMIN
 10
0
 20
0
  9
$PLIMMAX
 10
210
 20
297
  9
$UNITMODE
 70
    0
  9
$VISRETAIN
 70
    1
  9
$PLINEGEN
 70
    0
  9
$PSLTSCALE
 70
    1
  9
$TREEDEPTH
 70
 3020
  9
$CMLSTYLE
  2
Standard
  9
$CMLJUST
 70
    0
  9
$CMLSCALE
 40
20
  9
$PROXYGRAPHICS
 70
    1
  9
$MEASUREMENT
 70
    1
  9
$CELWEIGHT
370
   -1
  9
$ENDCAPS
280
    0
  9
$JOINSTYLE
280
    0
  9
$LWDISPLAY
290
    0
  9
$INSUNITS
 70
    4
  9
$HYPERLINKBASE
  1

  9
$STYLESHEET
  1

  9
$XEDIT
290
    1
  9
$CEPSNTYPE
380
    0
  9
$PSTYLEMODE
290
    1
  9
$EXTNAMES
290
    1
  9
$PSVPSCALE
 40
1
  9
$OLESTARTUP
290
    0
  9
$SORTENTS
280
  127
  9
$INDEXCTL
280
    0
  9
$HIDETEXT
280
    1
  9
$XCLIPFRAME
290
    0
  9
$HALOGAP
280
    0
  9
$OBSCOLOR
 70
  257
  9
$OBSLTYPE
280
    0
  9
$INTERSECTIONDISPLAY
280
    0
  9
$INTERSECTIONCOLOR
 70
  257
  9
$DIMASSOC
280
    1
  9
$PROJECTNAME
  1

  9
$CAMERADISPLAY
290
    0
  9
$LENSLENGTH
 40
50
  9
$CAMERAHEIGHT
 40
0
  9
$STEPSPERSEC
 40
2
  9
$STEPSIZE
 40
50
  9
$3DDWFPREC
 40
2
  9
$PSOLWIDTH
 40
5
  9
$PSOLHEIGHT
 40
80
  9
$LOFTANG1
 40
1.570796326794897
  9
$LOFTANG2
 40
1.570796326794897
  9
$LOFTMAG1
 40
0
  9
$LOFTMAG2
 40
0
  9
$LOFTPARAM
 70
    7
  9
$LOFTNORMALS
280
    1
  9
$LATITUDE
 40
1
  9
$LONGITUDE
 40
1
  9
$NORTHDIRECTION
 40
0
  9
$TIMEZONE
 70
-8000
  9
$LIGHTGLYPHDISPLAY
280
    1
  9
$TILEMODELIGHTSYNCH
280
    1
  9
$SOLIDHIST
280
    1
  9
$SHOWHIST
280
    1
  9
$DWFFRAME
280
    2
  9
$DGNFRAME
280
    0
  9
$REALWORLDSCALE
290
    1
  9
$INTERFERECOLOR
 62
    1
  9
$CSHADOW
280
    0
  9
$SHADOWPLANELOCATION
 40
0
  0
ENDSEC
  0
SECTION
  2
CLASSES
  0
ENDSEC
  0
SECTION
  2
TABLES
  0
TABLE
  2
VPORT
  5
8
330
0
100
AcDbSymbolTable
 70
    1
  0
VPORT
  5
31
330
2
100
AcDbSymbolTableRecord
100
AcDbViewportTableRecord
  2
*ACTIVE
 70
    0
 10
0
 20
0
 11
1
 21
1
 12
0.3093062496587984
 22
0.3180031246492047
 13
0
 23
0
 14
10
 24
10
 15
10
 25
10
 16
0
 26
0
 36
1
 17
0
 27
0
 37
0
 40
0.6624749992692113
 41
2.527397260273973
 42
50
 43
0
 44
0
 50
0
 51
0
 71
    0
 72
  100
 73
    1
 74
    3
 75
    0
 76
    0
 77
    0
 78
    0
281
    0
 65
    1
110
0
120
0
130
0
111
1
121
0
131
0
112
0
122
1
132
0
 79
    0
146
0
348
10020
 60
    7
 61
    5
292
1
282
    1
141
0
142
0
 63
  250
421
3358443
  0
ENDTAB
  0
TABLE
  2
LTYPE
  5
5
330
0
100
AcDbSymbolTable
 70
    4
  0
LTYPE
  5
14
330
5
100
AcDbSymbolTableRecord
100
AcDbLinetypeTableRecord
  2
ByBlock
 70
    0
  3

 72
   65
 73
    0
 40
0
  0
LTYPE
  5
15
330
5
100
AcDbSymbolTableRecord
100
AcDbLinetypeTableRecord
  2
ByLayer
 70
    0
  3

 72
   65
 73
    0
 40
0
  0
LTYPE
  5
16
330
5
100
AcDbSymbolTableRecord
100
AcDbLinetypeTableRecord
  2
Continuous
 70
    0
  3
Solid line
 72
   65
 73
    0
 40
0
  0
LTYPE
  5
32
330
5
100
AcDbSymbolTableRecord
100
AcDbLinetypeTableRecord
  2
DOT
 70
    0
  3
Dot . . . . . . . . . . . . . . . . . . . . . .
 72
   65
 73
    2
 40
6.35
 49
0
 74
    0
 49
-6.35
 74
    0
  0
LTYPE
  5
33
330
5
100
AcDbSymbolTableRecord
100
AcDbLinetypeTableRecord
  2
DOTTINY
 70
    0
  3
Dot (.15x) .....................................
 72
   65
 73
    2
 40
0.9525
 49
0
 74
    0
 49
-0.9525
 74
    0
  0
LTYPE
  5
34
330
5
100
AcDbSymbolTableRecord
100
AcDbLinetypeTableRecord
  2
DOT2
 70
    0
  3
Dot (.5x) .....................................
 72
   65
 73
    2
 40
3.175
 49
0
 74
    0
 49
-3.175
 74
    0
  0
LTYPE
  5
35
330
5
100
AcDbSymbolTableRecord
100
AcDbLinetypeTableRecord
  2
DOTX2
 70
    0
  3
Dot (2x) .  .  .  .  .  .  .  .  .  .  .  .  .
 72
   65
 73
    2
 40
12.7
 49
0
 74
    0
 49
-12.7
 74
    0
  0
LTYPE
  5
36
330
5
100
AcDbSymbolTableRecord
100
AcDbLinetypeTableRecord
  2
DASHED
 70
    0
  3
Dashed _ _ _ _ _ _ _ _ _ _ _ _ _ _ _ _ _
 72
   65
 73
    2
 40
19.05
 49
12.7
 74
    0
 49
-6.35
 74
    0
  0
LTYPE
  5
37
330
5
100
AcDbSymbolTableRecord
100
AcDbLinetypeTableRecord
  2
DASHEDTINY
 70
    0
  3
Dashed (.15x) _ _ _ _ _ _ _ _ _ _ _ _ _ _ _ _ _
 72
   65
 73
    2
 40
2.8575
 49
1.905
 74
    0
 49
-0.9525
 74
    0
  0
LTYPE
  5
38
330
5
100
AcDbSymbolTableRecord
100
AcDbLinetypeTableRecord
  2
DASHED2
 70
    0
  3
Dashed (.5x) _ _ _ _ _ _ _ _ _ _ _ _ _ _ _ _ _
 72
   65
 73
    2
 40
9.524999999999999
 49
6.35
 74
    0
 49
-3.175
 74
    0
  0
LTYPE
  5
39
330
5
100
AcDbSymbolTableRecord
100
AcDbLinetypeTableRecord
  2
DASHEDX2
 70
    0
  3
Dashed (2x) ____  ____  ____  ____  ____  ___
 72
   65
 73
    2
 40
38.09999999999999
 49
25.4
 74
    0
 49
-12.7
 74
    0
  0
LTYPE
  5
3A
330
5
100
AcDbSymbolTableRecord
100
AcDbLinetypeTableRecord
  2
DASHDOT
 70
    0
  3
Dash dot __ . __ . __ . __ . __ . __ . __ . __
 72
   65
 73
    4
 40
25.4
 49
12.7
 74
    0
 49
-6.35
 74
    0
 49
0
 74
    0
 49
-6.35
 74
    0
  0
LTYPE
  5
3B
330
5
100
AcDbSymbolTableRecord
100
AcDbLinetypeTableRecord
  2
DASHDOTTINY
 70
    0
  3
Dash dot (.15x) _._._._._._._._._._._._._._._.
 72
   65
 73
    4
 40
3.81
 49
1.905
 74
    0
 49
-0.9525
 74
    0
 49
0
 74
    0
 49
-0.9525
 74
    0
  0
LTYPE
  5
3C
330
5
100
AcDbSymbolTableRecord
100
AcDbLinetypeTableRecord
  2
DASHDOT2
 70
    0
  3
Dash dot (.5x) _._._._._._._._._._._._._._._.
 72
   65
 73
    4
 40
12.7
 49
6.35
 74
    0
 49
-3.175
 74
    0
 49
0
 74
    0
 49
-3.175
 74
    0
  0
LTYPE
  5
3D
330
5
100
AcDbSymbolTableRecord
100
AcDbLinetypeTableRecord
  2
DASHDOTX2
 70
    0
  3
Dash dot (2x) ____  .  ____  .  ____  .  ___
 72
   65
 73
    4
 40
50.8
 49
25.4
 74
    0
 49
-12.7
 74
    0
 49
0
 74
    0
 49
-12.7
 74
    0
  0
LTYPE
  5
3E
330
5
100
AcDbSymbolTableRecord
100
AcDbLinetypeTableRecord
  2
DIVIDE
 70
    0
  3
Divide ____ . . ____ . . ____ . . ____ . . ____
 72
   65
 73
    6
 40
31.75
 49
12.7
 74
    0
 49
-6.35
 74
    0
 49
0
 74
    0
 49
-6.35
 74
    0
 49
0
 74
    0
 49
-6.35
 74
    0
  0
LTYPE
  5
3F
330
5
100
AcDbSymbolTableRecord
100
AcDbLinetypeTableRecord
  2
DIVIDETINY
 70
    0
  3
Divide (.15x) __..__..__..__..__..__..__..__.._
 72
   65
 73
    6
 40
4.7625
 49
1.905
 74
    0
 49
-0.9525
 74
    0
 49
0
 74
    0
 49
-0.9525
 74
    0
 49
0
 74
    0
 49
-0.9525
 74
    0
  0
LTYPE
  5
40
330
5
100
AcDbSymbolTableRecord
100
AcDbLinetypeTableRecord
  2
DIVIDE2
 70
    0
  3
Divide (.5x) __..__..__..__..__..__..__..__.._
 72
   65
 73
    6
 40
15.875
 49
6.35
 74
    0
 49
-3.175
 74
    0
 49
0
 74
    0
 49
-3.175
 74
    0
 49
0
 74
    0
 49
-3.175
 74
    0
  0
LTYPE
  5
41
330
5
100
AcDbSymbolTableRecord
100
AcDbLinetypeTableRecord
  2
DIVIDEX2
 70
    0
  3
Divide (2x) ________  .  .  ________  .  .  _
 72
   65
 73
    6
 40
63.5
 49
25.4
 74
    0
 49
-12.7
 74
    0
 49
0
 74
    0
 49
-12.7
 74
    0
 49
0
 74
    0
 49
-12.7
 74
    0
  0
LTYPE
  5
42
330
5
100
AcDbSymbolTableRecord
100
AcDbLinetypeTableRecord
  2
BORDER
 70
    0
  3
Border __ __ . __ __ . __ __ . __ __ . __ __ .
 72
   65
 73
    6
 40
44.45
 49
12.7
 74
    0
 49
-6.35
 74
    0
 49
12.7
 74
    0
 49
-6.35
 74
    0
 49
0
 74
    0
 49
-6.35
 74
    0
  0
LTYPE
  5
43
330
5
100
AcDbSymbolTableRecord
100
AcDbLinetypeTableRecord
  2
BORDERTINY
 70
    0
  3
Border (.15x) __.__.__.__.__.__.__.__.__.__.__.
 72
   65
 73
    6
 40
6.6675
 49
1.905
 74
    0
 49
-0.9525
 74
    0
 49
1.905
 74
    0
 49
-0.9525
 74
    0
 49
0
 74
    0
 49
-0.9525
 74
    0
  0
LTYPE
  5
44
330
5
100
AcDbSymbolTableRecord
100
AcDbLinetypeTableRecord
  2
BORDER2
 70
    0
  3
Border (.5x) __.__.__.__.__.__.__.__.__.__.__.
 72
   65
 73
    6
 40
22.225
 49
6.35
 74
    0
 49
-3.175
 74
    0
 49
6.35
 74
    0
 49
-3.175
 74
    0
 49
0
 74
    0
 49
-3.175
 74
    0
  0
LTYPE
  5
45
330
5
100
AcDbSymbolTableRecord
100
AcDbLinetypeTableRecord
  2
BORDERX2
 70
    0
  3
Border (2x) ____  ____  .  ____  ____  .  ___
 72
   65
 73
    6
 40
88.89999999999999
 49
25.4
 74
    0
 49
-12.7
 74
    0
 49
25.4
 74
    0
 49
-12.7
 74
    0
 49
0
 74
    0
 49
-12.7
 74
    0
  0
LTYPE
  5
46
330
5
100
AcDbSymbolTableRecord
100
AcDbLinetypeTableRecord
  2
CENTER
 70
    0
  3
Center ____ _ ____ _ ____ _ ____ _ ____ _ ____
 72
   65
 73
    4
 40
50.8
 49
31.75
 74
    0
 49
-6.35
 74
    0
 49
6.35
 74
    0
 49
-6.35
 74
    0
  0
LTYPE
  5
47
330
5
100
AcDbSymbolTableRecord
100
AcDbLinetypeTableRecord
  2
CENTERTINY
 70
    0
  3
Center (.15x) ___ _ ___ _ ___ _ ___ _ ___ _ ___
 72
   65
 73
    4
 40
7.619999999999999
 49
4.7625
 74
    0
 49
-0.9525
 74
    0
 49
0.9525
 74
    0
 49
-0.9525
 74
    0
  0
LTYPE
  5
48
330
5
100
AcDbSymbolTableRecord
100
AcDbLinetypeTableRecord
  2
CENTER2
 70
    0
  3
Center (.5x) ___ _ ___ _ ___ _ ___ _ ___ _ ___
 72
   65
 73
    4
 40
28.575
 49
19.05
 74
    0
 49
-3.175
 74
    0
 49
3.175
 74
    0
 49
-3.175
 74
    0
  0
LTYPE
  5
49
330
5
100
AcDbSymbolTableRecord
100
AcDbLinetypeTableRecord
  2
CENTERX2
 70
    0
  3
Center (2x) ________  __  ________  __  _____
 72
   65
 73
    4
 40
101.6
 49
63.5
 74
    0
 49
-12.7
 74
    0
 49
12.7
 74
    0
 49
-12.7
 74
    0
  0
ENDTAB
  0
TABLE
  2
LAYER
  5
2
330
0
100
AcDbSymbolTable
 70
    1
  0
LAYER
  5
10
330
2
100
AcDbSymbolTableRecord
100
AcDbLayerTableRecord
  2
0
 70
    0
 62
    7
  6
CONTINUOUS
370
    0
390
F
  0
LAYER
  5
4A
330
2
100
AcDbSymbolTableRecord
100
AcDbLayerTableRecord
  2
profiling
 70
    0
 62
    3
  6
CONTINUOUS
370
    0
390
F
  0
LAYER
  5
4B
330
2
100
AcDbSymbolTableRecord
100
AcDbLayerTableRecord
  2
vcut
 70
    0
 62
    6
  6
CONTINUOUS
370
    0
390
F
  0
ENDTAB
  0
TABLE
  2
STYLE
  5
3
330
0
100
AcDbSymbolTable
 70
    3
  0
STYLE
  5
4C
330
2
100
AcDbSymbolTableRecord
100
AcDbTextStyleTableRecord
  2
Standard
 70
    0
 40
0
 41
1
 50
0
 71
    0
 42
1
  3
txt
  4

  0
ENDTAB
  0
TABLE
  2
VIEW
  5
6
330
0
100
AcDbSymbolTable
 70
    0
  0
ENDTAB
  0
TABLE
  2
UCS
  5
7
330
0
100
AcDbSymbolTable
 70
    0
  0
ENDTAB
  0
TABLE
  2
APPID
  5
9
330
0
100
AcDbSymbolTable
 70
    1
  0
APPID
  5
12
330
9
100
AcDbSymbolTableRecord
100
AcDbRegAppTableRecord
  2
ACAD
 70
    0
  0
APPID
  5
4D
330
9
100
AcDbSymbolTableRecord
100
AcDbRegAppTableRecord
  2
LibreCad
 70
    0
  0
ENDTAB
  0
TABLE
  2
DIMSTYLE
  5
A
330
0
100
AcDbSymbolTable
 70
    1
100
AcDbDimStyleTable
 71
    1
  0
DIMSTYLE
105
4E
330
A
100
AcDbSymbolTableRecord
100
AcDbDimStyleTableRecord
  2
Standard
 70
    0
 40
1
 41
2.5
 42
0.625
 43
0.38
 44
1.25
 45
0
 46
0
 47
0
 48
0
 49
1
140
2.5
141
0.09
142
2.5
143
25.4
144
1
145
0
146
1
147
0.625
148
0
 71
    0
 72
    0
 73
    0
 74
    1
 75
    0
 76
    0
 77
    0
 78
    1
 79
    0
170
    0
171
    2
172
    0
173
    0
174
    0
175
    0
176
    0
177
    0
178
    0
179
    0
271
    2
272
    4
273
    2
274
    2
275
    0
276
    0
277
    2
278
    0
279
    0
280
    0
281
    0
282
    0
283
    1
284
    0
285
    0
286
    0
288
    0
289
    3
340
standard
341

371
   -2
372
   -2
  0
ENDTAB
  0
TABLE
  2
BLOCK_RECORD
  5
1
330
0
100
AcDbSymbolTable
 70
    2
  0
BLOCK_RECORD
  5
1F
330
1
100
AcDbSymbolTableRecord
100
AcDbBlockTableRecord
  2
*Model_Space
 70
    0
280
    1
281
    0
  0
BLOCK_RECORD
  5
1E
330
1
100
AcDbSymbolTableRecord
100
AcDbBlockTableRecord
  2
*Paper_Space
 70
    0
280
    1
281
    0
  0
ENDTAB
  0
ENDSEC
  0
SECTION
  2
BLOCKS
  0
BLOCK
  5
20
330
1F
100
AcDbEntity
  8
0
100
AcDbBlockBegin
  2
*Model_Space
 70
    0
 10
0
 20
0
 30
0
  3
*Model_Space
  1

  0
ENDBLK
  5
21
330
1F
100
AcDbEntity
  8
0
100
AcDbBlockEnd
  0
BLOCK
  5
1C
330
1B
100
AcDbEntity
  8
0
100
AcDbBlockBegin
  2
*Paper_Space
 70
    0
 10
0
 20
0
 30
0
  3
*Paper_Space
  1

  0
ENDBLK
  5
1D
330
1F
100
AcDbEntity
  8
0
100
AcDbBlockEnd
  0
ENDSEC
  0
SECTION
  2
ENTITIES
  0
LINE
  5
4F
100
AcDbEntity
  8
0
  6
ByLayer
 62
  256
370
   -1
100
AcDbLine
 10
-0.2713630497455597
 20
0.5885339975357056
 11
-0.2713630497455597
 21
0.5876201391220093
  0
LINE
  5
50
100
AcDbEntity
  8
profiling
  6
ByLayer
 62
  256
370
   -1
100
AcDbLine
 10
-0.386993408203125
 20
0.1015081480145454
 11
-0.3880024254322052
 21
0.1031916365027428
  0
LINE
  5
51
100
AcDbEntity
  8
profiling
  6
ByLayer
 62
  256
370
   -1
100
AcDbLine
 10
-0.3902678191661835
 20
0.110659696161747
 11
-0.3903641402721405
 21
0.112620048224926
  0
LINE
  5
52
100
AcDbEntity
  8
profiling
  6
ByLayer
 62
  256
370
   -1
100
AcDbLine
 10
-0.3902677893638611
 20
0.5645805597305298
 11
-0.3899798095226288
 21
0.5665220618247986
  0
LINE
  5
53
100
AcDbEntity
  8
profiling
  6
ByLayer
 62
  256
370
   -1
100
AcDbLine
 10
-0.3761690258979797
 20
0.5817598700523376
 11
-0.3742651641368866
 21
0.5822367668151855
  0
LINE
  5
54
100
AcDbEntity
  8
profiling
  6
ByLayer
 62
  256
370
   -1
100
AcDbLine
 10
-0.364874005317688
 20
0.5633502602577209
 11
-0.3422986567020416
 21
0.5633502602577209
  0
LINE
  5
55
100
AcDbEntity
  8
profiling
  6
ByLayer
 62
  256
370
   -1
100
AcDbLine
 10
-0.2004275768995285
 20
0.5633503198623657
 11
-0.1778522431850433
 21
0.5633503198623657
  0
LINE
  5
56
100
AcDbEntity
  8
profiling
  6
ByLayer
 62
  256
370
   -1
100
AcDbLine
 10
-0.1778522431850433
 20
0.5633503198623657
 11
-0.1778522431850433
 21
0.5826200842857361
  0
LINE
  5
57
100
AcDbEntity
  8
profiling
  6
ByLayer
 62
  256
370
   -1
100
AcDbLine
 10
-0.1684610843658447
 20
0.5822367668151855
 11
-0.1665572077035904
 21
0.5817599296569824
  0
LINE
  5
58
100
AcDbEntity
  8
profiling
  6
ByLayer
 62
  256
370
   -1
100
AcDbLine
 10
-0.1647090464830399
 20
0.5810986161231995
 11
-0.1629347950220108
 21
0.5802594423294067
  0
LINE
  5
59
100
AcDbEntity
  8
profiling
  6
ByLayer
 62
  256
370
   -1
100
AcDbLine
 10
-0.1582202613353729
 20
0.5767629742622375
 11
-0.1569021642208099
 21
0.575308620929718
  0
LINE
  5
5A
100
AcDbEntity
  8
profiling
  6
ByLayer
 62
  256
370
   -1
100
AcDbLine
 10
-0.1532233357429504
 20
0.5684260725975037
 11
-0.1527464538812637
 21
0.5665222406387329
  0
LINE
  5
5B
100
AcDbEntity
  8
profiling
  6
ByLayer
 62
  256
370
   -1
100
AcDbLine
 10
-0.1523620933294296
 20
0.1126200556755066
 11
-0.1524583995342255
 21
0.1106597036123276
  0
LINE
  5
5C
100
AcDbEntity
  8
profiling
  6
ByLayer
 62
  256
370
   -1
100
AcDbLine
 10
-0.1538846343755722
 20
0.1049659997224808
 11
-0.1547237783670425
 21
0.1031917333602905
  0
LINE
  5
5D
100
AcDbEntity
  8
profiling
  6
ByLayer
 62
  256
370
   -1
100
AcDbLine
 10
-0.1582202613353729
 20
0.09847722947597504
 11
-0.1596745550632477
 21
0.09715914726257324
  0
LINE
  5
5E
100
AcDbEntity
  8
profiling
  6
ByLayer
 62
  256
370
   -1
100
AcDbLine
 10
-0.1629347503185272
 20
0.09498076140880585
 11
-0.1647090166807175
 21
0.09414158761501312
  0
LINE
  5
5F
100
AcDbEntity
  8
profiling
  6
ByLayer
 62
  256
370
   -1
100
AcDbLine
 10
-0.172363206744194
 20
0.09261910617351532
 11
-0.2713631093502045
 21
0.09261910617351532
  0
LINE
  5
60
100
AcDbEntity
  8
profiling
  6
ByLayer
 62
  256
370
   -1
100
AcDbLine
 10
-0.374265193939209
 20
0.09300341457128525
 11
-0.3761690557003021
 21
0.09348031133413315
  0
LINE
  5
61
100
AcDbEntity
  8
profiling
  6
ByLayer
 62
  256
370
   -1
100
AcDbLine
 10
-0.336631566286087
 20
0.5732299089431763
 11
-0.3367225527763367
 21
0.5729299783706665
  0
LINE
  5
62
100
AcDbEntity
  8
profiling
  6
ByLayer
 62
  256
370
   -1
100
AcDbLine
 10
-0.3367225527763367
 20
0.5729299783706665
 11
-0.3367532789707184
 21
0.5726180076599121
  0
LINE
  5
63
100
AcDbEntity
  8
profiling
  6
ByLayer
 62
  256
370
   -1
100
AcDbLine
 10
-0.3367532789707184
 20
0.5726180076599121
 11
-0.3367225527763367
 21
0.5723060369491577
  0
LINE
  5
64
100
AcDbEntity
  8
profiling
  6
ByLayer
 62
  256
370
   -1
100
AcDbLine
 10
-0.3367225527763367
 20
0.5723060369491577
 11
-0.336631566286087
 21
0.5720060467720032
  0
LINE
  5
65
100
AcDbEntity
  8
profiling
  6
ByLayer
 62
  256
370
   -1
100
AcDbLine
 10
-0.336631566286087
 20
0.5720060467720032
 11
-0.3364837765693665
 21
0.5717296004295349
  0
LINE
  5
66
100
AcDbEntity
  8
profiling
  6
ByLayer
 62
  256
370
   -1
100
AcDbLine
 10
-0.3364837765693665
 20
0.5717296004295349
 11
-0.3362849354743958
 21
0.5714873075485229
  0
LINE
  5
67
100
AcDbEntity
  8
profiling
  6
ByLayer
 62
  256
370
   -1
100
AcDbLine
 10
-0.3362849354743958
 20
0.5714873075485229
 11
-0.3360426127910614
 21
0.5712884664535522
  0
LINE
  5
68
100
AcDbEntity
  8
profiling
  6
ByLayer
 62
  256
370
   -1
100
AcDbLine
 10
-0.3360426127910614
 20
0.5712884664535522
 11
-0.3357661664485931
 21
0.5711407065391541
  0
LINE
  5
69
100
AcDbEntity
  8
profiling
  6
ByLayer
 62
  256
370
   -1
100
AcDbLine
 10
-0.3357661664485931
 20
0.5711407065391541
 11
-0.335466206073761
 21
0.5710497498512268
  0
LINE
  5
6A
100
AcDbEntity
  8
profiling
  6
ByLayer
 62
  256
370
   -1
100
AcDbLine
 10
-0.335466206073761
 20
0.5710497498512268
 11
-0.335154265165329
 21
0.5710189938545227
  0
LINE
  5
6B
100
AcDbEntity
  8
profiling
  6
ByLayer
 62
  256
370
   -1
100
AcDbLine
 10
-0.335154265165329
 20
0.5710189938545227
 11
-0.3348423540592194
 21
0.5710497498512268
  0
LINE
  5
6C
100
AcDbEntity
  8
profiling
  6
ByLayer
 62
  256
370
   -1
100
AcDbLine
 10
-0.3348423540592194
 20
0.5710497498512268
 11
-0.3345423638820648
 21
0.5711407065391541
  0
LINE
  5
6D
100
AcDbEntity
  8
profiling
  6
ByLayer
 62
  256
370
   -1
100
AcDbLine
 10
-0.3345423638820648
 20
0.5711407065391541
 11
-0.3342659175395966
 21
0.5712884664535522
  0
LINE
  5
6E
100
AcDbEntity
  8
profiling
  6
ByLayer
 62
  256
370
   -1
100
AcDbLine
 10
-0.3342659175395966
 20
0.5712884664535522
 11
-0.3340236246585846
 21
0.5714873075485229
  0
LINE
  5
6F
100
AcDbEntity
  8
profiling
  6
ByLayer
 62
  256
370
   -1
100
AcDbLine
 10
-0.3340236246585846
 20
0.5714873075485229
 11
-0.3338247537612915
 21
0.5717296004295349
  0
LINE
  5
70
100
AcDbEntity
  8
profiling
  6
ByLayer
 62
  256
370
   -1
100
AcDbLine
 10
-0.3338247537612915
 20
0.5717296004295349
 11
-0.3336769938468933
 21
0.5720060467720032
  0
LINE
  5
71
100
AcDbEntity
  8
profiling
  6
ByLayer
 62
  256
370
   -1
100
AcDbLine
 10
-0.3336769938468933
 20
0.5720060467720032
 11
-0.3335860073566437
 21
0.5723060369491577
  0
LINE
  5
72
100
AcDbEntity
  8
profiling
  6
ByLayer
 62
  256
370
   -1
100
AcDbLine
 10
-0.3335860073566437
 20
0.5723060369491577
 11
-0.3335702121257782
 21
0.572466254234314
  0
LINE
  5
73
100
AcDbEntity
  8
profiling
  6
ByLayer
 62
  256
370
   -1
100
AcDbLine
 10
-0.3335702121257782
 20
0.572466254234314
 11
-0.333555281162262
 21
0.5726180076599121
  0
LINE
  5
74
100
AcDbEntity
  8
profiling
  6
ByLayer
 62
  256
370
   -1
100
AcDbLine
 10
-0.333555281162262
 20
0.5726180076599121
 11
-0.3335860073566437
 21
0.5729299783706665
  0
LINE
  5
75
100
AcDbEntity
  8
profiling
  6
ByLayer
 62
  256
370
   -1
100
AcDbLine
 10
-0.3335860073566437
 20
0.5729299783706665
 11
-0.3336769938468933
 21
0.5732299089431763
  0
LINE
  5
76
100
AcDbEntity
  8
profiling
  6
ByLayer
 62
  256
370
   -1
100
AcDbLine
 10
-0.3336769938468933
 20
0.5732299089431763
 11
-0.3338247537612915
 21
0.5735063552856445
  0
LINE
  5
77
100
AcDbEntity
  8
profiling
  6
ByLayer
 62
  256
370
   -1
100
AcDbLine
 10
-0.3338247537612915
 20
0.5735063552856445
 11
-0.3340236246585846
 21
0.5737486481666565
  0
LINE
  5
78
100
AcDbEntity
  8
profiling
  6
ByLayer
 62
  256
370
   -1
100
AcDbLine
 10
-0.3340236246585846
 20
0.5737486481666565
 11
-0.3342659175395966
 21
0.5739474892616272
  0
LINE
  5
79
100
AcDbEntity
  8
profiling
  6
ByLayer
 62
  256
370
   -1
100
AcDbLine
 10
-0.3342659175395966
 20
0.5739474892616272
 11
-0.3345423638820648
 21
0.5740952491760254
  0
LINE
  5
7A
100
AcDbEntity
  8
profiling
  6
ByLayer
 62
  256
370
   -1
100
AcDbLine
 10
-0.3345423638820648
 20
0.5740952491760254
 11
-0.3348423540592194
 21
0.5741862058639526
  0
LINE
  5
7B
100
AcDbEntity
  8
profiling
  6
ByLayer
 62
  256
370
   -1
100
AcDbLine
 10
-0.3348423540592194
 20
0.5741862058639526
 11
-0.335154265165329
 21
0.5742169618606567
  0
LINE
  5
7C
100
AcDbEntity
  8
profiling
  6
ByLayer
 62
  256
370
   -1
100
AcDbLine
 10
-0.335154265165329
 20
0.5742169618606567
 11
-0.335466206073761
 21
0.5741862058639526
  0
LINE
  5
7D
100
AcDbEntity
  8
profiling
  6
ByLayer
 62
  256
370
   -1
100
AcDbLine
 10
-0.335466206073761
 20
0.5741862058639526
 11
-0.3357661664485931
 21
0.5740952491760254
  0
LINE
  5
7E
100
AcDbEntity
  8
profiling
  6
ByLayer
 62
  256
370
   -1
100
AcDbLine
 10
-0.3357661664485931
 20
0.5740952491760254
 11
-0.3360426127910614
 21
0.5739474892616272
  0
LINE
  5
7F
100
AcDbEntity
  8
profiling
  6
ByLayer
 62
  256
370
   -1
100
AcDbLine
 10
-0.3360426127910614
 20
0.5739474892616272
 11
-0.3362849354743958
 21
0.5737486481666565
  0
LINE
  5
80
100
AcDbEntity
  8
profiling
  6
ByLayer
 62
  256
370
   -1
100
AcDbLine
 10
-0.3362849354743958
 20
0.5737486481666565
 11
-0.3364837765693665
 21
0.5735063552856445
  0
LINE
  5
81
100
AcDbEntity
  8
profiling
  6
ByLayer
 62
  256
370
   -1
100
AcDbLine
 10
-0.3406572937965393
 20
0.1202255189418793
 11
-0.3412691950798035
 21
0.1201037913560867
  0
LINE
  5
82
100
AcDbEntity
  8
profiling
  6
ByLayer
 62
  256
370
   -1
100
AcDbLine
 10
-0.3412691950798035
 20
0.1201037913560867
 11
-0.3417879641056061
 21
0.119757205247879
  0
LINE
  5
83
100
AcDbEntity
  8
profiling
  6
ByLayer
 62
  256
370
   -1
100
AcDbLine
 10
-0.3417879641056061
 20
0.119757205247879
 11
-0.3419785797595978
 21
0.1194718927145004
  0
LINE
  5
84
100
AcDbEntity
  8
profiling
  6
ByLayer
 62
  256
370
   -1
100
AcDbLine
 10
-0.3419785797595978
 20
0.1194718927145004
 11
-0.342134565114975
 21
0.1192384362220764
  0
LINE
  5
85
100
AcDbEntity
  8
profiling
  6
ByLayer
 62
  256
370
   -1
100
AcDbLine
 10
-0.342134565114975
 20
0.1192384362220764
 11
-0.3421745896339417
 21
0.1190371811389923
  0
LINE
  5
86
100
AcDbEntity
  8
profiling
  6
ByLayer
 62
  256
370
   -1
100
AcDbLine
 10
-0.3421745896339417
 20
0.1190371811389923
 11
-0.3422562777996063
 21
0.1186265349388123
  0
LINE
  5
87
100
AcDbEntity
  8
profiling
  6
ByLayer
 62
  256
370
   -1
100
AcDbLine
 10
-0.3422562777996063
 20
0.1186265349388123
 11
-0.342134565114975
 21
0.1180146336555481
  0
LINE
  5
88
100
AcDbEntity
  8
profiling
  6
ByLayer
 62
  256
370
   -1
100
AcDbLine
 10
-0.342134565114975
 20
0.1180146336555481
 11
-0.3417879641056061
 21
0.1174958646297455
  0
LINE
  5
89
100
AcDbEntity
  8
profiling
  6
ByLayer
 62
  256
370
   -1
100
AcDbLine
 10
-0.3417879641056061
 20
0.1174958646297455
 11
-0.3412691950798035
 21
0.1171492785215378
  0
LINE
  5
8A
100
AcDbEntity
  8
profiling
  6
ByLayer
 62
  256
370
   -1
100
AcDbLine
 10
-0.3412691950798035
 20
0.1171492785215378
 11
-0.3406572937965393
 21
0.1170275509357452
  0
LINE
  5
8B
100
AcDbEntity
  8
profiling
  6
ByLayer
 62
  256
370
   -1
100
AcDbLine
 10
-0.3406572937965393
 20
0.1170275509357452
 11
-0.3401245176792145
 21
0.1171335428953171
  0
LINE
  5
8C
100
AcDbEntity
  8
profiling
  6
ByLayer
 62
  256
370
   -1
100
AcDbLine
 10
-0.3398238122463226
 20
0.1172973215579987
 11
-0.3395266532897949
 21
0.1174958646297455
  0
LINE
  5
8D
100
AcDbEntity
  8
profiling
  6
ByLayer
 62
  256
370
   -1
100
AcDbLine
 10
-0.3395266532897949
 20
0.1174958646297455
 11
-0.339180052280426
 21
0.1180146336555481
  0
LINE
  5
8E
100
AcDbEntity
  8
profiling
  6
ByLayer
 62
  256
370
   -1
100
AcDbLine
 10
-0.339180052280426
 20
0.1180146336555481
 11
-0.3390583097934723
 21
0.1186265349388123
  0
LINE
  5
8F
100
AcDbEntity
  8
profiling
  6
ByLayer
 62
  256
370
   -1
100
AcDbLine
 10
-0.3390583097934723
 20
0.1186265349388123
 11
-0.339180052280426
 21
0.1192384362220764
  0
LINE
  5
90
100
AcDbEntity
  8
profiling
  6
ByLayer
 62
  256
370
   -1
100
AcDbLine
 10
-0.339180052280426
 20
0.1192384362220764
 11
-0.3395266532897949
 21
0.119757205247879
  0
LINE
  5
91
100
AcDbEntity
  8
profiling
  6
ByLayer
 62
  256
370
   -1
100
AcDbLine
 10
-0.3395266532897949
 20
0.119757205247879
 11
-0.3400453925132751
 21
0.1201037913560867
  0
LINE
  5
92
100
AcDbEntity
  8
profiling
  6
ByLayer
 62
  256
370
   -1
100
AcDbLine
 10
-0.2087025940418243
 20
0.5737487077713013
 11
-0.2089014649391174
 21
0.5735063552856445
  0
LINE
  5
93
100
AcDbEntity
  8
profiling
  6
ByLayer
 62
  256
370
   -1
100
AcDbLine
 10
-0.2089014649391174
 20
0.5735063552856445
 11
-0.2090492248535156
 21
0.5732299089431763
  0
LINE
  5
94
100
AcDbEntity
  8
profiling
  6
ByLayer
 62
  256
370
   -1
100
AcDbLine
 10
-0.2090492248535156
 20
0.5732299089431763
 11
-0.2091402113437653
 21
0.5729300379753113
  0
LINE
  5
95
100
AcDbEntity
  8
profiling
  6
ByLayer
 62
  256
370
   -1
100
AcDbLine
 10
-0.2091402113437653
 20
0.5729300379753113
 11
-0.209170937538147
 21
0.5726180076599121
  0
LINE
  5
96
100
AcDbEntity
  8
profiling
  6
ByLayer
 62
  256
370
   -1
100
AcDbLine
 10
-0.209170937538147
 20
0.5726180076599121
 11
-0.2091402113437653
 21
0.5723060369491577
  0
LINE
  5
97
100
AcDbEntity
  8
profiling
  6
ByLayer
 62
  256
370
   -1
100
AcDbLine
 10
-0.2091402113437653
 20
0.5723060369491577
 11
-0.2090492248535156
 21
0.5720061063766479
  0
LINE
  5
98
100
AcDbEntity
  8
profiling
  6
ByLayer
 62
  256
370
   -1
100
AcDbLine
 10
-0.2090492248535156
 20
0.5720061063766479
 11
-0.2089014649391174
 21
0.5717296004295349
  0
LINE
  5
99
100
AcDbEntity
  8
profiling
  6
ByLayer
 62
  256
370
   -1
100
AcDbLine
 10
-0.2089014649391174
 20
0.5717296004295349
 11
-0.2087025940418243
 21
0.5714873671531677
  0
LINE
  5
9A
100
AcDbEntity
  8
profiling
  6
ByLayer
 62
  256
370
   -1
100
AcDbLine
 10
-0.2087025940418243
 20
0.5714873671531677
 11
-0.2084603011608124
 21
0.571288526058197
  0
LINE
  5
9B
100
AcDbEntity
  8
profiling
  6
ByLayer
 62
  256
370
   -1
100
AcDbLine
 10
-0.2084603011608124
 20
0.571288526058197
 11
-0.2081838548183441
 21
0.5711407661437988
  0
LINE
  5
9C
100
AcDbEntity
  8
profiling
  6
ByLayer
 62
  256
370
   -1
100
AcDbLine
 10
-0.2081838548183441
 20
0.5711407661437988
 11
-0.207883894443512
 21
0.5710497498512268
  0
LINE
  5
9D
100
AcDbEntity
  8
profiling
  6
ByLayer
 62
  256
370
   -1
100
AcDbLine
 10
-0.207883894443512
 20
0.5710497498512268
 11
-0.20757195353508
 21
0.5710190534591675
  0
LINE
  5
9E
100
AcDbEntity
  8
profiling
  6
ByLayer
 62
  256
370
   -1
100
AcDbLine
 10
-0.20757195353508
 20
0.5710190534591675
 11
-0.2072600126266479
 21
0.5710497498512268
  0
LINE
  5
9F
100
AcDbEntity
  8
profiling
  6
ByLayer
 62
  256
370
   -1
100
AcDbLine
 10
-0.2072600126266479
 20
0.5710497498512268
 11
-0.206960067152977
 21
0.5711407661437988
  0
LINE
  5
A0
100
AcDbEntity
  8
profiling
  6
ByLayer
 62
  256
370
   -1
100
AcDbLine
 10
-0.206960067152977
 20
0.5711407661437988
 11
-0.2066836208105087
 21
0.571288526058197
  0
LINE
  5
A1
100
AcDbEntity
  8
profiling
  6
ByLayer
 62
  256
370
   -1
100
AcDbLine
 10
-0.2066836208105087
 20
0.571288526058197
 11
-0.2064412832260132
 21
0.5714873671531677
  0
LINE
  5
A2
100
AcDbEntity
  8
profiling
  6
ByLayer
 62
  256
370
   -1
100
AcDbLine
 10
-0.2064412832260132
 20
0.5714873671531677
 11
-0.2062424570322037
 21
0.5717296004295349
  0
LINE
  5
A3
100
AcDbEntity
  8
profiling
  6
ByLayer
 62
  256
370
   -1
100
AcDbLine
 10
-0.2062424570322037
 20
0.5717296004295349
 11
-0.2060946524143219
 21
0.5720061063766479
  0
LINE
  5
A4
100
AcDbEntity
  8
profiling
  6
ByLayer
 62
  256
370
   -1
100
AcDbLine
 10
-0.2060946524143219
 20
0.5720061063766479
 11
-0.2060036659240723
 21
0.5723060369491577
  0
LINE
  5
A5
100
AcDbEntity
  8
profiling
  6
ByLayer
 62
  256
370
   -1
100
AcDbLine
 10
-0.2060036659240723
 20
0.5723060369491577
 11
-0.2059729844331741
 21
0.5726180076599121
  0
LINE
  5
A6
100
AcDbEntity
  8
profiling
  6
ByLayer
 62
  256
370
   -1
100
AcDbLine
 10
-0.2059729844331741
 20
0.5726180076599121
 11
-0.2060036659240723
 21
0.5729300379753113
  0
LINE
  5
A7
100
AcDbEntity
  8
profiling
  6
ByLayer
 62
  256
370
   -1
100
AcDbLine
 10
-0.2060036659240723
 20
0.5729300379753113
 11
-0.2060946524143219
 21
0.5732299089431763
  0
LINE
  5
A8
100
AcDbEntity
  8
profiling
  6
ByLayer
 62
  256
370
   -1
100
AcDbLine
 10
-0.2060946524143219
 20
0.5732299089431763
 11
-0.2062424570322037
 21
0.5735063552856445
  0
LINE
  5
A9
100
AcDbEntity
  8
profiling
  6
ByLayer
 62
  256
370
   -1
100
AcDbLine
 10
-0.2062424570322037
 20
0.5735063552856445
 11
-0.2064412832260132
 21
0.5737487077713013
  0
LINE
  5
AA
100
AcDbEntity
  8
profiling
  6
ByLayer
 62
  256
370
   -1
100
AcDbLine
 10
-0.2064412832260132
 20
0.5737487077713013
 11
-0.2066836208105087
 21
0.5739474892616272
  0
LINE
  5
AB
100
AcDbEntity
  8
profiling
  6
ByLayer
 62
  256
370
   -1
100
AcDbLine
 10
-0.206960067152977
 20
0.5740952491760254
 11
-0.2072600126266479
 21
0.5741863250732422
  0
LINE
  5
AC
100
AcDbEntity
  8
profiling
  6
ByLayer
 62
  256
370
   -1
100
AcDbLine
 10
-0.2072600126266479
 20
0.5741863250732422
 11
-0.20757195353508
 21
0.5742170214653015
  0
LINE
  5
AD
100
AcDbEntity
  8
profiling
  6
ByLayer
 62
  256
370
   -1
100
AcDbLine
 10
-0.20757195353508
 20
0.5742170214653015
 11
-0.207883894443512
 21
0.5741863250732422
  0
LINE
  5
AE
100
AcDbEntity
  8
profiling
  6
ByLayer
 62
  256
370
   -1
100
AcDbLine
 10
-0.207883894443512
 20
0.5741863250732422
 11
-0.2081838548183441
 21
0.5740952491760254
  0
LINE
  5
AF
100
AcDbEntity
  8
profiling
  6
ByLayer
 62
  256
370
   -1
100
AcDbLine
 10
-0.2081838548183441
 20
0.5740952491760254
 11
-0.2084603011608124
 21
0.5739474892616272
  0
LINE
  5
B0
100
AcDbEntity
  8
profiling
  6
ByLayer
 62
  256
370
   -1
100
AcDbLine
 10
-0.2036679089069366
 20
0.1186265349388123
 11
-0.2035461664199829
 21
0.1180146336555481
  0
LINE
  5
B1
100
AcDbEntity
  8
profiling
  6
ByLayer
 62
  256
370
   -1
100
AcDbLine
 10
-0.2035461664199829
 20
0.1180146336555481
 11
-0.2031995803117752
 21
0.1174958646297455
  0
LINE
  5
B2
100
AcDbEntity
  8
profiling
  6
ByLayer
 62
  256
370
   -1
100
AcDbLine
 10
-0.2031995803117752
 20
0.1174958646297455
 11
-0.202680841088295
 21
0.1171492785215378
  0
LINE
  5
B3
100
AcDbEntity
  8
profiling
  6
ByLayer
 62
  256
370
   -1
100
AcDbLine
 10
-0.202680841088295
 20
0.1171492785215378
 11
-0.2020689249038696
 21
0.1170275509357452
  0
LINE
  5
B4
100
AcDbEntity
  8
profiling
  6
ByLayer
 62
  256
370
   -1
100
AcDbLine
 10
-0.2020689249038696
 20
0.1170275509357452
 11
-0.2014570385217667
 21
0.1171492785215378
  0
LINE
  5
B5
100
AcDbEntity
  8
profiling
  6
ByLayer
 62
  256
370
   -1
100
AcDbLine
 10
-0.2014570385217667
 20
0.1171492785215378
 11
-0.2009382545948029
 21
0.1174958646297455
  0
LINE
  5
B6
100
AcDbEntity
  8
profiling
  6
ByLayer
 62
  256
370
   -1
100
AcDbLine
 10
-0.2009382545948029
 20
0.1174958646297455
 11
-0.200591653585434
 21
0.1180146336555481
  0
LINE
  5
B7
100
AcDbEntity
  8
profiling
  6
ByLayer
 62
  256
370
   -1
100
AcDbLine
 10
-0.200591653585434
 20
0.1180146336555481
 11
-0.2004699558019638
 21
0.1186265349388123
  0
LINE
  5
B8
100
AcDbEntity
  8
profiling
  6
ByLayer
 62
  256
370
   -1
100
AcDbLine
 10
-0.2004699558019638
 20
0.1186265349388123
 11
-0.200591653585434
 21
0.1192384362220764
  0
LINE
  5
B9
100
AcDbEntity
  8
profiling
  6
ByLayer
 62
  256
370
   -1
100
AcDbLine
 10
-0.200591653585434
 20
0.1192384362220764
 11
-0.2009382545948029
 21
0.119757205247879
  0
LINE
  5
BA
100
AcDbEntity
  8
profiling
  6
ByLayer
 62
  256
370
   -1
100
AcDbLine
 10
-0.2009382545948029
 20
0.119757205247879
 11
-0.2014570385217667
 21
0.1201037913560867
  0
LINE
  5
BB
100
AcDbEntity
  8
profiling
  6
ByLayer
 62
  256
370
   -1
100
AcDbLine
 10
-0.2014570385217667
 20
0.1201037913560867
 11
-0.2020689249038696
 21
0.1202255189418793
  0
LINE
  5
BC
100
AcDbEntity
  8
profiling
  6
ByLayer
 62
  256
370
   -1
100
AcDbLine
 10
-0.2020689249038696
 20
0.1202255189418793
 11
-0.202680841088295
 21
0.1201037913560867
  0
LINE
  5
BD
100
AcDbEntity
  8
profiling
  6
ByLayer
 62
  256
370
   -1
100
AcDbLine
 10
-0.202680841088295
 20
0.1201037913560867
 11
-0.2031995803117752
 21
0.119757205247879
  0
LINE
  5
BE
100
AcDbEntity
  8
profiling
  6
ByLayer
 62
  256
370
   -1
100
AcDbLine
 10
-0.2031995803117752
 20
0.119757205247879
 11
-0.2035461664199829
 21
0.1192384362220764
  0
LINE
  5
BF
100
AcDbEntity
  8
profiling
  6
ByLayer
 62
  256
370
   -1
100
AcDbLine
 10
-0.3845060169696808
 20
0.09847725182771683
 11
-0.3858241438865662
 21
0.09993162006139755
  0
LINE
  5
C0
100
AcDbEntity
  8
profiling
  6
ByLayer
 62
  256
370
   -1
100
AcDbLine
 10
-0.3858241438865662
 20
0.09993162006139755
 11
-0.386993408203125
 21
0.1015081480145454
  0
LINE
  5
C1
100
AcDbEntity
  8
profiling
  6
ByLayer
 62
  256
370
   -1
100
AcDbLine
 10
-0.3880024254322052
 20
0.1031916365027428
 11
-0.3888416290283203
 21
0.1049659922719002
  0
LINE
  5
C2
100
AcDbEntity
  8
profiling
  6
ByLayer
 62
  256
370
   -1
100
AcDbLine
 10
-0.3888416290283203
 20
0.1049659922719002
 11
-0.3895029127597809
 21
0.1068141385912895
  0
LINE
  5
C3
100
AcDbEntity
  8
profiling
  6
ByLayer
 62
  256
370
   -1
100
AcDbLine
 10
-0.3895029127597809
 20
0.1068141385912895
 11
-0.3899798095226288
 21
0.108718104660511
  0
LINE
  5
C4
100
AcDbEntity
  8
profiling
  6
ByLayer
 62
  256
370
   -1
100
AcDbLine
 10
-0.3899798095226288
 20
0.108718104660511
 11
-0.3902678191661835
 21
0.110659696161747
  0
LINE
  5
C5
100
AcDbEntity
  8
profiling
  6
ByLayer
 62
  256
370
   -1
100
AcDbLine
 10
-0.3903641402721405
 20
0.112620048224926
 11
-0.3903641104698181
 21
0.5626201033592224
  0
LINE
  5
C6
100
AcDbEntity
  8
profiling
  6
ByLayer
 62
  256
370
   -1
100
AcDbLine
 10
-0.3903641104698181
 20
0.5626201033592224
 11
-0.3902677893638611
 21
0.5645805597305298
  0
LINE
  5
C7
100
AcDbEntity
  8
profiling
  6
ByLayer
 62
  256
370
   -1
100
AcDbLine
 10
-0.3899798095226288
 20
0.5665220618247986
 11
-0.3895028531551361
 21
0.5684261322021484
  0
LINE
  5
C8
100
AcDbEntity
  8
profiling
  6
ByLayer
 62
  256
370
   -1
100
AcDbLine
 10
-0.3895028531551361
 20
0.5684261322021484
 11
-0.3888415992259979
 21
0.5702741742134094
  0
LINE
  5
C9
100
AcDbEntity
  8
profiling
  6
ByLayer
 62
  256
370
   -1
100
AcDbLine
 10
-0.3888415992259979
 20
0.5702741742134094
 11
-0.3880024552345276
 21
0.5720484852790833
  0
LINE
  5
CA
100
AcDbEntity
  8
profiling
  6
ByLayer
 62
  256
370
   -1
100
AcDbLine
 10
-0.3880024552345276
 20
0.5720484852790833
 11
-0.3869932889938354
 21
0.5737320780754089
  0
LINE
  5
CB
100
AcDbEntity
  8
profiling
  6
ByLayer
 62
  256
370
   -1
100
AcDbLine
 10
-0.3869932889938354
 20
0.5737320780754089
 11
-0.3858241140842438
 21
0.5753085613250732
  0
LINE
  5
CC
100
AcDbEntity
  8
profiling
  6
ByLayer
 62
  256
370
   -1
100
AcDbLine
 10
-0.3858241140842438
 20
0.5753085613250732
 11
-0.3845059871673584
 21
0.576762855052948
  0
LINE
  5
CD
100
AcDbEntity
  8
profiling
  6
ByLayer
 62
  256
370
   -1
100
AcDbLine
 10
-0.3845059871673584
 20
0.576762855052948
 11
-0.3830516338348389
 21
0.5780810117721558
  0
LINE
  5
CE
100
AcDbEntity
  8
profiling
  6
ByLayer
 62
  256
370
   -1
100
AcDbLine
 10
-0.3830516338348389
 20
0.5780810117721558
 11
-0.3814751207828522
 21
0.5792502760887146
  0
LINE
  5
CF
100
AcDbEntity
  8
profiling
  6
ByLayer
 62
  256
370
   -1
100
AcDbLine
 10
-0.3814751207828522
 20
0.5792502760887146
 11
-0.3797914683818817
 21
0.580259382724762
  0
LINE
  5
D0
100
AcDbEntity
  8
profiling
  6
ByLayer
 62
  256
370
   -1
100
AcDbLine
 10
-0.3797914683818817
 20
0.580259382724762
 11
-0.3780171573162079
 21
0.5810985565185547
  0
LINE
  5
D1
100
AcDbEntity
  8
profiling
  6
ByLayer
 62
  256
370
   -1
100
AcDbLine
 10
-0.3780171573162079
 20
0.5810985565185547
 11
-0.3761690258979797
 21
0.5817598700523376
  0
LINE
  5
D2
100
AcDbEntity
  8
profiling
  6
ByLayer
 62
  256
370
   -1
100
AcDbLine
 10
-0.3742651641368866
 20
0.5822367668151855
 11
-0.3723234832286835
 21
0.5825247764587402
  0
LINE
  5
D3
100
AcDbEntity
  8
profiling
  6
ByLayer
 62
  256
370
   -1
100
AcDbLine
 10
-0.3723234832286835
 20
0.5825247764587402
 11
-0.3703631162643433
 21
0.5826210975646973
  0
LINE
  5
D4
100
AcDbEntity
  8
profiling
  6
ByLayer
 62
  256
370
   -1
100
AcDbLine
 10
-0.3703631162643433
 20
0.5826210975646973
 11
-0.3648750185966492
 21
0.5826210975646973
  0
LINE
  5
D5
100
AcDbEntity
  8
profiling
  6
ByLayer
 62
  256
370
   -1
100
AcDbLine
 10
-0.3648750185966492
 20
0.5826210975646973
 11
-0.364874005317688
 21
0.5633502602577209
  0
LINE
  5
D6
100
AcDbEntity
  8
profiling
  6
ByLayer
 62
  256
370
   -1
100
AcDbLine
 10
-0.3422986567020416
 20
0.5633502602577209
 11
-0.3422979414463043
 21
0.5826210379600525
  0
LINE
  5
D7
100
AcDbEntity
  8
profiling
  6
ByLayer
 62
  256
370
   -1
100
AcDbLine
 10
-0.3422979414463043
 20
0.5826210379600525
 11
-0.2713631093502045
 21
0.5826210975646973
  0
LINE
  5
D8
100
AcDbEntity
  8
profiling
  6
ByLayer
 62
  256
370
   -1
100
AcDbLine
 10
-0.2713631093502045
 20
0.5826210975646973
 11
-0.2004283368587494
 21
0.5826210975646973
  0
LINE
  5
D9
100
AcDbEntity
  8
profiling
  6
ByLayer
 62
  256
370
   -1
100
AcDbLine
 10
-0.2004283368587494
 20
0.5826210975646973
 11
-0.2004275768995285
 21
0.5633503198623657
  0
LINE
  5
DA
100
AcDbEntity
  8
profiling
  6
ByLayer
 62
  256
370
   -1
100
AcDbLine
 10
-0.1778522431850433
 20
0.5826200842857361
 11
-0.1723632216453552
 21
0.5826210975646973
  0
LINE
  5
DB
100
AcDbEntity
  8
profiling
  6
ByLayer
 62
  256
370
   -1
100
AcDbLine
 10
-0.1723632216453552
 20
0.5826210975646973
 11
-0.1704027503728867
 21
0.582524836063385
  0
LINE
  5
DC
100
AcDbEntity
  8
profiling
  6
ByLayer
 62
  256
370
   -1
100
AcDbLine
 10
-0.1704027503728867
 20
0.582524836063385
 11
-0.1684610843658447
 21
0.5822367668151855
  0
LINE
  5
DD
100
AcDbEntity
  8
profiling
  6
ByLayer
 62
  256
370
   -1
100
AcDbLine
 10
-0.1665572077035904
 20
0.5817599296569824
 11
-0.1647090464830399
 21
0.5810986161231995
  0
LINE
  5
DE
100
AcDbEntity
  8
profiling
  6
ByLayer
 62
  256
370
   -1
100
AcDbLine
 10
-0.1629347950220108
 20
0.5802594423294067
 11
-0.1612512320280075
 21
0.5792503356933594
  0
LINE
  5
DF
100
AcDbEntity
  8
profiling
  6
ByLayer
 62
  256
370
   -1
100
AcDbLine
 10
-0.1612512320280075
 20
0.5792503356933594
 11
-0.1596745550632477
 21
0.5780810713768005
  0
LINE
  5
E0
100
AcDbEntity
  8
profiling
  6
ByLayer
 62
  256
370
   -1
100
AcDbLine
 10
-0.1596745550632477
 20
0.5780810713768005
 11
-0.1582202613353729
 21
0.5767629742622375
  0
LINE
  5
E1
100
AcDbEntity
  8
profiling
  6
ByLayer
 62
  256
370
   -1
100
AcDbLine
 10
-0.1569021642208099
 20
0.575308620929718
 11
-0.1557329446077347
 21
0.5737321376800537
  0
LINE
  5
E2
100
AcDbEntity
  8
profiling
  6
ByLayer
 62
  256
370
   -1
100
AcDbLine
 10
-0.1557329446077347
 20
0.5737321376800537
 11
-0.1547238379716873
 21
0.5720486044883728
  0
LINE
  5
E3
100
AcDbEntity
  8
profiling
  6
ByLayer
 62
  256
370
   -1
100
AcDbLine
 10
-0.1547238379716873
 20
0.5720486044883728
 11
-0.1538846492767334
 21
0.5702741742134094
  0
LINE
  5
E4
100
AcDbEntity
  8
profiling
  6
ByLayer
 62
  256
370
   -1
100
AcDbLine
 10
-0.1538846492767334
 20
0.5702741742134094
 11
-0.1532233357429504
 21
0.5684260725975037
  0
LINE
  5
E5
100
AcDbEntity
  8
profiling
  6
ByLayer
 62
  256
370
   -1
100
AcDbLine
 10
-0.1527464538812637
 20
0.5665222406387329
 11
-0.1524584293365479
 21
0.5645805597305298
  0
LINE
  5
E6
100
AcDbEntity
  8
profiling
  6
ByLayer
 62
  256
370
   -1
100
AcDbLine
 10
-0.1524584293365479
 20
0.5645805597305298
 11
-0.1523621082305908
 21
0.5626201629638672
  0
LINE
  5
E7
100
AcDbEntity
  8
profiling
  6
ByLayer
 62
  256
370
   -1
100
AcDbLine
 10
-0.1523621082305908
 20
0.5626201629638672
 11
-0.1523620933294296
 21
0.1126200556755066
  0
LINE
  5
E8
100
AcDbEntity
  8
profiling
  6
ByLayer
 62
  256
370
   -1
100
AcDbLine
 10
-0.1524583995342255
 20
0.1106597036123276
 11
-0.1527464538812637
 21
0.1087180376052856
  0
LINE
  5
E9
100
AcDbEntity
  8
profiling
  6
ByLayer
 62
  256
370
   -1
100
AcDbLine
 10
-0.1527464538812637
 20
0.1087180376052856
 11
-0.1532233059406281
 21
0.1068141460418701
  0
LINE
  5
EA
100
AcDbEntity
  8
profiling
  6
ByLayer
 62
  256
370
   -1
100
AcDbLine
 10
-0.1532233059406281
 20
0.1068141460418701
 11
-0.1538846343755722
 21
0.1049659997224808
  0
LINE
  5
EB
100
AcDbEntity
  8
profiling
  6
ByLayer
 62
  256
370
   -1
100
AcDbLine
 10
-0.1547237783670425
 20
0.1031917333602905
 11
-0.1557328402996063
 21
0.101508155465126
  0
LINE
  5
EC
100
AcDbEntity
  8
profiling
  6
ByLayer
 62
  256
370
   -1
100
AcDbLine
 10
-0.1557328402996063
 20
0.101508155465126
 11
-0.1569021344184875
 21
0.09993156790733337
  0
LINE
  5
ED
100
AcDbEntity
  8
profiling
  6
ByLayer
 62
  256
370
   -1
100
AcDbLine
 10
-0.1569021344184875
 20
0.09993156790733337
 11
-0.1582202613353729
 21
0.09847722947597504
  0
LINE
  5
EE
100
AcDbEntity
  8
profiling
  6
ByLayer
 62
  256
370
   -1
100
AcDbLine
 10
-0.1596745550632477
 20
0.09715914726257324
 11
-0.1612512022256851
 21
0.09598985314369202
  0
LINE
  5
EF
100
AcDbEntity
  8
profiling
  6
ByLayer
 62
  256
370
   -1
100
AcDbLine
 10
-0.1612512022256851
 20
0.09598985314369202
 11
-0.1629347503185272
 21
0.09498076140880585
  0
LINE
  5
F0
100
AcDbEntity
  8
profiling
  6
ByLayer
 62
  256
370
   -1
100
AcDbLine
 10
-0.1647090166807175
 20
0.09414158761501312
 11
-0.166557177901268
 21
0.09348031878471375
  0
LINE
  5
F1
100
AcDbEntity
  8
profiling
  6
ByLayer
 62
  256
370
   -1
100
AcDbLine
 10
-0.166557177901268
 20
0.09348031878471375
 11
-0.1684611588716507
 21
0.09300339221954346
  0
LINE
  5
F2
100
AcDbEntity
  8
profiling
  6
ByLayer
 62
  256
370
   -1
100
AcDbLine
 10
-0.1684611588716507
 20
0.09300339221954346
 11
-0.1704027205705643
 21
0.09271538257598877
  0
LINE
  5
F3
100
AcDbEntity
  8
profiling
  6
ByLayer
 62
  256
370
   -1
100
AcDbLine
 10
-0.1704027205705643
 20
0.09271538257598877
 11
-0.172363206744194
 21
0.09261910617351532
  0
LINE
  5
F4
100
AcDbEntity
  8
profiling
  6
ByLayer
 62
  256
370
   -1
100
AcDbLine
 10
-0.2713631093502045
 20
0.09261910617351532
 11
-0.370363175868988
 21
0.09261909872293472
  0
LINE
  5
F5
100
AcDbEntity
  8
profiling
  6
ByLayer
 62
  256
370
   -1
100
AcDbLine
 10
-0.370363175868988
 20
0.09261909872293472
 11
-0.3723235726356506
 21
0.09271540492773056
  0
LINE
  5
F6
100
AcDbEntity
  8
profiling
  6
ByLayer
 62
  256
370
   -1
100
AcDbLine
 10
-0.3723235726356506
 20
0.09271540492773056
 11
-0.374265193939209
 21
0.09300341457128525
  0
LINE
  5
F7
100
AcDbEntity
  8
profiling
  6
ByLayer
 62
  256
370
   -1
100
AcDbLine
 10
-0.3761690557003021
 20
0.09348031133413315
 11
-0.3780172169208527
 21
0.09414158016443253
  0
LINE
  5
F8
100
AcDbEntity
  8
profiling
  6
ByLayer
 62
  256
370
   -1
100
AcDbLine
 10
-0.3780172169208527
 20
0.09414158016443253
 11
-0.3797915577888489
 21
0.09498079866170883
  0
LINE
  5
F9
100
AcDbEntity
  8
profiling
  6
ByLayer
 62
  256
370
   -1
100
AcDbLine
 10
-0.3797915577888489
 20
0.09498079866170883
 11
-0.3814750611782074
 21
0.09598983079195023
  0
LINE
  5
FA
100
AcDbEntity
  8
profiling
  6
ByLayer
 62
  256
370
   -1
100
AcDbLine
 10
-0.3814750611782074
 20
0.09598983079195023
 11
-0.3830516636371613
 21
0.09715912491083145
  0
LINE
  5
FB
100
AcDbEntity
  8
profiling
  6
ByLayer
 62
  256
370
   -1
100
AcDbLine
 10
-0.3845060169696808
 20
0.09847725182771683
 11
-0.3830516636371613
 21
0.09715912491083145
  0
LINE
  5
FC
100
AcDbEntity
  8
profiling
  6
ByLayer
 62
  256
370
   -1
100
AcDbLine
 10
-0.336631566286087
 20
0.5732299089431763
 11
-0.3364837765693665
 21
0.5735063552856445
  0
LINE
  5
FD
100
AcDbEntity
  8
profiling
  6
ByLayer
 62
  256
370
   -1
100
AcDbLine
 10
-0.3401245176792145
 20
0.1171335428953171
 11
-0.3398238122463226
 21
0.1172973215579987
  0
LINE
  5
FE
100
AcDbEntity
  8
profiling
  6
ByLayer
 62
  256
370
   -1
100
AcDbLine
 10
-0.3406572937965393
 20
0.1202255189418793
 11
-0.3400453925132751
 21
0.1201037913560867
  0
LINE
  5
FF
100
AcDbEntity
  8
profiling
  6
ByLayer
 62
  256
370
   -1
100
AcDbLine
 10
-0.2087025940418243
 20
0.5737487077713013
 11
-0.2084603011608124
 21
0.5739474892616272
  0
LINE
  5
100
100
AcDbEntity
  8
profiling
  6
ByLayer
 62
  256
370
   -1
100
AcDbLine
 10
-0.2066836208105087
 20
0.5739474892616272
 11
-0.206960067152977
 21
0.5740952491760254
  0
LINE
  5
101
100
AcDbEntity
  8
profiling
  6
ByLayer
 62
  256
370
   -1
100
AcDbLine
 10
-0.2036679089069366
 20
0.1186265349388123
 11
-0.2035461664199829
 21
0.1192384362220764
  0
LINE
  5
102
100
AcDbEntity
  8
vcut
  6
ByLayer
 62
  256
370
   -1
100
AcDbLine
 10
-0.2713630497455597
 20
0.5876201391220093
 11
-0.2713630497455597
 21
0.08762013912200928
  0
ENDSEC
  0
SECTION
  2
OBJECTS
  0
DICTIONARY
  5
C
330
0
100
AcDbDictionary
281
    1
  3
ACAD_GROUP
350
D
  0
DICTIONARY
  5
D
330
C
100
AcDbDictionary
281
    1
  0
ENDSEC
  0
EOF
