%TF.GenerationSoftware,KiCad,Pcbnew,6.0.2+dfsg-1*%
%TF.CreationDate,2023-08-16T15:29:05+02:00*%
%TF.ProjectId,PiBLDC,5069424c-4443-42e6-9b69-6361645f7063,v01*%
%TF.SameCoordinates,Original*%
%TF.FileFunction,Legend,Top*%
%TF.FilePolarity,Positive*%
%FSLAX46Y46*%
G04 Gerber Fmt 4.6, Leading zero omitted, Abs format (unit mm)*
G04 Created by KiCad (PCBNEW 6.0.2+dfsg-1) date 2023-08-16 15:29:05*
%MOMM*%
%LPD*%
G01*
G04 APERTURE LIST*
%ADD10C,0.150000*%
%ADD11C,0.120000*%
G04 APERTURE END LIST*
D10*
X176111428Y-101965952D02*
X176111428Y-101204047D01*
X112611428Y-91805952D02*
X112611428Y-91044047D01*
X176111428Y-106410952D02*
X176111428Y-105649047D01*
X176492380Y-106030000D02*
X175730476Y-106030000D01*
X176111428Y-79105952D02*
X176111428Y-78344047D01*
X176492380Y-78725000D02*
X175730476Y-78725000D01*
X112611428Y-101965952D02*
X112611428Y-101204047D01*
X112992380Y-101585000D02*
X112230476Y-101585000D01*
X176111428Y-98155952D02*
X176111428Y-97394047D01*
X176492380Y-97775000D02*
X175730476Y-97775000D01*
X176111428Y-82915952D02*
X176111428Y-82154047D01*
X174206428Y-77013952D02*
X174206428Y-76252047D01*
X139576428Y-117277380D02*
X139243095Y-116801190D01*
X139005000Y-117277380D02*
X139005000Y-116277380D01*
X139385952Y-116277380D01*
X139481190Y-116325000D01*
X139528809Y-116372619D01*
X139576428Y-116467857D01*
X139576428Y-116610714D01*
X139528809Y-116705952D01*
X139481190Y-116753571D01*
X139385952Y-116801190D01*
X139005000Y-116801190D01*
X140195476Y-116277380D02*
X140385952Y-116277380D01*
X140481190Y-116325000D01*
X140576428Y-116420238D01*
X140624047Y-116610714D01*
X140624047Y-116944047D01*
X140576428Y-117134523D01*
X140481190Y-117229761D01*
X140385952Y-117277380D01*
X140195476Y-117277380D01*
X140100238Y-117229761D01*
X140005000Y-117134523D01*
X139957380Y-116944047D01*
X139957380Y-116610714D01*
X140005000Y-116420238D01*
X140100238Y-116325000D01*
X140195476Y-116277380D01*
X141052619Y-117277380D02*
X141052619Y-116277380D01*
X141385952Y-116991666D01*
X141719285Y-116277380D01*
X141719285Y-117277380D01*
X142195476Y-117277380D02*
X142195476Y-116277380D01*
X144005000Y-117182142D02*
X143957380Y-117229761D01*
X143814523Y-117277380D01*
X143719285Y-117277380D01*
X143576428Y-117229761D01*
X143481190Y-117134523D01*
X143433571Y-117039285D01*
X143385952Y-116848809D01*
X143385952Y-116705952D01*
X143433571Y-116515476D01*
X143481190Y-116420238D01*
X143576428Y-116325000D01*
X143719285Y-116277380D01*
X143814523Y-116277380D01*
X143957380Y-116325000D01*
X144005000Y-116372619D01*
X144862142Y-117277380D02*
X144862142Y-116753571D01*
X144814523Y-116658333D01*
X144719285Y-116610714D01*
X144528809Y-116610714D01*
X144433571Y-116658333D01*
X144862142Y-117229761D02*
X144766904Y-117277380D01*
X144528809Y-117277380D01*
X144433571Y-117229761D01*
X144385952Y-117134523D01*
X144385952Y-117039285D01*
X144433571Y-116944047D01*
X144528809Y-116896428D01*
X144766904Y-116896428D01*
X144862142Y-116848809D01*
X145338333Y-117277380D02*
X145338333Y-116277380D01*
X145338333Y-116658333D02*
X145433571Y-116610714D01*
X145624047Y-116610714D01*
X145719285Y-116658333D01*
X145766904Y-116705952D01*
X145814523Y-116801190D01*
X145814523Y-117086904D01*
X145766904Y-117182142D01*
X145719285Y-117229761D01*
X145624047Y-117277380D01*
X145433571Y-117277380D01*
X145338333Y-117229761D01*
X146385952Y-117277380D02*
X146290714Y-117229761D01*
X146243095Y-117134523D01*
X146243095Y-116277380D01*
X147147857Y-117229761D02*
X147052619Y-117277380D01*
X146862142Y-117277380D01*
X146766904Y-117229761D01*
X146719285Y-117134523D01*
X146719285Y-116753571D01*
X146766904Y-116658333D01*
X146862142Y-116610714D01*
X147052619Y-116610714D01*
X147147857Y-116658333D01*
X147195476Y-116753571D01*
X147195476Y-116848809D01*
X146719285Y-116944047D01*
X147624047Y-117277380D02*
X147624047Y-116277380D01*
X147624047Y-116658333D02*
X147719285Y-116610714D01*
X147909761Y-116610714D01*
X148005000Y-116658333D01*
X148052619Y-116705952D01*
X148100238Y-116801190D01*
X148100238Y-117086904D01*
X148052619Y-117182142D01*
X148005000Y-117229761D01*
X147909761Y-117277380D01*
X147719285Y-117277380D01*
X147624047Y-117229761D01*
X148671666Y-117277380D02*
X148576428Y-117229761D01*
X148528809Y-117182142D01*
X148481190Y-117086904D01*
X148481190Y-116801190D01*
X148528809Y-116705952D01*
X148576428Y-116658333D01*
X148671666Y-116610714D01*
X148814523Y-116610714D01*
X148909761Y-116658333D01*
X148957380Y-116705952D01*
X149005000Y-116801190D01*
X149005000Y-117086904D01*
X148957380Y-117182142D01*
X148909761Y-117229761D01*
X148814523Y-117277380D01*
X148671666Y-117277380D01*
X149290714Y-116610714D02*
X149671666Y-116610714D01*
X149433571Y-116277380D02*
X149433571Y-117134523D01*
X149481190Y-117229761D01*
X149576428Y-117277380D01*
X149671666Y-117277380D01*
X150766904Y-116896428D02*
X151528809Y-116896428D01*
X152766904Y-117277380D02*
X152766904Y-116277380D01*
X153147857Y-116277380D01*
X153243095Y-116325000D01*
X153290714Y-116372619D01*
X153338333Y-116467857D01*
X153338333Y-116610714D01*
X153290714Y-116705952D01*
X153243095Y-116753571D01*
X153147857Y-116801190D01*
X152766904Y-116801190D01*
X153766904Y-117277380D02*
X153766904Y-116610714D01*
X153766904Y-116277380D02*
X153719285Y-116325000D01*
X153766904Y-116372619D01*
X153814523Y-116325000D01*
X153766904Y-116277380D01*
X153766904Y-116372619D01*
X154576428Y-116753571D02*
X154719285Y-116801190D01*
X154766904Y-116848809D01*
X154814523Y-116944047D01*
X154814523Y-117086904D01*
X154766904Y-117182142D01*
X154719285Y-117229761D01*
X154624047Y-117277380D01*
X154243095Y-117277380D01*
X154243095Y-116277380D01*
X154576428Y-116277380D01*
X154671666Y-116325000D01*
X154719285Y-116372619D01*
X154766904Y-116467857D01*
X154766904Y-116563095D01*
X154719285Y-116658333D01*
X154671666Y-116705952D01*
X154576428Y-116753571D01*
X154243095Y-116753571D01*
X155719285Y-117277380D02*
X155243095Y-117277380D01*
X155243095Y-116277380D01*
X156052619Y-117277380D02*
X156052619Y-116277380D01*
X156290714Y-116277380D01*
X156433571Y-116325000D01*
X156528809Y-116420238D01*
X156576428Y-116515476D01*
X156624047Y-116705952D01*
X156624047Y-116848809D01*
X156576428Y-117039285D01*
X156528809Y-117134523D01*
X156433571Y-117229761D01*
X156290714Y-117277380D01*
X156052619Y-117277380D01*
X157624047Y-117182142D02*
X157576428Y-117229761D01*
X157433571Y-117277380D01*
X157338333Y-117277380D01*
X157195476Y-117229761D01*
X157100238Y-117134523D01*
X157052619Y-117039285D01*
X157005000Y-116848809D01*
X157005000Y-116705952D01*
X157052619Y-116515476D01*
X157100238Y-116420238D01*
X157195476Y-116325000D01*
X157338333Y-116277380D01*
X157433571Y-116277380D01*
X157576428Y-116325000D01*
X157624047Y-116372619D01*
X158719285Y-116610714D02*
X158957380Y-117277380D01*
X159195476Y-116610714D01*
X159766904Y-116277380D02*
X159862142Y-116277380D01*
X159957380Y-116325000D01*
X160005000Y-116372619D01*
X160052619Y-116467857D01*
X160100238Y-116658333D01*
X160100238Y-116896428D01*
X160052619Y-117086904D01*
X160005000Y-117182142D01*
X159957380Y-117229761D01*
X159862142Y-117277380D01*
X159766904Y-117277380D01*
X159671666Y-117229761D01*
X159624047Y-117182142D01*
X159576428Y-117086904D01*
X159528809Y-116896428D01*
X159528809Y-116658333D01*
X159576428Y-116467857D01*
X159624047Y-116372619D01*
X159671666Y-116325000D01*
X159766904Y-116277380D01*
X161052619Y-117277380D02*
X160481190Y-117277380D01*
X160766904Y-117277380D02*
X160766904Y-116277380D01*
X160671666Y-116420238D01*
X160576428Y-116515476D01*
X160481190Y-116563095D01*
X176111428Y-110220952D02*
X176111428Y-109459047D01*
X174206428Y-63865952D02*
X174206428Y-63104047D01*
X174587380Y-63485000D02*
X173825476Y-63485000D01*
%TO.C,J7*%
X121996666Y-113412380D02*
X121996666Y-114126666D01*
X121949047Y-114269523D01*
X121853809Y-114364761D01*
X121710952Y-114412380D01*
X121615714Y-114412380D01*
X122377619Y-113412380D02*
X123044285Y-113412380D01*
X122615714Y-114412380D01*
%TO.C,A2*%
X160878214Y-115116666D02*
X161354404Y-115116666D01*
X160782976Y-115402380D02*
X161116309Y-114402380D01*
X161449642Y-115402380D01*
X161735357Y-114497619D02*
X161782976Y-114450000D01*
X161878214Y-114402380D01*
X162116309Y-114402380D01*
X162211547Y-114450000D01*
X162259166Y-114497619D01*
X162306785Y-114592857D01*
X162306785Y-114688095D01*
X162259166Y-114830952D01*
X161687738Y-115402380D01*
X162306785Y-115402380D01*
X160259166Y-61538571D02*
X160402023Y-61586190D01*
X160449642Y-61633809D01*
X160497261Y-61729047D01*
X160497261Y-61871904D01*
X160449642Y-61967142D01*
X160402023Y-62014761D01*
X160306785Y-62062380D01*
X159925833Y-62062380D01*
X159925833Y-61062380D01*
X160259166Y-61062380D01*
X160354404Y-61110000D01*
X160402023Y-61157619D01*
X160449642Y-61252857D01*
X160449642Y-61348095D01*
X160402023Y-61443333D01*
X160354404Y-61490952D01*
X160259166Y-61538571D01*
X159925833Y-61538571D01*
X161402023Y-62062380D02*
X160925833Y-62062380D01*
X160925833Y-61062380D01*
X161735357Y-62062380D02*
X161735357Y-61062380D01*
X161973452Y-61062380D01*
X162116309Y-61110000D01*
X162211547Y-61205238D01*
X162259166Y-61300476D01*
X162306785Y-61490952D01*
X162306785Y-61633809D01*
X162259166Y-61824285D01*
X162211547Y-61919523D01*
X162116309Y-62014761D01*
X161973452Y-62062380D01*
X161735357Y-62062380D01*
X163306785Y-61967142D02*
X163259166Y-62014761D01*
X163116309Y-62062380D01*
X163021071Y-62062380D01*
X162878214Y-62014761D01*
X162782976Y-61919523D01*
X162735357Y-61824285D01*
X162687738Y-61633809D01*
X162687738Y-61490952D01*
X162735357Y-61300476D01*
X162782976Y-61205238D01*
X162878214Y-61110000D01*
X163021071Y-61062380D01*
X163116309Y-61062380D01*
X163259166Y-61110000D01*
X163306785Y-61157619D01*
%TO.C,J3*%
X176056380Y-81372333D02*
X176770666Y-81372333D01*
X176913523Y-81419952D01*
X177008761Y-81515190D01*
X177056380Y-81658047D01*
X177056380Y-81753285D01*
X176056380Y-80991380D02*
X176056380Y-80372333D01*
X176437333Y-80705666D01*
X176437333Y-80562809D01*
X176484952Y-80467571D01*
X176532571Y-80419952D01*
X176627809Y-80372333D01*
X176865904Y-80372333D01*
X176961142Y-80419952D01*
X177008761Y-80467571D01*
X177056380Y-80562809D01*
X177056380Y-80848523D01*
X177008761Y-80943761D01*
X176961142Y-80991380D01*
X174178571Y-84046000D02*
X174226190Y-83903142D01*
X174273809Y-83855523D01*
X174369047Y-83807904D01*
X174511904Y-83807904D01*
X174607142Y-83855523D01*
X174654761Y-83903142D01*
X174702380Y-83998380D01*
X174702380Y-84379333D01*
X173702380Y-84379333D01*
X173702380Y-84046000D01*
X173750000Y-83950761D01*
X173797619Y-83903142D01*
X173892857Y-83855523D01*
X173988095Y-83855523D01*
X174083333Y-83903142D01*
X174130952Y-83950761D01*
X174178571Y-84046000D01*
X174178571Y-84379333D01*
X174416666Y-83426952D02*
X174416666Y-82950761D01*
X174702380Y-83522190D02*
X173702380Y-83188857D01*
X174702380Y-82855523D01*
X173702380Y-82665047D02*
X173702380Y-82093619D01*
X174702380Y-82379333D02*
X173702380Y-82379333D01*
X174702380Y-80474571D02*
X174702380Y-81046000D01*
X174702380Y-80760285D02*
X173702380Y-80760285D01*
X173845238Y-80855523D01*
X173940476Y-80950761D01*
X173988095Y-81046000D01*
X173797619Y-80093619D02*
X173750000Y-80046000D01*
X173702380Y-79950761D01*
X173702380Y-79712666D01*
X173750000Y-79617428D01*
X173797619Y-79569809D01*
X173892857Y-79522190D01*
X173988095Y-79522190D01*
X174130952Y-79569809D01*
X174702380Y-80141238D01*
X174702380Y-79522190D01*
X173702380Y-79236476D02*
X174702380Y-78903142D01*
X173702380Y-78569809D01*
%TO.C,J1*%
X173598380Y-74389333D02*
X174312666Y-74389333D01*
X174455523Y-74436952D01*
X174550761Y-74532190D01*
X174598380Y-74675047D01*
X174598380Y-74770285D01*
X174598380Y-73389333D02*
X174598380Y-73960761D01*
X174598380Y-73675047D02*
X173598380Y-73675047D01*
X173741238Y-73770285D01*
X173836476Y-73865523D01*
X173884095Y-73960761D01*
X174503142Y-71063238D02*
X174550761Y-71110857D01*
X174598380Y-71253714D01*
X174598380Y-71348952D01*
X174550761Y-71491809D01*
X174455523Y-71587047D01*
X174360285Y-71634666D01*
X174169809Y-71682285D01*
X174026952Y-71682285D01*
X173836476Y-71634666D01*
X173741238Y-71587047D01*
X173646000Y-71491809D01*
X173598380Y-71348952D01*
X173598380Y-71253714D01*
X173646000Y-71110857D01*
X173693619Y-71063238D01*
X174598380Y-70634666D02*
X173598380Y-70634666D01*
X174074571Y-70634666D02*
X174074571Y-70063238D01*
X174598380Y-70063238D02*
X173598380Y-70063238D01*
X174312666Y-69634666D02*
X174312666Y-69158476D01*
X174598380Y-69729904D02*
X173598380Y-69396571D01*
X174598380Y-69063238D01*
X174598380Y-68158476D02*
X174122190Y-68491809D01*
X174598380Y-68729904D02*
X173598380Y-68729904D01*
X173598380Y-68348952D01*
X173646000Y-68253714D01*
X173693619Y-68206095D01*
X173788857Y-68158476D01*
X173931714Y-68158476D01*
X174026952Y-68206095D01*
X174074571Y-68253714D01*
X174122190Y-68348952D01*
X174122190Y-68729904D01*
X173646000Y-67206095D02*
X173598380Y-67301333D01*
X173598380Y-67444190D01*
X173646000Y-67587047D01*
X173741238Y-67682285D01*
X173836476Y-67729904D01*
X174026952Y-67777523D01*
X174169809Y-67777523D01*
X174360285Y-67729904D01*
X174455523Y-67682285D01*
X174550761Y-67587047D01*
X174598380Y-67444190D01*
X174598380Y-67348952D01*
X174550761Y-67206095D01*
X174503142Y-67158476D01*
X174169809Y-67158476D01*
X174169809Y-67348952D01*
X174074571Y-66729904D02*
X174074571Y-66396571D01*
X174598380Y-66253714D02*
X174598380Y-66729904D01*
X173598380Y-66729904D01*
X173598380Y-66253714D01*
X174598380Y-65253714D02*
X174122190Y-65587047D01*
X174598380Y-65825142D02*
X173598380Y-65825142D01*
X173598380Y-65444190D01*
X173646000Y-65348952D01*
X173693619Y-65301333D01*
X173788857Y-65253714D01*
X173931714Y-65253714D01*
X174026952Y-65301333D01*
X174074571Y-65348952D01*
X174122190Y-65444190D01*
X174122190Y-65825142D01*
%TO.C,J2*%
X173598380Y-94201333D02*
X174312666Y-94201333D01*
X174455523Y-94248952D01*
X174550761Y-94344190D01*
X174598380Y-94487047D01*
X174598380Y-94582285D01*
X173693619Y-93772761D02*
X173646000Y-93725142D01*
X173598380Y-93629904D01*
X173598380Y-93391809D01*
X173646000Y-93296571D01*
X173693619Y-93248952D01*
X173788857Y-93201333D01*
X173884095Y-93201333D01*
X174026952Y-93248952D01*
X174598380Y-93820380D01*
X174598380Y-93201333D01*
X174550761Y-91288000D02*
X174598380Y-91145142D01*
X174598380Y-90907047D01*
X174550761Y-90811809D01*
X174503142Y-90764190D01*
X174407904Y-90716571D01*
X174312666Y-90716571D01*
X174217428Y-90764190D01*
X174169809Y-90811809D01*
X174122190Y-90907047D01*
X174074571Y-91097523D01*
X174026952Y-91192761D01*
X173979333Y-91240380D01*
X173884095Y-91288000D01*
X173788857Y-91288000D01*
X173693619Y-91240380D01*
X173646000Y-91192761D01*
X173598380Y-91097523D01*
X173598380Y-90859428D01*
X173646000Y-90716571D01*
X173598380Y-90383238D02*
X174598380Y-90145142D01*
X173884095Y-89954666D01*
X174598380Y-89764190D01*
X173598380Y-89526095D01*
X174598380Y-89145142D02*
X173598380Y-89145142D01*
X173598380Y-88811809D02*
X173598380Y-88240380D01*
X174598380Y-88526095D02*
X173598380Y-88526095D01*
X174503142Y-87335619D02*
X174550761Y-87383238D01*
X174598380Y-87526095D01*
X174598380Y-87621333D01*
X174550761Y-87764190D01*
X174455523Y-87859428D01*
X174360285Y-87907047D01*
X174169809Y-87954666D01*
X174026952Y-87954666D01*
X173836476Y-87907047D01*
X173741238Y-87859428D01*
X173646000Y-87764190D01*
X173598380Y-87621333D01*
X173598380Y-87526095D01*
X173646000Y-87383238D01*
X173693619Y-87335619D01*
X174598380Y-86907047D02*
X173598380Y-86907047D01*
X174074571Y-86907047D02*
X174074571Y-86335619D01*
X174598380Y-86335619D02*
X173598380Y-86335619D01*
%TO.C,J5*%
X176042380Y-108199333D02*
X176756666Y-108199333D01*
X176899523Y-108246952D01*
X176994761Y-108342190D01*
X177042380Y-108485047D01*
X177042380Y-108580285D01*
X176042380Y-107246952D02*
X176042380Y-107723142D01*
X176518571Y-107770761D01*
X176470952Y-107723142D01*
X176423333Y-107627904D01*
X176423333Y-107389809D01*
X176470952Y-107294571D01*
X176518571Y-107246952D01*
X176613809Y-107199333D01*
X176851904Y-107199333D01*
X176947142Y-107246952D01*
X176994761Y-107294571D01*
X177042380Y-107389809D01*
X177042380Y-107627904D01*
X176994761Y-107723142D01*
X176947142Y-107770761D01*
X174702380Y-109511904D02*
X173702380Y-109511904D01*
X174416666Y-109178571D01*
X173702380Y-108845238D01*
X174702380Y-108845238D01*
X173702380Y-108178571D02*
X173702380Y-107988095D01*
X173750000Y-107892857D01*
X173845238Y-107797619D01*
X174035714Y-107750000D01*
X174369047Y-107750000D01*
X174559523Y-107797619D01*
X174654761Y-107892857D01*
X174702380Y-107988095D01*
X174702380Y-108178571D01*
X174654761Y-108273809D01*
X174559523Y-108369047D01*
X174369047Y-108416666D01*
X174035714Y-108416666D01*
X173845238Y-108369047D01*
X173750000Y-108273809D01*
X173702380Y-108178571D01*
X173702380Y-107464285D02*
X173702380Y-106892857D01*
X174702380Y-107178571D02*
X173702380Y-107178571D01*
X173702380Y-106369047D02*
X173702380Y-106178571D01*
X173750000Y-106083333D01*
X173845238Y-105988095D01*
X174035714Y-105940476D01*
X174369047Y-105940476D01*
X174559523Y-105988095D01*
X174654761Y-106083333D01*
X174702380Y-106178571D01*
X174702380Y-106369047D01*
X174654761Y-106464285D01*
X174559523Y-106559523D01*
X174369047Y-106607142D01*
X174035714Y-106607142D01*
X173845238Y-106559523D01*
X173750000Y-106464285D01*
X173702380Y-106369047D01*
X174702380Y-104940476D02*
X174226190Y-105273809D01*
X174702380Y-105511904D02*
X173702380Y-105511904D01*
X173702380Y-105130952D01*
X173750000Y-105035714D01*
X173797619Y-104988095D01*
X173892857Y-104940476D01*
X174035714Y-104940476D01*
X174130952Y-104988095D01*
X174178571Y-105035714D01*
X174226190Y-105130952D01*
X174226190Y-105511904D01*
%TO.C,A1*%
X136748214Y-115116666D02*
X137224404Y-115116666D01*
X136652976Y-115402380D02*
X136986309Y-114402380D01*
X137319642Y-115402380D01*
X138176785Y-115402380D02*
X137605357Y-115402380D01*
X137891071Y-115402380D02*
X137891071Y-114402380D01*
X137795833Y-114545238D01*
X137700595Y-114640476D01*
X137605357Y-114688095D01*
X133819642Y-61538571D02*
X133486309Y-61538571D01*
X133486309Y-62062380D02*
X133486309Y-61062380D01*
X133962500Y-61062380D01*
X134724404Y-62014761D02*
X134629166Y-62062380D01*
X134438690Y-62062380D01*
X134343452Y-62014761D01*
X134295833Y-61919523D01*
X134295833Y-61538571D01*
X134343452Y-61443333D01*
X134438690Y-61395714D01*
X134629166Y-61395714D01*
X134724404Y-61443333D01*
X134772023Y-61538571D01*
X134772023Y-61633809D01*
X134295833Y-61729047D01*
X135629166Y-62062380D02*
X135629166Y-61538571D01*
X135581547Y-61443333D01*
X135486309Y-61395714D01*
X135295833Y-61395714D01*
X135200595Y-61443333D01*
X135629166Y-62014761D02*
X135533928Y-62062380D01*
X135295833Y-62062380D01*
X135200595Y-62014761D01*
X135152976Y-61919523D01*
X135152976Y-61824285D01*
X135200595Y-61729047D01*
X135295833Y-61681428D01*
X135533928Y-61681428D01*
X135629166Y-61633809D01*
X135962500Y-61395714D02*
X136343452Y-61395714D01*
X136105357Y-61062380D02*
X136105357Y-61919523D01*
X136152976Y-62014761D01*
X136248214Y-62062380D01*
X136343452Y-62062380D01*
X136676785Y-62062380D02*
X136676785Y-61062380D01*
X137105357Y-62062380D02*
X137105357Y-61538571D01*
X137057738Y-61443333D01*
X136962500Y-61395714D01*
X136819642Y-61395714D01*
X136724404Y-61443333D01*
X136676785Y-61490952D01*
X137962500Y-62014761D02*
X137867261Y-62062380D01*
X137676785Y-62062380D01*
X137581547Y-62014761D01*
X137533928Y-61919523D01*
X137533928Y-61538571D01*
X137581547Y-61443333D01*
X137676785Y-61395714D01*
X137867261Y-61395714D01*
X137962500Y-61443333D01*
X138010119Y-61538571D01*
X138010119Y-61633809D01*
X137533928Y-61729047D01*
X138438690Y-62062380D02*
X138438690Y-61395714D01*
X138438690Y-61586190D02*
X138486309Y-61490952D01*
X138533928Y-61443333D01*
X138629166Y-61395714D01*
X138724404Y-61395714D01*
X139819642Y-62062380D02*
X139819642Y-61062380D01*
X140152976Y-61776666D01*
X140486309Y-61062380D01*
X140486309Y-62062380D01*
X141152976Y-61062380D02*
X141248214Y-61062380D01*
X141343452Y-61110000D01*
X141391071Y-61157619D01*
X141438690Y-61252857D01*
X141486309Y-61443333D01*
X141486309Y-61681428D01*
X141438690Y-61871904D01*
X141391071Y-61967142D01*
X141343452Y-62014761D01*
X141248214Y-62062380D01*
X141152976Y-62062380D01*
X141057738Y-62014761D01*
X141010119Y-61967142D01*
X140962500Y-61871904D01*
X140914880Y-61681428D01*
X140914880Y-61443333D01*
X140962500Y-61252857D01*
X141010119Y-61157619D01*
X141057738Y-61110000D01*
X141152976Y-61062380D01*
%TO.C,J4*%
X176056380Y-100122333D02*
X176770666Y-100122333D01*
X176913523Y-100169952D01*
X177008761Y-100265190D01*
X177056380Y-100408047D01*
X177056380Y-100503285D01*
X176389714Y-99217571D02*
X177056380Y-99217571D01*
X176008761Y-99455666D02*
X176723047Y-99693761D01*
X176723047Y-99074714D01*
X174702380Y-102157809D02*
X173702380Y-102157809D01*
X173702380Y-101919714D01*
X173750000Y-101776857D01*
X173845238Y-101681619D01*
X173940476Y-101634000D01*
X174130952Y-101586380D01*
X174273809Y-101586380D01*
X174464285Y-101634000D01*
X174559523Y-101681619D01*
X174654761Y-101776857D01*
X174702380Y-101919714D01*
X174702380Y-102157809D01*
X174607142Y-100586380D02*
X174654761Y-100634000D01*
X174702380Y-100776857D01*
X174702380Y-100872095D01*
X174654761Y-101014952D01*
X174559523Y-101110190D01*
X174464285Y-101157809D01*
X174273809Y-101205428D01*
X174130952Y-101205428D01*
X173940476Y-101157809D01*
X173845238Y-101110190D01*
X173750000Y-101014952D01*
X173702380Y-100872095D01*
X173702380Y-100776857D01*
X173750000Y-100634000D01*
X173797619Y-100586380D01*
X174702380Y-98872095D02*
X174702380Y-99443523D01*
X174702380Y-99157809D02*
X173702380Y-99157809D01*
X173845238Y-99253047D01*
X173940476Y-99348285D01*
X173988095Y-99443523D01*
X173797619Y-98491142D02*
X173750000Y-98443523D01*
X173702380Y-98348285D01*
X173702380Y-98110190D01*
X173750000Y-98014952D01*
X173797619Y-97967333D01*
X173892857Y-97919714D01*
X173988095Y-97919714D01*
X174130952Y-97967333D01*
X174702380Y-98538761D01*
X174702380Y-97919714D01*
X173702380Y-97634000D02*
X174702380Y-97300666D01*
X173702380Y-96967333D01*
%TO.C,J6*%
X116651666Y-101037380D02*
X116651666Y-101751666D01*
X116604047Y-101894523D01*
X116508809Y-101989761D01*
X116365952Y-102037380D01*
X116270714Y-102037380D01*
X117556428Y-101037380D02*
X117365952Y-101037380D01*
X117270714Y-101085000D01*
X117223095Y-101132619D01*
X117127857Y-101275476D01*
X117080238Y-101465952D01*
X117080238Y-101846904D01*
X117127857Y-101942142D01*
X117175476Y-101989761D01*
X117270714Y-102037380D01*
X117461190Y-102037380D01*
X117556428Y-101989761D01*
X117604047Y-101942142D01*
X117651666Y-101846904D01*
X117651666Y-101608809D01*
X117604047Y-101513571D01*
X117556428Y-101465952D01*
X117461190Y-101418333D01*
X117270714Y-101418333D01*
X117175476Y-101465952D01*
X117127857Y-101513571D01*
X117080238Y-101608809D01*
X114302380Y-91877380D02*
X114302380Y-90877380D01*
X114540476Y-90877380D01*
X114683333Y-90925000D01*
X114778571Y-91020238D01*
X114826190Y-91115476D01*
X114873809Y-91305952D01*
X114873809Y-91448809D01*
X114826190Y-91639285D01*
X114778571Y-91734523D01*
X114683333Y-91829761D01*
X114540476Y-91877380D01*
X114302380Y-91877380D01*
X115873809Y-91782142D02*
X115826190Y-91829761D01*
X115683333Y-91877380D01*
X115588095Y-91877380D01*
X115445238Y-91829761D01*
X115350000Y-91734523D01*
X115302380Y-91639285D01*
X115254761Y-91448809D01*
X115254761Y-91305952D01*
X115302380Y-91115476D01*
X115350000Y-91020238D01*
X115445238Y-90925000D01*
X115588095Y-90877380D01*
X115683333Y-90877380D01*
X115826190Y-90925000D01*
X115873809Y-90972619D01*
X117540476Y-90877380D02*
X117064285Y-90877380D01*
X117016666Y-91353571D01*
X117064285Y-91305952D01*
X117159523Y-91258333D01*
X117397619Y-91258333D01*
X117492857Y-91305952D01*
X117540476Y-91353571D01*
X117588095Y-91448809D01*
X117588095Y-91686904D01*
X117540476Y-91782142D01*
X117492857Y-91829761D01*
X117397619Y-91877380D01*
X117159523Y-91877380D01*
X117064285Y-91829761D01*
X117016666Y-91782142D01*
X117873809Y-90877380D02*
X118207142Y-91877380D01*
X118540476Y-90877380D01*
D11*
%TO.C,J7*%
X122330000Y-110360000D02*
X122330000Y-112960000D01*
X124930000Y-62040000D02*
X119730000Y-62040000D01*
X122330000Y-112960000D02*
X119730000Y-112960000D01*
X119730000Y-112960000D02*
X119730000Y-62040000D01*
X124930000Y-112960000D02*
X123600000Y-112960000D01*
X124930000Y-111630000D02*
X124930000Y-112960000D01*
X124930000Y-110360000D02*
X122330000Y-110360000D01*
X124930000Y-110360000D02*
X124930000Y-62040000D01*
%TO.C,A2*%
X173452500Y-106330000D02*
X173452500Y-108330000D01*
X173132500Y-111140000D02*
X173132500Y-65420000D01*
X152702500Y-113790000D02*
X170482500Y-113790000D01*
X152702500Y-62770000D02*
X170482500Y-62770000D01*
X150052500Y-111140000D02*
X150052500Y-65420000D01*
X170482500Y-113790000D02*
G75*
G03*
X173132500Y-111140000I0J2650000D01*
G01*
X152702500Y-62770000D02*
G75*
G03*
X150052500Y-65420000I0J-2650000D01*
G01*
X150052500Y-111140000D02*
G75*
G03*
X152702500Y-113790000I2650000J0D01*
G01*
X173132500Y-65420000D02*
G75*
G03*
X170482500Y-62770000I-2650000J0D01*
G01*
%TO.C,J3*%
X177604000Y-84599000D02*
X185324000Y-84599000D01*
X179695000Y-78014000D02*
X179823000Y-78143000D01*
X181945000Y-80264000D02*
X182038000Y-80358000D01*
X184924000Y-84839000D02*
X185564000Y-84839000D01*
X185564000Y-84839000D02*
X185564000Y-84439000D01*
X177604000Y-77479000D02*
X185324000Y-77479000D01*
X185324000Y-84599000D02*
X185324000Y-77479000D01*
X179489000Y-78219000D02*
X179583000Y-78313000D01*
X184864000Y-84599000D02*
X184864000Y-77479000D01*
X177604000Y-84599000D02*
X177604000Y-77479000D01*
X183764000Y-84599000D02*
X183764000Y-77479000D01*
X181705000Y-80434000D02*
X181833000Y-80563000D01*
X182204000Y-83655000D02*
G75*
G03*
X182444099Y-82760326I-1440014J866003D01*
G01*
X179323999Y-81923000D02*
G75*
G03*
X179338642Y-83678894I1439999J-866000D01*
G01*
X179898000Y-84229001D02*
G75*
G03*
X181653894Y-84214358I866000J1439999D01*
G01*
X181655000Y-81364000D02*
G75*
G03*
X179873807Y-81363496I-891000J-1425003D01*
G01*
X182444000Y-82789000D02*
G75*
G03*
X182188721Y-81898736I-1679990J3D01*
G01*
X182444000Y-79289000D02*
G75*
G03*
X182444000Y-79289000I-1680000J0D01*
G01*
%TO.C,J1*%
X175261000Y-68208000D02*
X175261000Y-69546233D01*
X175261000Y-76633000D02*
X175261000Y-73849767D01*
X184381000Y-63763000D02*
X185381000Y-64763000D01*
X185381000Y-64763000D02*
X185381000Y-75633000D01*
X175261000Y-63763000D02*
X175261000Y-66188000D01*
X184381000Y-76633000D02*
X175261000Y-76633000D01*
X175261000Y-63763000D02*
X184381000Y-63763000D01*
X175261000Y-70849767D02*
X175261000Y-72546233D01*
X185381000Y-75633000D02*
X184381000Y-76633000D01*
%TO.C,J2*%
X185381000Y-86456000D02*
X185381000Y-94326000D01*
X175261000Y-89901000D02*
X175261000Y-91239233D01*
X184381000Y-85456000D02*
X185381000Y-86456000D01*
X175261000Y-95326000D02*
X175261000Y-92542767D01*
X185381000Y-94326000D02*
X184381000Y-95326000D01*
X184381000Y-95326000D02*
X175261000Y-95326000D01*
X175261000Y-85456000D02*
X175261000Y-87881000D01*
X175261000Y-85456000D02*
X184381000Y-85456000D01*
%TO.C,J5*%
X177590000Y-111426000D02*
X185310000Y-111426000D01*
X185550000Y-111666000D02*
X185550000Y-111266000D01*
X179475000Y-105046000D02*
X179569000Y-105140000D01*
X184850000Y-111426000D02*
X184850000Y-104306000D01*
X177590000Y-111426000D02*
X177590000Y-104306000D01*
X177590000Y-104306000D02*
X185310000Y-104306000D01*
X183750000Y-111426000D02*
X183750000Y-104306000D01*
X181691000Y-107261000D02*
X181819000Y-107390000D01*
X185310000Y-111426000D02*
X185310000Y-104306000D01*
X184910000Y-111666000D02*
X185550000Y-111666000D01*
X179681000Y-104841000D02*
X179809000Y-104970000D01*
X181931000Y-107091000D02*
X182024000Y-107185000D01*
X179884000Y-111056001D02*
G75*
G03*
X181639894Y-111041358I866000J1439999D01*
G01*
X179309999Y-108750000D02*
G75*
G03*
X179324642Y-110505894I1439999J-866000D01*
G01*
X182430000Y-109616000D02*
G75*
G03*
X182174721Y-108725736I-1679990J3D01*
G01*
X181641000Y-108191000D02*
G75*
G03*
X179859807Y-108190496I-891000J-1425003D01*
G01*
X182190000Y-110482000D02*
G75*
G03*
X182430099Y-109587326I-1440014J866003D01*
G01*
X182430000Y-106116000D02*
G75*
G03*
X182430000Y-106116000I-1680000J0D01*
G01*
%TO.C,A1*%
X149322500Y-106330000D02*
X149322500Y-108330000D01*
X149002500Y-111140000D02*
X149002500Y-65420000D01*
X128572500Y-113790000D02*
X146352500Y-113790000D01*
X128572500Y-62770000D02*
X146352500Y-62770000D01*
X125922500Y-111140000D02*
X125922500Y-65420000D01*
X149002500Y-65420000D02*
G75*
G03*
X146352500Y-62770000I-2650000J0D01*
G01*
X146352500Y-113790000D02*
G75*
G03*
X149002500Y-111140000I0J2650000D01*
G01*
X128572500Y-62770000D02*
G75*
G03*
X125922500Y-65420000I0J-2650000D01*
G01*
X125922500Y-111140000D02*
G75*
G03*
X128572500Y-113790000I2650000J0D01*
G01*
%TO.C,J4*%
X177604000Y-103349000D02*
X185324000Y-103349000D01*
X179489000Y-96969000D02*
X179583000Y-97063000D01*
X177604000Y-96229000D02*
X185324000Y-96229000D01*
X181705000Y-99184000D02*
X181833000Y-99313000D01*
X184924000Y-103589000D02*
X185564000Y-103589000D01*
X179695000Y-96764000D02*
X179823000Y-96893000D01*
X185324000Y-103349000D02*
X185324000Y-96229000D01*
X185564000Y-103589000D02*
X185564000Y-103189000D01*
X183764000Y-103349000D02*
X183764000Y-96229000D01*
X184864000Y-103349000D02*
X184864000Y-96229000D01*
X177604000Y-103349000D02*
X177604000Y-96229000D01*
X181945000Y-99014000D02*
X182038000Y-99108000D01*
X182444000Y-101539000D02*
G75*
G03*
X182188721Y-100648736I-1679990J3D01*
G01*
X182204000Y-102405000D02*
G75*
G03*
X182444099Y-101510326I-1440014J866003D01*
G01*
X181655000Y-100114000D02*
G75*
G03*
X179873807Y-100113496I-891000J-1425003D01*
G01*
X179323999Y-100673000D02*
G75*
G03*
X179338642Y-102428894I1439999J-866000D01*
G01*
X179898000Y-102979001D02*
G75*
G03*
X181653894Y-102964358I866000J1439999D01*
G01*
X182444000Y-98039000D02*
G75*
G03*
X182444000Y-98039000I-1680000J0D01*
G01*
%TO.C,J6*%
X114164000Y-97155000D02*
X114071000Y-97061000D01*
X110545000Y-92580000D02*
X110545000Y-92980000D01*
X111245000Y-92820000D02*
X111245000Y-99940000D01*
X112345000Y-92820000D02*
X112345000Y-99940000D01*
X114404000Y-96985000D02*
X114276000Y-96856000D01*
X118505000Y-92820000D02*
X110785000Y-92820000D01*
X116414000Y-99405000D02*
X116286000Y-99276000D01*
X110785000Y-92820000D02*
X110785000Y-99940000D01*
X116620000Y-99200000D02*
X116526000Y-99106000D01*
X118505000Y-92820000D02*
X118505000Y-99940000D01*
X118505000Y-99940000D02*
X110785000Y-99940000D01*
X111185000Y-92580000D02*
X110545000Y-92580000D01*
X116785001Y-95496000D02*
G75*
G03*
X116770358Y-93740106I-1439999J866000D01*
G01*
X113905000Y-93764000D02*
G75*
G03*
X113664901Y-94658674I1440014J-866003D01*
G01*
X113665000Y-94630000D02*
G75*
G03*
X113920279Y-95520264I1679990J-3D01*
G01*
X114454000Y-96055000D02*
G75*
G03*
X116235193Y-96055504I891000J1425003D01*
G01*
X116211000Y-93189999D02*
G75*
G03*
X114455106Y-93204642I-866000J-1439999D01*
G01*
X117025000Y-98130000D02*
G75*
G03*
X117025000Y-98130000I-1680000J0D01*
G01*
%TD*%
M02*
