M48
; DRILL file {KiCad 6.0.2+dfsg-1} date Wed Aug 16 11:24:41 2023
; FORMAT={-:-/ absolute / inch / decimal}
; #@! TF.CreationDate,2023-08-16T11:24:41+02:00
; #@! TF.GenerationSoftware,Kicad,Pcbnew,6.0.2+dfsg-1
; #@! TF.FileFunction,Plated,1,2,PTH
FMAT,2
INCH
; #@! TA.AperFunction,Plated,PTH,ComponentDrill
T1C0.0315
; #@! TA.AperFunction,Plated,PTH,ComponentDrill
T2C0.0394
; #@! TA.AperFunction,Plated,PTH,ComponentDrill
T3C0.0402
; #@! TA.AperFunction,Plated,PTH,ComponentDrill
T4C0.0472
%
G90
G05
T1
X5.0119Y-2.7256
X5.0119Y-2.8256
X5.0119Y-2.9256
X5.0119Y-3.0256
X5.0119Y-3.1256
X5.0119Y-3.2256
X5.0119Y-3.3256
X5.0119Y-3.4256
X5.0119Y-3.5256
X5.0119Y-3.6256
X5.0119Y-3.7256
X5.0119Y-3.8256
X5.8119Y-2.7256
X5.8119Y-2.8256
X5.8119Y-2.9256
X5.8119Y-3.0256
X5.8119Y-3.1256
X5.8119Y-3.2256
X5.8119Y-3.3256
X5.8119Y-3.4256
X5.8119Y-3.5256
X5.8119Y-3.6256
X5.8119Y-3.7256
X5.8119Y-3.8256
X5.8119Y-3.9256
X5.8119Y-4.0256
X5.8119Y-4.1256
X5.8119Y-4.2256
X5.9619Y-2.7256
X5.9619Y-2.8256
X5.9619Y-2.9256
X5.9619Y-3.0256
X5.9619Y-3.1256
X5.9619Y-3.2256
X5.9619Y-3.3256
X5.9619Y-3.4256
X5.9619Y-3.5256
X5.9619Y-3.6256
X5.9619Y-3.7256
X5.9619Y-3.8256
X6.7619Y-2.7256
X6.7619Y-2.8256
X6.7619Y-2.9256
X6.7619Y-3.0256
X6.7619Y-3.1256
X6.7619Y-3.2256
X6.7619Y-3.3256
X6.7619Y-3.4256
X6.7619Y-3.5256
X6.7619Y-3.6256
X6.7619Y-3.7256
X6.7619Y-3.8256
X6.7619Y-3.9256
X6.7619Y-4.0256
X6.7619Y-4.1256
X6.7619Y-4.2256
T2
X4.7661Y-2.4949
X4.7661Y-2.5949
X4.7661Y-2.6949
X4.7661Y-2.7949
X4.7661Y-2.8949
X4.7661Y-2.9949
X4.7661Y-3.0949
X4.7661Y-3.1949
X4.7661Y-3.2949
X4.7661Y-3.3949
X4.7661Y-3.4949
X4.7661Y-3.5949
X4.7661Y-3.6949
X4.7661Y-3.7949
X4.7661Y-3.8949
X4.7661Y-3.9949
X4.7661Y-4.0949
X4.7661Y-4.1949
X4.7661Y-4.2949
X4.7661Y-4.3949
X4.8661Y-2.4949
X4.8661Y-2.5949
X4.8661Y-2.6949
X4.8661Y-2.7949
X4.8661Y-2.8949
X4.8661Y-2.9949
X4.8661Y-3.0949
X4.8661Y-3.1949
X4.8661Y-3.2949
X4.8661Y-3.3949
X4.8661Y-3.4949
X4.8661Y-3.5949
X4.8661Y-3.6949
X4.8661Y-3.7949
X4.8661Y-3.8949
X4.8661Y-3.9949
X4.8661Y-4.0949
X4.8661Y-4.1949
X4.8661Y-4.2949
X4.8661Y-4.3949
T3
X6.943Y-2.6456
X6.943Y-2.7637
X6.943Y-2.8818
X6.943Y-3.4996
X6.943Y-3.6178
T4
X4.5411Y-3.7256
X4.5411Y-3.8634
X7.1161Y-4.1778
X7.1161Y-4.3156
X7.1167Y-3.1216
X7.1167Y-3.2594
X7.1167Y-3.8598
X7.1167Y-3.9976
T0
M30
