%TF.GenerationSoftware,KiCad,Pcbnew,(5.1.10-1-10_14)*%
%TF.CreationDate,2021-07-05T16:23:29+02:00*%
%TF.ProjectId,cablebot_controller,6361626c-6562-46f7-945f-636f6e74726f,rev?*%
%TF.SameCoordinates,Original*%
%TF.FileFunction,Legend,Bot*%
%TF.FilePolarity,Positive*%
%FSLAX46Y46*%
G04 Gerber Fmt 4.6, Leading zero omitted, Abs format (unit mm)*
G04 Created by KiCad (PCBNEW (5.1.10-1-10_14)) date 2021-07-05 16:23:29*
%MOMM*%
%LPD*%
G01*
G04 APERTURE LIST*
%ADD10C,0.120000*%
%ADD11C,0.100000*%
%ADD12C,0.010000*%
G04 APERTURE END LIST*
D10*
X86825000Y-82900000D02*
X91275000Y-82900000D01*
X86800000Y-77550000D02*
X91250000Y-77550000D01*
X91250000Y-77550000D02*
X91275000Y-82900000D01*
D11*
X90478571Y-81942857D02*
X90478571Y-81828571D01*
X90450000Y-81771428D01*
X90392857Y-81714285D01*
X90278571Y-81685714D01*
X90078571Y-81685714D01*
X89964285Y-81714285D01*
X89907142Y-81771428D01*
X89878571Y-81828571D01*
X89878571Y-81942857D01*
X89907142Y-82000000D01*
X89964285Y-82057142D01*
X90078571Y-82085714D01*
X90278571Y-82085714D01*
X90392857Y-82057142D01*
X90450000Y-82000000D01*
X90478571Y-81942857D01*
X89878571Y-81428571D02*
X90478571Y-81428571D01*
X90478571Y-81285714D01*
X90450000Y-81200000D01*
X90392857Y-81142857D01*
X90335714Y-81114285D01*
X90221428Y-81085714D01*
X90135714Y-81085714D01*
X90021428Y-81114285D01*
X89964285Y-81142857D01*
X89907142Y-81200000D01*
X89878571Y-81285714D01*
X89878571Y-81428571D01*
X89878571Y-80485714D02*
X90164285Y-80685714D01*
X89878571Y-80828571D02*
X90478571Y-80828571D01*
X90478571Y-80600000D01*
X90450000Y-80542857D01*
X90421428Y-80514285D01*
X90364285Y-80485714D01*
X90278571Y-80485714D01*
X90221428Y-80514285D01*
X90192857Y-80542857D01*
X90164285Y-80600000D01*
X90164285Y-80828571D01*
X89821428Y-80371428D02*
X89821428Y-79914285D01*
X89907142Y-79800000D02*
X89878571Y-79714285D01*
X89878571Y-79571428D01*
X89907142Y-79514285D01*
X89935714Y-79485714D01*
X89992857Y-79457142D01*
X90050000Y-79457142D01*
X90107142Y-79485714D01*
X90135714Y-79514285D01*
X90164285Y-79571428D01*
X90192857Y-79685714D01*
X90221428Y-79742857D01*
X90250000Y-79771428D01*
X90307142Y-79800000D01*
X90364285Y-79800000D01*
X90421428Y-79771428D01*
X90450000Y-79742857D01*
X90478571Y-79685714D01*
X90478571Y-79542857D01*
X90450000Y-79457142D01*
X90192857Y-79200000D02*
X90192857Y-79000000D01*
X89878571Y-78914285D02*
X89878571Y-79200000D01*
X90478571Y-79200000D01*
X90478571Y-78914285D01*
X89878571Y-78314285D02*
X90164285Y-78514285D01*
X89878571Y-78657142D02*
X90478571Y-78657142D01*
X90478571Y-78428571D01*
X90450000Y-78371428D01*
X90421428Y-78342857D01*
X90364285Y-78314285D01*
X90278571Y-78314285D01*
X90221428Y-78342857D01*
X90192857Y-78371428D01*
X90164285Y-78428571D01*
X90164285Y-78657142D01*
D10*
X91250000Y-75200000D02*
X86775000Y-75200000D01*
X91225000Y-69850000D02*
X91250000Y-75200000D01*
X86775000Y-69850000D02*
X91225000Y-69850000D01*
D11*
X89853571Y-73842857D02*
X90139285Y-74042857D01*
X89853571Y-74185714D02*
X90453571Y-74185714D01*
X90453571Y-73957142D01*
X90425000Y-73900000D01*
X90396428Y-73871428D01*
X90339285Y-73842857D01*
X90253571Y-73842857D01*
X90196428Y-73871428D01*
X90167857Y-73900000D01*
X90139285Y-73957142D01*
X90139285Y-74185714D01*
X89853571Y-73585714D02*
X90453571Y-73585714D01*
X90453571Y-73357142D01*
X90425000Y-73300000D01*
X90396428Y-73271428D01*
X90339285Y-73242857D01*
X90253571Y-73242857D01*
X90196428Y-73271428D01*
X90167857Y-73300000D01*
X90139285Y-73357142D01*
X90139285Y-73585714D01*
X89853571Y-72985714D02*
X90453571Y-72985714D01*
X89796428Y-72842857D02*
X89796428Y-72385714D01*
X89882142Y-72271428D02*
X89853571Y-72185714D01*
X89853571Y-72042857D01*
X89882142Y-71985714D01*
X89910714Y-71957142D01*
X89967857Y-71928571D01*
X90025000Y-71928571D01*
X90082142Y-71957142D01*
X90110714Y-71985714D01*
X90139285Y-72042857D01*
X90167857Y-72157142D01*
X90196428Y-72214285D01*
X90225000Y-72242857D01*
X90282142Y-72271428D01*
X90339285Y-72271428D01*
X90396428Y-72242857D01*
X90425000Y-72214285D01*
X90453571Y-72157142D01*
X90453571Y-72014285D01*
X90425000Y-71928571D01*
X90167857Y-71671428D02*
X90167857Y-71471428D01*
X89853571Y-71385714D02*
X89853571Y-71671428D01*
X90453571Y-71671428D01*
X90453571Y-71385714D01*
X89853571Y-70785714D02*
X90139285Y-70985714D01*
X89853571Y-71128571D02*
X90453571Y-71128571D01*
X90453571Y-70900000D01*
X90425000Y-70842857D01*
X90396428Y-70814285D01*
X90339285Y-70785714D01*
X90253571Y-70785714D01*
X90196428Y-70814285D01*
X90167857Y-70842857D01*
X90139285Y-70900000D01*
X90139285Y-71128571D01*
X169701667Y-54025000D02*
X169468334Y-54025000D01*
X169368334Y-54391666D02*
X169701667Y-54391666D01*
X169701667Y-53691666D01*
X169368334Y-53691666D01*
X169068334Y-54391666D02*
X169068334Y-53691666D01*
X168668334Y-54391666D01*
X168668334Y-53691666D01*
X168335000Y-54391666D02*
X168335000Y-53691666D01*
X168168334Y-53691666D01*
X168068334Y-53725000D01*
X168001667Y-53791666D01*
X167968334Y-53858333D01*
X167935000Y-53991666D01*
X167935000Y-54091666D01*
X167968334Y-54225000D01*
X168001667Y-54291666D01*
X168068334Y-54358333D01*
X168168334Y-54391666D01*
X168335000Y-54391666D01*
X167668334Y-54358333D02*
X167568334Y-54391666D01*
X167401667Y-54391666D01*
X167335000Y-54358333D01*
X167301667Y-54325000D01*
X167268334Y-54258333D01*
X167268334Y-54191666D01*
X167301667Y-54125000D01*
X167335000Y-54091666D01*
X167401667Y-54058333D01*
X167535000Y-54025000D01*
X167601667Y-53991666D01*
X167635000Y-53958333D01*
X167668334Y-53891666D01*
X167668334Y-53825000D01*
X167635000Y-53758333D01*
X167601667Y-53725000D01*
X167535000Y-53691666D01*
X167368334Y-53691666D01*
X167268334Y-53725000D01*
X167068334Y-53691666D02*
X166668334Y-53691666D01*
X166868334Y-54391666D02*
X166868334Y-53691666D01*
X166301667Y-53691666D02*
X166168334Y-53691666D01*
X166101667Y-53725000D01*
X166035000Y-53791666D01*
X166001667Y-53925000D01*
X166001667Y-54158333D01*
X166035000Y-54291666D01*
X166101667Y-54358333D01*
X166168334Y-54391666D01*
X166301667Y-54391666D01*
X166368334Y-54358333D01*
X166435000Y-54291666D01*
X166468334Y-54158333D01*
X166468334Y-53925000D01*
X166435000Y-53791666D01*
X166368334Y-53725000D01*
X166301667Y-53691666D01*
X165701667Y-54391666D02*
X165701667Y-53691666D01*
X165435000Y-53691666D01*
X165368334Y-53725000D01*
X165335000Y-53758333D01*
X165301667Y-53825000D01*
X165301667Y-53925000D01*
X165335000Y-53991666D01*
X165368334Y-54025000D01*
X165435000Y-54058333D01*
X165701667Y-54058333D01*
X169468334Y-55175000D02*
X169701667Y-55175000D01*
X169701667Y-55541666D02*
X169701667Y-54841666D01*
X169368334Y-54841666D01*
X168701667Y-55541666D02*
X168935000Y-55208333D01*
X169101667Y-55541666D02*
X169101667Y-54841666D01*
X168835000Y-54841666D01*
X168768334Y-54875000D01*
X168735000Y-54908333D01*
X168701667Y-54975000D01*
X168701667Y-55075000D01*
X168735000Y-55141666D01*
X168768334Y-55175000D01*
X168835000Y-55208333D01*
X169101667Y-55208333D01*
X168268334Y-54841666D02*
X168135000Y-54841666D01*
X168068334Y-54875000D01*
X168001667Y-54941666D01*
X167968334Y-55075000D01*
X167968334Y-55308333D01*
X168001667Y-55441666D01*
X168068334Y-55508333D01*
X168135000Y-55541666D01*
X168268334Y-55541666D01*
X168335000Y-55508333D01*
X168401667Y-55441666D01*
X168435000Y-55308333D01*
X168435000Y-55075000D01*
X168401667Y-54941666D01*
X168335000Y-54875000D01*
X168268334Y-54841666D01*
X167668334Y-55541666D02*
X167668334Y-54841666D01*
X167268334Y-55541666D01*
X167268334Y-54841666D01*
X167035000Y-54841666D02*
X166635000Y-54841666D01*
X166835000Y-55541666D02*
X166835000Y-54841666D01*
X169750000Y-59983333D02*
X169650000Y-60016666D01*
X169483333Y-60016666D01*
X169416667Y-59983333D01*
X169383333Y-59950000D01*
X169350000Y-59883333D01*
X169350000Y-59816666D01*
X169383333Y-59750000D01*
X169416667Y-59716666D01*
X169483333Y-59683333D01*
X169616667Y-59650000D01*
X169683333Y-59616666D01*
X169716667Y-59583333D01*
X169750000Y-59516666D01*
X169750000Y-59450000D01*
X169716667Y-59383333D01*
X169683333Y-59350000D01*
X169616667Y-59316666D01*
X169450000Y-59316666D01*
X169350000Y-59350000D01*
X169083333Y-59983333D02*
X168983333Y-60016666D01*
X168816667Y-60016666D01*
X168750000Y-59983333D01*
X168716667Y-59950000D01*
X168683333Y-59883333D01*
X168683333Y-59816666D01*
X168716667Y-59750000D01*
X168750000Y-59716666D01*
X168816667Y-59683333D01*
X168950000Y-59650000D01*
X169016667Y-59616666D01*
X169050000Y-59583333D01*
X169083333Y-59516666D01*
X169083333Y-59450000D01*
X169050000Y-59383333D01*
X169016667Y-59350000D01*
X168950000Y-59316666D01*
X168783333Y-59316666D01*
X168683333Y-59350000D01*
X169716666Y-62466666D02*
X169716666Y-61766666D01*
X169483333Y-62266666D01*
X169250000Y-61766666D01*
X169250000Y-62466666D01*
X168783333Y-61766666D02*
X168650000Y-61766666D01*
X168583333Y-61800000D01*
X168516666Y-61866666D01*
X168483333Y-62000000D01*
X168483333Y-62233333D01*
X168516666Y-62366666D01*
X168583333Y-62433333D01*
X168650000Y-62466666D01*
X168783333Y-62466666D01*
X168850000Y-62433333D01*
X168916666Y-62366666D01*
X168950000Y-62233333D01*
X168950000Y-62000000D01*
X168916666Y-61866666D01*
X168850000Y-61800000D01*
X168783333Y-61766666D01*
X168283333Y-61766666D02*
X167883333Y-61766666D01*
X168083333Y-62466666D02*
X168083333Y-61766666D01*
X169783333Y-63791666D02*
X169350000Y-63791666D01*
X169583333Y-64058333D01*
X169483333Y-64058333D01*
X169416667Y-64091666D01*
X169383333Y-64125000D01*
X169350000Y-64191666D01*
X169350000Y-64358333D01*
X169383333Y-64425000D01*
X169416667Y-64458333D01*
X169483333Y-64491666D01*
X169683333Y-64491666D01*
X169750000Y-64458333D01*
X169783333Y-64425000D01*
X169150000Y-63791666D02*
X168916667Y-64491666D01*
X168683333Y-63791666D01*
X168516667Y-63791666D02*
X168083333Y-63791666D01*
X168316667Y-64058333D01*
X168216667Y-64058333D01*
X168150000Y-64091666D01*
X168116667Y-64125000D01*
X168083333Y-64191666D01*
X168083333Y-64358333D01*
X168116667Y-64425000D01*
X168150000Y-64458333D01*
X168216667Y-64491666D01*
X168416667Y-64491666D01*
X168483333Y-64458333D01*
X168516667Y-64425000D01*
X170016667Y-65908333D02*
X170050000Y-65875000D01*
X170116667Y-65775000D01*
X170150000Y-65708333D01*
X170183333Y-65608333D01*
X170216667Y-65441666D01*
X170216667Y-65308333D01*
X170183333Y-65141666D01*
X170150000Y-65041666D01*
X170116667Y-64975000D01*
X170050000Y-64875000D01*
X170016667Y-64841666D01*
X169616667Y-64941666D02*
X169483333Y-64941666D01*
X169416667Y-64975000D01*
X169350000Y-65041666D01*
X169316667Y-65175000D01*
X169316667Y-65408333D01*
X169350000Y-65541666D01*
X169416667Y-65608333D01*
X169483333Y-65641666D01*
X169616667Y-65641666D01*
X169683333Y-65608333D01*
X169750000Y-65541666D01*
X169783333Y-65408333D01*
X169783333Y-65175000D01*
X169750000Y-65041666D01*
X169683333Y-64975000D01*
X169616667Y-64941666D01*
X169016667Y-64941666D02*
X169016667Y-65508333D01*
X168983333Y-65575000D01*
X168950000Y-65608333D01*
X168883333Y-65641666D01*
X168750000Y-65641666D01*
X168683333Y-65608333D01*
X168650000Y-65575000D01*
X168616667Y-65508333D01*
X168616667Y-64941666D01*
X168383333Y-64941666D02*
X167983333Y-64941666D01*
X168183333Y-65641666D02*
X168183333Y-64941666D01*
X167816667Y-65908333D02*
X167783333Y-65875000D01*
X167716667Y-65775000D01*
X167683333Y-65708333D01*
X167650000Y-65608333D01*
X167616667Y-65441666D01*
X167616667Y-65308333D01*
X167650000Y-65141666D01*
X167683333Y-65041666D01*
X167716667Y-64975000D01*
X167783333Y-64875000D01*
X167816667Y-64841666D01*
X169750000Y-76658333D02*
X169650000Y-76691666D01*
X169483333Y-76691666D01*
X169416666Y-76658333D01*
X169383333Y-76625000D01*
X169350000Y-76558333D01*
X169350000Y-76491666D01*
X169383333Y-76425000D01*
X169416666Y-76391666D01*
X169483333Y-76358333D01*
X169616666Y-76325000D01*
X169683333Y-76291666D01*
X169716666Y-76258333D01*
X169750000Y-76191666D01*
X169750000Y-76125000D01*
X169716666Y-76058333D01*
X169683333Y-76025000D01*
X169616666Y-75991666D01*
X169450000Y-75991666D01*
X169350000Y-76025000D01*
X168650000Y-76625000D02*
X168683333Y-76658333D01*
X168783333Y-76691666D01*
X168850000Y-76691666D01*
X168950000Y-76658333D01*
X169016666Y-76591666D01*
X169050000Y-76525000D01*
X169083333Y-76391666D01*
X169083333Y-76291666D01*
X169050000Y-76158333D01*
X169016666Y-76091666D01*
X168950000Y-76025000D01*
X168850000Y-75991666D01*
X168783333Y-75991666D01*
X168683333Y-76025000D01*
X168650000Y-76058333D01*
X168350000Y-76691666D02*
X168350000Y-75991666D01*
X167950000Y-76691666D02*
X168250000Y-76291666D01*
X167950000Y-75991666D02*
X168350000Y-76391666D01*
X169716667Y-74291666D02*
X169716667Y-73591666D01*
X169483333Y-74091666D01*
X169250000Y-73591666D01*
X169250000Y-74291666D01*
X168783333Y-73591666D02*
X168650000Y-73591666D01*
X168583333Y-73625000D01*
X168516667Y-73691666D01*
X168483333Y-73825000D01*
X168483333Y-74058333D01*
X168516667Y-74191666D01*
X168583333Y-74258333D01*
X168650000Y-74291666D01*
X168783333Y-74291666D01*
X168850000Y-74258333D01*
X168916667Y-74191666D01*
X168950000Y-74058333D01*
X168950000Y-73825000D01*
X168916667Y-73691666D01*
X168850000Y-73625000D01*
X168783333Y-73591666D01*
X168216667Y-74258333D02*
X168116667Y-74291666D01*
X167950000Y-74291666D01*
X167883333Y-74258333D01*
X167850000Y-74225000D01*
X167816667Y-74158333D01*
X167816667Y-74091666D01*
X167850000Y-74025000D01*
X167883333Y-73991666D01*
X167950000Y-73958333D01*
X168083333Y-73925000D01*
X168150000Y-73891666D01*
X168183333Y-73858333D01*
X168216667Y-73791666D01*
X168216667Y-73725000D01*
X168183333Y-73658333D01*
X168150000Y-73625000D01*
X168083333Y-73591666D01*
X167916667Y-73591666D01*
X167816667Y-73625000D01*
X167516667Y-74291666D02*
X167516667Y-73591666D01*
X169716667Y-71791666D02*
X169716667Y-71091666D01*
X169483333Y-71591666D01*
X169250000Y-71091666D01*
X169250000Y-71791666D01*
X168916667Y-71791666D02*
X168916667Y-71091666D01*
X168616667Y-71758333D02*
X168516667Y-71791666D01*
X168350000Y-71791666D01*
X168283333Y-71758333D01*
X168250000Y-71725000D01*
X168216667Y-71658333D01*
X168216667Y-71591666D01*
X168250000Y-71525000D01*
X168283333Y-71491666D01*
X168350000Y-71458333D01*
X168483333Y-71425000D01*
X168550000Y-71391666D01*
X168583333Y-71358333D01*
X168616667Y-71291666D01*
X168616667Y-71225000D01*
X168583333Y-71158333D01*
X168550000Y-71125000D01*
X168483333Y-71091666D01*
X168316667Y-71091666D01*
X168216667Y-71125000D01*
X167783333Y-71091666D02*
X167650000Y-71091666D01*
X167583333Y-71125000D01*
X167516667Y-71191666D01*
X167483333Y-71325000D01*
X167483333Y-71558333D01*
X167516667Y-71691666D01*
X167583333Y-71758333D01*
X167650000Y-71791666D01*
X167783333Y-71791666D01*
X167850000Y-71758333D01*
X167916667Y-71691666D01*
X167950000Y-71558333D01*
X167950000Y-71325000D01*
X167916667Y-71191666D01*
X167850000Y-71125000D01*
X167783333Y-71091666D01*
X169350000Y-78675000D02*
X169416667Y-78641666D01*
X169516667Y-78641666D01*
X169616667Y-78675000D01*
X169683333Y-78741666D01*
X169716667Y-78808333D01*
X169750000Y-78941666D01*
X169750000Y-79041666D01*
X169716667Y-79175000D01*
X169683333Y-79241666D01*
X169616667Y-79308333D01*
X169516667Y-79341666D01*
X169450000Y-79341666D01*
X169350000Y-79308333D01*
X169316667Y-79275000D01*
X169316667Y-79041666D01*
X169450000Y-79041666D01*
X169016667Y-79341666D02*
X169016667Y-78641666D01*
X168616667Y-79341666D01*
X168616667Y-78641666D01*
X168283333Y-79341666D02*
X168283333Y-78641666D01*
X168116667Y-78641666D01*
X168016667Y-78675000D01*
X167950000Y-78741666D01*
X167916667Y-78808333D01*
X167883333Y-78941666D01*
X167883333Y-79041666D01*
X167916667Y-79175000D01*
X167950000Y-79241666D01*
X168016667Y-79308333D01*
X168116667Y-79341666D01*
X168283333Y-79341666D01*
X169350000Y-68525000D02*
X169416667Y-68491666D01*
X169516667Y-68491666D01*
X169616667Y-68525000D01*
X169683333Y-68591666D01*
X169716667Y-68658333D01*
X169750000Y-68791666D01*
X169750000Y-68891666D01*
X169716667Y-69025000D01*
X169683333Y-69091666D01*
X169616667Y-69158333D01*
X169516667Y-69191666D01*
X169450000Y-69191666D01*
X169350000Y-69158333D01*
X169316667Y-69125000D01*
X169316667Y-68891666D01*
X169450000Y-68891666D01*
X169016667Y-69191666D02*
X169016667Y-68491666D01*
X168616667Y-69191666D01*
X168616667Y-68491666D01*
X168283333Y-69191666D02*
X168283333Y-68491666D01*
X168116667Y-68491666D01*
X168016667Y-68525000D01*
X167950000Y-68591666D01*
X167916667Y-68658333D01*
X167883333Y-68791666D01*
X167883333Y-68891666D01*
X167916667Y-69025000D01*
X167950000Y-69091666D01*
X168016667Y-69158333D01*
X168116667Y-69191666D01*
X168283333Y-69191666D01*
X169350000Y-56750000D02*
X169416667Y-56716666D01*
X169516667Y-56716666D01*
X169616667Y-56750000D01*
X169683333Y-56816666D01*
X169716667Y-56883333D01*
X169750000Y-57016666D01*
X169750000Y-57116666D01*
X169716667Y-57250000D01*
X169683333Y-57316666D01*
X169616667Y-57383333D01*
X169516667Y-57416666D01*
X169450000Y-57416666D01*
X169350000Y-57383333D01*
X169316667Y-57350000D01*
X169316667Y-57116666D01*
X169450000Y-57116666D01*
X169016667Y-57416666D02*
X169016667Y-56716666D01*
X168616667Y-57416666D01*
X168616667Y-56716666D01*
X168283333Y-57416666D02*
X168283333Y-56716666D01*
X168116667Y-56716666D01*
X168016667Y-56750000D01*
X167950000Y-56816666D01*
X167916667Y-56883333D01*
X167883333Y-57016666D01*
X167883333Y-57116666D01*
X167916667Y-57250000D01*
X167950000Y-57316666D01*
X168016667Y-57383333D01*
X168116667Y-57416666D01*
X168283333Y-57416666D01*
X88783333Y-54066666D02*
X88550000Y-54766666D01*
X88316667Y-54066666D01*
X88083333Y-54766666D02*
X88083333Y-54066666D01*
X87750000Y-54766666D02*
X87750000Y-54066666D01*
X87350000Y-54766666D01*
X87350000Y-54066666D01*
X88783333Y-61920000D02*
X88850000Y-61886666D01*
X88950000Y-61886666D01*
X89050000Y-61920000D01*
X89116666Y-61986666D01*
X89150000Y-62053333D01*
X89183333Y-62186666D01*
X89183333Y-62286666D01*
X89150000Y-62420000D01*
X89116666Y-62486666D01*
X89050000Y-62553333D01*
X88950000Y-62586666D01*
X88883333Y-62586666D01*
X88783333Y-62553333D01*
X88750000Y-62520000D01*
X88750000Y-62286666D01*
X88883333Y-62286666D01*
X88450000Y-62586666D02*
X88450000Y-61886666D01*
X88050000Y-62586666D01*
X88050000Y-61886666D01*
X87716666Y-62586666D02*
X87716666Y-61886666D01*
X87550000Y-61886666D01*
X87450000Y-61920000D01*
X87383333Y-61986666D01*
X87350000Y-62053333D01*
X87316666Y-62186666D01*
X87316666Y-62286666D01*
X87350000Y-62420000D01*
X87383333Y-62486666D01*
X87450000Y-62553333D01*
X87550000Y-62586666D01*
X87716666Y-62586666D01*
X88783333Y-66750000D02*
X88850000Y-66716666D01*
X88950000Y-66716666D01*
X89050000Y-66750000D01*
X89116666Y-66816666D01*
X89150000Y-66883333D01*
X89183333Y-67016666D01*
X89183333Y-67116666D01*
X89150000Y-67250000D01*
X89116666Y-67316666D01*
X89050000Y-67383333D01*
X88950000Y-67416666D01*
X88883333Y-67416666D01*
X88783333Y-67383333D01*
X88750000Y-67350000D01*
X88750000Y-67116666D01*
X88883333Y-67116666D01*
X88450000Y-67416666D02*
X88450000Y-66716666D01*
X88050000Y-67416666D01*
X88050000Y-66716666D01*
X87716666Y-67416666D02*
X87716666Y-66716666D01*
X87550000Y-66716666D01*
X87450000Y-66750000D01*
X87383333Y-66816666D01*
X87350000Y-66883333D01*
X87316666Y-67016666D01*
X87316666Y-67116666D01*
X87350000Y-67250000D01*
X87383333Y-67316666D01*
X87450000Y-67383333D01*
X87550000Y-67416666D01*
X87716666Y-67416666D01*
X88031667Y-56606666D02*
X88265000Y-56273333D01*
X88431667Y-56606666D02*
X88431667Y-55906666D01*
X88165000Y-55906666D01*
X88098334Y-55940000D01*
X88065000Y-55973333D01*
X88031667Y-56040000D01*
X88031667Y-56140000D01*
X88065000Y-56206666D01*
X88098334Y-56240000D01*
X88165000Y-56273333D01*
X88431667Y-56273333D01*
X87331667Y-56540000D02*
X87365000Y-56573333D01*
X87465000Y-56606666D01*
X87531667Y-56606666D01*
X87631667Y-56573333D01*
X87698334Y-56506666D01*
X87731667Y-56440000D01*
X87765000Y-56306666D01*
X87765000Y-56206666D01*
X87731667Y-56073333D01*
X87698334Y-56006666D01*
X87631667Y-55940000D01*
X87531667Y-55906666D01*
X87465000Y-55906666D01*
X87365000Y-55940000D01*
X87331667Y-55973333D01*
X90231667Y-57723333D02*
X90131667Y-57756666D01*
X89965000Y-57756666D01*
X89898334Y-57723333D01*
X89865000Y-57690000D01*
X89831667Y-57623333D01*
X89831667Y-57556666D01*
X89865000Y-57490000D01*
X89898334Y-57456666D01*
X89965000Y-57423333D01*
X90098334Y-57390000D01*
X90165000Y-57356666D01*
X90198334Y-57323333D01*
X90231667Y-57256666D01*
X90231667Y-57190000D01*
X90198334Y-57123333D01*
X90165000Y-57090000D01*
X90098334Y-57056666D01*
X89931667Y-57056666D01*
X89831667Y-57090000D01*
X89631667Y-57056666D02*
X89231667Y-57056666D01*
X89431667Y-57756666D02*
X89431667Y-57056666D01*
X88998334Y-57390000D02*
X88765000Y-57390000D01*
X88665000Y-57756666D02*
X88998334Y-57756666D01*
X88998334Y-57056666D01*
X88665000Y-57056666D01*
X88365000Y-57390000D02*
X88131667Y-57390000D01*
X88031667Y-57756666D02*
X88365000Y-57756666D01*
X88365000Y-57056666D01*
X88031667Y-57056666D01*
X87331667Y-57756666D02*
X87565000Y-57423333D01*
X87731667Y-57756666D02*
X87731667Y-57056666D01*
X87465000Y-57056666D01*
X87398334Y-57090000D01*
X87365000Y-57123333D01*
X87331667Y-57190000D01*
X87331667Y-57290000D01*
X87365000Y-57356666D01*
X87398334Y-57390000D01*
X87465000Y-57423333D01*
X87731667Y-57423333D01*
X88031667Y-59596666D02*
X88265000Y-59263333D01*
X88431667Y-59596666D02*
X88431667Y-58896666D01*
X88165000Y-58896666D01*
X88098334Y-58930000D01*
X88065000Y-58963333D01*
X88031667Y-59030000D01*
X88031667Y-59130000D01*
X88065000Y-59196666D01*
X88098334Y-59230000D01*
X88165000Y-59263333D01*
X88431667Y-59263333D01*
X87331667Y-59530000D02*
X87365000Y-59563333D01*
X87465000Y-59596666D01*
X87531667Y-59596666D01*
X87631667Y-59563333D01*
X87698334Y-59496666D01*
X87731667Y-59430000D01*
X87765000Y-59296666D01*
X87765000Y-59196666D01*
X87731667Y-59063333D01*
X87698334Y-58996666D01*
X87631667Y-58930000D01*
X87531667Y-58896666D01*
X87465000Y-58896666D01*
X87365000Y-58930000D01*
X87331667Y-58963333D01*
X92098334Y-60046666D02*
X91698334Y-60046666D01*
X91898334Y-60746666D02*
X91898334Y-60046666D01*
X91465000Y-60746666D02*
X91465000Y-60046666D01*
X91465000Y-60380000D02*
X91065000Y-60380000D01*
X91065000Y-60746666D02*
X91065000Y-60046666D01*
X90331667Y-60746666D02*
X90565000Y-60413333D01*
X90731667Y-60746666D02*
X90731667Y-60046666D01*
X90465000Y-60046666D01*
X90398334Y-60080000D01*
X90365000Y-60113333D01*
X90331667Y-60180000D01*
X90331667Y-60280000D01*
X90365000Y-60346666D01*
X90398334Y-60380000D01*
X90465000Y-60413333D01*
X90731667Y-60413333D01*
X89898334Y-60046666D02*
X89765000Y-60046666D01*
X89698334Y-60080000D01*
X89631667Y-60146666D01*
X89598334Y-60280000D01*
X89598334Y-60513333D01*
X89631667Y-60646666D01*
X89698334Y-60713333D01*
X89765000Y-60746666D01*
X89898334Y-60746666D01*
X89965000Y-60713333D01*
X90031667Y-60646666D01*
X90065000Y-60513333D01*
X90065000Y-60280000D01*
X90031667Y-60146666D01*
X89965000Y-60080000D01*
X89898334Y-60046666D01*
X89398334Y-60046666D02*
X88998334Y-60046666D01*
X89198334Y-60746666D02*
X89198334Y-60046666D01*
X88865000Y-60046666D02*
X88465000Y-60046666D01*
X88665000Y-60746666D02*
X88665000Y-60046666D01*
X87898334Y-60746666D02*
X88231667Y-60746666D01*
X88231667Y-60046666D01*
X87665000Y-60380000D02*
X87431667Y-60380000D01*
X87331667Y-60746666D02*
X87665000Y-60746666D01*
X87665000Y-60046666D01*
X87331667Y-60046666D01*
X91508333Y-75968666D02*
X91375000Y-75968666D01*
X91308333Y-76002000D01*
X91241666Y-76068666D01*
X91208333Y-76202000D01*
X91208333Y-76435333D01*
X91241666Y-76568666D01*
X91308333Y-76635333D01*
X91375000Y-76668666D01*
X91508333Y-76668666D01*
X91575000Y-76635333D01*
X91641666Y-76568666D01*
X91675000Y-76435333D01*
X91675000Y-76202000D01*
X91641666Y-76068666D01*
X91575000Y-76002000D01*
X91508333Y-75968666D01*
X90908333Y-76668666D02*
X90908333Y-75968666D01*
X90741666Y-75968666D01*
X90641666Y-76002000D01*
X90575000Y-76068666D01*
X90541666Y-76135333D01*
X90508333Y-76268666D01*
X90508333Y-76368666D01*
X90541666Y-76502000D01*
X90575000Y-76568666D01*
X90641666Y-76635333D01*
X90741666Y-76668666D01*
X90908333Y-76668666D01*
X89808333Y-76668666D02*
X90041666Y-76335333D01*
X90208333Y-76668666D02*
X90208333Y-75968666D01*
X89941666Y-75968666D01*
X89875000Y-76002000D01*
X89841666Y-76035333D01*
X89808333Y-76102000D01*
X89808333Y-76202000D01*
X89841666Y-76268666D01*
X89875000Y-76302000D01*
X89941666Y-76335333D01*
X90208333Y-76335333D01*
X89675000Y-76735333D02*
X89141666Y-76735333D01*
X88575000Y-76668666D02*
X88808333Y-76335333D01*
X88975000Y-76668666D02*
X88975000Y-75968666D01*
X88708333Y-75968666D01*
X88641666Y-76002000D01*
X88608333Y-76035333D01*
X88575000Y-76102000D01*
X88575000Y-76202000D01*
X88608333Y-76268666D01*
X88641666Y-76302000D01*
X88708333Y-76335333D01*
X88975000Y-76335333D01*
X88308333Y-76635333D02*
X88208333Y-76668666D01*
X88041666Y-76668666D01*
X87975000Y-76635333D01*
X87941666Y-76602000D01*
X87908333Y-76535333D01*
X87908333Y-76468666D01*
X87941666Y-76402000D01*
X87975000Y-76368666D01*
X88041666Y-76335333D01*
X88175000Y-76302000D01*
X88241666Y-76268666D01*
X88275000Y-76235333D01*
X88308333Y-76168666D01*
X88308333Y-76102000D01*
X88275000Y-76035333D01*
X88241666Y-76002000D01*
X88175000Y-75968666D01*
X88008333Y-75968666D01*
X87908333Y-76002000D01*
X87708333Y-75968666D02*
X87308333Y-75968666D01*
X87508333Y-76668666D02*
X87508333Y-75968666D01*
X90483333Y-84180000D02*
X90516667Y-84213333D01*
X90616667Y-84246666D01*
X90683333Y-84246666D01*
X90783333Y-84213333D01*
X90850000Y-84146666D01*
X90883333Y-84080000D01*
X90916667Y-83946666D01*
X90916667Y-83846666D01*
X90883333Y-83713333D01*
X90850000Y-83646666D01*
X90783333Y-83580000D01*
X90683333Y-83546666D01*
X90616667Y-83546666D01*
X90516667Y-83580000D01*
X90483333Y-83613333D01*
X90183333Y-84246666D02*
X90183333Y-83546666D01*
X90183333Y-83880000D02*
X89783333Y-83880000D01*
X89783333Y-84246666D02*
X89783333Y-83546666D01*
X89083333Y-83580000D02*
X89150000Y-83546666D01*
X89250000Y-83546666D01*
X89350000Y-83580000D01*
X89416667Y-83646666D01*
X89450000Y-83713333D01*
X89483333Y-83846666D01*
X89483333Y-83946666D01*
X89450000Y-84080000D01*
X89416667Y-84146666D01*
X89350000Y-84213333D01*
X89250000Y-84246666D01*
X89183333Y-84246666D01*
X89083333Y-84213333D01*
X89050000Y-84180000D01*
X89050000Y-83946666D01*
X89183333Y-83946666D01*
X88916667Y-84313333D02*
X88383333Y-84313333D01*
X88250000Y-84213333D02*
X88150000Y-84246666D01*
X87983333Y-84246666D01*
X87916667Y-84213333D01*
X87883333Y-84180000D01*
X87850000Y-84113333D01*
X87850000Y-84046666D01*
X87883333Y-83980000D01*
X87916667Y-83946666D01*
X87983333Y-83913333D01*
X88116667Y-83880000D01*
X88183333Y-83846666D01*
X88216667Y-83813333D01*
X88250000Y-83746666D01*
X88250000Y-83680000D01*
X88216667Y-83613333D01*
X88183333Y-83580000D01*
X88116667Y-83546666D01*
X87950000Y-83546666D01*
X87850000Y-83580000D01*
X87650000Y-83546666D02*
X87250000Y-83546666D01*
X87450000Y-84246666D02*
X87450000Y-83546666D01*
X88650000Y-74092666D02*
X88883333Y-73759333D01*
X89050000Y-74092666D02*
X89050000Y-73392666D01*
X88783333Y-73392666D01*
X88716666Y-73426000D01*
X88683333Y-73459333D01*
X88650000Y-73526000D01*
X88650000Y-73626000D01*
X88683333Y-73692666D01*
X88716666Y-73726000D01*
X88783333Y-73759333D01*
X89050000Y-73759333D01*
X88416666Y-73392666D02*
X87950000Y-74092666D01*
X87950000Y-73392666D02*
X88416666Y-74092666D01*
X87550000Y-73392666D02*
X87483333Y-73392666D01*
X87416666Y-73426000D01*
X87383333Y-73459333D01*
X87350000Y-73526000D01*
X87316666Y-73659333D01*
X87316666Y-73826000D01*
X87350000Y-73959333D01*
X87383333Y-74026000D01*
X87416666Y-74059333D01*
X87483333Y-74092666D01*
X87550000Y-74092666D01*
X87616666Y-74059333D01*
X87650000Y-74026000D01*
X87683333Y-73959333D01*
X87716666Y-73826000D01*
X87716666Y-73659333D01*
X87683333Y-73526000D01*
X87650000Y-73459333D01*
X87616666Y-73426000D01*
X87550000Y-73392666D01*
X88983333Y-70866666D02*
X88583333Y-70866666D01*
X88783333Y-71566666D02*
X88783333Y-70866666D01*
X88416667Y-70866666D02*
X87950000Y-71566666D01*
X87950000Y-70866666D02*
X88416667Y-71566666D01*
X87550000Y-70866666D02*
X87483333Y-70866666D01*
X87416667Y-70900000D01*
X87383333Y-70933333D01*
X87350000Y-71000000D01*
X87316667Y-71133333D01*
X87316667Y-71300000D01*
X87350000Y-71433333D01*
X87383333Y-71500000D01*
X87416667Y-71533333D01*
X87483333Y-71566666D01*
X87550000Y-71566666D01*
X87616667Y-71533333D01*
X87650000Y-71500000D01*
X87683333Y-71433333D01*
X87716667Y-71300000D01*
X87716667Y-71133333D01*
X87683333Y-71000000D01*
X87650000Y-70933333D01*
X87616667Y-70900000D01*
X87550000Y-70866666D01*
X91731667Y-64060000D02*
X91498334Y-64060000D01*
X91398334Y-64426666D02*
X91731667Y-64426666D01*
X91731667Y-63726666D01*
X91398334Y-63726666D01*
X91098334Y-64426666D02*
X91098334Y-63726666D01*
X90698334Y-64426666D01*
X90698334Y-63726666D01*
X90365000Y-64426666D02*
X90365000Y-63726666D01*
X90198334Y-63726666D01*
X90098334Y-63760000D01*
X90031667Y-63826666D01*
X89998334Y-63893333D01*
X89965000Y-64026666D01*
X89965000Y-64126666D01*
X89998334Y-64260000D01*
X90031667Y-64326666D01*
X90098334Y-64393333D01*
X90198334Y-64426666D01*
X90365000Y-64426666D01*
X89698334Y-64393333D02*
X89598334Y-64426666D01*
X89431667Y-64426666D01*
X89365000Y-64393333D01*
X89331667Y-64360000D01*
X89298334Y-64293333D01*
X89298334Y-64226666D01*
X89331667Y-64160000D01*
X89365000Y-64126666D01*
X89431667Y-64093333D01*
X89565000Y-64060000D01*
X89631667Y-64026666D01*
X89665000Y-63993333D01*
X89698334Y-63926666D01*
X89698334Y-63860000D01*
X89665000Y-63793333D01*
X89631667Y-63760000D01*
X89565000Y-63726666D01*
X89398334Y-63726666D01*
X89298334Y-63760000D01*
X89098334Y-63726666D02*
X88698334Y-63726666D01*
X88898334Y-64426666D02*
X88898334Y-63726666D01*
X88331667Y-63726666D02*
X88198334Y-63726666D01*
X88131667Y-63760000D01*
X88065000Y-63826666D01*
X88031667Y-63960000D01*
X88031667Y-64193333D01*
X88065000Y-64326666D01*
X88131667Y-64393333D01*
X88198334Y-64426666D01*
X88331667Y-64426666D01*
X88398334Y-64393333D01*
X88465000Y-64326666D01*
X88498334Y-64193333D01*
X88498334Y-63960000D01*
X88465000Y-63826666D01*
X88398334Y-63760000D01*
X88331667Y-63726666D01*
X87731667Y-64426666D02*
X87731667Y-63726666D01*
X87465000Y-63726666D01*
X87398334Y-63760000D01*
X87365000Y-63793333D01*
X87331667Y-63860000D01*
X87331667Y-63960000D01*
X87365000Y-64026666D01*
X87398334Y-64060000D01*
X87465000Y-64093333D01*
X87731667Y-64093333D01*
X89498334Y-65210000D02*
X89398334Y-65243333D01*
X89365000Y-65276666D01*
X89331667Y-65343333D01*
X89331667Y-65443333D01*
X89365000Y-65510000D01*
X89398334Y-65543333D01*
X89465000Y-65576666D01*
X89731667Y-65576666D01*
X89731667Y-64876666D01*
X89498334Y-64876666D01*
X89431667Y-64910000D01*
X89398334Y-64943333D01*
X89365000Y-65010000D01*
X89365000Y-65076666D01*
X89398334Y-65143333D01*
X89431667Y-65176666D01*
X89498334Y-65210000D01*
X89731667Y-65210000D01*
X89065000Y-65376666D02*
X88731667Y-65376666D01*
X89131667Y-65576666D02*
X88898334Y-64876666D01*
X88665000Y-65576666D01*
X88031667Y-65510000D02*
X88065000Y-65543333D01*
X88165000Y-65576666D01*
X88231667Y-65576666D01*
X88331667Y-65543333D01*
X88398334Y-65476666D01*
X88431667Y-65410000D01*
X88465000Y-65276666D01*
X88465000Y-65176666D01*
X88431667Y-65043333D01*
X88398334Y-64976666D01*
X88331667Y-64910000D01*
X88231667Y-64876666D01*
X88165000Y-64876666D01*
X88065000Y-64910000D01*
X88031667Y-64943333D01*
X87731667Y-65576666D02*
X87731667Y-64876666D01*
X87331667Y-65576666D02*
X87631667Y-65176666D01*
X87331667Y-64876666D02*
X87731667Y-65276666D01*
X88650000Y-81745666D02*
X88883333Y-81412333D01*
X89050000Y-81745666D02*
X89050000Y-81045666D01*
X88783333Y-81045666D01*
X88716666Y-81079000D01*
X88683333Y-81112333D01*
X88650000Y-81179000D01*
X88650000Y-81279000D01*
X88683333Y-81345666D01*
X88716666Y-81379000D01*
X88783333Y-81412333D01*
X89050000Y-81412333D01*
X88416666Y-81045666D02*
X87950000Y-81745666D01*
X87950000Y-81045666D02*
X88416666Y-81745666D01*
X87316666Y-81745666D02*
X87716666Y-81745666D01*
X87516666Y-81745666D02*
X87516666Y-81045666D01*
X87583333Y-81145666D01*
X87650000Y-81212333D01*
X87716666Y-81245666D01*
X88983333Y-78519666D02*
X88583333Y-78519666D01*
X88783333Y-79219666D02*
X88783333Y-78519666D01*
X88416667Y-78519666D02*
X87950000Y-79219666D01*
X87950000Y-78519666D02*
X88416667Y-79219666D01*
X87316667Y-79219666D02*
X87716667Y-79219666D01*
X87516667Y-79219666D02*
X87516667Y-78519666D01*
X87583333Y-78619666D01*
X87650000Y-78686333D01*
X87716667Y-78719666D01*
D12*
%TO.C,OSH1*%
G36*
X162581114Y-71134505D02*
G01*
X162506461Y-71171727D01*
X162440569Y-71240261D01*
X162422423Y-71265648D01*
X162402655Y-71298866D01*
X162389828Y-71334945D01*
X162382490Y-71383098D01*
X162379187Y-71452536D01*
X162378462Y-71544206D01*
X162381737Y-71669830D01*
X162393123Y-71764154D01*
X162414959Y-71834523D01*
X162449581Y-71888286D01*
X162499330Y-71932788D01*
X162502986Y-71935423D01*
X162552015Y-71962377D01*
X162611055Y-71975712D01*
X162686141Y-71979000D01*
X162808205Y-71979000D01*
X162808256Y-72097497D01*
X162809392Y-72163492D01*
X162816314Y-72202202D01*
X162834402Y-72225419D01*
X162869038Y-72244933D01*
X162877355Y-72248920D01*
X162916280Y-72267603D01*
X162946417Y-72279403D01*
X162968826Y-72280422D01*
X162984567Y-72266761D01*
X162994698Y-72234522D01*
X163000277Y-72179804D01*
X163002365Y-72098711D01*
X163002019Y-71987344D01*
X163000300Y-71841802D01*
X162999763Y-71798269D01*
X162997828Y-71648205D01*
X162996096Y-71550042D01*
X162808308Y-71550042D01*
X162807252Y-71633364D01*
X162802562Y-71687880D01*
X162791949Y-71723837D01*
X162773128Y-71751482D01*
X162760350Y-71764965D01*
X162708110Y-71804417D01*
X162661858Y-71807628D01*
X162614133Y-71775049D01*
X162612923Y-71773846D01*
X162593506Y-71748668D01*
X162581693Y-71714447D01*
X162575735Y-71661748D01*
X162573880Y-71581131D01*
X162573846Y-71563271D01*
X162578330Y-71452175D01*
X162592926Y-71375161D01*
X162619350Y-71328147D01*
X162659317Y-71307050D01*
X162682416Y-71304923D01*
X162737238Y-71314900D01*
X162774842Y-71347752D01*
X162797477Y-71407857D01*
X162807394Y-71499598D01*
X162808308Y-71550042D01*
X162996096Y-71550042D01*
X162995778Y-71532060D01*
X162993127Y-71444679D01*
X162989394Y-71380905D01*
X162984093Y-71335582D01*
X162976742Y-71303555D01*
X162966857Y-71279668D01*
X162953954Y-71258764D01*
X162948421Y-71250898D01*
X162875031Y-71176595D01*
X162782240Y-71134467D01*
X162674904Y-71122722D01*
X162581114Y-71134505D01*
G37*
X162581114Y-71134505D02*
X162506461Y-71171727D01*
X162440569Y-71240261D01*
X162422423Y-71265648D01*
X162402655Y-71298866D01*
X162389828Y-71334945D01*
X162382490Y-71383098D01*
X162379187Y-71452536D01*
X162378462Y-71544206D01*
X162381737Y-71669830D01*
X162393123Y-71764154D01*
X162414959Y-71834523D01*
X162449581Y-71888286D01*
X162499330Y-71932788D01*
X162502986Y-71935423D01*
X162552015Y-71962377D01*
X162611055Y-71975712D01*
X162686141Y-71979000D01*
X162808205Y-71979000D01*
X162808256Y-72097497D01*
X162809392Y-72163492D01*
X162816314Y-72202202D01*
X162834402Y-72225419D01*
X162869038Y-72244933D01*
X162877355Y-72248920D01*
X162916280Y-72267603D01*
X162946417Y-72279403D01*
X162968826Y-72280422D01*
X162984567Y-72266761D01*
X162994698Y-72234522D01*
X163000277Y-72179804D01*
X163002365Y-72098711D01*
X163002019Y-71987344D01*
X163000300Y-71841802D01*
X162999763Y-71798269D01*
X162997828Y-71648205D01*
X162996096Y-71550042D01*
X162808308Y-71550042D01*
X162807252Y-71633364D01*
X162802562Y-71687880D01*
X162791949Y-71723837D01*
X162773128Y-71751482D01*
X162760350Y-71764965D01*
X162708110Y-71804417D01*
X162661858Y-71807628D01*
X162614133Y-71775049D01*
X162612923Y-71773846D01*
X162593506Y-71748668D01*
X162581693Y-71714447D01*
X162575735Y-71661748D01*
X162573880Y-71581131D01*
X162573846Y-71563271D01*
X162578330Y-71452175D01*
X162592926Y-71375161D01*
X162619350Y-71328147D01*
X162659317Y-71307050D01*
X162682416Y-71304923D01*
X162737238Y-71314900D01*
X162774842Y-71347752D01*
X162797477Y-71407857D01*
X162807394Y-71499598D01*
X162808308Y-71550042D01*
X162996096Y-71550042D01*
X162995778Y-71532060D01*
X162993127Y-71444679D01*
X162989394Y-71380905D01*
X162984093Y-71335582D01*
X162976742Y-71303555D01*
X162966857Y-71279668D01*
X162953954Y-71258764D01*
X162948421Y-71250898D01*
X162875031Y-71176595D01*
X162782240Y-71134467D01*
X162674904Y-71122722D01*
X162581114Y-71134505D01*
G36*
X161078336Y-71145089D02*
G01*
X161015633Y-71181358D01*
X160972039Y-71217358D01*
X160940155Y-71255075D01*
X160918190Y-71301199D01*
X160904351Y-71362421D01*
X160896847Y-71445431D01*
X160893883Y-71556919D01*
X160893539Y-71637062D01*
X160893539Y-71932065D01*
X161059615Y-72006515D01*
X161069385Y-71683402D01*
X161073421Y-71562729D01*
X161077656Y-71475141D01*
X161082903Y-71414650D01*
X161089975Y-71375268D01*
X161099689Y-71351007D01*
X161112856Y-71335880D01*
X161117081Y-71332606D01*
X161181091Y-71307034D01*
X161245792Y-71317153D01*
X161284308Y-71344000D01*
X161299975Y-71363024D01*
X161310820Y-71387988D01*
X161317712Y-71425834D01*
X161321521Y-71483502D01*
X161323117Y-71567935D01*
X161323385Y-71655928D01*
X161323437Y-71766323D01*
X161325328Y-71844463D01*
X161331655Y-71897165D01*
X161345017Y-71931242D01*
X161368015Y-71953511D01*
X161403246Y-71970787D01*
X161450303Y-71988738D01*
X161501697Y-72008278D01*
X161495579Y-71661485D01*
X161493116Y-71536468D01*
X161490233Y-71444082D01*
X161486102Y-71377881D01*
X161479893Y-71331420D01*
X161470774Y-71298256D01*
X161457917Y-71271944D01*
X161442416Y-71248729D01*
X161367629Y-71174569D01*
X161276372Y-71131684D01*
X161177117Y-71121412D01*
X161078336Y-71145089D01*
G37*
X161078336Y-71145089D02*
X161015633Y-71181358D01*
X160972039Y-71217358D01*
X160940155Y-71255075D01*
X160918190Y-71301199D01*
X160904351Y-71362421D01*
X160896847Y-71445431D01*
X160893883Y-71556919D01*
X160893539Y-71637062D01*
X160893539Y-71932065D01*
X161059615Y-72006515D01*
X161069385Y-71683402D01*
X161073421Y-71562729D01*
X161077656Y-71475141D01*
X161082903Y-71414650D01*
X161089975Y-71375268D01*
X161099689Y-71351007D01*
X161112856Y-71335880D01*
X161117081Y-71332606D01*
X161181091Y-71307034D01*
X161245792Y-71317153D01*
X161284308Y-71344000D01*
X161299975Y-71363024D01*
X161310820Y-71387988D01*
X161317712Y-71425834D01*
X161321521Y-71483502D01*
X161323117Y-71567935D01*
X161323385Y-71655928D01*
X161323437Y-71766323D01*
X161325328Y-71844463D01*
X161331655Y-71897165D01*
X161345017Y-71931242D01*
X161368015Y-71953511D01*
X161403246Y-71970787D01*
X161450303Y-71988738D01*
X161501697Y-72008278D01*
X161495579Y-71661485D01*
X161493116Y-71536468D01*
X161490233Y-71444082D01*
X161486102Y-71377881D01*
X161479893Y-71331420D01*
X161470774Y-71298256D01*
X161457917Y-71271944D01*
X161442416Y-71248729D01*
X161367629Y-71174569D01*
X161276372Y-71131684D01*
X161177117Y-71121412D01*
X161078336Y-71145089D01*
G36*
X163333114Y-71137256D02*
G01*
X163241536Y-71185409D01*
X163173951Y-71262905D01*
X163149943Y-71312727D01*
X163131262Y-71387533D01*
X163121699Y-71482052D01*
X163120792Y-71585210D01*
X163128079Y-71685935D01*
X163143097Y-71773153D01*
X163165385Y-71835791D01*
X163172235Y-71846579D01*
X163253368Y-71927105D01*
X163349734Y-71975336D01*
X163454299Y-71989450D01*
X163560032Y-71967629D01*
X163589457Y-71954547D01*
X163646759Y-71914231D01*
X163697050Y-71860775D01*
X163701803Y-71853995D01*
X163721122Y-71821321D01*
X163733892Y-71786394D01*
X163741436Y-71740414D01*
X163745076Y-71674584D01*
X163746135Y-71580105D01*
X163746154Y-71558923D01*
X163746106Y-71552182D01*
X163550769Y-71552182D01*
X163549632Y-71641349D01*
X163545159Y-71700520D01*
X163535754Y-71738741D01*
X163519824Y-71765053D01*
X163511692Y-71773846D01*
X163464942Y-71807261D01*
X163419553Y-71805737D01*
X163373660Y-71776752D01*
X163346288Y-71745809D01*
X163330077Y-71700643D01*
X163320974Y-71629420D01*
X163320349Y-71621114D01*
X163318796Y-71492037D01*
X163335035Y-71396172D01*
X163368848Y-71334107D01*
X163420016Y-71306432D01*
X163438280Y-71304923D01*
X163486240Y-71312513D01*
X163519047Y-71338808D01*
X163539105Y-71389095D01*
X163548822Y-71468664D01*
X163550769Y-71552182D01*
X163746106Y-71552182D01*
X163745426Y-71458249D01*
X163742371Y-71387906D01*
X163735678Y-71339163D01*
X163724040Y-71303288D01*
X163706147Y-71271548D01*
X163702192Y-71265648D01*
X163635733Y-71186104D01*
X163563315Y-71139929D01*
X163475151Y-71121599D01*
X163445213Y-71120703D01*
X163333114Y-71137256D01*
G37*
X163333114Y-71137256D02*
X163241536Y-71185409D01*
X163173951Y-71262905D01*
X163149943Y-71312727D01*
X163131262Y-71387533D01*
X163121699Y-71482052D01*
X163120792Y-71585210D01*
X163128079Y-71685935D01*
X163143097Y-71773153D01*
X163165385Y-71835791D01*
X163172235Y-71846579D01*
X163253368Y-71927105D01*
X163349734Y-71975336D01*
X163454299Y-71989450D01*
X163560032Y-71967629D01*
X163589457Y-71954547D01*
X163646759Y-71914231D01*
X163697050Y-71860775D01*
X163701803Y-71853995D01*
X163721122Y-71821321D01*
X163733892Y-71786394D01*
X163741436Y-71740414D01*
X163745076Y-71674584D01*
X163746135Y-71580105D01*
X163746154Y-71558923D01*
X163746106Y-71552182D01*
X163550769Y-71552182D01*
X163549632Y-71641349D01*
X163545159Y-71700520D01*
X163535754Y-71738741D01*
X163519824Y-71765053D01*
X163511692Y-71773846D01*
X163464942Y-71807261D01*
X163419553Y-71805737D01*
X163373660Y-71776752D01*
X163346288Y-71745809D01*
X163330077Y-71700643D01*
X163320974Y-71629420D01*
X163320349Y-71621114D01*
X163318796Y-71492037D01*
X163335035Y-71396172D01*
X163368848Y-71334107D01*
X163420016Y-71306432D01*
X163438280Y-71304923D01*
X163486240Y-71312513D01*
X163519047Y-71338808D01*
X163539105Y-71389095D01*
X163548822Y-71468664D01*
X163550769Y-71552182D01*
X163746106Y-71552182D01*
X163745426Y-71458249D01*
X163742371Y-71387906D01*
X163735678Y-71339163D01*
X163724040Y-71303288D01*
X163706147Y-71271548D01*
X163702192Y-71265648D01*
X163635733Y-71186104D01*
X163563315Y-71139929D01*
X163475151Y-71121599D01*
X163445213Y-71120703D01*
X163333114Y-71137256D01*
G36*
X161815746Y-71149745D02*
G01*
X161738714Y-71201567D01*
X161679184Y-71276412D01*
X161643622Y-71371654D01*
X161636429Y-71441756D01*
X161637246Y-71471009D01*
X161644086Y-71493407D01*
X161662888Y-71513474D01*
X161699592Y-71535733D01*
X161760138Y-71564709D01*
X161850466Y-71604927D01*
X161850923Y-71605129D01*
X161934067Y-71643210D01*
X162002247Y-71677025D01*
X162048495Y-71702933D01*
X162065842Y-71717295D01*
X162065846Y-71717411D01*
X162050557Y-71748685D01*
X162014804Y-71783157D01*
X161973758Y-71807990D01*
X161952963Y-71812923D01*
X161896230Y-71795862D01*
X161847373Y-71753133D01*
X161823535Y-71706155D01*
X161800603Y-71671522D01*
X161755682Y-71632081D01*
X161702877Y-71598009D01*
X161656290Y-71579480D01*
X161646548Y-71578462D01*
X161635582Y-71595215D01*
X161634921Y-71638039D01*
X161642980Y-71695781D01*
X161658173Y-71757289D01*
X161678914Y-71811409D01*
X161679962Y-71813510D01*
X161742379Y-71900660D01*
X161823274Y-71959939D01*
X161915144Y-71989034D01*
X162010487Y-71985634D01*
X162101802Y-71947428D01*
X162105862Y-71944741D01*
X162177694Y-71879642D01*
X162224927Y-71794705D01*
X162251066Y-71683021D01*
X162254574Y-71651643D01*
X162260787Y-71503536D01*
X162253339Y-71434468D01*
X162065846Y-71434468D01*
X162063410Y-71477552D01*
X162050086Y-71490126D01*
X162016868Y-71480719D01*
X161964506Y-71458483D01*
X161905976Y-71430610D01*
X161904521Y-71429872D01*
X161854911Y-71403777D01*
X161835000Y-71386363D01*
X161839910Y-71368107D01*
X161860584Y-71344120D01*
X161913181Y-71309406D01*
X161969823Y-71306856D01*
X162020631Y-71332119D01*
X162055724Y-71380847D01*
X162065846Y-71434468D01*
X162253339Y-71434468D01*
X162248008Y-71385036D01*
X162215222Y-71291055D01*
X162169579Y-71225215D01*
X162087198Y-71158681D01*
X161996454Y-71125676D01*
X161903815Y-71123573D01*
X161815746Y-71149745D01*
G37*
X161815746Y-71149745D02*
X161738714Y-71201567D01*
X161679184Y-71276412D01*
X161643622Y-71371654D01*
X161636429Y-71441756D01*
X161637246Y-71471009D01*
X161644086Y-71493407D01*
X161662888Y-71513474D01*
X161699592Y-71535733D01*
X161760138Y-71564709D01*
X161850466Y-71604927D01*
X161850923Y-71605129D01*
X161934067Y-71643210D01*
X162002247Y-71677025D01*
X162048495Y-71702933D01*
X162065842Y-71717295D01*
X162065846Y-71717411D01*
X162050557Y-71748685D01*
X162014804Y-71783157D01*
X161973758Y-71807990D01*
X161952963Y-71812923D01*
X161896230Y-71795862D01*
X161847373Y-71753133D01*
X161823535Y-71706155D01*
X161800603Y-71671522D01*
X161755682Y-71632081D01*
X161702877Y-71598009D01*
X161656290Y-71579480D01*
X161646548Y-71578462D01*
X161635582Y-71595215D01*
X161634921Y-71638039D01*
X161642980Y-71695781D01*
X161658173Y-71757289D01*
X161678914Y-71811409D01*
X161679962Y-71813510D01*
X161742379Y-71900660D01*
X161823274Y-71959939D01*
X161915144Y-71989034D01*
X162010487Y-71985634D01*
X162101802Y-71947428D01*
X162105862Y-71944741D01*
X162177694Y-71879642D01*
X162224927Y-71794705D01*
X162251066Y-71683021D01*
X162254574Y-71651643D01*
X162260787Y-71503536D01*
X162253339Y-71434468D01*
X162065846Y-71434468D01*
X162063410Y-71477552D01*
X162050086Y-71490126D01*
X162016868Y-71480719D01*
X161964506Y-71458483D01*
X161905976Y-71430610D01*
X161904521Y-71429872D01*
X161854911Y-71403777D01*
X161835000Y-71386363D01*
X161839910Y-71368107D01*
X161860584Y-71344120D01*
X161913181Y-71309406D01*
X161969823Y-71306856D01*
X162020631Y-71332119D01*
X162055724Y-71380847D01*
X162065846Y-71434468D01*
X162253339Y-71434468D01*
X162248008Y-71385036D01*
X162215222Y-71291055D01*
X162169579Y-71225215D01*
X162087198Y-71158681D01*
X161996454Y-71125676D01*
X161903815Y-71123573D01*
X161815746Y-71149745D01*
G36*
X160190154Y-71042120D02*
G01*
X160184428Y-71121980D01*
X160177851Y-71169039D01*
X160168738Y-71189566D01*
X160155402Y-71189829D01*
X160151077Y-71187378D01*
X160093556Y-71169636D01*
X160018732Y-71170672D01*
X159942661Y-71188910D01*
X159895082Y-71212505D01*
X159846298Y-71250198D01*
X159810636Y-71292855D01*
X159786155Y-71347057D01*
X159770913Y-71419384D01*
X159762970Y-71516419D01*
X159760384Y-71644742D01*
X159760338Y-71669358D01*
X159760308Y-71945870D01*
X159821839Y-71967320D01*
X159865541Y-71981912D01*
X159889518Y-71988706D01*
X159890223Y-71988769D01*
X159892585Y-71970345D01*
X159894594Y-71919526D01*
X159896099Y-71842993D01*
X159896947Y-71747430D01*
X159897077Y-71689329D01*
X159897349Y-71574771D01*
X159898748Y-71492667D01*
X159902151Y-71436393D01*
X159908433Y-71399326D01*
X159918471Y-71374844D01*
X159933139Y-71356325D01*
X159942298Y-71347406D01*
X160005211Y-71311466D01*
X160073864Y-71308775D01*
X160136152Y-71339170D01*
X160147671Y-71350144D01*
X160164567Y-71370779D01*
X160176286Y-71395256D01*
X160183767Y-71430647D01*
X160187946Y-71484026D01*
X160189763Y-71562466D01*
X160190154Y-71670617D01*
X160190154Y-71945870D01*
X160251685Y-71967320D01*
X160295387Y-71981912D01*
X160319364Y-71988706D01*
X160320070Y-71988769D01*
X160321874Y-71970069D01*
X160323500Y-71917322D01*
X160324883Y-71835557D01*
X160325958Y-71729805D01*
X160326660Y-71605094D01*
X160326923Y-71466455D01*
X160326923Y-70931806D01*
X160199923Y-70878236D01*
X160190154Y-71042120D01*
G37*
X160190154Y-71042120D02*
X160184428Y-71121980D01*
X160177851Y-71169039D01*
X160168738Y-71189566D01*
X160155402Y-71189829D01*
X160151077Y-71187378D01*
X160093556Y-71169636D01*
X160018732Y-71170672D01*
X159942661Y-71188910D01*
X159895082Y-71212505D01*
X159846298Y-71250198D01*
X159810636Y-71292855D01*
X159786155Y-71347057D01*
X159770913Y-71419384D01*
X159762970Y-71516419D01*
X159760384Y-71644742D01*
X159760338Y-71669358D01*
X159760308Y-71945870D01*
X159821839Y-71967320D01*
X159865541Y-71981912D01*
X159889518Y-71988706D01*
X159890223Y-71988769D01*
X159892585Y-71970345D01*
X159894594Y-71919526D01*
X159896099Y-71842993D01*
X159896947Y-71747430D01*
X159897077Y-71689329D01*
X159897349Y-71574771D01*
X159898748Y-71492667D01*
X159902151Y-71436393D01*
X159908433Y-71399326D01*
X159918471Y-71374844D01*
X159933139Y-71356325D01*
X159942298Y-71347406D01*
X160005211Y-71311466D01*
X160073864Y-71308775D01*
X160136152Y-71339170D01*
X160147671Y-71350144D01*
X160164567Y-71370779D01*
X160176286Y-71395256D01*
X160183767Y-71430647D01*
X160187946Y-71484026D01*
X160189763Y-71562466D01*
X160190154Y-71670617D01*
X160190154Y-71945870D01*
X160251685Y-71967320D01*
X160295387Y-71981912D01*
X160319364Y-71988706D01*
X160320070Y-71988769D01*
X160321874Y-71970069D01*
X160323500Y-71917322D01*
X160324883Y-71835557D01*
X160325958Y-71729805D01*
X160326660Y-71605094D01*
X160326923Y-71466455D01*
X160326923Y-70931806D01*
X160199923Y-70878236D01*
X160190154Y-71042120D01*
G36*
X159296499Y-71176303D02*
G01*
X159219940Y-71204733D01*
X159219064Y-71205279D01*
X159171715Y-71240127D01*
X159136759Y-71280852D01*
X159112175Y-71333925D01*
X159095938Y-71405814D01*
X159086025Y-71502992D01*
X159080414Y-71631928D01*
X159079923Y-71650298D01*
X159072859Y-71927287D01*
X159132305Y-71958028D01*
X159175319Y-71978802D01*
X159201290Y-71988646D01*
X159202491Y-71988769D01*
X159206986Y-71970606D01*
X159210556Y-71921612D01*
X159212752Y-71850031D01*
X159213231Y-71792068D01*
X159213242Y-71698170D01*
X159217534Y-71639203D01*
X159232497Y-71611079D01*
X159264518Y-71609706D01*
X159319986Y-71630998D01*
X159403731Y-71670136D01*
X159465311Y-71702643D01*
X159496983Y-71730845D01*
X159506294Y-71761582D01*
X159506308Y-71763104D01*
X159490943Y-71816054D01*
X159445453Y-71844660D01*
X159375834Y-71848803D01*
X159325687Y-71848084D01*
X159299246Y-71862527D01*
X159282757Y-71897218D01*
X159273267Y-71941416D01*
X159286943Y-71966493D01*
X159292093Y-71970082D01*
X159340575Y-71984496D01*
X159408469Y-71986537D01*
X159478388Y-71976983D01*
X159527932Y-71959522D01*
X159596430Y-71901364D01*
X159635366Y-71820408D01*
X159643077Y-71757160D01*
X159637193Y-71700111D01*
X159615899Y-71653542D01*
X159573735Y-71612181D01*
X159505241Y-71570755D01*
X159404956Y-71523993D01*
X159398846Y-71521350D01*
X159308510Y-71479617D01*
X159252765Y-71445391D01*
X159228871Y-71414635D01*
X159234087Y-71383311D01*
X159265672Y-71347383D01*
X159275117Y-71339116D01*
X159338383Y-71307058D01*
X159403936Y-71308407D01*
X159461028Y-71339838D01*
X159498907Y-71398024D01*
X159502426Y-71409446D01*
X159536700Y-71464837D01*
X159580191Y-71491518D01*
X159643077Y-71517960D01*
X159643077Y-71449548D01*
X159623948Y-71350110D01*
X159567169Y-71258902D01*
X159537622Y-71228389D01*
X159470458Y-71189228D01*
X159385044Y-71171500D01*
X159296499Y-71176303D01*
G37*
X159296499Y-71176303D02*
X159219940Y-71204733D01*
X159219064Y-71205279D01*
X159171715Y-71240127D01*
X159136759Y-71280852D01*
X159112175Y-71333925D01*
X159095938Y-71405814D01*
X159086025Y-71502992D01*
X159080414Y-71631928D01*
X159079923Y-71650298D01*
X159072859Y-71927287D01*
X159132305Y-71958028D01*
X159175319Y-71978802D01*
X159201290Y-71988646D01*
X159202491Y-71988769D01*
X159206986Y-71970606D01*
X159210556Y-71921612D01*
X159212752Y-71850031D01*
X159213231Y-71792068D01*
X159213242Y-71698170D01*
X159217534Y-71639203D01*
X159232497Y-71611079D01*
X159264518Y-71609706D01*
X159319986Y-71630998D01*
X159403731Y-71670136D01*
X159465311Y-71702643D01*
X159496983Y-71730845D01*
X159506294Y-71761582D01*
X159506308Y-71763104D01*
X159490943Y-71816054D01*
X159445453Y-71844660D01*
X159375834Y-71848803D01*
X159325687Y-71848084D01*
X159299246Y-71862527D01*
X159282757Y-71897218D01*
X159273267Y-71941416D01*
X159286943Y-71966493D01*
X159292093Y-71970082D01*
X159340575Y-71984496D01*
X159408469Y-71986537D01*
X159478388Y-71976983D01*
X159527932Y-71959522D01*
X159596430Y-71901364D01*
X159635366Y-71820408D01*
X159643077Y-71757160D01*
X159637193Y-71700111D01*
X159615899Y-71653542D01*
X159573735Y-71612181D01*
X159505241Y-71570755D01*
X159404956Y-71523993D01*
X159398846Y-71521350D01*
X159308510Y-71479617D01*
X159252765Y-71445391D01*
X159228871Y-71414635D01*
X159234087Y-71383311D01*
X159265672Y-71347383D01*
X159275117Y-71339116D01*
X159338383Y-71307058D01*
X159403936Y-71308407D01*
X159461028Y-71339838D01*
X159498907Y-71398024D01*
X159502426Y-71409446D01*
X159536700Y-71464837D01*
X159580191Y-71491518D01*
X159643077Y-71517960D01*
X159643077Y-71449548D01*
X159623948Y-71350110D01*
X159567169Y-71258902D01*
X159537622Y-71228389D01*
X159470458Y-71189228D01*
X159385044Y-71171500D01*
X159296499Y-71176303D01*
G36*
X158636638Y-71174670D02*
G01*
X158547883Y-71207421D01*
X158475978Y-71265350D01*
X158447856Y-71306128D01*
X158417198Y-71380954D01*
X158417835Y-71435058D01*
X158450013Y-71471446D01*
X158461919Y-71477633D01*
X158513325Y-71496925D01*
X158539578Y-71491982D01*
X158548470Y-71459587D01*
X158548923Y-71441692D01*
X158565203Y-71375859D01*
X158607635Y-71329807D01*
X158666612Y-71307564D01*
X158732525Y-71313161D01*
X158786105Y-71342229D01*
X158804202Y-71358810D01*
X158817029Y-71378925D01*
X158825694Y-71409332D01*
X158831304Y-71456788D01*
X158834965Y-71528050D01*
X158837785Y-71629875D01*
X158838516Y-71662115D01*
X158841180Y-71772410D01*
X158844208Y-71850036D01*
X158848750Y-71901396D01*
X158855954Y-71932890D01*
X158866967Y-71950920D01*
X158882940Y-71961888D01*
X158893166Y-71966733D01*
X158936594Y-71983301D01*
X158962158Y-71988769D01*
X158970605Y-71970507D01*
X158975761Y-71915296D01*
X158977654Y-71822499D01*
X158976311Y-71691478D01*
X158975893Y-71671269D01*
X158972942Y-71551733D01*
X158969452Y-71464449D01*
X158964486Y-71402591D01*
X158957107Y-71359336D01*
X158946376Y-71327860D01*
X158931355Y-71301339D01*
X158923498Y-71289975D01*
X158878447Y-71239692D01*
X158828060Y-71200581D01*
X158821892Y-71197167D01*
X158731542Y-71170212D01*
X158636638Y-71174670D01*
G37*
X158636638Y-71174670D02*
X158547883Y-71207421D01*
X158475978Y-71265350D01*
X158447856Y-71306128D01*
X158417198Y-71380954D01*
X158417835Y-71435058D01*
X158450013Y-71471446D01*
X158461919Y-71477633D01*
X158513325Y-71496925D01*
X158539578Y-71491982D01*
X158548470Y-71459587D01*
X158548923Y-71441692D01*
X158565203Y-71375859D01*
X158607635Y-71329807D01*
X158666612Y-71307564D01*
X158732525Y-71313161D01*
X158786105Y-71342229D01*
X158804202Y-71358810D01*
X158817029Y-71378925D01*
X158825694Y-71409332D01*
X158831304Y-71456788D01*
X158834965Y-71528050D01*
X158837785Y-71629875D01*
X158838516Y-71662115D01*
X158841180Y-71772410D01*
X158844208Y-71850036D01*
X158848750Y-71901396D01*
X158855954Y-71932890D01*
X158866967Y-71950920D01*
X158882940Y-71961888D01*
X158893166Y-71966733D01*
X158936594Y-71983301D01*
X158962158Y-71988769D01*
X158970605Y-71970507D01*
X158975761Y-71915296D01*
X158977654Y-71822499D01*
X158976311Y-71691478D01*
X158975893Y-71671269D01*
X158972942Y-71551733D01*
X158969452Y-71464449D01*
X158964486Y-71402591D01*
X158957107Y-71359336D01*
X158946376Y-71327860D01*
X158931355Y-71301339D01*
X158923498Y-71289975D01*
X158878447Y-71239692D01*
X158828060Y-71200581D01*
X158821892Y-71197167D01*
X158731542Y-71170212D01*
X158636638Y-71174670D01*
G36*
X157747919Y-71330289D02*
G01*
X157748167Y-71476320D01*
X157749128Y-71588655D01*
X157751206Y-71672678D01*
X157754807Y-71733769D01*
X157760335Y-71777309D01*
X157768196Y-71808679D01*
X157778793Y-71833262D01*
X157786818Y-71847294D01*
X157853272Y-71923388D01*
X157937530Y-71971084D01*
X158030751Y-71988199D01*
X158124100Y-71972546D01*
X158179688Y-71944418D01*
X158238043Y-71895760D01*
X158277814Y-71836333D01*
X158301810Y-71758507D01*
X158312839Y-71654652D01*
X158314401Y-71578462D01*
X158314191Y-71572986D01*
X158177692Y-71572986D01*
X158176859Y-71660355D01*
X158173039Y-71718192D01*
X158164254Y-71756029D01*
X158148526Y-71783398D01*
X158129734Y-71804042D01*
X158066625Y-71843890D01*
X157998863Y-71847295D01*
X157934821Y-71814025D01*
X157929836Y-71809517D01*
X157908561Y-71786067D01*
X157895221Y-71758166D01*
X157887999Y-71716641D01*
X157885077Y-71652316D01*
X157884615Y-71581200D01*
X157885617Y-71491858D01*
X157889762Y-71432258D01*
X157898764Y-71393089D01*
X157914333Y-71365040D01*
X157927098Y-71350144D01*
X157986400Y-71312575D01*
X158054699Y-71308057D01*
X158119890Y-71336753D01*
X158132472Y-71347406D01*
X158153889Y-71371063D01*
X158167256Y-71399251D01*
X158174434Y-71441245D01*
X158177281Y-71506319D01*
X158177692Y-71572986D01*
X158314191Y-71572986D01*
X158309678Y-71455765D01*
X158293638Y-71363577D01*
X158263472Y-71294269D01*
X158216371Y-71240211D01*
X158179688Y-71212505D01*
X158113010Y-71182572D01*
X158035728Y-71168678D01*
X157963890Y-71172397D01*
X157923692Y-71187400D01*
X157907918Y-71191670D01*
X157897450Y-71175750D01*
X157890144Y-71133089D01*
X157884615Y-71068106D01*
X157878563Y-70995732D01*
X157870156Y-70952187D01*
X157854859Y-70927287D01*
X157828136Y-70910845D01*
X157811346Y-70903564D01*
X157747846Y-70876963D01*
X157747919Y-71330289D01*
G37*
X157747919Y-71330289D02*
X157748167Y-71476320D01*
X157749128Y-71588655D01*
X157751206Y-71672678D01*
X157754807Y-71733769D01*
X157760335Y-71777309D01*
X157768196Y-71808679D01*
X157778793Y-71833262D01*
X157786818Y-71847294D01*
X157853272Y-71923388D01*
X157937530Y-71971084D01*
X158030751Y-71988199D01*
X158124100Y-71972546D01*
X158179688Y-71944418D01*
X158238043Y-71895760D01*
X158277814Y-71836333D01*
X158301810Y-71758507D01*
X158312839Y-71654652D01*
X158314401Y-71578462D01*
X158314191Y-71572986D01*
X158177692Y-71572986D01*
X158176859Y-71660355D01*
X158173039Y-71718192D01*
X158164254Y-71756029D01*
X158148526Y-71783398D01*
X158129734Y-71804042D01*
X158066625Y-71843890D01*
X157998863Y-71847295D01*
X157934821Y-71814025D01*
X157929836Y-71809517D01*
X157908561Y-71786067D01*
X157895221Y-71758166D01*
X157887999Y-71716641D01*
X157885077Y-71652316D01*
X157884615Y-71581200D01*
X157885617Y-71491858D01*
X157889762Y-71432258D01*
X157898764Y-71393089D01*
X157914333Y-71365040D01*
X157927098Y-71350144D01*
X157986400Y-71312575D01*
X158054699Y-71308057D01*
X158119890Y-71336753D01*
X158132472Y-71347406D01*
X158153889Y-71371063D01*
X158167256Y-71399251D01*
X158174434Y-71441245D01*
X158177281Y-71506319D01*
X158177692Y-71572986D01*
X158314191Y-71572986D01*
X158309678Y-71455765D01*
X158293638Y-71363577D01*
X158263472Y-71294269D01*
X158216371Y-71240211D01*
X158179688Y-71212505D01*
X158113010Y-71182572D01*
X158035728Y-71168678D01*
X157963890Y-71172397D01*
X157923692Y-71187400D01*
X157907918Y-71191670D01*
X157897450Y-71175750D01*
X157890144Y-71133089D01*
X157884615Y-71068106D01*
X157878563Y-70995732D01*
X157870156Y-70952187D01*
X157854859Y-70927287D01*
X157828136Y-70910845D01*
X157811346Y-70903564D01*
X157747846Y-70876963D01*
X157747919Y-71330289D01*
G36*
X156954071Y-71186662D02*
G01*
X156951089Y-71238068D01*
X156948753Y-71316192D01*
X156947251Y-71414857D01*
X156946769Y-71518343D01*
X156946769Y-71868533D01*
X157008599Y-71930363D01*
X157051207Y-71968462D01*
X157088610Y-71983895D01*
X157139730Y-71982918D01*
X157160022Y-71980433D01*
X157223446Y-71973200D01*
X157275905Y-71969055D01*
X157288692Y-71968672D01*
X157331801Y-71971176D01*
X157393456Y-71977462D01*
X157417362Y-71980433D01*
X157476078Y-71985028D01*
X157515536Y-71975046D01*
X157554662Y-71944228D01*
X157568785Y-71930363D01*
X157630615Y-71868533D01*
X157630615Y-71213503D01*
X157580850Y-71190829D01*
X157537998Y-71174034D01*
X157512927Y-71168154D01*
X157506499Y-71186736D01*
X157500491Y-71238655D01*
X157495303Y-71318172D01*
X157491336Y-71419546D01*
X157489423Y-71505192D01*
X157484077Y-71842231D01*
X157437440Y-71848825D01*
X157395024Y-71844214D01*
X157374240Y-71829287D01*
X157368430Y-71801377D01*
X157363470Y-71741925D01*
X157359754Y-71658466D01*
X157357676Y-71558532D01*
X157357376Y-71507104D01*
X157357077Y-71211054D01*
X157295546Y-71189604D01*
X157251996Y-71175020D01*
X157228306Y-71168219D01*
X157227623Y-71168154D01*
X157225246Y-71186642D01*
X157222634Y-71237906D01*
X157220005Y-71315649D01*
X157217579Y-71413574D01*
X157215885Y-71505192D01*
X157210539Y-71842231D01*
X157093308Y-71842231D01*
X157087928Y-71534746D01*
X157082549Y-71227261D01*
X157025399Y-71197707D01*
X156983203Y-71177413D01*
X156958230Y-71168204D01*
X156957509Y-71168154D01*
X156954071Y-71186662D01*
G37*
X156954071Y-71186662D02*
X156951089Y-71238068D01*
X156948753Y-71316192D01*
X156947251Y-71414857D01*
X156946769Y-71518343D01*
X156946769Y-71868533D01*
X157008599Y-71930363D01*
X157051207Y-71968462D01*
X157088610Y-71983895D01*
X157139730Y-71982918D01*
X157160022Y-71980433D01*
X157223446Y-71973200D01*
X157275905Y-71969055D01*
X157288692Y-71968672D01*
X157331801Y-71971176D01*
X157393456Y-71977462D01*
X157417362Y-71980433D01*
X157476078Y-71985028D01*
X157515536Y-71975046D01*
X157554662Y-71944228D01*
X157568785Y-71930363D01*
X157630615Y-71868533D01*
X157630615Y-71213503D01*
X157580850Y-71190829D01*
X157537998Y-71174034D01*
X157512927Y-71168154D01*
X157506499Y-71186736D01*
X157500491Y-71238655D01*
X157495303Y-71318172D01*
X157491336Y-71419546D01*
X157489423Y-71505192D01*
X157484077Y-71842231D01*
X157437440Y-71848825D01*
X157395024Y-71844214D01*
X157374240Y-71829287D01*
X157368430Y-71801377D01*
X157363470Y-71741925D01*
X157359754Y-71658466D01*
X157357676Y-71558532D01*
X157357376Y-71507104D01*
X157357077Y-71211054D01*
X157295546Y-71189604D01*
X157251996Y-71175020D01*
X157228306Y-71168219D01*
X157227623Y-71168154D01*
X157225246Y-71186642D01*
X157222634Y-71237906D01*
X157220005Y-71315649D01*
X157217579Y-71413574D01*
X157215885Y-71505192D01*
X157210539Y-71842231D01*
X157093308Y-71842231D01*
X157087928Y-71534746D01*
X157082549Y-71227261D01*
X157025399Y-71197707D01*
X156983203Y-71177413D01*
X156958230Y-71168204D01*
X156957509Y-71168154D01*
X156954071Y-71186662D01*
G36*
X156462667Y-71183528D02*
G01*
X156406410Y-71209117D01*
X156362253Y-71240124D01*
X156329899Y-71274795D01*
X156307562Y-71319520D01*
X156293454Y-71380692D01*
X156285789Y-71464701D01*
X156282780Y-71577940D01*
X156282462Y-71652509D01*
X156282462Y-71943420D01*
X156332227Y-71966095D01*
X156371424Y-71982667D01*
X156390843Y-71988769D01*
X156394558Y-71970610D01*
X156397505Y-71921648D01*
X156399309Y-71850153D01*
X156399692Y-71793385D01*
X156401339Y-71711371D01*
X156405778Y-71646309D01*
X156412260Y-71606467D01*
X156417410Y-71598000D01*
X156452023Y-71606646D01*
X156506360Y-71628823D01*
X156569278Y-71658886D01*
X156629632Y-71691192D01*
X156676279Y-71720098D01*
X156698074Y-71739961D01*
X156698161Y-71740175D01*
X156696286Y-71776935D01*
X156679475Y-71812026D01*
X156649961Y-71840528D01*
X156606884Y-71850061D01*
X156570068Y-71848950D01*
X156517926Y-71848133D01*
X156490556Y-71860349D01*
X156474118Y-71892624D01*
X156472045Y-71898710D01*
X156464919Y-71944739D01*
X156483976Y-71972687D01*
X156533647Y-71986007D01*
X156587303Y-71988470D01*
X156683858Y-71970210D01*
X156733841Y-71944131D01*
X156795571Y-71882868D01*
X156828310Y-71807670D01*
X156831247Y-71728211D01*
X156803576Y-71654167D01*
X156761953Y-71607769D01*
X156720396Y-71581793D01*
X156655078Y-71548907D01*
X156578962Y-71515557D01*
X156566274Y-71510461D01*
X156482667Y-71473565D01*
X156434470Y-71441046D01*
X156418970Y-71408718D01*
X156433450Y-71372394D01*
X156458308Y-71344000D01*
X156517061Y-71309039D01*
X156581707Y-71306417D01*
X156640992Y-71333358D01*
X156683661Y-71387088D01*
X156689261Y-71400950D01*
X156721867Y-71451936D01*
X156769470Y-71489787D01*
X156829539Y-71520850D01*
X156829539Y-71432768D01*
X156826003Y-71378951D01*
X156810844Y-71336534D01*
X156777232Y-71291279D01*
X156744965Y-71256420D01*
X156694791Y-71207062D01*
X156655807Y-71180547D01*
X156613936Y-71169911D01*
X156566540Y-71168154D01*
X156462667Y-71183528D01*
G37*
X156462667Y-71183528D02*
X156406410Y-71209117D01*
X156362253Y-71240124D01*
X156329899Y-71274795D01*
X156307562Y-71319520D01*
X156293454Y-71380692D01*
X156285789Y-71464701D01*
X156282780Y-71577940D01*
X156282462Y-71652509D01*
X156282462Y-71943420D01*
X156332227Y-71966095D01*
X156371424Y-71982667D01*
X156390843Y-71988769D01*
X156394558Y-71970610D01*
X156397505Y-71921648D01*
X156399309Y-71850153D01*
X156399692Y-71793385D01*
X156401339Y-71711371D01*
X156405778Y-71646309D01*
X156412260Y-71606467D01*
X156417410Y-71598000D01*
X156452023Y-71606646D01*
X156506360Y-71628823D01*
X156569278Y-71658886D01*
X156629632Y-71691192D01*
X156676279Y-71720098D01*
X156698074Y-71739961D01*
X156698161Y-71740175D01*
X156696286Y-71776935D01*
X156679475Y-71812026D01*
X156649961Y-71840528D01*
X156606884Y-71850061D01*
X156570068Y-71848950D01*
X156517926Y-71848133D01*
X156490556Y-71860349D01*
X156474118Y-71892624D01*
X156472045Y-71898710D01*
X156464919Y-71944739D01*
X156483976Y-71972687D01*
X156533647Y-71986007D01*
X156587303Y-71988470D01*
X156683858Y-71970210D01*
X156733841Y-71944131D01*
X156795571Y-71882868D01*
X156828310Y-71807670D01*
X156831247Y-71728211D01*
X156803576Y-71654167D01*
X156761953Y-71607769D01*
X156720396Y-71581793D01*
X156655078Y-71548907D01*
X156578962Y-71515557D01*
X156566274Y-71510461D01*
X156482667Y-71473565D01*
X156434470Y-71441046D01*
X156418970Y-71408718D01*
X156433450Y-71372394D01*
X156458308Y-71344000D01*
X156517061Y-71309039D01*
X156581707Y-71306417D01*
X156640992Y-71333358D01*
X156683661Y-71387088D01*
X156689261Y-71400950D01*
X156721867Y-71451936D01*
X156769470Y-71489787D01*
X156829539Y-71520850D01*
X156829539Y-71432768D01*
X156826003Y-71378951D01*
X156810844Y-71336534D01*
X156777232Y-71291279D01*
X156744965Y-71256420D01*
X156694791Y-71207062D01*
X156655807Y-71180547D01*
X156613936Y-71169911D01*
X156566540Y-71168154D01*
X156462667Y-71183528D01*
G36*
X155779193Y-71186782D02*
G01*
X155755839Y-71196988D01*
X155700098Y-71241134D01*
X155652431Y-71304967D01*
X155622952Y-71373087D01*
X155618154Y-71406670D01*
X155634240Y-71453556D01*
X155669525Y-71478365D01*
X155707356Y-71493387D01*
X155724679Y-71496155D01*
X155733114Y-71476066D01*
X155749770Y-71432351D01*
X155757077Y-71412598D01*
X155798052Y-71344271D01*
X155857378Y-71310191D01*
X155933448Y-71311239D01*
X155939082Y-71312581D01*
X155979695Y-71331836D01*
X156009552Y-71369375D01*
X156029945Y-71429809D01*
X156042164Y-71517751D01*
X156047500Y-71637813D01*
X156048000Y-71701698D01*
X156048248Y-71802403D01*
X156049874Y-71871054D01*
X156054199Y-71914673D01*
X156062546Y-71940282D01*
X156076235Y-71954903D01*
X156096589Y-71965558D01*
X156097766Y-71966095D01*
X156136962Y-71982667D01*
X156156381Y-71988769D01*
X156159365Y-71970319D01*
X156161919Y-71919323D01*
X156163860Y-71842308D01*
X156165003Y-71745805D01*
X156165231Y-71675184D01*
X156164068Y-71538525D01*
X156159521Y-71434851D01*
X156150001Y-71358108D01*
X156133919Y-71302246D01*
X156109687Y-71261212D01*
X156075714Y-71228954D01*
X156042167Y-71206440D01*
X155961501Y-71176476D01*
X155867619Y-71169718D01*
X155779193Y-71186782D01*
G37*
X155779193Y-71186782D02*
X155755839Y-71196988D01*
X155700098Y-71241134D01*
X155652431Y-71304967D01*
X155622952Y-71373087D01*
X155618154Y-71406670D01*
X155634240Y-71453556D01*
X155669525Y-71478365D01*
X155707356Y-71493387D01*
X155724679Y-71496155D01*
X155733114Y-71476066D01*
X155749770Y-71432351D01*
X155757077Y-71412598D01*
X155798052Y-71344271D01*
X155857378Y-71310191D01*
X155933448Y-71311239D01*
X155939082Y-71312581D01*
X155979695Y-71331836D01*
X156009552Y-71369375D01*
X156029945Y-71429809D01*
X156042164Y-71517751D01*
X156047500Y-71637813D01*
X156048000Y-71701698D01*
X156048248Y-71802403D01*
X156049874Y-71871054D01*
X156054199Y-71914673D01*
X156062546Y-71940282D01*
X156076235Y-71954903D01*
X156096589Y-71965558D01*
X156097766Y-71966095D01*
X156136962Y-71982667D01*
X156156381Y-71988769D01*
X156159365Y-71970319D01*
X156161919Y-71919323D01*
X156163860Y-71842308D01*
X156165003Y-71745805D01*
X156165231Y-71675184D01*
X156164068Y-71538525D01*
X156159521Y-71434851D01*
X156150001Y-71358108D01*
X156133919Y-71302246D01*
X156109687Y-71261212D01*
X156075714Y-71228954D01*
X156042167Y-71206440D01*
X155961501Y-71176476D01*
X155867619Y-71169718D01*
X155779193Y-71186782D01*
G36*
X155104776Y-71197838D02*
G01*
X155027472Y-71248361D01*
X154990186Y-71293590D01*
X154960647Y-71375663D01*
X154958301Y-71440607D01*
X154963615Y-71527445D01*
X155163885Y-71615103D01*
X155261261Y-71659887D01*
X155324887Y-71695913D01*
X155357971Y-71727117D01*
X155363720Y-71757436D01*
X155345342Y-71790805D01*
X155325077Y-71812923D01*
X155266111Y-71848393D01*
X155201976Y-71850879D01*
X155143074Y-71823235D01*
X155099803Y-71768320D01*
X155092064Y-71748928D01*
X155054994Y-71688364D01*
X155012346Y-71662552D01*
X154953846Y-71640471D01*
X154953846Y-71724184D01*
X154959018Y-71781150D01*
X154979277Y-71829189D01*
X155021738Y-71884346D01*
X155028049Y-71891514D01*
X155075280Y-71940585D01*
X155115879Y-71966920D01*
X155166672Y-71979035D01*
X155208780Y-71983003D01*
X155284098Y-71983991D01*
X155337714Y-71971466D01*
X155371162Y-71952869D01*
X155423732Y-71911975D01*
X155460121Y-71867748D01*
X155483150Y-71812126D01*
X155495641Y-71737047D01*
X155500413Y-71634449D01*
X155500794Y-71582376D01*
X155499499Y-71519948D01*
X155381529Y-71519948D01*
X155380161Y-71553438D01*
X155376751Y-71558923D01*
X155354247Y-71551472D01*
X155305818Y-71531753D01*
X155241092Y-71503718D01*
X155227557Y-71497692D01*
X155145756Y-71456096D01*
X155100688Y-71419538D01*
X155090783Y-71385296D01*
X155114474Y-71350648D01*
X155134040Y-71335339D01*
X155204640Y-71304721D01*
X155270720Y-71309780D01*
X155326041Y-71347151D01*
X155364364Y-71413473D01*
X155376651Y-71466116D01*
X155381529Y-71519948D01*
X155499499Y-71519948D01*
X155498270Y-71460720D01*
X155488968Y-71370710D01*
X155470540Y-71305167D01*
X155440640Y-71256912D01*
X155396920Y-71218767D01*
X155377859Y-71206440D01*
X155291274Y-71174336D01*
X155196478Y-71172316D01*
X155104776Y-71197838D01*
G37*
X155104776Y-71197838D02*
X155027472Y-71248361D01*
X154990186Y-71293590D01*
X154960647Y-71375663D01*
X154958301Y-71440607D01*
X154963615Y-71527445D01*
X155163885Y-71615103D01*
X155261261Y-71659887D01*
X155324887Y-71695913D01*
X155357971Y-71727117D01*
X155363720Y-71757436D01*
X155345342Y-71790805D01*
X155325077Y-71812923D01*
X155266111Y-71848393D01*
X155201976Y-71850879D01*
X155143074Y-71823235D01*
X155099803Y-71768320D01*
X155092064Y-71748928D01*
X155054994Y-71688364D01*
X155012346Y-71662552D01*
X154953846Y-71640471D01*
X154953846Y-71724184D01*
X154959018Y-71781150D01*
X154979277Y-71829189D01*
X155021738Y-71884346D01*
X155028049Y-71891514D01*
X155075280Y-71940585D01*
X155115879Y-71966920D01*
X155166672Y-71979035D01*
X155208780Y-71983003D01*
X155284098Y-71983991D01*
X155337714Y-71971466D01*
X155371162Y-71952869D01*
X155423732Y-71911975D01*
X155460121Y-71867748D01*
X155483150Y-71812126D01*
X155495641Y-71737047D01*
X155500413Y-71634449D01*
X155500794Y-71582376D01*
X155499499Y-71519948D01*
X155381529Y-71519948D01*
X155380161Y-71553438D01*
X155376751Y-71558923D01*
X155354247Y-71551472D01*
X155305818Y-71531753D01*
X155241092Y-71503718D01*
X155227557Y-71497692D01*
X155145756Y-71456096D01*
X155100688Y-71419538D01*
X155090783Y-71385296D01*
X155114474Y-71350648D01*
X155134040Y-71335339D01*
X155204640Y-71304721D01*
X155270720Y-71309780D01*
X155326041Y-71347151D01*
X155364364Y-71413473D01*
X155376651Y-71466116D01*
X155381529Y-71519948D01*
X155499499Y-71519948D01*
X155498270Y-71460720D01*
X155488968Y-71370710D01*
X155470540Y-71305167D01*
X155440640Y-71256912D01*
X155396920Y-71218767D01*
X155377859Y-71206440D01*
X155291274Y-71174336D01*
X155196478Y-71172316D01*
X155104776Y-71197838D01*
G36*
X159210122Y-64837776D02*
G01*
X159104388Y-64838355D01*
X159027868Y-64839922D01*
X158975628Y-64842972D01*
X158942737Y-64847996D01*
X158924263Y-64855489D01*
X158915273Y-64865944D01*
X158910837Y-64879853D01*
X158910406Y-64881654D01*
X158903667Y-64914145D01*
X158891192Y-64978252D01*
X158874281Y-65067151D01*
X158854229Y-65174019D01*
X158832336Y-65292033D01*
X158831571Y-65296178D01*
X158809641Y-65411831D01*
X158789123Y-65514014D01*
X158771341Y-65596598D01*
X158757619Y-65653456D01*
X158749282Y-65678458D01*
X158748884Y-65678901D01*
X158724323Y-65691110D01*
X158673685Y-65711456D01*
X158607905Y-65735545D01*
X158607539Y-65735674D01*
X158524683Y-65766818D01*
X158427000Y-65806491D01*
X158334923Y-65846381D01*
X158330566Y-65848353D01*
X158180593Y-65916420D01*
X157848502Y-65689639D01*
X157746626Y-65620504D01*
X157654343Y-65558697D01*
X157576997Y-65507733D01*
X157519936Y-65471127D01*
X157488505Y-65452394D01*
X157485521Y-65451004D01*
X157462679Y-65457190D01*
X157420018Y-65487035D01*
X157355872Y-65541947D01*
X157268579Y-65623334D01*
X157179465Y-65709922D01*
X157093559Y-65795247D01*
X157016673Y-65873108D01*
X156953436Y-65938697D01*
X156908477Y-65987205D01*
X156886424Y-66013825D01*
X156885604Y-66015195D01*
X156883166Y-66033463D01*
X156892350Y-66063295D01*
X156915426Y-66108721D01*
X156954663Y-66173770D01*
X157012330Y-66262470D01*
X157089205Y-66376657D01*
X157157430Y-66477162D01*
X157218418Y-66567303D01*
X157268644Y-66641849D01*
X157304584Y-66695565D01*
X157322713Y-66723218D01*
X157323854Y-66725095D01*
X157321641Y-66751590D01*
X157304862Y-66803086D01*
X157276858Y-66869851D01*
X157266878Y-66891172D01*
X157223328Y-66986159D01*
X157176866Y-67093937D01*
X157139123Y-67187192D01*
X157111927Y-67256406D01*
X157090325Y-67309006D01*
X157077842Y-67336497D01*
X157076291Y-67338616D01*
X157053332Y-67342124D01*
X156999214Y-67351738D01*
X156921132Y-67366089D01*
X156826281Y-67383807D01*
X156721857Y-67403525D01*
X156615056Y-67423874D01*
X156513074Y-67443486D01*
X156423106Y-67460991D01*
X156352347Y-67475022D01*
X156307994Y-67484209D01*
X156297115Y-67486807D01*
X156285878Y-67493218D01*
X156277395Y-67507697D01*
X156271286Y-67535133D01*
X156267168Y-67580411D01*
X156264659Y-67648420D01*
X156263379Y-67744047D01*
X156262946Y-67872180D01*
X156262923Y-67924701D01*
X156262923Y-68351845D01*
X156365500Y-68372091D01*
X156422569Y-68383070D01*
X156507731Y-68399095D01*
X156610628Y-68418233D01*
X156720904Y-68438551D01*
X156751385Y-68444132D01*
X156853145Y-68463917D01*
X156941795Y-68483373D01*
X157009892Y-68500697D01*
X157049996Y-68514088D01*
X157056677Y-68518079D01*
X157073081Y-68546342D01*
X157096601Y-68601109D01*
X157122684Y-68671588D01*
X157127858Y-68686769D01*
X157162044Y-68780896D01*
X157204477Y-68887101D01*
X157246003Y-68982473D01*
X157246208Y-68982916D01*
X157315360Y-69132525D01*
X156860488Y-69801617D01*
X157152500Y-70094116D01*
X157240820Y-70181170D01*
X157321375Y-70257909D01*
X157389640Y-70320237D01*
X157441092Y-70364056D01*
X157471206Y-70385270D01*
X157475526Y-70386616D01*
X157500889Y-70376016D01*
X157552642Y-70346547D01*
X157625132Y-70301705D01*
X157712706Y-70244984D01*
X157807388Y-70181462D01*
X157903484Y-70116668D01*
X157989163Y-70060287D01*
X158058984Y-70015788D01*
X158107506Y-69986639D01*
X158129218Y-69976308D01*
X158155707Y-69985050D01*
X158205938Y-70008087D01*
X158269549Y-70040631D01*
X158276292Y-70044249D01*
X158361954Y-70087210D01*
X158420694Y-70108279D01*
X158457228Y-70108503D01*
X158476269Y-70088928D01*
X158476380Y-70088654D01*
X158485898Y-70065472D01*
X158508597Y-70010441D01*
X158542718Y-69927822D01*
X158586500Y-69821872D01*
X158638184Y-69696852D01*
X158696008Y-69557020D01*
X158752009Y-69421637D01*
X158813553Y-69272234D01*
X158870061Y-69133832D01*
X158919839Y-69010673D01*
X158961194Y-68907002D01*
X158992432Y-68827059D01*
X159011859Y-68775088D01*
X159017846Y-68755692D01*
X159002832Y-68733443D01*
X158963561Y-68697982D01*
X158911193Y-68658887D01*
X158762059Y-68535245D01*
X158645489Y-68393522D01*
X158562882Y-68236704D01*
X158515634Y-68067775D01*
X158505143Y-67889722D01*
X158512769Y-67807539D01*
X158554318Y-67637031D01*
X158625877Y-67486459D01*
X158723005Y-67357309D01*
X158841266Y-67251064D01*
X158976220Y-67169210D01*
X159123429Y-67113232D01*
X159278456Y-67084615D01*
X159436861Y-67084844D01*
X159594206Y-67115405D01*
X159746054Y-67177782D01*
X159887965Y-67273460D01*
X159947197Y-67327572D01*
X160060797Y-67466520D01*
X160139894Y-67618361D01*
X160185014Y-67778667D01*
X160196684Y-67943012D01*
X160175431Y-68106971D01*
X160121780Y-68266118D01*
X160036260Y-68416025D01*
X159919395Y-68552267D01*
X159788807Y-68658887D01*
X159734412Y-68699642D01*
X159695986Y-68734718D01*
X159682154Y-68755726D01*
X159689397Y-68778635D01*
X159709995Y-68833365D01*
X159742254Y-68915672D01*
X159784479Y-69021315D01*
X159834977Y-69146050D01*
X159892052Y-69285636D01*
X159948146Y-69421670D01*
X160010033Y-69571201D01*
X160067356Y-69709767D01*
X160118356Y-69833107D01*
X160161273Y-69936964D01*
X160194347Y-70017080D01*
X160215819Y-70069195D01*
X160223775Y-70088654D01*
X160242571Y-70108423D01*
X160278926Y-70108365D01*
X160337521Y-70087441D01*
X160423032Y-70044613D01*
X160423708Y-70044249D01*
X160488093Y-70011012D01*
X160540139Y-69986802D01*
X160569488Y-69976404D01*
X160570783Y-69976308D01*
X160592876Y-69986855D01*
X160641652Y-70016184D01*
X160711669Y-70060827D01*
X160797486Y-70117314D01*
X160892612Y-70181462D01*
X160989460Y-70246411D01*
X161076747Y-70302896D01*
X161148819Y-70347421D01*
X161200023Y-70376490D01*
X161224474Y-70386616D01*
X161246990Y-70373307D01*
X161292258Y-70336112D01*
X161355756Y-70279128D01*
X161432961Y-70206449D01*
X161519349Y-70122171D01*
X161547601Y-70094016D01*
X161839713Y-69801416D01*
X161617369Y-69475104D01*
X161549798Y-69374897D01*
X161490493Y-69284963D01*
X161442783Y-69210510D01*
X161409993Y-69156751D01*
X161395452Y-69128894D01*
X161395026Y-69126912D01*
X161402692Y-69100655D01*
X161423311Y-69047837D01*
X161453315Y-68977310D01*
X161474375Y-68930093D01*
X161513752Y-68839694D01*
X161550835Y-68748366D01*
X161579585Y-68671200D01*
X161587395Y-68647692D01*
X161609583Y-68584916D01*
X161631273Y-68536411D01*
X161643187Y-68518079D01*
X161669477Y-68506859D01*
X161726858Y-68490954D01*
X161807882Y-68472167D01*
X161905105Y-68452299D01*
X161948615Y-68444132D01*
X162059104Y-68423829D01*
X162165084Y-68404170D01*
X162256199Y-68387088D01*
X162322092Y-68374518D01*
X162334500Y-68372091D01*
X162437077Y-68351845D01*
X162437077Y-67924701D01*
X162436847Y-67784246D01*
X162435901Y-67677979D01*
X162433859Y-67601013D01*
X162430338Y-67548460D01*
X162424957Y-67515433D01*
X162417334Y-67497045D01*
X162407088Y-67488408D01*
X162402885Y-67486807D01*
X162377530Y-67481127D01*
X162321516Y-67469795D01*
X162242036Y-67454179D01*
X162146288Y-67435647D01*
X162041467Y-67415569D01*
X161934768Y-67395312D01*
X161833387Y-67376246D01*
X161744521Y-67359739D01*
X161675363Y-67347159D01*
X161633111Y-67339875D01*
X161623710Y-67338616D01*
X161615193Y-67321763D01*
X161596340Y-67276870D01*
X161570676Y-67212430D01*
X161560877Y-67187192D01*
X161521352Y-67089686D01*
X161474808Y-66981959D01*
X161433123Y-66891172D01*
X161402450Y-66821753D01*
X161382044Y-66764710D01*
X161375232Y-66729777D01*
X161376318Y-66725095D01*
X161390715Y-66702991D01*
X161423588Y-66653831D01*
X161471410Y-66582848D01*
X161530652Y-66495278D01*
X161597785Y-66396357D01*
X161611059Y-66376830D01*
X161688954Y-66261140D01*
X161746213Y-66173044D01*
X161785119Y-66108486D01*
X161807956Y-66063411D01*
X161817006Y-66033763D01*
X161814552Y-66015485D01*
X161814489Y-66015369D01*
X161795173Y-65991361D01*
X161752449Y-65944947D01*
X161690949Y-65880937D01*
X161615302Y-65804145D01*
X161530139Y-65719382D01*
X161520535Y-65709922D01*
X161413210Y-65605989D01*
X161330385Y-65529675D01*
X161270395Y-65479571D01*
X161231577Y-65454270D01*
X161214480Y-65451004D01*
X161189527Y-65465250D01*
X161137745Y-65498156D01*
X161064480Y-65546208D01*
X160975080Y-65605890D01*
X160874889Y-65673688D01*
X160851499Y-65689639D01*
X160519407Y-65916420D01*
X160369435Y-65848353D01*
X160278230Y-65808685D01*
X160180331Y-65768791D01*
X160096169Y-65736983D01*
X160092462Y-65735674D01*
X160026631Y-65711576D01*
X159975884Y-65691200D01*
X159951158Y-65678936D01*
X159951116Y-65678901D01*
X159943271Y-65656734D01*
X159929934Y-65602217D01*
X159912430Y-65521480D01*
X159892083Y-65420650D01*
X159870218Y-65305856D01*
X159868429Y-65296178D01*
X159846496Y-65177904D01*
X159826360Y-65070542D01*
X159809320Y-64980917D01*
X159796672Y-64915851D01*
X159789716Y-64882168D01*
X159789594Y-64881654D01*
X159785361Y-64867325D01*
X159777129Y-64856507D01*
X159759967Y-64848706D01*
X159728942Y-64843429D01*
X159679122Y-64840182D01*
X159605576Y-64838472D01*
X159503371Y-64837807D01*
X159367575Y-64837693D01*
X159350000Y-64837692D01*
X159210122Y-64837776D01*
G37*
X159210122Y-64837776D02*
X159104388Y-64838355D01*
X159027868Y-64839922D01*
X158975628Y-64842972D01*
X158942737Y-64847996D01*
X158924263Y-64855489D01*
X158915273Y-64865944D01*
X158910837Y-64879853D01*
X158910406Y-64881654D01*
X158903667Y-64914145D01*
X158891192Y-64978252D01*
X158874281Y-65067151D01*
X158854229Y-65174019D01*
X158832336Y-65292033D01*
X158831571Y-65296178D01*
X158809641Y-65411831D01*
X158789123Y-65514014D01*
X158771341Y-65596598D01*
X158757619Y-65653456D01*
X158749282Y-65678458D01*
X158748884Y-65678901D01*
X158724323Y-65691110D01*
X158673685Y-65711456D01*
X158607905Y-65735545D01*
X158607539Y-65735674D01*
X158524683Y-65766818D01*
X158427000Y-65806491D01*
X158334923Y-65846381D01*
X158330566Y-65848353D01*
X158180593Y-65916420D01*
X157848502Y-65689639D01*
X157746626Y-65620504D01*
X157654343Y-65558697D01*
X157576997Y-65507733D01*
X157519936Y-65471127D01*
X157488505Y-65452394D01*
X157485521Y-65451004D01*
X157462679Y-65457190D01*
X157420018Y-65487035D01*
X157355872Y-65541947D01*
X157268579Y-65623334D01*
X157179465Y-65709922D01*
X157093559Y-65795247D01*
X157016673Y-65873108D01*
X156953436Y-65938697D01*
X156908477Y-65987205D01*
X156886424Y-66013825D01*
X156885604Y-66015195D01*
X156883166Y-66033463D01*
X156892350Y-66063295D01*
X156915426Y-66108721D01*
X156954663Y-66173770D01*
X157012330Y-66262470D01*
X157089205Y-66376657D01*
X157157430Y-66477162D01*
X157218418Y-66567303D01*
X157268644Y-66641849D01*
X157304584Y-66695565D01*
X157322713Y-66723218D01*
X157323854Y-66725095D01*
X157321641Y-66751590D01*
X157304862Y-66803086D01*
X157276858Y-66869851D01*
X157266878Y-66891172D01*
X157223328Y-66986159D01*
X157176866Y-67093937D01*
X157139123Y-67187192D01*
X157111927Y-67256406D01*
X157090325Y-67309006D01*
X157077842Y-67336497D01*
X157076291Y-67338616D01*
X157053332Y-67342124D01*
X156999214Y-67351738D01*
X156921132Y-67366089D01*
X156826281Y-67383807D01*
X156721857Y-67403525D01*
X156615056Y-67423874D01*
X156513074Y-67443486D01*
X156423106Y-67460991D01*
X156352347Y-67475022D01*
X156307994Y-67484209D01*
X156297115Y-67486807D01*
X156285878Y-67493218D01*
X156277395Y-67507697D01*
X156271286Y-67535133D01*
X156267168Y-67580411D01*
X156264659Y-67648420D01*
X156263379Y-67744047D01*
X156262946Y-67872180D01*
X156262923Y-67924701D01*
X156262923Y-68351845D01*
X156365500Y-68372091D01*
X156422569Y-68383070D01*
X156507731Y-68399095D01*
X156610628Y-68418233D01*
X156720904Y-68438551D01*
X156751385Y-68444132D01*
X156853145Y-68463917D01*
X156941795Y-68483373D01*
X157009892Y-68500697D01*
X157049996Y-68514088D01*
X157056677Y-68518079D01*
X157073081Y-68546342D01*
X157096601Y-68601109D01*
X157122684Y-68671588D01*
X157127858Y-68686769D01*
X157162044Y-68780896D01*
X157204477Y-68887101D01*
X157246003Y-68982473D01*
X157246208Y-68982916D01*
X157315360Y-69132525D01*
X156860488Y-69801617D01*
X157152500Y-70094116D01*
X157240820Y-70181170D01*
X157321375Y-70257909D01*
X157389640Y-70320237D01*
X157441092Y-70364056D01*
X157471206Y-70385270D01*
X157475526Y-70386616D01*
X157500889Y-70376016D01*
X157552642Y-70346547D01*
X157625132Y-70301705D01*
X157712706Y-70244984D01*
X157807388Y-70181462D01*
X157903484Y-70116668D01*
X157989163Y-70060287D01*
X158058984Y-70015788D01*
X158107506Y-69986639D01*
X158129218Y-69976308D01*
X158155707Y-69985050D01*
X158205938Y-70008087D01*
X158269549Y-70040631D01*
X158276292Y-70044249D01*
X158361954Y-70087210D01*
X158420694Y-70108279D01*
X158457228Y-70108503D01*
X158476269Y-70088928D01*
X158476380Y-70088654D01*
X158485898Y-70065472D01*
X158508597Y-70010441D01*
X158542718Y-69927822D01*
X158586500Y-69821872D01*
X158638184Y-69696852D01*
X158696008Y-69557020D01*
X158752009Y-69421637D01*
X158813553Y-69272234D01*
X158870061Y-69133832D01*
X158919839Y-69010673D01*
X158961194Y-68907002D01*
X158992432Y-68827059D01*
X159011859Y-68775088D01*
X159017846Y-68755692D01*
X159002832Y-68733443D01*
X158963561Y-68697982D01*
X158911193Y-68658887D01*
X158762059Y-68535245D01*
X158645489Y-68393522D01*
X158562882Y-68236704D01*
X158515634Y-68067775D01*
X158505143Y-67889722D01*
X158512769Y-67807539D01*
X158554318Y-67637031D01*
X158625877Y-67486459D01*
X158723005Y-67357309D01*
X158841266Y-67251064D01*
X158976220Y-67169210D01*
X159123429Y-67113232D01*
X159278456Y-67084615D01*
X159436861Y-67084844D01*
X159594206Y-67115405D01*
X159746054Y-67177782D01*
X159887965Y-67273460D01*
X159947197Y-67327572D01*
X160060797Y-67466520D01*
X160139894Y-67618361D01*
X160185014Y-67778667D01*
X160196684Y-67943012D01*
X160175431Y-68106971D01*
X160121780Y-68266118D01*
X160036260Y-68416025D01*
X159919395Y-68552267D01*
X159788807Y-68658887D01*
X159734412Y-68699642D01*
X159695986Y-68734718D01*
X159682154Y-68755726D01*
X159689397Y-68778635D01*
X159709995Y-68833365D01*
X159742254Y-68915672D01*
X159784479Y-69021315D01*
X159834977Y-69146050D01*
X159892052Y-69285636D01*
X159948146Y-69421670D01*
X160010033Y-69571201D01*
X160067356Y-69709767D01*
X160118356Y-69833107D01*
X160161273Y-69936964D01*
X160194347Y-70017080D01*
X160215819Y-70069195D01*
X160223775Y-70088654D01*
X160242571Y-70108423D01*
X160278926Y-70108365D01*
X160337521Y-70087441D01*
X160423032Y-70044613D01*
X160423708Y-70044249D01*
X160488093Y-70011012D01*
X160540139Y-69986802D01*
X160569488Y-69976404D01*
X160570783Y-69976308D01*
X160592876Y-69986855D01*
X160641652Y-70016184D01*
X160711669Y-70060827D01*
X160797486Y-70117314D01*
X160892612Y-70181462D01*
X160989460Y-70246411D01*
X161076747Y-70302896D01*
X161148819Y-70347421D01*
X161200023Y-70376490D01*
X161224474Y-70386616D01*
X161246990Y-70373307D01*
X161292258Y-70336112D01*
X161355756Y-70279128D01*
X161432961Y-70206449D01*
X161519349Y-70122171D01*
X161547601Y-70094016D01*
X161839713Y-69801416D01*
X161617369Y-69475104D01*
X161549798Y-69374897D01*
X161490493Y-69284963D01*
X161442783Y-69210510D01*
X161409993Y-69156751D01*
X161395452Y-69128894D01*
X161395026Y-69126912D01*
X161402692Y-69100655D01*
X161423311Y-69047837D01*
X161453315Y-68977310D01*
X161474375Y-68930093D01*
X161513752Y-68839694D01*
X161550835Y-68748366D01*
X161579585Y-68671200D01*
X161587395Y-68647692D01*
X161609583Y-68584916D01*
X161631273Y-68536411D01*
X161643187Y-68518079D01*
X161669477Y-68506859D01*
X161726858Y-68490954D01*
X161807882Y-68472167D01*
X161905105Y-68452299D01*
X161948615Y-68444132D01*
X162059104Y-68423829D01*
X162165084Y-68404170D01*
X162256199Y-68387088D01*
X162322092Y-68374518D01*
X162334500Y-68372091D01*
X162437077Y-68351845D01*
X162437077Y-67924701D01*
X162436847Y-67784246D01*
X162435901Y-67677979D01*
X162433859Y-67601013D01*
X162430338Y-67548460D01*
X162424957Y-67515433D01*
X162417334Y-67497045D01*
X162407088Y-67488408D01*
X162402885Y-67486807D01*
X162377530Y-67481127D01*
X162321516Y-67469795D01*
X162242036Y-67454179D01*
X162146288Y-67435647D01*
X162041467Y-67415569D01*
X161934768Y-67395312D01*
X161833387Y-67376246D01*
X161744521Y-67359739D01*
X161675363Y-67347159D01*
X161633111Y-67339875D01*
X161623710Y-67338616D01*
X161615193Y-67321763D01*
X161596340Y-67276870D01*
X161570676Y-67212430D01*
X161560877Y-67187192D01*
X161521352Y-67089686D01*
X161474808Y-66981959D01*
X161433123Y-66891172D01*
X161402450Y-66821753D01*
X161382044Y-66764710D01*
X161375232Y-66729777D01*
X161376318Y-66725095D01*
X161390715Y-66702991D01*
X161423588Y-66653831D01*
X161471410Y-66582848D01*
X161530652Y-66495278D01*
X161597785Y-66396357D01*
X161611059Y-66376830D01*
X161688954Y-66261140D01*
X161746213Y-66173044D01*
X161785119Y-66108486D01*
X161807956Y-66063411D01*
X161817006Y-66033763D01*
X161814552Y-66015485D01*
X161814489Y-66015369D01*
X161795173Y-65991361D01*
X161752449Y-65944947D01*
X161690949Y-65880937D01*
X161615302Y-65804145D01*
X161530139Y-65719382D01*
X161520535Y-65709922D01*
X161413210Y-65605989D01*
X161330385Y-65529675D01*
X161270395Y-65479571D01*
X161231577Y-65454270D01*
X161214480Y-65451004D01*
X161189527Y-65465250D01*
X161137745Y-65498156D01*
X161064480Y-65546208D01*
X160975080Y-65605890D01*
X160874889Y-65673688D01*
X160851499Y-65689639D01*
X160519407Y-65916420D01*
X160369435Y-65848353D01*
X160278230Y-65808685D01*
X160180331Y-65768791D01*
X160096169Y-65736983D01*
X160092462Y-65735674D01*
X160026631Y-65711576D01*
X159975884Y-65691200D01*
X159951158Y-65678936D01*
X159951116Y-65678901D01*
X159943271Y-65656734D01*
X159929934Y-65602217D01*
X159912430Y-65521480D01*
X159892083Y-65420650D01*
X159870218Y-65305856D01*
X159868429Y-65296178D01*
X159846496Y-65177904D01*
X159826360Y-65070542D01*
X159809320Y-64980917D01*
X159796672Y-64915851D01*
X159789716Y-64882168D01*
X159789594Y-64881654D01*
X159785361Y-64867325D01*
X159777129Y-64856507D01*
X159759967Y-64848706D01*
X159728942Y-64843429D01*
X159679122Y-64840182D01*
X159605576Y-64838472D01*
X159503371Y-64837807D01*
X159367575Y-64837693D01*
X159350000Y-64837692D01*
X159210122Y-64837776D01*
D11*
%TO.C,U2*%
X96992241Y-68532296D02*
X97133670Y-68525132D01*
X97133670Y-68525132D02*
X97271123Y-68504105D01*
X97271123Y-68504105D02*
X97403888Y-68469913D01*
X97403888Y-68469913D02*
X97531255Y-68423252D01*
X97531255Y-68423252D02*
X97652515Y-68364819D01*
X97652515Y-68364819D02*
X97766956Y-68295311D01*
X97766956Y-68295311D02*
X97873869Y-68215424D01*
X97873869Y-68215424D02*
X97972543Y-68125857D01*
X97972543Y-68125857D02*
X98062268Y-68027305D01*
X98062268Y-68027305D02*
X98142335Y-67920465D01*
X98142335Y-67920465D02*
X98212031Y-67806035D01*
X98212031Y-67806035D02*
X98270649Y-67684712D01*
X98270649Y-67684712D02*
X98317476Y-67557191D01*
X98317476Y-67557191D02*
X98351804Y-67424171D01*
X98351804Y-67424171D02*
X98372922Y-67286348D01*
X98372922Y-67286348D02*
X98380119Y-67144419D01*
X98380119Y-65029270D02*
X97522544Y-64692907D01*
X97955877Y-62659576D02*
X98073588Y-62707871D01*
X98073588Y-62707871D02*
X98185635Y-62764973D01*
X98185635Y-62764973D02*
X98291751Y-62830456D01*
X98291751Y-62830456D02*
X98391671Y-62903893D01*
X98391671Y-62903893D02*
X98485128Y-62984859D01*
X98485128Y-62984859D02*
X98571856Y-63072927D01*
X98571856Y-63072927D02*
X98651587Y-63167671D01*
X98651587Y-63167671D02*
X98724057Y-63268666D01*
X98724057Y-63268666D02*
X98788998Y-63375484D01*
X98788998Y-63375484D02*
X98846145Y-63487699D01*
X98846145Y-63487699D02*
X98895231Y-63604887D01*
X98895231Y-63604887D02*
X98935989Y-63726620D01*
X98935989Y-63726620D02*
X98968153Y-63852472D01*
X98968153Y-63852472D02*
X98991457Y-63982017D01*
X98991457Y-63982017D02*
X99005635Y-64114829D01*
X99005635Y-64114829D02*
X99010421Y-64250483D01*
X96698302Y-62198970D02*
X97955877Y-62659576D01*
X96268000Y-62926242D02*
X96268000Y-62502000D01*
X94283155Y-63183818D02*
X94288377Y-62977690D01*
X94288377Y-62977690D02*
X94303875Y-62774248D01*
X94303875Y-62774248D02*
X94329394Y-62573744D01*
X94329394Y-62573744D02*
X94364683Y-62376432D01*
X94364683Y-62376432D02*
X94409485Y-62182565D01*
X94409485Y-62182565D02*
X94463550Y-61992395D01*
X94463550Y-61992395D02*
X94526622Y-61806176D01*
X94526622Y-61806176D02*
X94598447Y-61624160D01*
X94598447Y-61624160D02*
X94678774Y-61446601D01*
X94678774Y-61446601D02*
X94767347Y-61273752D01*
X94767347Y-61273752D02*
X94863914Y-61105866D01*
X94863914Y-61105866D02*
X94968221Y-60943195D01*
X94968221Y-60943195D02*
X95080014Y-60785993D01*
X95080014Y-60785993D02*
X95199039Y-60634513D01*
X95199039Y-60634513D02*
X95325044Y-60489007D01*
X95325044Y-60489007D02*
X95457774Y-60349730D01*
X95457774Y-60349730D02*
X95596976Y-60216933D01*
X95596976Y-60216933D02*
X95742396Y-60090870D01*
X95742396Y-60090870D02*
X95893781Y-59971794D01*
X95893781Y-59971794D02*
X96050878Y-59859958D01*
X96050878Y-59859958D02*
X96213432Y-59755614D01*
X96213432Y-59755614D02*
X96381190Y-59659017D01*
X96381190Y-59659017D02*
X96553898Y-59570419D01*
X96553898Y-59570419D02*
X96731304Y-59490072D01*
X96731304Y-59490072D02*
X96913153Y-59418230D01*
X96913153Y-59418230D02*
X97099192Y-59355147D01*
X97099192Y-59355147D02*
X97289167Y-59301074D01*
X97289167Y-59301074D02*
X97482824Y-59256265D01*
X97482824Y-59256265D02*
X97679911Y-59220974D01*
X97679911Y-59220974D02*
X97880173Y-59195452D01*
X97880173Y-59195452D02*
X98083357Y-59179954D01*
X98083357Y-59179954D02*
X98289210Y-59174732D01*
X94283155Y-67247449D02*
X94283155Y-63183818D01*
X94604366Y-67568661D02*
X94493366Y-67548985D01*
X94493366Y-67548985D02*
X94399469Y-67494781D01*
X94399469Y-67494781D02*
X94329334Y-67413279D01*
X94329334Y-67413279D02*
X94289623Y-67311712D01*
X94289623Y-67311712D02*
X94283155Y-67247449D01*
X94925577Y-67247449D02*
X94905901Y-67358448D01*
X94905901Y-67358448D02*
X94851697Y-67452345D01*
X94851697Y-67452345D02*
X94770195Y-67522480D01*
X94770195Y-67522480D02*
X94668629Y-67562192D01*
X94668629Y-67562192D02*
X94604366Y-67568661D01*
X94925577Y-63183818D02*
X94925577Y-67247449D01*
X98289210Y-59820185D02*
X98116394Y-59824570D01*
X98116394Y-59824570D02*
X97945815Y-59837585D01*
X97945815Y-59837585D02*
X97777686Y-59859016D01*
X97777686Y-59859016D02*
X97612221Y-59888650D01*
X97612221Y-59888650D02*
X97449633Y-59926275D01*
X97449633Y-59926275D02*
X97290134Y-59971676D01*
X97290134Y-59971676D02*
X97133937Y-60024641D01*
X97133937Y-60024641D02*
X96981256Y-60084957D01*
X96981256Y-60084957D02*
X96832304Y-60152411D01*
X96832304Y-60152411D02*
X96687293Y-60226789D01*
X96687293Y-60226789D02*
X96546438Y-60307879D01*
X96546438Y-60307879D02*
X96409950Y-60395468D01*
X96409950Y-60395468D02*
X96278043Y-60489342D01*
X96278043Y-60489342D02*
X96150930Y-60589289D01*
X96150930Y-60589289D02*
X96028825Y-60695095D01*
X96028825Y-60695095D02*
X95911939Y-60806547D01*
X95911939Y-60806547D02*
X95800487Y-60923433D01*
X95800487Y-60923433D02*
X95694681Y-61045539D01*
X95694681Y-61045539D02*
X95594734Y-61172651D01*
X95594734Y-61172651D02*
X95500860Y-61304558D01*
X95500860Y-61304558D02*
X95413271Y-61441046D01*
X95413271Y-61441046D02*
X95332181Y-61581902D01*
X95332181Y-61581902D02*
X95257803Y-61726912D01*
X95257803Y-61726912D02*
X95190349Y-61875865D01*
X95190349Y-61875865D02*
X95130033Y-62028545D01*
X95130033Y-62028545D02*
X95077068Y-62184742D01*
X95077068Y-62184742D02*
X95031667Y-62344241D01*
X95031667Y-62344241D02*
X94994042Y-62506830D01*
X94994042Y-62506830D02*
X94964408Y-62672295D01*
X94964408Y-62672295D02*
X94942977Y-62840423D01*
X94942977Y-62840423D02*
X94929962Y-63011002D01*
X94929962Y-63011002D02*
X94925577Y-63183818D01*
X101652842Y-63183818D02*
X101648456Y-63011002D01*
X101648456Y-63011002D02*
X101635441Y-62840423D01*
X101635441Y-62840423D02*
X101614010Y-62672295D01*
X101614010Y-62672295D02*
X101584376Y-62506830D01*
X101584376Y-62506830D02*
X101546751Y-62344241D01*
X101546751Y-62344241D02*
X101501350Y-62184742D01*
X101501350Y-62184742D02*
X101448385Y-62028545D01*
X101448385Y-62028545D02*
X101388069Y-61875865D01*
X101388069Y-61875865D02*
X101320615Y-61726912D01*
X101320615Y-61726912D02*
X101246237Y-61581902D01*
X101246237Y-61581902D02*
X101165147Y-61441046D01*
X101165147Y-61441046D02*
X101077558Y-61304558D01*
X101077558Y-61304558D02*
X100983684Y-61172651D01*
X100983684Y-61172651D02*
X100883737Y-61045539D01*
X100883737Y-61045539D02*
X100777931Y-60923433D01*
X100777931Y-60923433D02*
X100666479Y-60806547D01*
X100666479Y-60806547D02*
X100549594Y-60695095D01*
X100549594Y-60695095D02*
X100427488Y-60589289D01*
X100427488Y-60589289D02*
X100300375Y-60489342D01*
X100300375Y-60489342D02*
X100168468Y-60395468D01*
X100168468Y-60395468D02*
X100031981Y-60307879D01*
X100031981Y-60307879D02*
X99891125Y-60226789D01*
X99891125Y-60226789D02*
X99746115Y-60152411D01*
X99746115Y-60152411D02*
X99597162Y-60084957D01*
X99597162Y-60084957D02*
X99444481Y-60024641D01*
X99444481Y-60024641D02*
X99288285Y-59971676D01*
X99288285Y-59971676D02*
X99128786Y-59926275D01*
X99128786Y-59926275D02*
X98966197Y-59888650D01*
X98966197Y-59888650D02*
X98800732Y-59859016D01*
X98800732Y-59859016D02*
X98632604Y-59837585D01*
X98632604Y-59837585D02*
X98462025Y-59824570D01*
X98462025Y-59824570D02*
X98289210Y-59820185D01*
X101652842Y-67244419D02*
X101652842Y-63183818D01*
X101974054Y-67565631D02*
X101863054Y-67545955D01*
X101863054Y-67545955D02*
X101769157Y-67491750D01*
X101769157Y-67491750D02*
X101699022Y-67410249D01*
X101699022Y-67410249D02*
X101659310Y-67308682D01*
X101659310Y-67308682D02*
X101652842Y-67244419D01*
X102295265Y-67244419D02*
X102275589Y-67355418D01*
X102275589Y-67355418D02*
X102221385Y-67449315D01*
X102221385Y-67449315D02*
X102139883Y-67519450D01*
X102139883Y-67519450D02*
X102038317Y-67559162D01*
X102038317Y-67559162D02*
X101974054Y-67565631D01*
X102295265Y-63180787D02*
X102295265Y-67244419D01*
X98289210Y-59174732D02*
X98495062Y-59179954D01*
X98495062Y-59179954D02*
X98698246Y-59195452D01*
X98698246Y-59195452D02*
X98898508Y-59220971D01*
X98898508Y-59220971D02*
X99095595Y-59256260D01*
X99095595Y-59256260D02*
X99289252Y-59301063D01*
X99289252Y-59301063D02*
X99479227Y-59355127D01*
X99479227Y-59355127D02*
X99665266Y-59418199D01*
X99665266Y-59418199D02*
X99847115Y-59490025D01*
X99847115Y-59490025D02*
X100024520Y-59570351D01*
X100024520Y-59570351D02*
X100197229Y-59658925D01*
X100197229Y-59658925D02*
X100364987Y-59755491D01*
X100364987Y-59755491D02*
X100527541Y-59859798D01*
X100527541Y-59859798D02*
X100684637Y-59971591D01*
X100684637Y-59971591D02*
X100836023Y-60090616D01*
X100836023Y-60090616D02*
X100981443Y-60216621D01*
X100981443Y-60216621D02*
X101120645Y-60349351D01*
X101120645Y-60349351D02*
X101253375Y-60488553D01*
X101253375Y-60488553D02*
X101379380Y-60633973D01*
X101379380Y-60633973D02*
X101498405Y-60785359D01*
X101498405Y-60785359D02*
X101610198Y-60942455D01*
X101610198Y-60942455D02*
X101714505Y-61105009D01*
X101714505Y-61105009D02*
X101811071Y-61272767D01*
X101811071Y-61272767D02*
X101899645Y-61445476D01*
X101899645Y-61445476D02*
X101979971Y-61622881D01*
X101979971Y-61622881D02*
X102051797Y-61804730D01*
X102051797Y-61804730D02*
X102114869Y-61990769D01*
X102114869Y-61990769D02*
X102168933Y-62180744D01*
X102168933Y-62180744D02*
X102213736Y-62374401D01*
X102213736Y-62374401D02*
X102249025Y-62571488D01*
X102249025Y-62571488D02*
X102274544Y-62771750D01*
X102274544Y-62771750D02*
X102290042Y-62974934D01*
X102290042Y-62974934D02*
X102295265Y-63180787D01*
X98374058Y-64341392D02*
X98371028Y-64256544D01*
X97752847Y-64095938D02*
X98374058Y-64341392D01*
X99010421Y-64250483D02*
X99019512Y-64808058D01*
X98371028Y-64256544D02*
X98364568Y-64128286D01*
X98364568Y-64128286D02*
X98345559Y-64004877D01*
X98345559Y-64004877D02*
X98314555Y-63887171D01*
X98314555Y-63887171D02*
X98272111Y-63776022D01*
X98272111Y-63776022D02*
X98218779Y-63672284D01*
X98218779Y-63672284D02*
X98155116Y-63576810D01*
X98155116Y-63576810D02*
X98081675Y-63490455D01*
X98081675Y-63490455D02*
X97999011Y-63414073D01*
X97999011Y-63414073D02*
X97907677Y-63348517D01*
X97907677Y-63348517D02*
X97808228Y-63294642D01*
X97808228Y-63294642D02*
X97737695Y-63265636D01*
X99019512Y-67141389D02*
X99026675Y-67283352D01*
X99026675Y-67283352D02*
X99047702Y-67421271D01*
X99047702Y-67421271D02*
X99081894Y-67554440D01*
X99081894Y-67554440D02*
X99128555Y-67682155D01*
X99128555Y-67682155D02*
X99186988Y-67803708D01*
X99186988Y-67803708D02*
X99256496Y-67918393D01*
X99256496Y-67918393D02*
X99336383Y-68025507D01*
X99336383Y-68025507D02*
X99425950Y-68124341D01*
X99425950Y-68124341D02*
X99524502Y-68214192D01*
X99524502Y-68214192D02*
X99631342Y-68294352D01*
X99631342Y-68294352D02*
X99745772Y-68364116D01*
X99745772Y-68364116D02*
X99867096Y-68422779D01*
X99867096Y-68422779D02*
X99994616Y-68469634D01*
X99994616Y-68469634D02*
X100127636Y-68503975D01*
X100127636Y-68503975D02*
X100265459Y-68525098D01*
X100265459Y-68525098D02*
X100407389Y-68532296D01*
X99019512Y-64811089D02*
X99019512Y-67141389D01*
X100398298Y-69174720D02*
X100266348Y-69169863D01*
X100266348Y-69169863D02*
X100136591Y-69156608D01*
X100136591Y-69156608D02*
X100009302Y-69135222D01*
X100009302Y-69135222D02*
X99884756Y-69105969D01*
X99884756Y-69105969D02*
X99763229Y-69069117D01*
X99763229Y-69069117D02*
X99644996Y-69024932D01*
X99644996Y-69024932D02*
X99530331Y-68973680D01*
X99530331Y-68973680D02*
X99419511Y-68915628D01*
X99419511Y-68915628D02*
X99312810Y-68851042D01*
X99312810Y-68851042D02*
X99210503Y-68780188D01*
X99210503Y-68780188D02*
X99112866Y-68703333D01*
X99112866Y-68703333D02*
X99020174Y-68620742D01*
X99020174Y-68620742D02*
X98932703Y-68532683D01*
X98932703Y-68532683D02*
X98850726Y-68439421D01*
X98850726Y-68439421D02*
X98774520Y-68341224D01*
X98774520Y-68341224D02*
X98704361Y-68238357D01*
X101974054Y-69174720D02*
X100410419Y-69174720D01*
X102295265Y-68853508D02*
X102275589Y-68964507D01*
X102275589Y-68964507D02*
X102221385Y-69058404D01*
X102221385Y-69058404D02*
X102139883Y-69128539D01*
X102139883Y-69128539D02*
X102038317Y-69168251D01*
X102038317Y-69168251D02*
X101974054Y-69174720D01*
X101974054Y-68532296D02*
X102085052Y-68551971D01*
X102085052Y-68551971D02*
X102178950Y-68606176D01*
X102178950Y-68606176D02*
X102249084Y-68687677D01*
X102249084Y-68687677D02*
X102288796Y-68789244D01*
X102288796Y-68789244D02*
X102295265Y-68853508D01*
X100419510Y-68532296D02*
X101974054Y-68532296D01*
X96998302Y-69174720D02*
X94607396Y-69174720D01*
X98704361Y-68238357D02*
X98633632Y-68341257D01*
X98633632Y-68341257D02*
X98556852Y-68439546D01*
X98556852Y-68439546D02*
X98474294Y-68532943D01*
X98474294Y-68532943D02*
X98386226Y-68621168D01*
X98386226Y-68621168D02*
X98292921Y-68703943D01*
X98292921Y-68703943D02*
X98194649Y-68780987D01*
X98194649Y-68780987D02*
X98091680Y-68852021D01*
X98091680Y-68852021D02*
X97984285Y-68916765D01*
X97984285Y-68916765D02*
X97872736Y-68974939D01*
X97872736Y-68974939D02*
X97757303Y-69026264D01*
X97757303Y-69026264D02*
X97638256Y-69070460D01*
X97638256Y-69070460D02*
X97515867Y-69107248D01*
X97515867Y-69107248D02*
X97390407Y-69136347D01*
X97390407Y-69136347D02*
X97262145Y-69157479D01*
X97262145Y-69157479D02*
X97131353Y-69170363D01*
X97131353Y-69170363D02*
X96998302Y-69174720D01*
X94286184Y-68853508D02*
X94303934Y-68743722D01*
X94303934Y-68743722D02*
X94356594Y-68649869D01*
X94356594Y-68649869D02*
X94437312Y-68579181D01*
X94437312Y-68579181D02*
X94539238Y-68538889D01*
X94539238Y-68538889D02*
X94604366Y-68532296D01*
X94607396Y-69174720D02*
X94496397Y-69155044D01*
X94496397Y-69155044D02*
X94402499Y-69100839D01*
X94402499Y-69100839D02*
X94332364Y-69019338D01*
X94332364Y-69019338D02*
X94292653Y-68917771D01*
X94292653Y-68917771D02*
X94286184Y-68853508D01*
X98380119Y-67144419D02*
X98380119Y-65029270D01*
X96913454Y-62965636D02*
X96925815Y-63107809D01*
X96925815Y-63107809D02*
X96953856Y-63245534D01*
X96953856Y-63245534D02*
X96996799Y-63377715D01*
X96996799Y-63377715D02*
X97053865Y-63503259D01*
X97053865Y-63503259D02*
X97124274Y-63621073D01*
X97124274Y-63621073D02*
X97207247Y-63730063D01*
X97207247Y-63730063D02*
X97302006Y-63829136D01*
X97302006Y-63829136D02*
X97407770Y-63917197D01*
X97407770Y-63917197D02*
X97523763Y-63993153D01*
X97523763Y-63993153D02*
X97649203Y-64055911D01*
X97649203Y-64055911D02*
X97737695Y-64089877D01*
X97737695Y-63265636D02*
X96913454Y-62965636D01*
X94604366Y-68532296D02*
X96992241Y-68532296D01*
X97522544Y-64692907D02*
X97384609Y-64639408D01*
X97384609Y-64639408D02*
X97252871Y-64575855D01*
X97252871Y-64575855D02*
X97127702Y-64502776D01*
X97127702Y-64502776D02*
X97009476Y-64420700D01*
X97009476Y-64420700D02*
X96898565Y-64330154D01*
X96898565Y-64330154D02*
X96795343Y-64231667D01*
X96795343Y-64231667D02*
X96700181Y-64125767D01*
X96700181Y-64125767D02*
X96613454Y-64012983D01*
X96613454Y-64012983D02*
X96535533Y-63893841D01*
X96535533Y-63893841D02*
X96466792Y-63768872D01*
X96466792Y-63768872D02*
X96407603Y-63638602D01*
X96407603Y-63638602D02*
X96358340Y-63503561D01*
X96358340Y-63503561D02*
X96319376Y-63364276D01*
X96319376Y-63364276D02*
X96291082Y-63221275D01*
X96291082Y-63221275D02*
X96273832Y-63075088D01*
X96273832Y-63075088D02*
X96268000Y-62926242D01*
X96404363Y-62238364D02*
X96499808Y-62192223D01*
X96499808Y-62192223D02*
X96604249Y-62179786D01*
X96604249Y-62179786D02*
X96698302Y-62198970D01*
X96268000Y-62502000D02*
X96285523Y-62396955D01*
X96285523Y-62396955D02*
X96335138Y-62305003D01*
X96335138Y-62305003D02*
X96404363Y-62238364D01*
%TO.C,U1*%
X111695237Y-68418258D02*
X111872754Y-68253573D01*
X109207859Y-66557533D02*
X109207859Y-66557533D01*
X109325491Y-66658055D02*
X109228949Y-66620472D01*
X109228949Y-66620472D02*
X109207859Y-66557533D01*
X109440984Y-66658055D02*
X109325491Y-66658055D01*
X109440984Y-66461289D02*
X109440984Y-66658055D01*
X109325491Y-66461289D02*
X109440984Y-66461289D01*
X109207859Y-66557533D02*
X109262001Y-66473159D01*
X109262001Y-66473159D02*
X109325491Y-66461289D01*
X109443123Y-66121225D02*
X109443123Y-66119087D01*
X109355434Y-66121225D02*
X109443123Y-66121225D01*
X109248496Y-66208915D02*
X109311656Y-66126805D01*
X109311656Y-66126805D02*
X109355434Y-66121225D01*
X109355434Y-66298743D02*
X109262790Y-66260057D01*
X109262790Y-66260057D02*
X109248496Y-66208915D01*
X109443123Y-66298743D02*
X109355434Y-66298743D01*
X109443123Y-66119087D02*
X109443123Y-66298743D01*
X108923404Y-66611002D02*
X108923404Y-66611002D01*
X109115893Y-66397126D02*
X109016280Y-66430188D01*
X109016280Y-66430188D02*
X108947144Y-66503346D01*
X108947144Y-66503346D02*
X108923404Y-66611002D01*
X108968318Y-66181111D02*
X108986815Y-66286867D01*
X108986815Y-66286867D02*
X109047719Y-66366682D01*
X109047719Y-66366682D02*
X109115893Y-66397126D01*
X109248496Y-65941569D02*
X109137897Y-65954870D01*
X109137897Y-65954870D02*
X109045976Y-65999945D01*
X109045976Y-65999945D02*
X108985327Y-66083229D01*
X108985327Y-66083229D02*
X108968318Y-66181111D01*
X109710469Y-65941569D02*
X109248496Y-65941569D01*
X109710469Y-66835572D02*
X109710469Y-65941569D01*
X109237802Y-66835572D02*
X109710469Y-66835572D01*
X108923404Y-66611002D02*
X108945159Y-66711056D01*
X108945159Y-66711056D02*
X109018077Y-66787725D01*
X109018077Y-66787725D02*
X109121294Y-66825305D01*
X109121294Y-66825305D02*
X109237802Y-66835572D01*
X112433113Y-66833433D02*
X112433113Y-65939431D01*
X111797900Y-66833433D02*
X112433113Y-66833433D01*
X111797900Y-66619557D02*
X111797900Y-66833433D01*
X112167906Y-66619557D02*
X111797900Y-66619557D01*
X112167906Y-65939431D02*
X112167906Y-66619557D01*
X112433113Y-65939431D02*
X112167906Y-65939431D01*
X112206404Y-64786638D02*
X112009638Y-64786638D01*
X112110159Y-64444436D02*
X112206404Y-64786638D01*
X112108021Y-64444436D02*
X112110159Y-64444436D01*
X112009638Y-64786638D02*
X112108021Y-64444436D01*
X111900561Y-65163060D02*
X111951891Y-64985543D01*
X111639633Y-65163060D02*
X111900561Y-65163060D01*
X111954030Y-64269059D02*
X111639633Y-65163060D01*
X112262012Y-64269059D02*
X111954030Y-64269059D01*
X112576410Y-65163060D02*
X112262012Y-64269059D01*
X112315481Y-65163060D02*
X112576410Y-65163060D01*
X112264150Y-64985543D02*
X112315481Y-65163060D01*
X111951891Y-64985543D02*
X112264150Y-64985543D01*
X110587361Y-64885021D02*
X110587361Y-64885021D01*
X110704993Y-64985543D02*
X110608451Y-64947960D01*
X110608451Y-64947960D02*
X110587361Y-64885021D01*
X110820486Y-64985543D02*
X110704993Y-64985543D01*
X110820486Y-64788777D02*
X110820486Y-64985543D01*
X110704993Y-64788777D02*
X110820486Y-64788777D01*
X110587361Y-64885021D02*
X110641503Y-64800647D01*
X110641503Y-64800647D02*
X110704993Y-64788777D01*
X110822625Y-64448714D02*
X110822625Y-64446575D01*
X110734936Y-64448714D02*
X110822625Y-64448714D01*
X110627997Y-64536403D02*
X110691158Y-64454294D01*
X110691158Y-64454294D02*
X110734936Y-64448714D01*
X110734936Y-64626231D02*
X110642291Y-64587545D01*
X110642291Y-64587545D02*
X110627997Y-64536403D01*
X110822625Y-64626231D02*
X110734936Y-64626231D01*
X110822625Y-64446575D02*
X110822625Y-64626231D01*
X110302906Y-64938490D02*
X110302906Y-64938490D01*
X110495394Y-64724614D02*
X110395782Y-64757676D01*
X110395782Y-64757676D02*
X110326646Y-64830834D01*
X110326646Y-64830834D02*
X110302906Y-64938490D01*
X110347820Y-64508599D02*
X110366316Y-64614355D01*
X110366316Y-64614355D02*
X110427221Y-64694170D01*
X110427221Y-64694170D02*
X110495394Y-64724614D01*
X110627997Y-64269059D02*
X110517398Y-64282360D01*
X110517398Y-64282360D02*
X110425478Y-64327434D01*
X110425478Y-64327434D02*
X110364829Y-64410717D01*
X110364829Y-64410717D02*
X110347820Y-64508599D01*
X111089970Y-64269059D02*
X110627997Y-64269059D01*
X111089970Y-65163060D02*
X111089970Y-64269059D01*
X110617304Y-65163060D02*
X111089970Y-65163060D01*
X110302906Y-64938490D02*
X110324661Y-65038544D01*
X110324661Y-65038544D02*
X110397579Y-65115213D01*
X110397579Y-65115213D02*
X110500795Y-65152793D01*
X110500795Y-65152793D02*
X110617304Y-65163060D01*
X113177400Y-64446574D02*
X113553822Y-64446574D01*
X113177400Y-64269057D02*
X113177400Y-64446574D01*
X113814752Y-64269057D02*
X113177400Y-64269057D01*
X113814752Y-65163060D02*
X113814752Y-64269057D01*
X113553822Y-65163060D02*
X113814752Y-65163060D01*
X113553822Y-64820858D02*
X113553822Y-65163060D01*
X113230869Y-64820858D02*
X113553822Y-64820858D01*
X112525077Y-68135941D02*
X112510345Y-68248202D01*
X112510345Y-68248202D02*
X112468631Y-68350047D01*
X112468631Y-68350047D02*
X112403655Y-68437949D01*
X112403655Y-68437949D02*
X112319137Y-68508386D01*
X112319137Y-68508386D02*
X112218798Y-68557832D01*
X112218798Y-68557832D02*
X112106357Y-68582762D01*
X112106357Y-68582762D02*
X112058827Y-68585081D01*
X112058827Y-67686801D02*
X112175779Y-67700938D01*
X112175779Y-67700938D02*
X112281639Y-67741000D01*
X112281639Y-67741000D02*
X112372833Y-67803464D01*
X112372833Y-67803464D02*
X112445788Y-67884803D01*
X112445788Y-67884803D02*
X112496929Y-67981494D01*
X112496929Y-67981494D02*
X112522683Y-68090011D01*
X112522683Y-68090011D02*
X112525077Y-68135941D01*
X111693098Y-67855763D02*
X111765582Y-67786052D01*
X111765582Y-67786052D02*
X111852703Y-67732784D01*
X111852703Y-67732784D02*
X111951454Y-67698764D01*
X111951454Y-67698764D02*
X112058827Y-67686801D01*
X113310005Y-68304902D02*
X113310005Y-68304902D01*
X113427637Y-68405423D02*
X113331095Y-68367841D01*
X113331095Y-68367841D02*
X113310005Y-68304902D01*
X113543130Y-68405423D02*
X113427637Y-68405423D01*
X113543130Y-68208657D02*
X113543130Y-68405423D01*
X113427637Y-68208657D02*
X113543130Y-68208657D01*
X113310005Y-68304902D02*
X113364147Y-68220527D01*
X113364147Y-68220527D02*
X113427637Y-68208657D01*
X113545269Y-67868594D02*
X113545269Y-67866455D01*
X113457580Y-67868594D02*
X113545269Y-67868594D01*
X113350641Y-67956283D02*
X113413802Y-67874174D01*
X113413802Y-67874174D02*
X113457580Y-67868594D01*
X113457580Y-68046111D02*
X113364935Y-68007425D01*
X113364935Y-68007425D02*
X113350641Y-67956283D01*
X113545269Y-68046111D02*
X113457580Y-68046111D01*
X113545269Y-67866455D02*
X113545269Y-68046111D01*
X113025550Y-68356232D02*
X113025550Y-68356232D01*
X113218038Y-68142356D02*
X113119373Y-68175849D01*
X113119373Y-68175849D02*
X113049787Y-68249526D01*
X113049787Y-68249526D02*
X113025550Y-68356232D01*
X113070464Y-67926341D02*
X113088960Y-68032096D01*
X113088960Y-68032096D02*
X113149865Y-68111911D01*
X113149865Y-68111911D02*
X113218038Y-68142356D01*
X113350641Y-67686799D02*
X113240042Y-67700100D01*
X113240042Y-67700100D02*
X113148122Y-67745175D01*
X113148122Y-67745175D02*
X113087473Y-67828459D01*
X113087473Y-67828459D02*
X113070464Y-67926341D01*
X113812614Y-67686799D02*
X113350641Y-67686799D01*
X113812614Y-68580802D02*
X113812614Y-67686799D01*
X113339948Y-68580802D02*
X113812614Y-68580802D01*
X113025550Y-68356232D02*
X113047305Y-68456286D01*
X113047305Y-68456286D02*
X113120223Y-68532955D01*
X113120223Y-68532955D02*
X113223439Y-68570535D01*
X113223439Y-68570535D02*
X113339948Y-68580802D01*
X111094248Y-68585079D02*
X111094248Y-67682522D01*
X110861122Y-68585079D02*
X111094248Y-68585079D01*
X110861122Y-68150911D02*
X110861122Y-68585079D01*
X110861122Y-68031140D02*
X110861122Y-68150911D01*
X110858984Y-68031140D02*
X110861122Y-68031140D01*
X110809792Y-68140217D02*
X110851939Y-68049026D01*
X110851939Y-68049026D02*
X110858984Y-68031140D01*
X110568112Y-68585079D02*
X110809792Y-68140217D01*
X110307183Y-68585079D02*
X110568112Y-68585079D01*
X110307183Y-67682522D02*
X110307183Y-68585079D01*
X110540308Y-67682522D02*
X110307183Y-67682522D01*
X110540308Y-68123107D02*
X110540308Y-67682522D01*
X110540308Y-68236461D02*
X110540308Y-68123107D01*
X110542447Y-68236461D02*
X110540308Y-68236461D01*
X110593777Y-68118829D02*
X110551105Y-68213025D01*
X110551105Y-68213025D02*
X110542447Y-68236461D01*
X110820486Y-67682522D02*
X110593777Y-68118829D01*
X111094248Y-67682522D02*
X110820486Y-67682522D01*
X110826902Y-66459150D02*
X110630136Y-66459150D01*
X110730658Y-66116948D02*
X110826902Y-66459150D01*
X110728519Y-66116948D02*
X110730658Y-66116948D01*
X110630136Y-66459150D02*
X110728519Y-66116948D01*
X110521059Y-66835572D02*
X110572390Y-66658055D01*
X110260130Y-66835572D02*
X110521059Y-66835572D01*
X110574528Y-65941569D02*
X110260130Y-66835572D01*
X110882510Y-65941569D02*
X110574528Y-65941569D01*
X111196908Y-66835572D02*
X110882510Y-65941569D01*
X110935979Y-66835572D02*
X111196908Y-66835572D01*
X110884649Y-66658055D02*
X110935979Y-66835572D01*
X110572390Y-66658055D02*
X110884649Y-66658055D01*
X109517976Y-65569425D02*
X109517976Y-63860553D01*
X113256534Y-65569425D02*
X113256534Y-67280436D01*
X114633898Y-65569425D02*
X113256534Y-65569425D01*
X114633898Y-63860553D02*
X114633898Y-65569425D01*
X109517976Y-63860553D02*
X114633898Y-63860553D01*
X113230869Y-64624092D02*
X113230869Y-64820858D01*
X113553822Y-64624092D02*
X113230869Y-64624092D01*
X113553822Y-64446574D02*
X113553822Y-64624092D01*
X108140612Y-65569425D02*
X109517976Y-65569425D01*
X108140612Y-67280436D02*
X108140612Y-65569425D01*
X109517976Y-67280436D02*
X108140612Y-67280436D01*
X109517976Y-68989308D02*
X109517976Y-67280436D01*
X114633898Y-68989308D02*
X109517976Y-68989308D01*
X114633898Y-67280436D02*
X114633898Y-68989308D01*
X113256534Y-67280436D02*
X114633898Y-67280436D01*
X112058827Y-68349818D02*
X112163940Y-68324401D01*
X112163940Y-68324401D02*
X112241561Y-68256768D01*
X112241561Y-68256768D02*
X112277985Y-68159843D01*
X112277985Y-68159843D02*
X112279120Y-68138080D01*
X112058827Y-68585081D02*
X111951788Y-68573150D01*
X111951788Y-68573150D02*
X111853773Y-68539365D01*
X111853773Y-68539365D02*
X111767387Y-68486731D01*
X111767387Y-68486731D02*
X111695237Y-68418258D01*
X111872754Y-68253573D02*
X111950551Y-68323350D01*
X111950551Y-68323350D02*
X112051440Y-68349705D01*
X112051440Y-68349705D02*
X112058827Y-68349818D01*
X111872754Y-68024725D02*
X111693098Y-67855763D01*
X112058827Y-67926342D02*
X111956575Y-67949956D01*
X111956575Y-67949956D02*
X111876450Y-68019173D01*
X111876450Y-68019173D02*
X111872754Y-68024725D01*
X112279120Y-68138080D02*
X112252581Y-68036846D01*
X112252581Y-68036846D02*
X112182102Y-67962320D01*
X112182102Y-67962320D02*
X112081390Y-67927427D01*
X112081390Y-67927427D02*
X112058827Y-67926342D01*
%TD*%
M02*
