%TF.GenerationSoftware,KiCad,Pcbnew,(5.1.10-1-10_14)*%
%TF.CreationDate,2021-07-05T16:23:29+02:00*%
%TF.ProjectId,cablebot_controller,6361626c-6562-46f7-945f-636f6e74726f,rev?*%
%TF.SameCoordinates,Original*%
%TF.FileFunction,Copper,L1,Top*%
%TF.FilePolarity,Positive*%
%FSLAX46Y46*%
G04 Gerber Fmt 4.6, Leading zero omitted, Abs format (unit mm)*
G04 Created by KiCad (PCBNEW (5.1.10-1-10_14)) date 2021-07-05 16:23:29*
%MOMM*%
%LPD*%
G01*
G04 APERTURE LIST*
%TA.AperFunction,SMDPad,CuDef*%
%ADD10R,1.000000X1.500000*%
%TD*%
%TA.AperFunction,ComponentPad*%
%ADD11C,2.100000*%
%TD*%
%TA.AperFunction,ComponentPad*%
%ADD12C,1.750000*%
%TD*%
%TA.AperFunction,ComponentPad*%
%ADD13C,1.600000*%
%TD*%
%TA.AperFunction,ComponentPad*%
%ADD14R,1.600000X1.600000*%
%TD*%
%TA.AperFunction,ComponentPad*%
%ADD15C,2.200000*%
%TD*%
%TA.AperFunction,ComponentPad*%
%ADD16R,2.200000X2.200000*%
%TD*%
%TA.AperFunction,SMDPad,CuDef*%
%ADD17R,1.270000X1.905000*%
%TD*%
%TA.AperFunction,ComponentPad*%
%ADD18C,1.524000*%
%TD*%
%TA.AperFunction,ViaPad*%
%ADD19C,0.800000*%
%TD*%
%TA.AperFunction,Conductor*%
%ADD20C,0.400000*%
%TD*%
G04 APERTURE END LIST*
D10*
%TO.P,D3,1*%
%TO.N,3V3*%
X159325000Y-59425000D03*
%TO.P,D3,2*%
%TO.N,N/C*%
X162525000Y-59425000D03*
%TO.P,D3,4*%
%TO.N,Net-(D2-Pad2)*%
X159325000Y-54525000D03*
%TO.P,D3,3*%
%TO.N,GND*%
X162525000Y-54525000D03*
%TD*%
%TO.P,D2,1*%
%TO.N,3V3*%
X152587500Y-59425000D03*
%TO.P,D2,2*%
%TO.N,Net-(D2-Pad2)*%
X155787500Y-59425000D03*
%TO.P,D2,4*%
%TO.N,Net-(D1-Pad2)*%
X152587500Y-54525000D03*
%TO.P,D2,3*%
%TO.N,GND*%
X155787500Y-54525000D03*
%TD*%
D11*
%TO.P,SW2,*%
%TO.N,*%
X107978226Y-85210531D03*
D12*
%TO.P,SW2,1*%
%TO.N,RST_BUTTON*%
X106950000Y-87800000D03*
%TO.P,SW2,2*%
%TO.N,GND*%
X102467124Y-88192201D03*
D11*
%TO.P,SW2,*%
%TO.N,*%
X100994901Y-85821492D03*
%TD*%
D13*
%TO.P,A1,17*%
%TO.N,SDA*%
X134100000Y-54070000D03*
%TO.P,A1,18*%
%TO.N,SCL*%
X131560000Y-54070000D03*
%TO.P,A1,19*%
%TO.N,LED_DIN*%
X129020000Y-54070000D03*
%TO.P,A1,20*%
%TO.N,ENDSTOP_FRONT*%
X126480000Y-54070000D03*
%TO.P,A1,21*%
%TO.N,ENDSTOP_BACK*%
X123940000Y-54070000D03*
%TO.P,A1,22*%
%TO.N,TX0*%
X121400000Y-54070000D03*
%TO.P,A1,23*%
%TO.N,RC_STR*%
X118860000Y-54070000D03*
%TO.P,A1,24*%
%TO.N,RX0*%
X116320000Y-54070000D03*
%TO.P,A1,25*%
%TO.N,RC_THROTTLE*%
X113780000Y-54070000D03*
%TO.P,A1,26*%
%TO.N,5V*%
X111240000Y-54070000D03*
%TO.P,A1,27*%
%TO.N,N/C*%
X108700000Y-54070000D03*
%TO.P,A1,28*%
X106160000Y-54070000D03*
D14*
%TO.P,A1,1*%
%TO.N,RST_BUTTON*%
X96000000Y-74390000D03*
D13*
%TO.P,A1,2*%
%TO.N,3V3*%
X98540000Y-74390000D03*
%TO.P,A1,3*%
%TO.N,N/C*%
X101080000Y-74390000D03*
%TO.P,A1,4*%
%TO.N,GND*%
X103620000Y-74390000D03*
%TO.P,A1,5*%
%TO.N,N/C*%
X106160000Y-74390000D03*
%TO.P,A1,6*%
%TO.N,ODRIVE_RST*%
X108700000Y-74390000D03*
%TO.P,A1,7*%
%TO.N,USER_BUTTON*%
X111240000Y-74390000D03*
%TO.P,A1,8*%
%TO.N,CHG_ST_HOME*%
X113780000Y-74390000D03*
%TO.P,A1,9*%
%TO.N,ADNS_MOT*%
X116320000Y-74390000D03*
%TO.P,A1,10*%
%TO.N,ADNS_SS*%
X118860000Y-74390000D03*
%TO.P,A1,11*%
%TO.N,SCK*%
X121400000Y-74390000D03*
%TO.P,A1,12*%
%TO.N,MOSI*%
X123940000Y-74390000D03*
%TO.P,A1,13*%
%TO.N,MISO*%
X126480000Y-74390000D03*
%TO.P,A1,14*%
%TO.N,RX1*%
X129020000Y-74390000D03*
%TO.P,A1,15*%
%TO.N,TX1*%
X131560000Y-74390000D03*
%TO.P,A1,16*%
%TO.N,GND*%
X134100000Y-74390000D03*
%TD*%
D15*
%TO.P,J5,5*%
%TO.N,GND*%
X172400000Y-68940000D03*
%TO.P,J5,4*%
%TO.N,MISO*%
X172400000Y-71480000D03*
%TO.P,J5,3*%
%TO.N,MOSI*%
X172400000Y-74020000D03*
%TO.P,J5,2*%
%TO.N,SCK*%
X172400000Y-76560000D03*
D16*
%TO.P,J5,1*%
%TO.N,GND*%
X172400000Y-79100000D03*
%TD*%
D15*
%TO.P,J4,5*%
%TO.N,ENDSTOP_FRONT*%
X172400000Y-54550000D03*
%TO.P,J4,4*%
%TO.N,GND*%
X172400000Y-57090000D03*
%TO.P,J4,3*%
%TO.N,ADNS_SS*%
X172400000Y-59630000D03*
%TO.P,J4,2*%
%TO.N,ADNS_MOT*%
X172400000Y-62170000D03*
D16*
%TO.P,J4,1*%
%TO.N,3V3*%
X172400000Y-64710000D03*
%TD*%
D15*
%TO.P,J3,6*%
%TO.N,CHG_ST_HOME*%
X83650000Y-83950000D03*
%TO.P,J3,5*%
%TO.N,RX1*%
X83650000Y-81410000D03*
%TO.P,J3,4*%
%TO.N,TX1*%
X83650000Y-78870000D03*
%TO.P,J3,3*%
%TO.N,ODRIVE_RST*%
X83650000Y-76330000D03*
%TO.P,J3,2*%
%TO.N,RX0*%
X83650000Y-73790000D03*
D16*
%TO.P,J3,1*%
%TO.N,TX0*%
X83650000Y-71250000D03*
%TD*%
D15*
%TO.P,J2,6*%
%TO.N,GND*%
X83650000Y-67275000D03*
%TO.P,J2,5*%
%TO.N,ENDSTOP_BACK*%
X83650000Y-64735000D03*
%TO.P,J2,4*%
%TO.N,GND*%
X83650000Y-62195000D03*
%TO.P,J2,3*%
%TO.N,RC_THROTTLE*%
X83650000Y-59655000D03*
%TO.P,J2,2*%
%TO.N,RC_STR*%
X83650000Y-57115000D03*
D16*
%TO.P,J2,1*%
%TO.N,5V*%
X83650000Y-54575000D03*
%TD*%
D11*
%TO.P,SW1,*%
%TO.N,*%
X138753226Y-83485531D03*
D12*
%TO.P,SW1,1*%
%TO.N,USER_BUTTON*%
X137725000Y-86075000D03*
%TO.P,SW1,2*%
%TO.N,GND*%
X133242124Y-86467201D03*
D11*
%TO.P,SW1,*%
%TO.N,*%
X131769901Y-84096492D03*
%TD*%
D17*
%TO.P,R1,2*%
%TO.N,USER_BUTTON*%
X134449000Y-78800000D03*
%TO.P,R1,1*%
%TO.N,3V3*%
X137751000Y-78800000D03*
%TD*%
D18*
%TO.P,JN1,9*%
%TO.N,N/C*%
X165260000Y-77150000D03*
%TO.P,JN1,8*%
X162720000Y-77150000D03*
%TO.P,JN1,7*%
X160180000Y-77150000D03*
%TO.P,JN1,6*%
X157640000Y-77150000D03*
%TO.P,JN1,5*%
%TO.N,SDA*%
X155100000Y-77150000D03*
%TO.P,JN1,4*%
%TO.N,SCL*%
X152560000Y-77150000D03*
%TO.P,JN1,3*%
%TO.N,GND*%
X150020000Y-77150000D03*
%TO.P,JN1,2*%
%TO.N,N/C*%
X147480000Y-77150000D03*
%TO.P,JN1,1*%
%TO.N,3V3*%
X144940000Y-77150000D03*
%TD*%
D10*
%TO.P,D1,1*%
%TO.N,3V3*%
X145850000Y-59425000D03*
%TO.P,D1,2*%
%TO.N,Net-(D1-Pad2)*%
X149050000Y-59425000D03*
%TO.P,D1,4*%
%TO.N,LED_DIN*%
X145850000Y-54525000D03*
%TO.P,D1,3*%
%TO.N,GND*%
X149050000Y-54525000D03*
%TD*%
D19*
%TO.N,LED_DIN*%
X142175000Y-57250000D03*
%TO.N,ENDSTOP_BACK*%
X112350000Y-63600000D03*
%TO.N,3V3*%
X110350000Y-80000000D03*
X153700000Y-64699988D03*
X139650019Y-78800009D03*
X140250000Y-73000000D03*
%TO.N,ODRIVE_RST*%
X105550000Y-77250000D03*
%TO.N,RC_STR*%
X114950000Y-57100000D03*
%TO.N,RC_THROTTLE*%
X111300000Y-59150000D03*
%TO.N,ADNS_SS*%
X166900000Y-63350000D03*
%TO.N,MOSI*%
X124587495Y-71137495D03*
X148124998Y-66575002D03*
%TO.N,TX0*%
X115000000Y-61500000D03*
%TD*%
D20*
%TO.N,LED_DIN*%
X143125000Y-57250000D02*
X145850000Y-54525000D01*
X142175000Y-57250000D02*
X143125000Y-57250000D01*
%TO.N,ENDSTOP_BACK*%
X86500000Y-63600000D02*
X112350000Y-63600000D01*
X85400000Y-64700000D02*
X86500000Y-63600000D01*
X83660000Y-64700000D02*
X85400000Y-64700000D01*
X83650000Y-64710000D02*
X83660000Y-64700000D01*
%TO.N,RST_BUTTON*%
X96000000Y-76850000D02*
X106950000Y-87800000D01*
X96000000Y-74390000D02*
X96000000Y-76850000D01*
%TO.N,3V3*%
X153710012Y-64710000D02*
X153700000Y-64699988D01*
X101900000Y-80000000D02*
X110350000Y-80000000D01*
X98540000Y-76640000D02*
X101900000Y-80000000D01*
X98540000Y-74800000D02*
X98540000Y-76640000D01*
X139650010Y-78800000D02*
X139650019Y-78800009D01*
X137751000Y-78800000D02*
X139650010Y-78800000D01*
X139650019Y-78800009D02*
X139650019Y-73599981D01*
X139650019Y-73599981D02*
X140250000Y-73000000D01*
X152587500Y-63587488D02*
X153700000Y-64699988D01*
X152587500Y-59425000D02*
X152587500Y-63587488D01*
X159325000Y-62000000D02*
X162035000Y-64710000D01*
X162035000Y-64710000D02*
X153710012Y-64710000D01*
X159325000Y-59425000D02*
X159325000Y-62000000D01*
X172400000Y-64710000D02*
X162035000Y-64710000D01*
X148574988Y-64699988D02*
X153700000Y-64699988D01*
X145850000Y-61975000D02*
X148574988Y-64699988D01*
X145850000Y-59425000D02*
X145850000Y-61975000D01*
X140250010Y-79400000D02*
X139650019Y-78800009D01*
X142690000Y-79400000D02*
X140250010Y-79400000D01*
X144940000Y-77150000D02*
X142690000Y-79400000D01*
%TO.N,GND*%
X172400000Y-57090000D02*
X172390000Y-57100000D01*
X150020000Y-76320000D02*
X150020000Y-77150000D01*
X144900000Y-71200000D02*
X150020000Y-76320000D01*
X139500000Y-71200000D02*
X144900000Y-71200000D01*
X136310000Y-74390000D02*
X139500000Y-71200000D01*
X134100000Y-74390000D02*
X136310000Y-74390000D01*
X162525000Y-54525000D02*
X167650000Y-54525000D01*
X170215000Y-57090000D02*
X172400000Y-57090000D01*
X167650000Y-54525000D02*
X170215000Y-57090000D01*
X149950000Y-54525000D02*
X152050000Y-52425000D01*
X149050000Y-54525000D02*
X149950000Y-54525000D01*
X153687500Y-52425000D02*
X155787500Y-54525000D01*
X152050000Y-52425000D02*
X153687500Y-52425000D01*
X155787500Y-54525000D02*
X157787500Y-52525000D01*
X160525000Y-52525000D02*
X162525000Y-54525000D01*
X157787500Y-52525000D02*
X160525000Y-52525000D01*
X174875000Y-66465000D02*
X174875000Y-59565000D01*
X174875000Y-59565000D02*
X172400000Y-57090000D01*
X172400000Y-68940000D02*
X174875000Y-66465000D01*
X173700000Y-79100000D02*
X175080334Y-77719666D01*
X172400000Y-79100000D02*
X173700000Y-79100000D01*
X175080334Y-77719666D02*
X175080334Y-70255334D01*
X173765000Y-68940000D02*
X172400000Y-68940000D01*
X175080334Y-70255334D02*
X173765000Y-68940000D01*
%TO.N,ODRIVE_RST*%
X107710000Y-77140000D02*
X105660000Y-77140000D01*
X105660000Y-77140000D02*
X105550000Y-77250000D01*
X108700000Y-76150000D02*
X107710000Y-77140000D01*
X108700000Y-74390000D02*
X108700000Y-76150000D01*
%TO.N,USER_BUTTON*%
X131050000Y-78800000D02*
X134449000Y-78800000D01*
X112400000Y-78800000D02*
X111240000Y-77640000D01*
X111240000Y-77640000D02*
X111240000Y-74800000D01*
X131050000Y-78800000D02*
X112400000Y-78800000D01*
X131050000Y-79325000D02*
X131050000Y-78800000D01*
X137725000Y-86000000D02*
X131050000Y-79325000D01*
X137725000Y-86075000D02*
X137725000Y-86000000D01*
%TO.N,CHG_ST_HOME*%
X110890000Y-71500000D02*
X113780000Y-74390000D01*
X92950000Y-73850000D02*
X95300000Y-71500000D01*
X92950000Y-78100000D02*
X92950000Y-73850000D01*
X95300000Y-71500000D02*
X110890000Y-71500000D01*
X87100000Y-83950000D02*
X92950000Y-78100000D01*
X83650000Y-83950000D02*
X87100000Y-83950000D01*
%TO.N,SDA*%
X155100000Y-77150000D02*
X154800000Y-76850000D01*
X155100000Y-76100000D02*
X155100000Y-77150000D01*
X134100000Y-55100000D02*
X155100000Y-76100000D01*
X134100000Y-54480000D02*
X134100000Y-55100000D01*
%TO.N,SCL*%
X131560000Y-54070000D02*
X131560000Y-55010000D01*
X131560000Y-55010000D02*
X152560000Y-76010000D01*
X152560000Y-76010000D02*
X152560000Y-77150000D01*
%TO.N,RC_STR*%
X83650000Y-57090000D02*
X114940000Y-57090000D01*
X114940000Y-57090000D02*
X114950000Y-57100000D01*
%TO.N,RC_THROTTLE*%
X110820000Y-59630000D02*
X111300000Y-59150000D01*
X83650000Y-59630000D02*
X110820000Y-59630000D01*
%TO.N,ADNS_SS*%
X168680000Y-63350000D02*
X166900000Y-63350000D01*
X172400000Y-59630000D02*
X168680000Y-63350000D01*
%TO.N,MOSI*%
X123940000Y-74390000D02*
X123940000Y-71784990D01*
X123940000Y-71784990D02*
X124587495Y-71137495D01*
X172400000Y-74020000D02*
X155569996Y-74020000D01*
X155569996Y-74020000D02*
X148124998Y-66575002D01*
%TO.N,5V*%
X91450000Y-54550000D02*
X83650000Y-54550000D01*
X110800000Y-56000000D02*
X92900000Y-56000000D01*
X111240000Y-55560000D02*
X110800000Y-56000000D01*
X92900000Y-56000000D02*
X91450000Y-54550000D01*
X111240000Y-54070000D02*
X111240000Y-55560000D01*
%TO.N,Net-(D1-Pad2)*%
X149050000Y-58062500D02*
X152587500Y-54525000D01*
X149050000Y-59425000D02*
X149050000Y-58062500D01*
%TO.N,Net-(D2-Pad2)*%
X155787500Y-59425000D02*
X156025000Y-59425000D01*
X159325000Y-56125000D02*
X159325000Y-54525000D01*
X156025000Y-59425000D02*
X159325000Y-56125000D01*
%TO.N,TX0*%
X85350000Y-71250000D02*
X91650000Y-64950000D01*
X113400000Y-64950000D02*
X115000000Y-63350000D01*
X83650000Y-71250000D02*
X85350000Y-71250000D01*
X91650000Y-64950000D02*
X113400000Y-64950000D01*
X115000000Y-63350000D02*
X115000000Y-61500000D01*
%TO.N,RX0*%
X116450000Y-54200000D02*
X116320000Y-54070000D01*
X116450000Y-64550000D02*
X116450000Y-54200000D01*
X114450000Y-66550000D02*
X116450000Y-64550000D01*
X92850000Y-66550000D02*
X114450000Y-66550000D01*
X85610000Y-73790000D02*
X92850000Y-66550000D01*
X83650000Y-73790000D02*
X85610000Y-73790000D01*
%TO.N,RX1*%
X94650000Y-69500000D02*
X127800000Y-69500000D01*
X129020000Y-70720000D02*
X129020000Y-74390000D01*
X127800000Y-69500000D02*
X129020000Y-70720000D01*
X91500000Y-77250000D02*
X91500000Y-72650000D01*
X91500000Y-72650000D02*
X94650000Y-69500000D01*
X87340000Y-81410000D02*
X91500000Y-77250000D01*
X83650000Y-81410000D02*
X87340000Y-81410000D01*
%TO.N,TX1*%
X131550000Y-72050000D02*
X131560000Y-72060000D01*
X131560000Y-72060000D02*
X131560000Y-74390000D01*
X131550000Y-69350000D02*
X131550000Y-72050000D01*
X87430000Y-78870000D02*
X90100000Y-76200000D01*
X93750000Y-67950000D02*
X130150000Y-67950000D01*
X90100000Y-76200000D02*
X90100000Y-71600000D01*
X130150000Y-67950000D02*
X131550000Y-69350000D01*
X90100000Y-71600000D02*
X93750000Y-67950000D01*
X83650000Y-78870000D02*
X87430000Y-78870000D01*
%TD*%
M02*
