M48
; DRILL file {KiCad (5.1.10-1-10_14)} date Monday, July 05, 2021 at 04:23:31 PM
; FORMAT={-:-/ absolute / metric / decimal}
; #@! TF.CreationDate,2021-07-05T16:23:31+02:00
; #@! TF.GenerationSoftware,Kicad,Pcbnew,(5.1.10-1-10_14)
; #@! TF.FileFunction,Plated,1,2,PTH
FMAT,2
METRIC
T1C0.400
T2C0.762
T3C0.800
T4C0.990
T5C1.100
T6C1.300
%
G90
G05
T1
X105.55Y-77.25
X110.35Y-80.0
X111.3Y-59.15
X112.35Y-63.6
X114.95Y-57.1
X115.0Y-61.5
X124.587Y-71.137
X139.65Y-78.8
X140.25Y-73.0
X142.175Y-57.25
X148.125Y-66.575
X153.7Y-64.7
X166.9Y-63.35
T2
X144.94Y-77.15
X147.48Y-77.15
X150.02Y-77.15
X152.56Y-77.15
X155.1Y-77.15
X157.64Y-77.15
X160.18Y-77.15
X162.72Y-77.15
X165.26Y-77.15
T3
X96.0Y-74.39
X98.54Y-74.39
X101.08Y-74.39
X103.62Y-74.39
X106.16Y-54.07
X106.16Y-74.39
X108.7Y-54.07
X108.7Y-74.39
X111.24Y-54.07
X111.24Y-74.39
X113.78Y-54.07
X113.78Y-74.39
X116.32Y-54.07
X116.32Y-74.39
X118.86Y-54.07
X118.86Y-74.39
X121.4Y-54.07
X121.4Y-74.39
X123.94Y-54.07
X123.94Y-74.39
X126.48Y-54.07
X126.48Y-74.39
X129.02Y-54.07
X129.02Y-74.39
X131.56Y-54.07
X131.56Y-74.39
X134.1Y-54.07
X134.1Y-74.39
T4
X102.467Y-88.192
X106.95Y-87.8
X133.242Y-86.467
X137.725Y-86.075
T5
X83.65Y-54.575
X83.65Y-57.115
X83.65Y-59.655
X83.65Y-62.195
X83.65Y-64.735
X83.65Y-67.275
X83.65Y-71.25
X83.65Y-73.79
X83.65Y-76.33
X83.65Y-78.87
X83.65Y-81.41
X83.65Y-83.95
X172.4Y-54.55
X172.4Y-57.09
X172.4Y-59.63
X172.4Y-62.17
X172.4Y-64.71
X172.4Y-68.94
X172.4Y-71.48
X172.4Y-74.02
X172.4Y-76.56
X172.4Y-79.1
T6
X100.995Y-85.821
X107.978Y-85.211
X131.77Y-84.096
X138.753Y-83.486
T0
M30
