%FSLAX45Y45*%
G04 Gerber Fmt 4.5, Leading zero omitted, Abs format (unit mm)*
G04 Created by KiCad (PCBNEW (5.1.10-1-10_14)) date 2021-07-05 16:23:32*
%MOMM*%
%LPD*%
G01*
G04 APERTURE LIST*
%TA.AperFunction,Profile*%
%ADD10C,0.050000*%
%TD*%
%ADD11C,0.200000*%
%ADD12C,0.300000*%
G04 APERTURE END LIST*
D10*
X14580000Y-8350000D02*
G75*
G03*
X14580000Y-8350000I-175000J0D01*
G01*
X9635000Y-8225000D02*
G75*
G03*
X9635000Y-8225000I-175000J0D01*
G01*
X8050000Y-5240000D02*
G75*
G02*
X8150000Y-5140000I100000J0D01*
G01*
X8150000Y-8640000D02*
G75*
G02*
X8050000Y-8540000I0J100000D01*
G01*
X9775000Y-8640000D02*
G75*
G02*
X9875000Y-8740000I0J-100000D01*
G01*
X9975000Y-8990000D02*
G75*
G02*
X9875000Y-8890000I0J100000D01*
G01*
X11095000Y-8890000D02*
G75*
G02*
X10995000Y-8990000I-100000J0D01*
G01*
X11095000Y-8275000D02*
G75*
G02*
X11195000Y-8175000I100000J0D01*
G01*
X12885000Y-8175000D02*
G75*
G02*
X12985000Y-8275000I0J-100000D01*
G01*
X13085000Y-8990000D02*
G75*
G02*
X12985000Y-8890000I0J100000D01*
G01*
X14765000Y-8890000D02*
G75*
G02*
X14665000Y-8990000I-100000J0D01*
G01*
X14765000Y-8275000D02*
G75*
G02*
X14865000Y-8175000I100000J0D01*
G01*
X17550000Y-8075000D02*
G75*
G02*
X17450000Y-8175000I-100000J0D01*
G01*
X17455000Y-5140000D02*
G75*
G02*
X17555000Y-5240000I0J-100000D01*
G01*
X8050000Y-5240000D02*
X8050000Y-8540000D01*
X17455000Y-5140000D02*
X8150000Y-5140000D01*
X8150000Y-8640000D02*
X9775000Y-8640000D01*
X9875000Y-8890000D02*
X9875000Y-8740000D01*
X10995000Y-8990000D02*
X9975000Y-8990000D01*
X11095000Y-8275000D02*
X11095000Y-8890000D01*
X12885000Y-8175000D02*
X11195000Y-8175000D01*
X12985000Y-8890000D02*
X12985000Y-8275000D01*
X14665000Y-8990000D02*
X13085000Y-8990000D01*
X14765000Y-8275000D02*
X14765000Y-8890000D01*
X14880000Y-8175000D02*
X14865000Y-8175000D01*
X17450000Y-8175000D02*
X14880000Y-8175000D01*
X17555000Y-5240000D02*
X17550000Y-8075000D01*
D11*
D12*
X8333928Y-9458214D02*
X8333928Y-9158214D01*
X8405357Y-9158214D01*
X8448214Y-9172500D01*
X8476786Y-9201072D01*
X8491071Y-9229643D01*
X8505357Y-9286786D01*
X8505357Y-9329643D01*
X8491071Y-9386786D01*
X8476786Y-9415357D01*
X8448214Y-9443929D01*
X8405357Y-9458214D01*
X8333928Y-9458214D01*
X8633928Y-9458214D02*
X8633928Y-9258214D01*
X8633928Y-9315357D02*
X8648214Y-9286786D01*
X8662500Y-9272500D01*
X8691071Y-9258214D01*
X8719643Y-9258214D01*
X8819643Y-9458214D02*
X8819643Y-9258214D01*
X8819643Y-9158214D02*
X8805357Y-9172500D01*
X8819643Y-9186786D01*
X8833928Y-9172500D01*
X8819643Y-9158214D01*
X8819643Y-9186786D01*
X9005357Y-9458214D02*
X8976786Y-9443929D01*
X8962500Y-9415357D01*
X8962500Y-9158214D01*
X9162500Y-9458214D02*
X9133928Y-9443929D01*
X9119643Y-9415357D01*
X9119643Y-9158214D01*
X9505357Y-9458214D02*
X9505357Y-9158214D01*
X9605357Y-9372500D01*
X9705357Y-9158214D01*
X9705357Y-9458214D01*
X9976786Y-9458214D02*
X9976786Y-9301072D01*
X9962500Y-9272500D01*
X9933928Y-9258214D01*
X9876786Y-9258214D01*
X9848214Y-9272500D01*
X9976786Y-9443929D02*
X9948214Y-9458214D01*
X9876786Y-9458214D01*
X9848214Y-9443929D01*
X9833928Y-9415357D01*
X9833928Y-9386786D01*
X9848214Y-9358214D01*
X9876786Y-9343929D01*
X9948214Y-9343929D01*
X9976786Y-9329643D01*
X10119643Y-9258214D02*
X10119643Y-9558214D01*
X10119643Y-9272500D02*
X10148214Y-9258214D01*
X10205357Y-9258214D01*
X10233928Y-9272500D01*
X10248214Y-9286786D01*
X10262500Y-9315357D01*
X10262500Y-9401072D01*
X10248214Y-9429643D01*
X10233928Y-9443929D01*
X10205357Y-9458214D01*
X10148214Y-9458214D01*
X10119643Y-9443929D01*
X10391071Y-9429643D02*
X10405357Y-9443929D01*
X10391071Y-9458214D01*
X10376786Y-9443929D01*
X10391071Y-9429643D01*
X10391071Y-9458214D01*
X10391071Y-9272500D02*
X10405357Y-9286786D01*
X10391071Y-9301072D01*
X10376786Y-9286786D01*
X10391071Y-9272500D01*
X10391071Y-9301072D01*
M02*
