G04 #@! TF.GenerationSoftware,KiCad,Pcbnew,(5.1.10-1-10_14)*
G04 #@! TF.CreationDate,2021-07-05T16:27:43+02:00*
G04 #@! TF.ProjectId,cablebot_camera,6361626c-6562-46f7-945f-63616d657261,1.0*
G04 #@! TF.SameCoordinates,Original*
G04 #@! TF.FileFunction,Legend,Bot*
G04 #@! TF.FilePolarity,Positive*
%FSLAX46Y46*%
G04 Gerber Fmt 4.6, Leading zero omitted, Abs format (unit mm)*
G04 Created by KiCad (PCBNEW (5.1.10-1-10_14)) date 2021-07-05 16:27:43*
%MOMM*%
%LPD*%
G01*
G04 APERTURE LIST*
%ADD10C,0.150000*%
%ADD11C,0.101600*%
G04 APERTURE END LIST*
D10*
X137936761Y-83014428D02*
X137984380Y-83157285D01*
X137984380Y-83395380D01*
X137936761Y-83490618D01*
X137889142Y-83538237D01*
X137793904Y-83585856D01*
X137698666Y-83585856D01*
X137603428Y-83538237D01*
X137555809Y-83490618D01*
X137508190Y-83395380D01*
X137460571Y-83204904D01*
X137412952Y-83109666D01*
X137365333Y-83062047D01*
X137270095Y-83014428D01*
X137174857Y-83014428D01*
X137079619Y-83062047D01*
X137032000Y-83109666D01*
X136984380Y-83204904D01*
X136984380Y-83442999D01*
X137032000Y-83585856D01*
X137984380Y-84014428D02*
X136984380Y-84014428D01*
X136984380Y-84252523D01*
X137032000Y-84395380D01*
X137127238Y-84490618D01*
X137222476Y-84538237D01*
X137412952Y-84585856D01*
X137555809Y-84585856D01*
X137746285Y-84538237D01*
X137841523Y-84490618D01*
X137936761Y-84395380D01*
X137984380Y-84252523D01*
X137984380Y-84014428D01*
X137698666Y-84966809D02*
X137698666Y-85442999D01*
X137984380Y-84871571D02*
X136984380Y-85204904D01*
X137984380Y-85538237D01*
X140400094Y-83062047D02*
X140447713Y-83204904D01*
X140447713Y-83443000D01*
X140400094Y-83538238D01*
X140352475Y-83585857D01*
X140257237Y-83633476D01*
X140161999Y-83633476D01*
X140066761Y-83585857D01*
X140019142Y-83538238D01*
X139971523Y-83443000D01*
X139923904Y-83252524D01*
X139876285Y-83157285D01*
X139828666Y-83109666D01*
X139733428Y-83062047D01*
X139638190Y-83062047D01*
X139542952Y-83109666D01*
X139495333Y-83157285D01*
X139447713Y-83252524D01*
X139447713Y-83490619D01*
X139495333Y-83633476D01*
X140352475Y-84633476D02*
X140400094Y-84585857D01*
X140447713Y-84443000D01*
X140447713Y-84347762D01*
X140400094Y-84204904D01*
X140304856Y-84109666D01*
X140209618Y-84062047D01*
X140019142Y-84014428D01*
X139876285Y-84014428D01*
X139685809Y-84062047D01*
X139590571Y-84109666D01*
X139495333Y-84204904D01*
X139447713Y-84347762D01*
X139447713Y-84443000D01*
X139495333Y-84585857D01*
X139542952Y-84633476D01*
X140447713Y-85538238D02*
X140447713Y-85062047D01*
X139447713Y-85062047D01*
X148154619Y-85538238D02*
X147154619Y-85204904D01*
X148154619Y-84871571D01*
X147154619Y-84538238D02*
X148154619Y-84538238D01*
X147154619Y-84062047D02*
X148154619Y-84062047D01*
X147154619Y-83490619D01*
X148154619Y-83490619D01*
X141958666Y-83347762D02*
X141911046Y-83252524D01*
X141911046Y-83109667D01*
X141958666Y-82966809D01*
X142053904Y-82871571D01*
X142149142Y-82823952D01*
X142339618Y-82776333D01*
X142482475Y-82776333D01*
X142672951Y-82823952D01*
X142768189Y-82871571D01*
X142863427Y-82966809D01*
X142911046Y-83109667D01*
X142911046Y-83204905D01*
X142863427Y-83347762D01*
X142815808Y-83395381D01*
X142482475Y-83395381D01*
X142482475Y-83204905D01*
X142911046Y-83823952D02*
X141911046Y-83823952D01*
X142911046Y-84395381D01*
X141911046Y-84395381D01*
X142911046Y-84871571D02*
X141911046Y-84871571D01*
X141911046Y-85109667D01*
X141958666Y-85252524D01*
X142053904Y-85347762D01*
X142149142Y-85395381D01*
X142339618Y-85443000D01*
X142482475Y-85443000D01*
X142672951Y-85395381D01*
X142768189Y-85347762D01*
X142863427Y-85252524D01*
X142911046Y-85109667D01*
X142911046Y-84871571D01*
D11*
X165201428Y-84824000D02*
X165128857Y-84860285D01*
X165020000Y-84860285D01*
X164911142Y-84824000D01*
X164838571Y-84751428D01*
X164802285Y-84678857D01*
X164766000Y-84533714D01*
X164766000Y-84424857D01*
X164802285Y-84279714D01*
X164838571Y-84207142D01*
X164911142Y-84134571D01*
X165020000Y-84098285D01*
X165092571Y-84098285D01*
X165201428Y-84134571D01*
X165237714Y-84170857D01*
X165237714Y-84424857D01*
X165092571Y-84424857D01*
X165564285Y-84098285D02*
X165564285Y-84860285D01*
X165999714Y-84098285D01*
X165999714Y-84860285D01*
X166362571Y-84098285D02*
X166362571Y-84860285D01*
X166544000Y-84860285D01*
X166652857Y-84824000D01*
X166725428Y-84751428D01*
X166761714Y-84678857D01*
X166798000Y-84533714D01*
X166798000Y-84424857D01*
X166761714Y-84279714D01*
X166725428Y-84207142D01*
X166652857Y-84134571D01*
X166544000Y-84098285D01*
X166362571Y-84098285D01*
X164841000Y-82335285D02*
X165095000Y-81573285D01*
X165349000Y-82335285D01*
X166038428Y-81645857D02*
X166002142Y-81609571D01*
X165893285Y-81573285D01*
X165820714Y-81573285D01*
X165711857Y-81609571D01*
X165639285Y-81682142D01*
X165603000Y-81754714D01*
X165566714Y-81899857D01*
X165566714Y-82008714D01*
X165603000Y-82153857D01*
X165639285Y-82226428D01*
X165711857Y-82299000D01*
X165820714Y-82335285D01*
X165893285Y-82335285D01*
X166002142Y-82299000D01*
X166038428Y-82262714D01*
X166800428Y-81645857D02*
X166764142Y-81609571D01*
X166655285Y-81573285D01*
X166582714Y-81573285D01*
X166473857Y-81609571D01*
X166401285Y-81682142D01*
X166365000Y-81754714D01*
X166328714Y-81899857D01*
X166328714Y-82008714D01*
X166365000Y-82153857D01*
X166401285Y-82226428D01*
X166473857Y-82299000D01*
X166582714Y-82335285D01*
X166655285Y-82335285D01*
X166764142Y-82299000D01*
X166800428Y-82262714D01*
X178642000Y-89823000D02*
X161882000Y-89823000D01*
X178642000Y-79163000D02*
X178642000Y-89823000D01*
X161882000Y-79163000D02*
X178642000Y-79163000D01*
X161882000Y-89823000D02*
X161882000Y-79173000D01*
X150257000Y-75093000D02*
X150257000Y-87793000D01*
X124857000Y-75093000D02*
X124857000Y-87793000D01*
X127397000Y-72553000D02*
X147717000Y-72553000D01*
X147717000Y-90333000D02*
X127397000Y-90333000D01*
X127397000Y-72553000D02*
G75*
G03*
X124857000Y-75093000I0J-2540000D01*
G01*
X150257000Y-75093000D02*
G75*
G03*
X147717000Y-72553000I-2540000J0D01*
G01*
X124857000Y-87793000D02*
G75*
G03*
X127397000Y-90333000I2540000J0D01*
G01*
X147717000Y-90333000D02*
G75*
G03*
X150257000Y-87793000I0J2540000D01*
G01*
X131657000Y-97901000D02*
X129657000Y-97901000D01*
X124197000Y-118651000D02*
X124197000Y-100871000D01*
X175217000Y-118651000D02*
X175217000Y-100871000D01*
X126847000Y-121301000D02*
X172567000Y-121301000D01*
X126847000Y-98221000D02*
X172567000Y-98221000D01*
X124197000Y-118651000D02*
G75*
G03*
X126847000Y-121301000I2650000J0D01*
G01*
X126847000Y-98221000D02*
G75*
G03*
X124197000Y-100871000I0J-2650000D01*
G01*
X172567000Y-121301000D02*
G75*
G03*
X175217000Y-118651000I0J2650000D01*
G01*
X175217000Y-100871000D02*
G75*
G03*
X172567000Y-98221000I-2650000J0D01*
G01*
X124572000Y-91968000D02*
X124572000Y-94568000D01*
X124572000Y-91968000D02*
X175492000Y-91968000D01*
X175492000Y-91968000D02*
X175492000Y-97168000D01*
X127172000Y-97168000D02*
X175492000Y-97168000D01*
X127172000Y-94568000D02*
X127172000Y-97168000D01*
X124572000Y-94568000D02*
X127172000Y-94568000D01*
X124572000Y-97168000D02*
X125902000Y-97168000D01*
X124572000Y-95838000D02*
X124572000Y-97168000D01*
X177164714Y-88387428D02*
X177781571Y-88387428D01*
X177854142Y-88423714D01*
X177890428Y-88460000D01*
X177926714Y-88532571D01*
X177926714Y-88677714D01*
X177890428Y-88750285D01*
X177854142Y-88786571D01*
X177781571Y-88822857D01*
X177164714Y-88822857D01*
X177926714Y-89584857D02*
X177926714Y-89149428D01*
X177926714Y-89367142D02*
X177164714Y-89367142D01*
X177273571Y-89294571D01*
X177346142Y-89222000D01*
X177382428Y-89149428D01*
X127332285Y-86370000D02*
X126969428Y-86370000D01*
X127404857Y-86587714D02*
X127150857Y-85825714D01*
X126896857Y-86587714D01*
X126207428Y-86515142D02*
X126243714Y-86551428D01*
X126352571Y-86587714D01*
X126425142Y-86587714D01*
X126534000Y-86551428D01*
X126606571Y-86478857D01*
X126642857Y-86406285D01*
X126679142Y-86261142D01*
X126679142Y-86152285D01*
X126642857Y-86007142D01*
X126606571Y-85934571D01*
X126534000Y-85862000D01*
X126425142Y-85825714D01*
X126352571Y-85825714D01*
X126243714Y-85862000D01*
X126207428Y-85898285D01*
X125481714Y-86587714D02*
X125917142Y-86587714D01*
X125699428Y-86587714D02*
X125699428Y-85825714D01*
X125772000Y-85934571D01*
X125844571Y-86007142D01*
X125917142Y-86043428D01*
X123164000Y-109216714D02*
X123164000Y-109579571D01*
X123381714Y-109144142D02*
X122619714Y-109398142D01*
X123381714Y-109652142D01*
X123381714Y-110305285D02*
X123381714Y-109869857D01*
X123381714Y-110087571D02*
X122619714Y-110087571D01*
X122728571Y-110015000D01*
X122801142Y-109942428D01*
X122837428Y-109869857D01*
X142456000Y-98220714D02*
X142456000Y-98765000D01*
X142492285Y-98873857D01*
X142564857Y-98946428D01*
X142673714Y-98982714D01*
X142746285Y-98982714D01*
X141694000Y-98982714D02*
X142129428Y-98982714D01*
X141911714Y-98982714D02*
X141911714Y-98220714D01*
X141984285Y-98329571D01*
X142056857Y-98402142D01*
X142129428Y-98438428D01*
M02*
