M48
; DRILL file {KiCad (5.1.10-1-10_14)} date Monday, July 05, 2021 at 04:27:46 PM
; FORMAT={-:-/ absolute / metric / decimal}
; #@! TF.CreationDate,2021-07-05T16:27:46+02:00
; #@! TF.GenerationSoftware,Kicad,Pcbnew,(5.1.10-1-10_14)
; #@! TF.FileFunction,Plated,1,2,PTH
FMAT,2
METRIC
T1C0.400
T2C0.762
T3C0.800
T4C1.000
T5C1.200
%
G90
G05
T1
X150.457Y-91.393
X150.557Y-103.518
X154.057Y-102.768
X154.262Y-113.068
X155.132Y-102.768
X155.262Y-112.893
X156.251Y-112.751
X156.307Y-102.776
X158.332Y-103.041
X159.332Y-103.068
X161.382Y-109.343
X163.357Y-118.068
X165.582Y-106.293
X166.632Y-107.593
X167.122Y-85.578
X168.307Y-77.568
T2
X127.397Y-87.793
X129.937Y-87.793
X132.477Y-87.793
X135.017Y-87.793
X137.557Y-87.793
X140.097Y-87.793
X142.637Y-87.793
X145.177Y-87.793
X147.717Y-87.793
X163.832Y-113.618
X179.207Y-92.118
T3
X130.657Y-99.601
X133.197Y-99.601
X135.737Y-99.601
X138.277Y-99.601
X140.817Y-99.601
X140.817Y-119.921
X143.357Y-99.601
X143.357Y-119.921
X145.897Y-99.601
X145.897Y-119.921
X148.437Y-99.601
X148.437Y-119.921
X150.977Y-99.601
X150.977Y-119.921
X153.517Y-99.601
X153.517Y-119.921
X155.532Y-84.043
X155.532Y-87.543
X156.057Y-99.601
X156.057Y-119.921
X158.597Y-99.601
X158.597Y-119.921
X161.137Y-99.601
X161.137Y-119.921
X163.677Y-99.601
X163.677Y-119.921
X166.217Y-99.601
X166.217Y-119.921
X168.757Y-99.601
X168.757Y-119.921
T4
X125.902Y-93.298
X125.902Y-95.838
X128.442Y-93.298
X128.442Y-95.838
X130.982Y-93.298
X130.982Y-95.838
X133.522Y-93.298
X133.522Y-95.838
X136.062Y-93.298
X136.062Y-95.838
X138.602Y-93.298
X138.602Y-95.838
X141.142Y-93.298
X141.142Y-95.838
X143.682Y-93.298
X143.682Y-95.838
X146.222Y-93.298
X146.222Y-95.838
X148.762Y-93.298
X148.762Y-95.838
X151.302Y-93.298
X151.302Y-95.838
X153.842Y-93.298
X153.842Y-95.838
X156.382Y-93.298
X156.382Y-95.838
X158.922Y-93.298
X158.922Y-95.838
X161.462Y-93.298
X161.462Y-95.838
X163.282Y-81.943
X163.282Y-84.483
X163.282Y-87.023
X164.002Y-93.298
X164.002Y-95.838
X164.582Y-73.143
X166.542Y-93.298
X166.542Y-95.838
X167.122Y-73.143
X169.082Y-93.298
X169.082Y-95.838
X169.662Y-73.143
X171.622Y-93.298
X171.622Y-95.838
X172.202Y-73.143
X174.162Y-93.298
X174.162Y-95.838
X174.742Y-73.143
X177.282Y-73.143
T5
X127.282Y-76.343
X130.782Y-76.343
X134.282Y-76.343
X139.282Y-76.343
X142.782Y-76.343
X147.782Y-76.343
X151.282Y-76.343
X156.282Y-76.343
X159.782Y-76.343
T0
M30
