%FSLAX45Y45*%
G04 Gerber Fmt 4.5, Leading zero omitted, Abs format (unit mm)*
G04 Created by KiCad (PCBNEW (5.1.10-1-10_14)) date 2021-07-05 16:27:49*
%MOMM*%
%LPD*%
G01*
G04 APERTURE LIST*
%TA.AperFunction,Profile*%
%ADD10C,0.101600*%
%TD*%
%ADD11C,0.200000*%
%ADD12C,0.300000*%
G04 APERTURE END LIST*
D10*
X12053200Y-12104300D02*
X17950700Y-12104300D01*
X18250700Y-11804300D02*
G75*
G02*
X17950700Y-12104300I-300000J0D01*
G01*
X12053200Y-12104300D02*
G75*
G02*
X11753200Y-11804300I0J300000D01*
G01*
X11753200Y-11804300D02*
X11750700Y-7394300D01*
X18253200Y-7394300D02*
X18250700Y-11804300D01*
X17953200Y-7094300D02*
G75*
G02*
X18253200Y-7394300I0J-300000D01*
G01*
X11750700Y-7394300D02*
G75*
G02*
X12050700Y-7094300I300000J0D01*
G01*
X17953200Y-7094300D02*
X12050700Y-7094300D01*
D11*
X11965700Y-7299300D02*
X12235700Y-7569300D01*
X12235700Y-7299300D02*
X11965700Y-7569300D01*
X11968200Y-11621800D02*
X12238200Y-11891800D01*
X12238200Y-11621800D02*
X11968200Y-11891800D01*
X17768200Y-11621800D02*
X18038200Y-11891800D01*
X18038200Y-11621800D02*
X17768200Y-11891800D01*
D12*
X12032048Y-12575094D02*
X12032048Y-12275094D01*
X12103477Y-12275094D01*
X12146334Y-12289380D01*
X12174906Y-12317951D01*
X12189191Y-12346523D01*
X12203477Y-12403666D01*
X12203477Y-12446523D01*
X12189191Y-12503666D01*
X12174906Y-12532237D01*
X12146334Y-12560809D01*
X12103477Y-12575094D01*
X12032048Y-12575094D01*
X12332048Y-12575094D02*
X12332048Y-12375094D01*
X12332048Y-12432237D02*
X12346334Y-12403666D01*
X12360620Y-12389380D01*
X12389191Y-12375094D01*
X12417763Y-12375094D01*
X12517763Y-12575094D02*
X12517763Y-12375094D01*
X12517763Y-12275094D02*
X12503477Y-12289380D01*
X12517763Y-12303666D01*
X12532048Y-12289380D01*
X12517763Y-12275094D01*
X12517763Y-12303666D01*
X12703477Y-12575094D02*
X12674906Y-12560809D01*
X12660620Y-12532237D01*
X12660620Y-12275094D01*
X12860620Y-12575094D02*
X12832048Y-12560809D01*
X12817763Y-12532237D01*
X12817763Y-12275094D01*
X13203477Y-12575094D02*
X13203477Y-12275094D01*
X13303477Y-12489380D01*
X13403477Y-12275094D01*
X13403477Y-12575094D01*
X13674906Y-12575094D02*
X13674906Y-12417951D01*
X13660620Y-12389380D01*
X13632048Y-12375094D01*
X13574906Y-12375094D01*
X13546334Y-12389380D01*
X13674906Y-12560809D02*
X13646334Y-12575094D01*
X13574906Y-12575094D01*
X13546334Y-12560809D01*
X13532048Y-12532237D01*
X13532048Y-12503666D01*
X13546334Y-12475094D01*
X13574906Y-12460809D01*
X13646334Y-12460809D01*
X13674906Y-12446523D01*
X13817763Y-12375094D02*
X13817763Y-12675094D01*
X13817763Y-12389380D02*
X13846334Y-12375094D01*
X13903477Y-12375094D01*
X13932048Y-12389380D01*
X13946334Y-12403666D01*
X13960620Y-12432237D01*
X13960620Y-12517951D01*
X13946334Y-12546523D01*
X13932048Y-12560809D01*
X13903477Y-12575094D01*
X13846334Y-12575094D01*
X13817763Y-12560809D01*
X14089191Y-12546523D02*
X14103477Y-12560809D01*
X14089191Y-12575094D01*
X14074906Y-12560809D01*
X14089191Y-12546523D01*
X14089191Y-12575094D01*
X14089191Y-12389380D02*
X14103477Y-12403666D01*
X14089191Y-12417951D01*
X14074906Y-12403666D01*
X14089191Y-12389380D01*
X14089191Y-12417951D01*
X11475620Y-12934380D02*
X11745620Y-13204380D01*
X11745620Y-12934380D02*
X11475620Y-13204380D01*
X12017763Y-12933666D02*
X12032048Y-12919380D01*
X12060620Y-12905094D01*
X12132048Y-12905094D01*
X12160620Y-12919380D01*
X12174906Y-12933666D01*
X12189191Y-12962237D01*
X12189191Y-12990809D01*
X12174906Y-13033666D01*
X12003477Y-13205094D01*
X12189191Y-13205094D01*
X12317763Y-13176523D02*
X12332048Y-13190809D01*
X12317763Y-13205094D01*
X12303477Y-13190809D01*
X12317763Y-13176523D01*
X12317763Y-13205094D01*
X12432048Y-12905094D02*
X12632048Y-12905094D01*
X12503477Y-13205094D01*
X12803477Y-12905094D02*
X12832048Y-12905094D01*
X12860620Y-12919380D01*
X12874906Y-12933666D01*
X12889191Y-12962237D01*
X12903477Y-13019380D01*
X12903477Y-13090809D01*
X12889191Y-13147951D01*
X12874906Y-13176523D01*
X12860620Y-13190809D01*
X12832048Y-13205094D01*
X12803477Y-13205094D01*
X12774906Y-13190809D01*
X12760620Y-13176523D01*
X12746334Y-13147951D01*
X12732048Y-13090809D01*
X12732048Y-13019380D01*
X12746334Y-12962237D01*
X12760620Y-12933666D01*
X12774906Y-12919380D01*
X12803477Y-12905094D01*
X13089191Y-12905094D02*
X13117763Y-12905094D01*
X13146334Y-12919380D01*
X13160620Y-12933666D01*
X13174906Y-12962237D01*
X13189191Y-13019380D01*
X13189191Y-13090809D01*
X13174906Y-13147951D01*
X13160620Y-13176523D01*
X13146334Y-13190809D01*
X13117763Y-13205094D01*
X13089191Y-13205094D01*
X13060620Y-13190809D01*
X13046334Y-13176523D01*
X13032048Y-13147951D01*
X13017763Y-13090809D01*
X13017763Y-13019380D01*
X13032048Y-12962237D01*
X13046334Y-12933666D01*
X13060620Y-12919380D01*
X13089191Y-12905094D01*
X13317763Y-13205094D02*
X13317763Y-13005094D01*
X13317763Y-13033666D02*
X13332048Y-13019380D01*
X13360620Y-13005094D01*
X13403477Y-13005094D01*
X13432048Y-13019380D01*
X13446334Y-13047951D01*
X13446334Y-13205094D01*
X13446334Y-13047951D02*
X13460620Y-13019380D01*
X13489191Y-13005094D01*
X13532048Y-13005094D01*
X13560620Y-13019380D01*
X13574906Y-13047951D01*
X13574906Y-13205094D01*
X13717763Y-13205094D02*
X13717763Y-13005094D01*
X13717763Y-13033666D02*
X13732048Y-13019380D01*
X13760620Y-13005094D01*
X13803477Y-13005094D01*
X13832048Y-13019380D01*
X13846334Y-13047951D01*
X13846334Y-13205094D01*
X13846334Y-13047951D02*
X13860620Y-13019380D01*
X13889191Y-13005094D01*
X13932048Y-13005094D01*
X13960620Y-13019380D01*
X13974906Y-13047951D01*
X13974906Y-13205094D01*
X14560620Y-12890809D02*
X14303477Y-13276523D01*
X14946334Y-12905094D02*
X14974906Y-12905094D01*
X15003477Y-12919380D01*
X15017763Y-12933666D01*
X15032048Y-12962237D01*
X15046334Y-13019380D01*
X15046334Y-13090809D01*
X15032048Y-13147951D01*
X15017763Y-13176523D01*
X15003477Y-13190809D01*
X14974906Y-13205094D01*
X14946334Y-13205094D01*
X14917763Y-13190809D01*
X14903477Y-13176523D01*
X14889191Y-13147951D01*
X14874906Y-13090809D01*
X14874906Y-13019380D01*
X14889191Y-12962237D01*
X14903477Y-12933666D01*
X14917763Y-12919380D01*
X14946334Y-12905094D01*
X15174906Y-13176523D02*
X15189191Y-13190809D01*
X15174906Y-13205094D01*
X15160620Y-13190809D01*
X15174906Y-13176523D01*
X15174906Y-13205094D01*
X15474906Y-13205094D02*
X15303477Y-13205094D01*
X15389191Y-13205094D02*
X15389191Y-12905094D01*
X15360620Y-12947951D01*
X15332048Y-12976523D01*
X15303477Y-12990809D01*
X15660620Y-12905094D02*
X15689191Y-12905094D01*
X15717763Y-12919380D01*
X15732048Y-12933666D01*
X15746334Y-12962237D01*
X15760620Y-13019380D01*
X15760620Y-13090809D01*
X15746334Y-13147951D01*
X15732048Y-13176523D01*
X15717763Y-13190809D01*
X15689191Y-13205094D01*
X15660620Y-13205094D01*
X15632048Y-13190809D01*
X15617763Y-13176523D01*
X15603477Y-13147951D01*
X15589191Y-13090809D01*
X15589191Y-13019380D01*
X15603477Y-12962237D01*
X15617763Y-12933666D01*
X15632048Y-12919380D01*
X15660620Y-12905094D01*
X16017763Y-12905094D02*
X15960620Y-12905094D01*
X15932048Y-12919380D01*
X15917763Y-12933666D01*
X15889191Y-12976523D01*
X15874906Y-13033666D01*
X15874906Y-13147951D01*
X15889191Y-13176523D01*
X15903477Y-13190809D01*
X15932048Y-13205094D01*
X15989191Y-13205094D01*
X16017763Y-13190809D01*
X16032048Y-13176523D01*
X16046334Y-13147951D01*
X16046334Y-13076523D01*
X16032048Y-13047951D01*
X16017763Y-13033666D01*
X15989191Y-13019380D01*
X15932048Y-13019380D01*
X15903477Y-13033666D01*
X15889191Y-13047951D01*
X15874906Y-13076523D01*
X16146334Y-12905094D02*
X16332048Y-12905094D01*
X16232048Y-13019380D01*
X16274906Y-13019380D01*
X16303477Y-13033666D01*
X16317763Y-13047951D01*
X16332048Y-13076523D01*
X16332048Y-13147951D01*
X16317763Y-13176523D01*
X16303477Y-13190809D01*
X16274906Y-13205094D01*
X16189191Y-13205094D01*
X16160620Y-13190809D01*
X16146334Y-13176523D01*
X16446334Y-12905094D02*
X16446334Y-12962237D01*
X16560620Y-12905094D02*
X16560620Y-12962237D01*
X17003477Y-13319380D02*
X16989191Y-13305094D01*
X16960620Y-13262237D01*
X16946334Y-13233666D01*
X16932048Y-13190809D01*
X16917763Y-13119380D01*
X16917763Y-13062237D01*
X16932048Y-12990809D01*
X16946334Y-12947951D01*
X16960620Y-12919380D01*
X16989191Y-12876523D01*
X17003477Y-12862237D01*
X17089191Y-12905094D02*
X17274906Y-12905094D01*
X17174906Y-13019380D01*
X17217763Y-13019380D01*
X17246334Y-13033666D01*
X17260620Y-13047951D01*
X17274906Y-13076523D01*
X17274906Y-13147951D01*
X17260620Y-13176523D01*
X17246334Y-13190809D01*
X17217763Y-13205094D01*
X17132048Y-13205094D01*
X17103477Y-13190809D01*
X17089191Y-13176523D01*
X17632048Y-13205094D02*
X17632048Y-12905094D01*
X17760620Y-13205094D02*
X17760620Y-13047951D01*
X17746334Y-13019380D01*
X17717763Y-13005094D01*
X17674906Y-13005094D01*
X17646334Y-13019380D01*
X17632048Y-13033666D01*
X17946334Y-13205094D02*
X17917763Y-13190809D01*
X17903477Y-13176523D01*
X17889191Y-13147951D01*
X17889191Y-13062237D01*
X17903477Y-13033666D01*
X17917763Y-13019380D01*
X17946334Y-13005094D01*
X17989191Y-13005094D01*
X18017763Y-13019380D01*
X18032048Y-13033666D01*
X18046334Y-13062237D01*
X18046334Y-13147951D01*
X18032048Y-13176523D01*
X18017763Y-13190809D01*
X17989191Y-13205094D01*
X17946334Y-13205094D01*
X18217763Y-13205094D02*
X18189191Y-13190809D01*
X18174906Y-13162237D01*
X18174906Y-12905094D01*
X18446334Y-13190809D02*
X18417763Y-13205094D01*
X18360620Y-13205094D01*
X18332048Y-13190809D01*
X18317763Y-13162237D01*
X18317763Y-13047951D01*
X18332048Y-13019380D01*
X18360620Y-13005094D01*
X18417763Y-13005094D01*
X18446334Y-13019380D01*
X18460620Y-13047951D01*
X18460620Y-13076523D01*
X18317763Y-13105094D01*
X18574906Y-13190809D02*
X18603477Y-13205094D01*
X18660620Y-13205094D01*
X18689191Y-13190809D01*
X18703477Y-13162237D01*
X18703477Y-13147951D01*
X18689191Y-13119380D01*
X18660620Y-13105094D01*
X18617763Y-13105094D01*
X18589191Y-13090809D01*
X18574906Y-13062237D01*
X18574906Y-13047951D01*
X18589191Y-13019380D01*
X18617763Y-13005094D01*
X18660620Y-13005094D01*
X18689191Y-13019380D01*
X18803477Y-13319380D02*
X18817763Y-13305094D01*
X18846334Y-13262237D01*
X18860620Y-13233666D01*
X18874906Y-13190809D01*
X18889191Y-13119380D01*
X18889191Y-13062237D01*
X18874906Y-12990809D01*
X18860620Y-12947951D01*
X18846334Y-12919380D01*
X18817763Y-12876523D01*
X18803477Y-12862237D01*
X19346334Y-13319380D02*
X19332048Y-13305094D01*
X19303477Y-13262237D01*
X19289191Y-13233666D01*
X19274906Y-13190809D01*
X19260620Y-13119380D01*
X19260620Y-13062237D01*
X19274906Y-12990809D01*
X19289191Y-12947951D01*
X19303477Y-12919380D01*
X19332048Y-12876523D01*
X19346334Y-12862237D01*
X19460620Y-13005094D02*
X19460620Y-13205094D01*
X19460620Y-13033666D02*
X19474906Y-13019380D01*
X19503477Y-13005094D01*
X19546334Y-13005094D01*
X19574906Y-13019380D01*
X19589191Y-13047951D01*
X19589191Y-13205094D01*
X19774906Y-13205094D02*
X19746334Y-13190809D01*
X19732048Y-13176523D01*
X19717763Y-13147951D01*
X19717763Y-13062237D01*
X19732048Y-13033666D01*
X19746334Y-13019380D01*
X19774906Y-13005094D01*
X19817763Y-13005094D01*
X19846334Y-13019380D01*
X19860620Y-13033666D01*
X19874906Y-13062237D01*
X19874906Y-13147951D01*
X19860620Y-13176523D01*
X19846334Y-13190809D01*
X19817763Y-13205094D01*
X19774906Y-13205094D01*
X19960620Y-13005094D02*
X20074906Y-13005094D01*
X20003477Y-12905094D02*
X20003477Y-13162237D01*
X20017763Y-13190809D01*
X20046334Y-13205094D01*
X20074906Y-13205094D01*
X20403477Y-13005094D02*
X20403477Y-13305094D01*
X20403477Y-13019380D02*
X20432048Y-13005094D01*
X20489191Y-13005094D01*
X20517763Y-13019380D01*
X20532048Y-13033666D01*
X20546334Y-13062237D01*
X20546334Y-13147951D01*
X20532048Y-13176523D01*
X20517763Y-13190809D01*
X20489191Y-13205094D01*
X20432048Y-13205094D01*
X20403477Y-13190809D01*
X20717763Y-13205094D02*
X20689191Y-13190809D01*
X20674906Y-13162237D01*
X20674906Y-12905094D01*
X20960620Y-13205094D02*
X20960620Y-13047951D01*
X20946334Y-13019380D01*
X20917763Y-13005094D01*
X20860620Y-13005094D01*
X20832048Y-13019380D01*
X20960620Y-13190809D02*
X20932048Y-13205094D01*
X20860620Y-13205094D01*
X20832048Y-13190809D01*
X20817763Y-13162237D01*
X20817763Y-13133666D01*
X20832048Y-13105094D01*
X20860620Y-13090809D01*
X20932048Y-13090809D01*
X20960620Y-13076523D01*
X21060620Y-13005094D02*
X21174906Y-13005094D01*
X21103477Y-12905094D02*
X21103477Y-13162237D01*
X21117763Y-13190809D01*
X21146334Y-13205094D01*
X21174906Y-13205094D01*
X21389191Y-13190809D02*
X21360620Y-13205094D01*
X21303477Y-13205094D01*
X21274906Y-13190809D01*
X21260620Y-13162237D01*
X21260620Y-13047951D01*
X21274906Y-13019380D01*
X21303477Y-13005094D01*
X21360620Y-13005094D01*
X21389191Y-13019380D01*
X21403477Y-13047951D01*
X21403477Y-13076523D01*
X21260620Y-13105094D01*
X21660620Y-13205094D02*
X21660620Y-12905094D01*
X21660620Y-13190809D02*
X21632048Y-13205094D01*
X21574906Y-13205094D01*
X21546334Y-13190809D01*
X21532048Y-13176523D01*
X21517763Y-13147951D01*
X21517763Y-13062237D01*
X21532048Y-13033666D01*
X21546334Y-13019380D01*
X21574906Y-13005094D01*
X21632048Y-13005094D01*
X21660620Y-13019380D01*
X21774906Y-13319380D02*
X21789191Y-13305094D01*
X21817763Y-13262237D01*
X21832048Y-13233666D01*
X21846334Y-13190809D01*
X21860620Y-13119380D01*
X21860620Y-13062237D01*
X21846334Y-12990809D01*
X21832048Y-12947951D01*
X21817763Y-12919380D01*
X21789191Y-12876523D01*
X21774906Y-12862237D01*
M02*
