G04 #@! TF.GenerationSoftware,KiCad,Pcbnew,(5.1.10-1-10_14)*
G04 #@! TF.CreationDate,2021-07-05T16:27:43+02:00*
G04 #@! TF.ProjectId,cablebot_camera,6361626c-6562-46f7-945f-63616d657261,1.0*
G04 #@! TF.SameCoordinates,Original*
G04 #@! TF.FileFunction,Soldermask,Top*
G04 #@! TF.FilePolarity,Negative*
%FSLAX46Y46*%
G04 Gerber Fmt 4.6, Leading zero omitted, Abs format (unit mm)*
G04 Created by KiCad (PCBNEW (5.1.10-1-10_14)) date 2021-07-05 16:27:43*
%MOMM*%
%LPD*%
G01*
G04 APERTURE LIST*
%ADD10C,2.802000*%
%ADD11O,1.802000X1.802000*%
%ADD12C,2.502000*%
%ADD13C,1.702000*%
%ADD14C,1.902000*%
%ADD15C,1.626000*%
%ADD16C,0.100000*%
G04 APERTURE END LIST*
G36*
G01*
X152131310Y-109667400D02*
X152131310Y-106568600D01*
G75*
G02*
X152182310Y-106517600I51000J0D01*
G01*
X157381690Y-106517600D01*
G75*
G02*
X157432690Y-106568600I0J-51000D01*
G01*
X157432690Y-109667400D01*
G75*
G02*
X157381690Y-109718400I-51000J0D01*
G01*
X152182310Y-109718400D01*
G75*
G02*
X152131310Y-109667400I0J51000D01*
G01*
G37*
G36*
G01*
X150761380Y-104457860D02*
X150761380Y-105697380D01*
G75*
G02*
X150710380Y-105748380I-51000J0D01*
G01*
X150405580Y-105748380D01*
G75*
G02*
X150354580Y-105697380I0J51000D01*
G01*
X150354580Y-104457860D01*
G75*
G02*
X150405580Y-104406860I51000J0D01*
G01*
X150710380Y-104406860D01*
G75*
G02*
X150761380Y-104457860I0J-51000D01*
G01*
G37*
G36*
G01*
X151411620Y-104457860D02*
X151411620Y-105697380D01*
G75*
G02*
X151360620Y-105748380I-51000J0D01*
G01*
X151055820Y-105748380D01*
G75*
G02*
X151004820Y-105697380I0J51000D01*
G01*
X151004820Y-104457860D01*
G75*
G02*
X151055820Y-104406860I51000J0D01*
G01*
X151360620Y-104406860D01*
G75*
G02*
X151411620Y-104457860I0J-51000D01*
G01*
G37*
G36*
G01*
X151655060Y-105697380D02*
X151655060Y-104457860D01*
G75*
G02*
X151706060Y-104406860I51000J0D01*
G01*
X152010860Y-104406860D01*
G75*
G02*
X152061860Y-104457860I0J-51000D01*
G01*
X152061860Y-105697380D01*
G75*
G02*
X152010860Y-105748380I-51000J0D01*
G01*
X151706060Y-105748380D01*
G75*
G02*
X151655060Y-105697380I0J51000D01*
G01*
G37*
G36*
G01*
X152305300Y-105697380D02*
X152305300Y-104457860D01*
G75*
G02*
X152356300Y-104406860I51000J0D01*
G01*
X152661100Y-104406860D01*
G75*
G02*
X152712100Y-104457860I0J-51000D01*
G01*
X152712100Y-105697380D01*
G75*
G02*
X152661100Y-105748380I-51000J0D01*
G01*
X152356300Y-105748380D01*
G75*
G02*
X152305300Y-105697380I0J51000D01*
G01*
G37*
G36*
G01*
X152955540Y-105697380D02*
X152955540Y-104457860D01*
G75*
G02*
X153006540Y-104406860I51000J0D01*
G01*
X153311340Y-104406860D01*
G75*
G02*
X153362340Y-104457860I0J-51000D01*
G01*
X153362340Y-105697380D01*
G75*
G02*
X153311340Y-105748380I-51000J0D01*
G01*
X153006540Y-105748380D01*
G75*
G02*
X152955540Y-105697380I0J51000D01*
G01*
G37*
G36*
G01*
X153605780Y-105697380D02*
X153605780Y-104457860D01*
G75*
G02*
X153656780Y-104406860I51000J0D01*
G01*
X153961580Y-104406860D01*
G75*
G02*
X154012580Y-104457860I0J-51000D01*
G01*
X154012580Y-105697380D01*
G75*
G02*
X153961580Y-105748380I-51000J0D01*
G01*
X153656780Y-105748380D01*
G75*
G02*
X153605780Y-105697380I0J51000D01*
G01*
G37*
G36*
G01*
X154256020Y-105697380D02*
X154256020Y-104457860D01*
G75*
G02*
X154307020Y-104406860I51000J0D01*
G01*
X154611820Y-104406860D01*
G75*
G02*
X154662820Y-104457860I0J-51000D01*
G01*
X154662820Y-105697380D01*
G75*
G02*
X154611820Y-105748380I-51000J0D01*
G01*
X154307020Y-105748380D01*
G75*
G02*
X154256020Y-105697380I0J51000D01*
G01*
G37*
G36*
G01*
X154901180Y-105697380D02*
X154901180Y-104457860D01*
G75*
G02*
X154952180Y-104406860I51000J0D01*
G01*
X155256980Y-104406860D01*
G75*
G02*
X155307980Y-104457860I0J-51000D01*
G01*
X155307980Y-105697380D01*
G75*
G02*
X155256980Y-105748380I-51000J0D01*
G01*
X154952180Y-105748380D01*
G75*
G02*
X154901180Y-105697380I0J51000D01*
G01*
G37*
G36*
G01*
X155551420Y-105697380D02*
X155551420Y-104457860D01*
G75*
G02*
X155602420Y-104406860I51000J0D01*
G01*
X155907220Y-104406860D01*
G75*
G02*
X155958220Y-104457860I0J-51000D01*
G01*
X155958220Y-105697380D01*
G75*
G02*
X155907220Y-105748380I-51000J0D01*
G01*
X155602420Y-105748380D01*
G75*
G02*
X155551420Y-105697380I0J51000D01*
G01*
G37*
G36*
G01*
X156201660Y-105697380D02*
X156201660Y-104457860D01*
G75*
G02*
X156252660Y-104406860I51000J0D01*
G01*
X156557460Y-104406860D01*
G75*
G02*
X156608460Y-104457860I0J-51000D01*
G01*
X156608460Y-105697380D01*
G75*
G02*
X156557460Y-105748380I-51000J0D01*
G01*
X156252660Y-105748380D01*
G75*
G02*
X156201660Y-105697380I0J51000D01*
G01*
G37*
G36*
G01*
X156851900Y-105697380D02*
X156851900Y-104457860D01*
G75*
G02*
X156902900Y-104406860I51000J0D01*
G01*
X157207700Y-104406860D01*
G75*
G02*
X157258700Y-104457860I0J-51000D01*
G01*
X157258700Y-105697380D01*
G75*
G02*
X157207700Y-105748380I-51000J0D01*
G01*
X156902900Y-105748380D01*
G75*
G02*
X156851900Y-105697380I0J51000D01*
G01*
G37*
G36*
G01*
X157502140Y-105697380D02*
X157502140Y-104457860D01*
G75*
G02*
X157553140Y-104406860I51000J0D01*
G01*
X157857940Y-104406860D01*
G75*
G02*
X157908940Y-104457860I0J-51000D01*
G01*
X157908940Y-105697380D01*
G75*
G02*
X157857940Y-105748380I-51000J0D01*
G01*
X157553140Y-105748380D01*
G75*
G02*
X157502140Y-105697380I0J51000D01*
G01*
G37*
G36*
G01*
X158559180Y-104457860D02*
X158559180Y-105697380D01*
G75*
G02*
X158508180Y-105748380I-51000J0D01*
G01*
X158203380Y-105748380D01*
G75*
G02*
X158152380Y-105697380I0J51000D01*
G01*
X158152380Y-104457860D01*
G75*
G02*
X158203380Y-104406860I51000J0D01*
G01*
X158508180Y-104406860D01*
G75*
G02*
X158559180Y-104457860I0J-51000D01*
G01*
G37*
G36*
G01*
X159209420Y-104457860D02*
X159209420Y-105697380D01*
G75*
G02*
X159158420Y-105748380I-51000J0D01*
G01*
X158853620Y-105748380D01*
G75*
G02*
X158802620Y-105697380I0J51000D01*
G01*
X158802620Y-104457860D01*
G75*
G02*
X158853620Y-104406860I51000J0D01*
G01*
X159158420Y-104406860D01*
G75*
G02*
X159209420Y-104457860I0J-51000D01*
G01*
G37*
G36*
G01*
X158802620Y-111778140D02*
X158802620Y-110538620D01*
G75*
G02*
X158853620Y-110487620I51000J0D01*
G01*
X159158420Y-110487620D01*
G75*
G02*
X159209420Y-110538620I0J-51000D01*
G01*
X159209420Y-111778140D01*
G75*
G02*
X159158420Y-111829140I-51000J0D01*
G01*
X158853620Y-111829140D01*
G75*
G02*
X158802620Y-111778140I0J51000D01*
G01*
G37*
G36*
G01*
X158152380Y-111778140D02*
X158152380Y-110538620D01*
G75*
G02*
X158203380Y-110487620I51000J0D01*
G01*
X158508180Y-110487620D01*
G75*
G02*
X158559180Y-110538620I0J-51000D01*
G01*
X158559180Y-111778140D01*
G75*
G02*
X158508180Y-111829140I-51000J0D01*
G01*
X158203380Y-111829140D01*
G75*
G02*
X158152380Y-111778140I0J51000D01*
G01*
G37*
G36*
G01*
X157502140Y-111778140D02*
X157502140Y-110538620D01*
G75*
G02*
X157553140Y-110487620I51000J0D01*
G01*
X157857940Y-110487620D01*
G75*
G02*
X157908940Y-110538620I0J-51000D01*
G01*
X157908940Y-111778140D01*
G75*
G02*
X157857940Y-111829140I-51000J0D01*
G01*
X157553140Y-111829140D01*
G75*
G02*
X157502140Y-111778140I0J51000D01*
G01*
G37*
G36*
G01*
X156851900Y-111778140D02*
X156851900Y-110538620D01*
G75*
G02*
X156902900Y-110487620I51000J0D01*
G01*
X157207700Y-110487620D01*
G75*
G02*
X157258700Y-110538620I0J-51000D01*
G01*
X157258700Y-111778140D01*
G75*
G02*
X157207700Y-111829140I-51000J0D01*
G01*
X156902900Y-111829140D01*
G75*
G02*
X156851900Y-111778140I0J51000D01*
G01*
G37*
G36*
G01*
X156201660Y-111778140D02*
X156201660Y-110538620D01*
G75*
G02*
X156252660Y-110487620I51000J0D01*
G01*
X156557460Y-110487620D01*
G75*
G02*
X156608460Y-110538620I0J-51000D01*
G01*
X156608460Y-111778140D01*
G75*
G02*
X156557460Y-111829140I-51000J0D01*
G01*
X156252660Y-111829140D01*
G75*
G02*
X156201660Y-111778140I0J51000D01*
G01*
G37*
G36*
G01*
X155551420Y-111778140D02*
X155551420Y-110538620D01*
G75*
G02*
X155602420Y-110487620I51000J0D01*
G01*
X155907220Y-110487620D01*
G75*
G02*
X155958220Y-110538620I0J-51000D01*
G01*
X155958220Y-111778140D01*
G75*
G02*
X155907220Y-111829140I-51000J0D01*
G01*
X155602420Y-111829140D01*
G75*
G02*
X155551420Y-111778140I0J51000D01*
G01*
G37*
G36*
G01*
X154901180Y-111778140D02*
X154901180Y-110538620D01*
G75*
G02*
X154952180Y-110487620I51000J0D01*
G01*
X155256980Y-110487620D01*
G75*
G02*
X155307980Y-110538620I0J-51000D01*
G01*
X155307980Y-111778140D01*
G75*
G02*
X155256980Y-111829140I-51000J0D01*
G01*
X154952180Y-111829140D01*
G75*
G02*
X154901180Y-111778140I0J51000D01*
G01*
G37*
G36*
G01*
X154256020Y-111778140D02*
X154256020Y-110538620D01*
G75*
G02*
X154307020Y-110487620I51000J0D01*
G01*
X154611820Y-110487620D01*
G75*
G02*
X154662820Y-110538620I0J-51000D01*
G01*
X154662820Y-111778140D01*
G75*
G02*
X154611820Y-111829140I-51000J0D01*
G01*
X154307020Y-111829140D01*
G75*
G02*
X154256020Y-111778140I0J51000D01*
G01*
G37*
G36*
G01*
X153605780Y-111778140D02*
X153605780Y-110538620D01*
G75*
G02*
X153656780Y-110487620I51000J0D01*
G01*
X153961580Y-110487620D01*
G75*
G02*
X154012580Y-110538620I0J-51000D01*
G01*
X154012580Y-111778140D01*
G75*
G02*
X153961580Y-111829140I-51000J0D01*
G01*
X153656780Y-111829140D01*
G75*
G02*
X153605780Y-111778140I0J51000D01*
G01*
G37*
G36*
G01*
X152955540Y-111778140D02*
X152955540Y-110538620D01*
G75*
G02*
X153006540Y-110487620I51000J0D01*
G01*
X153311340Y-110487620D01*
G75*
G02*
X153362340Y-110538620I0J-51000D01*
G01*
X153362340Y-111778140D01*
G75*
G02*
X153311340Y-111829140I-51000J0D01*
G01*
X153006540Y-111829140D01*
G75*
G02*
X152955540Y-111778140I0J51000D01*
G01*
G37*
G36*
G01*
X152305300Y-111778140D02*
X152305300Y-110538620D01*
G75*
G02*
X152356300Y-110487620I51000J0D01*
G01*
X152661100Y-110487620D01*
G75*
G02*
X152712100Y-110538620I0J-51000D01*
G01*
X152712100Y-111778140D01*
G75*
G02*
X152661100Y-111829140I-51000J0D01*
G01*
X152356300Y-111829140D01*
G75*
G02*
X152305300Y-111778140I0J51000D01*
G01*
G37*
G36*
G01*
X151655060Y-111778140D02*
X151655060Y-110538620D01*
G75*
G02*
X151706060Y-110487620I51000J0D01*
G01*
X152010860Y-110487620D01*
G75*
G02*
X152061860Y-110538620I0J-51000D01*
G01*
X152061860Y-111778140D01*
G75*
G02*
X152010860Y-111829140I-51000J0D01*
G01*
X151706060Y-111829140D01*
G75*
G02*
X151655060Y-111778140I0J51000D01*
G01*
G37*
G36*
G01*
X151004820Y-111778140D02*
X151004820Y-110538620D01*
G75*
G02*
X151055820Y-110487620I51000J0D01*
G01*
X151360620Y-110487620D01*
G75*
G02*
X151411620Y-110538620I0J-51000D01*
G01*
X151411620Y-111778140D01*
G75*
G02*
X151360620Y-111829140I-51000J0D01*
G01*
X151055820Y-111829140D01*
G75*
G02*
X151004820Y-111778140I0J51000D01*
G01*
G37*
G36*
G01*
X150354580Y-111778140D02*
X150354580Y-110538620D01*
G75*
G02*
X150405580Y-110487620I51000J0D01*
G01*
X150710380Y-110487620D01*
G75*
G02*
X150761380Y-110538620I0J-51000D01*
G01*
X150761380Y-111778140D01*
G75*
G02*
X150710380Y-111829140I-51000J0D01*
G01*
X150405580Y-111829140D01*
G75*
G02*
X150354580Y-111778140I0J51000D01*
G01*
G37*
G36*
G01*
X167708000Y-102261615D02*
X167708000Y-103574385D01*
G75*
G02*
X167438385Y-103844000I-269615J0D01*
G01*
X166575615Y-103844000D01*
G75*
G02*
X166306000Y-103574385I0J269615D01*
G01*
X166306000Y-102261615D01*
G75*
G02*
X166575615Y-101992000I269615J0D01*
G01*
X167438385Y-101992000D01*
G75*
G02*
X167708000Y-102261615I0J-269615D01*
G01*
G37*
G36*
G01*
X170808000Y-102261615D02*
X170808000Y-103574385D01*
G75*
G02*
X170538385Y-103844000I-269615J0D01*
G01*
X169675615Y-103844000D01*
G75*
G02*
X169406000Y-103574385I0J269615D01*
G01*
X169406000Y-102261615D01*
G75*
G02*
X169675615Y-101992000I269615J0D01*
G01*
X170538385Y-101992000D01*
G75*
G02*
X170808000Y-102261615I0J-269615D01*
G01*
G37*
G36*
G01*
X167708000Y-104836615D02*
X167708000Y-106149385D01*
G75*
G02*
X167438385Y-106419000I-269615J0D01*
G01*
X166575615Y-106419000D01*
G75*
G02*
X166306000Y-106149385I0J269615D01*
G01*
X166306000Y-104836615D01*
G75*
G02*
X166575615Y-104567000I269615J0D01*
G01*
X167438385Y-104567000D01*
G75*
G02*
X167708000Y-104836615I0J-269615D01*
G01*
G37*
G36*
G01*
X170808000Y-104836615D02*
X170808000Y-106149385D01*
G75*
G02*
X170538385Y-106419000I-269615J0D01*
G01*
X169675615Y-106419000D01*
G75*
G02*
X169406000Y-106149385I0J269615D01*
G01*
X169406000Y-104836615D01*
G75*
G02*
X169675615Y-104567000I269615J0D01*
G01*
X170538385Y-104567000D01*
G75*
G02*
X170808000Y-104836615I0J-269615D01*
G01*
G37*
G36*
G01*
X143869000Y-115517000D02*
X144395000Y-115517000D01*
G75*
G02*
X144658000Y-115780000I0J-263000D01*
G01*
X144658000Y-116431000D01*
G75*
G02*
X144395000Y-116694000I-263000J0D01*
G01*
X143869000Y-116694000D01*
G75*
G02*
X143606000Y-116431000I0J263000D01*
G01*
X143606000Y-115780000D01*
G75*
G02*
X143869000Y-115517000I263000J0D01*
G01*
G37*
G36*
G01*
X143869000Y-113792000D02*
X144395000Y-113792000D01*
G75*
G02*
X144658000Y-114055000I0J-263000D01*
G01*
X144658000Y-114706000D01*
G75*
G02*
X144395000Y-114969000I-263000J0D01*
G01*
X143869000Y-114969000D01*
G75*
G02*
X143606000Y-114706000I0J263000D01*
G01*
X143606000Y-114055000D01*
G75*
G02*
X143869000Y-113792000I263000J0D01*
G01*
G37*
G36*
G01*
X157695000Y-115369000D02*
X157169000Y-115369000D01*
G75*
G02*
X156906000Y-115106000I0J263000D01*
G01*
X156906000Y-114455000D01*
G75*
G02*
X157169000Y-114192000I263000J0D01*
G01*
X157695000Y-114192000D01*
G75*
G02*
X157958000Y-114455000I0J-263000D01*
G01*
X157958000Y-115106000D01*
G75*
G02*
X157695000Y-115369000I-263000J0D01*
G01*
G37*
G36*
G01*
X157695000Y-117094000D02*
X157169000Y-117094000D01*
G75*
G02*
X156906000Y-116831000I0J263000D01*
G01*
X156906000Y-116180000D01*
G75*
G02*
X157169000Y-115917000I263000J0D01*
G01*
X157695000Y-115917000D01*
G75*
G02*
X157958000Y-116180000I0J-263000D01*
G01*
X157958000Y-116831000D01*
G75*
G02*
X157695000Y-117094000I-263000J0D01*
G01*
G37*
G36*
G01*
X153669000Y-115917000D02*
X154195000Y-115917000D01*
G75*
G02*
X154458000Y-116180000I0J-263000D01*
G01*
X154458000Y-116831000D01*
G75*
G02*
X154195000Y-117094000I-263000J0D01*
G01*
X153669000Y-117094000D01*
G75*
G02*
X153406000Y-116831000I0J263000D01*
G01*
X153406000Y-116180000D01*
G75*
G02*
X153669000Y-115917000I263000J0D01*
G01*
G37*
G36*
G01*
X153669000Y-114192000D02*
X154195000Y-114192000D01*
G75*
G02*
X154458000Y-114455000I0J-263000D01*
G01*
X154458000Y-115106000D01*
G75*
G02*
X154195000Y-115369000I-263000J0D01*
G01*
X153669000Y-115369000D01*
G75*
G02*
X153406000Y-115106000I0J263000D01*
G01*
X153406000Y-114455000D01*
G75*
G02*
X153669000Y-114192000I263000J0D01*
G01*
G37*
G36*
G01*
X155945000Y-115369000D02*
X155419000Y-115369000D01*
G75*
G02*
X155156000Y-115106000I0J263000D01*
G01*
X155156000Y-114455000D01*
G75*
G02*
X155419000Y-114192000I263000J0D01*
G01*
X155945000Y-114192000D01*
G75*
G02*
X156208000Y-114455000I0J-263000D01*
G01*
X156208000Y-115106000D01*
G75*
G02*
X155945000Y-115369000I-263000J0D01*
G01*
G37*
G36*
G01*
X155945000Y-117094000D02*
X155419000Y-117094000D01*
G75*
G02*
X155156000Y-116831000I0J263000D01*
G01*
X155156000Y-116180000D01*
G75*
G02*
X155419000Y-115917000I263000J0D01*
G01*
X155945000Y-115917000D01*
G75*
G02*
X156208000Y-116180000I0J-263000D01*
G01*
X156208000Y-116831000D01*
G75*
G02*
X155945000Y-117094000I-263000J0D01*
G01*
G37*
G36*
G01*
X150706000Y-114472298D02*
X150706000Y-113463702D01*
G75*
G02*
X150977702Y-113192000I271702J0D01*
G01*
X151711298Y-113192000D01*
G75*
G02*
X151983000Y-113463702I0J-271702D01*
G01*
X151983000Y-114472298D01*
G75*
G02*
X151711298Y-114744000I-271702J0D01*
G01*
X150977702Y-114744000D01*
G75*
G02*
X150706000Y-114472298I0J271702D01*
G01*
G37*
G36*
G01*
X148631000Y-114472298D02*
X148631000Y-113463702D01*
G75*
G02*
X148902702Y-113192000I271702J0D01*
G01*
X149636298Y-113192000D01*
G75*
G02*
X149908000Y-113463702I0J-271702D01*
G01*
X149908000Y-114472298D01*
G75*
G02*
X149636298Y-114744000I-271702J0D01*
G01*
X148902702Y-114744000D01*
G75*
G02*
X148631000Y-114472298I0J271702D01*
G01*
G37*
D10*
X121007000Y-74343000D03*
D11*
X177282000Y-73143000D03*
X174742000Y-73143000D03*
X172202000Y-73143000D03*
X169662000Y-73143000D03*
X167122000Y-73143000D03*
G36*
G01*
X165432000Y-74044000D02*
X163732000Y-74044000D01*
G75*
G02*
X163681000Y-73993000I0J51000D01*
G01*
X163681000Y-72293000D01*
G75*
G02*
X163732000Y-72242000I51000J0D01*
G01*
X165432000Y-72242000D01*
G75*
G02*
X165483000Y-72293000I0J-51000D01*
G01*
X165483000Y-73993000D01*
G75*
G02*
X165432000Y-74044000I-51000J0D01*
G01*
G37*
G36*
G01*
X162413385Y-105319000D02*
X161100615Y-105319000D01*
G75*
G02*
X160831000Y-105049385I0J269615D01*
G01*
X160831000Y-104186615D01*
G75*
G02*
X161100615Y-103917000I269615J0D01*
G01*
X162413385Y-103917000D01*
G75*
G02*
X162683000Y-104186615I0J-269615D01*
G01*
X162683000Y-105049385D01*
G75*
G02*
X162413385Y-105319000I-269615J0D01*
G01*
G37*
G36*
G01*
X162413385Y-108419000D02*
X161100615Y-108419000D01*
G75*
G02*
X160831000Y-108149385I0J269615D01*
G01*
X160831000Y-107286615D01*
G75*
G02*
X161100615Y-107017000I269615J0D01*
G01*
X162413385Y-107017000D01*
G75*
G02*
X162683000Y-107286615I0J-269615D01*
G01*
X162683000Y-108149385D01*
G75*
G02*
X162413385Y-108419000I-269615J0D01*
G01*
G37*
D12*
X127282000Y-76343000D03*
X130782000Y-76343000D03*
G36*
G01*
X135533000Y-75143000D02*
X135533000Y-77543000D01*
G75*
G02*
X135482000Y-77594000I-51000J0D01*
G01*
X133082000Y-77594000D01*
G75*
G02*
X133031000Y-77543000I0J51000D01*
G01*
X133031000Y-75143000D01*
G75*
G02*
X133082000Y-75092000I51000J0D01*
G01*
X135482000Y-75092000D01*
G75*
G02*
X135533000Y-75143000I0J-51000D01*
G01*
G37*
D13*
X155532000Y-87543000D03*
G36*
G01*
X154732000Y-83192000D02*
X156332000Y-83192000D01*
G75*
G02*
X156383000Y-83243000I0J-51000D01*
G01*
X156383000Y-84843000D01*
G75*
G02*
X156332000Y-84894000I-51000J0D01*
G01*
X154732000Y-84894000D01*
G75*
G02*
X154681000Y-84843000I0J51000D01*
G01*
X154681000Y-83243000D01*
G75*
G02*
X154732000Y-83192000I51000J0D01*
G01*
G37*
D12*
X139282000Y-76343000D03*
G36*
G01*
X144033000Y-75143000D02*
X144033000Y-77543000D01*
G75*
G02*
X143982000Y-77594000I-51000J0D01*
G01*
X141582000Y-77594000D01*
G75*
G02*
X141531000Y-77543000I0J51000D01*
G01*
X141531000Y-75143000D01*
G75*
G02*
X141582000Y-75092000I51000J0D01*
G01*
X143982000Y-75092000D01*
G75*
G02*
X144033000Y-75143000I0J-51000D01*
G01*
G37*
X147782000Y-76343000D03*
G36*
G01*
X152533000Y-75143000D02*
X152533000Y-77543000D01*
G75*
G02*
X152482000Y-77594000I-51000J0D01*
G01*
X150082000Y-77594000D01*
G75*
G02*
X150031000Y-77543000I0J51000D01*
G01*
X150031000Y-75143000D01*
G75*
G02*
X150082000Y-75092000I51000J0D01*
G01*
X152482000Y-75092000D01*
G75*
G02*
X152533000Y-75143000I0J-51000D01*
G01*
G37*
D14*
X163282000Y-87023000D03*
X163282000Y-84483000D03*
G36*
G01*
X164182000Y-82894000D02*
X162382000Y-82894000D01*
G75*
G02*
X162331000Y-82843000I0J51000D01*
G01*
X162331000Y-81043000D01*
G75*
G02*
X162382000Y-80992000I51000J0D01*
G01*
X164182000Y-80992000D01*
G75*
G02*
X164233000Y-81043000I0J-51000D01*
G01*
X164233000Y-82843000D01*
G75*
G02*
X164182000Y-82894000I-51000J0D01*
G01*
G37*
D12*
X156282000Y-76343000D03*
G36*
G01*
X161033000Y-75143000D02*
X161033000Y-77543000D01*
G75*
G02*
X160982000Y-77594000I-51000J0D01*
G01*
X158582000Y-77594000D01*
G75*
G02*
X158531000Y-77543000I0J51000D01*
G01*
X158531000Y-75143000D01*
G75*
G02*
X158582000Y-75092000I51000J0D01*
G01*
X160982000Y-75092000D01*
G75*
G02*
X161033000Y-75143000I0J-51000D01*
G01*
G37*
D15*
X127397000Y-87793000D03*
X129937000Y-87793000D03*
X132477000Y-87793000D03*
X135017000Y-87793000D03*
X137557000Y-87793000D03*
X140097000Y-87793000D03*
X142637000Y-87793000D03*
X145177000Y-87793000D03*
X147717000Y-87793000D03*
D13*
X168757000Y-119921000D03*
X166217000Y-119921000D03*
X163677000Y-119921000D03*
X161137000Y-119921000D03*
X158597000Y-119921000D03*
X156057000Y-119921000D03*
X153517000Y-119921000D03*
X150977000Y-119921000D03*
X148437000Y-119921000D03*
X145897000Y-119921000D03*
X143357000Y-119921000D03*
X140817000Y-119921000D03*
G36*
G01*
X131457000Y-100452000D02*
X129857000Y-100452000D01*
G75*
G02*
X129806000Y-100401000I0J51000D01*
G01*
X129806000Y-98801000D01*
G75*
G02*
X129857000Y-98750000I51000J0D01*
G01*
X131457000Y-98750000D01*
G75*
G02*
X131508000Y-98801000I0J-51000D01*
G01*
X131508000Y-100401000D01*
G75*
G02*
X131457000Y-100452000I-51000J0D01*
G01*
G37*
X133197000Y-99601000D03*
X135737000Y-99601000D03*
X138277000Y-99601000D03*
X140817000Y-99601000D03*
X143357000Y-99601000D03*
X145897000Y-99601000D03*
X148437000Y-99601000D03*
X150977000Y-99601000D03*
X153517000Y-99601000D03*
X156057000Y-99601000D03*
X158597000Y-99601000D03*
X161137000Y-99601000D03*
X163677000Y-99601000D03*
X166217000Y-99601000D03*
X168757000Y-99601000D03*
G36*
G01*
X125052000Y-94937000D02*
X126752000Y-94937000D01*
G75*
G02*
X126803000Y-94988000I0J-51000D01*
G01*
X126803000Y-96688000D01*
G75*
G02*
X126752000Y-96739000I-51000J0D01*
G01*
X125052000Y-96739000D01*
G75*
G02*
X125001000Y-96688000I0J51000D01*
G01*
X125001000Y-94988000D01*
G75*
G02*
X125052000Y-94937000I51000J0D01*
G01*
G37*
D11*
X125902000Y-93298000D03*
X128442000Y-95838000D03*
X128442000Y-93298000D03*
X130982000Y-95838000D03*
X130982000Y-93298000D03*
X133522000Y-95838000D03*
X133522000Y-93298000D03*
X136062000Y-95838000D03*
X136062000Y-93298000D03*
X138602000Y-95838000D03*
X138602000Y-93298000D03*
X141142000Y-95838000D03*
X141142000Y-93298000D03*
X143682000Y-95838000D03*
X143682000Y-93298000D03*
X146222000Y-95838000D03*
X146222000Y-93298000D03*
X148762000Y-95838000D03*
X148762000Y-93298000D03*
X151302000Y-95838000D03*
X151302000Y-93298000D03*
X153842000Y-95838000D03*
X153842000Y-93298000D03*
X156382000Y-95838000D03*
X156382000Y-93298000D03*
X158922000Y-95838000D03*
X158922000Y-93298000D03*
X161462000Y-95838000D03*
X161462000Y-93298000D03*
X164002000Y-95838000D03*
X164002000Y-93298000D03*
X166542000Y-95838000D03*
X166542000Y-93298000D03*
X169082000Y-95838000D03*
X169082000Y-93298000D03*
X171622000Y-95838000D03*
X171622000Y-93298000D03*
X174162000Y-95838000D03*
X174162000Y-93298000D03*
D10*
X179032000Y-117568000D03*
X121032000Y-117568000D03*
D16*
G36*
X158804352Y-110486620D02*
G01*
X158804620Y-110487620D01*
X158804620Y-111829140D01*
X158803620Y-111830872D01*
X158802620Y-111831140D01*
X158559180Y-111831140D01*
X158557448Y-111830140D01*
X158557180Y-111829140D01*
X158557180Y-110487620D01*
X158558180Y-110485888D01*
X158559180Y-110485620D01*
X158802620Y-110485620D01*
X158804352Y-110486620D01*
G37*
G36*
X151006552Y-110486620D02*
G01*
X151006820Y-110487620D01*
X151006820Y-111829140D01*
X151005820Y-111830872D01*
X151004820Y-111831140D01*
X150761380Y-111831140D01*
X150759648Y-111830140D01*
X150759380Y-111829140D01*
X150759380Y-110487620D01*
X150760380Y-110485888D01*
X150761380Y-110485620D01*
X151004820Y-110485620D01*
X151006552Y-110486620D01*
G37*
G36*
X158154112Y-110486620D02*
G01*
X158154380Y-110487620D01*
X158154380Y-111829140D01*
X158153380Y-111830872D01*
X158152380Y-111831140D01*
X157908940Y-111831140D01*
X157907208Y-111830140D01*
X157906940Y-111829140D01*
X157906940Y-110487620D01*
X157907940Y-110485888D01*
X157908940Y-110485620D01*
X158152380Y-110485620D01*
X158154112Y-110486620D01*
G37*
G36*
X157503872Y-110486620D02*
G01*
X157504140Y-110487620D01*
X157504140Y-111829140D01*
X157503140Y-111830872D01*
X157502140Y-111831140D01*
X157258700Y-111831140D01*
X157256968Y-111830140D01*
X157256700Y-111829140D01*
X157256700Y-110487620D01*
X157257700Y-110485888D01*
X157258700Y-110485620D01*
X157502140Y-110485620D01*
X157503872Y-110486620D01*
G37*
G36*
X156853632Y-110486620D02*
G01*
X156853900Y-110487620D01*
X156853900Y-111829140D01*
X156852900Y-111830872D01*
X156851900Y-111831140D01*
X156608460Y-111831140D01*
X156606728Y-111830140D01*
X156606460Y-111829140D01*
X156606460Y-110487620D01*
X156607460Y-110485888D01*
X156608460Y-110485620D01*
X156851900Y-110485620D01*
X156853632Y-110486620D01*
G37*
G36*
X156203392Y-110486620D02*
G01*
X156203660Y-110487620D01*
X156203660Y-111829140D01*
X156202660Y-111830872D01*
X156201660Y-111831140D01*
X155958220Y-111831140D01*
X155956488Y-111830140D01*
X155956220Y-111829140D01*
X155956220Y-110487620D01*
X155957220Y-110485888D01*
X155958220Y-110485620D01*
X156201660Y-110485620D01*
X156203392Y-110486620D01*
G37*
G36*
X155553152Y-110486620D02*
G01*
X155553420Y-110487620D01*
X155553420Y-111829140D01*
X155552420Y-111830872D01*
X155551420Y-111831140D01*
X155307980Y-111831140D01*
X155306248Y-111830140D01*
X155305980Y-111829140D01*
X155305980Y-110487620D01*
X155306980Y-110485888D01*
X155307980Y-110485620D01*
X155551420Y-110485620D01*
X155553152Y-110486620D01*
G37*
G36*
X154902912Y-110486620D02*
G01*
X154903180Y-110487620D01*
X154903180Y-111829140D01*
X154902180Y-111830872D01*
X154901180Y-111831140D01*
X154662820Y-111831140D01*
X154661088Y-111830140D01*
X154660820Y-111829140D01*
X154660820Y-110487620D01*
X154661820Y-110485888D01*
X154662820Y-110485620D01*
X154901180Y-110485620D01*
X154902912Y-110486620D01*
G37*
G36*
X154257752Y-110486620D02*
G01*
X154258020Y-110487620D01*
X154258020Y-111829140D01*
X154257020Y-111830872D01*
X154256020Y-111831140D01*
X154012580Y-111831140D01*
X154010848Y-111830140D01*
X154010580Y-111829140D01*
X154010580Y-110487620D01*
X154011580Y-110485888D01*
X154012580Y-110485620D01*
X154256020Y-110485620D01*
X154257752Y-110486620D01*
G37*
G36*
X153607512Y-110486620D02*
G01*
X153607780Y-110487620D01*
X153607780Y-111829140D01*
X153606780Y-111830872D01*
X153605780Y-111831140D01*
X153362340Y-111831140D01*
X153360608Y-111830140D01*
X153360340Y-111829140D01*
X153360340Y-110487620D01*
X153361340Y-110485888D01*
X153362340Y-110485620D01*
X153605780Y-110485620D01*
X153607512Y-110486620D01*
G37*
G36*
X152957272Y-110486620D02*
G01*
X152957540Y-110487620D01*
X152957540Y-111829140D01*
X152956540Y-111830872D01*
X152955540Y-111831140D01*
X152712100Y-111831140D01*
X152710368Y-111830140D01*
X152710100Y-111829140D01*
X152710100Y-110487620D01*
X152711100Y-110485888D01*
X152712100Y-110485620D01*
X152955540Y-110485620D01*
X152957272Y-110486620D01*
G37*
G36*
X152307032Y-110486620D02*
G01*
X152307300Y-110487620D01*
X152307300Y-111829140D01*
X152306300Y-111830872D01*
X152305300Y-111831140D01*
X152061860Y-111831140D01*
X152060128Y-111830140D01*
X152059860Y-111829140D01*
X152059860Y-110487620D01*
X152060860Y-110485888D01*
X152061860Y-110485620D01*
X152305300Y-110485620D01*
X152307032Y-110486620D01*
G37*
G36*
X151656792Y-110486620D02*
G01*
X151657060Y-110487620D01*
X151657060Y-111829140D01*
X151656060Y-111830872D01*
X151655060Y-111831140D01*
X151411620Y-111831140D01*
X151409888Y-111830140D01*
X151409620Y-111829140D01*
X151409620Y-110487620D01*
X151410620Y-110485888D01*
X151411620Y-110485620D01*
X151655060Y-110485620D01*
X151656792Y-110486620D01*
G37*
G36*
X155553152Y-104405860D02*
G01*
X155553420Y-104406860D01*
X155553420Y-105748380D01*
X155552420Y-105750112D01*
X155551420Y-105750380D01*
X155307980Y-105750380D01*
X155306248Y-105749380D01*
X155305980Y-105748380D01*
X155305980Y-104406860D01*
X155306980Y-104405128D01*
X155307980Y-104404860D01*
X155551420Y-104404860D01*
X155553152Y-104405860D01*
G37*
G36*
X151656792Y-104405860D02*
G01*
X151657060Y-104406860D01*
X151657060Y-105748380D01*
X151656060Y-105750112D01*
X151655060Y-105750380D01*
X151411620Y-105750380D01*
X151409888Y-105749380D01*
X151409620Y-105748380D01*
X151409620Y-104406860D01*
X151410620Y-104405128D01*
X151411620Y-104404860D01*
X151655060Y-104404860D01*
X151656792Y-104405860D01*
G37*
G36*
X151006552Y-104405860D02*
G01*
X151006820Y-104406860D01*
X151006820Y-105748380D01*
X151005820Y-105750112D01*
X151004820Y-105750380D01*
X150761380Y-105750380D01*
X150759648Y-105749380D01*
X150759380Y-105748380D01*
X150759380Y-104406860D01*
X150760380Y-104405128D01*
X150761380Y-104404860D01*
X151004820Y-104404860D01*
X151006552Y-104405860D01*
G37*
G36*
X152307032Y-104405860D02*
G01*
X152307300Y-104406860D01*
X152307300Y-105748380D01*
X152306300Y-105750112D01*
X152305300Y-105750380D01*
X152061860Y-105750380D01*
X152060128Y-105749380D01*
X152059860Y-105748380D01*
X152059860Y-104406860D01*
X152060860Y-104405128D01*
X152061860Y-104404860D01*
X152305300Y-104404860D01*
X152307032Y-104405860D01*
G37*
G36*
X152957272Y-104405860D02*
G01*
X152957540Y-104406860D01*
X152957540Y-105748380D01*
X152956540Y-105750112D01*
X152955540Y-105750380D01*
X152712100Y-105750380D01*
X152710368Y-105749380D01*
X152710100Y-105748380D01*
X152710100Y-104406860D01*
X152711100Y-104405128D01*
X152712100Y-104404860D01*
X152955540Y-104404860D01*
X152957272Y-104405860D01*
G37*
G36*
X153607512Y-104405860D02*
G01*
X153607780Y-104406860D01*
X153607780Y-105748380D01*
X153606780Y-105750112D01*
X153605780Y-105750380D01*
X153362340Y-105750380D01*
X153360608Y-105749380D01*
X153360340Y-105748380D01*
X153360340Y-104406860D01*
X153361340Y-104405128D01*
X153362340Y-104404860D01*
X153605780Y-104404860D01*
X153607512Y-104405860D01*
G37*
G36*
X154257752Y-104405860D02*
G01*
X154258020Y-104406860D01*
X154258020Y-105748380D01*
X154257020Y-105750112D01*
X154256020Y-105750380D01*
X154012580Y-105750380D01*
X154010848Y-105749380D01*
X154010580Y-105748380D01*
X154010580Y-104406860D01*
X154011580Y-104405128D01*
X154012580Y-104404860D01*
X154256020Y-104404860D01*
X154257752Y-104405860D01*
G37*
G36*
X154902912Y-104405860D02*
G01*
X154903180Y-104406860D01*
X154903180Y-105748380D01*
X154902180Y-105750112D01*
X154901180Y-105750380D01*
X154662820Y-105750380D01*
X154661088Y-105749380D01*
X154660820Y-105748380D01*
X154660820Y-104406860D01*
X154661820Y-104405128D01*
X154662820Y-104404860D01*
X154901180Y-104404860D01*
X154902912Y-104405860D01*
G37*
G36*
X158804352Y-104405860D02*
G01*
X158804620Y-104406860D01*
X158804620Y-105748380D01*
X158803620Y-105750112D01*
X158802620Y-105750380D01*
X158559180Y-105750380D01*
X158557448Y-105749380D01*
X158557180Y-105748380D01*
X158557180Y-104406860D01*
X158558180Y-104405128D01*
X158559180Y-104404860D01*
X158802620Y-104404860D01*
X158804352Y-104405860D01*
G37*
G36*
X158154112Y-104405860D02*
G01*
X158154380Y-104406860D01*
X158154380Y-105748380D01*
X158153380Y-105750112D01*
X158152380Y-105750380D01*
X157908940Y-105750380D01*
X157907208Y-105749380D01*
X157906940Y-105748380D01*
X157906940Y-104406860D01*
X157907940Y-104405128D01*
X157908940Y-104404860D01*
X158152380Y-104404860D01*
X158154112Y-104405860D01*
G37*
G36*
X157503872Y-104405860D02*
G01*
X157504140Y-104406860D01*
X157504140Y-105748380D01*
X157503140Y-105750112D01*
X157502140Y-105750380D01*
X157258700Y-105750380D01*
X157256968Y-105749380D01*
X157256700Y-105748380D01*
X157256700Y-104406860D01*
X157257700Y-104405128D01*
X157258700Y-104404860D01*
X157502140Y-104404860D01*
X157503872Y-104405860D01*
G37*
G36*
X156853632Y-104405860D02*
G01*
X156853900Y-104406860D01*
X156853900Y-105748380D01*
X156852900Y-105750112D01*
X156851900Y-105750380D01*
X156608460Y-105750380D01*
X156606728Y-105749380D01*
X156606460Y-105748380D01*
X156606460Y-104406860D01*
X156607460Y-104405128D01*
X156608460Y-104404860D01*
X156851900Y-104404860D01*
X156853632Y-104405860D01*
G37*
G36*
X156203392Y-104405860D02*
G01*
X156203660Y-104406860D01*
X156203660Y-105748380D01*
X156202660Y-105750112D01*
X156201660Y-105750380D01*
X155958220Y-105750380D01*
X155956488Y-105749380D01*
X155956220Y-105748380D01*
X155956220Y-104406860D01*
X155957220Y-104405128D01*
X155958220Y-104404860D01*
X156201660Y-104404860D01*
X156203392Y-104405860D01*
G37*
M02*
