G04 #@! TF.GenerationSoftware,KiCad,Pcbnew,(5.1.10-1-10_14)*
G04 #@! TF.CreationDate,2021-07-05T16:27:43+02:00*
G04 #@! TF.ProjectId,cablebot_camera,6361626c-6562-46f7-945f-63616d657261,1.0*
G04 #@! TF.SameCoordinates,Original*
G04 #@! TF.FileFunction,Copper,L2,Bot*
G04 #@! TF.FilePolarity,Positive*
%FSLAX46Y46*%
G04 Gerber Fmt 4.6, Leading zero omitted, Abs format (unit mm)*
G04 Created by KiCad (PCBNEW (5.1.10-1-10_14)) date 2021-07-05 16:27:43*
%MOMM*%
%LPD*%
G01*
G04 APERTURE LIST*
G04 #@! TA.AperFunction,EtchedComponent*
%ADD10C,0.101600*%
G04 #@! TD*
G04 #@! TA.AperFunction,ComponentPad*
%ADD11O,1.700000X1.700000*%
G04 #@! TD*
G04 #@! TA.AperFunction,ComponentPad*
%ADD12R,1.700000X1.700000*%
G04 #@! TD*
G04 #@! TA.AperFunction,ComponentPad*
%ADD13C,2.400000*%
G04 #@! TD*
G04 #@! TA.AperFunction,ComponentPad*
%ADD14R,2.400000X2.400000*%
G04 #@! TD*
G04 #@! TA.AperFunction,ComponentPad*
%ADD15C,1.600000*%
G04 #@! TD*
G04 #@! TA.AperFunction,ComponentPad*
%ADD16R,1.600000X1.600000*%
G04 #@! TD*
G04 #@! TA.AperFunction,ComponentPad*
%ADD17C,1.800000*%
G04 #@! TD*
G04 #@! TA.AperFunction,ComponentPad*
%ADD18R,1.800000X1.800000*%
G04 #@! TD*
G04 #@! TA.AperFunction,ComponentPad*
%ADD19C,1.524000*%
G04 #@! TD*
G04 #@! TA.AperFunction,ViaPad*
%ADD20C,0.800000*%
G04 #@! TD*
G04 #@! TA.AperFunction,ViaPad*
%ADD21C,1.574800*%
G04 #@! TD*
G04 #@! TA.AperFunction,Conductor*
%ADD22C,0.250000*%
G04 #@! TD*
G04 #@! TA.AperFunction,Conductor*
%ADD23C,0.400000*%
G04 #@! TD*
G04 #@! TA.AperFunction,Conductor*
%ADD24C,1.000000*%
G04 #@! TD*
G04 #@! TA.AperFunction,Conductor*
%ADD25C,0.254000*%
G04 #@! TD*
G04 #@! TA.AperFunction,Conductor*
%ADD26C,0.100000*%
G04 #@! TD*
G04 APERTURE END LIST*
D10*
X152407100Y-111417460D02*
X152407100Y-110398920D01*
X152407100Y-110398920D02*
X152610300Y-110398920D01*
X152610300Y-111417460D02*
X152610300Y-110398920D01*
X152407100Y-111417460D02*
X152610300Y-111417460D01*
D11*
X177282000Y-73143000D03*
X174742000Y-73143000D03*
X172202000Y-73143000D03*
X169662000Y-73143000D03*
X167122000Y-73143000D03*
D12*
X164582000Y-73143000D03*
D13*
X127282000Y-76343000D03*
X130782000Y-76343000D03*
D14*
X134282000Y-76343000D03*
D15*
X155532000Y-87543000D03*
D16*
X155532000Y-84043000D03*
D13*
X139282000Y-76343000D03*
D14*
X142782000Y-76343000D03*
D13*
X147782000Y-76343000D03*
D14*
X151282000Y-76343000D03*
D17*
X163282000Y-87023000D03*
X163282000Y-84483000D03*
D18*
X163282000Y-81943000D03*
D13*
X156282000Y-76343000D03*
D14*
X159782000Y-76343000D03*
D19*
X127397000Y-87793000D03*
X129937000Y-87793000D03*
X132477000Y-87793000D03*
X135017000Y-87793000D03*
X137557000Y-87793000D03*
X140097000Y-87793000D03*
X142637000Y-87793000D03*
X145177000Y-87793000D03*
X147717000Y-87793000D03*
D15*
X168757000Y-119921000D03*
X166217000Y-119921000D03*
X163677000Y-119921000D03*
X161137000Y-119921000D03*
X158597000Y-119921000D03*
X156057000Y-119921000D03*
X153517000Y-119921000D03*
X150977000Y-119921000D03*
X148437000Y-119921000D03*
X145897000Y-119921000D03*
X143357000Y-119921000D03*
X140817000Y-119921000D03*
D16*
X130657000Y-99601000D03*
D15*
X133197000Y-99601000D03*
X135737000Y-99601000D03*
X138277000Y-99601000D03*
X140817000Y-99601000D03*
X143357000Y-99601000D03*
X145897000Y-99601000D03*
X148437000Y-99601000D03*
X150977000Y-99601000D03*
X153517000Y-99601000D03*
X156057000Y-99601000D03*
X158597000Y-99601000D03*
X161137000Y-99601000D03*
X163677000Y-99601000D03*
X166217000Y-99601000D03*
X168757000Y-99601000D03*
D12*
X125902000Y-95838000D03*
D11*
X125902000Y-93298000D03*
X128442000Y-95838000D03*
X128442000Y-93298000D03*
X130982000Y-95838000D03*
X130982000Y-93298000D03*
X133522000Y-95838000D03*
X133522000Y-93298000D03*
X136062000Y-95838000D03*
X136062000Y-93298000D03*
X138602000Y-95838000D03*
X138602000Y-93298000D03*
X141142000Y-95838000D03*
X141142000Y-93298000D03*
X143682000Y-95838000D03*
X143682000Y-93298000D03*
X146222000Y-95838000D03*
X146222000Y-93298000D03*
X148762000Y-95838000D03*
X148762000Y-93298000D03*
X151302000Y-95838000D03*
X151302000Y-93298000D03*
X153842000Y-95838000D03*
X153842000Y-93298000D03*
X156382000Y-95838000D03*
X156382000Y-93298000D03*
X158922000Y-95838000D03*
X158922000Y-93298000D03*
X161462000Y-95838000D03*
X161462000Y-93298000D03*
X164002000Y-95838000D03*
X164002000Y-93298000D03*
X166542000Y-95838000D03*
X166542000Y-93298000D03*
X169082000Y-95838000D03*
X169082000Y-93298000D03*
X171622000Y-95838000D03*
X171622000Y-93298000D03*
X174162000Y-95838000D03*
X174162000Y-93298000D03*
D20*
X150557000Y-103518000D03*
X150457000Y-91393000D03*
X165582000Y-106293000D03*
X166632001Y-107592999D03*
X167122000Y-85578000D03*
D21*
X163832000Y-113618000D03*
X179207000Y-92118000D03*
D20*
X156306979Y-102776039D03*
X155132000Y-102768000D03*
X154057000Y-102768000D03*
X158332364Y-103040577D03*
X159332000Y-103068000D03*
X156251326Y-112750836D03*
X155261512Y-112893217D03*
X154261512Y-113068010D03*
X168307000Y-77568000D03*
X161382000Y-109343000D03*
X163357000Y-118068000D03*
D22*
X141142000Y-89288000D02*
X141142000Y-93298000D01*
X142637000Y-87793000D02*
X141142000Y-89288000D01*
X138277000Y-98053000D02*
X138277000Y-99601000D01*
X136062000Y-95838000D02*
X138277000Y-98053000D01*
D23*
X159482000Y-73143000D02*
X156282000Y-76343000D01*
X164582000Y-73143000D02*
X159482000Y-73143000D01*
D24*
X153007000Y-73068000D02*
X156282000Y-76343000D01*
X140232000Y-73068000D02*
X153007000Y-73068000D01*
X139282000Y-74018000D02*
X140232000Y-73068000D01*
X139282000Y-76343000D02*
X139282000Y-74018000D01*
D23*
X174162000Y-97138000D02*
X174162000Y-95838000D01*
X171699000Y-99601000D02*
X174162000Y-97138000D01*
X168757000Y-99601000D02*
X171699000Y-99601000D01*
D22*
X166897685Y-106293000D02*
X165582000Y-106293000D01*
X168757000Y-108152315D02*
X166897685Y-106293000D01*
X168757000Y-119921000D02*
X168757000Y-108152315D01*
X166632001Y-107592999D02*
X166632001Y-119505999D01*
X166632001Y-119505999D02*
X166217000Y-119921000D01*
D23*
X142782000Y-76343000D02*
X142782000Y-78918000D01*
X142782000Y-78918000D02*
X148257000Y-84393000D01*
X125902000Y-93298000D02*
X128442000Y-93298000D01*
X131207000Y-90533000D02*
X128442000Y-93298000D01*
X148257000Y-84393000D02*
X133032000Y-84393000D01*
X133032000Y-84393000D02*
X131207000Y-86218000D01*
X131207000Y-86218000D02*
X131207000Y-90533000D01*
X161977000Y-85718000D02*
X163282000Y-87023000D01*
X149582000Y-85718000D02*
X161977000Y-85718000D01*
X148257000Y-84393000D02*
X149582000Y-85718000D01*
D22*
X167122000Y-85578000D02*
X167122000Y-73143000D01*
X142432000Y-90668000D02*
X143482000Y-89618000D01*
X142432000Y-93747002D02*
X142432000Y-90668000D01*
X141611002Y-94568000D02*
X142432000Y-93747002D01*
X135592998Y-94568000D02*
X141611002Y-94568000D01*
X134782000Y-95378998D02*
X135592998Y-94568000D01*
X134782000Y-98016000D02*
X134782000Y-95378998D01*
X133197000Y-99601000D02*
X134782000Y-98016000D01*
X145892000Y-89618000D02*
X145832000Y-89618000D01*
X147717000Y-87793000D02*
X145892000Y-89618000D01*
X143482000Y-89618000D02*
X145832000Y-89618000D01*
X163082000Y-89618000D02*
X167122000Y-85578000D01*
X145832000Y-89618000D02*
X163082000Y-89618000D01*
D24*
X179207000Y-98243000D02*
X179207000Y-92118000D01*
X165153998Y-103067998D02*
X174382002Y-103067998D01*
X163832000Y-113618000D02*
X163832000Y-104389996D01*
X163832000Y-104389996D02*
X165153998Y-103067998D01*
X174382002Y-103067998D02*
X179207000Y-98243000D01*
D22*
X159532000Y-106001060D02*
X156306979Y-102776039D01*
X159532000Y-116016004D02*
X159532000Y-106001060D01*
X163436996Y-119921000D02*
X159532000Y-116016004D01*
X163677000Y-119921000D02*
X163436996Y-119921000D01*
X158857000Y-106493000D02*
X155132000Y-102768000D01*
X158857000Y-117641000D02*
X158857000Y-106493000D01*
X161137000Y-119921000D02*
X158857000Y-117641000D01*
X158032000Y-106743000D02*
X154057000Y-102768000D01*
X158032000Y-117946000D02*
X158032000Y-106743000D01*
X156057000Y-119921000D02*
X158032000Y-117946000D01*
X140817000Y-99601000D02*
X141325000Y-99601000D01*
X143667022Y-101943022D02*
X157234809Y-101943022D01*
X141325000Y-99601000D02*
X143667022Y-101943022D01*
X157234809Y-101943022D02*
X158332364Y-103040577D01*
X153517000Y-99601000D02*
X155409011Y-101493011D01*
X159332000Y-102502315D02*
X159332000Y-103068000D01*
X155409011Y-101493011D02*
X158322696Y-101493011D01*
X158322696Y-101493011D02*
X159332000Y-102502315D01*
X161137000Y-99093000D02*
X161137000Y-99601000D01*
X174742000Y-77108000D02*
X174742000Y-73143000D01*
X172882000Y-96543000D02*
X172882000Y-78968000D01*
X161137000Y-99601000D02*
X163370000Y-97368000D01*
X172057000Y-97368000D02*
X172882000Y-96543000D01*
X172882000Y-78968000D02*
X174742000Y-77108000D01*
X163370000Y-97368000D02*
X172057000Y-97368000D01*
D23*
X126332000Y-109868000D02*
X122482000Y-106018000D01*
X122482000Y-106018000D02*
X122482000Y-88143000D01*
X153368490Y-109868000D02*
X126332000Y-109868000D01*
X122482000Y-88143000D02*
X134282000Y-76343000D01*
X156251326Y-112750836D02*
X153368490Y-109868000D01*
X121232000Y-85893000D02*
X130782000Y-76343000D01*
X121232000Y-106894458D02*
X121232000Y-85893000D01*
X126605542Y-112268000D02*
X121232000Y-106894458D01*
X154632000Y-112268000D02*
X126605542Y-112268000D01*
X155057218Y-112693218D02*
X154632000Y-112268000D01*
X155061513Y-112693218D02*
X155057218Y-112693218D01*
X155261512Y-112893217D02*
X155061513Y-112693218D01*
X127332000Y-115118000D02*
X152211522Y-115118000D01*
X119782000Y-107568000D02*
X127332000Y-115118000D01*
X152211522Y-115118000D02*
X154261512Y-113068010D01*
X119782000Y-83843000D02*
X119782000Y-107568000D01*
X127282000Y-76343000D02*
X119782000Y-83843000D01*
D22*
X168307000Y-85568000D02*
X168307000Y-77568000D01*
X163082000Y-90793000D02*
X168307000Y-85568000D01*
X159257000Y-90793000D02*
X163082000Y-90793000D01*
X157657000Y-92393000D02*
X159257000Y-90793000D01*
X157657000Y-93952000D02*
X157657000Y-92393000D01*
X156991000Y-94618000D02*
X157657000Y-93952000D01*
X155862998Y-94618000D02*
X156991000Y-94618000D01*
X155107000Y-95373998D02*
X155862998Y-94618000D01*
X143357000Y-99601000D02*
X145365000Y-97593000D01*
X155107000Y-96993000D02*
X155107000Y-95373998D01*
X145365000Y-97593000D02*
X154507000Y-97593000D01*
X154507000Y-97593000D02*
X155107000Y-96993000D01*
X162732000Y-92143000D02*
X169662000Y-85213000D01*
X162732000Y-93868000D02*
X162732000Y-92143000D01*
X160457000Y-94543000D02*
X162057000Y-94543000D01*
X160182000Y-94818000D02*
X160457000Y-94543000D01*
X162057000Y-94543000D02*
X162732000Y-93868000D01*
X159407000Y-97518000D02*
X160182000Y-96743000D01*
X160182000Y-96743000D02*
X160182000Y-94818000D01*
X158140000Y-97518000D02*
X159407000Y-97518000D01*
X169662000Y-85213000D02*
X169662000Y-73143000D01*
X156057000Y-99601000D02*
X158140000Y-97518000D01*
X158597000Y-99093000D02*
X158597000Y-99658000D01*
X170332000Y-79018000D02*
X172202000Y-77148000D01*
X172202000Y-77148000D02*
X172202000Y-73143000D01*
X170332000Y-93977000D02*
X170332000Y-79018000D01*
X163307000Y-94593000D02*
X169716000Y-94593000D01*
X160455000Y-97743000D02*
X161957000Y-97743000D01*
X162707000Y-96993000D02*
X162707000Y-95193000D01*
X161957000Y-97743000D02*
X162707000Y-96993000D01*
X162707000Y-95193000D02*
X163307000Y-94593000D01*
X169716000Y-94593000D02*
X170332000Y-93977000D01*
X158597000Y-99601000D02*
X160455000Y-97743000D01*
X161382000Y-109343000D02*
X161382000Y-116093000D01*
X161382000Y-116093000D02*
X163357000Y-118068000D01*
D25*
X179980857Y-71676100D02*
X180412620Y-71806457D01*
X180810839Y-72018193D01*
X181160347Y-72303245D01*
X181447835Y-72650758D01*
X181662342Y-73047482D01*
X181795712Y-73478330D01*
X181846192Y-73958612D01*
X181822395Y-115935675D01*
X181538575Y-115510907D01*
X181089093Y-115061425D01*
X180560558Y-114708270D01*
X179973281Y-114465012D01*
X179349832Y-114341000D01*
X178714168Y-114341000D01*
X178090719Y-114465012D01*
X177503442Y-114708270D01*
X176974907Y-115061425D01*
X176525425Y-115510907D01*
X176172270Y-116039442D01*
X175929012Y-116626719D01*
X175805000Y-117250168D01*
X175805000Y-117885832D01*
X175929012Y-118509281D01*
X176172270Y-119096558D01*
X176525425Y-119625093D01*
X176974907Y-120074575D01*
X177397886Y-120357200D01*
X170129552Y-120357200D01*
X170136853Y-120339574D01*
X170192000Y-120062335D01*
X170192000Y-119779665D01*
X170136853Y-119502426D01*
X170028680Y-119241273D01*
X169871637Y-119006241D01*
X169671759Y-118806363D01*
X169517000Y-118702957D01*
X169517000Y-108189637D01*
X169520676Y-108152314D01*
X169517000Y-108114991D01*
X169517000Y-108114982D01*
X169506003Y-108003329D01*
X169462546Y-107860068D01*
X169391974Y-107728039D01*
X169344039Y-107669630D01*
X169320799Y-107641311D01*
X169320795Y-107641307D01*
X169297001Y-107612314D01*
X169268008Y-107588520D01*
X167461488Y-105782002D01*
X167437686Y-105752999D01*
X167321961Y-105658026D01*
X167189932Y-105587454D01*
X167046671Y-105543997D01*
X166935018Y-105533000D01*
X166935007Y-105533000D01*
X166897685Y-105529324D01*
X166860363Y-105533000D01*
X166285711Y-105533000D01*
X166241774Y-105489063D01*
X166072256Y-105375795D01*
X165883898Y-105297774D01*
X165683939Y-105258000D01*
X165480061Y-105258000D01*
X165280102Y-105297774D01*
X165091744Y-105375795D01*
X164967000Y-105459146D01*
X164967000Y-104860128D01*
X165624130Y-104202998D01*
X174326251Y-104202998D01*
X174382002Y-104208489D01*
X174437753Y-104202998D01*
X174437754Y-104202998D01*
X174604501Y-104186575D01*
X174818449Y-104121674D01*
X175015625Y-104016282D01*
X175188451Y-103874447D01*
X175223998Y-103831133D01*
X179970146Y-99084987D01*
X180013449Y-99049449D01*
X180099978Y-98944014D01*
X180155284Y-98876623D01*
X180260676Y-98679447D01*
X180325577Y-98465499D01*
X180347491Y-98243000D01*
X180342000Y-98187248D01*
X180342000Y-92979604D01*
X180467514Y-92791759D01*
X180574738Y-92532899D01*
X180629400Y-92258094D01*
X180629400Y-91977906D01*
X180574738Y-91703101D01*
X180467514Y-91444241D01*
X180311850Y-91211273D01*
X180113727Y-91013150D01*
X179880759Y-90857486D01*
X179621899Y-90750262D01*
X179347094Y-90695600D01*
X179066906Y-90695600D01*
X178792101Y-90750262D01*
X178533241Y-90857486D01*
X178300273Y-91013150D01*
X178102150Y-91211273D01*
X177946486Y-91444241D01*
X177839262Y-91703101D01*
X177784600Y-91977906D01*
X177784600Y-92258094D01*
X177839262Y-92532899D01*
X177946486Y-92791759D01*
X178072001Y-92979606D01*
X178072000Y-97772867D01*
X173911871Y-101932998D01*
X165209750Y-101932998D01*
X165153998Y-101927507D01*
X164931499Y-101949421D01*
X164717551Y-102014322D01*
X164520375Y-102119714D01*
X164390854Y-102226009D01*
X164390852Y-102226011D01*
X164347549Y-102261549D01*
X164312011Y-102304852D01*
X163068860Y-103548005D01*
X163025552Y-103583547D01*
X162883717Y-103756373D01*
X162836605Y-103844514D01*
X162778324Y-103953550D01*
X162713423Y-104167498D01*
X162691509Y-104389996D01*
X162697001Y-104445757D01*
X162697000Y-112756396D01*
X162571486Y-112944241D01*
X162464262Y-113203101D01*
X162409600Y-113477906D01*
X162409600Y-113758094D01*
X162464262Y-114032899D01*
X162571486Y-114291759D01*
X162727150Y-114524727D01*
X162925273Y-114722850D01*
X163158241Y-114878514D01*
X163417101Y-114985738D01*
X163691906Y-115040400D01*
X163972094Y-115040400D01*
X164246899Y-114985738D01*
X164505759Y-114878514D01*
X164738727Y-114722850D01*
X164936850Y-114524727D01*
X165092514Y-114291759D01*
X165199738Y-114032899D01*
X165254400Y-113758094D01*
X165254400Y-113477906D01*
X165199738Y-113203101D01*
X165092514Y-112944241D01*
X164967000Y-112756396D01*
X164967000Y-107126854D01*
X165091744Y-107210205D01*
X165280102Y-107288226D01*
X165480061Y-107328000D01*
X165629435Y-107328000D01*
X165597001Y-107491060D01*
X165597001Y-107694938D01*
X165636775Y-107894897D01*
X165714796Y-108083255D01*
X165828064Y-108252773D01*
X165872001Y-108296710D01*
X165872002Y-118526512D01*
X165798426Y-118541147D01*
X165537273Y-118649320D01*
X165302241Y-118806363D01*
X165102363Y-119006241D01*
X164947000Y-119238759D01*
X164791637Y-119006241D01*
X164591759Y-118806363D01*
X164356727Y-118649320D01*
X164244437Y-118602808D01*
X164274205Y-118558256D01*
X164352226Y-118369898D01*
X164392000Y-118169939D01*
X164392000Y-117966061D01*
X164352226Y-117766102D01*
X164274205Y-117577744D01*
X164160937Y-117408226D01*
X164016774Y-117264063D01*
X163847256Y-117150795D01*
X163658898Y-117072774D01*
X163458939Y-117033000D01*
X163396802Y-117033000D01*
X162142000Y-115778199D01*
X162142000Y-110046711D01*
X162185937Y-110002774D01*
X162299205Y-109833256D01*
X162377226Y-109644898D01*
X162417000Y-109444939D01*
X162417000Y-109241061D01*
X162377226Y-109041102D01*
X162299205Y-108852744D01*
X162185937Y-108683226D01*
X162041774Y-108539063D01*
X161872256Y-108425795D01*
X161683898Y-108347774D01*
X161483939Y-108308000D01*
X161280061Y-108308000D01*
X161080102Y-108347774D01*
X160891744Y-108425795D01*
X160722226Y-108539063D01*
X160578063Y-108683226D01*
X160464795Y-108852744D01*
X160386774Y-109041102D01*
X160347000Y-109241061D01*
X160347000Y-109444939D01*
X160386774Y-109644898D01*
X160464795Y-109833256D01*
X160578063Y-110002774D01*
X160622000Y-110046711D01*
X160622001Y-116031204D01*
X160292000Y-115701203D01*
X160292000Y-106038382D01*
X160295676Y-106001059D01*
X160292000Y-105963736D01*
X160292000Y-105963727D01*
X160281003Y-105852074D01*
X160237546Y-105708813D01*
X160166974Y-105576784D01*
X160140067Y-105543998D01*
X160095799Y-105490056D01*
X160095795Y-105490052D01*
X160072001Y-105461059D01*
X160043008Y-105437265D01*
X158639412Y-104033670D01*
X158809090Y-103963386D01*
X158841744Y-103985205D01*
X159030102Y-104063226D01*
X159230061Y-104103000D01*
X159433939Y-104103000D01*
X159633898Y-104063226D01*
X159822256Y-103985205D01*
X159991774Y-103871937D01*
X160135937Y-103727774D01*
X160249205Y-103558256D01*
X160327226Y-103369898D01*
X160367000Y-103169939D01*
X160367000Y-102966061D01*
X160327226Y-102766102D01*
X160249205Y-102577744D01*
X160135937Y-102408226D01*
X160080987Y-102353276D01*
X160037546Y-102210068D01*
X159966974Y-102078039D01*
X159940148Y-102045351D01*
X159895799Y-101991311D01*
X159895795Y-101991307D01*
X159872001Y-101962314D01*
X159843009Y-101938521D01*
X158906947Y-101002461D01*
X159015574Y-100980853D01*
X159276727Y-100872680D01*
X159511759Y-100715637D01*
X159711637Y-100515759D01*
X159867000Y-100283241D01*
X160022363Y-100515759D01*
X160222241Y-100715637D01*
X160457273Y-100872680D01*
X160718426Y-100980853D01*
X160995665Y-101036000D01*
X161278335Y-101036000D01*
X161555574Y-100980853D01*
X161816727Y-100872680D01*
X162051759Y-100715637D01*
X162251637Y-100515759D01*
X162407000Y-100283241D01*
X162562363Y-100515759D01*
X162762241Y-100715637D01*
X162997273Y-100872680D01*
X163258426Y-100980853D01*
X163535665Y-101036000D01*
X163818335Y-101036000D01*
X164095574Y-100980853D01*
X164356727Y-100872680D01*
X164591759Y-100715637D01*
X164791637Y-100515759D01*
X164947000Y-100283241D01*
X165102363Y-100515759D01*
X165302241Y-100715637D01*
X165537273Y-100872680D01*
X165798426Y-100980853D01*
X166075665Y-101036000D01*
X166358335Y-101036000D01*
X166635574Y-100980853D01*
X166896727Y-100872680D01*
X167131759Y-100715637D01*
X167253694Y-100593702D01*
X167943903Y-100593702D01*
X168015486Y-100837671D01*
X168270996Y-100958571D01*
X168545184Y-101027300D01*
X168827512Y-101041217D01*
X169107130Y-100999787D01*
X169373292Y-100904603D01*
X169498514Y-100837671D01*
X169570097Y-100593702D01*
X168757000Y-99780605D01*
X167943903Y-100593702D01*
X167253694Y-100593702D01*
X167331637Y-100515759D01*
X167487915Y-100281872D01*
X167520329Y-100342514D01*
X167764298Y-100414097D01*
X168577395Y-99601000D01*
X168936605Y-99601000D01*
X169749702Y-100414097D01*
X169993671Y-100342514D01*
X170114571Y-100087004D01*
X170183300Y-99812816D01*
X170197217Y-99530488D01*
X170155787Y-99250870D01*
X170060603Y-98984708D01*
X169993671Y-98859486D01*
X169749702Y-98787903D01*
X168936605Y-99601000D01*
X168577395Y-99601000D01*
X167764298Y-98787903D01*
X167520329Y-98859486D01*
X167489806Y-98923992D01*
X167488680Y-98921273D01*
X167331637Y-98686241D01*
X167253694Y-98608298D01*
X167943903Y-98608298D01*
X168757000Y-99421395D01*
X169570097Y-98608298D01*
X169498514Y-98364329D01*
X169243004Y-98243429D01*
X168968816Y-98174700D01*
X168686488Y-98160783D01*
X168406870Y-98202213D01*
X168140708Y-98297397D01*
X168015486Y-98364329D01*
X167943903Y-98608298D01*
X167253694Y-98608298D01*
X167131759Y-98486363D01*
X166896727Y-98329320D01*
X166635574Y-98221147D01*
X166358335Y-98166000D01*
X166075665Y-98166000D01*
X165798426Y-98221147D01*
X165537273Y-98329320D01*
X165302241Y-98486363D01*
X165102363Y-98686241D01*
X164947000Y-98918759D01*
X164791637Y-98686241D01*
X164591759Y-98486363D01*
X164356727Y-98329320D01*
X164095574Y-98221147D01*
X163818335Y-98166000D01*
X163646802Y-98166000D01*
X163684802Y-98128000D01*
X172019678Y-98128000D01*
X172057000Y-98131676D01*
X172094322Y-98128000D01*
X172094333Y-98128000D01*
X172205986Y-98117003D01*
X172349247Y-98073546D01*
X172481276Y-98002974D01*
X172597001Y-97908001D01*
X172620803Y-97878998D01*
X173392262Y-97107539D01*
X173395080Y-97109641D01*
X173657901Y-97234825D01*
X173805110Y-97279476D01*
X174035000Y-97158155D01*
X174035000Y-95965000D01*
X174289000Y-95965000D01*
X174289000Y-97158155D01*
X174518890Y-97279476D01*
X174666099Y-97234825D01*
X174928920Y-97109641D01*
X175162269Y-96935588D01*
X175357178Y-96719355D01*
X175506157Y-96469252D01*
X175603481Y-96194891D01*
X175482814Y-95965000D01*
X174289000Y-95965000D01*
X174035000Y-95965000D01*
X174015000Y-95965000D01*
X174015000Y-95711000D01*
X174035000Y-95711000D01*
X174035000Y-95691000D01*
X174289000Y-95691000D01*
X174289000Y-95711000D01*
X175482814Y-95711000D01*
X175603481Y-95481109D01*
X175506157Y-95206748D01*
X175357178Y-94956645D01*
X175162269Y-94740412D01*
X174932594Y-94569100D01*
X175108632Y-94451475D01*
X175315475Y-94244632D01*
X175477990Y-94001411D01*
X175589932Y-93731158D01*
X175647000Y-93444260D01*
X175647000Y-93151740D01*
X175589932Y-92864842D01*
X175477990Y-92594589D01*
X175315475Y-92351368D01*
X175108632Y-92144525D01*
X174865411Y-91982010D01*
X174595158Y-91870068D01*
X174308260Y-91813000D01*
X174015740Y-91813000D01*
X173728842Y-91870068D01*
X173642000Y-91906039D01*
X173642000Y-79282801D01*
X175253004Y-77671798D01*
X175282001Y-77648001D01*
X175376974Y-77532276D01*
X175447546Y-77400247D01*
X175491003Y-77256986D01*
X175502000Y-77145333D01*
X175502000Y-77145324D01*
X175505676Y-77108001D01*
X175502000Y-77070678D01*
X175502000Y-74421178D01*
X175688632Y-74296475D01*
X175895475Y-74089632D01*
X176012000Y-73915240D01*
X176128525Y-74089632D01*
X176335368Y-74296475D01*
X176578589Y-74458990D01*
X176848842Y-74570932D01*
X177135740Y-74628000D01*
X177428260Y-74628000D01*
X177715158Y-74570932D01*
X177985411Y-74458990D01*
X178228632Y-74296475D01*
X178435475Y-74089632D01*
X178597990Y-73846411D01*
X178709932Y-73576158D01*
X178767000Y-73289260D01*
X178767000Y-72996740D01*
X178709932Y-72709842D01*
X178597990Y-72439589D01*
X178435475Y-72196368D01*
X178228632Y-71989525D01*
X177985411Y-71827010D01*
X177715158Y-71715068D01*
X177428260Y-71658000D01*
X177135740Y-71658000D01*
X176848842Y-71715068D01*
X176578589Y-71827010D01*
X176335368Y-71989525D01*
X176128525Y-72196368D01*
X176012000Y-72370760D01*
X175895475Y-72196368D01*
X175688632Y-71989525D01*
X175445411Y-71827010D01*
X175175158Y-71715068D01*
X174888260Y-71658000D01*
X174595740Y-71658000D01*
X174308842Y-71715068D01*
X174038589Y-71827010D01*
X173795368Y-71989525D01*
X173588525Y-72196368D01*
X173472000Y-72370760D01*
X173355475Y-72196368D01*
X173148632Y-71989525D01*
X172905411Y-71827010D01*
X172635158Y-71715068D01*
X172348260Y-71658000D01*
X172055740Y-71658000D01*
X171768842Y-71715068D01*
X171498589Y-71827010D01*
X171255368Y-71989525D01*
X171048525Y-72196368D01*
X170932000Y-72370760D01*
X170815475Y-72196368D01*
X170608632Y-71989525D01*
X170365411Y-71827010D01*
X170095158Y-71715068D01*
X169808260Y-71658000D01*
X169515740Y-71658000D01*
X169228842Y-71715068D01*
X168958589Y-71827010D01*
X168715368Y-71989525D01*
X168508525Y-72196368D01*
X168392000Y-72370760D01*
X168275475Y-72196368D01*
X168068632Y-71989525D01*
X167825411Y-71827010D01*
X167555158Y-71715068D01*
X167268260Y-71658000D01*
X166975740Y-71658000D01*
X166688842Y-71715068D01*
X166418589Y-71827010D01*
X166175368Y-71989525D01*
X166043513Y-72121380D01*
X166021502Y-72048820D01*
X165962537Y-71938506D01*
X165883185Y-71841815D01*
X165786494Y-71762463D01*
X165676180Y-71703498D01*
X165556482Y-71667188D01*
X165432000Y-71654928D01*
X164867750Y-71658000D01*
X164709000Y-71816750D01*
X164709000Y-73016000D01*
X164729000Y-73016000D01*
X164729000Y-73270000D01*
X164709000Y-73270000D01*
X164709000Y-74469250D01*
X164867750Y-74628000D01*
X165432000Y-74631072D01*
X165556482Y-74618812D01*
X165676180Y-74582502D01*
X165786494Y-74523537D01*
X165883185Y-74444185D01*
X165962537Y-74347494D01*
X166021502Y-74237180D01*
X166043513Y-74164620D01*
X166175368Y-74296475D01*
X166362001Y-74421179D01*
X166362000Y-84874289D01*
X166318063Y-84918226D01*
X166204795Y-85087744D01*
X166126774Y-85276102D01*
X166087000Y-85476061D01*
X166087000Y-85538198D01*
X164806445Y-86818753D01*
X164758011Y-86575257D01*
X164642299Y-86295905D01*
X164474312Y-86044495D01*
X164260505Y-85830688D01*
X164106895Y-85728049D01*
X164166475Y-85547080D01*
X163282000Y-84662605D01*
X163267858Y-84676748D01*
X163088253Y-84497143D01*
X163102395Y-84483000D01*
X163088253Y-84468858D01*
X163267858Y-84289253D01*
X163282000Y-84303395D01*
X163296143Y-84289253D01*
X163475748Y-84468858D01*
X163461605Y-84483000D01*
X164346080Y-85367475D01*
X164600261Y-85283792D01*
X164731158Y-85011225D01*
X164806365Y-84718358D01*
X164822991Y-84416447D01*
X164780397Y-84117093D01*
X164680222Y-83831801D01*
X164600261Y-83682208D01*
X164346082Y-83598526D01*
X164462030Y-83482578D01*
X164415265Y-83435813D01*
X164426180Y-83432502D01*
X164536494Y-83373537D01*
X164633185Y-83294185D01*
X164712537Y-83197494D01*
X164771502Y-83087180D01*
X164807812Y-82967482D01*
X164820072Y-82843000D01*
X164820072Y-81043000D01*
X164807812Y-80918518D01*
X164771502Y-80798820D01*
X164712537Y-80688506D01*
X164633185Y-80591815D01*
X164536494Y-80512463D01*
X164426180Y-80453498D01*
X164306482Y-80417188D01*
X164182000Y-80404928D01*
X162382000Y-80404928D01*
X162257518Y-80417188D01*
X162137820Y-80453498D01*
X162027506Y-80512463D01*
X161930815Y-80591815D01*
X161851463Y-80688506D01*
X161792498Y-80798820D01*
X161756188Y-80918518D01*
X161743928Y-81043000D01*
X161743928Y-82843000D01*
X161756188Y-82967482D01*
X161792498Y-83087180D01*
X161851463Y-83197494D01*
X161930815Y-83294185D01*
X162027506Y-83373537D01*
X162137820Y-83432502D01*
X162148735Y-83435813D01*
X162101970Y-83482578D01*
X162217918Y-83598526D01*
X161963739Y-83682208D01*
X161832842Y-83954775D01*
X161757635Y-84247642D01*
X161741009Y-84549553D01*
X161783603Y-84848907D01*
X161795574Y-84883000D01*
X156966132Y-84883000D01*
X156970072Y-84843000D01*
X156970072Y-83243000D01*
X156957812Y-83118518D01*
X156921502Y-82998820D01*
X156862537Y-82888506D01*
X156783185Y-82791815D01*
X156686494Y-82712463D01*
X156576180Y-82653498D01*
X156456482Y-82617188D01*
X156332000Y-82604928D01*
X154732000Y-82604928D01*
X154607518Y-82617188D01*
X154487820Y-82653498D01*
X154377506Y-82712463D01*
X154280815Y-82791815D01*
X154201463Y-82888506D01*
X154142498Y-82998820D01*
X154106188Y-83118518D01*
X154093928Y-83243000D01*
X154093928Y-84843000D01*
X154097868Y-84883000D01*
X149927868Y-84883000D01*
X148876446Y-83831579D01*
X148850291Y-83799709D01*
X148818427Y-83773559D01*
X143617000Y-78572133D01*
X143617000Y-78181072D01*
X143982000Y-78181072D01*
X144106482Y-78168812D01*
X144226180Y-78132502D01*
X144336494Y-78073537D01*
X144433185Y-77994185D01*
X144512537Y-77897494D01*
X144571502Y-77787180D01*
X144607812Y-77667482D01*
X144620072Y-77543000D01*
X144620072Y-76162268D01*
X145947000Y-76162268D01*
X145947000Y-76523732D01*
X146017518Y-76878250D01*
X146155844Y-77212199D01*
X146356662Y-77512744D01*
X146612256Y-77768338D01*
X146912801Y-77969156D01*
X147246750Y-78107482D01*
X147601268Y-78178000D01*
X147962732Y-78178000D01*
X148317250Y-78107482D01*
X148651199Y-77969156D01*
X148951744Y-77768338D01*
X149207338Y-77512744D01*
X149408156Y-77212199D01*
X149443928Y-77125838D01*
X149443928Y-77543000D01*
X149456188Y-77667482D01*
X149492498Y-77787180D01*
X149551463Y-77897494D01*
X149630815Y-77994185D01*
X149727506Y-78073537D01*
X149837820Y-78132502D01*
X149957518Y-78168812D01*
X150082000Y-78181072D01*
X152482000Y-78181072D01*
X152606482Y-78168812D01*
X152726180Y-78132502D01*
X152836494Y-78073537D01*
X152933185Y-77994185D01*
X153012537Y-77897494D01*
X153071502Y-77787180D01*
X153107812Y-77667482D01*
X153112391Y-77620980D01*
X155183626Y-77620980D01*
X155303514Y-77905836D01*
X155627210Y-78066699D01*
X155976069Y-78161322D01*
X156336684Y-78186067D01*
X156695198Y-78139985D01*
X157037833Y-78024846D01*
X157260486Y-77905836D01*
X157380374Y-77620980D01*
X156282000Y-76522605D01*
X155183626Y-77620980D01*
X153112391Y-77620980D01*
X153120072Y-77543000D01*
X153120072Y-76397684D01*
X154438933Y-76397684D01*
X154485015Y-76756198D01*
X154600154Y-77098833D01*
X154719164Y-77321486D01*
X155004020Y-77441374D01*
X156102395Y-76343000D01*
X156461605Y-76343000D01*
X157559980Y-77441374D01*
X157844836Y-77321486D01*
X157943928Y-77122088D01*
X157943928Y-77543000D01*
X157956188Y-77667482D01*
X157992498Y-77787180D01*
X158051463Y-77897494D01*
X158130815Y-77994185D01*
X158227506Y-78073537D01*
X158337820Y-78132502D01*
X158457518Y-78168812D01*
X158582000Y-78181072D01*
X160982000Y-78181072D01*
X161106482Y-78168812D01*
X161226180Y-78132502D01*
X161336494Y-78073537D01*
X161433185Y-77994185D01*
X161512537Y-77897494D01*
X161571502Y-77787180D01*
X161607812Y-77667482D01*
X161620072Y-77543000D01*
X161620072Y-75143000D01*
X161607812Y-75018518D01*
X161571502Y-74898820D01*
X161512537Y-74788506D01*
X161433185Y-74691815D01*
X161336494Y-74612463D01*
X161226180Y-74553498D01*
X161106482Y-74517188D01*
X160982000Y-74504928D01*
X158582000Y-74504928D01*
X158457518Y-74517188D01*
X158337820Y-74553498D01*
X158227506Y-74612463D01*
X158130815Y-74691815D01*
X158051463Y-74788506D01*
X157992498Y-74898820D01*
X157956188Y-75018518D01*
X157943928Y-75143000D01*
X157943928Y-75549903D01*
X157844836Y-75364514D01*
X157559980Y-75244626D01*
X156461605Y-76343000D01*
X156102395Y-76343000D01*
X155004020Y-75244626D01*
X154719164Y-75364514D01*
X154558301Y-75688210D01*
X154463678Y-76037069D01*
X154438933Y-76397684D01*
X153120072Y-76397684D01*
X153120072Y-75143000D01*
X153112392Y-75065020D01*
X155183626Y-75065020D01*
X156282000Y-76163395D01*
X157380374Y-75065020D01*
X157260486Y-74780164D01*
X156936790Y-74619301D01*
X156587931Y-74524678D01*
X156227316Y-74499933D01*
X155868802Y-74546015D01*
X155526167Y-74661154D01*
X155303514Y-74780164D01*
X155183626Y-75065020D01*
X153112392Y-75065020D01*
X153107812Y-75018518D01*
X153071502Y-74898820D01*
X153012537Y-74788506D01*
X152933185Y-74691815D01*
X152836494Y-74612463D01*
X152726180Y-74553498D01*
X152606482Y-74517188D01*
X152482000Y-74504928D01*
X150082000Y-74504928D01*
X149957518Y-74517188D01*
X149837820Y-74553498D01*
X149727506Y-74612463D01*
X149630815Y-74691815D01*
X149551463Y-74788506D01*
X149492498Y-74898820D01*
X149456188Y-75018518D01*
X149443928Y-75143000D01*
X149443928Y-75560162D01*
X149408156Y-75473801D01*
X149207338Y-75173256D01*
X148951744Y-74917662D01*
X148651199Y-74716844D01*
X148317250Y-74578518D01*
X147962732Y-74508000D01*
X147601268Y-74508000D01*
X147246750Y-74578518D01*
X146912801Y-74716844D01*
X146612256Y-74917662D01*
X146356662Y-75173256D01*
X146155844Y-75473801D01*
X146017518Y-75807750D01*
X145947000Y-76162268D01*
X144620072Y-76162268D01*
X144620072Y-75143000D01*
X144607812Y-75018518D01*
X144571502Y-74898820D01*
X144512537Y-74788506D01*
X144433185Y-74691815D01*
X144336494Y-74612463D01*
X144226180Y-74553498D01*
X144106482Y-74517188D01*
X143982000Y-74504928D01*
X141582000Y-74504928D01*
X141457518Y-74517188D01*
X141337820Y-74553498D01*
X141227506Y-74612463D01*
X141130815Y-74691815D01*
X141051463Y-74788506D01*
X140992498Y-74898820D01*
X140956188Y-75018518D01*
X140943928Y-75143000D01*
X140943928Y-75549903D01*
X140844836Y-75364514D01*
X140559980Y-75244626D01*
X139461605Y-76343000D01*
X140559980Y-77441374D01*
X140844836Y-77321486D01*
X140943928Y-77122088D01*
X140943928Y-77543000D01*
X140956188Y-77667482D01*
X140992498Y-77787180D01*
X141051463Y-77897494D01*
X141130815Y-77994185D01*
X141227506Y-78073537D01*
X141337820Y-78132502D01*
X141457518Y-78168812D01*
X141582000Y-78181072D01*
X141947001Y-78181072D01*
X141947001Y-78876972D01*
X141942960Y-78918000D01*
X141959082Y-79081688D01*
X142006828Y-79239086D01*
X142044864Y-79310246D01*
X142084365Y-79384146D01*
X142188710Y-79511291D01*
X142220574Y-79537441D01*
X146241132Y-83558000D01*
X133073018Y-83558000D01*
X133032000Y-83553960D01*
X132990982Y-83558000D01*
X132990981Y-83558000D01*
X132868311Y-83570082D01*
X132710913Y-83617828D01*
X132565854Y-83695364D01*
X132438709Y-83799709D01*
X132412563Y-83831568D01*
X130645579Y-85598554D01*
X130613709Y-85624709D01*
X130509365Y-85751854D01*
X130509364Y-85751855D01*
X130431828Y-85896914D01*
X130384082Y-86054312D01*
X130367960Y-86218000D01*
X130372000Y-86259019D01*
X130372000Y-86461081D01*
X130344490Y-86449686D01*
X130074592Y-86396000D01*
X129799408Y-86396000D01*
X129529510Y-86449686D01*
X129275273Y-86554995D01*
X129046465Y-86707880D01*
X128851880Y-86902465D01*
X128698995Y-87131273D01*
X128667000Y-87208515D01*
X128635005Y-87131273D01*
X128482120Y-86902465D01*
X128287535Y-86707880D01*
X128058727Y-86554995D01*
X127804490Y-86449686D01*
X127534592Y-86396000D01*
X127259408Y-86396000D01*
X126989510Y-86449686D01*
X126735273Y-86554995D01*
X126506465Y-86707880D01*
X126311880Y-86902465D01*
X126158995Y-87131273D01*
X126053686Y-87385510D01*
X126000000Y-87655408D01*
X126000000Y-87930592D01*
X126053686Y-88200490D01*
X126158995Y-88454727D01*
X126311880Y-88683535D01*
X126506465Y-88878120D01*
X126735273Y-89031005D01*
X126989510Y-89136314D01*
X127259408Y-89190000D01*
X127534592Y-89190000D01*
X127804490Y-89136314D01*
X128058727Y-89031005D01*
X128287535Y-88878120D01*
X128482120Y-88683535D01*
X128635005Y-88454727D01*
X128667000Y-88377485D01*
X128698995Y-88454727D01*
X128851880Y-88683535D01*
X129046465Y-88878120D01*
X129275273Y-89031005D01*
X129529510Y-89136314D01*
X129799408Y-89190000D01*
X130074592Y-89190000D01*
X130344490Y-89136314D01*
X130372001Y-89124919D01*
X130372001Y-90187131D01*
X128719940Y-91839193D01*
X128588260Y-91813000D01*
X128295740Y-91813000D01*
X128008842Y-91870068D01*
X127738589Y-91982010D01*
X127495368Y-92144525D01*
X127288525Y-92351368D01*
X127213935Y-92463000D01*
X127130065Y-92463000D01*
X127055475Y-92351368D01*
X126848632Y-92144525D01*
X126605411Y-91982010D01*
X126335158Y-91870068D01*
X126048260Y-91813000D01*
X125755740Y-91813000D01*
X125468842Y-91870068D01*
X125198589Y-91982010D01*
X124955368Y-92144525D01*
X124748525Y-92351368D01*
X124586010Y-92594589D01*
X124474068Y-92864842D01*
X124417000Y-93151740D01*
X124417000Y-93444260D01*
X124474068Y-93731158D01*
X124586010Y-94001411D01*
X124748525Y-94244632D01*
X124880380Y-94376487D01*
X124807820Y-94398498D01*
X124697506Y-94457463D01*
X124600815Y-94536815D01*
X124521463Y-94633506D01*
X124462498Y-94743820D01*
X124426188Y-94863518D01*
X124413928Y-94988000D01*
X124413928Y-96688000D01*
X124426188Y-96812482D01*
X124462498Y-96932180D01*
X124521463Y-97042494D01*
X124600815Y-97139185D01*
X124697506Y-97218537D01*
X124807820Y-97277502D01*
X124927518Y-97313812D01*
X125052000Y-97326072D01*
X126752000Y-97326072D01*
X126876482Y-97313812D01*
X126996180Y-97277502D01*
X127106494Y-97218537D01*
X127203185Y-97139185D01*
X127282537Y-97042494D01*
X127341502Y-96932180D01*
X127363513Y-96859620D01*
X127495368Y-96991475D01*
X127738589Y-97153990D01*
X128008842Y-97265932D01*
X128295740Y-97323000D01*
X128588260Y-97323000D01*
X128875158Y-97265932D01*
X129145411Y-97153990D01*
X129388632Y-96991475D01*
X129595475Y-96784632D01*
X129712000Y-96610240D01*
X129828525Y-96784632D01*
X130035368Y-96991475D01*
X130278589Y-97153990D01*
X130548842Y-97265932D01*
X130835740Y-97323000D01*
X131128260Y-97323000D01*
X131415158Y-97265932D01*
X131685411Y-97153990D01*
X131928632Y-96991475D01*
X132135475Y-96784632D01*
X132252000Y-96610240D01*
X132368525Y-96784632D01*
X132575368Y-96991475D01*
X132818589Y-97153990D01*
X133088842Y-97265932D01*
X133375740Y-97323000D01*
X133668260Y-97323000D01*
X133955158Y-97265932D01*
X134022000Y-97238245D01*
X134022000Y-97701197D01*
X133520886Y-98202312D01*
X133338335Y-98166000D01*
X133055665Y-98166000D01*
X132778426Y-98221147D01*
X132517273Y-98329320D01*
X132282241Y-98486363D01*
X132083643Y-98684961D01*
X132082812Y-98676518D01*
X132046502Y-98556820D01*
X131987537Y-98446506D01*
X131908185Y-98349815D01*
X131811494Y-98270463D01*
X131701180Y-98211498D01*
X131581482Y-98175188D01*
X131457000Y-98162928D01*
X129857000Y-98162928D01*
X129732518Y-98175188D01*
X129612820Y-98211498D01*
X129502506Y-98270463D01*
X129405815Y-98349815D01*
X129326463Y-98446506D01*
X129267498Y-98556820D01*
X129231188Y-98676518D01*
X129218928Y-98801000D01*
X129218928Y-100401000D01*
X129231188Y-100525482D01*
X129267498Y-100645180D01*
X129326463Y-100755494D01*
X129405815Y-100852185D01*
X129502506Y-100931537D01*
X129612820Y-100990502D01*
X129732518Y-101026812D01*
X129857000Y-101039072D01*
X131457000Y-101039072D01*
X131581482Y-101026812D01*
X131701180Y-100990502D01*
X131811494Y-100931537D01*
X131908185Y-100852185D01*
X131987537Y-100755494D01*
X132046502Y-100645180D01*
X132082812Y-100525482D01*
X132083643Y-100517039D01*
X132282241Y-100715637D01*
X132517273Y-100872680D01*
X132778426Y-100980853D01*
X133055665Y-101036000D01*
X133338335Y-101036000D01*
X133615574Y-100980853D01*
X133876727Y-100872680D01*
X134111759Y-100715637D01*
X134311637Y-100515759D01*
X134467000Y-100283241D01*
X134622363Y-100515759D01*
X134822241Y-100715637D01*
X135057273Y-100872680D01*
X135318426Y-100980853D01*
X135595665Y-101036000D01*
X135878335Y-101036000D01*
X136155574Y-100980853D01*
X136416727Y-100872680D01*
X136651759Y-100715637D01*
X136773694Y-100593702D01*
X137463903Y-100593702D01*
X137535486Y-100837671D01*
X137790996Y-100958571D01*
X138065184Y-101027300D01*
X138347512Y-101041217D01*
X138627130Y-100999787D01*
X138893292Y-100904603D01*
X139018514Y-100837671D01*
X139090097Y-100593702D01*
X138277000Y-99780605D01*
X137463903Y-100593702D01*
X136773694Y-100593702D01*
X136851637Y-100515759D01*
X137007915Y-100281872D01*
X137040329Y-100342514D01*
X137284298Y-100414097D01*
X138097395Y-99601000D01*
X137284298Y-98787903D01*
X137040329Y-98859486D01*
X137009806Y-98923992D01*
X137008680Y-98921273D01*
X136851637Y-98686241D01*
X136773694Y-98608298D01*
X137463903Y-98608298D01*
X138277000Y-99421395D01*
X139090097Y-98608298D01*
X139018514Y-98364329D01*
X138763004Y-98243429D01*
X138488816Y-98174700D01*
X138206488Y-98160783D01*
X137926870Y-98202213D01*
X137660708Y-98297397D01*
X137535486Y-98364329D01*
X137463903Y-98608298D01*
X136773694Y-98608298D01*
X136651759Y-98486363D01*
X136416727Y-98329320D01*
X136155574Y-98221147D01*
X135878335Y-98166000D01*
X135595665Y-98166000D01*
X135526523Y-98179753D01*
X135531003Y-98164986D01*
X135542000Y-98053333D01*
X135542000Y-98053324D01*
X135545676Y-98016001D01*
X135542000Y-97978678D01*
X135542000Y-97227251D01*
X135557901Y-97234825D01*
X135705110Y-97279476D01*
X135935000Y-97158155D01*
X135935000Y-95965000D01*
X135915000Y-95965000D01*
X135915000Y-95711000D01*
X135935000Y-95711000D01*
X135935000Y-95691000D01*
X136189000Y-95691000D01*
X136189000Y-95711000D01*
X136209000Y-95711000D01*
X136209000Y-95965000D01*
X136189000Y-95965000D01*
X136189000Y-97158155D01*
X136418890Y-97279476D01*
X136566099Y-97234825D01*
X136828920Y-97109641D01*
X137062269Y-96935588D01*
X137257178Y-96719355D01*
X137326805Y-96602466D01*
X137448525Y-96784632D01*
X137655368Y-96991475D01*
X137898589Y-97153990D01*
X138168842Y-97265932D01*
X138455740Y-97323000D01*
X138748260Y-97323000D01*
X139035158Y-97265932D01*
X139305411Y-97153990D01*
X139548632Y-96991475D01*
X139755475Y-96784632D01*
X139872000Y-96610240D01*
X139988525Y-96784632D01*
X140195368Y-96991475D01*
X140438589Y-97153990D01*
X140708842Y-97265932D01*
X140995740Y-97323000D01*
X141288260Y-97323000D01*
X141575158Y-97265932D01*
X141845411Y-97153990D01*
X142088632Y-96991475D01*
X142295475Y-96784632D01*
X142412000Y-96610240D01*
X142528525Y-96784632D01*
X142735368Y-96991475D01*
X142978589Y-97153990D01*
X143248842Y-97265932D01*
X143535740Y-97323000D01*
X143828260Y-97323000D01*
X144115158Y-97265932D01*
X144385411Y-97153990D01*
X144628632Y-96991475D01*
X144835475Y-96784632D01*
X144952000Y-96610240D01*
X145068525Y-96784632D01*
X145148400Y-96864507D01*
X145072753Y-96887454D01*
X144940724Y-96958026D01*
X144824999Y-97052999D01*
X144801201Y-97081997D01*
X143680886Y-98202312D01*
X143498335Y-98166000D01*
X143215665Y-98166000D01*
X142938426Y-98221147D01*
X142677273Y-98329320D01*
X142442241Y-98486363D01*
X142242363Y-98686241D01*
X142087000Y-98918759D01*
X141931637Y-98686241D01*
X141731759Y-98486363D01*
X141496727Y-98329320D01*
X141235574Y-98221147D01*
X140958335Y-98166000D01*
X140675665Y-98166000D01*
X140398426Y-98221147D01*
X140137273Y-98329320D01*
X139902241Y-98486363D01*
X139702363Y-98686241D01*
X139546085Y-98920128D01*
X139513671Y-98859486D01*
X139269702Y-98787903D01*
X138456605Y-99601000D01*
X139269702Y-100414097D01*
X139513671Y-100342514D01*
X139544194Y-100278008D01*
X139545320Y-100280727D01*
X139702363Y-100515759D01*
X139902241Y-100715637D01*
X140137273Y-100872680D01*
X140398426Y-100980853D01*
X140675665Y-101036000D01*
X140958335Y-101036000D01*
X141235574Y-100980853D01*
X141496727Y-100872680D01*
X141511804Y-100862606D01*
X143103222Y-102454024D01*
X143127021Y-102483023D01*
X143242746Y-102577996D01*
X143374775Y-102648568D01*
X143518036Y-102692025D01*
X143629689Y-102703022D01*
X143629698Y-102703022D01*
X143667021Y-102706698D01*
X143704344Y-102703022D01*
X153022000Y-102703022D01*
X153022000Y-102869939D01*
X153061774Y-103069898D01*
X153139795Y-103258256D01*
X153253063Y-103427774D01*
X153397226Y-103571937D01*
X153566744Y-103685205D01*
X153755102Y-103763226D01*
X153955061Y-103803000D01*
X154017199Y-103803000D01*
X157272001Y-107057803D01*
X157272000Y-112576877D01*
X157246552Y-112448938D01*
X157168531Y-112260580D01*
X157055263Y-112091062D01*
X156911100Y-111946899D01*
X156741582Y-111833631D01*
X156553224Y-111755610D01*
X156408102Y-111726744D01*
X153987936Y-109306579D01*
X153961781Y-109274709D01*
X153834636Y-109170364D01*
X153689577Y-109092828D01*
X153532179Y-109045082D01*
X153409509Y-109033000D01*
X153409508Y-109033000D01*
X153368490Y-109028960D01*
X153327472Y-109033000D01*
X126677868Y-109033000D01*
X123317000Y-105672133D01*
X123317000Y-88488867D01*
X133624796Y-78181072D01*
X135482000Y-78181072D01*
X135606482Y-78168812D01*
X135726180Y-78132502D01*
X135836494Y-78073537D01*
X135933185Y-77994185D01*
X136012537Y-77897494D01*
X136071502Y-77787180D01*
X136107812Y-77667482D01*
X136112391Y-77620980D01*
X138183626Y-77620980D01*
X138303514Y-77905836D01*
X138627210Y-78066699D01*
X138976069Y-78161322D01*
X139336684Y-78186067D01*
X139695198Y-78139985D01*
X140037833Y-78024846D01*
X140260486Y-77905836D01*
X140380374Y-77620980D01*
X139282000Y-76522605D01*
X138183626Y-77620980D01*
X136112391Y-77620980D01*
X136120072Y-77543000D01*
X136120072Y-76397684D01*
X137438933Y-76397684D01*
X137485015Y-76756198D01*
X137600154Y-77098833D01*
X137719164Y-77321486D01*
X138004020Y-77441374D01*
X139102395Y-76343000D01*
X138004020Y-75244626D01*
X137719164Y-75364514D01*
X137558301Y-75688210D01*
X137463678Y-76037069D01*
X137438933Y-76397684D01*
X136120072Y-76397684D01*
X136120072Y-75143000D01*
X136112392Y-75065020D01*
X138183626Y-75065020D01*
X139282000Y-76163395D01*
X140380374Y-75065020D01*
X140260486Y-74780164D01*
X139936790Y-74619301D01*
X139587931Y-74524678D01*
X139227316Y-74499933D01*
X138868802Y-74546015D01*
X138526167Y-74661154D01*
X138303514Y-74780164D01*
X138183626Y-75065020D01*
X136112392Y-75065020D01*
X136107812Y-75018518D01*
X136071502Y-74898820D01*
X136012537Y-74788506D01*
X135933185Y-74691815D01*
X135836494Y-74612463D01*
X135726180Y-74553498D01*
X135606482Y-74517188D01*
X135482000Y-74504928D01*
X133082000Y-74504928D01*
X132957518Y-74517188D01*
X132837820Y-74553498D01*
X132727506Y-74612463D01*
X132630815Y-74691815D01*
X132551463Y-74788506D01*
X132492498Y-74898820D01*
X132456188Y-75018518D01*
X132443928Y-75143000D01*
X132443928Y-75560162D01*
X132408156Y-75473801D01*
X132207338Y-75173256D01*
X131951744Y-74917662D01*
X131651199Y-74716844D01*
X131317250Y-74578518D01*
X130962732Y-74508000D01*
X130601268Y-74508000D01*
X130246750Y-74578518D01*
X129912801Y-74716844D01*
X129612256Y-74917662D01*
X129356662Y-75173256D01*
X129155844Y-75473801D01*
X129032000Y-75772787D01*
X128908156Y-75473801D01*
X128707338Y-75173256D01*
X128451744Y-74917662D01*
X128151199Y-74716844D01*
X127817250Y-74578518D01*
X127462732Y-74508000D01*
X127101268Y-74508000D01*
X126746750Y-74578518D01*
X126412801Y-74716844D01*
X126112256Y-74917662D01*
X125856662Y-75173256D01*
X125655844Y-75473801D01*
X125517518Y-75807750D01*
X125447000Y-76162268D01*
X125447000Y-76523732D01*
X125517518Y-76878250D01*
X125531683Y-76912448D01*
X119220579Y-83223554D01*
X119188709Y-83249709D01*
X119087087Y-83373537D01*
X119084364Y-83376855D01*
X119006828Y-83521914D01*
X118959082Y-83679312D01*
X118942960Y-83843000D01*
X118947000Y-83884018D01*
X118947001Y-107526971D01*
X118942960Y-107568000D01*
X118959082Y-107731688D01*
X119006828Y-107889086D01*
X119084364Y-108034145D01*
X119084365Y-108034146D01*
X119188710Y-108161291D01*
X119220574Y-108187441D01*
X126712559Y-115679427D01*
X126738709Y-115711291D01*
X126865854Y-115815636D01*
X127010913Y-115893172D01*
X127168311Y-115940918D01*
X127290981Y-115953000D01*
X127290991Y-115953000D01*
X127331999Y-115957039D01*
X127373007Y-115953000D01*
X152170504Y-115953000D01*
X152211522Y-115957040D01*
X152252540Y-115953000D01*
X152252541Y-115953000D01*
X152375211Y-115940918D01*
X152532609Y-115893172D01*
X152677668Y-115815636D01*
X152804813Y-115711291D01*
X152830968Y-115679421D01*
X154418288Y-114092102D01*
X154563410Y-114063236D01*
X154751768Y-113985215D01*
X154920713Y-113872330D01*
X154959614Y-113888443D01*
X155159573Y-113928217D01*
X155363451Y-113928217D01*
X155563410Y-113888443D01*
X155751768Y-113810422D01*
X155886870Y-113720150D01*
X155949428Y-113746062D01*
X156149387Y-113785836D01*
X156353265Y-113785836D01*
X156553224Y-113746062D01*
X156741582Y-113668041D01*
X156911100Y-113554773D01*
X157055263Y-113410610D01*
X157168531Y-113241092D01*
X157246552Y-113052734D01*
X157272000Y-112924795D01*
X157272000Y-117631198D01*
X156380886Y-118522312D01*
X156198335Y-118486000D01*
X155915665Y-118486000D01*
X155638426Y-118541147D01*
X155377273Y-118649320D01*
X155142241Y-118806363D01*
X154942363Y-119006241D01*
X154787000Y-119238759D01*
X154631637Y-119006241D01*
X154431759Y-118806363D01*
X154196727Y-118649320D01*
X153935574Y-118541147D01*
X153658335Y-118486000D01*
X153375665Y-118486000D01*
X153098426Y-118541147D01*
X152837273Y-118649320D01*
X152602241Y-118806363D01*
X152402363Y-119006241D01*
X152247000Y-119238759D01*
X152091637Y-119006241D01*
X151891759Y-118806363D01*
X151656727Y-118649320D01*
X151395574Y-118541147D01*
X151118335Y-118486000D01*
X150835665Y-118486000D01*
X150558426Y-118541147D01*
X150297273Y-118649320D01*
X150062241Y-118806363D01*
X149862363Y-119006241D01*
X149707000Y-119238759D01*
X149551637Y-119006241D01*
X149351759Y-118806363D01*
X149116727Y-118649320D01*
X148855574Y-118541147D01*
X148578335Y-118486000D01*
X148295665Y-118486000D01*
X148018426Y-118541147D01*
X147757273Y-118649320D01*
X147522241Y-118806363D01*
X147322363Y-119006241D01*
X147167000Y-119238759D01*
X147011637Y-119006241D01*
X146811759Y-118806363D01*
X146576727Y-118649320D01*
X146315574Y-118541147D01*
X146038335Y-118486000D01*
X145755665Y-118486000D01*
X145478426Y-118541147D01*
X145217273Y-118649320D01*
X144982241Y-118806363D01*
X144782363Y-119006241D01*
X144627000Y-119238759D01*
X144471637Y-119006241D01*
X144271759Y-118806363D01*
X144036727Y-118649320D01*
X143775574Y-118541147D01*
X143498335Y-118486000D01*
X143215665Y-118486000D01*
X142938426Y-118541147D01*
X142677273Y-118649320D01*
X142442241Y-118806363D01*
X142242363Y-119006241D01*
X142087000Y-119238759D01*
X141931637Y-119006241D01*
X141731759Y-118806363D01*
X141496727Y-118649320D01*
X141235574Y-118541147D01*
X140958335Y-118486000D01*
X140675665Y-118486000D01*
X140398426Y-118541147D01*
X140137273Y-118649320D01*
X139902241Y-118806363D01*
X139702363Y-119006241D01*
X139545320Y-119241273D01*
X139437147Y-119502426D01*
X139382000Y-119779665D01*
X139382000Y-120062335D01*
X139437147Y-120339574D01*
X139444448Y-120357200D01*
X122666114Y-120357200D01*
X123089093Y-120074575D01*
X123538575Y-119625093D01*
X123891730Y-119096558D01*
X124134988Y-118509281D01*
X124259000Y-117885832D01*
X124259000Y-117250168D01*
X124134988Y-116626719D01*
X123891730Y-116039442D01*
X123538575Y-115510907D01*
X123089093Y-115061425D01*
X122560558Y-114708270D01*
X121973281Y-114465012D01*
X121349832Y-114341000D01*
X120714168Y-114341000D01*
X120090719Y-114465012D01*
X119503442Y-114708270D01*
X118974907Y-115061425D01*
X118525425Y-115510907D01*
X118216626Y-115973059D01*
X118193932Y-75941393D01*
X118500425Y-76400093D01*
X118949907Y-76849575D01*
X119478442Y-77202730D01*
X120065719Y-77445988D01*
X120689168Y-77570000D01*
X121324832Y-77570000D01*
X121948281Y-77445988D01*
X122535558Y-77202730D01*
X123064093Y-76849575D01*
X123513575Y-76400093D01*
X123866730Y-75871558D01*
X124109988Y-75284281D01*
X124234000Y-74660832D01*
X124234000Y-74025168D01*
X124227602Y-73993000D01*
X163093928Y-73993000D01*
X163106188Y-74117482D01*
X163142498Y-74237180D01*
X163201463Y-74347494D01*
X163280815Y-74444185D01*
X163377506Y-74523537D01*
X163487820Y-74582502D01*
X163607518Y-74618812D01*
X163732000Y-74631072D01*
X164296250Y-74628000D01*
X164455000Y-74469250D01*
X164455000Y-73270000D01*
X163255750Y-73270000D01*
X163097000Y-73428750D01*
X163093928Y-73993000D01*
X124227602Y-73993000D01*
X124109988Y-73401719D01*
X123866730Y-72814442D01*
X123518315Y-72293000D01*
X163093928Y-72293000D01*
X163097000Y-72857250D01*
X163255750Y-73016000D01*
X164455000Y-73016000D01*
X164455000Y-71816750D01*
X164296250Y-71658000D01*
X163732000Y-71654928D01*
X163607518Y-71667188D01*
X163487820Y-71703498D01*
X163377506Y-71762463D01*
X163280815Y-71841815D01*
X163201463Y-71938506D01*
X163142498Y-72048820D01*
X163106188Y-72168518D01*
X163093928Y-72293000D01*
X123518315Y-72293000D01*
X123513575Y-72285907D01*
X123064093Y-71836425D01*
X122753360Y-71628800D01*
X179498457Y-71628800D01*
X179980857Y-71676100D01*
G04 #@! TA.AperFunction,Conductor*
D26*
G36*
X179980857Y-71676100D02*
G01*
X180412620Y-71806457D01*
X180810839Y-72018193D01*
X181160347Y-72303245D01*
X181447835Y-72650758D01*
X181662342Y-73047482D01*
X181795712Y-73478330D01*
X181846192Y-73958612D01*
X181822395Y-115935675D01*
X181538575Y-115510907D01*
X181089093Y-115061425D01*
X180560558Y-114708270D01*
X179973281Y-114465012D01*
X179349832Y-114341000D01*
X178714168Y-114341000D01*
X178090719Y-114465012D01*
X177503442Y-114708270D01*
X176974907Y-115061425D01*
X176525425Y-115510907D01*
X176172270Y-116039442D01*
X175929012Y-116626719D01*
X175805000Y-117250168D01*
X175805000Y-117885832D01*
X175929012Y-118509281D01*
X176172270Y-119096558D01*
X176525425Y-119625093D01*
X176974907Y-120074575D01*
X177397886Y-120357200D01*
X170129552Y-120357200D01*
X170136853Y-120339574D01*
X170192000Y-120062335D01*
X170192000Y-119779665D01*
X170136853Y-119502426D01*
X170028680Y-119241273D01*
X169871637Y-119006241D01*
X169671759Y-118806363D01*
X169517000Y-118702957D01*
X169517000Y-108189637D01*
X169520676Y-108152314D01*
X169517000Y-108114991D01*
X169517000Y-108114982D01*
X169506003Y-108003329D01*
X169462546Y-107860068D01*
X169391974Y-107728039D01*
X169344039Y-107669630D01*
X169320799Y-107641311D01*
X169320795Y-107641307D01*
X169297001Y-107612314D01*
X169268008Y-107588520D01*
X167461488Y-105782002D01*
X167437686Y-105752999D01*
X167321961Y-105658026D01*
X167189932Y-105587454D01*
X167046671Y-105543997D01*
X166935018Y-105533000D01*
X166935007Y-105533000D01*
X166897685Y-105529324D01*
X166860363Y-105533000D01*
X166285711Y-105533000D01*
X166241774Y-105489063D01*
X166072256Y-105375795D01*
X165883898Y-105297774D01*
X165683939Y-105258000D01*
X165480061Y-105258000D01*
X165280102Y-105297774D01*
X165091744Y-105375795D01*
X164967000Y-105459146D01*
X164967000Y-104860128D01*
X165624130Y-104202998D01*
X174326251Y-104202998D01*
X174382002Y-104208489D01*
X174437753Y-104202998D01*
X174437754Y-104202998D01*
X174604501Y-104186575D01*
X174818449Y-104121674D01*
X175015625Y-104016282D01*
X175188451Y-103874447D01*
X175223998Y-103831133D01*
X179970146Y-99084987D01*
X180013449Y-99049449D01*
X180099978Y-98944014D01*
X180155284Y-98876623D01*
X180260676Y-98679447D01*
X180325577Y-98465499D01*
X180347491Y-98243000D01*
X180342000Y-98187248D01*
X180342000Y-92979604D01*
X180467514Y-92791759D01*
X180574738Y-92532899D01*
X180629400Y-92258094D01*
X180629400Y-91977906D01*
X180574738Y-91703101D01*
X180467514Y-91444241D01*
X180311850Y-91211273D01*
X180113727Y-91013150D01*
X179880759Y-90857486D01*
X179621899Y-90750262D01*
X179347094Y-90695600D01*
X179066906Y-90695600D01*
X178792101Y-90750262D01*
X178533241Y-90857486D01*
X178300273Y-91013150D01*
X178102150Y-91211273D01*
X177946486Y-91444241D01*
X177839262Y-91703101D01*
X177784600Y-91977906D01*
X177784600Y-92258094D01*
X177839262Y-92532899D01*
X177946486Y-92791759D01*
X178072001Y-92979606D01*
X178072000Y-97772867D01*
X173911871Y-101932998D01*
X165209750Y-101932998D01*
X165153998Y-101927507D01*
X164931499Y-101949421D01*
X164717551Y-102014322D01*
X164520375Y-102119714D01*
X164390854Y-102226009D01*
X164390852Y-102226011D01*
X164347549Y-102261549D01*
X164312011Y-102304852D01*
X163068860Y-103548005D01*
X163025552Y-103583547D01*
X162883717Y-103756373D01*
X162836605Y-103844514D01*
X162778324Y-103953550D01*
X162713423Y-104167498D01*
X162691509Y-104389996D01*
X162697001Y-104445757D01*
X162697000Y-112756396D01*
X162571486Y-112944241D01*
X162464262Y-113203101D01*
X162409600Y-113477906D01*
X162409600Y-113758094D01*
X162464262Y-114032899D01*
X162571486Y-114291759D01*
X162727150Y-114524727D01*
X162925273Y-114722850D01*
X163158241Y-114878514D01*
X163417101Y-114985738D01*
X163691906Y-115040400D01*
X163972094Y-115040400D01*
X164246899Y-114985738D01*
X164505759Y-114878514D01*
X164738727Y-114722850D01*
X164936850Y-114524727D01*
X165092514Y-114291759D01*
X165199738Y-114032899D01*
X165254400Y-113758094D01*
X165254400Y-113477906D01*
X165199738Y-113203101D01*
X165092514Y-112944241D01*
X164967000Y-112756396D01*
X164967000Y-107126854D01*
X165091744Y-107210205D01*
X165280102Y-107288226D01*
X165480061Y-107328000D01*
X165629435Y-107328000D01*
X165597001Y-107491060D01*
X165597001Y-107694938D01*
X165636775Y-107894897D01*
X165714796Y-108083255D01*
X165828064Y-108252773D01*
X165872001Y-108296710D01*
X165872002Y-118526512D01*
X165798426Y-118541147D01*
X165537273Y-118649320D01*
X165302241Y-118806363D01*
X165102363Y-119006241D01*
X164947000Y-119238759D01*
X164791637Y-119006241D01*
X164591759Y-118806363D01*
X164356727Y-118649320D01*
X164244437Y-118602808D01*
X164274205Y-118558256D01*
X164352226Y-118369898D01*
X164392000Y-118169939D01*
X164392000Y-117966061D01*
X164352226Y-117766102D01*
X164274205Y-117577744D01*
X164160937Y-117408226D01*
X164016774Y-117264063D01*
X163847256Y-117150795D01*
X163658898Y-117072774D01*
X163458939Y-117033000D01*
X163396802Y-117033000D01*
X162142000Y-115778199D01*
X162142000Y-110046711D01*
X162185937Y-110002774D01*
X162299205Y-109833256D01*
X162377226Y-109644898D01*
X162417000Y-109444939D01*
X162417000Y-109241061D01*
X162377226Y-109041102D01*
X162299205Y-108852744D01*
X162185937Y-108683226D01*
X162041774Y-108539063D01*
X161872256Y-108425795D01*
X161683898Y-108347774D01*
X161483939Y-108308000D01*
X161280061Y-108308000D01*
X161080102Y-108347774D01*
X160891744Y-108425795D01*
X160722226Y-108539063D01*
X160578063Y-108683226D01*
X160464795Y-108852744D01*
X160386774Y-109041102D01*
X160347000Y-109241061D01*
X160347000Y-109444939D01*
X160386774Y-109644898D01*
X160464795Y-109833256D01*
X160578063Y-110002774D01*
X160622000Y-110046711D01*
X160622001Y-116031204D01*
X160292000Y-115701203D01*
X160292000Y-106038382D01*
X160295676Y-106001059D01*
X160292000Y-105963736D01*
X160292000Y-105963727D01*
X160281003Y-105852074D01*
X160237546Y-105708813D01*
X160166974Y-105576784D01*
X160140067Y-105543998D01*
X160095799Y-105490056D01*
X160095795Y-105490052D01*
X160072001Y-105461059D01*
X160043008Y-105437265D01*
X158639412Y-104033670D01*
X158809090Y-103963386D01*
X158841744Y-103985205D01*
X159030102Y-104063226D01*
X159230061Y-104103000D01*
X159433939Y-104103000D01*
X159633898Y-104063226D01*
X159822256Y-103985205D01*
X159991774Y-103871937D01*
X160135937Y-103727774D01*
X160249205Y-103558256D01*
X160327226Y-103369898D01*
X160367000Y-103169939D01*
X160367000Y-102966061D01*
X160327226Y-102766102D01*
X160249205Y-102577744D01*
X160135937Y-102408226D01*
X160080987Y-102353276D01*
X160037546Y-102210068D01*
X159966974Y-102078039D01*
X159940148Y-102045351D01*
X159895799Y-101991311D01*
X159895795Y-101991307D01*
X159872001Y-101962314D01*
X159843009Y-101938521D01*
X158906947Y-101002461D01*
X159015574Y-100980853D01*
X159276727Y-100872680D01*
X159511759Y-100715637D01*
X159711637Y-100515759D01*
X159867000Y-100283241D01*
X160022363Y-100515759D01*
X160222241Y-100715637D01*
X160457273Y-100872680D01*
X160718426Y-100980853D01*
X160995665Y-101036000D01*
X161278335Y-101036000D01*
X161555574Y-100980853D01*
X161816727Y-100872680D01*
X162051759Y-100715637D01*
X162251637Y-100515759D01*
X162407000Y-100283241D01*
X162562363Y-100515759D01*
X162762241Y-100715637D01*
X162997273Y-100872680D01*
X163258426Y-100980853D01*
X163535665Y-101036000D01*
X163818335Y-101036000D01*
X164095574Y-100980853D01*
X164356727Y-100872680D01*
X164591759Y-100715637D01*
X164791637Y-100515759D01*
X164947000Y-100283241D01*
X165102363Y-100515759D01*
X165302241Y-100715637D01*
X165537273Y-100872680D01*
X165798426Y-100980853D01*
X166075665Y-101036000D01*
X166358335Y-101036000D01*
X166635574Y-100980853D01*
X166896727Y-100872680D01*
X167131759Y-100715637D01*
X167253694Y-100593702D01*
X167943903Y-100593702D01*
X168015486Y-100837671D01*
X168270996Y-100958571D01*
X168545184Y-101027300D01*
X168827512Y-101041217D01*
X169107130Y-100999787D01*
X169373292Y-100904603D01*
X169498514Y-100837671D01*
X169570097Y-100593702D01*
X168757000Y-99780605D01*
X167943903Y-100593702D01*
X167253694Y-100593702D01*
X167331637Y-100515759D01*
X167487915Y-100281872D01*
X167520329Y-100342514D01*
X167764298Y-100414097D01*
X168577395Y-99601000D01*
X168936605Y-99601000D01*
X169749702Y-100414097D01*
X169993671Y-100342514D01*
X170114571Y-100087004D01*
X170183300Y-99812816D01*
X170197217Y-99530488D01*
X170155787Y-99250870D01*
X170060603Y-98984708D01*
X169993671Y-98859486D01*
X169749702Y-98787903D01*
X168936605Y-99601000D01*
X168577395Y-99601000D01*
X167764298Y-98787903D01*
X167520329Y-98859486D01*
X167489806Y-98923992D01*
X167488680Y-98921273D01*
X167331637Y-98686241D01*
X167253694Y-98608298D01*
X167943903Y-98608298D01*
X168757000Y-99421395D01*
X169570097Y-98608298D01*
X169498514Y-98364329D01*
X169243004Y-98243429D01*
X168968816Y-98174700D01*
X168686488Y-98160783D01*
X168406870Y-98202213D01*
X168140708Y-98297397D01*
X168015486Y-98364329D01*
X167943903Y-98608298D01*
X167253694Y-98608298D01*
X167131759Y-98486363D01*
X166896727Y-98329320D01*
X166635574Y-98221147D01*
X166358335Y-98166000D01*
X166075665Y-98166000D01*
X165798426Y-98221147D01*
X165537273Y-98329320D01*
X165302241Y-98486363D01*
X165102363Y-98686241D01*
X164947000Y-98918759D01*
X164791637Y-98686241D01*
X164591759Y-98486363D01*
X164356727Y-98329320D01*
X164095574Y-98221147D01*
X163818335Y-98166000D01*
X163646802Y-98166000D01*
X163684802Y-98128000D01*
X172019678Y-98128000D01*
X172057000Y-98131676D01*
X172094322Y-98128000D01*
X172094333Y-98128000D01*
X172205986Y-98117003D01*
X172349247Y-98073546D01*
X172481276Y-98002974D01*
X172597001Y-97908001D01*
X172620803Y-97878998D01*
X173392262Y-97107539D01*
X173395080Y-97109641D01*
X173657901Y-97234825D01*
X173805110Y-97279476D01*
X174035000Y-97158155D01*
X174035000Y-95965000D01*
X174289000Y-95965000D01*
X174289000Y-97158155D01*
X174518890Y-97279476D01*
X174666099Y-97234825D01*
X174928920Y-97109641D01*
X175162269Y-96935588D01*
X175357178Y-96719355D01*
X175506157Y-96469252D01*
X175603481Y-96194891D01*
X175482814Y-95965000D01*
X174289000Y-95965000D01*
X174035000Y-95965000D01*
X174015000Y-95965000D01*
X174015000Y-95711000D01*
X174035000Y-95711000D01*
X174035000Y-95691000D01*
X174289000Y-95691000D01*
X174289000Y-95711000D01*
X175482814Y-95711000D01*
X175603481Y-95481109D01*
X175506157Y-95206748D01*
X175357178Y-94956645D01*
X175162269Y-94740412D01*
X174932594Y-94569100D01*
X175108632Y-94451475D01*
X175315475Y-94244632D01*
X175477990Y-94001411D01*
X175589932Y-93731158D01*
X175647000Y-93444260D01*
X175647000Y-93151740D01*
X175589932Y-92864842D01*
X175477990Y-92594589D01*
X175315475Y-92351368D01*
X175108632Y-92144525D01*
X174865411Y-91982010D01*
X174595158Y-91870068D01*
X174308260Y-91813000D01*
X174015740Y-91813000D01*
X173728842Y-91870068D01*
X173642000Y-91906039D01*
X173642000Y-79282801D01*
X175253004Y-77671798D01*
X175282001Y-77648001D01*
X175376974Y-77532276D01*
X175447546Y-77400247D01*
X175491003Y-77256986D01*
X175502000Y-77145333D01*
X175502000Y-77145324D01*
X175505676Y-77108001D01*
X175502000Y-77070678D01*
X175502000Y-74421178D01*
X175688632Y-74296475D01*
X175895475Y-74089632D01*
X176012000Y-73915240D01*
X176128525Y-74089632D01*
X176335368Y-74296475D01*
X176578589Y-74458990D01*
X176848842Y-74570932D01*
X177135740Y-74628000D01*
X177428260Y-74628000D01*
X177715158Y-74570932D01*
X177985411Y-74458990D01*
X178228632Y-74296475D01*
X178435475Y-74089632D01*
X178597990Y-73846411D01*
X178709932Y-73576158D01*
X178767000Y-73289260D01*
X178767000Y-72996740D01*
X178709932Y-72709842D01*
X178597990Y-72439589D01*
X178435475Y-72196368D01*
X178228632Y-71989525D01*
X177985411Y-71827010D01*
X177715158Y-71715068D01*
X177428260Y-71658000D01*
X177135740Y-71658000D01*
X176848842Y-71715068D01*
X176578589Y-71827010D01*
X176335368Y-71989525D01*
X176128525Y-72196368D01*
X176012000Y-72370760D01*
X175895475Y-72196368D01*
X175688632Y-71989525D01*
X175445411Y-71827010D01*
X175175158Y-71715068D01*
X174888260Y-71658000D01*
X174595740Y-71658000D01*
X174308842Y-71715068D01*
X174038589Y-71827010D01*
X173795368Y-71989525D01*
X173588525Y-72196368D01*
X173472000Y-72370760D01*
X173355475Y-72196368D01*
X173148632Y-71989525D01*
X172905411Y-71827010D01*
X172635158Y-71715068D01*
X172348260Y-71658000D01*
X172055740Y-71658000D01*
X171768842Y-71715068D01*
X171498589Y-71827010D01*
X171255368Y-71989525D01*
X171048525Y-72196368D01*
X170932000Y-72370760D01*
X170815475Y-72196368D01*
X170608632Y-71989525D01*
X170365411Y-71827010D01*
X170095158Y-71715068D01*
X169808260Y-71658000D01*
X169515740Y-71658000D01*
X169228842Y-71715068D01*
X168958589Y-71827010D01*
X168715368Y-71989525D01*
X168508525Y-72196368D01*
X168392000Y-72370760D01*
X168275475Y-72196368D01*
X168068632Y-71989525D01*
X167825411Y-71827010D01*
X167555158Y-71715068D01*
X167268260Y-71658000D01*
X166975740Y-71658000D01*
X166688842Y-71715068D01*
X166418589Y-71827010D01*
X166175368Y-71989525D01*
X166043513Y-72121380D01*
X166021502Y-72048820D01*
X165962537Y-71938506D01*
X165883185Y-71841815D01*
X165786494Y-71762463D01*
X165676180Y-71703498D01*
X165556482Y-71667188D01*
X165432000Y-71654928D01*
X164867750Y-71658000D01*
X164709000Y-71816750D01*
X164709000Y-73016000D01*
X164729000Y-73016000D01*
X164729000Y-73270000D01*
X164709000Y-73270000D01*
X164709000Y-74469250D01*
X164867750Y-74628000D01*
X165432000Y-74631072D01*
X165556482Y-74618812D01*
X165676180Y-74582502D01*
X165786494Y-74523537D01*
X165883185Y-74444185D01*
X165962537Y-74347494D01*
X166021502Y-74237180D01*
X166043513Y-74164620D01*
X166175368Y-74296475D01*
X166362001Y-74421179D01*
X166362000Y-84874289D01*
X166318063Y-84918226D01*
X166204795Y-85087744D01*
X166126774Y-85276102D01*
X166087000Y-85476061D01*
X166087000Y-85538198D01*
X164806445Y-86818753D01*
X164758011Y-86575257D01*
X164642299Y-86295905D01*
X164474312Y-86044495D01*
X164260505Y-85830688D01*
X164106895Y-85728049D01*
X164166475Y-85547080D01*
X163282000Y-84662605D01*
X163267858Y-84676748D01*
X163088253Y-84497143D01*
X163102395Y-84483000D01*
X163088253Y-84468858D01*
X163267858Y-84289253D01*
X163282000Y-84303395D01*
X163296143Y-84289253D01*
X163475748Y-84468858D01*
X163461605Y-84483000D01*
X164346080Y-85367475D01*
X164600261Y-85283792D01*
X164731158Y-85011225D01*
X164806365Y-84718358D01*
X164822991Y-84416447D01*
X164780397Y-84117093D01*
X164680222Y-83831801D01*
X164600261Y-83682208D01*
X164346082Y-83598526D01*
X164462030Y-83482578D01*
X164415265Y-83435813D01*
X164426180Y-83432502D01*
X164536494Y-83373537D01*
X164633185Y-83294185D01*
X164712537Y-83197494D01*
X164771502Y-83087180D01*
X164807812Y-82967482D01*
X164820072Y-82843000D01*
X164820072Y-81043000D01*
X164807812Y-80918518D01*
X164771502Y-80798820D01*
X164712537Y-80688506D01*
X164633185Y-80591815D01*
X164536494Y-80512463D01*
X164426180Y-80453498D01*
X164306482Y-80417188D01*
X164182000Y-80404928D01*
X162382000Y-80404928D01*
X162257518Y-80417188D01*
X162137820Y-80453498D01*
X162027506Y-80512463D01*
X161930815Y-80591815D01*
X161851463Y-80688506D01*
X161792498Y-80798820D01*
X161756188Y-80918518D01*
X161743928Y-81043000D01*
X161743928Y-82843000D01*
X161756188Y-82967482D01*
X161792498Y-83087180D01*
X161851463Y-83197494D01*
X161930815Y-83294185D01*
X162027506Y-83373537D01*
X162137820Y-83432502D01*
X162148735Y-83435813D01*
X162101970Y-83482578D01*
X162217918Y-83598526D01*
X161963739Y-83682208D01*
X161832842Y-83954775D01*
X161757635Y-84247642D01*
X161741009Y-84549553D01*
X161783603Y-84848907D01*
X161795574Y-84883000D01*
X156966132Y-84883000D01*
X156970072Y-84843000D01*
X156970072Y-83243000D01*
X156957812Y-83118518D01*
X156921502Y-82998820D01*
X156862537Y-82888506D01*
X156783185Y-82791815D01*
X156686494Y-82712463D01*
X156576180Y-82653498D01*
X156456482Y-82617188D01*
X156332000Y-82604928D01*
X154732000Y-82604928D01*
X154607518Y-82617188D01*
X154487820Y-82653498D01*
X154377506Y-82712463D01*
X154280815Y-82791815D01*
X154201463Y-82888506D01*
X154142498Y-82998820D01*
X154106188Y-83118518D01*
X154093928Y-83243000D01*
X154093928Y-84843000D01*
X154097868Y-84883000D01*
X149927868Y-84883000D01*
X148876446Y-83831579D01*
X148850291Y-83799709D01*
X148818427Y-83773559D01*
X143617000Y-78572133D01*
X143617000Y-78181072D01*
X143982000Y-78181072D01*
X144106482Y-78168812D01*
X144226180Y-78132502D01*
X144336494Y-78073537D01*
X144433185Y-77994185D01*
X144512537Y-77897494D01*
X144571502Y-77787180D01*
X144607812Y-77667482D01*
X144620072Y-77543000D01*
X144620072Y-76162268D01*
X145947000Y-76162268D01*
X145947000Y-76523732D01*
X146017518Y-76878250D01*
X146155844Y-77212199D01*
X146356662Y-77512744D01*
X146612256Y-77768338D01*
X146912801Y-77969156D01*
X147246750Y-78107482D01*
X147601268Y-78178000D01*
X147962732Y-78178000D01*
X148317250Y-78107482D01*
X148651199Y-77969156D01*
X148951744Y-77768338D01*
X149207338Y-77512744D01*
X149408156Y-77212199D01*
X149443928Y-77125838D01*
X149443928Y-77543000D01*
X149456188Y-77667482D01*
X149492498Y-77787180D01*
X149551463Y-77897494D01*
X149630815Y-77994185D01*
X149727506Y-78073537D01*
X149837820Y-78132502D01*
X149957518Y-78168812D01*
X150082000Y-78181072D01*
X152482000Y-78181072D01*
X152606482Y-78168812D01*
X152726180Y-78132502D01*
X152836494Y-78073537D01*
X152933185Y-77994185D01*
X153012537Y-77897494D01*
X153071502Y-77787180D01*
X153107812Y-77667482D01*
X153112391Y-77620980D01*
X155183626Y-77620980D01*
X155303514Y-77905836D01*
X155627210Y-78066699D01*
X155976069Y-78161322D01*
X156336684Y-78186067D01*
X156695198Y-78139985D01*
X157037833Y-78024846D01*
X157260486Y-77905836D01*
X157380374Y-77620980D01*
X156282000Y-76522605D01*
X155183626Y-77620980D01*
X153112391Y-77620980D01*
X153120072Y-77543000D01*
X153120072Y-76397684D01*
X154438933Y-76397684D01*
X154485015Y-76756198D01*
X154600154Y-77098833D01*
X154719164Y-77321486D01*
X155004020Y-77441374D01*
X156102395Y-76343000D01*
X156461605Y-76343000D01*
X157559980Y-77441374D01*
X157844836Y-77321486D01*
X157943928Y-77122088D01*
X157943928Y-77543000D01*
X157956188Y-77667482D01*
X157992498Y-77787180D01*
X158051463Y-77897494D01*
X158130815Y-77994185D01*
X158227506Y-78073537D01*
X158337820Y-78132502D01*
X158457518Y-78168812D01*
X158582000Y-78181072D01*
X160982000Y-78181072D01*
X161106482Y-78168812D01*
X161226180Y-78132502D01*
X161336494Y-78073537D01*
X161433185Y-77994185D01*
X161512537Y-77897494D01*
X161571502Y-77787180D01*
X161607812Y-77667482D01*
X161620072Y-77543000D01*
X161620072Y-75143000D01*
X161607812Y-75018518D01*
X161571502Y-74898820D01*
X161512537Y-74788506D01*
X161433185Y-74691815D01*
X161336494Y-74612463D01*
X161226180Y-74553498D01*
X161106482Y-74517188D01*
X160982000Y-74504928D01*
X158582000Y-74504928D01*
X158457518Y-74517188D01*
X158337820Y-74553498D01*
X158227506Y-74612463D01*
X158130815Y-74691815D01*
X158051463Y-74788506D01*
X157992498Y-74898820D01*
X157956188Y-75018518D01*
X157943928Y-75143000D01*
X157943928Y-75549903D01*
X157844836Y-75364514D01*
X157559980Y-75244626D01*
X156461605Y-76343000D01*
X156102395Y-76343000D01*
X155004020Y-75244626D01*
X154719164Y-75364514D01*
X154558301Y-75688210D01*
X154463678Y-76037069D01*
X154438933Y-76397684D01*
X153120072Y-76397684D01*
X153120072Y-75143000D01*
X153112392Y-75065020D01*
X155183626Y-75065020D01*
X156282000Y-76163395D01*
X157380374Y-75065020D01*
X157260486Y-74780164D01*
X156936790Y-74619301D01*
X156587931Y-74524678D01*
X156227316Y-74499933D01*
X155868802Y-74546015D01*
X155526167Y-74661154D01*
X155303514Y-74780164D01*
X155183626Y-75065020D01*
X153112392Y-75065020D01*
X153107812Y-75018518D01*
X153071502Y-74898820D01*
X153012537Y-74788506D01*
X152933185Y-74691815D01*
X152836494Y-74612463D01*
X152726180Y-74553498D01*
X152606482Y-74517188D01*
X152482000Y-74504928D01*
X150082000Y-74504928D01*
X149957518Y-74517188D01*
X149837820Y-74553498D01*
X149727506Y-74612463D01*
X149630815Y-74691815D01*
X149551463Y-74788506D01*
X149492498Y-74898820D01*
X149456188Y-75018518D01*
X149443928Y-75143000D01*
X149443928Y-75560162D01*
X149408156Y-75473801D01*
X149207338Y-75173256D01*
X148951744Y-74917662D01*
X148651199Y-74716844D01*
X148317250Y-74578518D01*
X147962732Y-74508000D01*
X147601268Y-74508000D01*
X147246750Y-74578518D01*
X146912801Y-74716844D01*
X146612256Y-74917662D01*
X146356662Y-75173256D01*
X146155844Y-75473801D01*
X146017518Y-75807750D01*
X145947000Y-76162268D01*
X144620072Y-76162268D01*
X144620072Y-75143000D01*
X144607812Y-75018518D01*
X144571502Y-74898820D01*
X144512537Y-74788506D01*
X144433185Y-74691815D01*
X144336494Y-74612463D01*
X144226180Y-74553498D01*
X144106482Y-74517188D01*
X143982000Y-74504928D01*
X141582000Y-74504928D01*
X141457518Y-74517188D01*
X141337820Y-74553498D01*
X141227506Y-74612463D01*
X141130815Y-74691815D01*
X141051463Y-74788506D01*
X140992498Y-74898820D01*
X140956188Y-75018518D01*
X140943928Y-75143000D01*
X140943928Y-75549903D01*
X140844836Y-75364514D01*
X140559980Y-75244626D01*
X139461605Y-76343000D01*
X140559980Y-77441374D01*
X140844836Y-77321486D01*
X140943928Y-77122088D01*
X140943928Y-77543000D01*
X140956188Y-77667482D01*
X140992498Y-77787180D01*
X141051463Y-77897494D01*
X141130815Y-77994185D01*
X141227506Y-78073537D01*
X141337820Y-78132502D01*
X141457518Y-78168812D01*
X141582000Y-78181072D01*
X141947001Y-78181072D01*
X141947001Y-78876972D01*
X141942960Y-78918000D01*
X141959082Y-79081688D01*
X142006828Y-79239086D01*
X142044864Y-79310246D01*
X142084365Y-79384146D01*
X142188710Y-79511291D01*
X142220574Y-79537441D01*
X146241132Y-83558000D01*
X133073018Y-83558000D01*
X133032000Y-83553960D01*
X132990982Y-83558000D01*
X132990981Y-83558000D01*
X132868311Y-83570082D01*
X132710913Y-83617828D01*
X132565854Y-83695364D01*
X132438709Y-83799709D01*
X132412563Y-83831568D01*
X130645579Y-85598554D01*
X130613709Y-85624709D01*
X130509365Y-85751854D01*
X130509364Y-85751855D01*
X130431828Y-85896914D01*
X130384082Y-86054312D01*
X130367960Y-86218000D01*
X130372000Y-86259019D01*
X130372000Y-86461081D01*
X130344490Y-86449686D01*
X130074592Y-86396000D01*
X129799408Y-86396000D01*
X129529510Y-86449686D01*
X129275273Y-86554995D01*
X129046465Y-86707880D01*
X128851880Y-86902465D01*
X128698995Y-87131273D01*
X128667000Y-87208515D01*
X128635005Y-87131273D01*
X128482120Y-86902465D01*
X128287535Y-86707880D01*
X128058727Y-86554995D01*
X127804490Y-86449686D01*
X127534592Y-86396000D01*
X127259408Y-86396000D01*
X126989510Y-86449686D01*
X126735273Y-86554995D01*
X126506465Y-86707880D01*
X126311880Y-86902465D01*
X126158995Y-87131273D01*
X126053686Y-87385510D01*
X126000000Y-87655408D01*
X126000000Y-87930592D01*
X126053686Y-88200490D01*
X126158995Y-88454727D01*
X126311880Y-88683535D01*
X126506465Y-88878120D01*
X126735273Y-89031005D01*
X126989510Y-89136314D01*
X127259408Y-89190000D01*
X127534592Y-89190000D01*
X127804490Y-89136314D01*
X128058727Y-89031005D01*
X128287535Y-88878120D01*
X128482120Y-88683535D01*
X128635005Y-88454727D01*
X128667000Y-88377485D01*
X128698995Y-88454727D01*
X128851880Y-88683535D01*
X129046465Y-88878120D01*
X129275273Y-89031005D01*
X129529510Y-89136314D01*
X129799408Y-89190000D01*
X130074592Y-89190000D01*
X130344490Y-89136314D01*
X130372001Y-89124919D01*
X130372001Y-90187131D01*
X128719940Y-91839193D01*
X128588260Y-91813000D01*
X128295740Y-91813000D01*
X128008842Y-91870068D01*
X127738589Y-91982010D01*
X127495368Y-92144525D01*
X127288525Y-92351368D01*
X127213935Y-92463000D01*
X127130065Y-92463000D01*
X127055475Y-92351368D01*
X126848632Y-92144525D01*
X126605411Y-91982010D01*
X126335158Y-91870068D01*
X126048260Y-91813000D01*
X125755740Y-91813000D01*
X125468842Y-91870068D01*
X125198589Y-91982010D01*
X124955368Y-92144525D01*
X124748525Y-92351368D01*
X124586010Y-92594589D01*
X124474068Y-92864842D01*
X124417000Y-93151740D01*
X124417000Y-93444260D01*
X124474068Y-93731158D01*
X124586010Y-94001411D01*
X124748525Y-94244632D01*
X124880380Y-94376487D01*
X124807820Y-94398498D01*
X124697506Y-94457463D01*
X124600815Y-94536815D01*
X124521463Y-94633506D01*
X124462498Y-94743820D01*
X124426188Y-94863518D01*
X124413928Y-94988000D01*
X124413928Y-96688000D01*
X124426188Y-96812482D01*
X124462498Y-96932180D01*
X124521463Y-97042494D01*
X124600815Y-97139185D01*
X124697506Y-97218537D01*
X124807820Y-97277502D01*
X124927518Y-97313812D01*
X125052000Y-97326072D01*
X126752000Y-97326072D01*
X126876482Y-97313812D01*
X126996180Y-97277502D01*
X127106494Y-97218537D01*
X127203185Y-97139185D01*
X127282537Y-97042494D01*
X127341502Y-96932180D01*
X127363513Y-96859620D01*
X127495368Y-96991475D01*
X127738589Y-97153990D01*
X128008842Y-97265932D01*
X128295740Y-97323000D01*
X128588260Y-97323000D01*
X128875158Y-97265932D01*
X129145411Y-97153990D01*
X129388632Y-96991475D01*
X129595475Y-96784632D01*
X129712000Y-96610240D01*
X129828525Y-96784632D01*
X130035368Y-96991475D01*
X130278589Y-97153990D01*
X130548842Y-97265932D01*
X130835740Y-97323000D01*
X131128260Y-97323000D01*
X131415158Y-97265932D01*
X131685411Y-97153990D01*
X131928632Y-96991475D01*
X132135475Y-96784632D01*
X132252000Y-96610240D01*
X132368525Y-96784632D01*
X132575368Y-96991475D01*
X132818589Y-97153990D01*
X133088842Y-97265932D01*
X133375740Y-97323000D01*
X133668260Y-97323000D01*
X133955158Y-97265932D01*
X134022000Y-97238245D01*
X134022000Y-97701197D01*
X133520886Y-98202312D01*
X133338335Y-98166000D01*
X133055665Y-98166000D01*
X132778426Y-98221147D01*
X132517273Y-98329320D01*
X132282241Y-98486363D01*
X132083643Y-98684961D01*
X132082812Y-98676518D01*
X132046502Y-98556820D01*
X131987537Y-98446506D01*
X131908185Y-98349815D01*
X131811494Y-98270463D01*
X131701180Y-98211498D01*
X131581482Y-98175188D01*
X131457000Y-98162928D01*
X129857000Y-98162928D01*
X129732518Y-98175188D01*
X129612820Y-98211498D01*
X129502506Y-98270463D01*
X129405815Y-98349815D01*
X129326463Y-98446506D01*
X129267498Y-98556820D01*
X129231188Y-98676518D01*
X129218928Y-98801000D01*
X129218928Y-100401000D01*
X129231188Y-100525482D01*
X129267498Y-100645180D01*
X129326463Y-100755494D01*
X129405815Y-100852185D01*
X129502506Y-100931537D01*
X129612820Y-100990502D01*
X129732518Y-101026812D01*
X129857000Y-101039072D01*
X131457000Y-101039072D01*
X131581482Y-101026812D01*
X131701180Y-100990502D01*
X131811494Y-100931537D01*
X131908185Y-100852185D01*
X131987537Y-100755494D01*
X132046502Y-100645180D01*
X132082812Y-100525482D01*
X132083643Y-100517039D01*
X132282241Y-100715637D01*
X132517273Y-100872680D01*
X132778426Y-100980853D01*
X133055665Y-101036000D01*
X133338335Y-101036000D01*
X133615574Y-100980853D01*
X133876727Y-100872680D01*
X134111759Y-100715637D01*
X134311637Y-100515759D01*
X134467000Y-100283241D01*
X134622363Y-100515759D01*
X134822241Y-100715637D01*
X135057273Y-100872680D01*
X135318426Y-100980853D01*
X135595665Y-101036000D01*
X135878335Y-101036000D01*
X136155574Y-100980853D01*
X136416727Y-100872680D01*
X136651759Y-100715637D01*
X136773694Y-100593702D01*
X137463903Y-100593702D01*
X137535486Y-100837671D01*
X137790996Y-100958571D01*
X138065184Y-101027300D01*
X138347512Y-101041217D01*
X138627130Y-100999787D01*
X138893292Y-100904603D01*
X139018514Y-100837671D01*
X139090097Y-100593702D01*
X138277000Y-99780605D01*
X137463903Y-100593702D01*
X136773694Y-100593702D01*
X136851637Y-100515759D01*
X137007915Y-100281872D01*
X137040329Y-100342514D01*
X137284298Y-100414097D01*
X138097395Y-99601000D01*
X137284298Y-98787903D01*
X137040329Y-98859486D01*
X137009806Y-98923992D01*
X137008680Y-98921273D01*
X136851637Y-98686241D01*
X136773694Y-98608298D01*
X137463903Y-98608298D01*
X138277000Y-99421395D01*
X139090097Y-98608298D01*
X139018514Y-98364329D01*
X138763004Y-98243429D01*
X138488816Y-98174700D01*
X138206488Y-98160783D01*
X137926870Y-98202213D01*
X137660708Y-98297397D01*
X137535486Y-98364329D01*
X137463903Y-98608298D01*
X136773694Y-98608298D01*
X136651759Y-98486363D01*
X136416727Y-98329320D01*
X136155574Y-98221147D01*
X135878335Y-98166000D01*
X135595665Y-98166000D01*
X135526523Y-98179753D01*
X135531003Y-98164986D01*
X135542000Y-98053333D01*
X135542000Y-98053324D01*
X135545676Y-98016001D01*
X135542000Y-97978678D01*
X135542000Y-97227251D01*
X135557901Y-97234825D01*
X135705110Y-97279476D01*
X135935000Y-97158155D01*
X135935000Y-95965000D01*
X135915000Y-95965000D01*
X135915000Y-95711000D01*
X135935000Y-95711000D01*
X135935000Y-95691000D01*
X136189000Y-95691000D01*
X136189000Y-95711000D01*
X136209000Y-95711000D01*
X136209000Y-95965000D01*
X136189000Y-95965000D01*
X136189000Y-97158155D01*
X136418890Y-97279476D01*
X136566099Y-97234825D01*
X136828920Y-97109641D01*
X137062269Y-96935588D01*
X137257178Y-96719355D01*
X137326805Y-96602466D01*
X137448525Y-96784632D01*
X137655368Y-96991475D01*
X137898589Y-97153990D01*
X138168842Y-97265932D01*
X138455740Y-97323000D01*
X138748260Y-97323000D01*
X139035158Y-97265932D01*
X139305411Y-97153990D01*
X139548632Y-96991475D01*
X139755475Y-96784632D01*
X139872000Y-96610240D01*
X139988525Y-96784632D01*
X140195368Y-96991475D01*
X140438589Y-97153990D01*
X140708842Y-97265932D01*
X140995740Y-97323000D01*
X141288260Y-97323000D01*
X141575158Y-97265932D01*
X141845411Y-97153990D01*
X142088632Y-96991475D01*
X142295475Y-96784632D01*
X142412000Y-96610240D01*
X142528525Y-96784632D01*
X142735368Y-96991475D01*
X142978589Y-97153990D01*
X143248842Y-97265932D01*
X143535740Y-97323000D01*
X143828260Y-97323000D01*
X144115158Y-97265932D01*
X144385411Y-97153990D01*
X144628632Y-96991475D01*
X144835475Y-96784632D01*
X144952000Y-96610240D01*
X145068525Y-96784632D01*
X145148400Y-96864507D01*
X145072753Y-96887454D01*
X144940724Y-96958026D01*
X144824999Y-97052999D01*
X144801201Y-97081997D01*
X143680886Y-98202312D01*
X143498335Y-98166000D01*
X143215665Y-98166000D01*
X142938426Y-98221147D01*
X142677273Y-98329320D01*
X142442241Y-98486363D01*
X142242363Y-98686241D01*
X142087000Y-98918759D01*
X141931637Y-98686241D01*
X141731759Y-98486363D01*
X141496727Y-98329320D01*
X141235574Y-98221147D01*
X140958335Y-98166000D01*
X140675665Y-98166000D01*
X140398426Y-98221147D01*
X140137273Y-98329320D01*
X139902241Y-98486363D01*
X139702363Y-98686241D01*
X139546085Y-98920128D01*
X139513671Y-98859486D01*
X139269702Y-98787903D01*
X138456605Y-99601000D01*
X139269702Y-100414097D01*
X139513671Y-100342514D01*
X139544194Y-100278008D01*
X139545320Y-100280727D01*
X139702363Y-100515759D01*
X139902241Y-100715637D01*
X140137273Y-100872680D01*
X140398426Y-100980853D01*
X140675665Y-101036000D01*
X140958335Y-101036000D01*
X141235574Y-100980853D01*
X141496727Y-100872680D01*
X141511804Y-100862606D01*
X143103222Y-102454024D01*
X143127021Y-102483023D01*
X143242746Y-102577996D01*
X143374775Y-102648568D01*
X143518036Y-102692025D01*
X143629689Y-102703022D01*
X143629698Y-102703022D01*
X143667021Y-102706698D01*
X143704344Y-102703022D01*
X153022000Y-102703022D01*
X153022000Y-102869939D01*
X153061774Y-103069898D01*
X153139795Y-103258256D01*
X153253063Y-103427774D01*
X153397226Y-103571937D01*
X153566744Y-103685205D01*
X153755102Y-103763226D01*
X153955061Y-103803000D01*
X154017199Y-103803000D01*
X157272001Y-107057803D01*
X157272000Y-112576877D01*
X157246552Y-112448938D01*
X157168531Y-112260580D01*
X157055263Y-112091062D01*
X156911100Y-111946899D01*
X156741582Y-111833631D01*
X156553224Y-111755610D01*
X156408102Y-111726744D01*
X153987936Y-109306579D01*
X153961781Y-109274709D01*
X153834636Y-109170364D01*
X153689577Y-109092828D01*
X153532179Y-109045082D01*
X153409509Y-109033000D01*
X153409508Y-109033000D01*
X153368490Y-109028960D01*
X153327472Y-109033000D01*
X126677868Y-109033000D01*
X123317000Y-105672133D01*
X123317000Y-88488867D01*
X133624796Y-78181072D01*
X135482000Y-78181072D01*
X135606482Y-78168812D01*
X135726180Y-78132502D01*
X135836494Y-78073537D01*
X135933185Y-77994185D01*
X136012537Y-77897494D01*
X136071502Y-77787180D01*
X136107812Y-77667482D01*
X136112391Y-77620980D01*
X138183626Y-77620980D01*
X138303514Y-77905836D01*
X138627210Y-78066699D01*
X138976069Y-78161322D01*
X139336684Y-78186067D01*
X139695198Y-78139985D01*
X140037833Y-78024846D01*
X140260486Y-77905836D01*
X140380374Y-77620980D01*
X139282000Y-76522605D01*
X138183626Y-77620980D01*
X136112391Y-77620980D01*
X136120072Y-77543000D01*
X136120072Y-76397684D01*
X137438933Y-76397684D01*
X137485015Y-76756198D01*
X137600154Y-77098833D01*
X137719164Y-77321486D01*
X138004020Y-77441374D01*
X139102395Y-76343000D01*
X138004020Y-75244626D01*
X137719164Y-75364514D01*
X137558301Y-75688210D01*
X137463678Y-76037069D01*
X137438933Y-76397684D01*
X136120072Y-76397684D01*
X136120072Y-75143000D01*
X136112392Y-75065020D01*
X138183626Y-75065020D01*
X139282000Y-76163395D01*
X140380374Y-75065020D01*
X140260486Y-74780164D01*
X139936790Y-74619301D01*
X139587931Y-74524678D01*
X139227316Y-74499933D01*
X138868802Y-74546015D01*
X138526167Y-74661154D01*
X138303514Y-74780164D01*
X138183626Y-75065020D01*
X136112392Y-75065020D01*
X136107812Y-75018518D01*
X136071502Y-74898820D01*
X136012537Y-74788506D01*
X135933185Y-74691815D01*
X135836494Y-74612463D01*
X135726180Y-74553498D01*
X135606482Y-74517188D01*
X135482000Y-74504928D01*
X133082000Y-74504928D01*
X132957518Y-74517188D01*
X132837820Y-74553498D01*
X132727506Y-74612463D01*
X132630815Y-74691815D01*
X132551463Y-74788506D01*
X132492498Y-74898820D01*
X132456188Y-75018518D01*
X132443928Y-75143000D01*
X132443928Y-75560162D01*
X132408156Y-75473801D01*
X132207338Y-75173256D01*
X131951744Y-74917662D01*
X131651199Y-74716844D01*
X131317250Y-74578518D01*
X130962732Y-74508000D01*
X130601268Y-74508000D01*
X130246750Y-74578518D01*
X129912801Y-74716844D01*
X129612256Y-74917662D01*
X129356662Y-75173256D01*
X129155844Y-75473801D01*
X129032000Y-75772787D01*
X128908156Y-75473801D01*
X128707338Y-75173256D01*
X128451744Y-74917662D01*
X128151199Y-74716844D01*
X127817250Y-74578518D01*
X127462732Y-74508000D01*
X127101268Y-74508000D01*
X126746750Y-74578518D01*
X126412801Y-74716844D01*
X126112256Y-74917662D01*
X125856662Y-75173256D01*
X125655844Y-75473801D01*
X125517518Y-75807750D01*
X125447000Y-76162268D01*
X125447000Y-76523732D01*
X125517518Y-76878250D01*
X125531683Y-76912448D01*
X119220579Y-83223554D01*
X119188709Y-83249709D01*
X119087087Y-83373537D01*
X119084364Y-83376855D01*
X119006828Y-83521914D01*
X118959082Y-83679312D01*
X118942960Y-83843000D01*
X118947000Y-83884018D01*
X118947001Y-107526971D01*
X118942960Y-107568000D01*
X118959082Y-107731688D01*
X119006828Y-107889086D01*
X119084364Y-108034145D01*
X119084365Y-108034146D01*
X119188710Y-108161291D01*
X119220574Y-108187441D01*
X126712559Y-115679427D01*
X126738709Y-115711291D01*
X126865854Y-115815636D01*
X127010913Y-115893172D01*
X127168311Y-115940918D01*
X127290981Y-115953000D01*
X127290991Y-115953000D01*
X127331999Y-115957039D01*
X127373007Y-115953000D01*
X152170504Y-115953000D01*
X152211522Y-115957040D01*
X152252540Y-115953000D01*
X152252541Y-115953000D01*
X152375211Y-115940918D01*
X152532609Y-115893172D01*
X152677668Y-115815636D01*
X152804813Y-115711291D01*
X152830968Y-115679421D01*
X154418288Y-114092102D01*
X154563410Y-114063236D01*
X154751768Y-113985215D01*
X154920713Y-113872330D01*
X154959614Y-113888443D01*
X155159573Y-113928217D01*
X155363451Y-113928217D01*
X155563410Y-113888443D01*
X155751768Y-113810422D01*
X155886870Y-113720150D01*
X155949428Y-113746062D01*
X156149387Y-113785836D01*
X156353265Y-113785836D01*
X156553224Y-113746062D01*
X156741582Y-113668041D01*
X156911100Y-113554773D01*
X157055263Y-113410610D01*
X157168531Y-113241092D01*
X157246552Y-113052734D01*
X157272000Y-112924795D01*
X157272000Y-117631198D01*
X156380886Y-118522312D01*
X156198335Y-118486000D01*
X155915665Y-118486000D01*
X155638426Y-118541147D01*
X155377273Y-118649320D01*
X155142241Y-118806363D01*
X154942363Y-119006241D01*
X154787000Y-119238759D01*
X154631637Y-119006241D01*
X154431759Y-118806363D01*
X154196727Y-118649320D01*
X153935574Y-118541147D01*
X153658335Y-118486000D01*
X153375665Y-118486000D01*
X153098426Y-118541147D01*
X152837273Y-118649320D01*
X152602241Y-118806363D01*
X152402363Y-119006241D01*
X152247000Y-119238759D01*
X152091637Y-119006241D01*
X151891759Y-118806363D01*
X151656727Y-118649320D01*
X151395574Y-118541147D01*
X151118335Y-118486000D01*
X150835665Y-118486000D01*
X150558426Y-118541147D01*
X150297273Y-118649320D01*
X150062241Y-118806363D01*
X149862363Y-119006241D01*
X149707000Y-119238759D01*
X149551637Y-119006241D01*
X149351759Y-118806363D01*
X149116727Y-118649320D01*
X148855574Y-118541147D01*
X148578335Y-118486000D01*
X148295665Y-118486000D01*
X148018426Y-118541147D01*
X147757273Y-118649320D01*
X147522241Y-118806363D01*
X147322363Y-119006241D01*
X147167000Y-119238759D01*
X147011637Y-119006241D01*
X146811759Y-118806363D01*
X146576727Y-118649320D01*
X146315574Y-118541147D01*
X146038335Y-118486000D01*
X145755665Y-118486000D01*
X145478426Y-118541147D01*
X145217273Y-118649320D01*
X144982241Y-118806363D01*
X144782363Y-119006241D01*
X144627000Y-119238759D01*
X144471637Y-119006241D01*
X144271759Y-118806363D01*
X144036727Y-118649320D01*
X143775574Y-118541147D01*
X143498335Y-118486000D01*
X143215665Y-118486000D01*
X142938426Y-118541147D01*
X142677273Y-118649320D01*
X142442241Y-118806363D01*
X142242363Y-119006241D01*
X142087000Y-119238759D01*
X141931637Y-119006241D01*
X141731759Y-118806363D01*
X141496727Y-118649320D01*
X141235574Y-118541147D01*
X140958335Y-118486000D01*
X140675665Y-118486000D01*
X140398426Y-118541147D01*
X140137273Y-118649320D01*
X139902241Y-118806363D01*
X139702363Y-119006241D01*
X139545320Y-119241273D01*
X139437147Y-119502426D01*
X139382000Y-119779665D01*
X139382000Y-120062335D01*
X139437147Y-120339574D01*
X139444448Y-120357200D01*
X122666114Y-120357200D01*
X123089093Y-120074575D01*
X123538575Y-119625093D01*
X123891730Y-119096558D01*
X124134988Y-118509281D01*
X124259000Y-117885832D01*
X124259000Y-117250168D01*
X124134988Y-116626719D01*
X123891730Y-116039442D01*
X123538575Y-115510907D01*
X123089093Y-115061425D01*
X122560558Y-114708270D01*
X121973281Y-114465012D01*
X121349832Y-114341000D01*
X120714168Y-114341000D01*
X120090719Y-114465012D01*
X119503442Y-114708270D01*
X118974907Y-115061425D01*
X118525425Y-115510907D01*
X118216626Y-115973059D01*
X118193932Y-75941393D01*
X118500425Y-76400093D01*
X118949907Y-76849575D01*
X119478442Y-77202730D01*
X120065719Y-77445988D01*
X120689168Y-77570000D01*
X121324832Y-77570000D01*
X121948281Y-77445988D01*
X122535558Y-77202730D01*
X123064093Y-76849575D01*
X123513575Y-76400093D01*
X123866730Y-75871558D01*
X124109988Y-75284281D01*
X124234000Y-74660832D01*
X124234000Y-74025168D01*
X124227602Y-73993000D01*
X163093928Y-73993000D01*
X163106188Y-74117482D01*
X163142498Y-74237180D01*
X163201463Y-74347494D01*
X163280815Y-74444185D01*
X163377506Y-74523537D01*
X163487820Y-74582502D01*
X163607518Y-74618812D01*
X163732000Y-74631072D01*
X164296250Y-74628000D01*
X164455000Y-74469250D01*
X164455000Y-73270000D01*
X163255750Y-73270000D01*
X163097000Y-73428750D01*
X163093928Y-73993000D01*
X124227602Y-73993000D01*
X124109988Y-73401719D01*
X123866730Y-72814442D01*
X123518315Y-72293000D01*
X163093928Y-72293000D01*
X163097000Y-72857250D01*
X163255750Y-73016000D01*
X164455000Y-73016000D01*
X164455000Y-71816750D01*
X164296250Y-71658000D01*
X163732000Y-71654928D01*
X163607518Y-71667188D01*
X163487820Y-71703498D01*
X163377506Y-71762463D01*
X163280815Y-71841815D01*
X163201463Y-71938506D01*
X163142498Y-72048820D01*
X163106188Y-72168518D01*
X163093928Y-72293000D01*
X123518315Y-72293000D01*
X123513575Y-72285907D01*
X123064093Y-71836425D01*
X122753360Y-71628800D01*
X179498457Y-71628800D01*
X179980857Y-71676100D01*
G37*
G04 #@! TD.AperFunction*
D25*
X156509000Y-95711000D02*
X156529000Y-95711000D01*
X156529000Y-95965000D01*
X156509000Y-95965000D01*
X156509000Y-97158155D01*
X156738890Y-97279476D01*
X156886099Y-97234825D01*
X157148920Y-97109641D01*
X157382269Y-96935588D01*
X157577178Y-96719355D01*
X157646805Y-96602466D01*
X157768525Y-96784632D01*
X157814253Y-96830360D01*
X157715724Y-96883026D01*
X157599999Y-96977999D01*
X157576201Y-97006997D01*
X156380886Y-98202312D01*
X156198335Y-98166000D01*
X155915665Y-98166000D01*
X155638426Y-98221147D01*
X155377273Y-98329320D01*
X155142241Y-98486363D01*
X154942363Y-98686241D01*
X154787000Y-98918759D01*
X154631637Y-98686241D01*
X154431759Y-98486363D01*
X154232167Y-98353000D01*
X154469678Y-98353000D01*
X154507000Y-98356676D01*
X154544322Y-98353000D01*
X154544333Y-98353000D01*
X154655986Y-98342003D01*
X154799247Y-98298546D01*
X154931276Y-98227974D01*
X155047001Y-98133001D01*
X155070803Y-98103998D01*
X155618004Y-97556798D01*
X155647001Y-97533001D01*
X155680647Y-97492003D01*
X155741974Y-97417277D01*
X155812546Y-97285247D01*
X155818405Y-97265932D01*
X155834161Y-97213991D01*
X155877901Y-97234825D01*
X156025110Y-97279476D01*
X156255000Y-97158155D01*
X156255000Y-95965000D01*
X156235000Y-95965000D01*
X156235000Y-95711000D01*
X156255000Y-95711000D01*
X156255000Y-95691000D01*
X156509000Y-95691000D01*
X156509000Y-95711000D01*
G04 #@! TA.AperFunction,Conductor*
D26*
G36*
X156509000Y-95711000D02*
G01*
X156529000Y-95711000D01*
X156529000Y-95965000D01*
X156509000Y-95965000D01*
X156509000Y-97158155D01*
X156738890Y-97279476D01*
X156886099Y-97234825D01*
X157148920Y-97109641D01*
X157382269Y-96935588D01*
X157577178Y-96719355D01*
X157646805Y-96602466D01*
X157768525Y-96784632D01*
X157814253Y-96830360D01*
X157715724Y-96883026D01*
X157599999Y-96977999D01*
X157576201Y-97006997D01*
X156380886Y-98202312D01*
X156198335Y-98166000D01*
X155915665Y-98166000D01*
X155638426Y-98221147D01*
X155377273Y-98329320D01*
X155142241Y-98486363D01*
X154942363Y-98686241D01*
X154787000Y-98918759D01*
X154631637Y-98686241D01*
X154431759Y-98486363D01*
X154232167Y-98353000D01*
X154469678Y-98353000D01*
X154507000Y-98356676D01*
X154544322Y-98353000D01*
X154544333Y-98353000D01*
X154655986Y-98342003D01*
X154799247Y-98298546D01*
X154931276Y-98227974D01*
X155047001Y-98133001D01*
X155070803Y-98103998D01*
X155618004Y-97556798D01*
X155647001Y-97533001D01*
X155680647Y-97492003D01*
X155741974Y-97417277D01*
X155812546Y-97285247D01*
X155818405Y-97265932D01*
X155834161Y-97213991D01*
X155877901Y-97234825D01*
X156025110Y-97279476D01*
X156255000Y-97158155D01*
X156255000Y-95965000D01*
X156235000Y-95965000D01*
X156235000Y-95711000D01*
X156255000Y-95711000D01*
X156255000Y-95691000D01*
X156509000Y-95691000D01*
X156509000Y-95711000D01*
G37*
G04 #@! TD.AperFunction*
D25*
X148962558Y-86279426D02*
X148988709Y-86311291D01*
X149115854Y-86415636D01*
X149260913Y-86493172D01*
X149418311Y-86540918D01*
X149582000Y-86557040D01*
X149623018Y-86553000D01*
X154483653Y-86553000D01*
X154423023Y-86613630D01*
X154539296Y-86729903D01*
X154295329Y-86801486D01*
X154174429Y-87056996D01*
X154105700Y-87331184D01*
X154091783Y-87613512D01*
X154133213Y-87893130D01*
X154228397Y-88159292D01*
X154295329Y-88284514D01*
X154539298Y-88356097D01*
X155352395Y-87543000D01*
X155338253Y-87528858D01*
X155517858Y-87349253D01*
X155532000Y-87363395D01*
X155546143Y-87349253D01*
X155725748Y-87528858D01*
X155711605Y-87543000D01*
X156524702Y-88356097D01*
X156768671Y-88284514D01*
X156889571Y-88029004D01*
X156958300Y-87754816D01*
X156972217Y-87472488D01*
X156930787Y-87192870D01*
X156835603Y-86926708D01*
X156768671Y-86801486D01*
X156524704Y-86729903D01*
X156640977Y-86613630D01*
X156580347Y-86553000D01*
X161631133Y-86553000D01*
X161780671Y-86702539D01*
X161747000Y-86871816D01*
X161747000Y-87174184D01*
X161805989Y-87470743D01*
X161921701Y-87750095D01*
X162089688Y-88001505D01*
X162303495Y-88215312D01*
X162554905Y-88383299D01*
X162834257Y-88499011D01*
X163077754Y-88547445D01*
X162767199Y-88858000D01*
X156116423Y-88858000D01*
X156148292Y-88846603D01*
X156273514Y-88779671D01*
X156345097Y-88535702D01*
X155532000Y-87722605D01*
X154718903Y-88535702D01*
X154790486Y-88779671D01*
X154956026Y-88858000D01*
X148627655Y-88858000D01*
X148802120Y-88683535D01*
X148955005Y-88454727D01*
X149060314Y-88200490D01*
X149114000Y-87930592D01*
X149114000Y-87655408D01*
X149060314Y-87385510D01*
X148955005Y-87131273D01*
X148802120Y-86902465D01*
X148607535Y-86707880D01*
X148378727Y-86554995D01*
X148124490Y-86449686D01*
X147854592Y-86396000D01*
X147579408Y-86396000D01*
X147309510Y-86449686D01*
X147055273Y-86554995D01*
X146826465Y-86707880D01*
X146631880Y-86902465D01*
X146478995Y-87131273D01*
X146447000Y-87208515D01*
X146415005Y-87131273D01*
X146262120Y-86902465D01*
X146067535Y-86707880D01*
X145838727Y-86554995D01*
X145584490Y-86449686D01*
X145314592Y-86396000D01*
X145039408Y-86396000D01*
X144769510Y-86449686D01*
X144515273Y-86554995D01*
X144286465Y-86707880D01*
X144091880Y-86902465D01*
X143938995Y-87131273D01*
X143909308Y-87202943D01*
X143904636Y-87189977D01*
X143842656Y-87074020D01*
X143602565Y-87007040D01*
X142816605Y-87793000D01*
X143602565Y-88578960D01*
X143842656Y-88511980D01*
X143906485Y-88376240D01*
X143938995Y-88454727D01*
X144091880Y-88683535D01*
X144266345Y-88858000D01*
X143519322Y-88858000D01*
X143481999Y-88854324D01*
X143444676Y-88858000D01*
X143444667Y-88858000D01*
X143393823Y-88863008D01*
X143422960Y-88758565D01*
X142637000Y-87972605D01*
X141851040Y-88758565D01*
X141918020Y-88998656D01*
X142167048Y-89115756D01*
X142434135Y-89182023D01*
X142709017Y-89194910D01*
X142851794Y-89173404D01*
X141920998Y-90104201D01*
X141892000Y-90127999D01*
X141868202Y-90156997D01*
X141868201Y-90156998D01*
X141797026Y-90243724D01*
X141726454Y-90375754D01*
X141682998Y-90519015D01*
X141668324Y-90668000D01*
X141672001Y-90705332D01*
X141672001Y-91913512D01*
X141646099Y-91901175D01*
X141498890Y-91856524D01*
X141269000Y-91977845D01*
X141269000Y-93171000D01*
X141289000Y-93171000D01*
X141289000Y-93425000D01*
X141269000Y-93425000D01*
X141269000Y-93445000D01*
X141015000Y-93445000D01*
X141015000Y-93425000D01*
X140995000Y-93425000D01*
X140995000Y-93171000D01*
X141015000Y-93171000D01*
X141015000Y-91977845D01*
X140785110Y-91856524D01*
X140637901Y-91901175D01*
X140375080Y-92026359D01*
X140141731Y-92200412D01*
X139946822Y-92416645D01*
X139877195Y-92533534D01*
X139755475Y-92351368D01*
X139548632Y-92144525D01*
X139305411Y-91982010D01*
X139035158Y-91870068D01*
X138748260Y-91813000D01*
X138455740Y-91813000D01*
X138168842Y-91870068D01*
X137898589Y-91982010D01*
X137655368Y-92144525D01*
X137448525Y-92351368D01*
X137332000Y-92525760D01*
X137215475Y-92351368D01*
X137008632Y-92144525D01*
X136765411Y-91982010D01*
X136495158Y-91870068D01*
X136208260Y-91813000D01*
X135915740Y-91813000D01*
X135628842Y-91870068D01*
X135358589Y-91982010D01*
X135115368Y-92144525D01*
X134908525Y-92351368D01*
X134792000Y-92525760D01*
X134675475Y-92351368D01*
X134468632Y-92144525D01*
X134225411Y-91982010D01*
X133955158Y-91870068D01*
X133668260Y-91813000D01*
X133375740Y-91813000D01*
X133088842Y-91870068D01*
X132818589Y-91982010D01*
X132575368Y-92144525D01*
X132368525Y-92351368D01*
X132246805Y-92533534D01*
X132177178Y-92416645D01*
X131982269Y-92200412D01*
X131748920Y-92026359D01*
X131486099Y-91901175D01*
X131338890Y-91856524D01*
X131109002Y-91977844D01*
X131109002Y-91813000D01*
X131107868Y-91813000D01*
X131768427Y-91152441D01*
X131800291Y-91126291D01*
X131904636Y-90999146D01*
X131982172Y-90854087D01*
X132029918Y-90696689D01*
X132042000Y-90574019D01*
X132042000Y-90574009D01*
X132046039Y-90533001D01*
X132042000Y-90491993D01*
X132042000Y-89124919D01*
X132069510Y-89136314D01*
X132339408Y-89190000D01*
X132614592Y-89190000D01*
X132884490Y-89136314D01*
X133138727Y-89031005D01*
X133367535Y-88878120D01*
X133562120Y-88683535D01*
X133715005Y-88454727D01*
X133747000Y-88377485D01*
X133778995Y-88454727D01*
X133931880Y-88683535D01*
X134126465Y-88878120D01*
X134355273Y-89031005D01*
X134609510Y-89136314D01*
X134879408Y-89190000D01*
X135154592Y-89190000D01*
X135424490Y-89136314D01*
X135678727Y-89031005D01*
X135907535Y-88878120D01*
X136102120Y-88683535D01*
X136255005Y-88454727D01*
X136287000Y-88377485D01*
X136318995Y-88454727D01*
X136471880Y-88683535D01*
X136666465Y-88878120D01*
X136895273Y-89031005D01*
X137149510Y-89136314D01*
X137419408Y-89190000D01*
X137694592Y-89190000D01*
X137964490Y-89136314D01*
X138218727Y-89031005D01*
X138447535Y-88878120D01*
X138642120Y-88683535D01*
X138795005Y-88454727D01*
X138827000Y-88377485D01*
X138858995Y-88454727D01*
X139011880Y-88683535D01*
X139206465Y-88878120D01*
X139435273Y-89031005D01*
X139689510Y-89136314D01*
X139959408Y-89190000D01*
X140234592Y-89190000D01*
X140504490Y-89136314D01*
X140758727Y-89031005D01*
X140987535Y-88878120D01*
X141182120Y-88683535D01*
X141335005Y-88454727D01*
X141364692Y-88383057D01*
X141369364Y-88396023D01*
X141431344Y-88511980D01*
X141671435Y-88578960D01*
X142457395Y-87793000D01*
X141671435Y-87007040D01*
X141431344Y-87074020D01*
X141367515Y-87209760D01*
X141335005Y-87131273D01*
X141182120Y-86902465D01*
X141107090Y-86827435D01*
X141851040Y-86827435D01*
X142637000Y-87613395D01*
X143422960Y-86827435D01*
X143355980Y-86587344D01*
X143106952Y-86470244D01*
X142839865Y-86403977D01*
X142564983Y-86391090D01*
X142292867Y-86432078D01*
X142033977Y-86525364D01*
X141918020Y-86587344D01*
X141851040Y-86827435D01*
X141107090Y-86827435D01*
X140987535Y-86707880D01*
X140758727Y-86554995D01*
X140504490Y-86449686D01*
X140234592Y-86396000D01*
X139959408Y-86396000D01*
X139689510Y-86449686D01*
X139435273Y-86554995D01*
X139206465Y-86707880D01*
X139011880Y-86902465D01*
X138858995Y-87131273D01*
X138827000Y-87208515D01*
X138795005Y-87131273D01*
X138642120Y-86902465D01*
X138447535Y-86707880D01*
X138218727Y-86554995D01*
X137964490Y-86449686D01*
X137694592Y-86396000D01*
X137419408Y-86396000D01*
X137149510Y-86449686D01*
X136895273Y-86554995D01*
X136666465Y-86707880D01*
X136471880Y-86902465D01*
X136318995Y-87131273D01*
X136287000Y-87208515D01*
X136255005Y-87131273D01*
X136102120Y-86902465D01*
X135907535Y-86707880D01*
X135678727Y-86554995D01*
X135424490Y-86449686D01*
X135154592Y-86396000D01*
X134879408Y-86396000D01*
X134609510Y-86449686D01*
X134355273Y-86554995D01*
X134126465Y-86707880D01*
X133931880Y-86902465D01*
X133778995Y-87131273D01*
X133747000Y-87208515D01*
X133715005Y-87131273D01*
X133562120Y-86902465D01*
X133367535Y-86707880D01*
X133138727Y-86554995D01*
X132884490Y-86449686D01*
X132614592Y-86396000D01*
X132339408Y-86396000D01*
X132177702Y-86428165D01*
X133377869Y-85228000D01*
X147911133Y-85228000D01*
X148962558Y-86279426D01*
G04 #@! TA.AperFunction,Conductor*
D26*
G36*
X148962558Y-86279426D02*
G01*
X148988709Y-86311291D01*
X149115854Y-86415636D01*
X149260913Y-86493172D01*
X149418311Y-86540918D01*
X149582000Y-86557040D01*
X149623018Y-86553000D01*
X154483653Y-86553000D01*
X154423023Y-86613630D01*
X154539296Y-86729903D01*
X154295329Y-86801486D01*
X154174429Y-87056996D01*
X154105700Y-87331184D01*
X154091783Y-87613512D01*
X154133213Y-87893130D01*
X154228397Y-88159292D01*
X154295329Y-88284514D01*
X154539298Y-88356097D01*
X155352395Y-87543000D01*
X155338253Y-87528858D01*
X155517858Y-87349253D01*
X155532000Y-87363395D01*
X155546143Y-87349253D01*
X155725748Y-87528858D01*
X155711605Y-87543000D01*
X156524702Y-88356097D01*
X156768671Y-88284514D01*
X156889571Y-88029004D01*
X156958300Y-87754816D01*
X156972217Y-87472488D01*
X156930787Y-87192870D01*
X156835603Y-86926708D01*
X156768671Y-86801486D01*
X156524704Y-86729903D01*
X156640977Y-86613630D01*
X156580347Y-86553000D01*
X161631133Y-86553000D01*
X161780671Y-86702539D01*
X161747000Y-86871816D01*
X161747000Y-87174184D01*
X161805989Y-87470743D01*
X161921701Y-87750095D01*
X162089688Y-88001505D01*
X162303495Y-88215312D01*
X162554905Y-88383299D01*
X162834257Y-88499011D01*
X163077754Y-88547445D01*
X162767199Y-88858000D01*
X156116423Y-88858000D01*
X156148292Y-88846603D01*
X156273514Y-88779671D01*
X156345097Y-88535702D01*
X155532000Y-87722605D01*
X154718903Y-88535702D01*
X154790486Y-88779671D01*
X154956026Y-88858000D01*
X148627655Y-88858000D01*
X148802120Y-88683535D01*
X148955005Y-88454727D01*
X149060314Y-88200490D01*
X149114000Y-87930592D01*
X149114000Y-87655408D01*
X149060314Y-87385510D01*
X148955005Y-87131273D01*
X148802120Y-86902465D01*
X148607535Y-86707880D01*
X148378727Y-86554995D01*
X148124490Y-86449686D01*
X147854592Y-86396000D01*
X147579408Y-86396000D01*
X147309510Y-86449686D01*
X147055273Y-86554995D01*
X146826465Y-86707880D01*
X146631880Y-86902465D01*
X146478995Y-87131273D01*
X146447000Y-87208515D01*
X146415005Y-87131273D01*
X146262120Y-86902465D01*
X146067535Y-86707880D01*
X145838727Y-86554995D01*
X145584490Y-86449686D01*
X145314592Y-86396000D01*
X145039408Y-86396000D01*
X144769510Y-86449686D01*
X144515273Y-86554995D01*
X144286465Y-86707880D01*
X144091880Y-86902465D01*
X143938995Y-87131273D01*
X143909308Y-87202943D01*
X143904636Y-87189977D01*
X143842656Y-87074020D01*
X143602565Y-87007040D01*
X142816605Y-87793000D01*
X143602565Y-88578960D01*
X143842656Y-88511980D01*
X143906485Y-88376240D01*
X143938995Y-88454727D01*
X144091880Y-88683535D01*
X144266345Y-88858000D01*
X143519322Y-88858000D01*
X143481999Y-88854324D01*
X143444676Y-88858000D01*
X143444667Y-88858000D01*
X143393823Y-88863008D01*
X143422960Y-88758565D01*
X142637000Y-87972605D01*
X141851040Y-88758565D01*
X141918020Y-88998656D01*
X142167048Y-89115756D01*
X142434135Y-89182023D01*
X142709017Y-89194910D01*
X142851794Y-89173404D01*
X141920998Y-90104201D01*
X141892000Y-90127999D01*
X141868202Y-90156997D01*
X141868201Y-90156998D01*
X141797026Y-90243724D01*
X141726454Y-90375754D01*
X141682998Y-90519015D01*
X141668324Y-90668000D01*
X141672001Y-90705332D01*
X141672001Y-91913512D01*
X141646099Y-91901175D01*
X141498890Y-91856524D01*
X141269000Y-91977845D01*
X141269000Y-93171000D01*
X141289000Y-93171000D01*
X141289000Y-93425000D01*
X141269000Y-93425000D01*
X141269000Y-93445000D01*
X141015000Y-93445000D01*
X141015000Y-93425000D01*
X140995000Y-93425000D01*
X140995000Y-93171000D01*
X141015000Y-93171000D01*
X141015000Y-91977845D01*
X140785110Y-91856524D01*
X140637901Y-91901175D01*
X140375080Y-92026359D01*
X140141731Y-92200412D01*
X139946822Y-92416645D01*
X139877195Y-92533534D01*
X139755475Y-92351368D01*
X139548632Y-92144525D01*
X139305411Y-91982010D01*
X139035158Y-91870068D01*
X138748260Y-91813000D01*
X138455740Y-91813000D01*
X138168842Y-91870068D01*
X137898589Y-91982010D01*
X137655368Y-92144525D01*
X137448525Y-92351368D01*
X137332000Y-92525760D01*
X137215475Y-92351368D01*
X137008632Y-92144525D01*
X136765411Y-91982010D01*
X136495158Y-91870068D01*
X136208260Y-91813000D01*
X135915740Y-91813000D01*
X135628842Y-91870068D01*
X135358589Y-91982010D01*
X135115368Y-92144525D01*
X134908525Y-92351368D01*
X134792000Y-92525760D01*
X134675475Y-92351368D01*
X134468632Y-92144525D01*
X134225411Y-91982010D01*
X133955158Y-91870068D01*
X133668260Y-91813000D01*
X133375740Y-91813000D01*
X133088842Y-91870068D01*
X132818589Y-91982010D01*
X132575368Y-92144525D01*
X132368525Y-92351368D01*
X132246805Y-92533534D01*
X132177178Y-92416645D01*
X131982269Y-92200412D01*
X131748920Y-92026359D01*
X131486099Y-91901175D01*
X131338890Y-91856524D01*
X131109002Y-91977844D01*
X131109002Y-91813000D01*
X131107868Y-91813000D01*
X131768427Y-91152441D01*
X131800291Y-91126291D01*
X131904636Y-90999146D01*
X131982172Y-90854087D01*
X132029918Y-90696689D01*
X132042000Y-90574019D01*
X132042000Y-90574009D01*
X132046039Y-90533001D01*
X132042000Y-90491993D01*
X132042000Y-89124919D01*
X132069510Y-89136314D01*
X132339408Y-89190000D01*
X132614592Y-89190000D01*
X132884490Y-89136314D01*
X133138727Y-89031005D01*
X133367535Y-88878120D01*
X133562120Y-88683535D01*
X133715005Y-88454727D01*
X133747000Y-88377485D01*
X133778995Y-88454727D01*
X133931880Y-88683535D01*
X134126465Y-88878120D01*
X134355273Y-89031005D01*
X134609510Y-89136314D01*
X134879408Y-89190000D01*
X135154592Y-89190000D01*
X135424490Y-89136314D01*
X135678727Y-89031005D01*
X135907535Y-88878120D01*
X136102120Y-88683535D01*
X136255005Y-88454727D01*
X136287000Y-88377485D01*
X136318995Y-88454727D01*
X136471880Y-88683535D01*
X136666465Y-88878120D01*
X136895273Y-89031005D01*
X137149510Y-89136314D01*
X137419408Y-89190000D01*
X137694592Y-89190000D01*
X137964490Y-89136314D01*
X138218727Y-89031005D01*
X138447535Y-88878120D01*
X138642120Y-88683535D01*
X138795005Y-88454727D01*
X138827000Y-88377485D01*
X138858995Y-88454727D01*
X139011880Y-88683535D01*
X139206465Y-88878120D01*
X139435273Y-89031005D01*
X139689510Y-89136314D01*
X139959408Y-89190000D01*
X140234592Y-89190000D01*
X140504490Y-89136314D01*
X140758727Y-89031005D01*
X140987535Y-88878120D01*
X141182120Y-88683535D01*
X141335005Y-88454727D01*
X141364692Y-88383057D01*
X141369364Y-88396023D01*
X141431344Y-88511980D01*
X141671435Y-88578960D01*
X142457395Y-87793000D01*
X141671435Y-87007040D01*
X141431344Y-87074020D01*
X141367515Y-87209760D01*
X141335005Y-87131273D01*
X141182120Y-86902465D01*
X141107090Y-86827435D01*
X141851040Y-86827435D01*
X142637000Y-87613395D01*
X143422960Y-86827435D01*
X143355980Y-86587344D01*
X143106952Y-86470244D01*
X142839865Y-86403977D01*
X142564983Y-86391090D01*
X142292867Y-86432078D01*
X142033977Y-86525364D01*
X141918020Y-86587344D01*
X141851040Y-86827435D01*
X141107090Y-86827435D01*
X140987535Y-86707880D01*
X140758727Y-86554995D01*
X140504490Y-86449686D01*
X140234592Y-86396000D01*
X139959408Y-86396000D01*
X139689510Y-86449686D01*
X139435273Y-86554995D01*
X139206465Y-86707880D01*
X139011880Y-86902465D01*
X138858995Y-87131273D01*
X138827000Y-87208515D01*
X138795005Y-87131273D01*
X138642120Y-86902465D01*
X138447535Y-86707880D01*
X138218727Y-86554995D01*
X137964490Y-86449686D01*
X137694592Y-86396000D01*
X137419408Y-86396000D01*
X137149510Y-86449686D01*
X136895273Y-86554995D01*
X136666465Y-86707880D01*
X136471880Y-86902465D01*
X136318995Y-87131273D01*
X136287000Y-87208515D01*
X136255005Y-87131273D01*
X136102120Y-86902465D01*
X135907535Y-86707880D01*
X135678727Y-86554995D01*
X135424490Y-86449686D01*
X135154592Y-86396000D01*
X134879408Y-86396000D01*
X134609510Y-86449686D01*
X134355273Y-86554995D01*
X134126465Y-86707880D01*
X133931880Y-86902465D01*
X133778995Y-87131273D01*
X133747000Y-87208515D01*
X133715005Y-87131273D01*
X133562120Y-86902465D01*
X133367535Y-86707880D01*
X133138727Y-86554995D01*
X132884490Y-86449686D01*
X132614592Y-86396000D01*
X132339408Y-86396000D01*
X132177702Y-86428165D01*
X133377869Y-85228000D01*
X147911133Y-85228000D01*
X148962558Y-86279426D01*
G37*
G04 #@! TD.AperFunction*
D25*
X169572000Y-91893613D02*
X169515158Y-91870068D01*
X169228260Y-91813000D01*
X168935740Y-91813000D01*
X168648842Y-91870068D01*
X168378589Y-91982010D01*
X168135368Y-92144525D01*
X167928525Y-92351368D01*
X167806805Y-92533534D01*
X167737178Y-92416645D01*
X167542269Y-92200412D01*
X167308920Y-92026359D01*
X167046099Y-91901175D01*
X166898890Y-91856524D01*
X166669000Y-91977845D01*
X166669000Y-93171000D01*
X166689000Y-93171000D01*
X166689000Y-93425000D01*
X166669000Y-93425000D01*
X166669000Y-93445000D01*
X166415000Y-93445000D01*
X166415000Y-93425000D01*
X166395000Y-93425000D01*
X166395000Y-93171000D01*
X166415000Y-93171000D01*
X166415000Y-91977845D01*
X166185110Y-91856524D01*
X166037901Y-91901175D01*
X165775080Y-92026359D01*
X165541731Y-92200412D01*
X165346822Y-92416645D01*
X165277195Y-92533534D01*
X165155475Y-92351368D01*
X164948632Y-92144525D01*
X164705411Y-91982010D01*
X164435158Y-91870068D01*
X164148260Y-91813000D01*
X164136801Y-91813000D01*
X169572001Y-86377801D01*
X169572000Y-91893613D01*
G04 #@! TA.AperFunction,Conductor*
D26*
G36*
X169572000Y-91893613D02*
G01*
X169515158Y-91870068D01*
X169228260Y-91813000D01*
X168935740Y-91813000D01*
X168648842Y-91870068D01*
X168378589Y-91982010D01*
X168135368Y-92144525D01*
X167928525Y-92351368D01*
X167806805Y-92533534D01*
X167737178Y-92416645D01*
X167542269Y-92200412D01*
X167308920Y-92026359D01*
X167046099Y-91901175D01*
X166898890Y-91856524D01*
X166669000Y-91977845D01*
X166669000Y-93171000D01*
X166689000Y-93171000D01*
X166689000Y-93425000D01*
X166669000Y-93425000D01*
X166669000Y-93445000D01*
X166415000Y-93445000D01*
X166415000Y-93425000D01*
X166395000Y-93425000D01*
X166395000Y-93171000D01*
X166415000Y-93171000D01*
X166415000Y-91977845D01*
X166185110Y-91856524D01*
X166037901Y-91901175D01*
X165775080Y-92026359D01*
X165541731Y-92200412D01*
X165346822Y-92416645D01*
X165277195Y-92533534D01*
X165155475Y-92351368D01*
X164948632Y-92144525D01*
X164705411Y-91982010D01*
X164435158Y-91870068D01*
X164148260Y-91813000D01*
X164136801Y-91813000D01*
X169572001Y-86377801D01*
X169572000Y-91893613D01*
G37*
G04 #@! TD.AperFunction*
D25*
X145892000Y-90381676D02*
X145929322Y-90378000D01*
X158597198Y-90378000D01*
X157145998Y-91829201D01*
X157117000Y-91852999D01*
X157093202Y-91881997D01*
X157093201Y-91881998D01*
X157029969Y-91959045D01*
X156815158Y-91870068D01*
X156528260Y-91813000D01*
X156235740Y-91813000D01*
X155948842Y-91870068D01*
X155678589Y-91982010D01*
X155435368Y-92144525D01*
X155228525Y-92351368D01*
X155112000Y-92525760D01*
X154995475Y-92351368D01*
X154788632Y-92144525D01*
X154545411Y-91982010D01*
X154275158Y-91870068D01*
X153988260Y-91813000D01*
X153695740Y-91813000D01*
X153408842Y-91870068D01*
X153138589Y-91982010D01*
X152895368Y-92144525D01*
X152688525Y-92351368D01*
X152572000Y-92525760D01*
X152455475Y-92351368D01*
X152248632Y-92144525D01*
X152005411Y-91982010D01*
X151735158Y-91870068D01*
X151448260Y-91813000D01*
X151155740Y-91813000D01*
X150868842Y-91870068D01*
X150598589Y-91982010D01*
X150355368Y-92144525D01*
X150148525Y-92351368D01*
X150026805Y-92533534D01*
X149957178Y-92416645D01*
X149762269Y-92200412D01*
X149528920Y-92026359D01*
X149266099Y-91901175D01*
X149118890Y-91856524D01*
X148889000Y-91977845D01*
X148889000Y-93171000D01*
X148909000Y-93171000D01*
X148909000Y-93425000D01*
X148889000Y-93425000D01*
X148889000Y-93445000D01*
X148635000Y-93445000D01*
X148635000Y-93425000D01*
X148615000Y-93425000D01*
X148615000Y-93171000D01*
X148635000Y-93171000D01*
X148635000Y-91977845D01*
X148405110Y-91856524D01*
X148257901Y-91901175D01*
X147995080Y-92026359D01*
X147761731Y-92200412D01*
X147566822Y-92416645D01*
X147497195Y-92533534D01*
X147375475Y-92351368D01*
X147168632Y-92144525D01*
X146925411Y-91982010D01*
X146655158Y-91870068D01*
X146368260Y-91813000D01*
X146075740Y-91813000D01*
X145788842Y-91870068D01*
X145518589Y-91982010D01*
X145275368Y-92144525D01*
X145068525Y-92351368D01*
X144952000Y-92525760D01*
X144835475Y-92351368D01*
X144628632Y-92144525D01*
X144385411Y-91982010D01*
X144115158Y-91870068D01*
X143828260Y-91813000D01*
X143535740Y-91813000D01*
X143248842Y-91870068D01*
X143192000Y-91893613D01*
X143192000Y-90982801D01*
X143796802Y-90378000D01*
X145854678Y-90378000D01*
X145892000Y-90381676D01*
G04 #@! TA.AperFunction,Conductor*
D26*
G36*
X145892000Y-90381676D02*
G01*
X145929322Y-90378000D01*
X158597198Y-90378000D01*
X157145998Y-91829201D01*
X157117000Y-91852999D01*
X157093202Y-91881997D01*
X157093201Y-91881998D01*
X157029969Y-91959045D01*
X156815158Y-91870068D01*
X156528260Y-91813000D01*
X156235740Y-91813000D01*
X155948842Y-91870068D01*
X155678589Y-91982010D01*
X155435368Y-92144525D01*
X155228525Y-92351368D01*
X155112000Y-92525760D01*
X154995475Y-92351368D01*
X154788632Y-92144525D01*
X154545411Y-91982010D01*
X154275158Y-91870068D01*
X153988260Y-91813000D01*
X153695740Y-91813000D01*
X153408842Y-91870068D01*
X153138589Y-91982010D01*
X152895368Y-92144525D01*
X152688525Y-92351368D01*
X152572000Y-92525760D01*
X152455475Y-92351368D01*
X152248632Y-92144525D01*
X152005411Y-91982010D01*
X151735158Y-91870068D01*
X151448260Y-91813000D01*
X151155740Y-91813000D01*
X150868842Y-91870068D01*
X150598589Y-91982010D01*
X150355368Y-92144525D01*
X150148525Y-92351368D01*
X150026805Y-92533534D01*
X149957178Y-92416645D01*
X149762269Y-92200412D01*
X149528920Y-92026359D01*
X149266099Y-91901175D01*
X149118890Y-91856524D01*
X148889000Y-91977845D01*
X148889000Y-93171000D01*
X148909000Y-93171000D01*
X148909000Y-93425000D01*
X148889000Y-93425000D01*
X148889000Y-93445000D01*
X148635000Y-93445000D01*
X148635000Y-93425000D01*
X148615000Y-93425000D01*
X148615000Y-93171000D01*
X148635000Y-93171000D01*
X148635000Y-91977845D01*
X148405110Y-91856524D01*
X148257901Y-91901175D01*
X147995080Y-92026359D01*
X147761731Y-92200412D01*
X147566822Y-92416645D01*
X147497195Y-92533534D01*
X147375475Y-92351368D01*
X147168632Y-92144525D01*
X146925411Y-91982010D01*
X146655158Y-91870068D01*
X146368260Y-91813000D01*
X146075740Y-91813000D01*
X145788842Y-91870068D01*
X145518589Y-91982010D01*
X145275368Y-92144525D01*
X145068525Y-92351368D01*
X144952000Y-92525760D01*
X144835475Y-92351368D01*
X144628632Y-92144525D01*
X144385411Y-91982010D01*
X144115158Y-91870068D01*
X143828260Y-91813000D01*
X143535740Y-91813000D01*
X143248842Y-91870068D01*
X143192000Y-91893613D01*
X143192000Y-90982801D01*
X143796802Y-90378000D01*
X145854678Y-90378000D01*
X145892000Y-90381676D01*
G37*
G04 #@! TD.AperFunction*
D25*
X131109000Y-93171000D02*
X131129000Y-93171000D01*
X131129000Y-93425000D01*
X131109000Y-93425000D01*
X131109000Y-93445000D01*
X130855000Y-93445000D01*
X130855000Y-93425000D01*
X130835000Y-93425000D01*
X130835000Y-93171000D01*
X130855000Y-93171000D01*
X130855000Y-93151000D01*
X131109000Y-93151000D01*
X131109000Y-93171000D01*
G04 #@! TA.AperFunction,Conductor*
D26*
G36*
X131109000Y-93171000D02*
G01*
X131129000Y-93171000D01*
X131129000Y-93425000D01*
X131109000Y-93425000D01*
X131109000Y-93445000D01*
X130855000Y-93445000D01*
X130855000Y-93425000D01*
X130835000Y-93425000D01*
X130835000Y-93171000D01*
X130855000Y-93171000D01*
X130855000Y-93151000D01*
X131109000Y-93151000D01*
X131109000Y-93171000D01*
G37*
G04 #@! TD.AperFunction*
D25*
X162220998Y-91579201D02*
X162192000Y-91602999D01*
X162168202Y-91631997D01*
X162168201Y-91631998D01*
X162097026Y-91718724D01*
X162026454Y-91850754D01*
X162016977Y-91881998D01*
X162005471Y-91919928D01*
X161966099Y-91901175D01*
X161818890Y-91856524D01*
X161589000Y-91977845D01*
X161589000Y-93171000D01*
X161609000Y-93171000D01*
X161609000Y-93425000D01*
X161589000Y-93425000D01*
X161589000Y-93445000D01*
X161335000Y-93445000D01*
X161335000Y-93425000D01*
X161315000Y-93425000D01*
X161315000Y-93171000D01*
X161335000Y-93171000D01*
X161335000Y-91977845D01*
X161105110Y-91856524D01*
X160957901Y-91901175D01*
X160695080Y-92026359D01*
X160461731Y-92200412D01*
X160266822Y-92416645D01*
X160197195Y-92533534D01*
X160075475Y-92351368D01*
X159868632Y-92144525D01*
X159625411Y-91982010D01*
X159355158Y-91870068D01*
X159271395Y-91853406D01*
X159571802Y-91553000D01*
X162247199Y-91553000D01*
X162220998Y-91579201D01*
G04 #@! TA.AperFunction,Conductor*
D26*
G36*
X162220998Y-91579201D02*
G01*
X162192000Y-91602999D01*
X162168202Y-91631997D01*
X162168201Y-91631998D01*
X162097026Y-91718724D01*
X162026454Y-91850754D01*
X162016977Y-91881998D01*
X162005471Y-91919928D01*
X161966099Y-91901175D01*
X161818890Y-91856524D01*
X161589000Y-91977845D01*
X161589000Y-93171000D01*
X161609000Y-93171000D01*
X161609000Y-93425000D01*
X161589000Y-93425000D01*
X161589000Y-93445000D01*
X161335000Y-93445000D01*
X161335000Y-93425000D01*
X161315000Y-93425000D01*
X161315000Y-93171000D01*
X161335000Y-93171000D01*
X161335000Y-91977845D01*
X161105110Y-91856524D01*
X160957901Y-91901175D01*
X160695080Y-92026359D01*
X160461731Y-92200412D01*
X160266822Y-92416645D01*
X160197195Y-92533534D01*
X160075475Y-92351368D01*
X159868632Y-92144525D01*
X159625411Y-91982010D01*
X159355158Y-91870068D01*
X159271395Y-91853406D01*
X159571802Y-91553000D01*
X162247199Y-91553000D01*
X162220998Y-91579201D01*
G37*
G04 #@! TD.AperFunction*
M02*
